<?xml version="1.0" encoding="utf-8"?>
<!-- Generator: Adobe Illustrator 19.0.0, SVG Export Plug-In . SVG Version: 6.00 Build 0)  -->
<svg version="1.1" xmlns="http://www.w3.org/2000/svg" xmlns:xlink="http://www.w3.org/1999/xlink" x="0px" y="0px"
	 viewBox="0 0 1150 627" enable-background="new 0 0 1150 627" xml:space="preserve">
<g id="Layer_2">
	<path opacity="0.15" fill="#5FA0FF" d="M142.4,596.7c16.3-122.8-0.6-213.4-19.1-273.6c-32.5-105.6-90.7-185.1-54-243.7
		c15.9-25.3,42.2-35.2,57-40.5c101.6-36.5,175.2,57.8,324,105c130.5,41.4,254.6,26.1,405,7.5c158.1-19.5,225.3-54.6,264-13.5
		c43.6,46.3,21.8,158.6-13.5,226.5c-30.2,58.1-69.8,83.1-84,153c0,0-0.3,1.7-14.1,79.4l0,0C719.2,596.7,430.8,596.7,142.4,596.7z"/>
</g>
<g id="Слой_1">
	<g>
		<linearGradient id="SVGID_1_" gradientUnits="userSpaceOnUse" x1="600.8555" y1="323.0031" x2="925.6912" y2="323.0031">
			<stop  offset="0" style="stop-color:#96CBFF"/>
			<stop  offset="1" style="stop-color:#5599FF"/>
		</linearGradient>
		<linearGradient id="SVGID_2_" gradientUnits="userSpaceOnUse" x1="598.7356" y1="323.0032" x2="927.811" y2="323.0032">
			<stop  offset="0" style="stop-color:#00AA48"/>
			<stop  offset="3.495765e-002" style="stop-color:#05AE51"/>
			<stop  offset="0.2892" style="stop-color:#25CB8E"/>
			<stop  offset="0.5217" style="stop-color:#3EE1BF"/>
			<stop  offset="0.7251" style="stop-color:#51F1E2"/>
			<stop  offset="0.8914" style="stop-color:#5CFBF7"/>
			<stop  offset="1" style="stop-color:#60FFFF"/>
		</linearGradient>
		<path fill="url(#SVGID_1_)" stroke="url(#SVGID_2_)" stroke-width="4.2079" stroke-miterlimit="10" d="M883.1,395.1
			c6.8-11.3,11.8-23.3,15.2-35.7l26.8-5.1l0.3-29.7l0.3-29.7l-26.7-5.6c-3.1-12.5-7.9-24.6-14.5-36l15.3-22.6L879,209.4l-20.8-21.2
			l-22.9,14.9c-11.3-6.8-23.3-11.8-35.7-15.2l-5.1-26.8l-29.7-0.3l-29.7-0.3l-5.6,26.7c-12.5,3.1-24.6,7.9-36,14.5l-22.6-15.3
			l-21.2,20.8l-21.2,20.8l14.9,22.9c-6.8,11.3-11.8,23.3-15.2,35.7l-26.8,5.1l-0.3,29.7l-0.3,29.7l26.7,5.6
			c3.1,12.5,7.9,24.6,14.5,36l-15.3,22.6l20.8,21.2l20.8,21.2l22.9-14.9c11.3,6.8,23.3,11.8,35.7,15.2l5.1,26.8l29.7,0.3l29.7,0.3
			l5.6-26.7c12.5-3.1,24.6-7.9,36-14.5l22.6,15.3l21.2-20.8l21.2-20.8L883.1,395.1z M711.3,374c-28.2-28.7-27.7-74.8,1-102.9
			c28.7-28.2,74.8-27.7,102.9,1c28.2,28.7,27.7,74.8-1,102.9C785.6,403.1,739.5,402.7,711.3,374z"/>
		<linearGradient id="SVGID_3_" gradientUnits="userSpaceOnUse" x1="254.6509" y1="142.4783" x2="420.8305" y2="142.4783">
			<stop  offset="0" style="stop-color:#00AA48"/>
			<stop  offset="8.031070e-002" style="stop-color:#059C40"/>
			<stop  offset="0.3719" style="stop-color:#177026"/>
			<stop  offset="0.6329" style="stop-color:#235014"/>
			<stop  offset="0.8512" style="stop-color:#2B3C08"/>
			<stop  offset="1" style="stop-color:#2E3504"/>
		</linearGradient>
		<path fill="url(#SVGID_3_)" stroke="#FFFFFF" stroke-width="2.104" stroke-miterlimit="10" d="M399.1,179.3
			c3.5-5.8,6.1-11.9,7.8-18.3l13.7-2.6l0.1-15.2l0.1-15.2l-13.7-2.9c-1.6-6.4-4.1-12.6-7.4-18.4l7.8-11.6l-10.6-10.8l-10.6-10.8
			l-11.7,7.6c-5.8-3.5-11.9-6.1-18.3-7.8l-2.6-13.7l-15.2-0.1l-15.2-0.1l-2.9,13.7c-6.4,1.6-12.6,4.1-18.4,7.4l-11.6-7.8l-10.8,10.6
			l-10.8,10.6l7.6,11.7c-3.5,5.8-6.1,11.9-7.8,18.3l-13.7,2.6l-0.1,15.2l-0.1,15.2l13.7,2.9c1.6,6.4,4.1,12.6,7.4,18.4l-7.8,11.6
			l10.6,10.8l10.6,10.8l11.7-7.6c5.8,3.5,11.9,6.1,18.3,7.8l2.6,13.7l15.2,0.1l15.2,0.1l2.9-13.7c6.4-1.6,12.6-4,18.4-7.4l11.6,7.8
			l10.8-10.6l10.8-10.6L399.1,179.3z M311.2,168.6c-14.4-14.7-14.2-38.3,0.5-52.7c14.7-14.4,38.3-14.2,52.7,0.5
			c14.4,14.7,14.2,38.3-0.5,52.7C349.1,183.5,325.6,183.2,311.2,168.6z"/>
		<g>
			<path fill="#4DA8F2" d="M683.3,460.6c-1.8-2.4-4.7-4-8-4c-4.5-0.1-8.4,2.8-9.7,6.9l0,0l0,0c-0.3,1-0.5,2-0.5,3.1
				c0,1.3,0.2,2.5,0.6,3.6c0.7,1.8,1.8,3.4,3.3,4.5c1.5,1.2,3.3,1.9,5.3,2.1c0.3,0,0.5,0,0.8,0c0.2,0,0.3,0,0.5,0c0.1,0,0.1,0,0.2,0
				c1-0.1,2-0.3,2.9-0.6c3.8-1.4,6.6-5.1,6.7-9.4C685.3,464.5,684.6,462.3,683.3,460.6z M677.8,473.8L677.8,473.8
				c-0.7,0.3-1.4,0.4-2.2,0.4l0,0c-0.2,0-0.3,0-0.5,0c-0.7,0-1.4-0.1-2.1-0.3c-0.9-0.3-1.8-0.7-2.5-1.3c-0.3-0.2-0.5-0.4-0.8-0.7
				c-1.4-1.4-2.2-3.3-2.2-5.4c0-0.6,0.1-1.1,0.2-1.6c0.1-0.3,0.1-0.5,0.2-0.7c1-3,3.9-5.2,7.3-5.2c2.4,0,4.6,1.2,5.9,3
				c1,1.3,1.6,2.9,1.6,4.7C682.7,470,680.7,472.8,677.8,473.8z"/>
		</g>
		<g>
			<linearGradient id="SVGID_4_" gradientUnits="userSpaceOnUse" x1="142.3735" y1="601.7839" x2="1007.6265" y2="601.7839">
				<stop  offset="0" style="stop-color:#FFC955"/>
				<stop  offset="1" style="stop-color:#000000"/>
			</linearGradient>
			<rect x="142.4" y="596.7" fill="url(#SVGID_4_)" width="865.3" height="10.3"/>
		</g>
		<g>
			<g>
				<g>
					<path fill="#6069A8" d="M823.6,224.2c0,0,5.5,9.3,7.8,10.9c3.2,2.1,1.2,4.2-0.3,4.2c-1.5,0-9.1,0.6-10.8-1.4
						c-1.7-1.9-2.5-7.6-4.1-9.1c-1.6-1.5-3.2-7.5,0.8-8.9C820.4,218.5,823.6,224.2,823.6,224.2z"/>
				</g>
			</g>
		</g>
		<g>
			<g>
				<g>
					<path fill="#202338" d="M821.2,220.1c0,0,6.3,10.9,7.4,12.5c1.1,1.6-2,1.6-4,0.8c-1.9-0.8-6.8-8.6-7.5-10
						c-0.8-1.7-0.1-3.7-0.1-3.7L821.2,220.1z"/>
				</g>
			</g>
		</g>
		<g>
			<g>
				<g>
					<polygon fill="#6069A8" points="814.8,226 816.3,237.2 817.1,237.2 816.8,229.2 					"/>
				</g>
			</g>
		</g>
		<g>
			<g>
				<g>
					<path fill="#6069A8" d="M769,224.2c0,0,5.5,9.3,7.8,10.9c3.2,2.1,1.2,4.2-0.3,4.2c-1.5,0-9.1,0.6-10.8-1.4
						c-1.7-1.9-2.5-7.6-4.1-9.1c-1.6-1.5-3.2-7.6,0.8-8.9C765.9,218.7,769,224.2,769,224.2z"/>
				</g>
			</g>
		</g>
		<g>
			<g>
				<g>
					<path fill="#202338" d="M767,220.1c0,0,6,10.9,7.1,12.5c1.1,1.6-2,1.6-4,0.8c-1.9-0.8-6.8-8.6-7.5-10c-0.8-1.7-0.1-3.7-0.1-3.7
						L767,220.1z"/>
				</g>
			</g>
		</g>
		<g>
			<g>
				<g>
					<polygon fill="#6069A8" points="760.3,226 761.7,237.2 762.5,237.2 762.3,229.2 					"/>
				</g>
			</g>
		</g>
		<g>
			<g>
				<g>
					<path fill="#202338" d="M744.6,139.3l49.8,22.7c0,0,5.6,1.8,6.2,8c1.9,19.3,16.4,49.8,16.4,49.8c4.6,2.3,4.3,0.3,4.3,0.3
						c-2.9-9.4-6.5-47.9-7.7-63.4c-0.3-3.3-0.4-5.5-0.5-6.2c0-0.5-0.6-1.1-1.5-1.9c-6.8-5.5-34.9-17-34.9-17
						C755.5,131,744.6,139.3,744.6,139.3z"/>
				</g>
			</g>
		</g>
		<g>
			<g>
				<g>
					<path fill="#202338" d="M735.2,149.1C736.8,162.5,756,161,756,161h23.3c0,0-6.1,13.6-8.5,25.1c-2.5,12.2-8.4,33.7-8.4,33.7
						s0.4,0.7,4.6,0.3c0,0,18.3-36.4,25.3-45.6c1.5-2,5.8-12.7,6.6-19c0.3-2.1,0.1-3.8-0.7-4.5c-0.8-0.7-2.7-2-5.1-3.5
						c-7.3-4.6-20-11.7-27-13.3c-9.5-2.1-24.4-6.1-24.4-6.1S733.7,135.6,735.2,149.1z"/>
				</g>
			</g>
		</g>
		<g>
			<path fill="#464240" d="M751.1,45.4c0,0-3.5-6.6-1.8-13.7c1.7-7,8.2-14.1,17.8-10.8c9.6,3.2,17.3,10.7,11.6,19.3
				c-5.7,8.6,5.2,12.5,2.4,16.6c-2.8,4.1-1.7,8.4-0.6,9.3c1.2,1,5,4.3,4.6,8.4c-0.4,4-18.6-11.7-18.6-11.7S756.6,42.8,751.1,45.4z"
				/>
		</g>
		<g>
			<path fill="#EB4747" d="M780.3,130c0,0-1.4,7-38.6-1.8C741.6,128.1,754.1,124,780.3,130z"/>
		</g>
		<g>
			<g>
				<path fill="#5F8CC9" d="M741.2,130.1c-0.6,1.1-1.2,2.2-1.7,3.3c13.6,0.4,27.2,0.8,40.8,1.2c-2.1-7.2-1.5-17-1.1-24.4
					c0.5-9,5.5-15.3,4.9-24.5c2.7,0.4,3.2,0.5,5.8,0.9c-4.1-11.7-5.5-17.6-18.3-22.1c-4.2-1.5-6.9-1.8-11.4-1.4
					c-14.8,1.2-19.3,1.4-26.6,14.8c11.4,1.8,9.5,5.9,13,17.2c1.7,5.5,3.4,11.7,2.5,17.5C748.3,118.6,741.2,124.9,741.2,130.1z"/>
			</g>
		</g>
		<g>
			<g>
				<path fill="#EEA886" d="M764.9,67.5c-6.1-1.1-4.8-4.5-4.8-4.5s0.3-1.9,0.4-4.3c0-0.6,0-1.3,0-1.9c0-1-0.1-2-0.2-3
					c-0.5-4.1,11-1.6,11-1.6s-0.7,8.2,0.9,10.7C773.9,65.3,770.9,68.6,764.9,67.5z"/>
			</g>
		</g>
		<g>
			<g>
				<path fill="#EEA886" d="M753.3,62.9c0,0,12.2,14.1,16.8,17.4c0,0,5.2-4.7,2-17.1C772,63.2,766.1,60.3,753.3,62.9z"/>
			</g>
		</g>
		<g>
			<path fill="#EEA886" d="M753.6,28.9c0,0-6.4,12.2-0.1,23.8c6.3,11.6,18.7-5.1,19.5-7c0.8-2,5-13-3.4-16.4
				C761.2,26,755.4,25.6,753.6,28.9z"/>
		</g>
		<g>
			<path fill="#464240" d="M755.7,33.3c0,0-4.4,5.7-4.9,10c0,0-1.7-8,3.2-15.7c4.9-7.7,17.4-0.4,19.1,2.7c1.7,3.1,6.6,5.8-1.7,19
				C771.5,49.3,756.6,39,755.7,33.3z"/>
		</g>
		<g>
			<path fill="#A77860" d="M765.9,54c0,0-1.1,2.4-5.4,4.7c0-0.6,0-1.3,0-1.9C760.5,56.7,763.4,56.4,765.9,54z"/>
		</g>
		<g>
			<path fill="#EEA886" d="M701.7,119.1c0,0-3,1.3-4.5,0.7c-1.4-0.6-3.6-0.7-4.3-0.7c-0.9,0-3.9-1-3.8,0.1c0,1.1,4.7,1.9,5.7,2.3
				c1,0.4-2.9,2.5-3.2,3.4c-0.4,0.9,4,7.1,6.4,5.3c2.4-1.8,3.8-5.3,4.3-5.5c0.5-0.2,1.8-1.2,1.8-1.2L701.7,119.1z"/>
		</g>
		<g>
			<path fill="#EEA886" d="M692,124.3c0,0-7.1,5.9-7.2,6.7c-0.1,0.8,0.3,1.2,0.9,0.6c0.7-0.5,7-5.5,7-5.5s-7.1,8.4-7.3,9
				c-0.1,0.4,0.5,1.1,0.9,0.9c0.4-0.2,7.9-8.1,7.9-8.1s-6.6,7.8-6.6,8.4c0,0.5,0.8,1.1,1.3,0.5c0.5-0.5,7.1-7.5,7.1-7.5
				s-4.4,6-4.2,6.5c0.2,0.3,0.7,1,1.8-0.6c1.1-1.6,4.1-5.1,4.1-5.1L692,124.3z"/>
		</g>
		<g>
			<g>
				<path fill="#FFC955" d="M776.8,161H756c0,0-19.2,1.5-20.8-11.9c-1.5-13.5,6.3-20.9,6.3-20.9s10.2,2.7,19,4.8
					c4.4-0.9,9.8-1.6,16-1.4c0,0,37.6,12.4,36.4,18.9C813,150.5,797.3,142.1,776.8,161z"/>
			</g>
		</g>
		<g>
			<polygon fill="#5E5853" points="763.3,137.7 803,137.1 783,147.3 			"/>
		</g>
		<g>
			<path fill="#5F8CC9" d="M775.6,132.6c0,0-8.9,3.5-19.9,0.3l-0.5-4.1l22.6,1.3L775.6,132.6z"/>
		</g>
		<g>
			<polygon fill="#91887F" points="783,147.3 763.3,139.7 763.3,137.7 784.5,145.3 			"/>
		</g>
		<g>
			<g>
				<path fill="#EDDAD3" d="M775.5,134.5c-0.1,1.5,1.4,2.5,2.7,2l2.3-1c0.7-0.3,1.1-1,1-1.8c-1-6-3-29.4,0-33.4
					c1.1-1.5,1.8-2.8,2.2-3.9c2,5.1,4.5,11.7,5.4,15.3l18.8,25l6.3,1.6c-7.9-18.9-14.2-29-14.2-29c-1.2-3.3-4.8-13.3-7.9-22.2
					c-2-5.6-3.8-10.8-4.8-13.6c-0.5-1.4-1.5-2.6-2.7-3.4c-2.9-1.7-7.8-4.5-12.2-6.6c0,0,0,0-0.1,0c-0.1-0.1-0.3-0.1-0.4-0.2
					c0,0,0,0,0,0c0,0,0,0,0,0C780.4,75.9,777.1,111.6,775.5,134.5C775.5,134.5,775.5,134.5,775.5,134.5z"/>
			</g>
			<g>
				<path fill="#EDDAD3" d="M744.5,64.3c-2.7,0.4-9.3,6.9-12.8,13.4c-4,7.4-8.1,15.9-11.2,18.7c-5.6,5.1-21.4,23.2-22.2,22.8
					c-0.3-0.2,4.3,5.4,4.9,5.7c0.3,0.1,26-22.1,28.4-25.5c2.3-3.2,8.6-16.7,10.5-16.4c0,0,0,0,0,0c0,0,0,0,0,0
					c0.1,0.3,2.4,5.2,4.6,12.4c0,0.1,0.1,0.2,0.1,0.4c1.5,5,1.3,10.5,0.5,16.6c-0.6,4.6-4.1,12.2-6.1,15.9c-0.3,0.4-0.2,1.3,0.1,1.9
					c0,0,0,0,0,0c0.2,0.4,0.4,0.7,0.7,0.8l7.5,2.8l1.8,0.7c1.3,0.5,2.6,0.2,3.6-0.5c0.8-0.6,1.4-1.5,1.6-2.6
					c1.7-12.9,3.8-26.1,5.5-31C769.3,78.4,759,62,759,62S746.8,63.4,744.5,64.3z"/>
			</g>
		</g>
		<g>
			<polygon fill="#6E6760" points="783,147.3 794.8,115 832.9,115.6 821.6,145.4 			"/>
		</g>
		<g>
			
				<ellipse transform="matrix(-0.8943 -0.4475 0.4475 -0.8943 1475.6451 610.037)" fill="#807066" cx="809.9" cy="130.7" rx="3.2" ry="4.7"/>
		</g>
		<g>
			<path fill="#464240" d="M766.8,41.1c0,0,2.4,3.8,0.2,7.1c-2.3,3.3,0.6,6.5,1.1,10c0.5,3.5-9.4,12.7,1.6,17.3
				c11,4.6,14.5-3,11.7-7.3c-2.8-4.2-4.8-7.6-5-13.7C776.1,48.6,774.1,39.2,766.8,41.1z"/>
		</g>
		<g>
			<polygon fill="#FFCB55" points="712.9,25.3 735.9,25.3 735.9,42 735.9,45.5 732.4,42 712.9,42 			"/>
		</g>
		<g>
			<g>
				<g>
					<g>
						<g>
							<path fill="#BBD070" d="M583.9,281c0,0-50.1,47.7-25.7,84.8c24.4,37.1,35.8,4.6,35.8,4.6s16.5,5-8-40.8
								C574.4,308.1,583.9,281,583.9,281z"/>
						</g>
					</g>
				</g>
			</g>
			<g>
				<g>
					<g>
						<g>
							<path fill="#97A43C" d="M491.3,229.3c0,0-38.3,45,12.9,107.3c51.2,62.3,43.2,95.2,43.2,95.2S618.6,323.5,491.3,229.3z"/>
						</g>
					</g>
				</g>
			</g>
			<g>
				<g>
					<g>
						<g>
							<path fill="#48753A" d="M558.9,413c23.8,4.8,4.5-64.4-31.2-85.5c-35.7-21.1-67.7-23.2-87.7-43.5
								C440.1,284,441.7,389.3,558.9,413z"/>
						</g>
					</g>
				</g>
			</g>
		</g>
		<g>
			<g>
				<g>
					<g>
						<path fill="#EEA886" d="M403.3,443.4c0,0,1.1-2.7,1.3-3.1c0.2-0.4,1.2-1.1,2.5-1.7c1.3-0.7,3.3-1,3.5-0.9
							c0.2,0.1,0.5,0.1,0.8,0.7c0.3,0.6,0.2,1.2,0.2,1.2s0.7,0.5,0.5,1.3c0,0,0.6,0.5,0.3,1.4c0,0,0.6,0.5,0.3,1.1
							c0,0-1.1,0.7-1.4,1c-0.3,0.4-2.6,1.6-5,2.5C406.3,446.9,403.8,447,403.3,443.4z"/>
					</g>
				</g>
			</g>
			<g>
				<g>
					<g>
						<path fill="#CF8C6C" d="M407.2,441.9c0,0,0,1.5-0.2,1.9c-0.2,0.4,3,1.3,3,1.3S409,441.9,407.2,441.9z"/>
					</g>
				</g>
			</g>
			<g>
				<g>
					<g>
						<polygon fill="#3B3F66" points="348,585.1 349.4,580.8 355.3,581.7 354.4,585.6 						"/>
					</g>
				</g>
			</g>
			<g>
				<g>
					<g>
						<polygon fill="#555C94" points="396,584.6 396.4,586.9 402.8,585.9 402.4,582.3 						"/>
					</g>
				</g>
			</g>
			<g>
				<g>
					<g>
						<g>
							<path fill="#354C70" d="M382.1,518.1c0,0-0.9,5.1-2,10.9c-0.2,1-0.4,2-0.6,3c-1.1,5.5-2.2,10.8-2.6,11.9
								c-0.9,2.5-20.5,38.5-20.5,38.5s-8-0.6-8.3-1.6c0,0,16.5-39.1,16.4-40.5c-0.1-1.4,2-41.5,2-41.5S381.7,515.8,382.1,518.1z"/>
						</g>
					</g>
				</g>
			</g>
			<g>
				<g>
					<g>
						<g>
							<path fill="#354C70" d="M391.1,496.5c0,0,7.7,39.3,8.3,42.4c0.7,3,3.6,43.3,3.6,43.3s-1.7,3.6-8.1,2.2c0,0-8.7-43.3-9.4-44.8
								c-2.8-5.6-16.8-32.9-18.2-36.8c-1.4-3.9-1-8.4-1-8.4S376.8,488.6,391.1,496.5z"/>
						</g>
					</g>
				</g>
			</g>
			<g>
				<g>
					<g>
						<g>
							<path fill="#DEB135" d="M387.9,445.5c0,0,3.4,8.4,4.2,8.2c0.8-0.3,10.5-11.6,10.5-11.6s4.4,5.5,3.8,6.2
								c-0.8,0.9-12.3,19.9-13.8,19.6c-1.6-0.3-8.6-12-8.6-12S383.6,447.1,387.9,445.5z"/>
						</g>
					</g>
				</g>
			</g>
			<g>
				<g>
					<g>
						<g>
							<path fill="#F2C344" d="M373.5,429.5c0,0,8.7,6.7,11.2,9.3c2.4,2.6,9.1,13.6,8.6,16.9c-1.8,12.7-2.7,23.5-2.8,32.1
								c0,7.5,2.4,9.5,0.9,9.6c-1.7,0.1-23.7,8.1-27,9.1c0,0,2.1-26.5,3.2-29.6C368.6,473.9,364.1,441.8,373.5,429.5z"/>
						</g>
					</g>
				</g>
			</g>
			<g>
				<g>
					<g>
						<path fill="#D9D0C4" d="M429.8,416.8l2,9.9l2,9.9c0,0-11.2-3.5-23.9-1l-0.9-4.4l-0.9-4.4C420.7,424.3,429.8,416.8,429.8,416.8
							z"/>
					</g>
				</g>
			</g>
			<g>
				<g>
					<g>
						<path fill="#84BDFF" d="M396.4,586.9c0,0,4.8-0.9,5-1.1c0.2-0.1,1.2-2.1,2-1.7c0.7,0.3,0.8,2.7,1.5,3.1c0.7,0.4,6.5,4.3,7.2,5
							c0.7,0.7,5.1,0.3,5.6,1.5s0.5,4.2-6,3.5c-6.5-0.7-14,0.4-15.4-0.4C394.8,596,395.9,588.8,396.4,586.9z"/>
					</g>
				</g>
			</g>
			<g>
				<g>
					<g>
						<path fill="#84BDFF" d="M347.9,585c0,0,4.9-0.2,5.1-0.3c0.2-0.1,1.5-1.8,2.2-1.4c0.7,0.5,0.3,2.7,1,3.3
							c0.7,0.5,5.7,5.3,6.3,6.1c0.6,0.8,5,1.1,5.3,2.4s-0.1,4.2-6.5,2.5c-6.3-1.7-13.9-1.9-15.1-2.9
							C345,593.7,347.2,586.7,347.9,585z"/>
					</g>
				</g>
			</g>
			<g>
				<g>
					<g>
						<g>
							<path fill="#EEA987" d="M386.2,498.3c0,0,0.6,2.4,1.5,2.9c0.9,0.5-4.4,5.6-4.4,5.6s-2.2-4.7-2.1-5.2
								C381.3,501.2,386.2,498.3,386.2,498.3z"/>
						</g>
					</g>
				</g>
			</g>
			<g>
				<g>
					<g>
						<g>
							<path fill="#FFD255" d="M369.6,439.9c0,0-6.3,29.8-6.8,32.9c-0.5,2.9,18.4,30.5,18.4,30.5l6.3-3.7c0,0-15.2-27.7-15.2-29
								c0-1.3,7.3-25.3,7.3-25.3s3-5.2-2.4-7.8C371.8,434.9,369.6,439.9,369.6,439.9z"/>
						</g>
					</g>
				</g>
			</g>
			<g>
				<g>
					<g>
						<path fill="#3C5780" d="M389.9,500.4c0,0,2,10.1,1.9,13.3s-11.7-4.9-11.1-8L389.9,500.4z"/>
					</g>
				</g>
			</g>
			<g>
				<g>
					<g>
						<g>
							<g>
								<path fill="#EEA886" d="M373.5,429.5c0,0,15.9,17.4,14.9,15.5c-3.5-6.9-5.9-8-5.9-9.3c0-1,0.4-3.8,0.5-4.8
									c0.1-1.8,0.3-3.3,0.3-3.3s-7.9-11.1-7.6-7.3C376.1,424,373.5,429.5,373.5,429.5z"/>
							</g>
						</g>
					</g>
				</g>
			</g>
			<g>
				<g>
					<g>
						<g>
							<g>
								<path fill="#EEA886" d="M388.6,409c0,0,2.2,5.1,2.2,6.3c0,1.2-0.3,2.1-0.1,3.5c0.2,1.4,1.4,4.4,1.2,5.3
									c-0.2,1-2.3,0.5-2.6,2.1c-0.3,1.7-1.8,4.8-2.6,4.8c-2,0.2-9.5-2.9-10-4.5c-0.5-1.6-3.2-10.4-4.1-12.1
									c-0.9-1.7,13.3-10.8,14.6-8.2C388.6,409,388.6,409,388.6,409z"/>
							</g>
						</g>
					</g>
				</g>
			</g>
			<g>
				<g>
					<g>
						<path fill="#16202E" d="M369.4,412.8c-1-4.4,4-4.9,4-4.9s3.3-3.8,11.1-3.3c7.8,0.5,6.6,10.6,6.6,10.6s-5.4-0.8-7.7-0.2
							c0,0-0.3,4.3,0,5.4l-2.9-0.3c0,0,0.3-3.9-1.1-4s-1.9,8.2-4.5,10c0,0,0-0.6-0.4-1.2l0,0l0,0c-0.5-0.9-1.3-2.5-2-4.3
							C371.2,418.2,369.9,415.1,369.4,412.8z"/>
					</g>
				</g>
			</g>
			<g>
				<g>
					<g>
						<g>
							<g>
								<path fill="#EEA886" d="M381.2,417.1c0,0-1.1-2.9-3.7-1c-1.9,1.4,0.1,6.4,1.9,6.3C381.3,422.4,382,419.7,381.2,417.1z"/>
							</g>
						</g>
					</g>
				</g>
			</g>
			<g>
				<g>
					<g>
						<path fill="#C48A6F" d="M376.4,425.3c0,0,0.4,1.6,0.8,1.9c0.4,0.4,2.4,2,5.8,3.1l-0.3,3.1
							C382.7,433.3,376.1,430.7,376.4,425.3z"/>
					</g>
				</g>
			</g>
			<g>
				<g>
					<g>
						<g>
							<defs>
								<path id="SVGID_5_" d="M411.5,446.4l1.1-0.5l-5.1-10.8l-2.9,1.3l4.3,9.2C409.5,446.6,410.5,446.9,411.5,446.4z"/>
							</defs>
							<clipPath id="SVGID_6_">
								<use xlink:href="#SVGID_5_"  overflow="visible"/>
							</clipPath>
							<path clip-path="url(#SVGID_6_)" fill="#96CBFF" d="M404.7,435.1v11.8V435.1z"/>
							<rect x="404.7" y="435.1" clip-path="url(#SVGID_6_)" fill="#96CBFF" width="0.1" height="11.8"/>
							<rect x="404.8" y="435.1" clip-path="url(#SVGID_6_)" fill="#95CAFF" width="0.1" height="11.8"/>
							<rect x="404.9" y="435.1" clip-path="url(#SVGID_6_)" fill="#94C9FF" width="0.1" height="11.8"/>
							<rect x="405" y="435.1" clip-path="url(#SVGID_6_)" fill="#93C9FF" width="0.1" height="11.8"/>
							<rect x="405.2" y="435.1" clip-path="url(#SVGID_6_)" fill="#92C8FF" width="0.1" height="11.8"/>
							<rect x="405.3" y="435.1" clip-path="url(#SVGID_6_)" fill="#91C7FF" width="0.1" height="11.8"/>
							<rect x="405.4" y="435.1" clip-path="url(#SVGID_6_)" fill="#90C6FF" width="0.1" height="11.8"/>
							<rect x="405.5" y="435.1" clip-path="url(#SVGID_6_)" fill="#8FC6FF" width="0.1" height="11.8"/>
							<rect x="405.7" y="435.1" clip-path="url(#SVGID_6_)" fill="#8EC5FF" width="0.1" height="11.8"/>
							<rect x="405.8" y="435.1" clip-path="url(#SVGID_6_)" fill="#8DC4FF" width="0.1" height="11.8"/>
							<rect x="405.9" y="435.1" clip-path="url(#SVGID_6_)" fill="#8CC3FF" width="0.1" height="11.8"/>
							<rect x="406" y="435.1" clip-path="url(#SVGID_6_)" fill="#8BC2FF" width="0.1" height="11.8"/>
							<rect x="406.1" y="435.1" clip-path="url(#SVGID_6_)" fill="#8AC2FF" width="0.1" height="11.8"/>
							<rect x="406.3" y="435.1" clip-path="url(#SVGID_6_)" fill="#89C1FF" width="0.1" height="11.8"/>
							<rect x="406.4" y="435.1" clip-path="url(#SVGID_6_)" fill="#88C0FF" width="0.1" height="11.8"/>
							<rect x="406.5" y="435.1" clip-path="url(#SVGID_6_)" fill="#87BFFF" width="0.1" height="11.8"/>
							<rect x="406.6" y="435.1" clip-path="url(#SVGID_6_)" fill="#86BFFF" width="0.1" height="11.8"/>
							<rect x="406.8" y="435.1" clip-path="url(#SVGID_6_)" fill="#85BEFF" width="0.1" height="11.8"/>
							<rect x="406.9" y="435.1" clip-path="url(#SVGID_6_)" fill="#84BDFF" width="0.1" height="11.8"/>
							<rect x="407" y="435.1" clip-path="url(#SVGID_6_)" fill="#83BCFF" width="0.1" height="11.8"/>
							<rect x="407.1" y="435.1" clip-path="url(#SVGID_6_)" fill="#82BBFF" width="0.1" height="11.8"/>
							<rect x="407.2" y="435.1" clip-path="url(#SVGID_6_)" fill="#81BBFF" width="0.1" height="11.8"/>
							<rect x="407.4" y="435.1" clip-path="url(#SVGID_6_)" fill="#80BAFF" width="0.1" height="11.8"/>
							<rect x="407.5" y="435.1" clip-path="url(#SVGID_6_)" fill="#7FB9FF" width="0.1" height="11.8"/>
							<rect x="407.6" y="435.1" clip-path="url(#SVGID_6_)" fill="#7EB8FF" width="0.1" height="11.8"/>
							<rect x="407.7" y="435.1" clip-path="url(#SVGID_6_)" fill="#7DB7FF" width="0.1" height="11.8"/>
							<rect x="407.9" y="435.1" clip-path="url(#SVGID_6_)" fill="#7CB7FF" width="0.1" height="11.8"/>
							<rect x="408" y="435.1" clip-path="url(#SVGID_6_)" fill="#7BB6FF" width="0.1" height="11.8"/>
							<rect x="408.1" y="435.1" clip-path="url(#SVGID_6_)" fill="#7AB5FF" width="0.1" height="11.8"/>
							<rect x="408.2" y="435.1" clip-path="url(#SVGID_6_)" fill="#79B4FF" width="0.1" height="11.8"/>
							<rect x="408.3" y="435.1" clip-path="url(#SVGID_6_)" fill="#78B4FF" width="0.1" height="11.8"/>
							<rect x="408.5" y="435.1" clip-path="url(#SVGID_6_)" fill="#77B3FF" width="0.1" height="11.8"/>
							<rect x="408.6" y="435.1" clip-path="url(#SVGID_6_)" fill="#76B2FF" width="0.1" height="11.8"/>
							<rect x="408.7" y="435.1" clip-path="url(#SVGID_6_)" fill="#74B1FF" width="0.1" height="11.8"/>
							<rect x="408.8" y="435.1" clip-path="url(#SVGID_6_)" fill="#73B0FF" width="0.1" height="11.8"/>
							<rect x="409" y="435.1" clip-path="url(#SVGID_6_)" fill="#72B0FF" width="0.1" height="11.8"/>
							<rect x="409.1" y="435.1" clip-path="url(#SVGID_6_)" fill="#71AFFF" width="0.1" height="11.8"/>
							<rect x="409.2" y="435.1" clip-path="url(#SVGID_6_)" fill="#70AEFF" width="0.1" height="11.8"/>
							<rect x="409.3" y="435.1" clip-path="url(#SVGID_6_)" fill="#6FADFF" width="0.1" height="11.8"/>
							<rect x="409.4" y="435.1" clip-path="url(#SVGID_6_)" fill="#6EADFF" width="0.1" height="11.8"/>
							<rect x="409.6" y="435.1" clip-path="url(#SVGID_6_)" fill="#6DACFF" width="0.1" height="11.8"/>
							<rect x="409.7" y="435.1" clip-path="url(#SVGID_6_)" fill="#6CABFF" width="0.1" height="11.8"/>
							<rect x="409.8" y="435.1" clip-path="url(#SVGID_6_)" fill="#6BAAFF" width="0.1" height="11.8"/>
							<rect x="409.9" y="435.1" clip-path="url(#SVGID_6_)" fill="#6AA9FF" width="0.1" height="11.8"/>
							<rect x="410.1" y="435.1" clip-path="url(#SVGID_6_)" fill="#69A9FF" width="0.1" height="11.8"/>
							<rect x="410.2" y="435.1" clip-path="url(#SVGID_6_)" fill="#68A8FF" width="0.1" height="11.8"/>
							<rect x="410.3" y="435.1" clip-path="url(#SVGID_6_)" fill="#67A7FF" width="0.1" height="11.8"/>
							<rect x="410.4" y="435.1" clip-path="url(#SVGID_6_)" fill="#66A6FF" width="0.1" height="11.8"/>
							<rect x="410.5" y="435.1" clip-path="url(#SVGID_6_)" fill="#65A6FF" width="0.1" height="11.8"/>
							<rect x="410.7" y="435.1" clip-path="url(#SVGID_6_)" fill="#64A5FF" width="0.1" height="11.8"/>
							<rect x="410.8" y="435.1" clip-path="url(#SVGID_6_)" fill="#63A4FF" width="0.1" height="11.8"/>
							<rect x="410.9" y="435.1" clip-path="url(#SVGID_6_)" fill="#62A3FF" width="0.1" height="11.8"/>
							<rect x="411" y="435.1" clip-path="url(#SVGID_6_)" fill="#61A2FF" width="0.1" height="11.8"/>
							<rect x="411.2" y="435.1" clip-path="url(#SVGID_6_)" fill="#60A2FF" width="0.1" height="11.8"/>
							<rect x="411.3" y="435.1" clip-path="url(#SVGID_6_)" fill="#5FA1FF" width="0.1" height="11.8"/>
							<rect x="411.4" y="435.1" clip-path="url(#SVGID_6_)" fill="#5EA0FF" width="0.1" height="11.8"/>
							<rect x="411.5" y="435.1" clip-path="url(#SVGID_6_)" fill="#5D9FFF" width="0.1" height="11.8"/>
							<rect x="411.6" y="435.1" clip-path="url(#SVGID_6_)" fill="#5C9EFF" width="0.1" height="11.8"/>
							<rect x="411.8" y="435.1" clip-path="url(#SVGID_6_)" fill="#5B9EFF" width="0.1" height="11.8"/>
							<rect x="411.9" y="435.1" clip-path="url(#SVGID_6_)" fill="#5A9DFF" width="0.1" height="11.8"/>
							<rect x="412" y="435.1" clip-path="url(#SVGID_6_)" fill="#599CFF" width="0.1" height="11.8"/>
							<rect x="412.1" y="435.1" clip-path="url(#SVGID_6_)" fill="#589BFF" width="0.1" height="11.8"/>
							<rect x="412.3" y="435.1" clip-path="url(#SVGID_6_)" fill="#579BFF" width="0.1" height="11.8"/>
							<rect x="412.4" y="435.1" clip-path="url(#SVGID_6_)" fill="#569AFF" width="0.1" height="11.8"/>
							<rect x="412.5" y="435.1" clip-path="url(#SVGID_6_)" fill="#5599FF" width="0.1" height="11.8"/>
							<path clip-path="url(#SVGID_6_)" fill="#5599FF" d="M412.6,446.9v-11.8V446.9z"/>
						</g>
					</g>
				</g>
			</g>
			<g>
				<g>
					<g>
						<path fill="#DB9C7C" d="M410.2,437.8c0,0-3.2,1.7-3,2.3c0.2,0.5,0.6,0.6,0.6,0.6l-1,1.3c0,0-0.2,1.2,1.2,1.1
							c0,0-0.3,1.1,1.1,0.8c0,0,0.2,0.8,0.8,0.8c0.6,0,2.6-1.3,2.6-1.3s0.3-0.4-0.3-1.1c0,0,0.4-0.8-0.3-1.4c0,0,0.2-0.7-0.5-1.3
							c0,0,0.3-1.6-1-1.9C410.6,437.7,410.4,437.8,410.2,437.8z"/>
					</g>
				</g>
			</g>
			<g>
				<g>
					<g>
						<g>
							<defs>
								<polygon id="SVGID_7_" points="400.9,437.4 412.2,435.3 410.3,426.1 399.2,428.7 								"/>
							</defs>
							<clipPath id="SVGID_8_">
								<use xlink:href="#SVGID_7_"  overflow="visible"/>
							</clipPath>
							<path clip-path="url(#SVGID_8_)" fill="#96CBFF" d="M399.2,426.1v11.3V426.1z"/>
							<rect x="399.2" y="426.1" clip-path="url(#SVGID_8_)" fill="#96CBFF" width="0.2" height="11.3"/>
							<rect x="399.4" y="426.1" clip-path="url(#SVGID_8_)" fill="#95CAFF" width="0.2" height="11.3"/>
							<rect x="399.6" y="426.1" clip-path="url(#SVGID_8_)" fill="#94C9FF" width="0.2" height="11.3"/>
							<rect x="399.8" y="426.1" clip-path="url(#SVGID_8_)" fill="#93C9FF" width="0.2" height="11.3"/>
							<rect x="400" y="426.1" clip-path="url(#SVGID_8_)" fill="#92C8FF" width="0.2" height="11.3"/>
							<rect x="400.2" y="426.1" clip-path="url(#SVGID_8_)" fill="#91C7FF" width="0.2" height="11.3"/>
							<rect x="400.4" y="426.1" clip-path="url(#SVGID_8_)" fill="#90C6FF" width="0.2" height="11.3"/>
							<rect x="400.6" y="426.1" clip-path="url(#SVGID_8_)" fill="#8FC6FF" width="0.2" height="11.3"/>
							<rect x="400.8" y="426.1" clip-path="url(#SVGID_8_)" fill="#8EC5FF" width="0.2" height="11.3"/>
							<rect x="401" y="426.1" clip-path="url(#SVGID_8_)" fill="#8DC4FF" width="0.2" height="11.3"/>
							<rect x="401.2" y="426.1" clip-path="url(#SVGID_8_)" fill="#8CC3FF" width="0.2" height="11.3"/>
							<rect x="401.4" y="426.1" clip-path="url(#SVGID_8_)" fill="#8BC2FF" width="0.2" height="11.3"/>
							<rect x="401.6" y="426.1" clip-path="url(#SVGID_8_)" fill="#8AC2FF" width="0.2" height="11.3"/>
							<rect x="401.8" y="426.1" clip-path="url(#SVGID_8_)" fill="#89C1FF" width="0.2" height="11.3"/>
							<rect x="402" y="426.1" clip-path="url(#SVGID_8_)" fill="#88C0FF" width="0.2" height="11.3"/>
							<rect x="402.2" y="426.1" clip-path="url(#SVGID_8_)" fill="#87BFFF" width="0.2" height="11.3"/>
							<rect x="402.4" y="426.1" clip-path="url(#SVGID_8_)" fill="#86BFFF" width="0.2" height="11.3"/>
							<rect x="402.6" y="426.1" clip-path="url(#SVGID_8_)" fill="#85BEFF" width="0.2" height="11.3"/>
							<rect x="402.8" y="426.1" clip-path="url(#SVGID_8_)" fill="#84BDFF" width="0.2" height="11.3"/>
							<rect x="403" y="426.1" clip-path="url(#SVGID_8_)" fill="#83BCFF" width="0.2" height="11.3"/>
							<rect x="403.2" y="426.1" clip-path="url(#SVGID_8_)" fill="#82BBFF" width="0.2" height="11.3"/>
							<rect x="403.4" y="426.1" clip-path="url(#SVGID_8_)" fill="#81BBFF" width="0.2" height="11.3"/>
							<rect x="403.6" y="426.1" clip-path="url(#SVGID_8_)" fill="#80BAFF" width="0.2" height="11.3"/>
							<rect x="403.8" y="426.1" clip-path="url(#SVGID_8_)" fill="#7FB9FF" width="0.2" height="11.3"/>
							<rect x="404" y="426.1" clip-path="url(#SVGID_8_)" fill="#7EB8FF" width="0.2" height="11.3"/>
							<rect x="404.2" y="426.1" clip-path="url(#SVGID_8_)" fill="#7DB7FF" width="0.2" height="11.3"/>
							<rect x="404.4" y="426.1" clip-path="url(#SVGID_8_)" fill="#7CB7FF" width="0.2" height="11.3"/>
							<rect x="404.6" y="426.1" clip-path="url(#SVGID_8_)" fill="#7BB6FF" width="0.2" height="11.3"/>
							<rect x="404.8" y="426.1" clip-path="url(#SVGID_8_)" fill="#7AB5FF" width="0.2" height="11.3"/>
							<rect x="405" y="426.1" clip-path="url(#SVGID_8_)" fill="#79B4FF" width="0.2" height="11.3"/>
							<rect x="405.2" y="426.1" clip-path="url(#SVGID_8_)" fill="#78B4FF" width="0.2" height="11.3"/>
							<rect x="405.4" y="426.1" clip-path="url(#SVGID_8_)" fill="#77B3FF" width="0.2" height="11.3"/>
							<rect x="405.6" y="426.1" clip-path="url(#SVGID_8_)" fill="#76B2FF" width="0.2" height="11.3"/>
							<rect x="405.8" y="426.1" clip-path="url(#SVGID_8_)" fill="#74B1FF" width="0.2" height="11.3"/>
							<rect x="406" y="426.1" clip-path="url(#SVGID_8_)" fill="#73B0FF" width="0.2" height="11.3"/>
							<rect x="406.2" y="426.1" clip-path="url(#SVGID_8_)" fill="#72B0FF" width="0.2" height="11.3"/>
							<rect x="406.4" y="426.1" clip-path="url(#SVGID_8_)" fill="#71AFFF" width="0.2" height="11.3"/>
							<rect x="406.6" y="426.1" clip-path="url(#SVGID_8_)" fill="#70AEFF" width="0.2" height="11.3"/>
							<rect x="406.8" y="426.1" clip-path="url(#SVGID_8_)" fill="#6FADFF" width="0.2" height="11.3"/>
							<rect x="407" y="426.1" clip-path="url(#SVGID_8_)" fill="#6EADFF" width="0.2" height="11.3"/>
							<rect x="407.2" y="426.1" clip-path="url(#SVGID_8_)" fill="#6DACFF" width="0.2" height="11.3"/>
							<rect x="407.4" y="426.1" clip-path="url(#SVGID_8_)" fill="#6CABFF" width="0.2" height="11.3"/>
							<rect x="407.6" y="426.1" clip-path="url(#SVGID_8_)" fill="#6BAAFF" width="0.2" height="11.3"/>
							<rect x="407.8" y="426.1" clip-path="url(#SVGID_8_)" fill="#6AA9FF" width="0.2" height="11.3"/>
							<rect x="408" y="426.1" clip-path="url(#SVGID_8_)" fill="#69A9FF" width="0.2" height="11.3"/>
							<rect x="408.2" y="426.1" clip-path="url(#SVGID_8_)" fill="#68A8FF" width="0.2" height="11.3"/>
							<rect x="408.4" y="426.1" clip-path="url(#SVGID_8_)" fill="#67A7FF" width="0.2" height="11.3"/>
							<rect x="408.6" y="426.1" clip-path="url(#SVGID_8_)" fill="#66A6FF" width="0.2" height="11.3"/>
							<rect x="408.8" y="426.1" clip-path="url(#SVGID_8_)" fill="#65A6FF" width="0.2" height="11.3"/>
							<rect x="409" y="426.1" clip-path="url(#SVGID_8_)" fill="#64A5FF" width="0.2" height="11.3"/>
							<rect x="409.2" y="426.1" clip-path="url(#SVGID_8_)" fill="#63A4FF" width="0.2" height="11.3"/>
							<rect x="409.4" y="426.1" clip-path="url(#SVGID_8_)" fill="#62A3FF" width="0.2" height="11.3"/>
							<rect x="409.6" y="426.1" clip-path="url(#SVGID_8_)" fill="#61A2FF" width="0.2" height="11.3"/>
							<rect x="409.8" y="426.1" clip-path="url(#SVGID_8_)" fill="#60A2FF" width="0.2" height="11.3"/>
							<rect x="410" y="426.1" clip-path="url(#SVGID_8_)" fill="#5FA1FF" width="0.2" height="11.3"/>
							<rect x="410.2" y="426.1" clip-path="url(#SVGID_8_)" fill="#5EA0FF" width="0.2" height="11.3"/>
							<rect x="410.4" y="426.1" clip-path="url(#SVGID_8_)" fill="#5D9FFF" width="0.2" height="11.3"/>
							<rect x="410.6" y="426.1" clip-path="url(#SVGID_8_)" fill="#5C9EFF" width="0.2" height="11.3"/>
							<rect x="410.8" y="426.1" clip-path="url(#SVGID_8_)" fill="#5B9EFF" width="0.2" height="11.3"/>
							<rect x="411" y="426.1" clip-path="url(#SVGID_8_)" fill="#5A9DFF" width="0.2" height="11.3"/>
							<rect x="411.2" y="426.1" clip-path="url(#SVGID_8_)" fill="#599CFF" width="0.2" height="11.3"/>
							<rect x="411.4" y="426.1" clip-path="url(#SVGID_8_)" fill="#589BFF" width="0.2" height="11.3"/>
							<rect x="411.6" y="426.1" clip-path="url(#SVGID_8_)" fill="#579BFF" width="0.2" height="11.3"/>
							<rect x="411.8" y="426.1" clip-path="url(#SVGID_8_)" fill="#569AFF" width="0.2" height="11.3"/>
							<rect x="412" y="426.1" clip-path="url(#SVGID_8_)" fill="#5599FF" width="0.2" height="11.3"/>
							<path clip-path="url(#SVGID_8_)" fill="#5599FF" d="M412.2,437.4v-11.3V437.4z"/>
						</g>
					</g>
				</g>
			</g>
			<g>
				<g>
					<g>
						<path fill="#EEA886" d="M404.7,440.2c0,0,2.5-0.1,3.9,0.5c0.3,0.1,0.6,0.3,0.6,0.6c0,0.3-0.5,0.8-1.6,0.9
							c-1.1,0.1-2.4,0.7-2.4,0.7S404,442.6,404.7,440.2z"/>
					</g>
				</g>
			</g>
			<g>
				<g>
					<g>
						<path fill="#293B57" d="M380.1,529c-0.2,1-0.4,2-0.6,3l-6.4-16.9C374,516.8,380.1,529,380.1,529z"/>
					</g>
				</g>
			</g>
		</g>
		<g>
			<g>
				<path fill="#252E3B" d="M662.2,294.6c0,0,24.1-70.7-21.9-92.6c-46-21.9-85,9.8-92.4,26.9c-7.4,17.1-5.4,48.3,0.9,70
					c6.3,21.7,5.4,54.8-8.3,65.9c-13.7,11.1-30.6,29.4-29.8,66.8c0.5,23.2,91.3-59.4,91.3-59.4L662.2,294.6z"/>
			</g>
			<g>
				<path fill="#FFD255" d="M597.6,378.7c0,0-37.8,8.4-52.8,17.1c-15,8.8-48.3,49.1-48.3,66.4c0,17.3,145.7,33.5,145.7,33.5
					l27.6,100.8c0,0,73.7-18,82.4-32.9c8.8-14.9-28-121.7-34.3-143.4c-6.4-22.1-32.8-37.4-63.5-41.7
					C623.8,374.4,597.6,378.7,597.6,378.7z"/>
			</g>
			<g>
				<path fill="#EEA886" d="M651.9,378.3c0,0-0.8,45.9-37.3,47.3c-36.4,1.4-28.9-44.1-28.9-44.1S612.4,370.8,651.9,378.3z"/>
			</g>
			<g>
				<path fill="#252E3B" d="M667.3,239.7c0,0,12.9,73.9-23.8,127.3C605.4,422.3,667.3,239.7,667.3,239.7z"/>
			</g>
			<g>
				<path fill="#EEA886" d="M644,345.9c0,0-2.5,22,1.7,35.6c4.2,13.7-55.7,14-55.7,2.8c0-12.8,6.1-23.4,0.4-45.3
					C584.7,317.1,644,345.9,644,345.9z"/>
			</g>
			<g>
				<path fill="#A77860" d="M597.5,348.7c0,0,18.9,19.7,43.1,2.1c0,0-2,12.6-19.4,14.2C603.9,366.6,597.5,348.7,597.5,348.7z"/>
			</g>
			<g>
				<path fill="#EEA886" d="M621.2,214.1c0,0,47.8,14.2,41,80.5c-6.8,66.4-38.1,63-41,63.5c-2.9,0.5-40,2.9-51.7-77.6
					C557.8,199.9,621.2,214.1,621.2,214.1z"/>
			</g>
			<g>
				<path fill="#252E3B" d="M608.9,243.7c0,0,26,41.3,53.3,50.9c0,0,14.9-69.4-46.8-83.9c-61.7-14.5-52,70.1-47.4,92.6
					C568.1,303.3,580.9,270.1,608.9,243.7z"/>
			</g>
			<g>
				<path fill="#88C0FF" d="M574,237.5c0,0,13.7-26.5,36.8-27.7c23.1-1.2,36.8,18.9,36.8,18.9s-9-22.6-36.8-22.6
					C583,206.1,574,237.5,574,237.5z"/>
			</g>
		</g>
		<g>
			<polygon fill="#5FA0FF" points="668.1,445.8 684.3,596.7 470.8,596.7 454.6,445.8 			"/>
		</g>
		<g>
			<path fill="#5FA0FF" d="M679.2,591.5H463.8l-16.4-152.7h215.4L679.2,591.5z M465.5,589.6h211.6l-16-148.9H449.4L465.5,589.6z"/>
		</g>
		<g>
			
				<ellipse transform="matrix(0.9797 -0.2003 0.2003 0.9797 -92.9195 124.6276)" fill="#5189DB" cx="569.4" cy="521.5" rx="13.5" ry="17.3"/>
		</g>
		<g>
			<rect x="664.1" y="581.5" fill="#5FA0FF" width="39.8" height="15.2"/>
		</g>
		<g>
			<path fill-rule="evenodd" clip-rule="evenodd" fill="#FFFFFF" d="M562.7,509.8c2.8-2.3,6.6-2.8,9.9-1.3l-4,8.3L562.7,509.8z"/>
			<path fill-rule="evenodd" clip-rule="evenodd" fill="#FFFFFF" d="M562.9,528.4c-2-2.8-3.4-5.5-3.6-8.1c-0.4-2.9,0.1-5.3,1-7.3
				l6.4,7.6L562.9,528.4z"/>
			<path fill-rule="evenodd" clip-rule="evenodd" fill="#FFFFFF" d="M575.3,530.7c-1.2,2.4-2.6,4.7-4,7c-1.9-1.9-3.9-3.9-5.7-5.9
				l3.9-7.8L575.3,530.7z"/>
			<path fill-rule="evenodd" clip-rule="evenodd" fill="#FFFFFF" d="M578.7,517.9c0.4,2.6-0.3,5.7-1.6,8.9l-5.7-6.7l4.5-9.1
				C577.3,512.6,578.3,514.9,578.7,517.9z"/>
		</g>
	</g>
</g>
</svg>
