<?xml version="1.0" encoding="utf-8"?>
<!-- Generator: Adobe Illustrator 19.0.0, SVG Export Plug-In . SVG Version: 6.00 Build 0)  -->
<svg version="1.1" id="Layer_1" xmlns="http://www.w3.org/2000/svg" xmlns:xlink="http://www.w3.org/1999/xlink" x="0px" y="0px"
	 viewBox="0 0 1121 851" enable-background="new 0 0 1121 851" xml:space="preserve">
<g id="XMLID_234_">
	
		<linearGradient id="XMLID_248_" gradientUnits="userSpaceOnUse" x1="-95.7005" y1="1141.0052" x2="209.9238" y2="1141.0052" gradientTransform="matrix(-0.9948 -0.1022 -0.1022 0.9948 995.2218 -647.1315)">
		<stop  offset="0" style="stop-color:#96CBFF"/>
		<stop  offset="1" style="stop-color:#5599FF"/>
	</linearGradient>
	<path id="XMLID_525_" fill="url(#XMLID_248_)" d="M686.5,558l17.8,21.5l17.8,21.5l22.6-12.2c10,7.3,20.9,12.9,32.3,17l2.7,25.6
		l27.8,2.6l27.8,2.6l7.4-24.6c11.9-1.9,23.7-5.5,34.9-10.8l20,16.2l21.5-17.8l21.5-17.8l-12.2-22.6c7.3-10,12.9-20.9,17-32.3
		l25.6-2.7l2.6-27.8l2.6-27.8l-24.6-7.4c-1.9-11.9-5.5-23.7-10.8-34.9l16.2-20l-17.8-21.5l-17.8-21.5l-22.6,12.2
		c-10-7.3-20.9-12.9-32.3-17l-2.7-25.6l-27.8-2.6l-27.8-2.6l-7.4,24.6c-11.9,1.9-23.7,5.5-34.9,10.8l-20-16.2l-21.5,17.8l-21.5,17.8
		l12.2,22.6c-7.3,10-12.9,20.9-17,32.3l-25.6,2.7l-2.6,27.8l-2.6,27.8l24.6,7.4c1.9,11.9,5.5,23.7,10.8,34.9L686.5,558z
		 M769.1,525.8c-24.1-29.1-20.1-72.3,9-96.4c29.1-24.1,72.3-20.1,96.4,9c24.1,29.1,20.1,72.3-9,96.4
		C836.4,559,793.2,554.9,769.1,525.8z"/>
	<g id="XMLID_523_">
		<path id="XMLID_165_" fill="#64A4FF" d="M6.5,851h2V745.1c0-23.6,25.4-42.7,56.6-42.7h144.3c32.3,0,58.6-19.8,58.6-44.2v-198
			c0-23.6,25.4-42.7,56.6-42.7h368v-1.5h-368c-32.3,0-58.6,19.8-58.6,44.2v198c0,23.6-25.4,42.7-56.6,42.7H65.1
			c-32.3,0-58.6,19.8-58.6,44.2V851z"/>
	</g>
	<g id="XMLID_507_">
		<g id="XMLID_518_">
			<g id="XMLID_519_">
				<g id="XMLID_520_">
					<g id="XMLID_521_">
						<path id="XMLID_164_" fill="#BBD070" d="M580.5,310.3c0,0-26.5,105.4,37.1,134.2c63.5,28.8,51.4-23.9,51.4-23.9
							s26.1-7.2-44.9-47.4C590.6,354.2,580.5,310.3,580.5,310.3z"/>
					</g>
				</g>
			</g>
		</g>
		<g id="XMLID_513_">
			<g id="XMLID_514_">
				<g id="XMLID_515_">
					<g id="XMLID_516_">
						<path id="XMLID_163_" fill="#97A43C" d="M414.1,319.5c0,0-13,91.9,107.2,131.6c120.2,39.7,137.4,90.1,137.4,90.1
							S662.2,337.6,414.1,319.5z"/>
					</g>
				</g>
			</g>
		</g>
		<g id="XMLID_508_">
			<g id="XMLID_509_">
				<g id="XMLID_510_">
					<g id="XMLID_511_">
						<path id="XMLID_162_" fill="#48753A" d="M659.2,503.7c35.7-13.6-49.1-86.6-114.2-84.6c-65.1,2-109.3,26.1-152.9,15.9
							C392.1,435,483.6,570.7,659.2,503.7z"/>
					</g>
				</g>
			</g>
		</g>
	</g>
	<g id="XMLID_463_">
		<g id="XMLID_502_">
			<g id="XMLID_503_">
				<path id="XMLID_504_" fill="#DBD8E3" d="M543.4,686.3c3.2,13.8,2.6,46,2.6,46c0.9,30.5-2.5,61.8-3.4,79.3c0,0.5-0.1,1.1-0.1,1.6
					c-0.2,4.1-0.5,8.5-0.8,12.9h228.1c-0.1-4.2-0.2-8.5-0.2-12.9c-0.5-25.8-0.9-54.1-0.9-74.3c52.1-13.8,108.4-31.7,107.4-44.9
					c-1.1-13.5-41.7-212.6-53-220.7c-7.7-5.6-56.4-25-81.6-34.6c-11.7-4.4-20.5-7.5-22.4-7.6c-5.8-0.4-76.9,6.5-76.9,6.5
					s-10.2,3.5-20.6,8.3c-17.8,8.2-45.5,20.9-65.4,30.4c-6.4,3-14.5,7.2-21.1,10.7c0.8,24.2,2.2,50.1,4.3,77.8
					C539.4,564.7,543.1,625.2,543.4,686.3z M769.4,709.3c2.8-37.9,14.2-103,15.5-107.6c0,0,5.4,5.1,5.4,5.1c0,0,1.8,0.2,1.8,0.2
					c0-0.1,1.6,0.6,1.6,0.6s34.5,48.2,34.9,74.1C828.8,694.1,801.9,703,769.4,709.3z"/>
			</g>
		</g>
		<g id="XMLID_498_">
			<g id="XMLID_499_">
				<path id="XMLID_500_" fill="#323657" d="M533.3,826.1h29.9c0.7-4.2,1.4-8.5,2.2-12.9c5.1-28.5,11.7-60.8,15.3-92.4v0
					c6.6-58.7,15.6-116.1,20.5-150.3c12.7-88.9,29.6-128.7,29.6-128.7c-8.1,2.4-97.4,44.6-97.4,44.6c0.8,24.6,2,50.9,4.1,79.1
					c0,0,2,68.9,5.9,134.3c1.3,9.4,2,18.9,1.3,28.7c-1,12.8-2.4,26.7-4,41.3c0,0.2,0,0.4-0.1,0.6c-0.4,3.5-0.8,6.9-1.2,10.4
					c0,0.1,0,0.1,0,0.2c-1.3,10.6-2.7,21.4-4.2,32.2C534.6,817.5,534,821.8,533.3,826.1z"/>
			</g>
		</g>
		<g id="XMLID_492_">
			<g id="XMLID_493_">
				<path id="XMLID_494_" fill="#323657" d="M618.8,727.8c6.8,16,30.2,55.6,30.2,55.6s16.9-4.2,41.8-10.6
					c1.6,14.1,3.3,27.4,4.9,40.4c0.5,4.3,1.1,8.6,1.6,12.9l83.1,0.3c-0.2-5.6-1.6-8.3-2.6-12.6c-5.4-24.1-3.9-47.1-4.4-63.4
					c59.6-17,118-36.1,117.1-45.2c-1.3-13.5-46.1-222.2-57.5-230.3c-6.5-4.7-55.1-21.9-79-31.3c-4.4-1.7-19.2-7.3-23.1-8.8
					c-5.1,5.6-39.9,44.1-52.2,189.4c-1.5,18.1,1.6,51.1,5.2,84.1C647.7,717.9,617.6,725.1,618.8,727.8z M781.3,676
					c3.6-28.9,7.7-58.1,10.6-68.3c0,0,0.1,20.8-0.6,50.5C791.1,664.2,793.3,669.9,781.3,676z"/>
			</g>
		</g>
		<g id="XMLID_489_">
			<g id="XMLID_490_">
				<path id="XMLID_156_" fill="#EEA987" d="M722.9,433.3c0,0-9-17.1-6.5-65.6c0.7-13.4-70.6,31.9-70.6,31.9s0.2,4.6,0.4,10.9
					c0.1,2.6,0.1,5.5,0.1,8.4c0,0.8,0,1.6,0,2.4c0,1.3,0,2.6,0,4c0,1.6-0.1,3.2-0.2,4.8c-0.1,1.7-0.2,3.4-0.4,4.9
					c-0.3,2.9-2,8.1-2.6,9.5C639.8,452,696.2,452.4,722.9,433.3z"/>
			</g>
		</g>
		<g id="XMLID_487_">
			<path id="XMLID_155_" fill="#E8734D" d="M663.1,464.2L650,481.9c0,0,7.7,10.3,21.4,2.7L663.1,464.2z"/>
		</g>
		<g id="XMLID_485_">
			<path id="XMLID_154_" fill="#E8734D" d="M653.5,482.6c0,0-48.1,117.6-37.9,266.9l15.2,27.6l17.1-23.5c0,0,2.8-198.3,16.4-271.5
				L653.5,482.6z"/>
		</g>
		<g id="XMLID_483_">
			<path id="XMLID_153_" fill="#EEA987" d="M649.1,447.7l14.1,16.5c0,0,22.6-4.4,29.2-16.2C699,436.2,649.1,447.7,649.1,447.7z"/>
		</g>
		<g id="XMLID_481_">
			<path id="XMLID_152_" fill="#C4C1CC" d="M645.8,433.3c0,0,1.6,12.5,17.3,30.9l-17.1,23l-9.3-47.6L645.8,433.3z"/>
		</g>
		<g id="XMLID_479_">
			<path id="XMLID_151_" fill="#C4C1CC" d="M718.6,418.3c0,0-32.6,36.9-55.5,46l10.6,26.3l52.1-57.5L718.6,418.3z"/>
		</g>
		<g id="XMLID_476_">
			<g id="XMLID_477_">
				<path id="XMLID_150_" fill="#323657" d="M383,752.3c0,0,43.3-42,71.8-49c13.1-3.2,30.4-21.4,46.9-42.7
					c5.4-7,10.7-14.4,15.8-21.7c0,0,0,0,0,0c20.2-29.1,36-57.1,36-57.1s59.6-69.9,11.8-101c0,0-20.5-0.4-31.8,5.7
					c-11.6,6.3-36.2,57.8-40.4,66.9c-4.2,9.1-49.5,93.8-52.5,95.7c-3,1.9-8.1,8.9-26.2,18.6c-22.2,12-57.1,46.9-57.1,46.9L383,752.3
					z"/>
			</g>
		</g>
		<g id="XMLID_474_">
			<path id="XMLID_149_" fill="#EFAA88" d="M591,801c0,0,6.1-0.2,8.6-1.6c0,0,4.5-2.9,7.9-4.8c1.1-0.6,2-1.1,2.6-1.3
				c2.7-1.1,8.9-2.6,14.6-6.9c5.7-4.3,24.3-21.7,24.3-21.7l-12-18.5l-5.5-18.3c0,0-43.3,4.3-49.1,7.7c-0.6,0.3-1.1,0.7-1.6,1.1
				c-4.6,3.4-6.6,7.8-8.8,9.9c-0.8,0.8-8.4,8.8-7.9,12.1c0.6,4.5,2.8,7.5,5.6,8.8c0,0,1.5,8.8,6.1,12.8c0,0,1.1,8.2,8.2,11.5
				C584,791.8,586.1,800,591,801z"/>
		</g>
		<g id="XMLID_472_">
			<path id="XMLID_148_" fill="#EEA886" d="M659.9,242.6c0,0-78.3-18.9-61.8,80.2c16.5,99.1,35.3,107.2,83,87.4
				c47.7-19.8,44.4-83.2,47.2-114.2C731.2,265,685,244,659.9,242.6z"/>
		</g>
		<g id="XMLID_470_">
			<path id="XMLID_147_" fill="#EEA886" d="M701.1,311.2c1.2-8.7,18.4-11.6,19.6,1.4c1.2,13.1-8.4,35.9-14.9,33.6
				C699.3,343.8,699.5,323.2,701.1,311.2z"/>
		</g>
		<g id="XMLID_468_">
			<path id="XMLID_146_" fill="#16202E" d="M723.8,346.7c0,0-1.6-31.2-12.9-32.3c-11.4-1.1-13.3,11.4-13.3,11.4l-11.5,2
				c0,0,4-27.2-7.3-32.2c-11.3-4.9-73.8,13.9-82.8,5.8c-9-8.1-3.9-63.5,12.7-70.8c16.6-7.3,62.4-23.6,95.4-0.6
				c0,0,26.1-2.6,29.6,18.5C737.2,269.5,731.1,331.2,723.8,346.7z"/>
		</g>
		<g id="XMLID_466_">
			<path id="XMLID_145_" fill="#323657" d="M616.7,727.8l32.3,55.6c0,0,85.6-22.1,105.6-27.7l-45.7-54.4
				C708.9,701.3,641.6,716.7,616.7,727.8z"/>
		</g>
		<g id="XMLID_464_">
			<path id="XMLID_144_" fill="#A77860" d="M646,430L646,430c42-4.3,58.3-36.6,58.3-36.6c-26.4,26.2-58,25.5-58,25.5
				c0,0.8,0,1.6,0,2.4c0,1.3,0,2.6,0,4C646.2,426.9,646.1,428.5,646,430z"/>
		</g>
	</g>
	<g id="XMLID_461_">
		<path id="XMLID_143_" fill="#EEA886" d="M555.9,682.2c-48.7,50.1-113,113.2-113,113.2l-25.1-47.7c0,0,57.1-66.9,95.8-111.6
			C525.5,641.8,547.3,655.7,555.9,682.2z"/>
	</g>
	<g id="XMLID_458_">
		<g id="XMLID_459_">
			<path id="XMLID_142_" fill="#EEA886" d="M586,749.5c0,0-13.1,6.3-16.5,9.1c-3.4,2.8-17.3,13.2-20.6,15.6
				c-3.4,2.4,5.1,9.4,29.9-1.3C603.4,762.2,586,749.5,586,749.5z"/>
		</g>
	</g>
	<g id="XMLID_456_">
		<polygon id="XMLID_141_" fill="#FFC955" points="584.8,606.2 607.6,818.5 307.1,818.5 284.2,606.2 		"/>
	</g>
	<g id="XMLID_452_">
		<path id="XMLID_453_" fill="#FFC955" d="M266.8,594h302.9l23.1,214.7H289.9L266.8,594z M567.7,596.4H269.4l22.6,210h298.2
			L567.7,596.4z"/>
	</g>
	<g id="XMLID_450_">
		<rect id="XMLID_138_" x="581.4" y="799.4" fill="#FFC955" width="50.2" height="19.1"/>
	</g>
	<g id="XMLID_380_">
		<g id="XMLID_381_">
			<defs>
				<rect id="XMLID_70_" x="297.7" y="818" width="816.8" height="12.9"/>
			</defs>
			<clipPath id="XMLID_250_">
				<use xlink:href="#XMLID_70_"  overflow="visible"/>
			</clipPath>
			<path id="XMLID_137_" clip-path="url(#XMLID_250_)" fill="#96CBFF" d="M1114.5,818V831V818z"/>
			<rect id="XMLID_136_" x="1101.9" y="818" clip-path="url(#XMLID_250_)" fill="#96CBFF" width="12.6" height="12.9"/>
			<rect id="XMLID_135_" x="1089.4" y="818" clip-path="url(#XMLID_250_)" fill="#95CAFF" width="12.6" height="12.9"/>
			<rect id="XMLID_134_" x="1076.8" y="818" clip-path="url(#XMLID_250_)" fill="#94C9FF" width="12.6" height="12.9"/>
			<rect id="XMLID_133_" x="1064.2" y="818" clip-path="url(#XMLID_250_)" fill="#93C9FF" width="12.6" height="12.9"/>
			<rect id="XMLID_132_" x="1051.7" y="818" clip-path="url(#XMLID_250_)" fill="#92C8FF" width="12.6" height="12.9"/>
			<rect id="XMLID_131_" x="1039.1" y="818" clip-path="url(#XMLID_250_)" fill="#91C7FF" width="12.6" height="12.9"/>
			<rect id="XMLID_130_" x="1026.5" y="818" clip-path="url(#XMLID_250_)" fill="#90C6FF" width="12.6" height="12.9"/>
			<rect id="XMLID_129_" x="1014" y="818" clip-path="url(#XMLID_250_)" fill="#8FC6FF" width="12.6" height="12.9"/>
			<rect id="XMLID_128_" x="1001.4" y="818" clip-path="url(#XMLID_250_)" fill="#8EC5FF" width="12.6" height="12.9"/>
			<rect id="XMLID_127_" x="988.8" y="818" clip-path="url(#XMLID_250_)" fill="#8DC4FF" width="12.6" height="12.9"/>
			<rect id="XMLID_126_" x="976.3" y="818" clip-path="url(#XMLID_250_)" fill="#8CC3FF" width="12.6" height="12.9"/>
			<rect id="XMLID_125_" x="963.7" y="818" clip-path="url(#XMLID_250_)" fill="#8BC2FF" width="12.6" height="12.9"/>
			<rect id="XMLID_124_" x="951.1" y="818" clip-path="url(#XMLID_250_)" fill="#8AC2FF" width="12.6" height="12.9"/>
			<rect id="XMLID_123_" x="938.6" y="818" clip-path="url(#XMLID_250_)" fill="#89C1FF" width="12.6" height="12.9"/>
			<rect id="XMLID_122_" x="926" y="818" clip-path="url(#XMLID_250_)" fill="#88C0FF" width="12.6" height="12.9"/>
			<rect id="XMLID_121_" x="913.4" y="818" clip-path="url(#XMLID_250_)" fill="#87BFFF" width="12.6" height="12.9"/>
			<rect id="XMLID_120_" x="900.9" y="818" clip-path="url(#XMLID_250_)" fill="#86BFFF" width="12.6" height="12.9"/>
			<rect id="XMLID_119_" x="888.3" y="818" clip-path="url(#XMLID_250_)" fill="#85BEFF" width="12.6" height="12.9"/>
			<rect id="XMLID_118_" x="875.7" y="818" clip-path="url(#XMLID_250_)" fill="#84BDFF" width="12.6" height="12.9"/>
			<rect id="XMLID_117_" x="863.2" y="818" clip-path="url(#XMLID_250_)" fill="#83BCFF" width="12.6" height="12.9"/>
			<rect id="XMLID_116_" x="850.6" y="818" clip-path="url(#XMLID_250_)" fill="#82BBFF" width="12.6" height="12.9"/>
			<rect id="XMLID_115_" x="838" y="818" clip-path="url(#XMLID_250_)" fill="#81BBFF" width="12.6" height="12.9"/>
			<rect id="XMLID_114_" x="825.5" y="818" clip-path="url(#XMLID_250_)" fill="#80BAFF" width="12.6" height="12.9"/>
			<rect id="XMLID_113_" x="812.9" y="818" clip-path="url(#XMLID_250_)" fill="#7FB9FF" width="12.6" height="12.9"/>
			<rect id="XMLID_112_" x="800.3" y="818" clip-path="url(#XMLID_250_)" fill="#7EB8FF" width="12.6" height="12.9"/>
			<rect id="XMLID_111_" x="787.8" y="818" clip-path="url(#XMLID_250_)" fill="#7DB7FF" width="12.6" height="12.9"/>
			<rect id="XMLID_110_" x="775.2" y="818" clip-path="url(#XMLID_250_)" fill="#7CB7FF" width="12.6" height="12.9"/>
			<rect id="XMLID_109_" x="762.6" y="818" clip-path="url(#XMLID_250_)" fill="#7BB6FF" width="12.6" height="12.9"/>
			<rect id="XMLID_108_" x="750.1" y="818" clip-path="url(#XMLID_250_)" fill="#7AB5FF" width="12.6" height="12.9"/>
			<rect id="XMLID_107_" x="737.5" y="818" clip-path="url(#XMLID_250_)" fill="#79B4FF" width="12.6" height="12.9"/>
			<rect id="XMLID_106_" x="724.9" y="818" clip-path="url(#XMLID_250_)" fill="#78B4FF" width="12.6" height="12.9"/>
			<rect id="XMLID_105_" x="712.4" y="818" clip-path="url(#XMLID_250_)" fill="#77B3FF" width="12.6" height="12.9"/>
			<rect id="XMLID_104_" x="699.8" y="818" clip-path="url(#XMLID_250_)" fill="#76B2FF" width="12.6" height="12.9"/>
			<rect id="XMLID_103_" x="687.2" y="818" clip-path="url(#XMLID_250_)" fill="#74B1FF" width="12.6" height="12.9"/>
			<rect id="XMLID_102_" x="674.7" y="818" clip-path="url(#XMLID_250_)" fill="#73B0FF" width="12.6" height="12.9"/>
			<rect id="XMLID_101_" x="662.1" y="818" clip-path="url(#XMLID_250_)" fill="#72B0FF" width="12.6" height="12.9"/>
			<rect id="XMLID_100_" x="649.5" y="818" clip-path="url(#XMLID_250_)" fill="#71AFFF" width="12.6" height="12.9"/>
			<rect id="XMLID_99_" x="637" y="818" clip-path="url(#XMLID_250_)" fill="#70AEFF" width="12.6" height="12.9"/>
			<rect id="XMLID_98_" x="624.4" y="818" clip-path="url(#XMLID_250_)" fill="#6FADFF" width="12.6" height="12.9"/>
			<rect id="XMLID_97_" x="611.8" y="818" clip-path="url(#XMLID_250_)" fill="#6EADFF" width="12.6" height="12.9"/>
			<rect id="XMLID_96_" x="599.3" y="818" clip-path="url(#XMLID_250_)" fill="#6DACFF" width="12.6" height="12.9"/>
			<rect id="XMLID_95_" x="586.7" y="818" clip-path="url(#XMLID_250_)" fill="#6CABFF" width="12.6" height="12.9"/>
			<rect id="XMLID_94_" x="574.1" y="818" clip-path="url(#XMLID_250_)" fill="#6BAAFF" width="12.6" height="12.9"/>
			<rect id="XMLID_93_" x="561.6" y="818" clip-path="url(#XMLID_250_)" fill="#6AA9FF" width="12.6" height="12.9"/>
			<rect id="XMLID_92_" x="549" y="818" clip-path="url(#XMLID_250_)" fill="#69A9FF" width="12.6" height="12.9"/>
			<rect id="XMLID_91_" x="536.4" y="818" clip-path="url(#XMLID_250_)" fill="#68A8FF" width="12.6" height="12.9"/>
			<rect id="XMLID_90_" x="523.9" y="818" clip-path="url(#XMLID_250_)" fill="#67A7FF" width="12.6" height="12.9"/>
			<rect id="XMLID_89_" x="511.3" y="818" clip-path="url(#XMLID_250_)" fill="#66A6FF" width="12.6" height="12.9"/>
			<rect id="XMLID_88_" x="498.7" y="818" clip-path="url(#XMLID_250_)" fill="#65A6FF" width="12.6" height="12.9"/>
			<rect id="XMLID_87_" x="486.2" y="818" clip-path="url(#XMLID_250_)" fill="#64A5FF" width="12.6" height="12.9"/>
			<rect id="XMLID_86_" x="473.6" y="818" clip-path="url(#XMLID_250_)" fill="#63A4FF" width="12.6" height="12.9"/>
			<rect id="XMLID_85_" x="461" y="818" clip-path="url(#XMLID_250_)" fill="#62A3FF" width="12.6" height="12.9"/>
			<rect id="XMLID_84_" x="448.5" y="818" clip-path="url(#XMLID_250_)" fill="#61A2FF" width="12.6" height="12.9"/>
			<rect id="XMLID_83_" x="435.9" y="818" clip-path="url(#XMLID_250_)" fill="#60A2FF" width="12.6" height="12.9"/>
			<rect id="XMLID_82_" x="423.3" y="818" clip-path="url(#XMLID_250_)" fill="#5FA1FF" width="12.6" height="12.9"/>
			<rect id="XMLID_81_" x="410.8" y="818" clip-path="url(#XMLID_250_)" fill="#5EA0FF" width="12.6" height="12.9"/>
			<rect id="XMLID_80_" x="398.2" y="818" clip-path="url(#XMLID_250_)" fill="#5D9FFF" width="12.6" height="12.9"/>
			<rect id="XMLID_79_" x="385.6" y="818" clip-path="url(#XMLID_250_)" fill="#5C9EFF" width="12.6" height="12.9"/>
			<rect id="XMLID_78_" x="373.1" y="818" clip-path="url(#XMLID_250_)" fill="#5B9EFF" width="12.6" height="12.9"/>
			<rect id="XMLID_77_" x="360.5" y="818" clip-path="url(#XMLID_250_)" fill="#5A9DFF" width="12.6" height="12.9"/>
			<rect id="XMLID_76_" x="347.9" y="818" clip-path="url(#XMLID_250_)" fill="#599CFF" width="12.6" height="12.9"/>
			<rect id="XMLID_75_" x="335.4" y="818" clip-path="url(#XMLID_250_)" fill="#589BFF" width="12.6" height="12.9"/>
			<rect id="XMLID_74_" x="322.8" y="818" clip-path="url(#XMLID_250_)" fill="#579BFF" width="12.6" height="12.9"/>
			<rect id="XMLID_73_" x="310.2" y="818" clip-path="url(#XMLID_250_)" fill="#569AFF" width="12.6" height="12.9"/>
			<rect id="XMLID_72_" x="297.7" y="818" clip-path="url(#XMLID_250_)" fill="#5599FF" width="12.6" height="12.9"/>
			<path id="XMLID_71_" clip-path="url(#XMLID_250_)" fill="#5599FF" d="M297.7,831V818V831z"/>
		</g>
	</g>
	<g id="XMLID_378_">
		
			<ellipse id="XMLID_69_" transform="matrix(0.9798 -0.2002 0.2002 0.9798 -133.5461 103.67)" fill="#CFA345" cx="445.9" cy="712.3" rx="17" ry="21.8"/>
	</g>
	<g id="XMLID_168_">
		<g id="XMLID_376_">
			<path id="XMLID_1_" fill="#FFC955" d="M871.7,712.1h140.6c10.4,0,18.8-8.4,18.8-18.8V471.1c0-10.4-8.4-18.8-18.8-18.8H871.7
				c-10.4,0-18.8,8.4-18.8,18.8v222.1C852.9,703.7,861.3,712.1,871.7,712.1z"/>
		</g>
		<g id="XMLID_309_">
			<g id="XMLID_371_">
				<g id="XMLID_372_">
					<g id="XMLID_373_">
						<g id="XMLID_374_">
							<rect id="XMLID_68_" x="871.8" y="620.1" fill="#E3F2FF" width="9.2" height="70.3"/>
						</g>
					</g>
				</g>
			</g>
			<g id="XMLID_366_">
				<g id="XMLID_367_">
					<g id="XMLID_368_">
						<g id="XMLID_369_">
							<rect id="XMLID_67_" x="890.1" y="627.9" fill="#E3F2FF" width="9.2" height="62.4"/>
						</g>
					</g>
				</g>
			</g>
			<g id="XMLID_361_">
				<g id="XMLID_362_">
					<g id="XMLID_363_">
						<g id="XMLID_364_">
							<rect id="XMLID_66_" x="909.9" y="638.2" fill="#E3F2FF" width="9.2" height="52.2"/>
						</g>
					</g>
				</g>
			</g>
			<g id="XMLID_356_">
				<g id="XMLID_357_">
					<g id="XMLID_358_">
						<g id="XMLID_359_">
							<rect id="XMLID_65_" x="930.3" y="651.1" fill="#E3F2FF" width="9.2" height="39.2"/>
						</g>
					</g>
				</g>
			</g>
			<g id="XMLID_352_">
				<g id="XMLID_353_">
					<g id="XMLID_354_">
						<polygon id="XMLID_64_" fill="#E3F2FF" points="994.6,642.8 996.6,642.1 979.2,593.2 941.4,583.2 927.9,529.6 898.7,516.7 
							892.2,475 890.1,475.4 896.8,518.2 926.1,531.1 939.7,585 977.6,595 						"/>
					</g>
				</g>
			</g>
			<g id="XMLID_349_">
				<g id="XMLID_350_">
					<path id="XMLID_63_" fill="#FFC955" d="M936.2,580.5c-2,2.4-1.6,6,0.8,8c2.4,2,6,1.6,8-0.8c2-2.4,1.6-6-0.8-8
						C941.7,577.7,938.2,578.1,936.2,580.5z"/>
				</g>
			</g>
			<g id="XMLID_344_">
				<g id="XMLID_345_">
					<path id="XMLID_346_" fill="#E3F2FF" d="M935.4,579.8c2.3-2.9,6.6-3.3,9.5-1c2.9,2.3,3.3,6.6,1,9.5c-2.3,2.9-6.6,3.3-9.5,1
						C933.4,587,933,582.7,935.4,579.8z M937,581.2c-1.6,2-1.3,4.9,0.7,6.5c2,1.6,4.9,1.3,6.5-0.7c1.6-2,1.3-4.9-0.7-6.5
						C941.5,578.9,938.6,579.2,937,581.2z"/>
				</g>
			</g>
			<g id="XMLID_341_">
				<g id="XMLID_342_">
					<circle id="XMLID_60_" fill="#FFC955" cx="926.8" cy="530.7" r="5.7"/>
				</g>
			</g>
			<g id="XMLID_336_">
				<g id="XMLID_337_">
					<path id="XMLID_338_" fill="#E3F2FF" d="M921.6,526.4c2.3-2.9,6.6-3.3,9.5-1c2.9,2.3,3.3,6.6,1,9.5c-2.3,2.9-6.6,3.3-9.5,1
						C919.7,533.6,919.3,529.3,921.6,526.4z M923.2,527.8c-1.6,2-1.3,4.9,0.6,6.5c2,1.6,4.9,1.3,6.5-0.7c1.6-2,1.3-4.9-0.7-6.5
						C927.8,525.5,924.9,525.8,923.2,527.8z"/>
				</g>
			</g>
			<g id="XMLID_333_">
				<g id="XMLID_334_">
					<circle id="XMLID_57_" fill="#FFC955" cx="898.1" cy="517.5" r="5.7"/>
				</g>
			</g>
			<g id="XMLID_328_">
				<g id="XMLID_329_">
					<path id="XMLID_330_" fill="#E3F2FF" d="M892.9,513.2c2.3-2.9,6.6-3.3,9.5-1c2.9,2.3,3.3,6.6,1,9.5c-2.3,2.9-6.6,3.3-9.5,1
						C891,520.3,890.6,516.1,892.9,513.2z M894.5,514.5c-1.6,2-1.3,4.9,0.7,6.5c2,1.6,4.9,1.3,6.5-0.7c1.6-2,1.3-4.9-0.6-6.5
						C899.1,512.3,896.2,512.6,894.5,514.5z"/>
				</g>
			</g>
			<g id="XMLID_325_">
				<g id="XMLID_326_">
					<circle id="XMLID_54_" fill="#FFC955" cx="978.2" cy="594.6" r="5.7"/>
				</g>
			</g>
			<g id="XMLID_320_">
				<g id="XMLID_321_">
					<path id="XMLID_322_" fill="#E3F2FF" d="M973,590.3c2.3-2.9,6.6-3.3,9.5-1c2.9,2.3,3.3,6.6,1,9.5c-2.3,2.9-6.6,3.3-9.5,1
						C971.1,597.4,970.6,593.2,973,590.3z M974.6,591.7c-1.6,2-1.3,4.9,0.7,6.5c2,1.6,4.9,1.3,6.5-0.7c1.6-2,1.3-4.9-0.7-6.5
						C979.1,589.4,976.2,589.7,974.6,591.7z"/>
				</g>
			</g>
			<g id="XMLID_315_">
				<g id="XMLID_316_">
					<g id="XMLID_317_">
						<g id="XMLID_318_">
							<path id="XMLID_51_" fill="#EBEBEB" d="M959.5,537.8h48.6c2.2,0,4.1-1.8,4.1-4.1v-3.6c0-2.2-1.8-4.1-4.1-4.1h-48.6
								c-2.2,0-4.1,1.8-4.1,4.1v3.6C955.5,536,957.3,537.8,959.5,537.8z"/>
						</g>
					</g>
				</g>
			</g>
			<g id="XMLID_310_">
				<g id="XMLID_311_">
					<g id="XMLID_312_">
						<g id="XMLID_313_">
							<path id="XMLID_50_" fill="#EBEBEB" d="M959.5,517.3h48.6c2.2,0,4.1-1.8,4.1-4.1v-3.6c0-2.2-1.8-4.1-4.1-4.1h-48.6
								c-2.2,0-4.1,1.8-4.1,4.1v3.6C955.5,515.4,957.3,517.3,959.5,517.3z"/>
						</g>
					</g>
				</g>
			</g>
		</g>
	</g>
	<g id="XMLID_222_">
		<g id="XMLID_307_">
			<path id="XMLID_49_" fill="#16202E" d="M1053.8,606.8c0,0,1.5,14.6-1.2,18.3c0,0,7.2-1.6,8.8-4
				C1063,618.6,1053.8,606.8,1053.8,606.8z"/>
		</g>
		<g id="XMLID_304_">
			<g id="XMLID_305_">
				<path id="XMLID_48_" fill="#EEA886" d="M1009.1,653.5c0,0-2.6-1.7-3-2c-0.4-0.3-1.7-0.2-3.3,0c-1.5,0.2-3.5,1.1-3.6,1.3
					c-0.1,0.2-0.4,0.4-0.3,1.1c0.1,0.7,0.5,1.2,0.5,1.2s-0.3,0.9,0.3,1.5c0,0-0.2,0.8,0.6,1.4c0,0-0.2,0.8,0.4,1.2
					c0,0,1.3,0,1.8,0.1c0.5,0.1,3.3-0.1,5.9-0.8C1008.6,658.5,1011.5,657.8,1009.1,653.5z"/>
			</g>
		</g>
		<g id="XMLID_301_">
			<g id="XMLID_302_">
				<path id="XMLID_47_" fill="#CF8C6C" d="M1004.7,654.7c0,0,0.8,1.4,1.2,1.6c0.4,0.3-2,2.9-2,2.9S1003.1,655.7,1004.7,654.7z"/>
			</g>
		</g>
		<g id="XMLID_298_">
			<g id="XMLID_299_">
				<path id="XMLID_46_" fill="#EEA886" d="M1010.6,653.8c0,0-1.6-0.2-2.6-0.6c-1-0.5,0.2,5.1,0.2,5.1s2.4-1.7,4-1.7
					C1013.8,656.4,1010.6,653.8,1010.6,653.8z"/>
			</g>
		</g>
		<g id="XMLID_295_">
			<g id="XMLID_296_">
				<path id="XMLID_45_" fill="#162D40" d="M1078.3,801.6c0,0-5.1,7.5-6.9,9c0,0-3.6,1.8-3.7,3.3c-0.2,2.8-0.4,4.4,4.3,4.6
					c4.7,0.1,7.6,0,8.5-2.9c0.9-2.8,2.3-5.1,2.3-5.1l0.4,7.4h1.1c0,0,0.5-7.4,0.5-8.5c0.1-1.1,0.8-5.1-1.5-6.9
					C1081.2,800.9,1078.3,801.6,1078.3,801.6z"/>
			</g>
		</g>
		<g id="XMLID_292_">
			<g id="XMLID_293_">
				<path id="XMLID_44_" fill="#162D40" d="M1070.7,811c0,0,2.5,0.7,5.5,0c3-0.8,5.9-8,6.8-8.6l0.8-2.9h-5.9c0,0,0,2.2-1,4
					C1076,805.4,1070.7,811,1070.7,811z"/>
			</g>
		</g>
		<g id="XMLID_289_">
			<g id="XMLID_290_">
				<path id="XMLID_43_" fill="#162D40" d="M1045.2,798.8c0,0-0.8,1.8-2.2,3.7c-1.1,1.4-4.4,7.1-5.8,7.5c-1.4,0.4-5.9,1.2-6.3,3.7
					c-0.4,2.5-0.6,4.3,3.8,4.5c4.4,0.2,7.3,0.5,9.4-2.6c2.1-3.1,5.5-5.3,5.5-5.3v8.1h1.7c0,0,0.8-8.4,1.3-9
					c0.5-0.6,1.6-7.1-2.4-10.4C1046,795.5,1045.2,798.8,1045.2,798.8z"/>
			</g>
		</g>
		<g id="XMLID_286_">
			<g id="XMLID_287_">
				<path id="XMLID_42_" fill="#162D40" d="M1037.2,810c0,0,4,1,5.5,0c1.5-1,6.7-9.7,8.4-10.2c0,0-1.7-3.4-5.8-0.9
					C1045.2,798.8,1038.3,808.5,1037.2,810z"/>
			</g>
		</g>
		<g id="XMLID_283_">
			<g id="XMLID_284_">
				<path id="XMLID_41_" fill="#1D3B54" d="M1080.6,677.6c0,0,5.6,7.3,7.1,15.9c1.5,8.6-0.9,37.5-0.8,41.8c0.1,4.3,3.8,17.5,3,25.5
					c-0.8,8-4.9,41.5-4.9,41.5l-9.7-0.2c0,0,1.9-36.1,1.4-39.5c-0.5-3.4-2.1-17.7-2.3-19.1c-0.2-1.4-11-38-11-44.2
					C1063.3,693.1,1067.1,667.5,1080.6,677.6z"/>
			</g>
		</g>
		<g id="XMLID_280_">
			<g id="XMLID_281_">
				<path id="XMLID_40_" fill="#1D3B54" d="M1052.5,680.5c0,0-9.2,35-10.3,39.9c-1.1,4.8-3.3,11.2-3.2,12.1
					c0.1,0.9,1.2,15.8,1.2,15.8l2.6,50.9h9.7c0,0,3.1-32.4,3.6-38.9c0.5-6.5-3.6-16.6-2.6-19.4c1-2.8,15.9-34.7,15.9-34.7
					S1080.8,670.3,1052.5,680.5z"/>
			</g>
		</g>
		<g id="XMLID_277_">
			<g id="XMLID_278_">
				<path id="XMLID_39_" fill="#EDDAD3" d="M1055.4,628.1c0,0-3.7,0.3-6.4,3.3c-2.8,3-5.4,7.7-6.1,9.3c-0.7,1.6-10.9,16.3-11.4,16.6
					c-0.5,0.3-5-0.8-8.5-1.1c-5.8-0.5-14.5-3.4-14.5-3.4l-1.3,6.6c0,0,21.4,6.9,26.3,5.7c6-1.5,19.9-19.3,19.9-19.3
					S1063.7,633.5,1055.4,628.1z"/>
			</g>
		</g>
		<g id="XMLID_274_">
			<g id="XMLID_275_">
				<path id="XMLID_38_" fill="#EDDAD3" d="M1061.8,625.5c0,0-4.8,2.2-6.4,2.6c-1.7,0.3-8.1,8.6-9.2,11.7c-1.1,3,0,7.6,2.3,12.9
					c2.3,5.3,0.1,7.1,1.2,12.5c1.1,5.3,1.1,19.9,0.9,22.9c-0.2,3,30.6,8.6,36.7,3.2c0,0-4.2-13.7-9.1-18.8c-1.1-1.1-1-8.5-0.2-10.4
					c0.7-1.8,8.9-15.6,8.9-15.6s0.6-14-3-16.8c-3.1-2.4-11.6-3.3-13.1-3.8C1069.3,625.3,1064.9,625,1061.8,625.5z"/>
			</g>
		</g>
		<g id="XMLID_271_">
			<g id="XMLID_272_">
				<path id="XMLID_37_" fill="#D1C0BA" d="M1060.2,636.1l-2.9-3.4l2.5-8.9C1059.9,623.8,1060.7,628.8,1060.2,636.1z"/>
			</g>
		</g>
		<g id="XMLID_268_">
			<g id="XMLID_269_">
				<path id="XMLID_36_" fill="#EEA886" d="M1078.3,628.1c0,0,6-1.7,9.4,4.9c3.4,6.6,2.6,10.2,3.4,13.1c0.8,3,4,22.8,4.2,23.7
					c0.2,0.9,3.2,11,2.8,14.1c-0.4,3.1-3.2,26.6-3.1,27.4c0.1,0.8-5.5-0.8-5.5-0.8s0.2-24,0-26c-0.2-2-0.4-12.4-1.9-15
					c-1.5-2.7-5.1-19-5.9-20.7C1081,647.1,1073.3,630.2,1078.3,628.1z"/>
			</g>
		</g>
		<g id="XMLID_265_">
			<g id="XMLID_266_">
				<path id="XMLID_35_" fill="#EEA886" d="M1059.5,620c0,0,0.9,8.7,0.8,11.6c0,0,4.9,4.9,10.6-5.8c0,0-2.4-4.4-0.6-10.4
					C1072,609.3,1059.5,620,1059.5,620z"/>
			</g>
		</g>
		<g id="XMLID_262_">
			<g id="XMLID_263_">
				<polygon id="XMLID_34_" fill="#EEA886" points="1060.2,631.6 1060.2,636.1 1065.5,631.4 				"/>
			</g>
		</g>
		<g id="XMLID_259_">
			<g id="XMLID_260_">
				<polygon id="XMLID_33_" fill="#D1C0BA" points="1060.2,636.1 1062.6,633.2 1070.5,625.2 1073.5,626.6 				"/>
			</g>
		</g>
		<g id="XMLID_256_">
			<g id="XMLID_257_">
				<polygon id="XMLID_32_" fill="#FAE6DE" points="1057.3,632.7 1053.7,633.7 1059.9,623.8 				"/>
			</g>
		</g>
		<g id="XMLID_253_">
			<g id="XMLID_254_">
				<polygon id="XMLID_31_" fill="#FAE6DE" points="1062.6,633.2 1065.9,638.5 1073.6,626.4 1070.3,624.7 				"/>
			</g>
		</g>
		<g id="XMLID_251_">
			<path id="XMLID_30_" fill="#D1C0BA" d="M1045.7,654.7c0,0-1.2-7.9,0.1-12.7c0,0,0.7,3.9,2.4,9.9L1045.7,654.7z"/>
		</g>
		<g id="XMLID_249_">
			<path id="XMLID_29_" fill="#D1C0BA" d="M1082.6,653.6c0,0-3.3-10.9-3.5-11.5c0,0,0.2,10,1.5,14.9
				C1080.6,657.1,1081.8,655,1082.6,653.6z"/>
		</g>
		<g id="XMLID_247_">
			<polygon id="XMLID_28_" fill="#54281A" points="960.2,599.1 1011.9,664.3 1010.1,665.7 			"/>
		</g>
		<g id="XMLID_244_">
			<g id="XMLID_245_">
				<path id="XMLID_27_" fill="#DB9C7C" d="M999.6,652.8c0,0,3.9-0.4,4,0.3c0.1,0.6-0.2,0.9-0.2,0.9l1.7,0.6c0,0,0.9,1-0.5,1.7
					c0,0,0.9,0.8-0.5,1.3c0,0,0.4,0.8-0.2,1.2c-0.6,0.3-3.1,0.5-3.1,0.5s-0.5-0.2-0.4-1.2c0,0-0.8-0.5-0.6-1.4c0,0-0.6-0.5-0.3-1.5
					c0,0-1.2-1.2-0.3-2.3C999.2,652.8,999.4,652.8,999.6,652.8z"/>
			</g>
		</g>
		<g id="XMLID_241_">
			<g id="XMLID_242_">
				<path id="XMLID_26_" fill="#EEA886" d="M1006,651.5c0,0-2.3,1.4-3.1,2.8c-0.2,0.3-0.3,0.6-0.1,0.9c0.2,0.3,0.9,0.4,1.9-0.2
					c1-0.6,2.6-0.9,2.6-0.9S1008,653.3,1006,651.5z"/>
			</g>
		</g>
		<g id="XMLID_239_">
			<path id="XMLID_25_" fill="#EEA886" d="M1063.5,590.3c0,0-8.7-0.2-10.4,10.1c-1.6,10.4,2.1,19.5,3.6,20.9
				c1.5,1.5,10.2,0.4,12.3-5c2.1-5.4,5.1-9.3,4.6-13.9C1073.1,597.8,1074.2,590.2,1063.5,590.3z"/>
		</g>
		<g id="XMLID_237_">
			<path id="XMLID_24_" fill="#16202E" d="M1052.8,604.4c0,0-2.3-12.9,9.3-15.2c11.6-2.3,15.7,5.6,16.8,10.4c1.1,4.7-0.2,18-0.2,18
				s-7.7,6.8-12.4,8.5c0,0,3.9-14.2,2.4-24.3c0,0-9.4,1.5-15.7-0.1C1053,601.7,1052.8,603.8,1052.8,604.4z"/>
		</g>
		<g id="XMLID_235_">
			<path id="XMLID_23_" fill="#A77860" d="M1059.7,622c0,0,3,0,7.2-2.7c0,0-2.9,3.7-7,5C1059.9,624.2,1059.7,622.4,1059.7,622z"/>
		</g>
		<g id="XMLID_233_">
			
				<rect id="XMLID_22_" x="1074.7" y="691.2" transform="matrix(-0.9869 -0.1612 0.1612 -0.9869 2055.8977 1574.5649)" fill="#366E9C" width="34.2" height="25.3"/>
		</g>
		<g id="XMLID_226_">
			<g id="XMLID_227_">
				<g id="XMLID_228_">
					<g id="XMLID_229_">
						<g id="XMLID_230_">
							<g id="XMLID_231_">
								<path id="XMLID_21_" fill="#EEA886" d="M1096.2,718.7c0,0,0.5-0.9,0.6-1.4c0,0,0-0.9,0.1-1.5c0-0.2,0-0.4,0.1-0.5
									c0.1-0.5,0.5-1.5,0.4-2.7c-0.1-1.2-1.7-6.3-1.7-6.3l-3,0.1l-2.8-0.3c0,0-3.4,6.5-3.5,7.6c0,0.1,0,0.2,0,0.3
									c0,1,0.5,1.6,0.5,2.1c0,0.2,0.4,2,0.9,2.2c0.7,0.3,1.3,0.3,1.8,0c0,0,1.4,0.6,2.3,0.3c0,0,1.2,0.6,2.4-0.1
									C1094.3,718.8,1095.6,719.3,1096.2,718.7z"/>
							</g>
						</g>
					</g>
				</g>
			</g>
		</g>
		<g id="XMLID_223_">
			<g id="XMLID_224_">
				<path id="XMLID_20_" fill="#EDDAD3" d="M1078.3,628.1c0,0,6-1.7,9.4,4.9c3.4,6.6,3.4,9.4,3.9,12.6c0.4,3,4.6,21.1,4.8,22
					c0.2,0.9,1.6,12.2,1.7,16.3c0.1,3.1-0.7,23.6-0.5,24.4c0.1,0.8-9.5-1.4-9.5-1.4s1.1-18.9,0.9-20.9c-0.2-2-0.6-11.8-1.6-14.8
					c-1.1-3.4-5.6-20.6-6.4-22.3C1080.2,647.3,1073.3,630.2,1078.3,628.1z"/>
			</g>
		</g>
	</g>
	<g id="XMLID_173_">
		<g id="XMLID_219_">
			<g id="XMLID_220_">
				<path id="XMLID_19_" fill="#5C544D" d="M768.8,805.8l-0.6-5.8c0,0,8.2-0.1,9.1,0.6c0,0-0.7,4.9-0.8,5.6
					C776.5,806.9,768.8,805.8,768.8,805.8z"/>
			</g>
		</g>
		<g id="XMLID_216_">
			<g id="XMLID_217_">
				<path id="XMLID_18_" fill="#3C4145" d="M782.7,817.9c-9.7-0.1-14.4,0.6-15.5-1c-1-1.6,1.5-11.7,1.5-11.7s2.3,0.8,7.9,0.3
					c0,0,2.4,2.9,4.8,4.2c2.3,1.3,6,1.8,7.4,3.1C789.8,813.9,792.4,818,782.7,817.9z"/>
			</g>
		</g>
		<g id="XMLID_213_">
			<g id="XMLID_214_">
				<path id="XMLID_17_" fill="#5C544D" d="M823.6,805.8L823,800c0,0,8.2-0.1,9.1,0.6c0,0-0.7,4.9-0.8,5.6
					C831.3,806.9,823.6,805.8,823.6,805.8z"/>
			</g>
		</g>
		<g id="XMLID_210_">
			<g id="XMLID_211_">
				<path id="XMLID_16_" fill="#3C4145" d="M837.5,817.9c-9.7-0.3-14.4,0.6-15.5-1c-1-1.6,1.5-11.7,1.5-11.7s2.2,0.9,7.9,0.3
					c0,0,2.4,2.9,4.8,4.2c2.3,1.3,11,2.3,12.4,3.7C849.6,814.4,851.2,818.2,837.5,817.9z"/>
			</g>
		</g>
		<g id="XMLID_207_">
			<g id="XMLID_208_">
				<path id="XMLID_15_" fill="#DBD8E3" d="M780,674.8c0,0-4.1,12.1-3.5,22.5c0.5,10.4-2.1,21.8-3.2,32.7
					c-1.2,12.1-6.1,40.9-6.3,47.4c-0.2,6.5,0.8,27.2,0.8,27.2l9.9,0.2c0,0,8.3-50.2,10.4-55.4c2.1-5.1,12.8-41.7,13.1-45.8
					C801.6,699.6,780,674.8,780,674.8z"/>
			</g>
		</g>
		<g id="XMLID_204_">
			<g id="XMLID_205_">
				<path id="XMLID_14_" fill="#DBD8E3" d="M821.5,676.9c0,0,5.4,28.6,6.1,34.9c0.7,6.4,1.2,30.9,1.5,34.8c0.4,4,2.4,52.2,4.3,58.1
					h-12.6c0,0-9.7-35-9.7-51.6c0-16.6-7.5-36-12.3-47c-4.8-10.9-15.9-11.2-18.8-31.5C780,674.8,817.5,670.5,821.5,676.9z"/>
			</g>
		</g>
		<g id="XMLID_201_">
			<g id="XMLID_202_">
				<path id="XMLID_13_" fill="#EEA886" d="M795.9,579.3c0,0,9.9-3.7,14.5,3.9c4.6,7.6,4.1,22.7-0.9,24.6c-5,1.9-12.5,0.9-15.1-3.8
					c-2.6-4.7-4.9-11.6-4.8-16.1C789.8,583.2,793.3,580.6,795.9,579.3z"/>
			</g>
		</g>
		<g id="XMLID_198_">
			<g id="XMLID_199_">
				<path id="XMLID_12_" fill="#EEA886" d="M807.9,607.3c0,0-0.4,2.6,0.3,3.9c0.7,1.3-12.5,1.3-12.5,1.3s-1.1-7-3.1-12.9
					C790.5,593.7,807.9,607.3,807.9,607.3z"/>
			</g>
		</g>
		<g id="XMLID_195_">
			<g id="XMLID_196_">
				<path id="XMLID_11_" fill="#FCCCA2" d="M792.5,599.6c0,0,0.9,1.5,4.6,0.9c3.7-0.6,8.2-5.5,9.8-6.1c1.5-0.5,1.6-1.5,1.6-1.5
					l1,1.4l1.6,0.1c0,0-1.5-4.4,0.8-6.2c2.3-1.8-2.3-14.3-14.2-10.1c0,0-8.5,1.7-9,6.9C788,590.6,790.5,597,792.5,599.6z"/>
			</g>
		</g>
		<g id="XMLID_192_">
			<g id="XMLID_193_">
				<path id="XMLID_10_" fill="#E2D2CA" d="M808.9,611c0,0,0-2.5-1.2-2.7c-1.1-0.2-12.3-1.3-13.6-0.8v2.9
					C794.1,610.4,796.7,612,808.9,611z"/>
			</g>
		</g>
		<g id="XMLID_189_">
			<g id="XMLID_190_">
				<path id="XMLID_9_" fill="#EEA886" d="M808.2,591.1c-0.2-0.9-2.4-3.4-3.3-0.7c-0.8,2.7,1.3,6.3,2.5,5.9
					C808.6,596.1,808.8,593.3,808.2,591.1z"/>
			</g>
		</g>
		<g id="XMLID_186_">
			<g id="XMLID_187_">
				<path id="XMLID_8_" fill="#63A4FF" d="M808.9,611c0,0,6.1,2.2,13.2,5.2c0,0,8.1,3,9,12c0.5,4.8,5.6,30.1,6.5,32.3
					c1,2.1,12.2,36.6,12.6,37.3c0.4,0.7-9.2,4.7-9.8,4.4c-0.6-0.3-10.9-31.4-12-33.7c0,0-5.9-18.7-6.1-21.4c0,0-0.2,7.9-0.5,10.1
					c-0.3,2.2,5.3,45.4,5.1,46.6c-0.2,1.2-25.4,2.7-35.5,1.6c-10.1-1.1-18.2-3.4-18.2-3.4s7.9-34.1,7.7-37.9
					c-0.5-8.2-3.3-23.7-3.3-23.7l-8.2,15.5L780,683l-2.4,8.2c0,0-19.6-29.6-20.2-32.3c-0.6-2.7,1-6.1,2-8.4c1-2.2,7.8-19.2,9.4-21.5
					c1.6-2.4,4.3-11.9,10.8-14.6c5.4-2.2,14.5-4,14.5-4L808.9,611z"/>
			</g>
		</g>
		<g id="XMLID_183_">
			<g id="XMLID_184_">
				
					<rect id="XMLID_7_" x="817.5" y="674.9" transform="matrix(-0.9687 0.2484 -0.2484 -0.9687 1827.9304 1152.3134)" fill="#F25F54" width="47.6" height="33.2"/>
			</g>
		</g>
		<g id="XMLID_180_">
			<g id="XMLID_181_">
				<path id="XMLID_6_" fill="#C98462" d="M854.3,704.9c0,0,1.3,2.1,1.8,2.7c0.5,0.6-1.2,1-1.9,0.4
					C853.5,707.4,854.3,704.9,854.3,704.9z"/>
			</g>
		</g>
		<g id="XMLID_177_">
			<g id="XMLID_178_">
				<path id="XMLID_5_" fill="#DE9D7D" d="M844.7,712.1c0,0-0.8-0.8-0.9-1.3c0,0-0.2-1-0.4-1.7c-0.1-0.2-0.1-0.4-0.2-0.5
					c-0.2-0.5-0.9-1.5-1.1-2.8c-0.2-1.3-0.8-7.2-0.8-7.2l3.6-0.9l2.9-0.6c0,0,6.2,6.2,6.5,7.4c0,0.1,0.1,0.2,0.1,0.3
					c0.2,1-0.1,1.9-0.1,2.5c0,0.2,0,2.3-0.5,2.6c-0.7,0.5-1.3,0.6-1.9,0.5c0,0-1.3,1-2.5,0.9c0,0-1.2,1-2.6,0.5
					C846.8,711.8,845.5,712.6,844.7,712.1z"/>
			</g>
		</g>
		<g id="XMLID_174_">
			<g id="XMLID_175_">
				<path id="XMLID_4_" fill="#63A4FF" d="M830.7,674.8c0,0,8.2,24.8,9.7,27.4c0,0,6-1.3,9.8-4.4l-9-26.7L830.7,674.8z"/>
			</g>
		</g>
	</g>
	<g id="XMLID_169_">
		<path id="XMLID_170_" fill="#64A4FF" d="M282.3,482.1c0-22.8,15.6-41.4,34.8-41.4c19.2,0,34.8,18.6,34.8,41.4
			c0,22.8-15.6,41.4-34.8,41.4C297.9,523.5,282.3,504.9,282.3,482.1z M284.2,482.1c0,21.5,14.7,39,32.9,39s32.9-17.5,32.9-39
			c0-21.5-14.7-39-32.9-39S284.2,460.6,284.2,482.1z"/>
	</g>
	<g id="XMLID_172_">
		<g id="XMLID_206_">
			<g id="XMLID_209_">
				<g id="XMLID_212_">
					<g id="XMLID_215_">
						<path id="XMLID_218_" fill="#BBD070" d="M19.3,672.4c0,0,77.6,41.7,60.2,95.5c-17.4,53.8-42.4,17.7-42.4,17.7
							s-18.6,11.7-4-52.8C40,702.4,19.3,672.4,19.3,672.4z"/>
					</g>
				</g>
			</g>
		</g>
		<g id="XMLID_191_">
			<g id="XMLID_194_">
				<g id="XMLID_197_">
					<g id="XMLID_200_">
						<path id="XMLID_203_" fill="#97A43C" d="M115.6,577.6c0,0,62.2,42.3,20.4,136.1c-41.8,93.8-21,131.5-21,131.5
							S-9.1,736.3,115.6,577.6z"/>
					</g>
				</g>
			</g>
		</g>
		<g id="XMLID_176_">
			<g id="XMLID_179_">
				<g id="XMLID_182_">
					<g id="XMLID_185_">
						<path id="XMLID_188_" fill="#48753A" d="M94.5,826.1c-27.6,14-27.3-77.6,9.4-115.6c36.7-38,75.3-51.3,93-83
							C196.9,627.5,230.5,757.4,94.5,826.1z"/>
					</g>
				</g>
			</g>
		</g>
	</g>
	
		<linearGradient id="XMLID_252_" gradientUnits="userSpaceOnUse" x1="720.5547" y1="146.3565" x2="956.8987" y2="146.3565" gradientTransform="matrix(-1 0 0 1 1121 0)">
		<stop  offset="0" style="stop-color:#00AABD"/>
		<stop  offset="0.2217" style="stop-color:#13C4CC"/>
		<stop  offset="0.5441" style="stop-color:#2BE4DD"/>
		<stop  offset="0.8151" style="stop-color:#3AF8E8"/>
		<stop  offset="1" style="stop-color:#3FFFEC"/>
	</linearGradient>
	<path id="XMLID_221_" fill="url(#XMLID_252_)" stroke="#FFFFFF" stroke-width="2.9923" stroke-miterlimit="10" d="M184.2,215.4
		l15.4,15.1l15.4,15.1l16.4-11.2c8.3,4.8,17.1,8.3,26.2,10.5l4.1,19.5l21.6-0.2l21.6-0.2l3.7-19.5c9-2.4,17.8-6.1,26-11l16.6,10.8
		l15.1-15.4l15.1-15.4l-11.2-16.4c4.8-8.3,8.3-17.1,10.5-26.2l19.5-4.1l-0.2-21.6l-0.2-21.6l-19.5-3.7c-2.4-9-6.1-17.8-11-26
		l10.8-16.6l-15.4-15.1L349.5,47l-16.4,11.2c-8.3-4.8-17.1-8.3-26.2-10.5l-4.1-19.5l-21.6,0.2l-21.6,0.2l-3.7,19.5
		c-9,2.4-17.8,6.1-26,11l-16.6-10.8l-15.1,15.4l-15.1,15.4l11.2,16.4c-4.8,8.3-8.3,17.1-10.5,26.2l-19.5,4.1l0.2,21.6l0.2,21.6
		l19.5,3.7c2.4,9,6.1,17.8,11,26L184.2,215.4z M245.2,184.2c-20.9-20.5-21.2-54-0.7-74.9c20.5-20.9,54-21.2,74.9-0.7
		c20.9,20.5,21.2,54,0.7,74.9C299.6,204.3,266,204.6,245.2,184.2z"/>
	<g id="XMLID_171_">
		<path id="XMLID_246_" fill-rule="evenodd" clip-rule="evenodd" fill="#FFFFFF" d="M451.3,696.8c-4.6-2.2-10.1-1.6-14,1.6l8.4,9.9
			L451.3,696.8z"/>
		<path id="XMLID_243_" fill-rule="evenodd" clip-rule="evenodd" fill="#FFFFFF" d="M457.5,722.3c1.8-4.5,2.8-8.7,2.1-12.3
			c-0.5-4.1-1.9-7.3-3.9-9.6l-6.2,12.7L457.5,722.3z"/>
		<path id="XMLID_240_" fill-rule="evenodd" clip-rule="evenodd" fill="#FFFFFF" d="M441.4,729.8c2.5,2.8,5.2,5.6,7.8,8.2
			c2-3.2,4-6.7,5.7-10.1l-8-9.4L441.4,729.8z"/>
		<path id="XMLID_238_" fill-rule="evenodd" clip-rule="evenodd" fill="#FFFFFF" d="M432.3,713.4c0.3,3.7,2.3,7.7,5.2,11.7l5.5-11.2
			l-9.3-10.9C432.4,705.7,431.7,709.2,432.3,713.4z"/>
	</g>
</g>
</svg>
