<?xml version="1.0" encoding="utf-8"?>
<!-- Generator: Adobe Illustrator 19.0.0, SVG Export Plug-In . SVG Version: 6.00 Build 0)  -->
<svg version="1.1" xmlns="http://www.w3.org/2000/svg" xmlns:xlink="http://www.w3.org/1999/xlink" x="0px" y="0px"
	 viewBox="0 0 600 356.2" enable-background="new 0 0 600 356.2" xml:space="preserve">
<g id="Layer_2">
</g>
<g id="Character_1_">
	<g>
		<path id="Floor_2_" opacity="0.19" fill="#27DEBF" d="M443.1,315.3c-79,45.4-207.1,45.4-286.1,0c-79-45.4-79-119,0-164.4
			c79-45.4,207.1-45.4,286.1,0C522.1,196.4,522.1,270,443.1,315.3z"/>
		<path id="Shadow_7_" opacity="0.21" d="M323.1,233.2c-16.6-9.6-43.5-9.6-60.1,0c-14.1,8.1-16.2,20.5-6.4,30
			c-0.6,0.2-1.1,0.4-1.6,0.6L202.5,294c-2.2,1.3-2.2,3.4,0,4.7l3.3,1.9c2.2,1.3,5.8,1.2,7.9-0.2l48.9-32c0.2-0.1,0.4-0.3,0.6-0.4
			c16.6,9.5,43.4,9.5,60-0.1C339.7,258.3,339.7,242.7,323.1,233.2z"/>
		<path id="Shadow_6_" opacity="0.21" d="M439.8,198.3L373,237c-1.5,0.9-3.9,0.9-5.4,0l-116.2-67.1c-1.5-0.9-1.5-2.2,0-3.1
			l66.8-38.7c1.5-0.9,3.9-0.9,5.4,0l116.2,67.1C441.3,196,441.3,197.4,439.8,198.3z"/>
		<path id="Shadow_5_" opacity="0.21" d="M142.3,271.4l-17.9-10.3c-2.2-1.2-2.2-3.3,0-4.5l124.4-71.8c2.2-1.2,5.7-1.2,7.8,0
			l17.9,10.3c2.2,1.2,2.2,3.3,0,4.5l-124.4,71.8C147.9,272.7,144.4,272.7,142.3,271.4z"/>
		<path id="Shadow_4_" opacity="0.21" d="M416.6,286.7c12.9,7,33.8,7,46.7,0c12.9-7,12.9-18.5,0-25.5c-12.9-7-33.8-7-46.7,0
			C403.7,268.2,403.7,279.6,416.6,286.7z"/>
		<g id="Plants_1_">
			<g id="XMLID_14872_">
				<g id="XMLID_14875_">
					<path id="XMLID_14877_" fill="#27DEBF" d="M454.4,256c0.3-4,3.9-12.1,8.5-16.9c4.6-4.9,11.4-8.1,15.9-6.2
						c4.2,1.8,3.3,7.5-2.3,10.8c-5.5,3.3-13.8,7.4-16.6,13.7l-5.5,7.6V256z"/>
					<path id="XMLID_14876_" opacity="0.1" d="M454.4,256c0.3-4,3.9-12.1,8.5-16.9c4.6-4.9,11.4-8.1,15.9-6.2
						c4.2,1.8,3.3,7.5-2.3,10.8c-5.5,3.3-13.8,7.4-16.6,13.7l-5.5,7.6V256z"/>
				</g>
				<g id="XMLID_14873_">
					<path id="XMLID_14874_" fill="#FFFFFF" d="M453.7,261.4c0.1,0,0.2-0.1,0.3-0.2c3.8-13.4,15.7-23.7,22.5-25.6
						c0.2,0,0.2-0.2,0.2-0.4c0-0.2-0.2-0.2-0.4-0.2c-6.9,2-19.1,12.3-22.9,26C453.4,261.2,453.4,261.4,453.7,261.4
						C453.6,261.4,453.7,261.4,453.7,261.4z"/>
				</g>
			</g>
			<g id="XMLID_14867_">
				<g id="XMLID_14870_">
					<path id="XMLID_14871_" fill="#27DEBF" d="M455,270.3c0.8-2.2,3.9-5.7,8.6-8.4c5.2-3,11.5-4.1,13.2-6.6c2-3-0.5-6.2-5.6-6
						c-5.1,0.2-14.5,6.4-16.8,16.7L455,270.3z"/>
				</g>
				<g id="XMLID_14868_">
					<path id="XMLID_14869_" fill="#FFFFFF" d="M454.2,267.9c0.1,0,0.2-0.1,0.3-0.2c5.1-11.4,14.4-14.8,18.6-15
						c0.2,0,0.3-0.1,0.3-0.3c0-0.2-0.1-0.3-0.3-0.3c-4.6,0.2-13.8,3.7-19.1,15.3c-0.1,0.1,0,0.3,0.1,0.4
						C454.1,267.9,454.2,267.9,454.2,267.9z"/>
				</g>
			</g>
		</g>
		<g id="Plants_3_">
			<g id="XMLID_14861_">
				<g id="XMLID_14864_">
					<path id="XMLID_14866_" fill="#27DEBF" d="M125.9,233.7c0,0-0.9-8.3-5.1-14.8s-9.8-10.5-15.1-10.9c-5.3-0.4-9.6,4.5-3.9,7.8
						c5.7,3.3,15.7,6.8,20.4,19.3L125.9,233.7z"/>
					<path id="XMLID_14865_" opacity="0.1" d="M125.9,233.7c0,0-0.9-8.3-5.1-14.8s-9.8-10.5-15.1-10.9c-5.3-0.4-9.6,4.5-3.9,7.8
						c5.7,3.3,15.7,6.8,20.4,19.3L125.9,233.7z"/>
				</g>
				<g id="XMLID_14862_">
					<path id="XMLID_14863_" fill="#FFFFFF" d="M124.3,231.5C124.3,231.5,124.3,231.5,124.3,231.5c0.2-0.1,0.3-0.2,0.2-0.4
						c-5.6-13.8-16.2-19.5-21.1-20.6c-0.2,0-0.3,0.1-0.3,0.2c0,0.2,0.1,0.3,0.2,0.3c4.7,1.1,15.2,6.7,20.7,20.3
						C124,231.5,124.2,231.5,124.3,231.5z"/>
				</g>
			</g>
			<g id="XMLID_14809_">
				<g id="XMLID_14856_">
					<g id="XMLID_14859_">
						<path id="XMLID_14860_" fill="#27DEBF" d="M98.9,231.4c0.5,1.1,1.8,1.7,2.9,2.2c1.2,0.5,2.4,1,3.1,2.1
							c1.3,2.2-0.8,5.3,0.5,7.4c0.6,0.9,1.6,1.4,2.7,1.6c0.9,0.2,1.8,0.2,2.6,0.2c0.4,0,0.8,0,1.3-0.1c1.2-0.2,2.5-0.2,3.6,0.4
							c1.7,1,2.3,3.2,3.3,4.9c1.3,2,3.5,3.4,5.9,3.7c0.8,0.1,2.2,0.2,3-0.2c0.1,0,0.1-0.1,0.2-0.1c0,0,0,0,0,0
							c0.1-0.1,0.2-0.3,0.3-0.4c0,0,0,0,0-0.1c0.3-1.1-0.2-2.3-0.2-3.5c0-0.1,0-0.1,0-0.2c0-1.4,0.1-2.7,0.1-4.1
							c0.1-2.5,0.1-5,0.1-7.5c0-1.6,0.2-3.4-0.5-5c-0.8-1.7-2.7-1.7-3.4-3.4c-0.3-0.7-0.4-1.4-0.7-2c-0.8-2-2.8-3.4-5-3.5
							c-3.3-0.2-6.3,2.5-9.6,2.3c-0.9-0.1-1.7-0.3-2.5-0.5c-2.7-0.5-5.8,0.3-7.3,2.5C98.7,229.1,98.4,230.4,98.9,231.4z"/>
					</g>
				</g>
				<g id="XMLID_14854_">
					<path id="XMLID_14855_" fill="#FFFFFF" d="M128.7,247.8C128.7,247.8,128.7,247.8,128.7,247.8c0.2,0,0.3-0.2,0.2-0.4
						c-4.6-17.2-22.7-19.7-26.9-19.4c-0.2,0-0.3,0.1-0.3,0.3c0,0.2,0.1,0.3,0.3,0.3c4.1-0.3,21.9,2.1,26.4,19
						C128.4,247.8,128.6,247.9,128.7,247.8z"/>
				</g>
				<g id="XMLID_14852_">
					<path id="XMLID_14853_" fill="#FFFFFF" d="M108.6,239.1c0.1,0,0.1,0,0.1-0.1c0,0,4.7-4.6,12.3-3.5c0.2,0,0.3-0.1,0.3-0.2
						c0-0.2-0.1-0.3-0.2-0.3c-8-1.2-12.8,3.6-12.8,3.6c-0.1,0.1-0.1,0.3,0,0.4C108.4,239.1,108.5,239.1,108.6,239.1z"/>
				</g>
			</g>
		</g>
		<g id="Device">
			<g id="XMLID_311_">
				<path id="XMLID_312_" fill="#37474F" d="M437.3,185.8l-64.6,37.4c-1.4,0.8-3.8,0.8-5.2,0l-112.3-64.8c-1.4-0.8-1.4-2.2,0-3
					l64.6-37.4c1.4-0.8,3.8-0.8,5.2,0l112.3,64.8C438.7,183.6,438.7,184.9,437.3,185.8z"/>
			</g>
			<g id="XMLID_309_">
				<path id="XMLID_310_" fill="#263238" d="M402.8,202.9c-2,1.1-5.2,1.1-7.2,0c-2-1.1-2-3,0-4.2c2-1.1,5.2-1.1,7.2,0
					C404.8,199.9,404.8,201.8,402.8,202.9z"/>
			</g>
			<g id="XMLID_307_">
				<path id="XMLID_308_" fill="#455A64" d="M372.7,223.1l64.6-37.4c1.3-0.7,1.4-1.9,0.4-2.7c1.2,0.9,2.2,2.7,2.2,4.2v2.4
					c0,1.7-1.2,3.7-2.6,4.5l-64.6,37.4c-0.7,0.4-1.7,0.6-2.6,0.6v-8.4C371.1,223.8,372,223.5,372.7,223.1z"/>
			</g>
			<g id="XMLID_305_">
				<path id="XMLID_306_" fill="#263238" d="M255.2,166.7c-1.4-0.8-2.6-2.8-2.6-4.5v-2.4c0-1.5,1-3.3,2.2-4.2c-1,0.8-0.9,2,0.4,2.7
					l112.3,64.8c0.7,0.4,1.7,0.6,2.6,0.6v8.4c-0.9,0-1.9-0.2-2.6-0.6L255.2,166.7z"/>
			</g>
			<g id="XMLID_303_">
				<path id="XMLID_304_" fill="#FAFAFA" d="M362,215.3l60.9-35.2c0.9-0.5,0.9-1.3,0-1.8l-90-52.1c-0.9-0.5-2.3-0.5-3.1,0
					l-60.9,35.2c-0.9,0.5-0.9,1.3,0,1.8l90,52.1C359.7,215.8,361.1,215.8,362,215.3z"/>
			</g>
			<g id="XMLID_331_">
				<g id="XMLID_126_">
					<path id="XMLID_326_" fill="#EBEBEB" d="M278.2,163l29.1,16.8c1.1,0.6,2.8,0.6,3.9,0l51.2-29.5c1.1-0.6,1.1-1.6,0-2.3
						l-29.1-16.8c-1.1-0.6-2.8-0.6-3.9,0l-51.2,29.5C277.1,161.4,277.1,162.4,278.2,163z"/>
				</g>
				<g id="XMLID_127_">
					<g id="XMLID_332_">
						<path id="XMLID_350_" fill="#FAFAFA" d="M299.6,155l7.5,1.5c0.5,0.1,1,0,1.4-0.1l6.3-2.7c1-0.4,2.4,0,2.4,0.7l-0.1,4.6
							c0,0.3,0.2,0.6,0.6,0.7l6.4,2.6c1,0.4,0.8,1.3-0.4,1.5l-7.5,1.4c-0.5,0.1-0.8,0.3-1,0.6l-2.3,4.3c-0.4,0.7-2,0.8-2.7,0.2
							l-4.6-3.7c-0.3-0.2-0.8-0.4-1.3-0.4l-7.9,0.1c-1.3,0-2-0.8-1.2-1.4l4.7-3.7c0.3-0.2,0.4-0.5,0.2-0.8l-2.5-4.3
							C297.3,155.4,298.4,154.8,299.6,155z"/>
					</g>
					<g id="XMLID_128_">
						<path id="XMLID_187_" fill="#FAFAFA" d="M316.2,145.5l16-9.2c0.6-0.4,1.6-0.4,2.1-0.1c0.5,0.3,0.4,0.8-0.3,1.2l-16,9.2
							c-0.6,0.4-1.6,0.4-2.1,0.1C315.5,146.4,315.6,145.8,316.2,145.5z"/>
						<path id="XMLID_186_" fill="#FAFAFA" d="M320.3,147.8l16-9.2c0.6-0.4,1.6-0.4,2.1-0.1s0.4,0.8-0.3,1.2l-16,9.2
							c-0.6,0.4-1.6,0.4-2.1,0.1C319.5,148.7,319.6,148.2,320.3,147.8z"/>
						<path id="XMLID_185_" fill="#FAFAFA" d="M324.3,150.1l16-9.2c0.6-0.4,1.6-0.4,2.1-0.1c0.5,0.3,0.4,0.8-0.3,1.2l-16,9.2
							c-0.6,0.4-1.6,0.4-2.1,0.1C323.5,151,323.7,150.5,324.3,150.1z"/>
						<path id="XMLID_184_" fill="#FAFAFA" d="M328.3,152.5l16-9.2c0.6-0.4,1.6-0.4,2.1-0.1c0.5,0.3,0.4,0.8-0.3,1.2l-16,9.2
							c-0.6,0.4-1.6,0.4-2.1,0.1C327.6,153.4,327.7,152.8,328.3,152.5z"/>
						<path id="XMLID_142_" fill="#FAFAFA" d="M332.4,154.8l16-9.2c0.6-0.4,1.6-0.4,2.1-0.1c0.5,0.3,0.4,0.8-0.3,1.2l-16,9.2
							c-0.6,0.4-1.6,0.4-2.1,0.1C331.6,155.7,331.7,155.2,332.4,154.8z"/>
						<path id="XMLID_137_" fill="#FAFAFA" d="M336.4,157.1l16-9.2c0.6-0.4,1.6-0.4,2.1-0.1c0.5,0.3,0.4,0.8-0.3,1.2l-16,9.2
							c-0.6,0.4-1.6,0.4-2.1,0.1C335.6,158,335.8,157.5,336.4,157.1z"/>
					</g>
				</g>
				<path id="XMLID_327_" fill="#E0E0E0" d="M314.2,183.8l1.3,0.8c0.6,0.4,1.7,0.4,2.3,0l30.7-17.7c0.6-0.4,0.6-1,0-1.4l-1.3-0.8
					c-0.6-0.4-1.7-0.4-2.3,0l-30.7,17.7C313.5,182.8,313.5,183.4,314.2,183.8z"/>
				<path id="XMLID_328_" fill="#E0E0E0" d="M369.2,152l1.3,0.8c0.6,0.4,0.6,1,0,1.4l-12.3,7.1c-0.6,0.4-1.7,0.4-2.3,0l-1.3-0.8
					c-0.6-0.4-0.6-1,0-1.4l12.3-7.1C367.5,151.6,368.6,151.6,369.2,152z"/>
			</g>
			<g id="XMLID_130_">
				<g id="XMLID_195_">
					<path id="XMLID_196_" fill="#EBEBEB" d="M322.3,188.5l29.1,16.8c1.1,0.6,2.8,0.6,3.9,0l51.2-29.5c1.1-0.6,1.1-1.6,0-2.3
						l-29.1-16.8c-1.1-0.6-2.8-0.6-3.9,0l-51.2,29.5C321.2,186.8,321.2,187.9,322.3,188.5z"/>
				</g>
				<g id="XMLID_133_">
					<g id="XMLID_192_">
						<path id="XMLID_193_" fill="#FAFAFA" d="M343.7,180.4l7.5,1.5c0.5,0.1,1,0,1.4-0.1l6.3-2.7c1-0.4,2.4,0,2.4,0.7l-0.1,4.6
							c0,0.3,0.2,0.6,0.6,0.7l6.4,2.6c1,0.4,0.8,1.3-0.4,1.5l-7.5,1.4c-0.5,0.1-0.8,0.3-1,0.6l-2.3,4.3c-0.4,0.7-2,0.8-2.7,0.2
							l-4.6-3.7c-0.3-0.2-0.8-0.4-1.3-0.4l-7.9,0.1c-1.3,0-2-0.8-1.2-1.4l4.7-3.7c0.3-0.2,0.4-0.5,0.2-0.8l-2.5-4.3
							C341.4,180.9,342.5,180.2,343.7,180.4z"/>
					</g>
					<g id="XMLID_134_">
						<path id="XMLID_191_" fill="#FAFAFA" d="M360.3,170.9l16-9.2c0.6-0.4,1.6-0.4,2.1-0.1c0.5,0.3,0.4,0.8-0.3,1.2l-16,9.2
							c-0.6,0.4-1.6,0.4-2.1,0.1C359.6,171.8,359.7,171.3,360.3,170.9z"/>
						<path id="XMLID_190_" fill="#FAFAFA" d="M364.4,173.2l16-9.2c0.6-0.4,1.6-0.4,2.1-0.1c0.5,0.3,0.4,0.8-0.3,1.2l-16,9.2
							c-0.6,0.4-1.6,0.4-2.1,0.1C363.6,174.2,363.7,173.6,364.4,173.2z"/>
						<path id="XMLID_189_" fill="#FAFAFA" d="M368.4,175.6l16-9.2c0.6-0.4,1.6-0.4,2.1-0.1c0.5,0.3,0.4,0.8-0.3,1.2l-16,9.2
							c-0.6,0.4-1.6,0.4-2.1,0.1C367.6,176.5,367.7,176,368.4,175.6z"/>
						<path id="XMLID_188_" fill="#FAFAFA" d="M372.4,177.9l16-9.2c0.6-0.4,1.6-0.4,2.1-0.1c0.5,0.3,0.4,0.8-0.3,1.2l-16,9.2
							c-0.6,0.4-1.6,0.4-2.1,0.1C371.7,178.8,371.8,178.3,372.4,177.9z"/>
						<path id="XMLID_136_" fill="#FAFAFA" d="M376.5,180.2l16-9.2c0.6-0.4,1.6-0.4,2.1-0.1c0.5,0.3,0.4,0.8-0.3,1.2l-16,9.2
							c-0.6,0.4-1.6,0.4-2.1,0.1C375.7,181.2,375.8,180.6,376.5,180.2z"/>
						<path id="XMLID_135_" fill="#FAFAFA" d="M380.5,182.6l16-9.2c0.6-0.4,1.6-0.4,2.1-0.1c0.5,0.3,0.4,0.8-0.3,1.2l-16,9.2
							c-0.6,0.4-1.6,0.4-2.1,0.1C379.7,183.5,379.8,182.9,380.5,182.6z"/>
					</g>
				</g>
				<path id="XMLID_132_" fill="#E0E0E0" d="M358.2,209.2l1.3,0.8c0.6,0.4,1.7,0.4,2.3,0l30.7-17.7c0.6-0.4,0.6-1,0-1.4l-1.3-0.8
					c-0.6-0.4-1.7-0.4-2.3,0l-30.7,17.7C357.6,208.3,357.6,208.9,358.2,209.2z"/>
				<path id="XMLID_131_" fill="#E0E0E0" d="M413.3,177.4l1.3,0.8c0.6,0.4,0.6,1,0,1.4l-12.3,7.1c-0.6,0.4-1.7,0.4-2.3,0l-1.3-0.8
					c-0.6-0.4-0.6-1,0-1.4l12.3-7.1C411.6,177.1,412.7,177.1,413.3,177.4z"/>
			</g>
			<g id="XMLID_239_">
				<path id="XMLID_240_" fill="#263238" d="M293,139.4c-0.4,0.3-1.2,0.3-1.6,0c-0.4-0.3-0.4-0.7,0-0.9c0.4-0.3,1.2-0.3,1.6,0
					C293.4,138.7,293.4,139.1,293,139.4z"/>
			</g>
			<g id="XMLID_232_">
				<g id="XMLID_236_">
					<path id="XMLID_238_" fill="#263238" d="M290.4,146.6c-0.9,0.5-2.3,0.5-3.2,0c-0.9-0.5-0.9-1.3,0-1.8c0.9-0.5,2.3-0.5,3.2,0
						C291.3,145.3,291.3,146.1,290.4,146.6z"/>
				</g>
				<g id="XMLID_233_">
					<path id="XMLID_234_" fill="#263238" d="M292.7,143.4c-0.6-0.3-0.6-0.9,0.1-1.3l10.5-6c0.6-0.4,1.6-0.4,2.2,0
						c0.6,0.3,0.6,0.9-0.1,1.3l-10.5,6C294.2,143.7,293.3,143.8,292.7,143.4z"/>
				</g>
			</g>
		</g>
		<g id="News_Paper">
			<path id="XMLID_83_" fill="#E0E0E0" d="M267.3,55v2.1l-7.3,4.2h0l-11,6.4l-97.2,56.1c-0.5,0.3-1,0.8-1.4,1.5
				c-0.4,0.6-0.6,1.3-0.6,1.9v129.2c0,7-4.9,9.9-11,6.4c-6.1-3.5-11-12-11-19.1V114.5c0-0.6,0.2-1.3,0.6-1.9
				c0.4-0.6,0.8-1.1,1.4-1.5L238,48.6l10.5-6c0.4,0.6,0.6,1.3,0.6,1.9l0,2l-115.6,66.9c-0.5,0.3-1,0.8-1.3,1.4
				c-0.4,0.6-0.6,1.4-0.6,2v129c0,4.7,3.3,10.4,7.3,12.7c4,2.3,7.3,0.4,7.3-4.2V125.1c0-0.6,0.2-1.3,0.6-1.9
				c0.4-0.6,0.8-1.2,1.4-1.5l118.7-68.5C267.1,53.8,267.3,54.4,267.3,55z"/>
			<path id="XMLID_78_" fill="#E0E0E0" d="M256.3,48.8V55l-111.9,64.6c-0.5,0.3-1,0.8-1.4,1.5c-0.4,0.6-0.6,1.3-0.6,1.9v129.2
				c0,2.3-1.6,3.3-3.7,2.1c-2-1.2-3.7-4-3.7-6.4V118.7c0-0.6,0.2-1.3,0.6-1.9c0.4-0.6,0.8-1.1,1.4-1.5l118.7-68.5
				C256.1,47.4,256.3,48.1,256.3,48.8z"/>
			<g id="XMLID_34_">
				<path id="XMLID_82_" fill="#EBEBEB" d="M154.1,127.4c-0.4,0.6-0.6,1.3-0.6,1.9v128.1c0,1-0.1,1.9-0.2,2.8c0,0.2-0.1,0.5-0.1,0.7
					c0,0.2-0.1,0.4-0.1,0.6c0,0.2-0.1,0.4-0.1,0.6c0,0.2-0.1,0.4-0.1,0.5c-0.8,2.5-2.2,4.3-3.9,5.3c-2.6,1.5-6.2,1.3-10-0.9
					c-8.1-4.7-14.7-16.6-14.7-26.6V112.4c0-0.6,0.2-1.3,0.6-1.9l3.7,2.1c-0.4,0.6-0.6,1.3-0.6,1.9v129.2c0,7,4.9,15.6,11,19.1
					c6.1,3.5,11,0.7,11-6.4V127.2c0-0.6,0.2-1.3,0.6-1.9L154.1,127.4z"/>
				<path id="XMLID_81_" fill="#EBEBEB" d="M146.7,123.2c-0.4,0.6-0.6,1.3-0.6,1.9v129.2c0,4.7-3.3,6.6-7.3,4.2
					c-4.1-2.3-7.3-8-7.3-12.7v-129c0-0.7,0.2-1.4,0.6-2l3.6,2.1c-0.4,0.6-0.6,1.3-0.6,1.9v129.2c0,2.3,1.6,5.2,3.7,6.4
					c2,1.2,3.7,0.2,3.7-2.1V123c0-0.6,0.2-1.3,0.6-1.9L146.7,123.2z"/>
			</g>
			<g id="XMLID_18_">
				<path id="XMLID_80_" fill="#FAFAFA" d="M248.4,42.6l-10.5,6l-108.2,62.5c-0.5,0.3-1,0.8-1.4,1.5l-3.7-2.1
					c0.4-0.6,0.8-1.1,1.4-1.5c12.5-7.2,81.1-46.8,108.2-62.5l2.1-1.2l2.1-1.2l1.8-1l1.1-0.6l2-1.1c1.1-0.6,2.8-0.7,3.8-0.1
					C247.6,41.5,248.1,42,248.4,42.6z"/>
				<path id="XMLID_79_" fill="#FAFAFA" d="M274.1,57.4L274.1,57.4l-10.5,6l-18.4,10.6l-89.8,51.9c-0.5,0.3-1,0.8-1.4,1.5l-3.7-2.1
					c0.4-0.6,0.8-1.1,1.4-1.5L249,67.7l11-6.4h0l7.3-4.2l1.7-1l0.1-0.1c1.1-0.6,2.6-0.6,3.6,0c0,0,0,0,0,0c0.1,0,0.1,0.1,0.2,0.1
					C273.4,56.5,273.8,56.9,274.1,57.4z"/>
				<path id="XMLID_77_" fill="#FAFAFA" d="M255.8,46.8l-118.7,68.5c-0.5,0.3-1,0.8-1.4,1.5l-3.6-2.1c0.3-0.6,0.8-1.1,1.3-1.4
					L249,46.5l1.7-1c1.1-0.6,2.8-0.7,3.8-0.1C255,45.7,255.4,46.3,255.8,46.8z"/>
				<path id="XMLID_75_" fill="#FAFAFA" d="M266.8,53.2l-118.7,68.5c-0.5,0.3-1,0.8-1.4,1.5l-3.7-2.1c0.4-0.6,0.8-1.1,1.4-1.5
					L256.3,55l5.4-3.1c1.1-0.6,2.8-0.7,3.8-0.1C266,52.1,266.5,52.6,266.8,53.2z"/>
			</g>
			<g id="XMLID_156_">
				<path id="XMLID_69_" fill="#F5F5F5" d="M274.7,59.4v128.1c0,5.3-1.8,8.9-4.7,10.6l-121.3,70c1.9-1.1,3.5-3.1,4.3-5.9
					c0.1-0.2,0.1-0.4,0.1-0.6c0-0.2,0.1-0.4,0.1-0.6c0-0.2,0.1-0.5,0.1-0.7c0.1-0.9,0.2-1.8,0.2-2.8V129.3c0-0.6,0.2-1.3,0.6-1.9
					c0.4-0.6,0.8-1.1,1.4-1.5l89.8-51.9l18.4-10.6l10.5-6C274.5,58,274.7,58.7,274.7,59.4z"/>
			</g>
			<path id="XMLID_40_" fill="#455A64" d="M166.5,128.1l18.1-10.5c1.1-0.6,2-0.1,2,1.1l0,25.2c0,1.2-0.9,2.8-2,3.4l-18.1,10.5
				c-1.1,0.6-2,0.1-2-1.1l0-25.2C164.5,130.2,165.4,128.7,166.5,128.1z"/>
			<polygon id="XMLID_43_" fill="#27DEBF" points="164.5,167.3 263.7,110.1 263.7,114.4 164.5,171.6 			"/>
			<polygon id="XMLID_183_" opacity="0.4" fill="#FFFFFF" points="164.5,167.3 263.7,110.1 263.7,114.4 164.5,171.6 			"/>
			<g id="XMLID_120_">
				<path id="XMLID_48_" fill="#F0F0F0" d="M165.7,179.4l19.7-11.4c0.6-0.4,1.2-0.1,1.2,0.7v39.7c0,0.7-0.5,1.7-1.2,2l-19.7,11.4
					c-0.6,0.4-1.2,0.1-1.2-0.7l0-39.7C164.5,180.7,165.1,179.8,165.7,179.4z"/>
				<path id="XMLID_58_" fill="#F0F0F0" d="M165.7,226l19.7-11.4c0.6-0.4,1.2-0.1,1.2,0.7v31.1l-22,12.7l0-31.1
					C164.5,227.3,165.1,226.4,165.7,226z"/>
				<path id="XMLID_52_" fill="#F0F0F0" d="M191.4,164.5l19.7-11.4c0.6-0.4,1.2-0.1,1.2,0.7v52.4c0,0.7-0.5,1.7-1.2,2l-19.7,11.4
					c-0.6,0.4-1.2,0.1-1.2-0.7l0-52.4C190.2,165.8,190.8,164.9,191.4,164.5z"/>
				<path id="XMLID_55_" fill="#F0F0F0" d="M217.1,149.7l19.7-11.4c0.6-0.4,1.2-0.1,1.2,0.7v39.7c0,0.7-0.5,1.7-1.2,2l-19.7,11.4
					c-0.6,0.4-1.2,0.1-1.2-0.7l0-39.7C215.9,151,216.5,150.1,217.1,149.7z"/>
				<path id="XMLID_57_" fill="#F0F0F0" d="M242.8,134.9l19.7-11.4c0.6-0.4,1.2-0.1,1.2,0.7v52.4c0,0.7-0.5,1.7-1.2,2L242.8,190
					c-0.6,0.4-1.2,0.1-1.2-0.7l0-52.4C241.6,136.2,242.2,135.2,242.8,134.9z"/>
				<path id="XMLID_51_" fill="#F0F0F0" d="M191.4,223.9l19.7-11.4c0.6-0.4,1.2-0.1,1.2,0.7l0,18.3l-22,12.7l0-18.3
					C190.2,225.2,190.8,224.3,191.4,223.9z"/>
				<path id="XMLID_67_" fill="#F0F0F0" d="M215.9,198.4l0,31.1l22-12.7l0-31.1c0-0.7-0.5-1.1-1.2-0.7l-19.7,11.4
					C216.5,196.7,215.9,197.6,215.9,198.4z"/>
				<path id="XMLID_68_" fill="#F0F0F0" d="M242.8,194.2l19.7-11.4c0.6-0.4,1.2-0.1,1.2,0.7l0,18.3l-22,12.7l0-18.3
					C241.6,195.5,242.2,194.6,242.8,194.2z"/>
				<path id="XMLID_160_" fill="#E0E0E0" d="M195.1,226l12.3-7.1c0.6-0.4,1.2-0.1,1.2,0.7v10c0,0.7-0.5,1.7-1.2,2l-12.3,7.1
					c-0.6,0.4-1.2,0.1-1.2-0.7l0-10C193.9,227.3,194.4,226.4,195.1,226z"/>
				<path id="XMLID_163_" fill="#E0E0E0" d="M246.5,196.4l12.3-7.1c0.6-0.4,1.2-0.1,1.2,0.7v10c0,0.7-0.5,1.7-1.2,2l-12.3,7.1
					c-0.6,0.4-1.2,0.1-1.2-0.7l0-10C245.3,197.6,245.8,196.7,246.5,196.4z"/>
				<g id="XMLID_76_">
					<path id="XMLID_73_" fill="#E0E0E0" d="M169.4,181.5l12.3-7.1c0.6-0.4,1.2-0.1,1.2,0.7v10c0,0.7-0.5,1.7-1.2,2l-12.3,7.1
						c-0.6,0.4-1.2,0.1-1.2-0.7l0-10C168.2,182.8,168.7,181.9,169.4,181.5z"/>
					<path id="XMLID_74_" fill="#E0E0E0" d="M169,196.6l13.1-7.6c0.4-0.2,0.8,0,0.8,0.5v0.3c0,0.5-0.4,1.1-0.8,1.4l-13.1,7.6
						c-0.4,0.2-0.8,0-0.8-0.5v-0.3C168.2,197.4,168.6,196.8,169,196.6z"/>
					<path id="XMLID_85_" fill="#E0E0E0" d="M169,200.8l13.1-7.6c0.4-0.2,0.8,0,0.8,0.5v0.3c0,0.5-0.4,1.1-0.8,1.4l-13.1,7.6
						c-0.4,0.2-0.8,0-0.8-0.5v-0.3C168.2,201.7,168.6,201.1,169,200.8z"/>
					<path id="XMLID_86_" fill="#E0E0E0" d="M169,205.1l13.1-7.6c0.4-0.2,0.8,0,0.8,0.5v0.3c0,0.5-0.4,1.1-0.8,1.4l-13.1,7.6
						c-0.4,0.2-0.8,0-0.8-0.5v-0.3C168.2,205.9,168.6,205.3,169,205.1z"/>
					<path id="XMLID_107_" fill="#E0E0E0" d="M169,209.3l13.1-7.6c0.4-0.2,0.8,0,0.8,0.5v0.3c0,0.5-0.4,1.1-0.8,1.4l-13.1,7.6
						c-0.4,0.2-0.8,0-0.8-0.5v-0.3C168.2,210.1,168.6,209.5,169,209.3z"/>
					<path id="XMLID_112_" fill="#E0E0E0" d="M169,213.5l13.1-7.6c0.4-0.2,0.8,0,0.8,0.5v0.3c0,0.5-0.4,1.1-0.8,1.4l-13.1,7.6
						c-0.4,0.2-0.8,0-0.8-0.5v-0.3C168.2,214.4,168.6,213.8,169,213.5z"/>
				</g>
				<g id="XMLID_121_">
					<path id="XMLID_147_" fill="#E0E0E0" d="M195.1,166.7l12.3-7.1c0.6-0.4,1.2-0.1,1.2,0.7v10c0,0.7-0.5,1.7-1.2,2l-12.3,7.1
						c-0.6,0.4-1.2,0.1-1.2-0.7l0-10C193.9,168,194.4,167,195.1,166.7z"/>
					<path id="XMLID_146_" fill="#E0E0E0" d="M194.7,181.7l13.1-7.6c0.4-0.2,0.8,0,0.8,0.5v0.3c0,0.5-0.4,1.1-0.8,1.4l-13.1,7.6
						c-0.4,0.2-0.8,0-0.8-0.5v-0.3C193.9,182.6,194.3,182,194.7,181.7z"/>
					<path id="XMLID_125_" fill="#E0E0E0" d="M194.7,186l13.1-7.6c0.4-0.2,0.8,0,0.8,0.5v0.3c0,0.5-0.4,1.1-0.8,1.4l-13.1,7.6
						c-0.4,0.2-0.8,0-0.8-0.5v-0.3C193.9,186.8,194.3,186.2,194.7,186z"/>
					<path id="XMLID_124_" fill="#E0E0E0" d="M194.7,190.2l13.1-7.6c0.4-0.2,0.8,0,0.8,0.5v0.3c0,0.5-0.4,1.1-0.8,1.4l-13.1,7.6
						c-0.4,0.2-0.8,0-0.8-0.5v-0.3C193.9,191.1,194.3,190.5,194.7,190.2z"/>
					<path id="XMLID_123_" fill="#E0E0E0" d="M194.7,194.5l13.1-7.6c0.4-0.2,0.8,0,0.8,0.5v0.3c0,0.5-0.4,1.1-0.8,1.4l-13.1,7.6
						c-0.4,0.2-0.8,0-0.8-0.5v-0.3C193.9,195.3,194.3,194.7,194.7,194.5z"/>
					<path id="XMLID_122_" fill="#E0E0E0" d="M194.7,198.7l13.1-7.6c0.4-0.2,0.8,0,0.8,0.5v0.3c0,0.5-0.4,1.1-0.8,1.4l-13.1,7.6
						c-0.4,0.2-0.8,0-0.8-0.5V200C193.9,199.5,194.3,198.9,194.7,198.7z"/>
					<path id="XMLID_158_" fill="#E0E0E0" d="M194.7,202.9l13.1-7.6c0.4-0.2,0.8,0,0.8,0.5v0.3c0,0.5-0.4,1.1-0.8,1.4l-13.1,7.6
						c-0.4,0.2-0.8,0-0.8-0.5v-0.3C193.9,203.8,194.3,203.2,194.7,202.9z"/>
					<path id="XMLID_157_" fill="#E0E0E0" d="M194.7,207.2l13.1-7.6c0.4-0.2,0.8,0,0.8,0.5v0.3c0,0.5-0.4,1.1-0.8,1.4l-13.1,7.6
						c-0.4,0.2-0.8,0-0.8-0.5v-0.3C193.9,208,194.3,207.4,194.7,207.2z"/>
					<path id="XMLID_148_" fill="#E0E0E0" d="M194.7,211.4l13.1-7.6c0.4-0.2,0.8,0,0.8,0.5v0.3c0,0.5-0.4,1.1-0.8,1.4l-13.1,7.6
						c-0.4,0.2-0.8,0-0.8-0.5v-0.3C193.9,212.3,194.3,211.7,194.7,211.4z"/>
				</g>
				<g id="XMLID_113_">
					<path id="XMLID_119_" fill="#E0E0E0" d="M169.4,228.1l12.3-7.1c0.6-0.4,1.2-0.1,1.2,0.7v10c0,0.7-0.5,1.7-1.2,2l-12.3,7.1
						c-0.6,0.4-1.2,0.1-1.2-0.7l0-10C168.2,229.4,168.7,228.5,169.4,228.1z"/>
					<path id="XMLID_116_" fill="#E0E0E0" d="M169,243.2l13.1-7.6c0.4-0.2,0.8,0,0.8,0.5v0.3c0,0.5-0.4,1.1-0.8,1.4l-13.1,7.6
						c-0.4,0.2-0.8,0-0.8-0.5v-0.3C168.2,244.1,168.6,243.5,169,243.2z"/>
					<path id="XMLID_115_" fill="#E0E0E0" d="M169,247.5l13.1-7.6c0.4-0.2,0.8,0,0.8,0.5v0.3c0,0.5-0.4,1.1-0.8,1.4l-13.1,7.6
						c-0.4,0.2-0.8,0-0.8-0.5v-0.3C168.2,248.3,168.6,247.7,169,247.5z"/>
					<path id="XMLID_114_" fill="#E0E0E0" d="M169,251.7l13.1-7.6c0.4-0.2,0.8,0,0.8,0.5v0.3c0,0.5-0.4,1.1-0.8,1.4l-13.1,7.6
						c-0.4,0.2-0.8,0-0.8-0.5V253C168.2,252.5,168.6,251.9,169,251.7z"/>
				</g>
				<g id="XMLID_176_">
					<path id="XMLID_182_" fill="#E0E0E0" d="M220.8,151.8l12.3-7.1c0.6-0.4,1.2-0.1,1.2,0.7v10c0,0.7-0.5,1.7-1.2,2l-12.3,7.1
						c-0.6,0.4-1.2,0.1-1.2-0.7l0-10C219.6,153.1,220.1,152.2,220.8,151.8z"/>
					<path id="XMLID_181_" fill="#E0E0E0" d="M220.4,166.9l13.1-7.6c0.4-0.2,0.8,0,0.8,0.5v0.3c0,0.5-0.4,1.1-0.8,1.4l-13.1,7.6
						c-0.4,0.2-0.8,0-0.8-0.5l0-0.3C219.6,167.8,220,167.1,220.4,166.9z"/>
					<path id="XMLID_180_" fill="#E0E0E0" d="M220.4,171.1l13.1-7.6c0.4-0.2,0.8,0,0.8,0.5v0.3c0,0.5-0.4,1.1-0.8,1.4l-13.1,7.6
						c-0.4,0.2-0.8,0-0.8-0.5l0-0.3C219.6,172,220,171.4,220.4,171.1z"/>
					<path id="XMLID_179_" fill="#E0E0E0" d="M220.4,175.4l13.1-7.6c0.4-0.2,0.8,0,0.8,0.5v0.3c0,0.5-0.4,1.1-0.8,1.4l-13.1,7.6
						c-0.4,0.2-0.8,0-0.8-0.5l0-0.3C219.6,176.2,220,175.6,220.4,175.4z"/>
					<path id="XMLID_178_" fill="#E0E0E0" d="M220.4,179.6l13.1-7.6c0.4-0.2,0.8,0,0.8,0.5v0.3c0,0.5-0.4,1.1-0.8,1.4l-13.1,7.6
						c-0.4,0.2-0.8,0-0.8-0.5l0-0.3C219.6,180.5,220,179.9,220.4,179.6z"/>
					<path id="XMLID_177_" fill="#E0E0E0" d="M220.4,183.9l13.1-7.6c0.4-0.2,0.8,0,0.8,0.5v0.3c0,0.5-0.4,1.1-0.8,1.4l-13.1,7.6
						c-0.4,0.2-0.8,0-0.8-0.5l0-0.3C219.6,184.7,220,184.1,220.4,183.9z"/>
				</g>
				<g id="XMLID_166_">
					<path id="XMLID_175_" fill="#E0E0E0" d="M246.5,137l12.3-7.1c0.6-0.4,1.2-0.1,1.2,0.7v10c0,0.7-0.5,1.7-1.2,2l-12.3,7.1
						c-0.6,0.4-1.2,0.1-1.2-0.7l0-10C245.3,138.3,245.8,137.4,246.5,137z"/>
					<path id="XMLID_174_" fill="#E0E0E0" d="M246.1,152.1l13.1-7.6c0.4-0.2,0.8,0,0.8,0.5v0.3c0,0.5-0.4,1.1-0.8,1.4l-13.1,7.6
						c-0.4,0.2-0.8,0-0.8-0.5l0-0.3C245.3,152.9,245.7,152.3,246.1,152.1z"/>
					<path id="XMLID_173_" fill="#E0E0E0" d="M246.1,156.3l13.1-7.6c0.4-0.2,0.8,0,0.8,0.5v0.3c0,0.5-0.4,1.1-0.8,1.4l-13.1,7.6
						c-0.4,0.2-0.8,0-0.8-0.5l0-0.3C245.3,157.2,245.7,156.5,246.1,156.3z"/>
					<path id="XMLID_172_" fill="#E0E0E0" d="M246.1,160.5l13.1-7.6c0.4-0.2,0.8,0,0.8,0.5v0.3c0,0.5-0.4,1.1-0.8,1.4l-13.1,7.6
						c-0.4,0.2-0.8,0-0.8-0.5l0-0.3C245.3,161.4,245.7,160.8,246.1,160.5z"/>
					<path id="XMLID_171_" fill="#E0E0E0" d="M246.1,164.8l13.1-7.6c0.4-0.2,0.8,0,0.8,0.5v0.3c0,0.5-0.4,1.1-0.8,1.4l-13.1,7.6
						c-0.4,0.2-0.8,0-0.8-0.5l0-0.3C245.3,165.6,245.7,165,246.1,164.8z"/>
					<path id="XMLID_170_" fill="#E0E0E0" d="M246.1,169l13.1-7.6c0.4-0.2,0.8,0,0.8,0.5v0.3c0,0.5-0.4,1.1-0.8,1.4l-13.1,7.6
						c-0.4,0.2-0.8,0-0.8-0.5l0-0.3C245.3,169.9,245.7,169.3,246.1,169z"/>
					<path id="XMLID_169_" fill="#E0E0E0" d="M246.1,173.3l13.1-7.6c0.4-0.2,0.8,0,0.8,0.5v0.3c0,0.5-0.4,1.1-0.8,1.4l-13.1,7.6
						c-0.4,0.2-0.8,0-0.8-0.5l0-0.3C245.3,174.1,245.7,173.5,246.1,173.3z"/>
					<path id="XMLID_168_" fill="#E0E0E0" d="M246.1,177.5l13.1-7.6c0.4-0.2,0.8,0,0.8,0.5v0.3c0,0.5-0.4,1.1-0.8,1.4l-13.1,7.6
						c-0.4,0.2-0.8,0-0.8-0.5l0-0.3C245.3,178.4,245.7,177.7,246.1,177.5z"/>
					<path id="XMLID_167_" fill="#E0E0E0" d="M246.1,181.7l13.1-7.6c0.4-0.2,0.8,0,0.8,0.5v0.3c0,0.5-0.4,1.1-0.8,1.4l-13.1,7.6
						c-0.4,0.2-0.8,0-0.8-0.5l0-0.3C245.3,182.6,245.7,182,246.1,181.7z"/>
				</g>
				<g id="XMLID_159_">
					<path id="XMLID_165_" fill="#E0E0E0" d="M220.8,198.5l12.3-7.1c0.6-0.4,1.2-0.1,1.2,0.7v10c0,0.7-0.5,1.7-1.2,2l-12.3,7.1
						c-0.6,0.4-1.2,0.1-1.2-0.7l0-10C219.6,199.8,220.1,198.8,220.8,198.5z"/>
					<path id="XMLID_164_" fill="#E0E0E0" d="M220.4,213.5l13.1-7.6c0.4-0.2,0.8,0,0.8,0.5v0.3c0,0.5-0.4,1.1-0.8,1.4l-13.1,7.6
						c-0.4,0.2-0.8,0-0.8-0.5l0-0.3C219.6,214.4,220,213.8,220.4,213.5z"/>
					<path id="XMLID_162_" fill="#E0E0E0" d="M220.4,217.8l13.1-7.6c0.4-0.2,0.8,0,0.8,0.5v0.3c0,0.5-0.4,1.1-0.8,1.4l-13.1,7.6
						c-0.4,0.2-0.8,0-0.8-0.5l0-0.3C219.6,218.6,220,218,220.4,217.8z"/>
					<path id="XMLID_161_" fill="#E0E0E0" d="M220.4,222l13.1-7.6c0.4-0.2,0.8,0,0.8,0.5v0.3c0,0.5-0.4,1.1-0.8,1.4l-13.1,7.6
						c-0.4,0.2-0.8,0-0.8-0.5l0-0.3C219.6,222.9,220,222.3,220.4,222z"/>
				</g>
			</g>
			<g id="XMLID_206_">
				<path id="XMLID_207_" fill="#455A64" d="M194.5,139.3c-0.2-0.1-0.3-0.2-0.3-0.5c0-0.2,0.1-0.5,0.2-0.8l1-3.1
					c0.1-0.4,0.3-0.7,0.4-0.7c0.1-0.1,0.3,0,0.4,0c0.9,0.4,2,0.3,3.1-0.3c0.9-0.5,1.5-1.2,1.9-2.1c0.4-0.9,0.6-2,0.6-3.3v-18.3
					c0-0.6,0.1-1.1,0.3-1.5c0.2-0.4,0.5-0.8,1-1l2-1.2c0.5-0.3,0.8-0.3,1-0.1c0.2,0.2,0.3,0.6,0.3,1.2v18.3c0,2.7-0.5,5.2-1.6,7.4
					c-1.1,2.2-2.6,3.9-4.7,5.1C197.8,139.7,196,139.9,194.5,139.3z"/>
				<path id="XMLID_224_" fill="#455A64" d="M210.7,128.3c-1.6-1.7-2.4-4.8-2.4-9.5c0-4.7,0.8-8.8,2.4-12.4c1.6-3.5,4-6.2,7-8
					c3.1-1.8,5.4-1.8,7-0.2c1.6,1.7,2.4,4.8,2.4,9.5c0,4.7-0.8,8.8-2.4,12.4c-1.6,3.5-4,6.2-7,7.9
					C214.7,129.9,212.4,130,210.7,128.3z M221.5,118.5c0.8-2.1,1.3-4.8,1.3-8.1c0-3.3-0.4-5.5-1.3-6.6c-0.8-1.2-2.1-1.3-3.7-0.3
					c-1.7,1-2.9,2.5-3.8,4.7c-0.8,2.1-1.3,4.8-1.3,8.1c0,3.3,0.4,5.5,1.3,6.6c0.8,1.2,2.1,1.3,3.8,0.3
					C219.4,122.2,220.7,120.6,221.5,118.5z"/>
				<path id="XMLID_227_" fill="#455A64" d="M229.8,120.1c-0.2-0.2-0.3-0.6-0.3-1.2V94.2c0-0.6,0.1-1.1,0.3-1.5
					c0.2-0.4,0.5-0.7,0.9-1l8-4.6c2-1.1,3.5-1.3,4.5-0.5c1,0.8,1.5,2.5,1.5,5c0,1.3-0.2,2.6-0.6,3.9c-0.4,1.3-1,2.3-1.7,3.2
					c1.9-0.1,2.8,1.4,2.8,4.7c0,1.6-0.2,3.2-0.7,4.7c-0.5,1.6-1.2,3-2.2,4.3c-1,1.3-2.2,2.4-3.6,3.2l-8,4.6
					C230.3,120.3,229.9,120.3,229.8,120.1z M237.9,99c0.7-0.4,1.3-1,1.7-1.8c0.4-0.8,0.6-1.7,0.6-2.8c0-1.1-0.2-1.9-0.6-2.1
					c-0.4-0.3-0.9-0.2-1.7,0.3l-3.9,2.3v6.4L237.9,99z M238.3,110.6c0.8-0.5,1.4-1.1,1.8-2c0.4-0.9,0.6-1.8,0.6-2.9
					c0-1.2-0.2-2-0.7-2.3c-0.5-0.3-1.1-0.3-1.9,0.2L234,106v7.1L238.3,110.6z"/>
				<path id="XMLID_367_" fill="#455A64" d="M249.2,109.3c-1.3,0.3-2.3,0.2-3.1-0.1c-0.3-0.2-0.4-0.4-0.4-0.6c0-0.2,0-0.4,0.1-0.7
					l1.1-3.4c0.1-0.3,0.2-0.5,0.4-0.6c0.1-0.1,0.2-0.1,0.4,0c0.7,0.2,1.4,0.2,2.3,0.1c0.9-0.1,1.7-0.5,2.6-1c1-0.6,1.8-1.3,2.3-2.1
					c0.5-0.8,0.8-1.8,0.8-2.9c0-0.8-0.1-1.3-0.4-1.6c-0.2-0.3-0.6-0.5-1.1-0.6c-0.5-0.1-1.2-0.1-2.2-0.1c-1.2,0-2.1-0.1-2.9-0.3
					c-0.8-0.2-1.5-0.7-2-1.6c-0.5-0.8-0.8-2-0.8-3.6c0-2.6,0.6-5,1.9-7.2c1.2-2.1,2.9-3.8,4.9-5c2.7-1.6,4.8-2,6.2-1.2
					c0.3,0.2,0.4,0.4,0.4,0.6c0,0.2,0,0.4-0.1,0.7l-1.1,3.4c-0.1,0.3-0.2,0.5-0.4,0.6c-0.1,0.1-0.2,0.1-0.4,0
					c-1.1-0.5-2.4-0.3-4,0.6c-2,1.1-2.9,2.8-2.9,5c0,0.7,0.1,1.3,0.3,1.6c0.2,0.3,0.5,0.5,0.9,0.6c0.4,0.1,1,0.1,1.9,0.2l0.8,0
					c1.3,0,2.4,0.2,3.1,0.5c0.8,0.3,1.3,0.8,1.8,1.6c0.4,0.8,0.6,2,0.6,3.6c0,2.4-0.6,4.7-1.8,6.8c-1.2,2.1-2.9,3.8-5.1,5.1
					C251.8,108.5,250.5,109,249.2,109.3z"/>
			</g>
		</g>
		<g id="Tab_1_">
			<g id="XMLID_324_">
				<path id="XMLID_302_" fill="#27DEBF" d="M362.1,22.3L362.1,22.3L362.1,22.3C362.1,22.3,362.1,22.3,362.1,22.3l-3.7-2.1v0
					c-0.4-0.2-1-0.2-1.7,0.2l-46.7,27c-1.3,0.7-2.3,2.6-2.3,4.1v96.3c0,0.7,0.3,1.3,0.7,1.5l0,0l0,0l0,0l3.7,2.1c0,0,0,0,0,0l0,0v0
					c0.4,0.2,1,0.2,1.6-0.2l12.3-7.1v7.4c0,1.3,0.2,2.1,0.5,2.3l0,0l3.6,2.1c0,0,0,0,0,0l0,0v0c0.4,0.2,1-0.4,1.7-1.8l8.8-18.5
					l19.7-11.4c1.3-0.7,2.3-2.6,2.3-4.1V23.8C362.8,23.1,362.5,22.6,362.1,22.3z"/>
				<path id="XMLID_333_" opacity="0.4" fill="#FFFFFF" d="M362,22.3c-0.4-0.2-1-0.1-1.6,0.2l-46.7,27c-0.6,0.4-1.2,1-1.6,1.7
					l-3.7-2.1c0.4-0.7,1-1.3,1.6-1.7l46.7-27c0.4-0.2,0.7-0.3,1-0.3c0.2,0,0.4,0.1,0.6,0.2L362,22.3z"/>
				<path id="XMLID_329_" opacity="0.2" d="M326.6,153.8L326.6,153.8c-0.3-0.2-0.5-1-0.5-2.3v-7.4l3.7-2.1v11.7c0,1.2,0.2,2,0.5,2.3
					L326.6,153.8z"/>
				<path id="XMLID_330_" opacity="0.1" d="M312.1,151.4C312.1,151.4,312.1,151.4,312.1,151.4l-3.7-2.1l0,0
					c-0.4-0.2-0.7-0.8-0.7-1.5V51.5c0-0.8,0.3-1.6,0.7-2.4l3.7,2.1c-0.4,0.8-0.7,1.6-0.7,2.4v96.3
					C311.4,150.6,311.7,151.1,312.1,151.4z"/>
			</g>
			<g id="XMLID_319_">
				<path id="XMLID_301_" fill="#455A64" d="M320.7,54l32.8-19c1.1-0.6,2-0.1,2,1.1V57c0,1.2-0.9,2.8-2,3.4l-32.8,19
					c-1.1,0.6-2,0.1-2-1.1l0-20.9C318.7,56.1,319.6,54.6,320.7,54z"/>
				<path id="XMLID_313_" fill="#455A64" d="M355.5,65.6c0,1.2-0.9,2.6-2,3.2l-32.8,18.9c-1.1,0.6-2,0.2-2-1s0.9-2.6,2-3.3
					l32.8-18.9C354.6,64,355.5,64.5,355.5,65.6z"/>
				<path id="XMLID_315_" fill="#455A64" d="M355.5,74.1c0,1.2-0.9,2.6-2,3.2l-32.8,18.9c-1.1,0.6-2,0.2-2-1c0-1.2,0.9-2.6,2-3.2
					l32.8-18.9C354.6,72.5,355.5,72.9,355.5,74.1z"/>
				<path id="XMLID_316_" fill="#455A64" d="M355.5,82.6c0,1.2-0.9,2.6-2,3.2l-32.8,18.9c-1.1,0.6-2,0.2-2-1c0-1.2,0.9-2.6,2-3.3
					l32.8-18.9C354.6,81,355.5,81.4,355.5,82.6z"/>
				<path id="XMLID_317_" fill="#455A64" d="M355.5,91.1c0,1.2-0.9,2.6-2,3.2l-32.8,18.9c-1.1,0.6-2,0.2-2-1c0-1.2,0.9-2.6,2-3.3
					l32.8-18.9C354.6,89.5,355.5,89.9,355.5,91.1z"/>
				<path id="XMLID_314_" fill="#455A64" d="M318.7,120.8c0,1.2,0.9,1.6,2,1l3.4-2c1.1-0.6,2-2.1,2-3.2s-0.9-1.6-2-1l-3.4,2
					C319.6,118.1,318.7,119.6,318.7,120.8z"/>
				<path id="XMLID_318_" fill="#455A64" d="M331.1,113.7c0,1.2,0.9,1.6,2,1l20.5-11.8c1.1-0.6,2-2.1,2-3.3c0-1.2-0.9-1.6-2-1
					L333,110.4C331.9,111,331.1,112.5,331.1,113.7z"/>
				<path id="XMLID_321_" fill="#455A64" d="M318.7,129.2c0,1.2,0.9,1.6,2,1l3.4-2c1.1-0.6,2-2.1,2-3.2c0-1.2-0.9-1.6-2-1l-3.4,2
					C319.6,126.6,318.7,128.1,318.7,129.2z"/>
				<path id="XMLID_320_" fill="#455A64" d="M331.1,122.1c0,1.2,0.9,1.6,2,1l20.5-11.8c1.1-0.6,2-2.1,2-3.3c0-1.2-0.9-1.6-2-1
					L333,118.9C331.9,119.5,331.1,121,331.1,122.1z"/>
				<path id="XMLID_323_" fill="#455A64" d="M318.7,137.7c0,1.2,0.9,1.6,2,1l3.4-2c1.1-0.6,2-2.1,2-3.2s-0.9-1.6-2-1l-3.4,2
					C319.6,135.1,318.7,136.5,318.7,137.7z"/>
				<path id="XMLID_322_" fill="#455A64" d="M331.1,130.6c0,1.2,0.9,1.6,2,1l20.5-11.8c1.1-0.6,2-2.1,2-3.3c0-1.2-0.9-1.6-2-1
					L333,127.4C331.9,128,331.1,129.4,331.1,130.6z"/>
			</g>
		</g>
		<g id="Tab">
			<g id="XMLID_360_">
				<path id="XMLID_364_" fill="#27DEBF" d="M406.2,47.7L406.2,47.7L406.2,47.7C406.2,47.7,406.2,47.7,406.2,47.7l-3.7-2.1v0
					c-0.4-0.2-1-0.2-1.7,0.2l-46.7,27c-1.3,0.7-2.3,2.6-2.3,4.1v96.3c0,0.7,0.3,1.3,0.7,1.5l0,0l0,0l0,0l3.7,2.1c0,0,0,0,0,0l0,0v0
					c0.4,0.2,1,0.2,1.6-0.2l12.3-7.1v7.4c0,1.3,0.2,2.1,0.5,2.3l0,0l3.6,2.1c0,0,0,0,0,0l0,0v0c0.4,0.2,1-0.4,1.7-1.8l8.8-18.5
					l19.7-11.4c1.3-0.7,2.3-2.6,2.3-4.1V49.2C406.9,48.5,406.6,48,406.2,47.7z"/>
				<path id="XMLID_363_" opacity="0.4" fill="#FFFFFF" d="M406.1,47.7c-0.4-0.2-1-0.1-1.6,0.2l-46.7,27c-0.6,0.4-1.2,1-1.6,1.7
					l-3.7-2.1c0.4-0.7,1-1.3,1.6-1.7l46.7-27c0.4-0.2,0.7-0.3,1-0.3c0.2,0,0.4,0.1,0.6,0.2L406.1,47.7z"/>
				<path id="XMLID_362_" opacity="0.2" d="M370.7,179.2L370.7,179.2c-0.3-0.2-0.5-1-0.5-2.3v-7.4l3.7-2.1V179c0,1.2,0.2,2,0.5,2.3
					L370.7,179.2z"/>
				<path id="XMLID_361_" opacity="0.1" d="M356.2,176.7C356.2,176.7,356.2,176.7,356.2,176.7l-3.7-2.1l0,0
					c-0.4-0.2-0.7-0.8-0.7-1.5V76.8c0-0.8,0.3-1.6,0.7-2.4l3.7,2.1c-0.4,0.8-0.7,1.6-0.7,2.4v96.3
					C355.5,176,355.7,176.5,356.2,176.7z"/>
			</g>
			<g id="XMLID_334_">
				<path id="XMLID_359_" fill="#455A64" d="M364.8,79.4l32.8-19c1.1-0.6,2-0.1,2,1.1v20.9c0,1.2-0.9,2.8-2,3.4l-32.8,19
					c-1.1,0.6-2,0.1-2-1.1l0-20.9C362.8,81.5,363.7,80,364.8,79.4z"/>
				<path id="XMLID_358_" fill="#455A64" d="M399.5,91c0,1.2-0.9,2.6-2,3.2l-32.8,18.9c-1.1,0.6-2,0.2-2-1c0-1.2,0.9-2.6,2-3.3
					L397.6,90C398.7,89.4,399.5,89.9,399.5,91z"/>
				<path id="XMLID_355_" fill="#455A64" d="M399.5,99.5c0,1.2-0.9,2.6-2,3.2l-32.8,18.9c-1.1,0.6-2,0.2-2-1s0.9-2.6,2-3.3
					l32.8-18.9C398.7,97.9,399.5,98.3,399.5,99.5z"/>
				<path id="XMLID_354_" fill="#455A64" d="M399.5,108c0,1.2-0.9,2.6-2,3.2l-32.8,18.9c-1.1,0.6-2,0.2-2-1c0-1.2,0.9-2.6,2-3.2
					l32.8-18.9C398.7,106.4,399.5,106.8,399.5,108z"/>
				<path id="XMLID_353_" fill="#455A64" d="M399.5,116.5c0,1.2-0.9,2.6-2,3.2l-32.8,18.9c-1.1,0.6-2,0.2-2-1s0.9-2.6,2-3.3
					l32.8-18.9C398.7,114.8,399.5,115.3,399.5,116.5z"/>
				<path id="XMLID_352_" fill="#455A64" d="M362.8,146.1c0,1.2,0.9,1.6,2,1l3.4-2c1.1-0.6,2-2.1,2-3.2c0-1.2-0.9-1.6-2-1l-3.4,2
					C363.7,143.5,362.8,145,362.8,146.1z"/>
				<path id="XMLID_348_" fill="#455A64" d="M375.1,139c0,1.2,0.9,1.6,2,1l20.5-11.8c1.1-0.6,2-2.1,2-3.3c0-1.2-0.9-1.6-2-1
					l-20.5,11.8C376,136.4,375.1,137.9,375.1,139z"/>
				<path id="XMLID_347_" fill="#455A64" d="M362.8,154.6c0,1.2,0.9,1.6,2,1l3.4-2c1.1-0.6,2-2.1,2-3.2s-0.9-1.6-2-1l-3.4,2
					C363.7,152,362.8,153.4,362.8,154.6z"/>
				<path id="XMLID_346_" fill="#455A64" d="M375.1,147.5c0,1.2,0.9,1.6,2,1l20.5-11.8c1.1-0.6,2-2.1,2-3.3s-0.9-1.6-2-1l-20.5,11.8
					C376,144.9,375.1,146.4,375.1,147.5z"/>
				<path id="XMLID_336_" fill="#455A64" d="M362.8,163.1c0,1.2,0.9,1.6,2,1l3.4-2c1.1-0.6,2-2.1,2-3.2s-0.9-1.6-2-1l-3.4,2
					C363.7,160.5,362.8,161.9,362.8,163.1z"/>
				<path id="XMLID_335_" fill="#455A64" d="M375.1,156c0,1.2,0.9,1.6,2,1l20.5-11.8c1.1-0.6,2-2.1,2-3.3c0-1.2-0.9-1.6-2-1
					l-20.5,11.8C376,153.4,375.1,154.8,375.1,156z"/>
			</g>
		</g>
		<g id="XMLID_377_">
			<g id="XMLID_465_">
				<g id="XMLID_470_">
					<g id="XMLID_471_">
						<g id="XMLID_472_">
							<path id="XMLID_473_" fill="#27DEBF" d="M454,10.4l-4.8-2.8c0,0,0,0,0,0l0,0l0,0c-2.1-1.2-5.1-1-8.3,0.9
								c-6.6,3.8-11.9,13-11.9,20.5c0,3.8,1.3,6.4,3.5,7.7v0l0,0l0,0l4.4,2.5l1-1.8c1.1-0.2,2.2-0.6,3.4-1.3
								c6.6-3.8,11.9-13,11.9-20.5c0-1.1-0.2-2.1-0.4-3L454,10.4z"/>
						</g>
					</g>
				</g>
				<g id="XMLID_467_">
					<path id="XMLID_469_" fill="#263238" d="M428.9,29c0,3.8,1.3,6.4,3.5,7.7v0l0,0l4.4,2.5l1-1.8c1.1-0.3,2.2-0.6,3.4-1.3
						c3.5-2,6.7-5.6,8.8-9.6l-17.2-9.9C430.4,20.4,428.9,24.9,428.9,29z"/>
					<path id="XMLID_468_" fill="#455A64" d="M454,10.4l-4.8-2.8c0,0,0,0,0,0l0,0l0,0c-2.1-1.2-5.1-1-8.3,0.8
						c-3,1.8-5.8,4.7-7.9,8.1l17.2,9.9c1.9-3.5,3-7.4,3-10.9c0-1.1-0.2-2.1-0.4-3L454,10.4z"/>
				</g>
				<path id="XMLID_466_" fill="#37474F" d="M445.3,11.1c-6.6,3.8-11.9,13-11.9,20.5c0,7.6,5.3,10.6,11.9,6.8
					c6.6-3.8,11.9-13,11.9-20.5C457.2,10.4,451.9,7.3,445.3,11.1z"/>
			</g>
			<g id="XMLID_378_">
				<path id="XMLID_380_" fill="#FAFAFA" d="M446.2,17.3c0.4-0.1,0.8-0.1,1.1-0.1c0.3,0.1,0.6,0.2,0.8,0.4c0.2,0.2,0.4,0.5,0.5,0.8
					c0.1,0.3,0.2,0.6,0.2,0.9c0,0.2,0,0.3-0.1,0.4c-0.1,0.1-0.2,0.2-0.2,0.3l-0.9,0.5c-0.1,0.1-0.3,0.1-0.3,0.1
					c-0.1,0-0.1-0.1-0.2-0.2c-0.1-0.3-0.3-0.4-0.6-0.5c-0.3-0.1-0.6,0-1.2,0.3c-0.2,0.1-0.4,0.3-0.6,0.5c-0.2,0.2-0.4,0.4-0.5,0.6
					c-0.1,0.2-0.3,0.5-0.4,0.7c-0.1,0.2-0.1,0.5-0.1,0.7c0,0.3,0,0.5,0.1,0.7c0.1,0.1,0.2,0.2,0.5,0.2c0.2,0,0.5,0,0.8-0.1
					c0.3-0.1,0.7-0.2,1.2-0.3c0.5-0.1,0.9-0.2,1.3-0.1c0.4,0,0.6,0.1,0.9,0.3c0.2,0.2,0.4,0.5,0.5,0.8c0.1,0.4,0.1,0.8,0.1,1.3
					c0,0.5-0.1,1-0.2,1.5c-0.1,0.5-0.3,1-0.6,1.5c-0.2,0.5-0.5,1-0.9,1.4c-0.3,0.4-0.7,0.8-1.2,1.2v1.3c0,0.1,0,0.3-0.1,0.4
					c-0.1,0.1-0.1,0.2-0.2,0.3l-1,0.6c-0.1,0.1-0.2,0-0.2,0c-0.1-0.1-0.1-0.2-0.1-0.3v-1.3c-0.4,0.1-0.7,0.2-1.1,0.2
					c-0.3,0-0.6-0.1-0.9-0.3c-0.3-0.2-0.5-0.4-0.6-0.7c-0.2-0.3-0.2-0.7-0.3-1.2c0-0.2,0-0.3,0.1-0.4c0.1-0.1,0.2-0.2,0.2-0.3
					l0.9-0.5c0.1-0.1,0.3-0.1,0.3-0.1c0.1,0,0.1,0.1,0.2,0.2c0.1,0.1,0.1,0.3,0.2,0.4c0.1,0.1,0.2,0.2,0.3,0.3c0.1,0,0.3,0.1,0.5,0
					c0.2,0,0.5-0.2,0.8-0.3c0.3-0.1,0.5-0.3,0.7-0.5c0.2-0.2,0.4-0.4,0.6-0.7c0.2-0.2,0.3-0.5,0.4-0.8c0.1-0.3,0.2-0.5,0.2-0.9
					c0-0.3-0.1-0.5-0.2-0.6c-0.1-0.1-0.3-0.2-0.5-0.2c-0.2,0-0.5,0.1-0.9,0.1c-0.4,0.1-0.8,0.2-1.2,0.3c-0.4,0.1-0.8,0.1-1.1,0.1
					c-0.3,0-0.6-0.1-0.8-0.3c-0.2-0.2-0.4-0.5-0.5-0.8c-0.1-0.4-0.2-0.8-0.2-1.4c0-0.5,0.1-1,0.2-1.5c0.1-0.5,0.3-1,0.5-1.5
					c0.2-0.5,0.5-0.9,0.8-1.3c0.3-0.4,0.7-0.8,1-1.1V17c0-0.1,0-0.3,0.1-0.4c0.1-0.1,0.1-0.2,0.2-0.3l1-0.6c0.1-0.1,0.2,0,0.2,0
					c0.1,0.1,0.1,0.2,0.1,0.3V17.3z"/>
			</g>
		</g>
		<g id="XMLID_382_">
			<g id="XMLID_450_">
				<g id="XMLID_455_">
					<g id="XMLID_456_">
						<g id="XMLID_457_">
							<path id="XMLID_458_" fill="#27DEBF" d="M454,98.8l-4.8-2.8c0,0,0,0,0,0l0,0l0,0c-2.1-1.2-5.1-1-8.3,0.9
								c-6.6,3.8-11.9,13-11.9,20.5c0,3.8,1.3,6.4,3.5,7.7v0l0,0l0,0l4.4,2.5l1-1.8c1.1-0.2,2.2-0.6,3.4-1.3
								c6.6-3.8,11.9-13,11.9-20.5c0-1.1-0.2-2.1-0.4-3L454,98.8z"/>
						</g>
					</g>
				</g>
				<g id="XMLID_452_">
					<path id="XMLID_454_" fill="#263238" d="M428.9,117.4c0,3.8,1.3,6.4,3.5,7.7v0l0,0l4.4,2.5l1-1.8c1.1-0.3,2.2-0.6,3.4-1.3
						c3.5-2,6.7-5.6,8.8-9.6l-17.2-9.9C430.4,108.9,428.9,113.4,428.9,117.4z"/>
					<path id="XMLID_453_" fill="#455A64" d="M454,98.8l-4.8-2.8c0,0,0,0,0,0l0,0l0,0c-2.1-1.2-5.1-1-8.3,0.8
						c-3,1.8-5.8,4.7-7.9,8.1l17.2,9.9c1.9-3.5,3-7.4,3-10.9c0-1.1-0.2-2.1-0.4-3L454,98.8z"/>
				</g>
				<path id="XMLID_451_" fill="#37474F" d="M445.3,99.5c-6.6,3.8-11.9,13-11.9,20.5c0,7.6,5.3,10.6,11.9,6.8
					c6.6-3.8,11.9-13,11.9-20.5C457.2,98.8,451.9,95.7,445.3,99.5z"/>
			</g>
			<g id="XMLID_1431_">
				<g>
					<g id="XMLID_129_">
						<path id="XMLID_138_" fill="#FAFAFA" d="M451.4,115.9l-12.1,7c-0.1,0.1-0.3,0-0.3-0.2v-10.7c0-0.2,0.1-0.5,0.3-0.5l12.1-7
							c0.1-0.1,0.3,0,0.3,0.2v10.7C451.6,115.6,451.5,115.8,451.4,115.9z"/>
					</g>
					<g id="XMLID_117_">
						<path id="XMLID_118_" fill="#FAFAFA" d="M447.7,107.2c-0.1,0.1-0.3,0-0.3-0.2v-1.6l-4.2,2.5v1.6c0,0.2-0.1,0.5-0.3,0.5
							c-0.1,0.1-0.3,0-0.3-0.2v-2c0-0.2,0.1-0.5,0.3-0.5l4.8-2.7c0.1-0.1,0.3,0,0.3,0.2v2C448,106.9,447.8,107.2,447.7,107.2z"/>
					</g>
					<g id="XMLID_109_">
						<path id="XMLID_110_" fill="#FAFAFA" d="M447.7,105.2L443,108c-0.1,0.1-0.3,0-0.3-0.2v-0.9c0-0.2,0.1-0.5,0.3-0.5l4.8-2.7
							c0.1-0.1,0.3,0,0.3,0.2v0.9C448,104.9,447.8,105.1,447.7,105.2z"/>
					</g>
					<g id="XMLID_105_">
						<path id="XMLID_106_" fill="#37474F" d="M447.1,111.9l-3.5,2c-0.1,0.1-0.2,0-0.2-0.2v-0.7c0-0.2,0.1-0.3,0.2-0.4l3.5-2
							c0.1-0.1,0.2,0,0.2,0.2v0.7C447.2,111.7,447.2,111.8,447.1,111.9z"/>
					</g>
				</g>
			</g>
		</g>
		<g id="XMLID_379_">
			<g id="XMLID_459_">
				<path id="XMLID_464_" fill="#27DEBF" d="M454,54.6l-4.8-2.8c0,0,0,0,0,0l0,0l0,0c-2.1-1.2-5.1-1-8.3,0.9
					c-6.6,3.8-11.9,13-11.9,20.5c0,3.8,1.3,6.4,3.5,7.7v0l0,0l0,0l4.4,2.5l1-1.8c1.1-0.2,2.2-0.6,3.4-1.3c6.6-3.8,11.9-13,11.9-20.5
					c0-1.1-0.2-2.1-0.4-3L454,54.6z"/>
				<g id="XMLID_461_">
					<path id="XMLID_463_" fill="#263238" d="M428.9,73.2c0,3.8,1.3,6.4,3.5,7.7v0l0,0l4.4,2.5l1-1.8c1.1-0.3,2.2-0.6,3.4-1.3
						c3.5-2,6.7-5.6,8.8-9.6l-17.2-9.9C430.4,64.6,428.9,69.2,428.9,73.2z"/>
					<path id="XMLID_462_" fill="#455A64" d="M454,54.6l-4.8-2.8c0,0,0,0,0,0l0,0l0,0c-2.1-1.2-5.1-1-8.3,0.8
						c-3,1.8-5.8,4.7-7.9,8.1l17.2,9.9c1.9-3.5,3-7.4,3-10.9c0-1.1-0.2-2.1-0.4-3L454,54.6z"/>
				</g>
				<path id="XMLID_460_" fill="#37474F" d="M445.3,55.3c-6.6,3.8-11.9,13-11.9,20.5c0,7.6,5.3,10.6,11.9,6.8
					c6.6-3.8,11.9-13,11.9-20.5C457.2,54.6,451.9,51.5,445.3,55.3z"/>
			</g>
			<g id="XMLID_444_">
				<path id="XMLID_448_" fill="#FFFFFF" d="M441,67.3c0-1.7,0.9-3.6,2-4.3c1.1-0.6,2,0.2,2,1.9c0,1.7-0.9,3.6-2,4.3
					C441.9,69.9,441,69.1,441,67.3z"/>
				<path id="XMLID_447_" fill="#FFFFFF" d="M446.6,76l-7.4,4.3l0.4-4.9c0.2-2.1,1.3-4.3,2.6-5l1.4-0.8c1.3-0.8,2.4,0.1,2.6,2
					L446.6,76z"/>
				<path id="XMLID_446_" fill="#FFFFFF" d="M445.9,62.2c0-1.7,0.9-3.6,2-4.3c1.1-0.6,2,0.2,2,1.9c0,1.7-0.9,3.6-2,4.3
					C446.8,64.8,445.9,63.9,445.9,62.2z"/>
				<path id="XMLID_445_" fill="#FFFFFF" d="M451.5,70.9l-4.6,2.6l-0.2-2.4c-0.1-1.7-0.9-2.7-1.9-2.7c0.5-1.4,1.3-2.7,2.2-3.2
					l1.4-0.8c1.3-0.8,2.4,0.1,2.6,2L451.5,70.9z"/>
			</g>
		</g>
		<g id="Magnifying_glass">
			<g id="XMLID_241_">
				<path id="XMLID_296_" fill="#27DEBF" d="M330.2,239.4c0-5.6-3.7-11.2-11.1-15.5c-14.8-8.6-38.8-8.6-53.7,0
					c-7.4,4.3-11.1,9.9-11.1,15.5l0,0v10.3c0,5.6,3.7,11.2,11.1,15.5c14.8,8.6,38.8,8.6,53.7,0c7.4-4.3,11.1-9.9,11.1-15.5V239.4
					L330.2,239.4z M267.3,227.1c6.6-3.8,15.5-5.9,25-5.9c9.5,0,18.4,2.1,25,5.9c6,3.5,9.3,7.8,9.3,12.3c0,4.5-3.3,8.9-9.3,12.3
					c-6.6,3.8-15.5,5.9-25,5.9c-9.5,0-18.4-2.1-25-5.9c-6-3.5-9.3-7.8-9.3-12.3C258,234.9,261.3,230.5,267.3,227.1z"/>
				<path id="XMLID_293_" opacity="0.3" fill="#FFFFFF" d="M265.5,254.9c14.8,8.6,38.8,8.6,53.7,0c14.8-8.6,14.8-22.4,0-31
					c-14.8-8.6-38.8-8.6-53.7,0C250.6,232.5,250.6,246.3,265.5,254.9z M258,239.4c0-4.5,3.3-8.9,9.3-12.3c6.6-3.8,15.5-5.9,25-5.9
					c9.5,0,18.4,2.1,25,5.9c6,3.5,9.3,7.8,9.3,12.3c0,4.5-3.3,8.9-9.3,12.3c-6.6,3.8-15.5,5.9-25,5.9c-9.5,0-18.4-2.1-25-5.9
					C261.3,248.3,258,243.9,258,239.4z"/>
				<g id="XMLID_290_">
					<path id="XMLID_292_" fill="#27DEBF" d="M258,239.4c0,1.8,0.5,3.5,1.5,5.2c1.5-2.6,4.2-5,7.8-7.1c6.6-3.8,15.5-5.9,25-5.9
						c9.5,0,18.4,2.1,25,5.9c3.6,2.1,6.3,4.5,7.8,7.1c1-1.7,1.5-3.4,1.5-5.2c0-4.5-3.3-8.9-9.3-12.3c-6.6-3.8-15.5-5.9-25-5.9
						c-9.5,0-18.4,2.1-25,5.9C261.3,230.5,258,234.9,258,239.4z"/>
					<path id="XMLID_291_" opacity="0.1" d="M258,239.4c0,1.8,0.5,3.5,1.5,5.2c1.5-2.6,4.2-5,7.8-7.1c6.6-3.8,15.5-5.9,25-5.9
						c9.5,0,18.4,2.1,25,5.9c3.6,2.1,6.3,4.5,7.8,7.1c1-1.7,1.5-3.4,1.5-5.2c0-4.5-3.3-8.9-9.3-12.3c-6.6-3.8-15.5-5.9-25-5.9
						c-9.5,0-18.4,2.1-25,5.9C261.3,230.5,258,234.9,258,239.4z"/>
				</g>
				<path id="XMLID_268_" opacity="0.19" fill="#27DEBF" d="M267.3,231.8c6.6-3.8,15.5-5.9,25-5.9c9.5,0,18.4,2.1,25,5.9
					c4.9,2.9,8,6.3,9,10c-0.9,3.6-4,7.1-9,10c-6.6,3.8-15.5,5.9-25,5.9c-9.5,0-18.4-2.1-25-5.9c-4.9-2.9-8-6.3-9-10
					C259.3,238.1,262.4,234.6,267.3,231.8z"/>
				<path id="XMLID_267_" opacity="0.1" d="M283.3,260.7V271c-6.6-0.9-12.8-2.8-17.9-5.8c-7.4-4.3-11.1-9.9-11.1-15.5v-10.3
					c0-1.1,0.2-2.3,0.5-3.4h0c-1.8,6.7,1.8,13.7,10.7,18.9C270.6,257.8,276.8,259.8,283.3,260.7z"/>
			</g>
			<g id="XMLID_404_">
				<g id="XMLID_384_">
					<path id="XMLID_386_" fill="#37474F" d="M266.6,261.5c0-1.7-1.2-3.8-2.6-4.6c-0.7-0.4-1.4-0.5-1.9-0.2l0,0l0,0l0,0l-12.8,7.3
						c0,0,0,0,0,0l0,0l0,0c-0.5,0.3-0.8,0.9-0.8,1.7c0,1.7,1.2,3.8,2.6,4.6c0.7,0.4,1.4,0.5,1.9,0.2l0,0l12.8-7.3l0,0
						C266.3,262.9,266.6,262.3,266.6,261.5z"/>
					<path id="XMLID_385_" fill="#263238" d="M265.8,263.2c0.5-0.3,0.8-0.9,0.8-1.7c0-0.6-0.2-1.3-0.5-2l-16.5,9.4
						c0.4,0.6,0.9,1.1,1.5,1.4c0.7,0.4,1.4,0.5,1.9,0.2L265.8,263.2L265.8,263.2z"/>
				</g>
				<path id="XMLID_403_" fill="#27DEBF" d="M253.3,270.2c0-2.2-1.5-4.9-3.4-6c-0.9-0.5-1.8-0.6-2.4-0.3l0,0l0,0c0,0,0,0,0,0
					l-42.4,22.6l6.3,11.2l40.9-25.3C252.9,272.1,253.3,271.3,253.3,270.2z"/>
				<path id="XMLID_405_" opacity="0.1" d="M211.4,297.8l40.9-25.3c0.6-0.4,1-1.1,1-2.2c0-1.2-0.4-2.5-1.1-3.6l-44,25.4L211.4,297.8
					z"/>
				<g id="XMLID_407_">
					<path id="XMLID_408_" fill="#27DEBF" d="M208.2,297.4c-2.5-1.5-4.5-5-4.5-7.9c0-2.9,2-4.1,4.5-2.6c2.5,1.5,4.5,5,4.5,7.9
						S210.7,298.9,208.2,297.4z"/>
				</g>
				<g id="XMLID_387_" opacity="0.2">
					<path id="XMLID_388_" d="M208.2,297.4c-2.5-1.5-4.5-5-4.5-7.9c0-2.9,2-4.1,4.5-2.6c2.5,1.5,4.5,5,4.5,7.9
						S210.7,298.9,208.2,297.4z"/>
				</g>
			</g>
		</g>
		<g id="Character">
			<g id="XMLID_2444_">
				<path id="XMLID_2445_" fill="#FFA8A7" d="M457.9,197.6c0.5-17.2-0.9-21.3-5.5-24.5l-1.8,10c0,0,2.1,11.7,1.9,15.6
					c-0.2,3.4-0.5,7.7-1.3,10.5c-0.1,0.5-0.5,0.9-0.9,1.2c-1.2,0.7-1.6,1.5-2.5,2.4c-0.7,0.7-1.3,0.9-1.2,1.1
					c0.1,0.3,0.6,0.8,1.4,0.5c0.4-0.1,1-0.5,1.7-0.9c0,0-0.5,1.4-1.7,2.9c-1.6,2-1.7,3.2,1.6,3.3c2.1,0,3.7-1.3,5.3-5.8
					c0.4-1.3,1.2-3.4,1.5-5.1C457.1,204.3,457.8,200.4,457.9,197.6z"/>
			</g>
			<path id="XMLID_2545_" fill="#27DEBF" d="M448.6,171.8c2.2-0.3,5.2,0.1,7.1,3.6s2.4,9.3,2.6,15.2c0,0-3.8,3.2-8.4,1.6
				L448.6,171.8z"/>
			<g id="XMLID_2569_">
				<g id="XMLID_2623_">
					<g id="XMLID_2641_">
						<path id="XMLID_2701_" fill="#263238" d="M455,266.4c0.3,0.1,0.4,0.8,0.5,2.1c0,1,0.3,2.7-0.9,3.1c-1.2,0.3-2.9,0.2-3.6-0.8
							c-0.9-1.2-1.6-2.2-2.9-3.6c-1.2-1.2-2.4-2.4-2.9-4.1c-0.4-1.6-0.1-2.2,1-2.7c1.5-0.6,3.8,1.4,4.9,1.7
							C452.1,262.3,454.6,266.2,455,266.4z"/>
					</g>
					<g id="XMLID_2640_">
						<path id="XMLID_2699_" fill="#FFA8A7" d="M455,265.2v1.6c0,0-1.7,1.3-4.1,0.1c-0.1-0.2-0.4-2.3-0.4-2.3L455,265.2z"/>
					</g>
					<g id="XMLID_2627_">
						<path id="XMLID_2697_" fill="#263238" d="M441.9,275.7c0,0,0.5,1.4,0.7,2.6c0.2,1,0.5,2.6,0.1,3.3c-0.3,0.7-1.7,1.2-3.7,1.2
							c-1.3,0-3.4,0.9-4.8,1.7c-1.5,0.8-4.5,1.2-6.1,1c-1.8-0.2-3.7-1.3-4-2c-0.3-0.8,0.1-1.6,4.4-3.4c0,0,6-2,8.1-4.3L441.9,275.7z
							"/>
					</g>
					<g id="XMLID_2626_">
						<path id="XMLID_2681_" fill="#FFA8A7" d="M441.9,273.9c0,0,0,1.2,0,1.9c0,0.7-0.8,1.7-2.9,1.6c-1.5-0.1-2.5-0.4-2.4-1.7V274
							L441.9,273.9z"/>
					</g>
					<g id="XMLID_2625_">
						<path id="XMLID_2679_" fill="#37474F" d="M456,243.7c-0.7-5.3-1.9-8.4-1.9-8.4s0.6-7.2,0.9-14.1c0.3-7.4,0-16.8,0.1-18.6
							c0,0-24-4.8-24.4,3.7c-0.4,8.6,0.9,30.4,1.2,34.2c0.3,3.8,0.9,7.1,1.7,13.2c0.8,6,2.9,20.3,2.9,20.3c2.7,1.5,5.3-0.1,5.3-0.1
							s1.7-17.2,1.5-21.5c-0.2-5.3-1.6-9.5-1.6-9.5s0.5-7.1,0.9-13.2c0.4-6.2,0.8-9.1,0.9-11.8l0.5-0.3c0,0,0.5,10.6,0.8,14.4
							c0.3,3.8,0.9,7.4,2,14.4c0.9,6.1,3.8,18.9,3.8,18.9c2.7,1.5,4.4-0.2,4.4-0.2S456.8,249,456,243.7z"/>
					</g>
					<g id="XMLID_2624_">
						<path id="XMLID_2677_" fill="#263238" d="M443.5,217.9c0,0,5.8-2.9,8.7-5.4c0,0-2.7,3.8-6.2,5.5c0,0-1.3,13.2-1.3,12.9
							l-0.7-13L443.5,217.9z"/>
					</g>
				</g>
				<g id="XMLID_2620_">
					<g id="XMLID_2621_">
						<polygon id="XMLID_2674_" fill="#FFA8A7" points="438.4,169.1 439.8,176.9 446.8,176.4 445.4,167.5 						"/>
					</g>
				</g>
				<g id="XMLID_2618_">
					<g id="XMLID_2619_">
						<path id="XMLID_2671_" fill="#F5F5F5" d="M454.3,175.8c-0.7-2.1-3.4-4.4-6.1-3.9c-4.9,0.9-8.9,1.9-11.8,2.9
							c-2.5,0.9-4.7,3-4.9,11.1c0,0-0.8,18.9-0.8,22.6c6.2,2.4,12.6,2.4,16.2,1.6c7.4-1.6,8.3-4.7,8.3-4.7s0.1-13.6-0.1-19.5
							C454.8,181,454.8,177.3,454.3,175.8z"/>
					</g>
				</g>
				<g id="XMLID_2615_">
					<g id="XMLID_2617_">
						<path id="XMLID_2667_" fill="#FFA8A7" d="M432.9,159.6c0,0-1.8,2.8-1.6,3.1c0.2,0.3,1.6,0.5,1.6,0.5L432.9,159.6z"/>
					</g>
					<g id="XMLID_2616_">
						<path id="XMLID_2665_" fill="#FFA8A7" d="M437.9,151.7c-3.7,0.9-4.8,2.5-5,8.5c-0.2,6.2,0.4,8.2,1.3,9
							c0.6,0.6,3.6,0.6,5.2,0.1c1.9-0.6,6.3-2.2,8.2-5.4c2.3-3.7,2.8-8.7,0.2-10.7C444.1,150.4,439.4,151.4,437.9,151.7z"/>
					</g>
				</g>
				<g id="XMLID_2588_">
					<g id="XMLID_2613_">
						<g id="XMLID_2614_">
							<path id="XMLID_2662_" fill="#263238" d="M433,153.3c1.1,1.9,3.5,2.8,3.5,2.8c0.7,0.8,0.3,4,1.6,4.5c0,0,0.5-2.3,2.5-2.1
								c2,0.2,2.3,2.7,1.1,4.3c-1.2,1.5-2.4,1-2.4,1s0.1,3.3,1.6,5.1c0,0,1.7,0.5,4.7-0.2c1.9-0.4,4.5-2.8,5.5-5.3
								c2.2-5.3,2.3-10-1.1-11.4c-0.4-2.4-2.3-3.4-4.5-3.9c-4.7-1-7.7,2-11.3,1.7C432.1,149.6,431.7,151.1,433,153.3z"/>
						</g>
					</g>
					<g id="XMLID_2591_">
						<g id="XMLID_2612_">
							<path id="XMLID_2659_" fill="#263238" d="M450,152.7l2.2-1.4c-0.4-0.6-1.2-0.8-1.8-0.4C449.9,151.3,449.7,152.1,450,152.7z"
								/>
						</g>
					</g>
				</g>
			</g>
			<path id="XMLID_1769_" fill="#FFA8A7" d="M406.6,188.9c1.2,0.5,14.8,10.6,16.9,9.4c2.1-1.2,13-13.9,13-13.9c3.2-5.3,0-9.6,0-9.6
				s-3.5,0.6-5.3,3.4c-1.8,2.8-9.7,12.7-9.7,12.7c-2-1-3.9-2-5.8-3c-1.6-0.8-3.2-1.7-4.8-2.5c-0.4-0.2-0.9-0.4-1.2-0.8
				c-0.8-0.8-0.6-2.6-0.6-3.6c0-0.5,0-0.9,0.1-1.4c0.1-0.6,0.2-2-0.9-1.5c-0.2,0.1-0.4,0.2-0.5,0.4c-0.2,0.2-0.3,0.5-0.4,0.7
				c-0.2,0.6-0.1,1.3-0.3,1.9c0,0.1-0.1,0.2-0.1,0.2c-0.1,0.1-0.2,0.1-0.3,0.1c-1.5,0-2.9-2.2-3.6-3.3c-0.3-0.5-0.6-1.1-1.1-1.3
				c-0.8-0.4-1.8,0.2-2.3,0.9c-0.7,0.9-0.9,2.2-0.7,3.3c0.2,1.6,0.8,3.1,2,4.2C402.5,186.9,404.4,187.9,406.6,188.9z"/>
			<path id="XMLID_1766_" fill="#27DEBF" d="M437.8,174.4c-1.5,0.2-3.6-0.1-6.6,3.1c-3,3.2-6.6,8.5-6.6,8.5s1,5.1,6.6,6.2
				c0,0,5.2-5.3,6.6-8.2C439.3,181.1,439.6,176.4,437.8,174.4z"/>
		</g>
	</g>
</g>
</svg>
