<?xml version="1.0" encoding="utf-8"?>
<!-- Generator: Adobe Illustrator 19.0.0, SVG Export Plug-In . SVG Version: 6.00 Build 0)  -->
<svg version="1.1" id="Layer_1" xmlns="http://www.w3.org/2000/svg" xmlns:xlink="http://www.w3.org/1999/xlink" x="0px" y="0px"
	 viewBox="271 18.9 1137 804" style="enable-background:new 271 18.9 1137 804;" xml:space="preserve">
<style type="text/css">
	.st0{fill:url(#XMLID_24_);}
	.st1{fill:#E3892B;}
	.st2{fill:url(#XMLID_28_);}
	.st3{fill:#FFFFFF;}
	.st4{fill:#5D96FF;}
	.st5{fill:#F5F7FF;}
	.st6{fill:#323657;}
	.st7{fill:#D6D6D6;}
	.st8{fill:#E8E8E8;}
	.st9{fill:#C2C2C2;}
	.st10{opacity:0.69;}
	.st11{fill:#160804;}
	.st12{fill:#EFD6CE;}
	.st13{fill:#2273B5;}
	.st14{fill:#4DAFFF;}
	.st15{fill:#E0E0E0;}
	.st16{fill:#D9D9D9;}
	.st17{fill:#1A598C;}
	.st18{fill:#4CA1F4;}
	.st19{fill:#252840;}
	.st20{fill:#875F2A;}
	.st21{fill:#EEA886;}
	.st22{fill:#5F8CC9;}
	.st23{fill:#4C3719;}
	.st24{fill:#3A3F47;}
	.st25{fill:#A77860;}
	.st26{fill:#704C21;}
	.st27{fill:#5E5853;}
	.st28{fill:#91887F;}
	.st29{fill:#6E6760;}
	.st30{fill:#807066;}
	.st31{fill:#6F5BE0;}
	.st32{fill:url(#XMLID_29_);}
	.st33{fill:#2D3038;}
	.st34{fill:#292C47;}
	.st35{fill:#191B2B;}
	.st36{fill:#C6C9CC;}
	.st37{fill:#0F324F;}
	.st38{fill:#E54242;}
	.st39{fill:#1D3B54;}
	.st40{fill:#3F444F;}
	.st41{opacity:0.1;fill:#B8B8B8;enable-background:new    ;}
	.st42{opacity:0.3;fill:#869AC2;enable-background:new    ;}
	.st43{fill:#E2D2CA;}
	.st44{fill:#424773;}
	.st45{fill:#EEA987;}
	.st46{fill:#363A5E;}
	.st47{fill:#313657;}
	.st48{fill:#EDDAD3;}
	.st49{fill:#CFBEB8;}
	.st50{fill:#494F80;}
	.st51{fill:#707070;}
	.st52{fill:#A1A1A1;}
	.st53{fill:#FAE6DE;}
	.st54{fill:#D6C5BE;}
	.st55{fill:#828282;}
	.st56{fill:#F5F5F5;}
	.st57{fill:#4AAFFF;}
	.st58{fill:#3788CC;}
	.st59{fill:#E2F3FE;}
	.st60{fill:#C5CCD1;}
	.st61{fill:url(#XMLID_51_);}
	.st62{fill-rule:evenodd;clip-rule:evenodd;fill:#FFFFFF;}
</style>
<g>
	
		<linearGradient id="XMLID_24_" gradientUnits="userSpaceOnUse" x1="967.9578" y1="757.9603" x2="676.6931" y2="391.1823" gradientTransform="matrix(1 0 0 -1 0 841.67)">
		<stop  offset="0" style="stop-color:#FF9F55"/>
		<stop  offset="1" style="stop-color:#FFD255"/>
	</linearGradient>
	<polygon id="XMLID_276_" class="st0" points="1239.8,171.2 822.9,588.1 802.4,608.6 758.6,652.4 657,754 343.4,440.4 419.7,364.1 
		513.1,457.5 602.8,547.2 657,601.5 711.2,547.2 1041.6,216.9 1163.5,94.9 	"/>
</g>
<g>
	<polygon id="XMLID_275_" class="st1" points="822.9,514.5 822.9,588.1 802.4,608.6 758.6,652.4 758.6,514.5 	"/>
</g>
<g>
	
		<linearGradient id="XMLID_28_" gradientUnits="userSpaceOnUse" x1="790.75" y1="157.6606" x2="790.75" y2="607.1814" gradientTransform="matrix(1 0 0 -1 0 841.67)">
		<stop  offset="0" style="stop-color:#FF9F55"/>
		<stop  offset="1" style="stop-color:#FFD255"/>
	</linearGradient>
	<path id="XMLID_274_" class="st2" d="M1068.4,245.1v97.5l-266,266H541.3c-15.6,0-28.2-12.7-28.2-28.2V245.1
		c0-15.6,12.6-28.2,28.2-28.2h498.8c0.5,0,0.9,0,1.4,0C1056.5,217.6,1068.4,230,1068.4,245.1z"/>
</g>
<g>
	<polygon id="XMLID_273_" class="st3" points="1046.7,175.2 1046.7,364.4 863.8,547.2 534.8,547.2 534.8,175.2 	"/>
</g>
<g>
	<rect id="XMLID_272_" x="534.8" y="175.2" class="st4" width="511.8" height="44.9"/>
</g>
<path id="XMLID_4_" class="st5" d="M623.1,206.1h-60.8c-3.4,0-6.1-2.7-6.1-6.1v-4.8c0-3.4,2.7-6.1,6.1-6.1h60.8
	c3.4,0,6.1,2.7,6.1,6.1v4.8C629.2,203.4,626.5,206.1,623.1,206.1z"/>
<g>
	<g>
		<g>
			<path id="XMLID_271_" class="st6" d="M1068.8,573.4L1068.8,573.4C1068.7,573.4,1068.7,573.4,1068.8,573.4z"/>
		</g>
	</g>
</g>
<g>
	<g>
		<g>
			<g>
				<polygon id="XMLID_270_" class="st7" points="1121.3,457 1172.4,428.4 1154.8,427.3 				"/>
			</g>
		</g>
	</g>
	<g>
		<g>
			<g>
				<polygon id="XMLID_269_" class="st8" points="1121.3,457 1137,431.7 1150.2,431.4 				"/>
			</g>
		</g>
	</g>
	<g>
		<g>
			<g>
				<polygon id="XMLID_268_" class="st9" points="1160.6,435 1161.7,441.5 1121.3,457 				"/>
			</g>
		</g>
	</g>
</g>
<g class="st10">
	<path class="st11" d="M451.3,416.5c-0.2-2-0.3-4-0.5-6l1.4-0.1c0.1,2,0.3,4,0.5,6L451.3,416.5z M1174.8,410.1l-0.8-1.2
		c0,0,2.5-1.7,5.8-4.8l1,1C1177.3,408.4,1174.9,410.1,1174.8,410.1z M450.4,402.9c-0.1-2.5-0.3-5.1-0.4-7.6l1.4-0.1
		c0.1,2.5,0.2,5,0.4,7.5L450.4,402.9z M1186,399.8l-1.1-0.9c1.7-1.9,3.2-3.9,4.6-5.9l1.2,0.8C1189.3,395.8,1187.7,397.8,1186,399.8z
		 M449.8,387.8c-0.1-2.5-0.1-5.1-0.1-7.6h1.4c0,2.5,0.1,5,0.1,7.5L449.8,387.8z M1194.6,387.2l-1.3-0.6c1.1-2.3,2.1-4.6,2.8-6.9
		l1.3,0.4C1196.7,382.4,1195.7,384.8,1194.6,387.2z M451.1,372.7h-1.4c0-2.5,0.1-5.1,0.1-7.6h1.4
		C451.1,367.7,451.1,370.2,451.1,372.7z M1199.1,372.6l-1.4-0.2c0.2-1.4,0.2-2.9,0.2-4.3c0-1,0-2.1-0.1-3.1l1.4-0.1
		c0.1,1.1,0.1,2.1,0.1,3.2C1199.3,369.6,1199.2,371.1,1199.1,372.6z M1196.5,357.7c-0.7-2.3-1.5-4.6-2.6-6.9l1.3-0.6
		c1.1,2.4,2,4.8,2.7,7.2L1196.5,357.7z M451.5,357.6l-1.4-0.1c0.1-2.5,0.3-5.1,0.4-7.6l1.4,0.1C451.7,352.6,451.6,355.1,451.5,357.6
		z M1190.1,344.3c-1.3-2-2.8-4-4.5-6l1.1-0.9c1.7,2,3.2,4.1,4.6,6.1L1190.1,344.3z M452.5,342.6l-1.4-0.1c0.2-2.5,0.5-5,0.7-7.5
		l1.4,0.1C452.9,337.6,452.7,340.1,452.5,342.6z M1180.6,332.8c-0.2-0.2-0.4-0.4-0.6-0.6c-1.6-1.5-3.2-3-5-4.3l0.9-1.1
		c1.8,1.4,3.5,2.9,5.1,4.4c0.2,0.2,0.4,0.4,0.6,0.6L1180.6,332.8z M454,327.6l-1.4-0.2c0.3-2.5,0.7-5,1-7.5l1.4,0.2
		C454.7,322.6,454.3,325.1,454,327.6z M1168.8,323.8c-2.1-1.2-4.3-2.3-6.6-3.4l0.6-1.3c2.4,1.1,4.7,2.2,6.8,3.4L1168.8,323.8z
		 M1155.2,317.8c-2.3-0.8-4.6-1.5-7.2-2.2l0.4-1.4c2.6,0.7,5,1.4,7.3,2.2L1155.2,317.8z M1140.7,313.8c-2.2-0.5-4.6-1-7.4-1.5
		l0.3-1.4c2.8,0.5,5.2,1,7.4,1.5L1140.7,313.8z M456.2,312.7l-1.4-0.2c0.4-2.5,0.9-5,1.3-7.4l1.4,0.3
		C457.1,307.7,456.6,310.2,456.2,312.7z M1125.9,310.9l-2.3-0.4c-1.7-0.3-3.4-0.6-5.2-0.9l0.3-1.4c1.7,0.3,3.5,0.6,5.2,0.9l2.3,0.4
		L1125.9,310.9z M1111,308.2c-2.7-0.5-5.1-1-7.4-1.6l0.3-1.4c2.3,0.5,4.7,1,7.4,1.6L1111,308.2z M1096.3,304.8
		c-2.5-0.7-5-1.4-7.3-2.2l0.4-1.3c2.3,0.7,4.7,1.5,7.2,2.1L1096.3,304.8z M1081.9,300.1c-2.4-0.9-4.7-2-7-3l0.6-1.3
		c2.2,1,4.5,2,6.9,3L1081.9,300.1z M459,297.9l-1.4-0.3c0.5-2.5,1.1-4.9,1.7-7.4l1.4,0.3C460.1,293,459.6,295.5,459,297.9z
		 M1068.2,293.6c-2.2-1.3-4.4-2.6-6.4-4l0.8-1.2c2,1.4,4.2,2.7,6.3,4L1068.2,293.6z M1055.6,285c-1.9-1.6-3.9-3.2-5.7-5l1-1
		c1.8,1.7,3.7,3.4,5.6,4.9L1055.6,285z M462.6,283.3l-1.4-0.4c0.6-2.4,1.3-4.9,2-7.3l1.3,0.4C463.9,278.4,463.2,280.8,462.6,283.3z
		 M1044.6,274.6c-1.7-1.8-3.3-3.8-4.9-5.8l1.1-0.9c1.6,2,3.2,3.9,4.8,5.7L1044.6,274.6z M466.8,268.8l-1.3-0.4
		c0.8-2.4,1.6-4.8,2.4-7.2l1.3,0.5C468.4,264,467.6,266.4,466.8,268.8z M1035.2,262.7c-1.4-2-2.8-4.2-4.1-6.4l1.2-0.7
		c1.3,2.2,2.7,4.3,4.1,6.3L1035.2,262.7z M471.7,254.6l-1.3-0.5c0.9-2.4,1.8-4.7,2.8-7l1.3,0.5C473.6,249.9,472.6,252.3,471.7,254.6
		z M1027.4,249.8c-1.2-2.2-2.3-4.5-3.4-6.8l1.3-0.6c1.1,2.3,2.2,4.5,3.4,6.7L1027.4,249.8z M477.4,240.7l-1.3-0.6
		c1-2.3,2.1-4.6,3.1-6.9l1.3,0.6C479.5,236.1,478.5,238.4,477.4,240.7z M1020.9,236.1c-1-2.3-1.9-4.6-2.8-7l1.3-0.5
		c0.9,2.4,1.8,4.7,2.8,7L1020.9,236.1z M483.9,227.1l-1.2-0.6c1.1-2.2,2.3-4.5,3.5-6.7l1.2,0.7C486.2,222.6,485,224.8,483.9,227.1z
		 M1015.6,222c-0.8-2.3-1.6-4.8-2.3-7.2l1.3-0.4c0.7,2.4,1.5,4.8,2.3,7.2L1015.6,222z M491.1,213.8l-1.2-0.7
		c1.3-2.2,2.6-4.4,3.9-6.5l1.2,0.7C493.7,209.5,492.4,211.7,491.1,213.8z M1011.1,207.5c-0.7-2.4-1.3-4.8-1.9-7.3l1.4-0.3
		c0.6,2.5,1.3,4.9,1.9,7.3L1011.1,207.5z M499.1,201.1l-1.2-0.8c1.4-2.1,2.8-4.2,4.3-6.2l1.1,0.8C501.9,196.9,500.5,199,499.1,201.1
		z M1007.4,192.9c-0.7-2.4-1.4-4.8-2.3-7.1l1.3-0.5c0.9,2.4,1.6,4.8,2.3,7.2L1007.4,192.9z M507.8,188.8l-1.1-0.8c1.5-2,3.1-4,4.6-6
		l1.1,0.9C510.8,184.8,509.3,186.8,507.8,188.8z M1002.3,178.9c-1-2.2-2.1-4.5-3.3-6.7l1.2-0.7c1.2,2.2,2.3,4.5,3.4,6.8
		L1002.3,178.9z M517.2,177l-1.1-0.9c1.6-1.9,3.3-3.8,5-5.7l1,0.9C520.5,173.2,518.8,175.1,517.2,177z M527.2,165.8l-1-1
		c1.7-1.8,3.5-3.6,5.3-5.4l1,1C530.7,162.2,529,164,527.2,165.8z M995.1,165.7c-1.3-2.1-2.7-4.2-4.2-6.2l1.1-0.8
		c1.5,2.1,2.9,4.2,4.3,6.3L995.1,165.7z M538,155.3l-1-1c1.8-1.7,3.7-3.4,5.6-5.1l0.9,1C541.7,151.9,539.8,153.6,538,155.3z
		 M986.3,153.5c-1.6-1.9-3.2-3.8-4.9-5.7l1-0.9c1.7,1.9,3.4,3.8,5,5.7L986.3,153.5z M549.3,145.3l-0.9-1.1c1.9-1.6,3.9-3.2,5.9-4.8
		l0.9,1.1C553.1,142.1,551.2,143.7,549.3,145.3z M976.2,142.5c-1.8-1.7-3.6-3.5-5.5-5.1l0.9-1c1.9,1.7,3.8,3.4,5.5,5.2L976.2,142.5z
		 M561.1,136l-0.8-1.1c2-1.5,4.1-3,6.1-4.4l0.8,1.1C565.1,133.1,563.1,134.5,561.1,136z M965,132.4c-1.9-1.6-3.9-3.1-5.9-4.6
		l0.8-1.1c2,1.5,4,3.1,6,4.7L965,132.4z M573.4,127.4l-0.8-1.2c2.1-1.4,4.2-2.8,6.4-4.1l0.7,1.2C577.6,124.7,575.5,126,573.4,127.4z
		 M952.9,123.4c-2-1.4-4.1-2.8-6.3-4.2l0.8-1.2c2.1,1.4,4.3,2.8,6.3,4.2L952.9,123.4z M586.1,119.4l-0.7-1.2
		c2.2-1.3,4.4-2.5,6.6-3.8l0.7,1.2C590.5,116.9,588.3,118.2,586.1,119.4z M940.3,115.3c-2.1-1.3-4.3-2.5-6.5-3.7l0.7-1.2
		c2.2,1.2,4.4,2.5,6.6,3.7L940.3,115.3z M599.3,112.1l-0.6-1.2c2.2-1.2,4.5-2.3,6.7-3.4l0.6,1.3C603.8,109.8,601.5,111,599.3,112.1z
		 M927,108.1c-2.2-1.1-4.5-2.2-6.8-3.3l0.6-1.3c2.3,1.1,4.6,2.2,6.8,3.3L927,108.1z M612.8,105.5l-0.6-1.3c2.3-1,4.6-2.1,6.9-3.1
		l0.6,1.3C617.4,103.4,615.1,104.5,612.8,105.5z M913.4,101.7c-2.3-1-4.6-2-6.9-2.9l0.5-1.3c2.3,1,4.7,1.9,7,2.9L913.4,101.7z
		 M626.7,99.5l-0.5-1.3c2.3-0.9,4.7-1.9,7-2.8l0.5,1.3C631.3,97.6,629,98.6,626.7,99.5z M899.5,96c-2.3-0.9-4.7-1.7-7.1-2.6l0.5-1.3
		c2.4,0.8,4.8,1.7,7.1,2.6L899.5,96z M640.8,94.2l-0.5-1.3c2.4-0.8,4.8-1.7,7.2-2.4l0.4,1.3C645.5,92.5,643.1,93.3,640.8,94.2z
		 M885.2,91c-2.4-0.8-4.8-1.5-7.2-2.2l0.4-1.3c2.4,0.7,4.8,1.5,7.2,2.3L885.2,91z M655.1,89.5l-0.4-1.3c2.4-0.7,4.8-1.4,7.3-2.1
		l0.4,1.3C659.9,88,657.5,88.7,655.1,89.5z M870.8,86.7c-2.4-0.7-4.9-1.3-7.3-1.9l0.3-1.4c2.4,0.6,4.9,1.3,7.3,1.9L870.8,86.7z
		 M669.6,85.4l-0.4-1.4c2.4-0.6,4.9-1.2,7.3-1.8l0.3,1.4C674.5,84.1,672,84.7,669.6,85.4z M856.2,83c-2.4-0.6-4.9-1.1-7.4-1.6
		l0.3-1.4c2.5,0.5,5,1.1,7.4,1.6L856.2,83z M684.3,81.9l-0.3-1.4c2.5-0.5,4.9-1,7.4-1.5l0.3,1.4C689.2,80.9,686.7,81.4,684.3,81.9z
		 M841.4,79.9c-2.5-0.5-5-0.9-7.4-1.3l0.2-1.4c2.5,0.4,5,0.9,7.5,1.3L841.4,79.9z M699.1,79l-0.2-1.4c2.5-0.4,5-0.8,7.5-1.2l0.2,1.4
		C704,78.2,701.5,78.6,699.1,79z M826.5,77.4c-2.5-0.4-5-0.7-7.5-1l0.2-1.4c2.5,0.3,5,0.7,7.5,1L826.5,77.4z M713.9,76.7l-0.2-1.4
		c2.5-0.3,5-0.6,7.5-0.9l0.2,1.4C718.9,76.1,716.4,76.4,713.9,76.7z M811.6,75.5c-2.5-0.3-5-0.5-7.5-0.7l0.1-1.4
		c2.5,0.2,5,0.5,7.5,0.7L811.6,75.5z M728.9,75l-0.1-1.4c2.5-0.2,5-0.5,7.5-0.7l0.1,1.4C733.9,74.5,731.4,74.7,728.9,75z
		 M796.6,74.1c-2.5-0.2-5-0.3-7.5-0.5l0.1-1.4c2.5,0.1,5.1,0.3,7.6,0.5L796.6,74.1z M743.9,73.8l-0.1-1.4c2.5-0.1,5-0.3,7.5-0.4
		l0.1,1.4C748.9,73.6,746.4,73.7,743.9,73.8z M781.5,73.4c-2.5-0.1-5-0.1-7.5-0.2v-1.4c2.5,0,5,0.1,7.6,0.2L781.5,73.4z M758.9,73.2
		v-1.4c2.5-0.1,5-0.1,7.5-0.1v1.4C763.9,73.1,761.4,73.2,758.9,73.2z"/>
</g>
<g>
	<g>
		<g>
			<path class="st12" d="M1278.8,213.9c-17.5-8.3-37.7-3.9-50.3,9.5c-3,3.2-5.6,7-7.7,11.2c-6.1,12.8-5.3,27.1,0.8,38.8
				c4.2,8.1,11,14.9,19.9,19.1c0.9,0.4,1.8,0.8,2.7,1.2c4.1,1.6,8.3,2.6,12.4,2.9c17.5,1.4,34.9-7.9,42.9-24.8
				C1309.8,250.2,1300.6,224.2,1278.8,213.9z M1289.7,267.2c-6,12.6-19,19.6-32.1,18.6c-3.1-0.3-6.3-1-9.3-2.2
				c-0.7-0.3-1.3-0.6-2-0.9c-6.7-3.2-11.8-8.3-15-14.3c-4.6-8.8-5.1-19.5-0.6-29.1c1.5-3.2,3.5-6,5.7-8.4c9.4-10,24.6-13.3,37.7-7.1
				C1290.5,231.5,1297.4,250.9,1289.7,267.2z"/>
		</g>
	</g>
	<g>
		<g>
			<path id="XMLID_188_" class="st13" d="M1231.3,268.4l-9.7,5.1c-6.1-11.7-6.9-26-0.8-38.8c2-4.2,4.6-8,7.7-11.2l7.9,7.5
				c-2.3,2.4-4.2,5.2-5.7,8.4C1226.1,248.9,1226.7,259.7,1231.3,268.4z"/>
		</g>
	</g>
	<g>
		<g>
			<path id="XMLID_187_" class="st14" d="M1248.2,283.6l-4,10.1c-0.9-0.4-1.8-0.7-2.7-1.2c-8.9-4.2-15.7-11-19.9-19.1l9.7-5.1
				c3.2,6.1,8.3,11.2,15,14.3C1246.9,283.1,1247.6,283.4,1248.2,283.6z"/>
		</g>
	</g>
	<g>
		<g>
			<path id="XMLID_186_" class="st14" d="M1256.7,296.7c-4.2-0.3-8.4-1.3-12.4-2.9l4-10.1c3.1,1.2,6.2,1.9,9.3,2.2L1256.7,296.7z"/>
		</g>
	</g>
</g>
<g>
	<polygon id="XMLID_185_" class="st14" points="1246.8,325.4 1165.5,325.4 1165.5,323.7 1245.2,323.7 1245.2,289.3 1246.8,289.3 	
		"/>
</g>
<g>
	<rect id="XMLID_184_" x="1165.5" y="306.9" class="st12" width="42.8" height="9.7"/>
</g>
<g>
	<g>
		<rect id="XMLID_183_" x="326.4" y="165.5" class="st15" width="8.5" height="56.3"/>
	</g>
	<g>
		<rect id="XMLID_182_" x="347.5" y="176.9" class="st15" width="8.5" height="44.9"/>
	</g>
	<g>
		<rect id="XMLID_181_" x="368.6" y="168.5" class="st15" width="8.5" height="53.3"/>
	</g>
	<g>
		<rect id="XMLID_180_" x="389.6" y="185.1" class="st15" width="8.5" height="36.7"/>
	</g>
	<g>
		<rect id="XMLID_179_" x="410.7" y="170.2" class="st15" width="8.5" height="51.6"/>
	</g>
	<g>
		<rect id="XMLID_178_" x="431.8" y="162.5" class="st15" width="8.5" height="59.3"/>
	</g>
	<g>
		<rect id="XMLID_177_" x="452.9" y="159.2" class="st15" width="8.5" height="62.6"/>
	</g>
	<g>
		<rect id="XMLID_176_" x="326.4" y="186.5" class="st4" width="8.5" height="35.3"/>
	</g>
	<g>
		<rect id="XMLID_175_" x="347.5" y="193.7" class="st4" width="8.5" height="28.2"/>
	</g>
	<g>
		<rect id="XMLID_174_" x="368.6" y="188.4" class="st4" width="8.5" height="33.4"/>
	</g>
	<g>
		<rect id="XMLID_173_" x="389.6" y="198.8" class="st4" width="8.5" height="23"/>
	</g>
	<g>
		<rect id="XMLID_172_" x="410.7" y="189.5" class="st4" width="8.5" height="32.4"/>
	</g>
	<g>
		<rect id="XMLID_171_" x="431.8" y="184.6" class="st4" width="8.5" height="37.2"/>
	</g>
	<g>
		<rect id="XMLID_170_" x="452.9" y="182.5" class="st4" width="8.5" height="39.3"/>
	</g>
</g>
<rect id="XMLID_169_" x="468.5" y="77.6" class="st16" width="49.1" height="7.1"/>
<rect id="XMLID_168_" x="468.5" y="90.7" class="st16" width="69.6" height="7.1"/>
<g>
	<g>
		<g>
			<path class="st12" d="M1350.7,170.4c-4.9-13.8-18.1-22.3-32.1-21.9c-3.4,0.1-6.8,0.7-10.1,1.9c-10.1,3.6-17.4,11.7-20.4,21.2
				c-2.1,6.6-2.1,13.9,0.4,20.9c0.2,0.7,0.5,1.4,0.8,2.1c1.3,3,3.1,5.8,5.1,8.2c8.6,10.2,23,14.4,36.3,9.7
				C1347.9,206.5,1356.8,187.6,1350.7,170.4z M1327.9,204.8c-10,3.6-20.7,0.3-27.2-7.3c-1.5-1.8-2.8-3.9-3.8-6.2
				c-0.2-0.5-0.4-1-0.6-1.5c-1.9-5.3-1.9-10.7-0.3-15.7c2.2-7.2,7.7-13.2,15.3-15.9c2.5-0.9,5.1-1.4,7.6-1.4
				c10.4-0.3,20.3,6,24,16.4C1347.5,186.1,1340.8,200.2,1327.9,204.8z"/>
		</g>
	</g>
	<g>
		<g>
			<path id="XMLID_165_" class="st17" d="M1296,174.1l-7.9-2.5c3-9.5,10.3-17.6,20.4-21.2c3.3-1.2,6.8-1.8,10.1-1.9l0.2,8.3
				c-2.5,0.1-5.1,0.5-7.6,1.4C1303.7,160.9,1298.2,167,1296,174.1z"/>
		</g>
	</g>
	<g>
		<g>
			<path id="XMLID_164_" class="st13" d="M1296.9,191.4l-7.6,3.3c-0.3-0.7-0.6-1.4-0.8-2.1c-2.5-7-2.5-14.3-0.4-20.9l7.9,2.5
				c-1.6,5-1.6,10.4,0.3,15.7C1296.5,190.4,1296.7,190.9,1296.9,191.4z"/>
		</g>
	</g>
	<g>
		<g>
			<path id="XMLID_163_" class="st14" d="M1294.5,202.9c-2.1-2.4-3.8-5.2-5.1-8.2l7.6-3.3c1,2.3,2.3,4.3,3.8,6.2L1294.5,202.9z"/>
		</g>
	</g>
</g>
<g id="XMLID_277_">
	<g id="XMLID_294_">
		<g id="XMLID_304_">
			<g id="XMLID_305_">
				<path id="XMLID_306_" class="st12" d="M1195.7,715.6c11.2,23.7,35.6,36.9,60.3,34.9c5.9-0.5,11.8-1.8,17.5-4.1
					c1.3-0.5,2.5-1,3.8-1.6c12.5-5.9,22.1-15.5,28.1-26.9c8.6-16.4,9.7-36.6,1.1-54.6c-2.8-6-6.5-11.3-10.8-15.8
					c-17.7-18.8-46.2-25-70.8-13.4C1194.3,648.6,1181.2,685.1,1195.7,715.6z M1231.4,647.9c18.5-8.7,39.8-4.1,53.1,10
					c3.2,3.4,6,7.4,8.1,11.9c6.4,13.5,5.6,28.6-0.8,41c-4.5,8.5-11.6,15.7-21,20.2c-0.9,0.4-1.9,0.8-2.8,1.2
					c-4.3,1.7-8.7,2.7-13.1,3.1c-18.5,1.5-36.8-8.4-45.2-26.1C1198.7,686.2,1208.5,658.8,1231.4,647.9z"/>
			</g>
		</g>
		<g id="XMLID_301_">
			<g id="XMLID_302_">
				<path id="XMLID_303_" class="st13" d="M1291.7,710.8l13.6,7.1c8.6-16.4,9.7-36.6,1.1-54.6c-2.8-6-6.5-11.3-10.8-15.8l-11.2,10.5
					c3.2,3.4,6,7.4,8.1,11.9C1298.9,683.4,1298.2,698.4,1291.7,710.8z"/>
			</g>
		</g>
		<g id="XMLID_298_">
			<g id="XMLID_299_">
				<path id="XMLID_300_" class="st14" d="M1267.8,732.2l5.6,14.3c1.3-0.5,2.5-1,3.8-1.6c12.5-5.9,22.1-15.5,28.1-26.9l-13.6-7.1
					c-4.5,8.5-11.6,15.7-21,20.2C1269.7,731.4,1268.8,731.8,1267.8,732.2z"/>
			</g>
		</g>
		<g id="XMLID_295_">
			<g id="XMLID_296_">
				<path id="XMLID_297_" class="st14" d="M1256,750.5c5.9-0.5,11.8-1.8,17.5-4.1l-5.6-14.3c-4.3,1.7-8.7,2.7-13.1,3.1L1256,750.5z"
					/>
			</g>
		</g>
	</g>
	<g id="XMLID_278_">
		<g id="XMLID_288_">
			<g id="XMLID_289_">
				<path id="XMLID_290_" class="st12" d="M1151.8,632.2c18.7,6.7,38.9,0.7,51-13.6c2.9-3.4,5.3-7.3,7.2-11.6
					c0.4-0.9,0.8-1.9,1.1-2.9c3.5-9.9,3.5-20.2,0.6-29.5c-4.2-13.4-14.4-24.8-28.7-29.9c-4.7-1.7-9.5-2.6-14.2-2.7
					c-19.6-0.6-38.1,11.3-45.1,30.8C1115.1,597,1127.7,623.6,1151.8,632.2z M1134.7,576.8c5.2-14.6,19.1-23.5,33.8-23.1
					c3.6,0.1,7.2,0.8,10.7,2c10.7,3.8,18.4,12.3,21.5,22.4c2.2,7,2.2,14.7-0.5,22.1c-0.3,0.7-0.6,1.5-0.9,2.2
					c-1.4,3.2-3.2,6.1-5.4,8.7c-9.1,10.7-24.2,15.2-38.2,10.2C1137.6,614.8,1128.2,594.9,1134.7,576.8z"/>
			</g>
		</g>
		<g id="XMLID_285_">
			<g id="XMLID_286_">
				<path id="XMLID_287_" class="st17" d="M1200.7,578.1l11.1-3.5c-4.2-13.4-14.4-24.8-28.7-29.9c-4.7-1.7-9.5-2.6-14.2-2.7
					l-0.3,11.6c3.6,0.1,7.2,0.8,10.7,2C1189.9,559.6,1197.5,568.1,1200.7,578.1z"/>
			</g>
		</g>
		<g id="XMLID_282_">
			<g id="XMLID_283_">
				<path id="XMLID_284_" class="st13" d="M1199.4,602.4l10.7,4.6c0.4-0.9,0.8-1.9,1.1-2.9c3.5-9.9,3.5-20.2,0.6-29.5l-11.1,3.5
					c2.2,7,2.2,14.7-0.5,22.1C1200,601,1199.7,601.7,1199.4,602.4z"/>
			</g>
		</g>
		<g id="XMLID_279_">
			<g id="XMLID_280_">
				<path id="XMLID_281_" class="st14" d="M1202.8,618.6c2.9-3.4,5.3-7.3,7.2-11.6l-10.7-4.6c-1.4,3.2-3.2,6.1-5.4,8.7L1202.8,618.6
					z"/>
			</g>
		</g>
	</g>
</g>
<g>
	<g>
		<rect id="XMLID_162_" x="629.9" y="280.8" class="st8" width="258" height="9"/>
		<rect id="XMLID_161_" x="629.9" y="310.1" class="st8" width="258" height="9"/>
		<rect id="XMLID_160_" x="629.9" y="338.3" class="st8" width="258" height="9"/>
		<rect id="XMLID_159_" x="629.9" y="367.6" class="st8" width="258" height="9"/>
		<rect id="XMLID_158_" x="629.9" y="400.5" class="st8" width="258" height="9"/>
		<rect id="XMLID_157_" x="629.9" y="429.8" class="st8" width="258" height="9"/>
		<rect id="XMLID_156_" x="629.9" y="458" class="st8" width="258" height="9"/>
		<rect id="XMLID_155_" x="629.9" y="487.3" class="st8" width="258" height="9"/>
	</g>
	<path id="XMLID_154_" class="st18" d="M578,309.7h22.1c4,0,7.3-3.3,7.3-7.3v-22.1c0-4-3.3-7.3-7.3-7.3H578c-4,0-7.3,3.3-7.3,7.3
		v22.1C570.8,306.5,574,309.7,578,309.7z"/>
	<g>
		<path id="XMLID_3_" class="st18" d="M578,424.5h22.1c4,0,7.3-3.3,7.3-7.3v-22.1c0-4-3.3-7.3-7.3-7.3H578c-4,0-7.3,3.3-7.3,7.3
			v22.1C570.8,421.2,574,424.5,578,424.5z"/>
		<g>
			<g>
				<g>
					<g>
						<g>
							<path id="XMLID_153_" class="st3" d="M587.8,415l-10.2-8.8c-0.8-0.7-0.9-2-0.2-2.8s2-0.9,2.8-0.2l7.2,6.2l10.2-11.4
								c0.7-0.8,2-0.9,2.8-0.2c0.8,0.7,0.9,2,0.2,2.8L587.8,415z"/>
						</g>
					</g>
				</g>
			</g>
		</g>
	</g>
	<g>
		<path id="XMLID_2_" class="st18" d="M578,366.9h22.1c4,0,7.3-3.3,7.3-7.3v-22.1c0-4-3.3-7.3-7.3-7.3H578c-4,0-7.3,3.3-7.3,7.3
			v22.1C570.8,363.6,574,366.9,578,366.9z"/>
		<g>
			<g>
				<g>
					<g>
						<g>
							<path id="XMLID_152_" class="st3" d="M587.8,357.4l-10.2-8.8c-0.8-0.7-0.9-2-0.2-2.8s2-0.9,2.8-0.2l7.2,6.2l10.2-11.4
								c0.7-0.8,2-0.9,2.8-0.2c0.8,0.7,0.9,2,0.2,2.8L587.8,357.4z"/>
						</g>
					</g>
				</g>
			</g>
		</g>
		<path id="XMLID_1_" class="st18" d="M578,482.1h22.1c4,0,7.3-3.3,7.3-7.3v-22.1c0-4-3.3-7.3-7.3-7.3H578c-4,0-7.3,3.3-7.3,7.3
			v22.1C570.8,478.8,574,482.1,578,482.1z"/>
		<g>
			<g>
				<g>
					<g>
						<g>
							<path id="XMLID_151_" class="st3" d="M587.8,472.6l-10.2-8.8c-0.8-0.7-0.9-2-0.2-2.8s2-0.9,2.8-0.2l7.2,6.2l10.2-11.4
								c0.7-0.8,2-0.9,2.8-0.2c0.8,0.7,0.9,2,0.2,2.8L587.8,472.6z"/>
						</g>
					</g>
				</g>
			</g>
		</g>
	</g>
	<g>
		<path class="st3" d="M584.8,294.2c0-0.5,0-0.9,0.1-1.4c0.1-0.4,0.2-0.9,0.4-1.3s0.4-0.8,0.8-1.1c0.3-0.4,0.8-0.7,1.3-1
			c0.3-0.1,0.6-0.3,1.1-0.6c0.4-0.2,0.9-0.5,1.3-0.8c0.4-0.3,0.8-0.7,1.1-1.1s0.5-0.9,0.5-1.3c0-0.7-0.2-1.2-0.7-1.6
			s-1.1-0.6-1.7-0.6c-0.4,0-0.8,0.1-1.1,0.2c-0.3,0.2-0.6,0.3-0.9,0.6c-0.3,0.2-0.5,0.5-0.7,0.7c-0.2,0.3-0.4,0.5-0.5,0.7l-3.2-2.2
			c0.5-1.3,1.4-2.2,2.6-2.9c1.2-0.7,2.5-1.1,3.9-1.1c0.8,0,1.6,0.1,2.4,0.3c0.8,0.2,1.5,0.6,2.1,1.1s1.1,1.1,1.5,1.9
			s0.6,1.7,0.6,2.8c0,1.2-0.2,2.2-0.7,3s-1.2,1.5-2.2,2.1c-0.4,0.3-0.9,0.5-1.3,0.8c-0.4,0.2-0.9,0.5-1.2,0.7
			c-0.4,0.2-0.7,0.5-0.9,0.8c-0.2,0.3-0.3,0.7-0.3,1.1h-4.3V294.2z M584.9,301.8v-4.6h4.1v4.6H584.9z"/>
	</g>
</g>
<g>
	<path id="XMLID_148_" class="st19" d="M1115.1,638.7c0,0-3.4,3-6.4,7.5c-3,4.6-11.1,4.8-11.4,11c-0.3,6.2,11,6.4,16.9,4.4
		c5.9-2,6.8-8.1,10.4-9.6c3.6-1.5,5.4-2.7,5.2-5.7c-0.3-3-2.3-7.8-2.3-7.8s-2.2,0.7-3.5,0.9C1122.7,639.6,1118.2,639.5,1115.1,638.7
		z"/>
	<path id="XMLID_147_" class="st20" d="M1155.8,470.3c0,0-2.3,13.5-4.1,22.4l0,0c-0.7,3.6-1.4,6.5-1.8,7.4c-0.5,1.1-4.8,5.7-10,11.1
		c-9.2,9.4-21.3,21.3-21.3,21.3l-4.7-9c0,0,10.8-12.6,18-21c3.4-3.9,6-6.9,6.5-7.3c1.5-1.4,3.3-14.8,5.8-25.9s7.5-17.2,7.5-17.2
		L1155.8,470.3z"/>
	<path id="XMLID_146_" class="st21" d="M1139.8,511.3c-9.2,9.4-21.3,21.3-21.3,21.3l-4.7-9c0,0,10.8-12.6,18-21
		C1134.1,503.7,1138.2,506.3,1139.8,511.3z"/>
	<g>
		<path id="XMLID_145_" class="st19" d="M1198.6,635c0,0,3.1,3.4,5,5.5c1.8,2.1,8.9,5.8,8.9,12c0,6.7-5.2,6.1-9.9,5.9
			c-4.7-0.2-8.5-3.5-10.4-7.3c-2-3.8-7.2-4.8-7.6-7.9c-0.4-3.1,2.4-8.6,2.4-8.6L1198.6,635z"/>
	</g>
	<path id="XMLID_144_" class="st22" d="M1187.6,628.9l-0.6,5.7c0,0,9.7,4.2,11.5,0.3l-0.4-5.1L1187.6,628.9z"/>
	<path id="XMLID_143_" class="st22" d="M1115.6,634.5l-0.5,4.1c0,0,5.9,2.1,12.4-0.2l0.1-3.7L1115.6,634.5z"/>
	<path id="XMLID_142_" class="st23" d="M1199.1,530.7c0.3,1.2-62.3,0-62.3,0s17.3-12.6,18.4-16c1.1-3.4-4.4-23.6-5.1-30.2
		c-0.6-5.3-2-28.8,1.4-32.4c3.6-3.8,16.7-7.7,16.7-7.7l19,0.7c0,0,3.1,0.7,5.4,1.7c2.2,1,15.1,5.6,17.2,12s-12.8,27-12.8,27
		s0,0.9-0.1,2.4l0,0c-0.1,2-0.1,5.1-0.2,8.4c-0.1,4.3-0.2,9.1-0.2,12.6C1196.6,517.6,1198.8,529.5,1199.1,530.7z"/>
	<path id="XMLID_141_" class="st6" d="M1199.1,530.7c0,0,8.5,12.5,8.6,21.1c0.1,8.5-3.2,32.2-3.4,36.9c-0.2,4.7-4.7,43.8-4.7,43.8
		s-3.4,3.2-13.6-0.8c0,0-2.3-37.1-2.5-41c-0.2-4-0.2-22.3-2.5-24.9c-2.3-2.6-16.1-10.9-17.9-12.5c-1.8-1.6-33.2,5.9-36.5,6.8
		c-8.5,2.2-4.6,17.1-2.8,23.7c3.2,11.1,5.9,51.3,5.9,51.3s-6.1,2.6-16.2,0.4c0,0-20-72.6-20.6-79.8s-1-19.1,48.3-28.2L1199.1,530.7z
		"/>
	<path id="XMLID_140_" class="st21" d="M1173.5,403.2c0,0-16.5-3.7-12.7,17.1c3.8,20.8,7.7,22.4,17.7,18.1s9.1-17.6,9.6-24.2
		C1188.5,407.7,1178.8,403.4,1173.5,403.2z"/>
	<path id="XMLID_139_" class="st21" d="M1169.1,449.9c0,0,7.3,7.8,18.9,0.7c0,0-2.6-16.8-1.2-25c1.4-8.2-15.1,12.7-15.1,12.7
		c0.2,0.1,0.4,0.9,0.4,2c0,0.9,0,2.1-0.2,3.3C1171.6,446.3,1170.7,449.2,1169.1,449.9z"/>
	<path id="XMLID_138_" class="st21" d="M1182.3,417.5c0.2-1.8,3.8-2.5,4.1,0.2c0.3,2.8-1.6,7.6-3,7.1
		C1182.1,424.3,1182,420,1182.3,417.5z"/>
	<path id="XMLID_137_" class="st24" d="M1187.2,424.9c0,0-0.4-6.6-2.8-6.8c-2.4-0.2-2.8,2.4-2.8,2.4l-2.4,0.5c0,0,0.8-5.7-1.6-6.7
		c-2.4-1-15.5,3.2-17.4,1.5c-1.9-1.7-1-13.3,2.5-14.9s13-5.2,20.1-0.4c0,0,5.5-0.6,6.3,3.8C1189.8,408.6,1188.7,421.6,1187.2,424.9z
		"/>
	<path id="XMLID_136_" class="st25" d="M1171.9,443.6c11.9-3.7,12.8-10.9,12.8-11c-3.9,6.8-12.7,7.6-12.7,7.6
		C1172.1,441.2,1172.1,442.4,1171.9,443.6z"/>
	<path id="XMLID_135_" class="st21" d="M1192.9,447c0,0-8.7,17.4-22.9,16.3c-14.1-1.1-2.4-18.6-1.8-18.8
		C1169,444.3,1182.7,440.9,1192.9,447z"/>
	<path id="XMLID_134_" class="st23" d="M1129.7,529.9c0,0,43.2,5.3,69.4,0.9l-50.1-6.3C1149,524.5,1148.8,525.8,1129.7,529.9z"/>
	<path id="XMLID_133_" class="st21" d="M1162,522.5l-3.2,1.6c0,0,0.7,5.1,2.5,6.7l3.6-0.9C1164.9,529.9,1164.1,524.3,1162,522.5z"/>
	<path id="XMLID_132_" class="st20" d="M1212.1,512c-0.6,0.7-9.1,4.2-18.8,7.9l0,0c-13.1,5.1-27.9,9.8-27.9,9.8l-3.4-7.2
		c0,0,15.5-8.4,26-14.3c4.9-2.8,8.8-5,9.3-5.5c1.7-1.6,2.1-4.2,0.9-8.7c-1.2-4.5-4.1-25.1-4.4-27.5c-0.3-2.4,0.8-8.8,6.8-9.1
		c6-0.3,9.1,1.4,9.1,1.4s1.5,0.6,2.6,15.2C1213.4,488.5,1213.6,510.3,1212.1,512z"/>
	<path id="XMLID_131_" class="st26" d="M1197,488.4L1197,488.4c-0.1,2-0.1,5.1-0.2,8.4c-5.9-14.4-2.5-25.9-2.4-26.1
		C1193.7,474.7,1196.9,488.3,1197,488.4z"/>
	<path id="XMLID_130_" class="st26" d="M1151.6,492.8L1151.6,492.8c-0.7,3.6-1.4,6.5-1.8,7.4c-2-9.7-0.2-22.1-0.2-22.1
		C1149.9,484,1151.6,492.8,1151.6,492.8z"/>
	<path id="XMLID_129_" class="st21" d="M1193.3,519.9L1193.3,519.9c-13.1,5.1-28.4,10-28.4,10l-2.9-7.4c0,0,15.5-8.4,26-14.3
		C1188,508.2,1191.8,510,1193.3,519.9z"/>
	<polygon id="XMLID_128_" class="st27" points="1161.1,530.3 1099.6,529.4 1130.6,545.2 	"/>
	<polygon id="XMLID_127_" class="st28" points="1130.6,545.2 1161.1,533.4 1161.1,530.3 1128.2,542.2 	"/>
	<g>
		<path id="XMLID_126_" class="st21" d="M1159.5,524.3c0,0-3.8-0.6-6.5-1.2c-2.1-0.5-7.2,0.2-8.5,1.5c-1.3,1.3-5.4,10.5-6.2,11.1
			c-0.8,0.6,0.4,1.9,1.8,1.2c0,0,1.3,4,4.4,2.5s5.2-4.8,6.9-5.4c1.6-0.6,11.1-3.5,11.1-3.5S1161.9,523.3,1159.5,524.3z"/>
	</g>
	<g>
		<path id="XMLID_125_" class="st21" d="M1145.5,523.9c0,0-2.5,1.2-3.1,1.7s-3.3,2.5-3.9,2.9c-0.6,0.5,1,1.8,5.6-0.3
			C1148.8,526.3,1145.5,523.9,1145.5,523.9z"/>
	</g>
	<polygon id="XMLID_124_" class="st29" points="1130.6,545.2 1112.4,495.3 1053.4,496.2 1070.8,542.2 	"/>
	
		<ellipse id="XMLID_123_" transform="matrix(-0.4474 -0.8943 0.8943 -0.4474 1111.5336 1726.0441)" class="st30" cx="1089" cy="519.6" rx="7.3" ry="5"/>
</g>
<g>
	<g>
		<path id="XMLID_122_" class="st15" d="M930,368.6h-24c-0.8,0-1.5-0.7-1.5-1.5v-5.2c0-0.8,0.7-1.5,1.5-1.5h24
			c0.8,0,1.5,0.7,1.5,1.5v5.2C931.4,367.9,930.8,368.6,930,368.6z"/>
	</g>
	<g>
		<path id="XMLID_121_" class="st15" d="M930,388h-24c-0.8,0-1.5-0.7-1.5-1.5v-5.2c0-0.8,0.7-1.5,1.5-1.5h24c0.8,0,1.5,0.7,1.5,1.5
			v5.2C931.4,387.3,930.8,388,930,388z"/>
	</g>
	<g>
		<path id="XMLID_120_" class="st15" d="M930,407.4h-24c-0.8,0-1.5-0.7-1.5-1.5v-5.2c0-0.8,0.7-1.5,1.5-1.5h24
			c0.8,0,1.5,0.7,1.5,1.5v5.2C931.4,406.7,930.8,407.4,930,407.4z"/>
	</g>
	<g>
		<path id="XMLID_119_" class="st15" d="M930,426.8h-24c-0.8,0-1.5-0.7-1.5-1.5v-5.2c0-0.8,0.7-1.5,1.5-1.5h24
			c0.8,0,1.5,0.7,1.5,1.5v5.2C931.4,426.1,930.8,426.8,930,426.8z"/>
	</g>
	<g>
		<path id="XMLID_118_" class="st15" d="M930,446.2h-24c-0.8,0-1.5-0.7-1.5-1.5v-5.2c0-0.8,0.7-1.5,1.5-1.5h24
			c0.8,0,1.5,0.7,1.5,1.5v5.2C931.4,445.5,930.8,446.2,930,446.2z"/>
	</g>
	<g>
		<path id="XMLID_117_" class="st15" d="M930,465.6h-24c-0.8,0-1.5-0.7-1.5-1.5v-5.2c0-0.8,0.7-1.5,1.5-1.5h24
			c0.8,0,1.5,0.7,1.5,1.5v5.2C931.4,464.9,930.8,465.6,930,465.6z"/>
	</g>
</g>
<g>
	<g>
		<path id="XMLID_116_" class="st15" d="M948.7,368.6H944c-0.8,0-1.5-0.7-1.5-1.5v-5.2c0-0.8,0.7-1.5,1.5-1.5h4.7
			c0.8,0,1.5,0.7,1.5,1.5v5.2C950.2,367.9,949.5,368.6,948.7,368.6z"/>
	</g>
	<g>
		<path id="XMLID_115_" class="st15" d="M948.7,388H944c-0.8,0-1.5-0.7-1.5-1.5v-5.2c0-0.8,0.7-1.5,1.5-1.5h4.7
			c0.8,0,1.5,0.7,1.5,1.5v5.2C950.2,387.3,949.5,388,948.7,388z"/>
	</g>
	<g>
		<path id="XMLID_114_" class="st15" d="M948.7,407.4H944c-0.8,0-1.5-0.7-1.5-1.5v-5.2c0-0.8,0.7-1.5,1.5-1.5h4.7
			c0.8,0,1.5,0.7,1.5,1.5v5.2C950.2,406.7,949.5,407.4,948.7,407.4z"/>
	</g>
	<g>
		<path id="XMLID_113_" class="st15" d="M948.7,426.8H944c-0.8,0-1.5-0.7-1.5-1.5v-5.2c0-0.8,0.7-1.5,1.5-1.5h4.7
			c0.8,0,1.5,0.7,1.5,1.5v5.2C950.2,426.1,949.5,426.8,948.7,426.8z"/>
	</g>
	<g>
		<path id="XMLID_112_" class="st15" d="M948.7,446.2H944c-0.8,0-1.5-0.7-1.5-1.5v-5.2c0-0.8,0.7-1.5,1.5-1.5h4.7
			c0.8,0,1.5,0.7,1.5,1.5v5.2C950.2,445.5,949.5,446.2,948.7,446.2z"/>
	</g>
	<g>
		<path id="XMLID_111_" class="st15" d="M948.7,465.6H944c-0.8,0-1.5-0.7-1.5-1.5v-5.2c0-0.8,0.7-1.5,1.5-1.5h4.7
			c0.8,0,1.5,0.7,1.5,1.5v5.2C950.2,464.9,949.5,465.6,948.7,465.6z"/>
	</g>
</g>
<g>
	<path id="XMLID_110_" class="st31" d="M944.8,467c0,0-11.5-26,1.8-23.8c0,0,4.5,3.7,9.2,11.4c3.5,5.8,10.8,21.1,10.6,26.3
		c-0.3,5.2-4,9-7.9,17.3c0,0-8.3,15.4-8.6,17.3l-8.7-4.5c0,0,7.4-14.7,12.6-27.7L944.8,467z"/>
	
		<linearGradient id="XMLID_29_" gradientUnits="userSpaceOnUse" x1="880.9893" y1="413.9023" x2="913.3519" y2="325.2046" gradientTransform="matrix(1 0 0 -1 0 841.67)">
		<stop  offset="0" style="stop-color:#40D5E6"/>
		<stop  offset="1" style="stop-color:#5577FF"/>
	</linearGradient>
	<polygon id="XMLID_109_" class="st32" points="984.6,532.5 831.7,506.3 835.6,482.9 988.6,509.1 	"/>
	
		<rect id="XMLID_108_" x="826.2" y="485" transform="matrix(-0.9858 -0.1678 0.1678 -0.9858 1565.2252 1120.1963)" class="st33" width="7.5" height="18"/>
	<path id="XMLID_107_" class="st21" d="M878.4,687.3h-2.2c0,0,0.7-8.2-1.3-8.3s-7,6.7-9.9,7.7c-3,1-18.2,1.9-18.3-0.9
		c-0.1-2.8,5.9-3.9,7.7-4.7s10.8-9.5,12.4-10.6c1.6-1,4.3-8.3,4.3-8.3l8.5-0.4c0,0,0.5,6.8,1,10.4c0.2,1.3,0.3,2.5,0.4,3.4
		C881.1,678.6,878.4,687.3,878.4,687.3z"/>
	<path id="XMLID_106_" class="st21" d="M933.2,685.7h-1.8v-7.6c-1.5,0.1-6.6,4.9-8.1,6.3c-1.6,1.4-3.7,1.3-10.3,1.7
		s-7.2-3.5-6.2-4.9c1-1.3,4.4-1.9,6.2-2.8c1.8-0.8,8.7-8.6,10.5-10.5c1.8-1.8,3-7.1,3-7.1l7.7,0.7c0,0,0,4.8,0.8,8.9l0,0l0,0
		c0.1,0.3,0.2,0.7,0.2,1C936.4,675.7,933.2,685.7,933.2,685.7z"/>
	<path id="XMLID_105_" class="st34" d="M904.7,513.1c0,0-2.9,6.9-3.2,8.6s-7.1,18.2-9,29.3c-1.2,6.6-4.4,27.4-4.7,30.1
		c-0.5,4.5-2.6,14.5-2.9,19.1c-0.2,2.6-12.9,42.2-16,63c0,0,7.3,1.1,12.8-0.4c0,0,11.2-21.4,17.4-51.8c3.7-18.3,7-28,9.9-35.6
		c2.9-7.5,19.3-28.9,21-31.3c1.7-2.4,12.4-15.6,2.3-30C922.2,500,904.7,513.1,904.7,513.1z"/>
	<path id="XMLID_104_" class="st34" d="M941.4,574.1c-0.9,6.2,0,14.3,2,36.9c1.9,22.6-3.4,49.9-3.4,49.9c-6.7,2.3-14.4,0-14.4,0
		c0.2-1.6,0-55,0-59.8s-1.4-10.2-1.7-15.6c-0.2-3.7-2-10.6-3.9-17.6c-0.6-2.1-1.2-4.2-1.8-6.3l0,0c-0.3-1.1-0.7-2.3-1-3.4
		c-2.7-9.5-6.4-46.3-6.4-46.3s20.5-16.5,30.4-1c10,15.5,4.8,26.8,4.5,28.7C945.3,541.6,942.3,567.9,941.4,574.1z"/>
	<path id="XMLID_103_" class="st35" d="M932.9,540.9c-0.2,0.4-10.4,23-13,26.9c-0.6-2.1-1.2-4.2-1.8-6.3l0,0
		C918.1,561.5,932.5,541.4,932.9,540.9z"/>
	<path id="XMLID_102_" class="st36" d="M933.2,685.7h-1.8v-7.6c-1.5,0.1-6.6,4.9-8.1,6.3c-1.6,1.4-3.7,1.3-10.3,1.7
		s-7.2-3.5-6.2-4.9c1-1.3,4.4-1.9,6.2-2.8c7,0.4,15.6-9.5,19.8-9.5c2.2,0,2.2,1.2,2.2,1.5l0,0l0,0c0.1,0.3,0.2,0.7,0.2,1
		C936.4,675.7,933.2,685.7,933.2,685.7z"/>
	<path id="XMLID_101_" class="st36" d="M878.4,687.3h-2.2c0,0,0.7-8.2-1.3-8.3s-7,6.7-9.9,7.7c-3,1-18.2,1.9-18.3-0.9
		c-0.1-2.8,5.9-3.9,7.7-4.7c6.3,0,16.5-6.9,19.7-8.3c3.2-1.4,6.6-0.6,6.6-0.6c0.2,1.3,0.3,2.5,0.4,3.4
		C881.1,678.6,878.4,687.3,878.4,687.3z"/>
	<path id="XMLID_100_" class="st21" d="M922.8,426.8c0,0,3.3,8.6,0.7,15.3c0,0,12-0.8,12.4-2.2c0.5-1.4-0.5-14.3,1.2-18.2
		C938.8,417.9,922.8,426.8,922.8,426.8z"/>
	<path id="XMLID_99_" class="st31" d="M921.6,439.2c0,0-7.1,2.5-10.3,3.2s-9.9,3.9-9.3,15.8c0.5,11.9,2.5,22.3,3.3,27.4
		c0.7,5.1,0.3,18.2-0.9,24.5c0,0,17,4.3,36.9,0c0,0-3.5-10.8-3.4-13.6c0.1-2.8,11.8-25.8,12.3-29.5c0.5-3.6,2.9-19.7-2.4-23.2
		c-5.4-3.5-9.7-3.1-12-4.7C933.5,437.6,925,438,921.6,439.2z"/>
	<path id="XMLID_98_" class="st31" d="M948.9,528.9c-29,7.7-52.1,0-52.1,0c2.1-4.3,3.7-8.6,4.8-12.8l0,0c0.8-3,1.4-5.8,1.8-8.6l0,0
		c2.4-15.8-0.7-27.9-0.7-27.9c3.3-27.5,45-35.8,48.4-27c3.3,8.7-6.5,46.2-7,49.5C943.6,505.3,948.9,528.9,948.9,528.9z"/>
	<path id="XMLID_97_" class="st21" d="M933.2,392.1c-4.8-1.7-17.8-3.4-21.2,16.6c-3.3,20,3.9,20.3,11.4,19.8
		c7.5-0.6,19.1-14.1,20-18.2C944.4,406.2,947,396.8,933.2,392.1z"/>
	<path id="XMLID_96_" class="st37" d="M914.8,399.8c0,0,4,8.5,9.2,11.5c0,0,3.3,9,10.3,12.7c0,0,18.8-12.4,7.9-27.2
		S916,393.7,914.8,399.8z"/>
	<path id="XMLID_95_" class="st21" d="M923.5,408.3c0.4-1,3.2-2.7,4.5,0.1c1.3,2.9-3.3,7.9-4.5,7.6
		C922.2,415.8,921.9,412.2,923.5,408.3z"/>
	<path id="XMLID_94_" class="st37" d="M941.5,399c0.4-0.6,12.8-6.4,15.4,5.6c2.6,12-10,26-12.2,32s1,20.1,1,20.1s-7.6-7.2-9.9-14.7
		C933.3,433.9,932.5,413.1,941.5,399z"/>
	<path id="XMLID_93_" class="st38" d="M942.2,398.6c0,0-3.8,3-4.3,7.8c0,0-0.7-3.7,0.8-6S942.2,398.6,942.2,398.6z"/>
	<path id="XMLID_92_" class="st39" d="M901.7,516.1c0.8-3,1.8-9.4,2.2-12.2l0,0c0,0,1.7-1.3,2.1-2.4c0.6-1.9,5.4-25.8,5.4-25.8
		S916.5,498.1,901.7,516.1z"/>
	<path id="XMLID_91_" class="st21" d="M880.8,510.3c0,0-5.2,2.4-6.4,2.8c-1.2,0.4-3.5-1.7-12.1-2.3c-0.8-0.1-2.1,0.6-1.8,1.6
		s4,3.7,5.6,4.1c1.6,0.4,9.1,3.4,12.8,1.9s6.2-6.1,6.2-6.1L880.8,510.3z"/>
	<path id="XMLID_90_" class="st31" d="M909.4,443.1c0,0-9.9,3.9-10.5,17.7c-0.6,13.8-1.1,21-1.7,23.1c-0.5,2.1-1.6,10.7-4.1,15.8
		c-2.4,5-18.4,12.9-18.4,12.9l4.9,6.2c0,0,25.1-13.3,26.4-17.3c1.3-4.1,6.9-32.4,7.3-37.2C913.7,460.5,918.8,443.3,909.4,443.1z"/>
	<path class="st40" d="M815.7,478.7c0,0.4,0,0.7-0.1,1.1h14.2c0-0.4,0-0.7,0.1-1.1H815.7z M657.2,474.8c0,0.4,0,0.9,0,1.3
		c0,1.8,0.1,3.6,0.3,5.4c0.4,5,1.2,10,2.4,14.8c3.9,15.3,11.9,28.9,22.7,39.7c0.4,0.4,0.8,0.8,1.3,1.2c1.7,1.6,3.5,3.2,5.3,4.7
		c14.9,12.1,33.8,19.3,54.4,19.3c0.3,0,0.7,0,1,0c15.7-0.2,30.3-4.5,42.9-12c5.7-3.4,11-7.4,15.8-12c10-9.5,17.6-21.4,22.1-34.8
		c0.7-2,1.3-4.1,1.8-6.2c0.9-3.7,1.7-7.5,2.1-11.4l0,0c0.1-0.8,0.2-1.7,0.2-2.5c0.1-0.8,0.1-1.6,0.2-2.4c0-0.4,0-0.7,0.1-1.1
		c0-0.8,0.1-1.6,0.1-2.4c0-0.5,0-1,0-1.5c0-43.2-31.8-79-73.2-85.4c-0.8-0.1-1.6-0.2-2.4-0.3c-0.9-0.1-1.8-0.2-2.7-0.3
		c-0.8-0.1-1.6-0.1-2.4-0.2c-1.9-0.1-3.7-0.2-5.6-0.2c-1.6,0-3.2,0-4.7,0.1c-2.7,0.1-5.3,0.4-8,0.8c-25,3.7-46.6,18.1-59.8,38.5
		c-2.6,4.1-4.9,8.3-6.9,12.8c-0.1,0.3-0.2,0.6-0.4,0.9c-0.1,0.3-0.2,0.5-0.3,0.8c-0.7,1.6-1.3,3.2-1.8,4.8
		c-1.4,4.2-2.5,8.6-3.3,13.1c-0.2,1.2-0.4,2.4-0.5,3.6c0,0.2,0,0.4-0.1,0.6c0,0,0,0,0,0.1s0,0.2,0,0.3c0,0.1,0,0.2-0.1,0.4v0.1
		c0,0.1,0,0.1,0,0.2s0,0.2,0,0.3c0,0.2-0.1,0.4-0.1,0.6c-0.1,1.3-0.2,2.7-0.3,4c0,0.2,0,0.4,0,0.5c0,0.3,0,0.6,0,0.9
		C657.2,472.8,657.2,473.8,657.2,474.8z M676.6,501.6l-0.3-0.8c-0.2-0.6-0.5-1.2-0.7-1.9l-0.5-1.5c-0.1-0.4-0.3-0.8-0.4-1.1v-0.1
		c0-0.1-0.1-0.1-0.1-0.2c-0.2-0.6-0.4-1.3-0.6-1.9l-0.2-0.8c-0.2-0.7-0.4-1.4-0.5-2.1c0-0.1,0-0.1-0.1-0.2c-0.1-0.6-0.3-1.3-0.4-1.9
		c-0.1-0.3-0.1-0.5-0.2-0.8c-0.2-0.8-0.3-1.6-0.4-2.5c-0.2-1.5-0.4-2.9-0.5-4.4c-0.1-0.5-0.1-1-0.1-1.5l0,0c0-0.2,0-0.3,0-0.5
		c0-0.7-0.1-1.4-0.1-2.1v-0.2c0-0.2,0-0.3,0-0.5c0-0.6,0-1.2,0-1.8c0-0.6,0-1.1,0-1.7c0-2.2,0.2-4.4,0.5-6.6c0-0.2,0-0.5,0.1-0.7
		l0,0l0,0l0,0c0-0.1,0-0.1,0-0.1l0,0c0,0,0,0,0-0.1c1.4-10.8,5.1-20.8,10.7-29.5c6.5-10.2,15.5-18.7,26.2-24.5
		c2.8-1.6,5.7-2.9,8.8-4.1c1-0.4,1.9-0.7,2.9-1c5.5-1.8,11.2-3,17.2-3.5c1.9-0.2,3.8-0.2,5.8-0.2c0.6,0,1.2,0,1.7,0
		c0.7,0,1.3,0,2,0.1c0.5,0,1,0.1,1.5,0.1c0.1,0,0.3,0,0.4,0c0.8,0.1,1.6,0.1,2.4,0.2c0.2,0,0.4,0.1,0.6,0.1c0.3,0,0.6,0.1,1,0.1
		s0.7,0.1,1.1,0.2c0.8,0.1,1.6,0.3,2.4,0.4c0.1,0,0.2,0,0.2,0c0.6,0.1,1.2,0.2,1.9,0.4h0.1c0.3,0.1,0.5,0.1,0.8,0.2
		c0.6,0.1,1.2,0.3,1.7,0.4c0.3,0.1,0.5,0.1,0.8,0.2c0.7,0.2,1.3,0.4,2,0.6c0.6,0.2,1.3,0.4,1.9,0.6c0.3,0.1,0.6,0.2,0.9,0.3
		c1.2,0.4,2.5,0.9,3.7,1.4c0.3,0.1,0.7,0.3,1,0.4c0.5,0.2,1,0.4,1.5,0.7c0.4,0.2,0.8,0.4,1.2,0.6c0.6,0.3,1.2,0.6,1.8,0.9
		c0.7,0.3,1.3,0.7,1.9,1c0.7,0.4,1.5,0.8,2.2,1.2c1.5,0.9,2.9,1.8,4.3,2.8c0.6,0.4,1.2,0.8,1.8,1.3c0.7,0.5,1.5,1.1,2.2,1.6
		c0.6,0.5,1.2,1,1.9,1.5c0.6,0.5,1.2,1.1,1.9,1.6c14.5,13.2,23.6,32.2,23.6,53.4c0,0.5,0,1,0,1.5c0,0.8,0,1.6-0.1,2.4
		c0,0.4,0,0.7-0.1,1.1c-0.1,0.8-0.1,1.6-0.2,2.4c-0.2,2.3-0.6,4.5-1,6.8c-0.5,2.4-1.1,4.8-1.8,7.2c-0.6,1.9-1.2,3.7-1.9,5.5
		c-4.8,12.1-12.9,22.6-23,30.4c-2.4,1.9-5,3.6-7.6,5.1c-10.4,6.1-22.5,9.6-35.3,9.8c-0.3,0-0.7,0-1,0c-13.3,0-25.7-3.6-36.4-9.8
		c-11.6-6.8-21.1-16.6-27.4-28.5c-0.3-0.6-0.6-1.2-0.9-1.8l-0.6-1.2c-0.2-0.5-0.4-0.9-0.6-1.4l-0.2-0.5c-0.2-0.4-0.4-0.8-0.5-1.2
		L676.6,501.6z"/>
	<circle id="XMLID_86_" class="st41" cx="743.6" cy="474.8" r="71.9"/>
	<path id="XMLID_85_" class="st42" d="M792.2,421.4c0,0-93.7-11.6-112.3,87.3l0,0c-5.4-10.1-8.4-21.6-8.4-33.9
		c0-39.9,32.3-72.2,72.2-72.2C762.3,402.6,779.4,409.7,792.2,421.4z"/>
</g>
<g>
	<g>
		<polygon id="XMLID_84_" class="st34" points="630.1,510.3 592,523.5 623.5,573 654.8,555.8 		"/>
	</g>
	<g>
		<polygon id="XMLID_83_" class="st43" points="629.7,511.8 594.1,524.1 623.5,570.4 652.8,554.3 		"/>
	</g>
	<g>
		<path id="XMLID_82_" class="st21" d="M663.5,551.2c0,0-8.7-2.9-10.5-3.5c-1.8-0.6-5.4,0.5-7.7-0.3c-2.4-0.8-7.7,2.1-8.4,1.8
			c-0.8-0.4-1.4,0-0.9-1.5s5.5-1.9,5.2-3.7c-0.3-1.8-6.7-4.3-11.3-5.3c-4.6-1-3.6-4.1-2.5-3.2c1.1,1,18.8,2.1,19.3,2.5
			c0.5,0.5,6.6,2.3,9,3.7c2.4,1.4,7.8,4,7.8,4V551.2z"/>
	</g>
	<g>
		<path id="XMLID_81_" class="st21" d="M627.2,564.5c0,0-6.1-7.1-7.4-8.5c-1.3-1.4-1.6-5.2-3.3-7.1c-1.7-1.9-1-8-1.6-8.6
			c-0.6-0.6-0.5-1.4-1.7-0.3c-1.2,1.1,0.3,6-1.5,6.4c-1.8,0.4-6.7-4.7-9.4-8.6c-2.8-3.9-5.3-1.8-4-1.1c1.2,0.6,9.2,16.9,9.8,17.2
			c0.6,0.3,4.8,5.4,7,7.1s6.8,5.8,6.8,5.8L627.2,564.5z"/>
	</g>
	<g>
		<path id="XMLID_80_" class="st44" d="M733.5,786.1l-0.9,8.2c0,0-10.9,1.6-11,0.6c-0.1-1-1.1-7.9-1.1-7.9
			C721.9,786,733.5,786.1,733.5,786.1z"/>
	</g>
	<g>
		<path id="XMLID_79_" class="st34" d="M732.7,793.5c0,0,3.6,14.2,2.1,16.4s-8.1,1.3-22,1.4c-13.9,0.2-10.1-5.7-8.7-7
			c2-1.9,7.3-2.6,10.6-4.4c3.3-1.8,6.8-5.9,6.8-5.9C729.4,794.7,732.7,793.5,732.7,793.5z"/>
	</g>
	<g>
		<path id="XMLID_78_" class="st44" d="M655.5,786.1l-0.9,8.2c0,0-10.9,1.6-11,0.6c-0.1-1-1.1-7.9-1.1-7.9
			C643.8,786,655.5,786.1,655.5,786.1z"/>
	</g>
	<g>
		<path id="XMLID_77_" class="st34" d="M654.7,793.6c0,0,3.6,14.2,2.1,16.4s-8.1,1-22,1.4c-19.5,0.5-17.1-5-15.7-6.3
			c2-1.9,14.3-3.4,17.6-5.2c3.3-1.8,6.8-5.9,6.8-5.9C651.6,794.8,654.7,793.6,654.7,793.6z"/>
	</g>
	<g>
		<path id="XMLID_76_" class="st34" d="M686.6,650.4c0.5,5.7,15.6,57.3,18.7,64.5c3,7.3,14.8,78.1,14.8,78.1l14-0.3
			c0,0,1.4-29.2,1.1-38.4c-0.3-9.2-7.3-49.7-9-66.8c-1.5-15.4-6-31.4-5.2-46.1c0.7-14.7-9.5-31-9.5-31S686,644.5,686.6,650.4z"/>
	</g>
	<g>
		<path id="XMLID_75_" class="st34" d="M716.6,609.5c-4.2,28.6-19.9,29-26.8,44.4c-6.9,15.4-17.5,42.8-17.5,66.2
			s-13.8,72.8-13.8,72.8h-17.9c2.7-8.3,5.6-76.3,6.1-81.9s1.2-40.1,2.2-49.1s8.7-49.3,8.7-49.3C663.3,603.5,716.6,609.6,716.6,609.5
			z"/>
	</g>
	<g>
		<path id="XMLID_74_" class="st21" d="M703,485.4c0.1,6.3-3.1,15.8-6.6,22.3c-3.6,6.5-14,7.9-20.9,5.3c-6.9-2.6-7.5-23.5-1.2-34
			c6.4-10.4,20.1-5.3,20.1-5.3C698,475.5,702.9,479,703,485.4z"/>
	</g>
	<g>
		<path id="XMLID_73_" class="st21" d="M698.8,502.6c-2.9,8.4-4.4,18.3-4.4,18.3s-18.7-0.1-17.8-1.9c1-1.8,0.4-5.5,0.4-5.5
			S701.8,494.1,698.8,502.6z"/>
	</g>
	<g>
		<path id="XMLID_72_" class="st24" d="M704.2,483c0.5-7.4-12.5-11-12.5-11c-17-5.9-23.5,11.8-20.3,14.4c3.2,2.5,1.1,8.8,1.1,8.8
			l2.3-0.1l1.4-2c0,0,0,1.3,2.2,2.1c2.2,0.7,8.6,7.8,13.9,8.6c5.3,0.8,6.6-1.3,6.6-1.3C701.8,498.9,703.7,490.4,704.2,483z"/>
	</g>
	<g>
		<path id="XMLID_71_" class="st43" d="M696.6,518v-4.1c-1.9-0.8-17.8,0.8-19.4,1.1c-1.5,0.3-1.6,3.8-1.6,3.8
			C692.9,520.2,696.6,517.9,696.6,518z"/>
	</g>
	<g>
		<path id="XMLID_70_" class="st21" d="M677.7,498c1.7,0.4,4.7-4.7,3.5-8.5c-1.2-3.8-4.4-0.2-4.7,1
			C675.7,493.6,675.9,497.5,677.7,498z"/>
	</g>
	<g>
		<path id="XMLID_69_" class="st6" d="M612.5,560C612.6,560,612.5,560,612.5,560C612.4,560.1,612.5,560.1,612.5,560z"/>
	</g>
	<g>
		<path id="XMLID_68_" class="st6" d="M715.4,598.8c0.8-11.7,4.4-38.1,4.4-38.1l6.3-13.3c-2-4.5-2-21.4-2.7-21.7
			c-7.6-3.4-26.9-7.7-26.9-7.7l-21,0.9c0,0-16,6.4-26.5,9.6c0,0,0.6,0.6-2.9,15.6c-1.5,6.6-6.4,25.8-7.8,28.9c0,0-1.5-1.6-3.6-3.9
			c-4.7-5.1-12.4-13.3-13.3-13c-1,0.3-8,3.5-8.9,3.9c1.1,0.3,17.7,32.6,28.5,41.2c2.2,1.8,6.8-6,8.2-8.5c3.8-6.9,6.9-19.5,7.1-22.6
			c0,0,0.2,11.2,0.7,14.4c0.4,3.2-7.5,64.7-7.3,66.4c0.2,1.7,36.1,3.9,50.5,2.3c14.4-1.6,22.8-4.1,22.8-4.1S715.2,604,715.4,598.8z"
			/>
	</g>
	<g>
		<path id="XMLID_67_" class="st6" d="M723.5,525.4c-22.9,8.8-19.7,45.1-19.7,45.1l14.4,2.7l0,0l0.8,0.2c1.2,0.3,2.4,0.1,3.4-0.3
			c1.7-0.6,4.2-2.1,4.7-3.9C732.2,553,724.1,525.8,723.5,525.4z"/>
	</g>
	<g>
		<path id="XMLID_66_" class="st19" d="M719.6,554.6l-1.4,18.6l0,0l0.8,0.2c1.2,0.3,2.4,0.1,3.4-0.3l0,0L719.6,554.6z"/>
	</g>
	<g>
		<path id="XMLID_65_" class="st19" d="M634.7,569.1c-0.1,3.9,1.8,11.4,1.8,11.4l1.8-7.5C638.3,573,636.8,571.4,634.7,569.1z"/>
	</g>
	<g>
		<path id="XMLID_64_" class="st24" d="M698.6,502.9c17.7-30.1-0.3-28-0.3-28L698.6,502.9z"/>
	</g>
	<g>
		<polygon id="XMLID_63_" class="st34" points="620.9,515.9 619.1,512.8 604.7,517.7 606.5,520.9 		"/>
	</g>
</g>
<g>
	<g>
		<g>
			<g>
				<g>
					<g>
						<path id="XMLID_62_" class="st45" d="M418.8,554c0,0-1.8-1.4-2.2-1.9s-4.1-1.4-6.8-3.8c-2.7-2.4,3.3-8.5,4.5-8.3
							c1.2,0.2,4.6,4,4.8,2.9s-0.1-6.5,1.2-6.8c0.8-0.2,0.9,3.2,1.1,4.2c0.2,0.8,0.9,2.7,0.4,4.4c-0.6,2,2.3,4.6,2.3,4.6L418.8,554z
							"/>
					</g>
				</g>
			</g>
		</g>
		<g>
			<g>
				<g>
					<g>
						<path id="XMLID_61_" class="st45" d="M409.5,548.3c0,0-4.7-2.8-6.8-3.7c-2.1-0.9-1.6-1.4-1.3-1.7c0.5-0.4,8.7,3.3,8.7,3.3
							s-9.8-5.9-10.6-6.4c-0.7-0.5-0.3-1.5,0.3-1.6c0.7,0,11.6,5.7,11.6,5.7s-10.8-6.8-11.2-7.2s-0.1-1.3,0.4-1.2
							c0.8,0.1,12.4,6.3,12.4,6.3s-7.4-6-8.2-6.7s-0.5-1.2,0.5-1.2c1-0.1,9.7,6.6,9.7,6.6L409.5,548.3z"/>
					</g>
				</g>
			</g>
		</g>
	</g>
	<g>
		<path id="XMLID_60_" d="M484.6,521c0,0-24.4,24.3-20.3,8.8c4-15.5,0.6-18.8,0-40.7c-0.6-21.9,20.2-20.2,20.2-20.2L484.6,521z"/>
	</g>
	<g>
		<g>
			<path id="XMLID_59_" class="st46" d="M543,780.3c0,0-3.1-1.4-5.9-0.9s-4.8,7.2-3.9,9.5c2.2,5.5,2.4,18.2,7.3,20.2
				c4.9,2,13,1.7,14.1,0c1-1.7-6.7-12.6-6.7-12.6C540,788.1,543,780.3,543,780.3z"/>
		</g>
	</g>
	<g>
		<g>
			<g>
				<path id="XMLID_58_" class="st21" d="M535.3,780.6c0,0,0.7,2,1.2,6.1c0.5,4.4,2.2,11.8,4.8,14.3c2.6,2.6,9,1.7,9.2,0.7
					s-4.8-8.7-5.3-12.4c-0.6-4.4-2.2-9-2.2-9C540.5,777.6,535.3,780.6,535.3,780.6z"/>
			</g>
		</g>
	</g>
	<g>
		<g>
			<path id="XMLID_57_" class="st46" d="M475.6,780.5c0,0-3.3-1.6-6.1-1.1s-4.8,7.2-3.9,9.5c2.2,5.5,2.4,18.2,7.3,20.2
				s13,1.7,14.1,0c1-1.7-6.4-12.4-6.4-12.4C472.7,788.3,475.6,780.5,475.6,780.5z"/>
		</g>
	</g>
	<g>
		<g>
			<g>
				<path id="XMLID_56_" class="st21" d="M469.5,779.5c0,0-0.8,2.9-0.6,7.3c0.2,4.4,2.2,11.8,4.8,14.3c2.6,2.6,9,1.7,9.2,0.7
					s-4.9-9.1-5.8-12.7s-1.5-8.6-1.5-8.6C473.1,777.8,469.5,779.5,469.5,779.5z"/>
			</g>
		</g>
	</g>
	<g>
		<g>
			<g>
				<path id="XMLID_55_" class="st47" d="M463.5,608.4c-11,32.2-4,38.7-1.2,84.1c0.3,4.7,0.4,19.8,0.6,30.8
					c0.2,10.9,3.7,55.5,4.7,56.1c3,1.8,9.9,1.5,9.9,1.5s1.4-42.1,2.2-51.3c0.8-9.2-0.3-27.5,1.1-32.9c1.3-5.4,4.5-46.4,5.2-52.2
					c0.6-5,0.9-8,0.9-8c1.9,2.2,4.3,11,17.4,47.9c1.3,3.7,10.5,25.2,10.5,41.7c0,11.9,16.7,54.5,18.8,55.4c3,1.2,10.7,0.4,10.7,0.4
					s-10.8-47.2-10.5-49.6s-6.1-27.5-6.6-34.2c-0.4-6.6-4.7-45.9-6.2-54c-1.6-8.1-8.2-40.3-8.2-40.3S484,548.1,463.5,608.4z"/>
			</g>
		</g>
	</g>
	<g>
		<g>
			<polygon id="XMLID_54_" class="st46" points="534.3,790.6 534.3,799.4 532.9,799.4 532.9,788 			"/>
		</g>
	</g>
	<g>
		<g>
			<polygon id="XMLID_53_" class="st46" points="466.8,790.6 466.8,799.4 465.4,799.4 465.4,788 			"/>
		</g>
	</g>
	<g>
		<path id="XMLID_52_" class="st21" d="M476.5,526.7c2.8-5.3,0-21.1,0-21.1s14.7-4.2,12.7,1.8c-0.6,1.8-0.5,4.3,0,7
			c0.1,0.4,0.1,0.7,0.2,1.1c0.1,0.6,0.2,1.3,0.4,1.9c0.1,0.2,0.1,0.5,0.2,0.7c1.4,4.8,3.2,9.1,3.2,9.1S473.6,531.9,476.5,526.7z"/>
	</g>
	<g>
		<path class="st48" d="M465.8,613.8c0,0,30.6,7.5,46.1-0.9c0,0-5.3-22.2-2.8-30.9c2.5-8.8,15.4-39.1,15.4-39.1s-9.3-13.5-16.5-16
			s-16.4-4-16.4-4l-13.4,1.2c0,0-11.5,0.8-9.9,2.8C477.9,539,465.8,613.8,465.8,613.8z"/>
	</g>
	<g>
		<path id="XMLID_50_" class="st49" d="M465.9,548.4c0,0,0.9,7.3-0.8,21.4c-1.7-5-2.3-6.3-2.3-6.3S465.7,555.9,465.9,548.4z"/>
	</g>
	<g>
		<path id="XMLID_49_" class="st21" d="M491.6,523.1l1.6,13.5l-15.8-12.9C482.4,521,491.5,523,491.6,523.1z"/>
	</g>
	<g>
		<path id="XMLID_48_" class="st50" d="M464.7,569.6c-0.3-0.9-0.6-1.9-0.9-2.7l0,0c-1.1-3.4-1.9-5.5-1.9-5.5s-6.1-33.9,16.3-37.7
			c0,0,12.6,20.4,11.8,37.7c-0.6,13.9-6,45.3-8.1,57c-0.5,2.3-2.9,3.8-5.2,3l-18.5-6.3c0,0,11-28.2,8.8-37.2
			C466.3,574.8,465.4,571.9,464.7,569.6z"/>
	</g>
	<g>
		<path id="XMLID_47_" class="st50" d="M492.4,523.5c0,0,10.6,23.9,10.9,38.7c0.2,12.2,0.7,43.5,0.9,54.1c0,1.7,1.7,2.8,3.3,2.2
			l10.1-4.1c0,0-5.1-34.7-5.1-49.5l14.6-19.3c0,0-11.2-15-17-17.9c-5.8-3-17.3-4.7-17.3-4.7l0.3,0.7
			C492.9,523.6,492.7,523.6,492.4,523.5z"/>
	</g>
	<g>
		<path id="XMLID_46_" class="st21" d="M513.9,587.2c0,0-27.2-9.3-26.5-4.4c0.7,4.9,12.1,9.9,13.8,10.3s12.7,0,12.7,0V587.2z"/>
	</g>
	<g>
		<polygon id="XMLID_45_" class="st51" points="504.3,589 524.4,572.6 479.8,577.9 		"/>
	</g>
	<g>
		<polygon id="XMLID_44_" class="st52" points="505.1,586 479.8,577.9 479.8,580.7 504.3,589 		"/>
	</g>
	<g>
		<polygon id="XMLID_43_" class="st53" points="493.7,523.1 503.3,536.5 499.2,533.9 490.7,520.5 		"/>
	</g>
	<g>
		<polygon id="XMLID_42_" class="st54" points="490.7,520.5 491.5,523 493.2,536.5 499.2,533.9 		"/>
	</g>
	<g>
		<path id="XMLID_41_" class="st50" d="M545.2,578.6c0,0,0.1,4.6-2.5,8.5c-2.6,3.8-30.1,6.6-30.1,6.6c0.5-1.2,0-6.9,0-6.9
			L545.2,578.6z"/>
	</g>
	<g>
		<polygon id="XMLID_40_" class="st52" points="553.2,580 566.8,535.4 517.3,540.6 504.3,589 		"/>
	</g>
	<g>
		<path id="XMLID_39_" class="st50" d="M444.3,563.8c1-1.1,3.1-4.7,3.1-4.7l11.5-25.2c0,0,14.7,2.1,14.4,6.6
			c-0.3,4.4-2.9,11-8.8,21.2s-13.2,20.8-15.3,21.7c-2.1,0.9-11.3-9-11.3-9l0,0c-7.3-7.2-21-19.2-21-19.2l5.7-8.3
			c0,0,5.9,5.1,10.6,9.1c3,2.6,4.4,3.4,6.9,5.4C441.5,562.3,444.1,563.8,444.3,563.8z"/>
	</g>
	<g>
		<path id="XMLID_38_" class="st21" d="M472.6,503.3c7.2,10.9,20,12.1,23.3,11.8s5.3-10,5.3-10s2.8-0.9,3.4-1.4s-3-8.8-2.4-11.8
			s0.6-6.8,0.6-6.8c-3.3-13.6-15.1-14.8-20.3-14C461.6,474.5,465.5,492.2,472.6,503.3z"/>
	</g>
	<g>
		<path id="XMLID_37_" d="M468.4,476.7c-8.7,14.1,5.8,28.6,5.8,28.6s4.4-9.3,12.6-11.4c8.2-2.1,16-8.8,16-8.8
			C502.8,468.9,477.2,462.6,468.4,476.7z"/>
	</g>
	<g>
		<path id="XMLID_36_" d="M465.5,524.1c7.9-2.4,12.2-1.7,12.2-1.7c-1-5.4,7.6-28,7.6-28C469.3,483.8,465.5,524.1,465.5,524.1z"/>
	</g>
	<g>
		<polygon id="XMLID_35_" class="st54" points="477.7,521.2 493.2,536.5 488.6,534.3 		"/>
	</g>
	<g>
		<polygon id="XMLID_34_" class="st53" points="476.2,523.9 482.6,539.7 488.6,534.3 477.7,521.2 		"/>
	</g>
	<g>
		<path id="XMLID_33_" class="st25" d="M489.2,514.3c0.1,0.4,0.1,0.7,0.2,1.1c0.1,0.6,0.2,1.3,0.4,1.9c-6.7-2.6-9-6.3-9.1-6.4
			C483.6,513,489.1,514.4,489.2,514.3z"/>
	</g>
	<g>
		
			<ellipse id="XMLID_32_" transform="matrix(0.883 0.4693 -0.4693 0.883 326.6027 -186.0587)" class="st55" cx="536.6" cy="562.2" rx="2.9" ry="5.3"/>
	</g>
	<g>
		<path id="XMLID_31_" class="st50" d="M457.6,537c4.2-15.1,18.6-13.1,18.6-13.1C475.9,535.1,457.6,537,457.6,537z"/>
	</g>
</g>
<g>
	<g>
		<path id="XMLID_30_" class="st56" d="M1109.3,369.7H915.6c-8.9,0-16.1-7.2-16.1-16.1V123.4c0-8.9,7.2-16.1,16.1-16.1h193.7
			c8.9,0,16.1,7.2,16.1,16.1v230.2C1125.5,362.5,1118.2,369.7,1109.3,369.7z"/>
	</g>
	<g>
		<g>
			<g>
				<path class="st57" d="M1036.7,216.1c-8.6-24.2-31.7-39-56.1-38.3c-5.9,0.2-11.9,1.3-17.7,3.4c-17.7,6.3-30.5,20.5-35.7,37.2
					c-3.6,11.6-3.6,24.4,0.8,36.7c0.4,1.2,0.9,2.4,1.4,3.6c2.3,5.3,5.3,10.1,9,14.4c15.1,17.8,40.2,25.3,63.4,17
					C1031.8,279.2,1047.4,246.2,1036.7,216.1z M996.9,276.3c-17.4,6.2-36.2,0.6-47.6-12.7c-2.7-3.2-5-6.8-6.7-10.8
					c-0.4-0.9-0.7-1.8-1.1-2.7c-3.3-9.2-3.3-18.8-0.6-27.5c3.9-12.5,13.5-23.1,26.7-27.9c4.4-1.6,8.9-2.4,13.3-2.5
					c18.3-0.6,35.6,10.6,42.1,28.7C1031.1,243.5,1019.4,268.3,996.9,276.3z"/>
			</g>
		</g>
		<g>
			<g>
				<path id="XMLID_27_" class="st17" d="M941,222.7l-13.8-4.3c5.2-16.7,17.9-30.8,35.7-37.2c5.9-2.1,11.8-3.2,17.7-3.4l0.4,14.4
					c-4.4,0.1-8.9,1-13.3,2.5C954.4,199.6,944.9,210.2,941,222.7z"/>
			</g>
		</g>
		<g>
			<g>
				<path id="XMLID_26_" class="st13" d="M942.6,252.9l-13.3,5.8c-0.5-1.2-1-2.4-1.4-3.6c-4.4-12.3-4.4-25.1-0.8-36.7l13.8,4.3
					c-2.7,8.7-2.7,18.3,0.6,27.5C941.9,251.1,942.2,252,942.6,252.9z"/>
			</g>
		</g>
		<g>
			<g>
				<path id="XMLID_25_" class="st58" d="M938.3,273c-3.6-4.2-6.6-9.1-9-14.4l13.3-5.8c1.7,4,4,7.6,6.7,10.8L938.3,273z"/>
			</g>
		</g>
	</g>
	<g>
		<g>
			<g>
				<path class="st57" d="M1086.7,251.4c-9.6-4.5-20.7-2.1-27.6,5.2c-1.7,1.8-3.1,3.8-4.2,6.2c-3.3,7-2.9,14.9,0.4,21.3
					c2.3,4.4,6.1,8.2,10.9,10.5c0.5,0.2,1,0.4,1.5,0.6c2.2,0.9,4.5,1.4,6.8,1.6c9.6,0.8,19.1-4.4,23.5-13.6
					C1103.8,271.3,1098.7,257.1,1086.7,251.4z M1092.7,280.7c-3.3,6.9-10.4,10.8-17.6,10.2c-1.7-0.1-3.4-0.5-5.1-1.2
					c-0.4-0.1-0.7-0.3-1.1-0.5c-3.7-1.7-6.5-4.5-8.2-7.9c-2.5-4.8-2.8-10.7-0.3-16c0.8-1.7,1.9-3.3,3.1-4.6
					c5.2-5.5,13.5-7.3,20.7-3.9C1093.1,261,1096.9,271.7,1092.7,280.7z"/>
			</g>
		</g>
		<g>
			<g>
				<path id="XMLID_22_" class="st17" d="M1060.7,281.3l-5.3,2.8c-3.4-6.4-3.8-14.3-0.4-21.3c1.1-2.3,2.5-4.4,4.2-6.2l4.4,4.1
					c-1.3,1.3-2.3,2.9-3.1,4.6C1057.8,270.6,1058.1,276.5,1060.7,281.3z"/>
			</g>
		</g>
		<g>
			<g>
				<path id="XMLID_21_" class="st13" d="M1070,289.7l-2.2,5.6c-0.5-0.2-1-0.4-1.5-0.6c-4.9-2.3-8.6-6.1-10.9-10.5l5.3-2.8
					c1.7,3.3,4.5,6.1,8.2,7.9C1069.2,289.4,1069.6,289.5,1070,289.7z"/>
			</g>
		</g>
	</g>
	<g>
		<polygon id="XMLID_20_" class="st59" points="1069.2,312.6 1024.6,312.6 1024.6,311.7 1068.3,311.7 1068.3,294.8 1069.2,294.8 		
			"/>
	</g>
	<g>
		<rect id="XMLID_19_" x="927.2" y="302.4" class="st57" width="39.9" height="5.3"/>
	</g>
	<g>
		<rect id="XMLID_18_" x="1024.6" y="302.4" class="st57" width="23.5" height="5.3"/>
	</g>
	<g>
		<rect id="XMLID_17_" x="918.1" y="129.8" class="st57" width="19.1" height="4.1"/>
	</g>
	<g>
		<rect id="XMLID_16_" x="997.8" y="145.2" class="st57" width="29.6" height="4.1"/>
	</g>
	<g>
		<rect id="XMLID_15_" x="959.4" y="145.2" class="st57" width="18.1" height="4.1"/>
	</g>
	<g>
		<rect id="XMLID_14_" x="918.1" y="145.2" class="st57" width="35.9" height="4.1"/>
	</g>
	<g>
		<rect id="XMLID_13_" x="943" y="129.8" class="st57" width="28.3" height="4.1"/>
	</g>
	<g>
		<rect id="XMLID_12_" x="983.2" y="145.2" class="st57" width="7.8" height="4.1"/>
	</g>
	<g>
		<rect id="XMLID_11_" x="1006.3" y="130" class="st57" width="21.1" height="4.1"/>
	</g>
	<g>
		<rect id="XMLID_10_" x="1035" y="145.2" class="st57" width="18" height="4.1"/>
	</g>
	<g>
		<rect id="XMLID_9_" x="978.3" y="130" class="st57" width="22.4" height="4.1"/>
	</g>
	<g>
		<path id="XMLID_8_" class="st3" d="M1030.2,394.4h-35.5c-6,0-10.8-4.8-10.8-10.8v-35.5c0-6,4.8-10.8,10.8-10.8h35.5
			c6,0,10.8,4.8,10.8,10.8v35.5C1041,389.5,1036.2,394.4,1030.2,394.4z"/>
		<rect id="XMLID_7_" x="1009.8" y="354.5" class="st60" width="5.4" height="22.7"/>
		<rect id="XMLID_6_" x="1001.1" y="363.1" class="st60" width="22.7" height="5.4"/>
	</g>
</g>
<g>
	
		<linearGradient id="XMLID_51_" gradientUnits="userSpaceOnUse" x1="1140.4" y1="745.13" x2="1214.1" y2="745.13" gradientTransform="matrix(1 0 0 -1 0 841.67)">
		<stop  offset="0" style="stop-color:#FF9F55"/>
		<stop  offset="1" style="stop-color:#FFD255"/>
	</linearGradient>
	<polygon id="XMLID_5_" class="st61" points="1212.8,121.9 1164.6,73.7 1141.7,96.6 1140.4,95.3 1164.6,71.2 1214.1,120.7 	"/>
</g>
<g>
	<path class="st62" d="M595.7,559.7c0.4-0.7,1.2-0.9,2-0.7l-0.4,2.2L595.7,559.7z"/>
	<path class="st62" d="M596.8,563.9c-0.5-0.6-1-1.2-1.1-1.7c-0.2-0.6-0.3-1.2-0.2-1.6l1.7,1.6L596.8,563.9z"/>
	<path class="st62" d="M599.7,564.5c-0.2,0.5-0.4,1.1-0.6,1.5c-0.5-0.5-1.1-1-1.6-1.4l0.4-1.8L599.7,564.5z"/>
	<path class="st62" d="M599.8,561.3c0.3,0.7,0.3,1.5,0.1,2.3l-1.8-1.6l0.5-2.4C599.1,559.9,599.5,560.5,599.8,561.3z"/>
</g>
<g>
	<path class="st62" d="M1085.9,516c0.6-0.9,1.7-1.3,2.8-1l-0.6,3.1L1085.9,516z"/>
	<path class="st62" d="M1087.5,521.9c-0.8-0.8-1.3-1.7-1.6-2.5c-0.3-0.9-0.4-1.6-0.3-2.3l2.4,2.3L1087.5,521.9z"/>
	<path class="st62" d="M1091.5,522.8c-0.2,0.8-0.5,1.5-0.8,2.2c-0.8-0.7-1.5-1.3-2.2-2l0.5-2.5L1091.5,522.8z"/>
	<path class="st62" d="M1091.7,518.2c0.4,1,0.4,2.1,0.2,3.2l-2.5-2.3l0.7-3.4C1090.7,516.3,1091.3,517.1,1091.7,518.2z"/>
</g>
<g>
	<path class="st62" d="M750.7,208.1l-0.8,0.7c-0.3-0.4-0.6-0.6-0.9-0.6c-0.1,0-0.3,0-0.4,0.1c-0.1,0.1-0.1,0.2-0.1,0.3
		c0,0.1,0,0.2,0.1,0.3c0.1,0.1,0.4,0.4,0.8,0.7c0.4,0.3,0.7,0.6,0.8,0.7c0.2,0.2,0.4,0.4,0.5,0.6c0.1,0.2,0.1,0.4,0.1,0.7
		c0,0.5-0.2,0.9-0.5,1.2c-0.3,0.3-0.7,0.5-1.3,0.5c-0.4,0-0.8-0.1-1.1-0.3c-0.3-0.2-0.6-0.5-0.8-0.9l0.9-0.6c0.3,0.5,0.6,0.8,1,0.8
		c0.2,0,0.3-0.1,0.5-0.2c0.1-0.1,0.2-0.2,0.2-0.4c0-0.1,0-0.3-0.1-0.4c-0.1-0.1-0.3-0.3-0.6-0.6c-0.6-0.5-1-0.9-1.2-1.2
		c-0.2-0.3-0.3-0.6-0.3-0.8c0-0.4,0.2-0.7,0.5-1c0.3-0.3,0.7-0.4,1.1-0.4c0.3,0,0.6,0.1,0.8,0.2
		C750.1,207.5,750.4,207.7,750.7,208.1z M738.9,207.3h1l2.5,3.8v-3.8h1.1v5.7h-1l-2.5-3.8v3.8h-1.1V207.3z M732,208.2
		c-0.5,0-1,0.2-1.3,0.6c-0.4,0.4-0.5,0.8-0.5,1.4c0,0.6,0.2,1.1,0.7,1.5c0.4,0.3,0.8,0.4,1.2,0.4c0.5,0,1-0.2,1.3-0.6
		c0.4-0.4,0.5-0.8,0.5-1.4c0-0.5-0.2-1-0.5-1.4C733,208.4,732.5,208.2,732,208.2z M732,207.2c0.8,0,1.5,0.3,2.1,0.9
		c0.6,0.6,0.9,1.3,0.9,2.1c0,0.8-0.3,1.5-0.9,2.1c-0.6,0.6-1.3,0.9-2.1,0.9c-0.9,0-1.6-0.3-2.1-0.9c-0.6-0.6-0.9-1.3-0.9-2.1
		c0-0.5,0.1-1.1,0.4-1.5c0.3-0.5,0.6-0.8,1.1-1.1C731,207.3,731.5,207.2,732,207.2z M724.1,207.3h1.1v5.7h-1.1V207.3z M717.4,207.3
		h3.2v1.1h-1v4.7h-1.1v-4.7h-1V207.3z M709.9,207.3h1.1v3.7c0,0.3,0,0.5,0.1,0.7c0.1,0.1,0.1,0.2,0.3,0.3c0.1,0.1,0.3,0.1,0.5,0.1
		c0.2,0,0.4,0,0.5-0.1c0.1-0.1,0.2-0.2,0.3-0.3c0.1-0.1,0.1-0.4,0.1-0.8v-3.6h1.1v3.4c0,0.6,0,1-0.1,1.2c-0.1,0.2-0.2,0.4-0.4,0.6
		c-0.2,0.2-0.4,0.4-0.6,0.5c-0.2,0.1-0.5,0.2-0.8,0.2c-0.4,0-0.8-0.1-1.1-0.3c-0.3-0.2-0.5-0.4-0.7-0.7c-0.1-0.3-0.2-0.8-0.2-1.5
		V207.3z M703.5,207.3h1.1v4.7h1.6v1h-2.7V207.3z M696.6,208.2c-0.5,0-1,0.2-1.3,0.6c-0.4,0.4-0.5,0.8-0.5,1.4
		c0,0.6,0.2,1.1,0.7,1.5c0.4,0.3,0.8,0.4,1.2,0.4c0.5,0,1-0.2,1.3-0.6c0.4-0.4,0.5-0.8,0.5-1.4c0-0.5-0.2-1-0.5-1.4
		C697.5,208.4,697.1,208.2,696.6,208.2z M696.6,207.2c0.8,0,1.5,0.3,2.1,0.9c0.6,0.6,0.9,1.3,0.9,2.1c0,0.8-0.3,1.5-0.9,2.1
		c-0.6,0.6-1.3,0.9-2.1,0.9c-0.9,0-1.6-0.3-2.1-0.9c-0.6-0.6-0.9-1.3-0.9-2.1c0-0.5,0.1-1.1,0.4-1.5c0.3-0.5,0.6-0.8,1.1-1.1
		C695.6,207.3,696.1,207.2,696.6,207.2z M689.8,208.1l-0.8,0.7c-0.3-0.4-0.6-0.6-0.9-0.6c-0.1,0-0.3,0-0.4,0.1
		c-0.1,0.1-0.1,0.2-0.1,0.3c0,0.1,0,0.2,0.1,0.3c0.1,0.1,0.4,0.4,0.8,0.7c0.4,0.3,0.7,0.6,0.8,0.7c0.2,0.2,0.4,0.4,0.5,0.6
		c0.1,0.2,0.1,0.4,0.1,0.7c0,0.5-0.2,0.9-0.5,1.2c-0.3,0.3-0.7,0.5-1.3,0.5c-0.4,0-0.8-0.1-1.1-0.3c-0.3-0.2-0.6-0.5-0.8-0.9
		l0.9-0.6c0.3,0.5,0.6,0.8,1,0.8c0.2,0,0.3-0.1,0.5-0.2c0.1-0.1,0.2-0.2,0.2-0.4c0-0.1,0-0.3-0.1-0.4c-0.1-0.1-0.3-0.3-0.6-0.6
		c-0.6-0.5-1-0.9-1.2-1.2c-0.2-0.3-0.3-0.6-0.3-0.8c0-0.4,0.2-0.7,0.5-1c0.3-0.3,0.7-0.4,1.1-0.4c0.3,0,0.6,0.1,0.8,0.2
		C689.3,207.5,689.5,207.7,689.8,208.1z"/>
	<path class="st62" d="M795.9,183.7h3.9v21.5h-3.9V183.7z M784.4,192.9c-1.2,0-2.2,0.4-3,1.3c-0.8,0.8-1.2,1.9-1.2,3.3
		c0,1.3,0.4,2.4,1.2,3.3c0.8,0.9,1.8,1.3,3,1.3c1.2,0,2.2-0.4,3-1.3c0.8-0.8,1.2-2,1.2-3.3c0-1.4-0.4-2.4-1.2-3.3
		C786.7,193.3,785.6,192.9,784.4,192.9z M788.5,189.7h3.9v15.5h-3.9v-1.7c-0.8,0.7-1.5,1.2-2.3,1.6c-0.8,0.3-1.6,0.5-2.5,0.5
		c-2,0-3.7-0.8-5.2-2.3c-1.5-1.6-2.2-3.5-2.2-5.8c0-2.4,0.7-4.4,2.1-5.9c1.4-1.5,3.1-2.3,5.2-2.3c0.9,0,1.8,0.2,2.6,0.5
		c0.8,0.3,1.6,0.9,2.3,1.6V189.7z M769.6,189.7h3.9v15.5h-3.9V189.7z M771.5,183.3c0.7,0,1.3,0.2,1.8,0.7c0.5,0.5,0.7,1.1,0.7,1.8
		c0,0.7-0.2,1.3-0.7,1.8c-0.5,0.5-1.1,0.7-1.7,0.7c-0.7,0-1.3-0.2-1.8-0.7c-0.5-0.5-0.7-1.1-0.7-1.8c0-0.7,0.2-1.3,0.7-1.7
		C770.3,183.6,770.9,183.3,771.5,183.3z M743,195.5c-0.3-0.8-0.8-1.5-1.5-2.1c-0.8-0.5-1.6-0.8-2.6-0.8c-1.1,0-2,0.3-2.9,0.9
		c-0.5,0.4-1,1-1.4,2H743z M746.9,198.6h-12.5c0.2,1.1,0.7,2,1.4,2.6c0.8,0.7,1.8,1,3,1c1.5,0,2.7-0.5,3.7-1.5l3.3,1.5
		c-0.8,1.2-1.8,2-2.9,2.6c-1.1,0.6-2.5,0.8-4.1,0.8c-2.4,0-4.4-0.8-5.9-2.3c-1.5-1.5-2.3-3.5-2.3-5.8c0-2.4,0.8-4.3,2.3-5.9
		c1.5-1.6,3.4-2.3,5.7-2.3c2.4,0,4.4,0.8,6,2.3c1.5,1.6,2.3,3.6,2.3,6.2L746.9,198.6z M719.5,192.9c-1.2,0-2.2,0.4-3,1.3
		c-0.8,0.8-1.2,1.9-1.2,3.3c0,1.3,0.4,2.4,1.2,3.3c0.8,0.9,1.8,1.3,3,1.3c1.2,0,2.2-0.4,3-1.3c0.8-0.8,1.2-2,1.2-3.3
		c0-1.4-0.4-2.4-1.2-3.3C721.7,193.3,720.7,192.9,719.5,192.9z M723.6,183.7h3.9v21.5h-3.9v-1.7c-0.8,0.7-1.5,1.2-2.3,1.6
		c-0.8,0.3-1.6,0.5-2.5,0.5c-2,0-3.7-0.8-5.2-2.3c-1.5-1.6-2.2-3.5-2.2-5.8c0-2.4,0.7-4.4,2.1-5.9c1.4-1.5,3.1-2.3,5.2-2.3
		c0.9,0,1.8,0.2,2.6,0.5c0.8,0.4,1.6,0.9,2.3,1.6V183.7z M694.5,189.7h3.9v1.6c0.9-0.7,1.7-1.3,2.4-1.5c0.7-0.3,1.5-0.4,2.2-0.4
		c1.5,0,2.9,0.5,3.9,1.6c0.9,0.9,1.4,2.3,1.4,4.1v10.3h-3.9v-6.8c0-1.9-0.1-3.1-0.2-3.7c-0.2-0.6-0.5-1.1-0.9-1.4
		c-0.4-0.3-0.9-0.5-1.5-0.5c-0.8,0-1.5,0.3-2,0.8c-0.6,0.5-1,1.3-1.2,2.2c-0.1,0.5-0.2,1.5-0.2,3.2v6.2h-3.9V189.7z M687.1,189.7
		h3.9v15.5h-3.9V189.7z M689,183.3c0.7,0,1.3,0.2,1.8,0.7c0.5,0.5,0.7,1.1,0.7,1.8c0,0.7-0.2,1.3-0.7,1.8c-0.5,0.5-1.1,0.7-1.7,0.7
		c-0.7,0-1.3-0.2-1.8-0.7c-0.5-0.5-0.7-1.1-0.7-1.8c0-0.7,0.2-1.3,0.7-1.7C687.8,183.6,688.3,183.3,689,183.3z"/>
	<path class="st62" d="M752.8,183.4c2.9-1.9,6.7-1.9,9.7-0.1l-4.9,7.5L752.8,183.4z"/>
	<path class="st62" d="M750.8,201.2c-1.6-2.9-2.6-5.7-2.5-8.2c0-2.8,0.7-5.1,1.8-6.9l5.3,8.1L750.8,201.2z"/>
	<path class="st62" d="M762.4,205c-1.4,2.1-3.1,4.2-4.6,6.2c-1.6-2-3.3-4.2-4.7-6.4l4.6-7.1L762.4,205z"/>
	<path class="st62" d="M767.1,193.1c0.1,2.5-0.9,5.4-2.6,8.4l-4.7-7.1l5.4-8.2C766.4,187.8,767.1,190.2,767.1,193.1z"/>
</g>
</svg>
