<?xml version="1.0" encoding="utf-8"?>
<!-- Generator: Adobe Illustrator 19.0.0, SVG Export Plug-In . SVG Version: 6.00 Build 0)  -->
<svg version="1.1" id="Layer_1" xmlns="http://www.w3.org/2000/svg" xmlns:xlink="http://www.w3.org/1999/xlink" x="0px" y="0px"
	 viewBox="-388 409.4 2222.2 2183.6" style="enable-background:new -388 409.4 2222.2 2183.6;" xml:space="preserve">
<style type="text/css">
	.st0{opacity:0.6;fill:url(#SVGID_1_);enable-background:new    ;}
	.st1{opacity:0.8;fill:url(#SVGID_2_);enable-background:new    ;}
	.st2{fill:url(#SVGID_3_);}
	.st3{fill:url(#SVGID_4_);}
	.st4{fill:url(#SVGID_5_);}
	.st5{fill:url(#SVGID_6_);}
	.st6{fill:url(#SVGID_7_);}
	.st7{opacity:0.1;fill:#FFFFFF;enable-background:new    ;}
	.st8{opacity:3.000000e-002;fill:#FFFFFF;enable-background:new    ;}
	.st9{fill:url(#SVGID_8_);}
	.st10{fill:url(#SVGID_9_);}
	.st11{opacity:0.4;}
	.st12{fill:url(#SVGID_10_);}
	.st13{fill:url(#SVGID_11_);}
	.st14{opacity:0.5;}
	.st15{fill:url(#SVGID_12_);}
	.st16{fill:url(#SVGID_13_);}
	.st17{fill:url(#SVGID_14_);}
	.st18{opacity:0.3;}
	.st19{fill:url(#SVGID_15_);}
	.st20{fill:url(#SVGID_16_);}
	.st21{fill:url(#SVGID_17_);}
	.st22{fill:url(#SVGID_18_);}
	.st23{fill:url(#SVGID_19_);}
	.st24{fill:url(#SVGID_20_);}
	.st25{fill:url(#SVGID_21_);}
	.st26{fill:url(#SVGID_22_);}
	.st27{fill:url(#SVGID_23_);}
	.st28{fill:url(#SVGID_24_);}
	.st29{fill:url(#SVGID_25_);}
	.st30{fill:url(#SVGID_26_);}
	.st31{fill:url(#SVGID_27_);}
	.st32{fill:url(#SVGID_28_);}
	.st33{fill:url(#SVGID_29_);}
	.st34{fill:url(#SVGID_30_);}
	.st35{opacity:0.8;fill:url(#SVGID_31_);enable-background:new    ;}
	.st36{opacity:0.8;fill:url(#SVGID_32_);enable-background:new    ;}
	.st37{fill:url(#SVGID_33_);}
	.st38{fill:url(#SVGID_34_);}
	.st39{fill:url(#SVGID_35_);}
	.st40{fill:url(#SVGID_36_);}
	.st41{fill:url(#SVGID_37_);}
	.st42{fill:url(#SVGID_38_);}
	.st43{fill:url(#SVGID_39_);}
	.st44{fill:url(#SVGID_40_);}
	.st45{fill:url(#SVGID_41_);}
	.st46{fill:url(#SVGID_42_);}
	.st47{fill:url(#SVGID_43_);}
	.st48{fill:url(#SVGID_44_);}
	.st49{fill:url(#SVGID_45_);}
	.st50{fill:url(#SVGID_46_);}
	.st51{fill:url(#SVGID_47_);}
	.st52{fill:url(#SVGID_48_);}
	.st53{fill:url(#SVGID_49_);}
	.st54{fill:#1B059B;}
	.st55{fill:#1B1918;}
	.st56{fill:url(#SVGID_50_);}
	.st57{fill:url(#SVGID_51_);}
	.st58{fill:url(#SVGID_52_);}
	.st59{fill:url(#SVGID_53_);}
	.st60{fill:url(#SVGID_54_);}
	.st61{fill:url(#SVGID_55_);}
	.st62{fill:url(#SVGID_56_);}
	.st63{fill:url(#SVGID_57_);}
	.st64{fill:url(#SVGID_58_);}
	.st65{fill:url(#SVGID_59_);}
	.st66{fill:url(#SVGID_60_);}
	.st67{fill:url(#SVGID_61_);}
	.st68{fill:url(#SVGID_62_);}
	.st69{fill:url(#SVGID_63_);}
	.st70{fill:url(#SVGID_64_);}
	.st71{fill:url(#SVGID_65_);}
	.st72{fill:url(#SVGID_66_);}
	.st73{fill:url(#SVGID_67_);}
	.st74{fill:url(#SVGID_68_);}
	.st75{fill:url(#SVGID_69_);}
	.st76{fill:url(#SVGID_70_);}
	.st77{fill:url(#SVGID_71_);}
	.st78{fill:url(#SVGID_72_);}
	.st79{fill:url(#SVGID_73_);}
	.st80{fill:url(#SVGID_74_);}
	.st81{fill:url(#SVGID_75_);}
	.st82{fill:url(#SVGID_76_);}
	.st83{fill:url(#SVGID_77_);}
	.st84{fill:none;stroke:url(#SVGID_78_);stroke-width:3.3499;stroke-linecap:round;stroke-miterlimit:10;}
	.st85{fill:url(#SVGID_79_);}
	.st86{fill:url(#SVGID_80_);}
	.st87{fill:none;stroke:url(#SVGID_81_);stroke-width:3.3499;stroke-linecap:round;stroke-linejoin:round;stroke-miterlimit:10;}
	.st88{fill:url(#SVGID_82_);}
	.st89{fill:url(#SVGID_83_);}
	.st90{fill:url(#SVGID_84_);}
	.st91{fill:url(#SVGID_85_);}
	.st92{fill:url(#SVGID_86_);}
	.st93{fill:url(#SVGID_87_);}
	.st94{fill:url(#SVGID_88_);}
	.st95{font-family:'NirmalaUI-Bold';}
	.st96{font-size:39.836px;}
	.st97{fill:#FFFFFF;}
</style>
<g id="DESIGNED_BY_FREEPIK">
</g>
<linearGradient id="SVGID_1_" gradientUnits="userSpaceOnUse" x1="-266.1" y1="3904.2502" x2="1714.5" y2="3904.2502" gradientTransform="matrix(1 0 0 1 0 -1415.2003)">
	<stop  offset="0" style="stop-color:#83EAAF"/>
	<stop  offset="1" style="stop-color:#BDF2D5"/>
</linearGradient>
<ellipse class="st0" cx="724.2" cy="2489" rx="990.3" ry="41.3"/>
<linearGradient id="SVGID_2_" gradientUnits="userSpaceOnUse" x1="-202.9" y1="3899.2502" x2="149.3001" y2="3899.2502" gradientTransform="matrix(1 0 0 1 0 -1415.2003)">
	<stop  offset="0" style="stop-color:#83EAAF"/>
	<stop  offset="1" style="stop-color:#BDF2D5"/>
</linearGradient>
<ellipse class="st1" cx="-26.8" cy="2484" rx="176.1" ry="13.5"/>
<linearGradient id="SVGID_3_" gradientUnits="userSpaceOnUse" x1="2511.1689" y1="1649.4447" x2="2511.1689" y2="1929.511" gradientTransform="matrix(-1 0 0 -1 2937.269 3773.2727)">
	<stop  offset="0" style="stop-color:#FF316C"/>
	<stop  offset="0.9893" style="stop-color:#D4F0FF;stop-opacity:0"/>
</linearGradient>
<path class="st2" d="M433.4,2135.8l51.8-59c5.5-6.3,1.1-16.1-7.3-16.1l0,0c-5.4,0-9.7-4.4-9.7-9.7v-240.4c0-5.4-4.4-9.7-9.7-9.7
	h-64.8c-5.4,0-9.7,4.4-9.7,9.7v240.3c0,5.4-4.4,9.7-9.7,9.7l0,0c-8.4,0-12.8,9.9-7.3,16.1l51.8,59
	C422.7,2140.1,429.6,2140.1,433.4,2135.8z"/>
<g>
	
		<linearGradient id="SVGID_4_" gradientUnits="userSpaceOnUse" x1="764.026" y1="2410.0115" x2="185.7942" y2="2138.2737" gradientTransform="matrix(1 0 0 1 0 -1415.2003)">
		<stop  offset="0" style="stop-color:#FF316C"/>
		<stop  offset="1" style="stop-color:#FFB199"/>
	</linearGradient>
	<path class="st3" d="M1176.1,677.4C1048.3,550.5,872.3,472,678,472c-390.4,0-706.8,316.5-706.8,706.8h703.5L1176.1,677.4z"/>
	
		<linearGradient id="SVGID_5_" gradientUnits="userSpaceOnUse" x1="1290.3816" y1="2662.2144" x2="855.718" y2="2457.9456" gradientTransform="matrix(1 0 0 1 0 -1415.2003)">
		<stop  offset="1.449920e-003" style="stop-color:#2B335C"/>
		<stop  offset="0.5329" style="stop-color:#3B4A78"/>
		<stop  offset="1" style="stop-color:#465A8D"/>
	</linearGradient>
	<path class="st4" d="M1220.4,712.6L719,1214.1l501.5,501.5c128.9-128,208.7-305.4,208.7-501.5S1349.3,840.6,1220.4,712.6z"/>
	
		<linearGradient id="SVGID_6_" gradientUnits="userSpaceOnUse" x1="739.1581" y1="3575.9639" x2="630.7712" y2="2695.7249" gradientTransform="matrix(1 0 0 1 0 -1415.2003)">
		<stop  offset="0" style="stop-color:#E4EFE9"/>
		<stop  offset="1" style="stop-color:#93A5CF"/>
	</linearGradient>
	<path class="st5" d="M188.6,1747.3c128.1,129,305.5,208.8,501.6,208.8c194.3,0,370.3-78.4,498.1-205.4l-501.5-501.5L188.6,1747.3z"
		/>
	<g>
		
			<linearGradient id="SVGID_7_" gradientUnits="userSpaceOnUse" x1="685.4511" y1="2678.2888" x2="-175.0802" y2="2954.1843" gradientTransform="matrix(1 0 0 1 0 -1415.2003)">
			<stop  offset="0" style="stop-color:#00CDAC"/>
			<stop  offset="1" style="stop-color:#8DDAD5"/>
		</linearGradient>
		<path class="st6" d="M662.3,1214.1H-41.2c0,194.3,78.4,370.2,205.3,498L662.3,1214.1z"/>
	</g>
	<path class="st7" d="M65.8,1588l374-374H40.3l-77.3,77.4C-25.2,1399.5,10.9,1500.2,65.8,1588z"/>
	<path class="st7" d="M134.9,1680.8L601.7,1214h-86.6L96.3,1632.8C108.4,1649.5,121.4,1665.4,134.9,1680.8z"/>
	<path class="st7" d="M678,472c-85.8,0-168,15.3-244,43.3L14.4,934.9c-28,76.1-43.3,158.3-43.3,244h377.4l636.7-636.7
		C892.3,497.3,788.1,472,678,472z"/>
	<path class="st7" d="M583.1,1178.9l545-545c-23-19.1-47.3-36.7-72.7-52.7l-597.7,597.7H583.1z"/>
	<path class="st8" d="M1052.2,1547.3l375.7-375.7c-9.3-157-69.8-300.1-165.1-413.1l-499.6,499.6L1052.2,1547.3z"/>
	<path class="st8" d="M1169.4,1664.5l222-222c17.4-50.9,29.1-104.4,34.4-159.8l-319.1,319.1L1169.4,1664.5z"/>
	<path class="st7" d="M631.9,1953.8l379.7-379.7l-289.1-289.1l-497,497C336,1878.4,476.9,1941,631.9,1953.8z"/>
	<path class="st7" d="M1128.8,1691.2l-62.7-62.7l-325.8,325.8c53-3.7,104.3-13.3,153.4-28L1128.8,1691.2z"/>
	
		<linearGradient id="SVGID_8_" gradientUnits="userSpaceOnUse" x1="77.2001" y1="2121.8296" x2="77.2001" y2="2401.8965" gradientTransform="matrix(1 0 0 1 0 -1415.2003)">
		<stop  offset="0" style="stop-color:#FF316C"/>
		<stop  offset="0.9907" style="stop-color:#FFC2C9;stop-opacity:0"/>
	</linearGradient>
	<path class="st9" d="M69.9,694.7l-51.8,59c-5.5,6.3-1.1,16.1,7.3,16.1l0,0c5.4,0,9.7,4.4,9.7,9.7v240.4c0,5.4,4.4,9.7,9.7,9.7h64.8
		c5.4,0,9.7-4.4,9.7-9.7V779.5c0-5.4,4.4-9.7,9.7-9.7l0,0c8.4,0,12.8-9.9,7.3-16.1l-51.8-59C80.6,690.3,73.7,690.3,69.9,694.7z"/>
	
		<linearGradient id="SVGID_9_" gradientUnits="userSpaceOnUse" x1="1425.7999" y1="2414.9768" x2="1425.8002" y2="2695.0435" gradientTransform="matrix(1 0 0 1 0 -1415.2003)">
		<stop  offset="0" style="stop-color:#FF316C"/>
		<stop  offset="0.9893" style="stop-color:#5683C9;stop-opacity:0"/>
	</linearGradient>
	<path class="st10" d="M1418.5,987.8l-51.8,59c-5.5,6.3-1.1,16.1,7.3,16.1l0,0c5.4,0,9.7,4.4,9.7,9.7V1313c0,5.4,4.4,9.7,9.7,9.7
		h64.8c5.4,0,9.7-4.4,9.7-9.7v-240.3c0-5.4,4.4-9.7,9.7-9.7l0,0c8.4,0,12.8-9.9,7.3-16.1l-51.8-59
		C1429.3,983.4,1422.4,983.4,1418.5,987.8z"/>
	<g class="st11">
		
			<linearGradient id="SVGID_10_" gradientUnits="userSpaceOnUse" x1="618.5448" y1="2412.0703" x2="225.0275" y2="2387.1287" gradientTransform="matrix(1 0 0 1 0 -1415.2003)">
			<stop  offset="0" style="stop-color:#FFFFFF"/>
			<stop  offset="0.3221" style="stop-color:#F4F7FB"/>
			<stop  offset="1" style="stop-color:#DFE9F3"/>
		</linearGradient>
		<rect x="211.6" y="963.4" class="st12" width="250" height="31.1"/>
		
			<linearGradient id="SVGID_11_" gradientUnits="userSpaceOnUse" x1="619.2874" y1="2400.3538" x2="225.7691" y2="2375.4124" gradientTransform="matrix(1 0 0 1 0 -1415.2003)">
			<stop  offset="0" style="stop-color:#FFFFFF"/>
			<stop  offset="0.3221" style="stop-color:#F4F7FB"/>
			<stop  offset="1" style="stop-color:#DFE9F3"/>
		</linearGradient>
		<rect x="481" y="963.4" class="st13" width="82.4" height="31.1"/>
	</g>
	<g class="st14">
		
			<linearGradient id="SVGID_12_" gradientUnits="userSpaceOnUse" x1="227.8419" y1="2208.553" x2="710.7284" y2="2211.8718" gradientTransform="matrix(1 0 0 1 0 -1415.2003)">
			<stop  offset="0" style="stop-color:#FF316C"/>
			<stop  offset="1" style="stop-color:#FFB199"/>
		</linearGradient>
		<rect x="211.6" y="763.3" class="st15" width="351.8" height="62.2"/>
		
			<linearGradient id="SVGID_13_" gradientUnits="userSpaceOnUse" x1="-559.4593" y1="2201.5327" x2="822.2165" y2="2211.0288" gradientTransform="matrix(1 0 0 1 0 -1415.2003)">
			<stop  offset="0" style="stop-color:#FF316C"/>
			<stop  offset="1" style="stop-color:#FFB199"/>
		</linearGradient>
		<rect x="468.3" y="763.3" class="st16" width="306.7" height="62.2"/>
	</g>
	<g class="st11">
		
			<linearGradient id="SVGID_14_" gradientUnits="userSpaceOnUse" x1="1249.9875" y1="2670.8477" x2="923.748" y2="2650.1702" gradientTransform="matrix(1 0 0 1 0 -1415.2003)">
			<stop  offset="0" style="stop-color:#FFFFFF"/>
			<stop  offset="0.3221" style="stop-color:#F4F7FB"/>
			<stop  offset="1" style="stop-color:#DFE9F3"/>
		</linearGradient>
		<rect x="910.1" y="1225.3" class="st17" width="130.8" height="25.8"/>
	</g>
	<g class="st18">
		
			<linearGradient id="SVGID_15_" gradientUnits="userSpaceOnUse" x1="923.5397" y1="2542.2405" x2="1323.8696" y2="2544.9919" gradientTransform="matrix(1 0 0 1 0 -1415.2003)">
			<stop  offset="1.449920e-003" style="stop-color:#2B335C"/>
			<stop  offset="0.5329" style="stop-color:#3B4A78"/>
			<stop  offset="1" style="stop-color:#465A8D"/>
		</linearGradient>
		<rect x="910.1" y="1102.1" class="st19" width="291.6" height="51.6"/>
		
			<linearGradient id="SVGID_16_" gradientUnits="userSpaceOnUse" x1="923.549" y1="2540.7976" x2="1323.8792" y2="2543.5491" gradientTransform="matrix(1 0 0 1 0 -1415.2003)">
			<stop  offset="1.449920e-003" style="stop-color:#2B335C"/>
			<stop  offset="0.5329" style="stop-color:#3B4A78"/>
			<stop  offset="1" style="stop-color:#465A8D"/>
		</linearGradient>
		<rect x="1221.5" y="1102.1" class="st20" width="88.7" height="51.6"/>
	</g>
	<g class="st11">
		
			<linearGradient id="SVGID_17_" gradientUnits="userSpaceOnUse" x1="830.2166" y1="3108.1641" x2="503.9765" y2="3087.4868" gradientTransform="matrix(1 0 0 1 0 -1415.2003)">
			<stop  offset="0" style="stop-color:#FFFFFF"/>
			<stop  offset="0.3221" style="stop-color:#F4F7FB"/>
			<stop  offset="1" style="stop-color:#DFE9F3"/>
		</linearGradient>
		<rect x="487.4" y="1665.6" class="st21" width="230.8" height="25.8"/>
		
			<linearGradient id="SVGID_18_" gradientUnits="userSpaceOnUse" x1="827.3207" y1="3153.8494" x2="501.0812" y2="3133.1724" gradientTransform="matrix(1 0 0 1 0 -1415.2003)">
			<stop  offset="0" style="stop-color:#FFFFFF"/>
			<stop  offset="0.3221" style="stop-color:#F4F7FB"/>
			<stop  offset="1" style="stop-color:#DFE9F3"/>
		</linearGradient>
		<rect x="487.4" y="1708.3" class="st22" width="130.8" height="25.8"/>
		
			<linearGradient id="SVGID_19_" gradientUnits="userSpaceOnUse" x1="828.0441" y1="3142.4395" x2="501.8048" y2="3121.7622" gradientTransform="matrix(1 0 0 1 0 -1415.2003)">
			<stop  offset="0" style="stop-color:#FFFFFF"/>
			<stop  offset="0.3221" style="stop-color:#F4F7FB"/>
			<stop  offset="1" style="stop-color:#DFE9F3"/>
		</linearGradient>
		<rect x="639.1" y="1708.3" class="st23" width="188.9" height="25.8"/>
	</g>
	<g class="st14">
		
			<linearGradient id="SVGID_20_" gradientUnits="userSpaceOnUse" x1="870.5265" y1="3022.6597" x2="489.1818" y2="3028.1077" gradientTransform="matrix(1 0 0 1 0 -1415.2003)">
			<stop  offset="0" style="stop-color:#E4EFE9"/>
			<stop  offset="1" style="stop-color:#93A5CF"/>
		</linearGradient>
		<rect x="487.4" y="1585" class="st24" width="291.6" height="51.6"/>
	</g>
	<g class="st11">
		
			<linearGradient id="SVGID_21_" gradientUnits="userSpaceOnUse" x1="377.375" y1="2771.6917" x2="73.0726" y2="2752.4048" gradientTransform="matrix(1 0 0 1 0 -1415.2003)">
			<stop  offset="0" style="stop-color:#FFFFFF"/>
			<stop  offset="0.3221" style="stop-color:#F4F7FB"/>
			<stop  offset="1" style="stop-color:#DFE9F3"/>
		</linearGradient>
		<rect x="57.7" y="1331" class="st25" width="215.2" height="24"/>
		
			<linearGradient id="SVGID_22_" gradientUnits="userSpaceOnUse" x1="372.8857" y1="2842.5125" x2="68.5853" y2="2823.2256" gradientTransform="matrix(1 0 0 1 0 -1415.2003)">
			<stop  offset="0" style="stop-color:#FFFFFF"/>
			<stop  offset="0.3221" style="stop-color:#F4F7FB"/>
			<stop  offset="1" style="stop-color:#DFE9F3"/>
		</linearGradient>
		<polyline class="st26" points="329.6,1410.5 329.6,1434.5 265.9,1434.5 265.9,1410.5 		"/>
	</g>
	<g class="st14">
		<g>
			
				<linearGradient id="SVGID_23_" gradientUnits="userSpaceOnUse" x1="70.1841" y1="2694.2512" x2="443.5929" y2="2696.8179" gradientTransform="matrix(1 0 0 1 0 -1415.2003)">
				<stop  offset="0" style="stop-color:#00CDAC"/>
				<stop  offset="1" style="stop-color:#8DDAD5"/>
			</linearGradient>
			<rect x="57.7" y="1255.8" class="st27" width="272" height="48.1"/>
		</g>
		<g>
			
				<linearGradient id="SVGID_24_" gradientUnits="userSpaceOnUse" x1="70.1952" y1="2692.906" x2="443.6023" y2="2695.4724" gradientTransform="matrix(1 0 0 1 0 -1415.2003)">
				<stop  offset="0" style="stop-color:#00CDAC"/>
				<stop  offset="1" style="stop-color:#8DDAD5"/>
			</linearGradient>
			<rect x="348.1" y="1255.8" class="st28" width="82.7" height="48.1"/>
		</g>
	</g>
</g>
<g>
	<g>
		
			<linearGradient id="SVGID_25_" gradientUnits="userSpaceOnUse" x1="-112.0214" y1="3885.3186" x2="-238.9866" y2="3541.9597" gradientTransform="matrix(1 0 0 1 0 -1415.2003)">
			<stop  offset="1.449920e-003" style="stop-color:#2B335C"/>
			<stop  offset="0.5329" style="stop-color:#3B4A78"/>
			<stop  offset="1" style="stop-color:#465A8D"/>
		</linearGradient>
		<path class="st29" d="M-250.5,2251.3c-28.3-27.7-21.4-71.8-6.9-95.7c5.8-9.6,7.4-22.2,7.2-34c-0.1-7.5,9.1-10.9,14-5.3
			c7.6,8.9,17.2,17.4,27.8,20.8c26.7,8.4,60.9,37,57.9,76.5s36.1,15.6,57.9,76.5c21.8,60.9-21.4,64.9,2.8,121.8
			c24.2,56.9-17,69.4-17,69.4s-39.2,17.8-58.5-41s-54.5-33.3-78.2-93.4C-267.4,2286.8-222.2,2279-250.5,2251.3z"/>
		<g>
			
				<linearGradient id="SVGID_26_" gradientUnits="userSpaceOnUse" x1="222.3969" y1="4222.7695" x2="96.7947" y2="4046.2473" gradientTransform="matrix(0.967 0.2547 -0.2547 0.967 714.0562 -1763.3046)">
				<stop  offset="0" style="stop-color:#00CDAC"/>
				<stop  offset="1" style="stop-color:#8DDAD5"/>
			</linearGradient>
			<path class="st30" d="M-225.2,2167L-225.2,2167c0.8-0.3,1.7,0.1,2,0.8l120.7,312.3c0.3,0.8-0.1,1.6-1,1.9l-5.6,2.1
				c-0.8,0.3-1.7-0.1-2-0.8l-115.1-314.4C-226.4,2168.3-226,2167.3-225.2,2167z"/>
		</g>
	</g>
	<g>
		
			<linearGradient id="SVGID_27_" gradientUnits="userSpaceOnUse" x1="64.7508" y1="3889.5422" x2="181.7799" y2="3547.2876" gradientTransform="matrix(1 0 0 1 0 -1415.2003)">
			<stop  offset="1.449920e-003" style="stop-color:#2B335C"/>
			<stop  offset="0.5329" style="stop-color:#3B4A78"/>
			<stop  offset="1" style="stop-color:#465A8D"/>
		</linearGradient>
		<path class="st31" d="M200.3,2251.3c28.3-27.7,21.4-71.8,6.9-95.7c-5.8-9.6-7.4-22.2-7.2-34c0.1-7.5-9.1-10.9-13.9-5.3
			c-7.6,8.9-17.2,17.4-27.8,20.8c-26.7,8.4-60.9,37-57.9,76.5s-36.1,15.6-57.9,76.5c-21.8,60.9,21.4,64.9-2.8,121.8
			c-24.2,56.9,17,69.4,17,69.4s39.2,17.8,58.5-41s54.5-33.3,78.2-93.4C217.2,2286.8,172,2279,200.3,2251.3z"/>
		<g>
			
				<linearGradient id="SVGID_28_" gradientUnits="userSpaceOnUse" x1="3557.6899" y1="3344.2817" x2="3432.0876" y2="3167.7595" gradientTransform="matrix(-0.967 0.2547 0.2547 0.967 2684.7224 -1763.3046)">
				<stop  offset="0" style="stop-color:#00CDAC"/>
				<stop  offset="1" style="stop-color:#8DDAD5"/>
			</linearGradient>
			<path class="st32" d="M175,2167L175,2167c-0.8-0.3-1.7,0.1-2,0.8L52.3,2480.1c-0.3,0.8,0.1,1.6,1,1.9l5.6,2.1
				c0.8,0.3,1.7-0.1,2-0.8L176,2168.9C176.2,2168.3,175.8,2167.3,175,2167z"/>
		</g>
	</g>
	<g>
		
			<linearGradient id="SVGID_29_" gradientUnits="userSpaceOnUse" x1="-26.8" y1="3425.5588" x2="-26.8" y2="3890.395" gradientTransform="matrix(1 0 0 1 0 -1415.2003)">
			<stop  offset="1.449920e-003" style="stop-color:#2B335C"/>
			<stop  offset="0.5329" style="stop-color:#3B4A78"/>
			<stop  offset="1" style="stop-color:#465A8D"/>
		</linearGradient>
		<path class="st33" d="M-95.5,2139.9c-21.5-46.2,6.7-96.2,35-118.3c11.3-8.9,19-23.4,24.1-37.6c3.3-9,15.9-9,19.2,0
			c5.1,14.2,12.8,28.7,24.1,37.6c28.3,22.2,56.6,72.1,35,118.3c-21.5,46.2,36.4,35.1,35,118.3c-1.3,83.2-55.2,68.4-51.8,147.9
			s-51.9,75.8-51.9,75.8s-55.2,3.7-51.9-75.8c3.4-79.5-50.5-64.7-51.8-147.9C-131.9,2175-73.9,2186.1-95.5,2139.9z"/>
		<g>
			
				<linearGradient id="SVGID_30_" gradientUnits="userSpaceOnUse" x1="953.483" y1="4511.8584" x2="791.9282" y2="4284.8081" gradientTransform="matrix(0.8153 0.579 -0.579 0.8153 1808.0602 -1892.5479)">
				<stop  offset="0" style="stop-color:#00CDAC"/>
				<stop  offset="1" style="stop-color:#8DDAD5"/>
			</linearGradient>
			<path class="st34" d="M-26.8,2049.9L-26.8,2049.9c1.1,0,2,0.8,2,1.9l3.8,430.6c0,1-0.9,1.9-2,1.9h-7.6c-1.1,0-2-0.8-2-1.9
				l3.9-430.6C-28.8,2050.8-27.9,2049.9-26.8,2049.9z"/>
		</g>
	</g>
</g>
<linearGradient id="SVGID_31_" gradientUnits="userSpaceOnUse" x1="1293.5" y1="3899.2502" x2="1645.7002" y2="3899.2502" gradientTransform="matrix(1 0 0 1 0 -1415.2003)">
	<stop  offset="0" style="stop-color:#83EAAF"/>
	<stop  offset="1" style="stop-color:#BDF2D5"/>
</linearGradient>
<ellipse class="st35" cx="1469.6" cy="2484" rx="176.1" ry="13.5"/>
<linearGradient id="SVGID_32_" gradientUnits="userSpaceOnUse" x1="182.6" y1="3899.2502" x2="1153.4" y2="3899.2502" gradientTransform="matrix(1 0 0 1 0 -1415.2003)">
	<stop  offset="0" style="stop-color:#83EAAF"/>
	<stop  offset="1" style="stop-color:#BDF2D5"/>
</linearGradient>
<ellipse class="st36" cx="668" cy="2484" rx="485.4" ry="13.5"/>
<g>
	<g>
		
			<linearGradient id="SVGID_33_" gradientUnits="userSpaceOnUse" x1="1384.2916" y1="3885.3481" x2="1257.3265" y2="3541.9893" gradientTransform="matrix(1 0 0 1 0 -1415.2003)">
			<stop  offset="1.449920e-003" style="stop-color:#2B335C"/>
			<stop  offset="0.5329" style="stop-color:#3B4A78"/>
			<stop  offset="1" style="stop-color:#465A8D"/>
		</linearGradient>
		<path class="st37" d="M1245.9,2251.3c-28.3-27.7-21.4-71.8-6.9-95.7c5.8-9.6,7.4-22.2,7.2-34c-0.1-7.5,9.1-10.9,13.9-5.3
			c7.6,8.9,17.2,17.4,27.8,20.8c26.7,8.4,60.9,37,57.9,76.5s36.1,15.6,57.9,76.5c21.8,60.9-21.4,64.9,2.8,121.8
			c24.2,56.9-17,69.4-17,69.4s-39.2,17.8-58.5-41s-54.5-33.3-78.2-93.4C1229,2286.8,1274.2,2279,1245.9,2251.3z"/>
		<g>
			
				<linearGradient id="SVGID_34_" gradientUnits="userSpaceOnUse" x1="1669.4703" y1="3841.6194" x2="1543.868" y2="3665.0974" gradientTransform="matrix(0.967 0.2547 -0.2547 0.967 714.0562 -1763.3046)">
				<stop  offset="0" style="stop-color:#00CDAC"/>
				<stop  offset="1" style="stop-color:#8DDAD5"/>
			</linearGradient>
			<path class="st38" d="M1271.2,2167L1271.2,2167c0.8-0.3,1.7,0.1,2,0.8l120.7,312.3c0.3,0.8-0.1,1.6-1,1.9l-5.6,2.1
				c-0.8,0.3-1.7-0.1-2-0.8l-115.1-314.4C1270,2168.3,1270.4,2167.3,1271.2,2167z"/>
		</g>
	</g>
	<g>
		
			<linearGradient id="SVGID_35_" gradientUnits="userSpaceOnUse" x1="1561.0648" y1="3889.5156" x2="1678.0939" y2="3547.2607" gradientTransform="matrix(1 0 0 1 0 -1415.2003)">
			<stop  offset="1.449920e-003" style="stop-color:#2B335C"/>
			<stop  offset="0.5329" style="stop-color:#3B4A78"/>
			<stop  offset="1" style="stop-color:#465A8D"/>
		</linearGradient>
		<path class="st39" d="M1696.7,2251.3c28.3-27.7,21.4-71.8,6.9-95.7c-5.8-9.6-7.4-22.2-7.2-34c0.1-7.5-9.1-10.9-14-5.3
			c-7.6,8.9-17.2,17.4-27.8,20.8c-26.7,8.4-60.9,37-57.9,76.5s-36.1,15.6-57.9,76.5c-21.8,60.9,21.4,64.9-2.8,121.8
			c-24.2,56.9,17,69.4,17,69.4s39.2,17.8,58.5-41s54.5-33.3,78.2-93.4C1713.6,2286.8,1668.4,2279,1696.7,2251.3z"/>
		<g>
			
				<linearGradient id="SVGID_36_" gradientUnits="userSpaceOnUse" x1="2110.6162" y1="3725.4316" x2="1985.0139" y2="3548.9097" gradientTransform="matrix(-0.967 0.2547 0.2547 0.967 2684.7224 -1763.3046)">
				<stop  offset="0" style="stop-color:#00CDAC"/>
				<stop  offset="1" style="stop-color:#8DDAD5"/>
			</linearGradient>
			<path class="st40" d="M1671.4,2167L1671.4,2167c-0.8-0.3-1.7,0.1-2,0.8l-120.7,312.3c-0.3,0.8,0.1,1.6,1,1.9l5.6,2.1
				c0.8,0.3,1.7-0.1,2-0.8l115.1-314.4C1672.6,2168.3,1672.2,2167.3,1671.4,2167z"/>
		</g>
	</g>
	<g>
		
			<linearGradient id="SVGID_37_" gradientUnits="userSpaceOnUse" x1="1469.6001" y1="3425.5588" x2="1469.6001" y2="3890.395" gradientTransform="matrix(1 0 0 1 0 -1415.2003)">
			<stop  offset="1.449920e-003" style="stop-color:#2B335C"/>
			<stop  offset="0.5329" style="stop-color:#3B4A78"/>
			<stop  offset="1" style="stop-color:#465A8D"/>
		</linearGradient>
		<path class="st41" d="M1400.9,2139.9c-21.5-46.2,6.7-96.2,35-118.3c11.3-8.9,19-23.4,24.1-37.6c3.3-9,15.9-9,19.2,0
			c5.1,14.2,12.8,28.7,24.1,37.6c28.3,22.2,56.6,72.1,35,118.3c-21.5,46.2,36.4,35.1,35,118.3c-1.3,83.2-55.2,68.4-51.8,147.9
			s-51.9,75.8-51.9,75.8s-55.2,3.7-51.9-75.8c3.4-79.5-50.5-64.7-51.8-147.9C1364.5,2175,1422.4,2186.1,1400.9,2139.9z"/>
		<g>
			
				<linearGradient id="SVGID_38_" gradientUnits="userSpaceOnUse" x1="2173.5527" y1="3645.4041" x2="2011.9978" y2="3418.3538" gradientTransform="matrix(0.8153 0.579 -0.579 0.8153 1808.0602 -1892.5479)">
				<stop  offset="0" style="stop-color:#00CDAC"/>
				<stop  offset="1" style="stop-color:#8DDAD5"/>
			</linearGradient>
			<path class="st42" d="M1469.6,2049.9L1469.6,2049.9c1.1,0,2,0.8,2,1.9l3.8,430.6c0,1-0.9,1.9-2,1.9h-7.6c-1.1,0-2-0.8-2-1.9
				l3.9-430.6C1467.6,2050.8,1468.5,2049.9,1469.6,2049.9z"/>
		</g>
	</g>
</g>
<g>
	<g>
		
			<linearGradient id="SVGID_39_" gradientUnits="userSpaceOnUse" x1="576.3999" y1="3588.7229" x2="576.3999" y2="3722.8884" gradientTransform="matrix(1 0 0 1 0 -1415.2003)">
			<stop  offset="0" style="stop-color:#FF316C"/>
			<stop  offset="1" style="stop-color:#FFB199"/>
		</linearGradient>
		<path class="st43" d="M619.2,2484.3c-4.3,0-8.1-3.2-8.7-7.6l-34-242.7l-34,242.7c-0.7,4.8-5.1,8.2-10,7.5c-4.8-0.7-8.2-5.1-7.5-10
			l42.7-305.1c0.6-4.4,4.3-7.6,8.7-7.6s8.1,3.2,8.7,7.6l42.7,305.1c0.7,4.8-2.7,9.3-7.5,10C620,2484.3,619.6,2484.3,619.2,2484.3z"
			/>
	</g>
	<g>
		
			<linearGradient id="SVGID_40_" gradientUnits="userSpaceOnUse" x1="1045" y1="3580.9387" x2="1045" y2="3715.8687" gradientTransform="matrix(1 0 0 1 0 -1415.2003)">
			<stop  offset="0" style="stop-color:#FF316C"/>
			<stop  offset="1" style="stop-color:#FFB199"/>
		</linearGradient>
		<path class="st44" d="M1087.8,2484.3c-4.3,0-8.1-3.2-8.7-7.6l-34-242.7l-34,242.7c-0.7,4.8-5.1,8.2-10,7.5
			c-4.8-0.7-8.2-5.1-7.5-10l42.7-305.1c0.6-4.4,4.3-7.6,8.7-7.6c4.4,0,8.1,3.2,8.7,7.6l42.7,305.1c0.7,4.8-2.7,9.3-7.5,10
			C1088.7,2484.3,1088.2,2484.3,1087.8,2484.3z"/>
	</g>
	
		<linearGradient id="SVGID_41_" gradientUnits="userSpaceOnUse" x1="483.2001" y1="3575.8501" x2="1148.4" y2="3575.8501" gradientTransform="matrix(1 0 0 1 0 -1415.2003)">
		<stop  offset="1.449920e-003" style="stop-color:#2B335C"/>
		<stop  offset="0.5329" style="stop-color:#3B4A78"/>
		<stop  offset="1" style="stop-color:#465A8D"/>
	</linearGradient>
	<path class="st45" d="M1141.3,2153.5h-651c-3.9,0-7.1,3.2-7.1,7.1l0,0c0,3.9,3.2,7.1,7.1,7.1h651c3.9,0,7.1-3.2,7.1-7.1l0,0
		C1148.4,2156.8,1145.2,2153.5,1141.3,2153.5z"/>
	
		<linearGradient id="SVGID_42_" gradientUnits="userSpaceOnUse" x1="522.4" y1="3585.4502" x2="1109.2" y2="3585.4502" gradientTransform="matrix(1 0 0 1 0 -1415.2003)">
		<stop  offset="1.449920e-003" style="stop-color:#2B335C"/>
		<stop  offset="0.5329" style="stop-color:#3B4A78"/>
		<stop  offset="1" style="stop-color:#465A8D"/>
	</linearGradient>
	<rect x="522.4" y="2167.8" class="st46" width="586.8" height="4.8"/>
</g>
<linearGradient id="SVGID_43_" gradientUnits="userSpaceOnUse" x1="879.9" y1="3461.5002" x2="1071.6019" y2="3461.5002" gradientTransform="matrix(1 0 0 1 0 -1415.2003)">
	<stop  offset="1.449920e-003" style="stop-color:#2B335C"/>
	<stop  offset="0.5329" style="stop-color:#3B4A78"/>
	<stop  offset="1" style="stop-color:#465A8D"/>
</linearGradient>
<path class="st47" d="M1063,2117H888.5c-4.8,0-8.6-3.9-8.6-8.6v-124.3c0-4.8,3.9-8.6,8.6-8.6H1063c4.8,0,8.6,3.9,8.6,8.6v124.3
	C1071.7,2113.1,1067.8,2117,1063,2117z"/>
<linearGradient id="SVGID_44_" gradientUnits="userSpaceOnUse" x1="975.7999" y1="3532.3562" x2="975.8" y2="3556.5945" gradientTransform="matrix(1 0 0 1 0 -1415.2003)">
	<stop  offset="1.449920e-003" style="stop-color:#2B335C"/>
	<stop  offset="0.5329" style="stop-color:#3B4A78"/>
	<stop  offset="1" style="stop-color:#465A8D"/>
</linearGradient>
<rect x="954.6" y="2117" class="st48" width="42.4" height="36.5"/>
<g>
	
		<linearGradient id="SVGID_45_" gradientUnits="userSpaceOnUse" x1="894.9391" y1="3512.6724" x2="1063.5573" y2="3397.4143" gradientTransform="matrix(1 0 0 1 0 -1415.2003)">
		<stop  offset="0" style="stop-color:#00CDAC"/>
		<stop  offset="1" style="stop-color:#8DDAD5"/>
	</linearGradient>
	<rect x="887.4" y="1982.8" class="st49" width="176.8" height="118.9"/>
</g>
<g>
	
		<linearGradient id="SVGID_46_" gradientUnits="userSpaceOnUse" x1="-200.6998" y1="1154.2484" x2="9.999466e-002" y2="1154.2484" gradientTransform="matrix(1 0 0 -1 0 3004.7998)">
		<stop  offset="1.449920e-003" style="stop-color:#2B335C"/>
		<stop  offset="0.5329" style="stop-color:#3B4A78"/>
		<stop  offset="1" style="stop-color:#465A8D"/>
	</linearGradient>
	<path class="st50" d="M-80.2,1944.9v-16.3c7.4-1.9,14.4-4.8,20.8-8.6l11.5,11.5c2.2,2.2,6.4,2.2,8.6,0l19.8-19.8
		c2.2-2.2,2.2-6.4,0-8.6l-11.5-11.5c3.8-6.4,6.7-13.4,8.6-20.8H-6c3.5,0,6.1-2.9,6.1-6.1v-28.3c0-3.5-2.9-6.1-6.1-6.1h-16.3
		c-1.9-7.4-4.8-14.4-8.6-20.8l11.5-11.5c2.2-2.2,2.2-6.4,0-8.6l-19.8-19.8c-2.2-2.2-6.4-2.2-8.6,0l-11.5,11.5
		c-6.4-3.8-13.4-6.7-20.8-8.6v-16.3c0-3.5-2.9-6.1-6.1-6.1h-28.2c-3.5,0-6.1,2.9-6.1,6.1v16.3c-7.4,1.9-14.4,4.8-20.8,8.6
		l-11.5-11.5c-2.2-2.2-6.4-2.2-8.6,0l-19.8,19.8c-2.2,2.2-2.2,6.4,0,8.6l11.5,11.5c-3.8,6.4-6.7,13.4-8.6,20.8h-16.3
		c-3.5,0-6.1,2.9-6.1,6.1v28.2c0,3.5,2.9,6.1,6.1,6.1h16.3c1.9,7.4,4.8,14.4,8.6,20.8l-11.5,11.5c-2.2,2.2-2.2,6.4,0,8.6l19.8,19.8
		c2.2,2.2,6.4,2.2,8.6,0l11.5-11.5c6.4,3.8,13.4,6.7,20.8,8.6v16.3c0,3.5,2.9,6.1,6.1,6.1h28.2C-82.7,1951-80.2,1948.4-80.2,1944.9z
		 M-161.1,1850.3c0-33.6,27.2-60.8,60.8-60.8s60.8,27.2,60.8,60.8c0,33.6-27.2,60.8-60.8,60.8
		C-133.9,1911-161.1,1883.8-161.1,1850.3z"/>
	
		<linearGradient id="SVGID_47_" gradientUnits="userSpaceOnUse" x1="-99.7842" y1="1312.5801" x2="20.8842" y2="1312.5801" gradientTransform="matrix(1 0 0 -1 0 3004.7998)">
		<stop  offset="0" style="stop-color:#00CDAC"/>
		<stop  offset="1" style="stop-color:#8DDAD5"/>
	</linearGradient>
	<path class="st51" d="M-48.5,1750.1l3.5-9.3c4.5,0.6,9.3,0.3,13.8-0.3l4.2,9c1,1.9,3.2,2.9,4.8,1.9l15.7-7c1.9-1,2.9-3.2,1.9-4.8
		l-4.2-9c3.5-2.9,6.7-6.1,9.3-9.9l9.3,3.5c1.9,0.6,4.2-0.3,4.8-2.2l6.1-16c0.6-1.9-0.3-4.2-2.2-4.8l-9.3-3.5
		c0.6-4.5,0.3-9.3-0.3-13.8l9-4.2c1.9-1,2.9-3.2,1.9-4.8l-7-15.7c-1-1.9-3.2-2.9-4.8-1.9l-9,4.2c-2.9-3.5-6.1-6.7-9.9-9.3l3.5-9.3
		c0.6-1.9-0.3-4.2-2.2-4.8l-16-6.1c-1.9-0.6-4.2,0.3-4.8,2.2l-3.5,9.3c-4.5-0.6-9.3-0.3-13.8,0.3l-4.2-9c-1-1.9-3.2-2.9-4.8-1.9
		l-15.7,7c-1.9,1-2.9,3.2-1.9,4.8l4.2,9c-3.5,2.9-6.7,6.1-9.3,9.9l-9.3-3.5c-1.9-0.6-4.2,0.3-4.8,2.2l-6.1,16
		c-0.6,1.9,0.3,4.2,2.2,4.8l9.3,3.5c-0.6,4.5-0.3,9.3,0.3,13.8l-9,4.2c-1.9,1-2.9,3.2-1.9,4.8l7,15.7c1,1.9,3.2,2.9,4.8,1.9l9-4.2
		c2.9,3.5,6.1,6.7,9.9,9.3l-3.5,9.3c-0.6,1.9,0.3,4.2,2.2,4.8l16,6.1C-51.4,1753-49.1,1752-48.5,1750.1z M-74.1,1678.7
		c7.4-19.2,28.5-28.8,47.7-21.4c19.2,7.4,28.8,28.5,21.4,47.7c-7.4,19.2-28.5,28.8-47.7,21.4C-71.8,1719.4-81.4,1697.9-74.1,1678.7z
		"/>
	
		<linearGradient id="SVGID_48_" gradientUnits="userSpaceOnUse" x1="-2.3098" y1="1215.0745" x2="118.3585" y2="1215.0745" gradientTransform="matrix(1 0 0 -1 0 3004.7998)">
		<stop  offset="0" style="stop-color:#FF316C"/>
		<stop  offset="1" style="stop-color:#FFB199"/>
	</linearGradient>
	<path class="st52" d="M49.1,1847.6l3.5-9.3c4.5,0.6,9.3,0.3,13.8-0.3l4.2,9c1,1.9,3.2,2.9,4.8,1.9l15.7-7c1.9-1,2.9-3.2,1.9-4.8
		l-4.2-9c3.5-2.9,6.7-6.1,9.3-9.9l9.3,3.5c1.9,0.6,4.2-0.3,4.8-2.2l6.1-16c0.6-1.9-0.3-4.2-2.2-4.8l-9.3-3.5
		c0.6-4.5,0.3-9.3-0.3-13.8l9-4.2c1.9-1,2.9-3.2,1.9-4.8l-7-15.7c-1-1.9-3.2-2.9-4.8-1.9l-9,4.2c-2.9-3.5-6.1-6.7-9.9-9.3l3.5-9.3
		c0.6-1.9-0.3-4.2-2.2-4.8l-16-6.1c-1.9-0.6-4.2,0.3-4.8,2.2l-3.5,9.3c-4.5-0.6-9.3-0.3-13.8,0.3l-4.2-9c-1-1.9-3.2-2.9-4.8-1.9
		l-15.7,7c-1.9,1-2.9,3.2-1.9,4.8l4.2,9c-3.5,2.9-6.7,6.1-9.3,9.9l-9.3-3.5c-1.9-0.6-4.2,0.3-4.8,2.2l-6.1,16
		c-0.6,1.9,0.3,4.2,2.2,4.8l9.3,3.5c-0.6,4.5-0.3,9.3,0.3,13.8l-9,4.2c-1.9,1-2.9,3.2-1.9,4.8l7,15.7c1,1.9,3.2,2.9,4.8,1.9l9-4.2
		c2.9,3.5,6.1,6.7,9.9,9.3l-3.5,9.3c-0.6,1.9,0.3,4.2,2.2,4.8l16,6.1C46.2,1850.5,48.4,1849.6,49.1,1847.6z M23.5,1776.3
		c7.4-19.2,28.5-28.8,47.7-21.4s28.8,28.5,21.4,47.7c-7.4,19.2-28.5,28.8-47.7,21.4C25.7,1816.9,16.1,1795.5,23.5,1776.3z"/>
</g>
<linearGradient id="SVGID_49_" gradientUnits="userSpaceOnUse" x1="943.6001" y1="3565.6501" x2="1008" y2="3565.6501" gradientTransform="matrix(1 0 0 1 0 -1415.2003)">
	<stop  offset="1.449920e-003" style="stop-color:#2B335C"/>
	<stop  offset="0.5329" style="stop-color:#3B4A78"/>
	<stop  offset="1" style="stop-color:#465A8D"/>
</linearGradient>
<path class="st53" d="M1004.8,2147.3h-58c-1.8,0-3.2,1.4-3.2,3.2s1.4,3.2,3.2,3.2h58c1.8,0,3.2-1.4,3.2-3.2
	C1007.9,2148.6,1006.5,2147.3,1004.8,2147.3z"/>
<polygon class="st7" points="1064.1,1982.8 927.7,1982.8 887.4,2023 887.4,2101.8 968.1,2101.8 1064.1,2005.6 "/>
<polygon class="st7" points="1030.6,2101.8 1064.1,2068.1 1064.1,2033.6 996.1,2101.8 "/>
<g>
	<path class="st54" d="M985.3,2054l-1.1,1c-0.4-0.5-0.8-0.8-1.2-0.8c-0.2,0-0.4,0.1-0.5,0.2c-0.1,0.1-0.2,0.2-0.2,0.4
		c0,0.1,0,0.3,0.1,0.4c0.1,0.2,0.5,0.5,1.1,1s0.9,0.8,1.1,0.9c0.3,0.3,0.5,0.6,0.7,0.9c0.1,0.3,0.2,0.6,0.2,0.9
		c0,0.7-0.2,1.2-0.7,1.6c-0.5,0.4-1,0.6-1.8,0.6c-0.6,0-1.1-0.1-1.5-0.4s-0.8-0.7-1.1-1.3l1.3-0.8c0.4,0.7,0.8,1.1,1.3,1.1
		c0.3,0,0.5-0.1,0.7-0.2c0.2-0.2,0.3-0.3,0.3-0.5s-0.1-0.4-0.2-0.5c-0.1-0.2-0.4-0.5-0.9-0.8c-0.9-0.7-1.4-1.3-1.7-1.6
		c-0.3-0.4-0.4-0.8-0.4-1.2c0-0.6,0.2-1,0.6-1.4c0.4-0.4,0.9-0.6,1.6-0.6c0.4,0,0.8,0.1,1.1,0.3
		C984.4,2053.3,984.8,2053.5,985.3,2054z M968.8,2052.9h1.4l3.4,5.3v-5.3h1.5v8h-1.5l-3.4-5.2v5.2h-1.5L968.8,2052.9L968.8,2052.9z
		 M959.2,2054.3c-0.7,0-1.4,0.3-1.9,0.8s-0.8,1.2-0.8,2c0,0.9,0.3,1.6,0.9,2.1c0.5,0.4,1.1,0.6,1.7,0.6c0.7,0,1.3-0.3,1.8-0.8
		s0.8-1.2,0.8-1.9c0-0.8-0.3-1.4-0.8-1.9C960.5,2054.5,959.9,2054.3,959.2,2054.3z M959.2,2052.8c1.1,0,2.1,0.4,2.9,1.2
		s1.2,1.8,1.2,3s-0.4,2.2-1.2,3c-0.8,0.8-1.8,1.2-2.9,1.2c-1.2,0-2.2-0.4-3-1.2c-0.8-0.8-1.2-1.8-1.2-3c0-0.8,0.2-1.5,0.6-2.1
		c0.4-0.6,0.9-1.1,1.5-1.5C957.7,2052.9,958.4,2052.8,959.2,2052.8z M948.2,2052.9h1.5v8h-1.5V2052.9z M938.8,2052.9h4.4v1.5h-1.5
		v6.5h-1.5v-6.5h-1.4V2052.9z M928.3,2052.9h1.5v5.2c0,0.4,0,0.8,0.1,0.9c0.1,0.2,0.2,0.3,0.4,0.4c0.2,0.1,0.4,0.2,0.6,0.2
		c0.3,0,0.5-0.1,0.7-0.2c0.2-0.1,0.3-0.3,0.4-0.5s0.1-0.6,0.1-1.1v-5h1.5v4.8c0,0.8,0,1.4-0.1,1.7c-0.1,0.3-0.3,0.6-0.5,0.9
		c-0.3,0.3-0.5,0.5-0.9,0.6c-0.3,0.1-0.7,0.2-1.2,0.2c-0.6,0-1.1-0.1-1.5-0.4s-0.7-0.6-0.9-1c-0.2-0.4-0.3-1.1-0.3-2v-4.7H928.3z
		 M919.5,2052.9h1.5v6.5h2.2v1.4h-3.7V2052.9z M909.8,2054.3c-0.7,0-1.4,0.3-1.9,0.8s-0.8,1.2-0.8,2c0,0.9,0.3,1.6,0.9,2.1
		c0.5,0.4,1.1,0.6,1.7,0.6c0.7,0,1.3-0.3,1.8-0.8s0.8-1.2,0.8-1.9c0-0.8-0.3-1.4-0.8-1.9C911.2,2054.5,910.6,2054.3,909.8,2054.3z
		 M909.8,2052.8c1.1,0,2.1,0.4,2.9,1.2s1.2,1.8,1.2,3s-0.4,2.2-1.2,3c-0.8,0.8-1.8,1.2-2.9,1.2c-1.2,0-2.2-0.4-3-1.2
		c-0.8-0.8-1.2-1.8-1.2-3c0-0.8,0.2-1.5,0.6-2.1c0.4-0.6,0.9-1.1,1.5-1.5C908.4,2052.9,909.1,2052.8,909.8,2052.8z M900.5,2054
		l-1.1,1c-0.4-0.5-0.8-0.8-1.2-0.8c-0.2,0-0.4,0.1-0.5,0.2c-0.1,0.1-0.2,0.2-0.2,0.4c0,0.1,0,0.3,0.1,0.4c0.1,0.2,0.5,0.5,1.1,1
		s0.9,0.8,1.1,0.9c0.3,0.3,0.5,0.6,0.7,0.9c0.1,0.3,0.2,0.6,0.2,0.9c0,0.7-0.2,1.2-0.7,1.6c-0.5,0.4-1,0.6-1.8,0.6
		c-0.6,0-1.1-0.1-1.5-0.4s-0.8-0.7-1.1-1.3l1.3-0.8c0.4,0.7,0.8,1.1,1.3,1.1c0.3,0,0.5-0.1,0.7-0.2c0.2-0.2,0.3-0.3,0.3-0.5
		s-0.1-0.4-0.2-0.5c-0.1-0.2-0.4-0.5-0.9-0.8c-0.9-0.7-1.4-1.3-1.7-1.6c-0.3-0.4-0.4-0.8-0.4-1.2c0-0.6,0.2-1,0.6-1.4
		c0.4-0.4,0.9-0.6,1.6-0.6c0.4,0,0.8,0.1,1.1,0.3C899.6,2053.3,900,2053.5,900.5,2054z"/>
	<path d="M1048.2,2020.1h5.4v30h-5.4V2020.1z M1032.2,2032.9c-1.7,0-3.1,0.6-4.2,1.8c-1.1,1.2-1.7,2.7-1.7,4.6s0.6,3.4,1.7,4.6
		s2.5,1.8,4.2,1.8s3.1-0.6,4.2-1.8c1.1-1.2,1.7-2.7,1.7-4.7c0-1.9-0.6-3.4-1.7-4.6C1035.3,2033.4,1033.9,2032.9,1032.2,2032.9z
		 M1037.9,2028.4h5.4v21.6h-5.4v-2.3c-1.1,1-2.1,1.7-3.2,2.2c-1.1,0.4-2.2,0.7-3.5,0.7c-2.8,0-5.2-1.1-7.3-3.2
		c-2-2.2-3.1-4.9-3.1-8.1c0-3.3,1-6.1,3-8.2s4.4-3.2,7.2-3.2c1.3,0,2.5,0.2,3.7,0.7c1.1,0.5,2.2,1.2,3.2,2.2L1037.9,2028.4
		L1037.9,2028.4z M1011.5,2028.4h5.4v21.6h-5.4V2028.4z M1014.3,2019.5c1,0,1.8,0.3,2.4,1c0.7,0.7,1,1.5,1,2.5s-0.3,1.8-1,2.5
		s-1.5,1-2.4,1c-1,0-1.8-0.3-2.5-1s-1-1.5-1-2.5s0.3-1.8,1-2.4C1012.5,2019.9,1013.3,2019.5,1014.3,2019.5z M974.6,2036.5
		c-0.4-1.2-1.1-2.1-2.1-2.9c-1.1-0.7-2.3-1.1-3.7-1.1c-1.5,0-2.8,0.4-4,1.3c-0.7,0.5-1.4,1.4-2,2.7H974.6z M980,2040.8h-17.4
		c0.3,1.5,0.9,2.8,2,3.7c1.1,0.9,2.5,1.4,4.2,1.4c2,0,3.8-0.7,5.2-2.1l4.6,2.2c-1.1,1.6-2.5,2.8-4.1,3.6s-3.5,1.2-5.7,1.2
		c-3.4,0-6.1-1.1-8.3-3.2c-2.1-2.1-3.2-4.8-3.2-8c0-3.3,1.1-6,3.2-8.2s4.8-3.3,8-3.3c3.4,0,6.2,1.1,8.3,3.3c2.1,2.2,3.2,5,3.2,8.6
		L980,2040.8z M941.7,2032.9c-1.7,0-3.1,0.6-4.2,1.8c-1.1,1.2-1.7,2.7-1.7,4.6s0.6,3.4,1.7,4.6s2.5,1.8,4.2,1.8s3.1-0.6,4.2-1.8
		c1.1-1.2,1.7-2.7,1.7-4.7c0-1.9-0.6-3.4-1.7-4.6C944.9,2033.4,943.4,2032.9,941.7,2032.9z M947.4,2020.1h5.4v30h-5.4v-2.3
		c-1.1,1-2.1,1.7-3.2,2.2c-1.1,0.4-2.2,0.7-3.5,0.7c-2.8,0-5.2-1.1-7.3-3.2c-2-2.2-3.1-4.9-3.1-8.1c0-3.3,1-6.1,3-8.2
		s4.4-3.2,7.2-3.2c1.3,0,2.5,0.2,3.7,0.7c1.1,0.5,2.2,1.2,3.2,2.2L947.4,2020.1L947.4,2020.1z M906.9,2028.4h5.4v2.2
		c1.2-1,2.4-1.7,3.3-2.2c1-0.4,2-0.6,3.1-0.6c2.1,0,4,0.7,5.5,2.2c1.3,1.3,1.9,3.2,1.9,5.6v14.3h-5.4v-9.5c0-2.6-0.1-4.3-0.3-5.1
		c-0.2-0.9-0.6-1.5-1.2-1.9s-1.3-0.7-2.1-0.7c-1.1,0-2,0.4-2.8,1.1s-1.3,1.8-1.6,3c-0.2,0.7-0.2,2.1-0.2,4.4v8.7h-5.4v-21.5H906.9z
		 M896.6,2028.4h5.4v21.6h-5.4V2028.4z M899.3,2019.5c1,0,1.8,0.3,2.4,1c0.7,0.7,1,1.5,1,2.5s-0.3,1.8-1,2.5s-1.5,1-2.4,1
		c-1,0-1.8-0.3-2.5-1s-1-1.5-1-2.5s0.3-1.8,1-2.4C897.5,2019.9,898.4,2019.5,899.3,2019.5z"/>
	<path class="st54" d="M988.2,2019.8c4.1-2.6,9.4-2.7,13.5-0.1l-6.8,10.4L988.2,2019.8z"/>
	<path class="st54" d="M985.3,2044.5c-2.2-4-3.6-7.9-3.5-11.4c0-3.9,1-7.1,2.5-9.5l7.3,11.3L985.3,2044.5z"/>
	<path class="st54" d="M1001.5,2049.8c-2,3-4.3,5.9-6.5,8.7c-2.2-2.8-4.6-5.8-6.6-8.9l6.5-9.8L1001.5,2049.8z"/>
	<path class="st54" d="M1008.1,2033.1c0.2,3.5-1.3,7.6-3.6,11.6l-6.5-9.9l7.5-11.4C1007.1,2025.8,1008.1,2029.1,1008.1,2033.1z"/>
	<path class="st55" d="M1009.4,2072.8c0.1,0,0.2-0.1,0.3-0.2c0.1-0.2,0.1-0.4,0.2-0.6c0-0.1,0-0.2,0.1-0.3c0-0.1,0.1-0.3,0.1-0.4
		c0-0.2,0.1-0.3,0.1-0.5s0.1-0.4,0.1-0.5l-0.1,0.1l-0.1,0.1c-0.1,0.1-0.2,0.2-0.3,0.3c-0.1,0.1-0.2,0.2-0.3,0.3
		c-0.1,0.1-0.2,0.2-0.2,0.4c-0.1,0.1-0.1,0.3-0.1,0.5s0,0.3,0,0.4c0,0.1,0,0.2,0.1,0.3C1009.3,2072.9,1009.4,2072.9,1009.4,2072.8
		C1009.3,2072.8,1009.3,2072.8,1009.4,2072.8z M1009.7,2069.1c0.1,0,0.2,0,0.3-0.1c0.1-0.1,0.2-0.1,0.3-0.2c0.1-0.1,0.1-0.2,0.2-0.2
		c0.1-0.1,0.1-0.1,0.1-0.2c0,0,0-0.1,0.1-0.2c0-0.1,0.1-0.2,0.1-0.2c0-0.1,0-0.1,0-0.2c0-0.1,0-0.1-0.1-0.1c0,0-0.1,0-0.1-0.1v-0.1
		v-0.1v-0.1c0-0.2-0.1-0.3-0.1-0.4c-0.1-0.1-0.1-0.1-0.2-0.1s-0.3,0.1-0.4,0.2c-0.1,0.1-0.2,0.2-0.3,0.4c-0.1,0.2-0.2,0.3-0.2,0.5
		c-0.1,0.2-0.1,0.4-0.1,0.6s0,0.4,0.1,0.5C1009.4,2069,1009.5,2069.1,1009.7,2069.1z M1010.7,2070.8c0,0.1-0.1,0.3-0.1,0.5
		s-0.1,0.4-0.1,0.6c-0.1,0.2-0.1,0.4-0.2,0.6s-0.1,0.4-0.2,0.6s-0.2,0.3-0.3,0.4c-0.1,0.1-0.2,0.2-0.3,0.2c-0.2,0-0.3-0.1-0.5-0.2
		c-0.1-0.1-0.2-0.2-0.3-0.4c-0.1-0.2-0.1-0.3-0.2-0.5c0-0.2-0.1-0.3-0.1-0.5s0-0.4,0.1-0.5c0-0.1,0.1-0.3,0.2-0.4
		c0.1-0.1,0.2-0.3,0.4-0.4c0.2-0.1,0.4-0.3,0.6-0.5c0.1-0.1,0.2-0.2,0.4-0.3c0.1-0.1,0.2-0.2,0.3-0.3c0-0.1,0.1-0.2,0.1-0.3
		c0-0.1,0-0.2,0.1-0.3c-0.1,0.2-0.3,0.3-0.5,0.5c-0.2,0.1-0.4,0.2-0.7,0.2c-0.2,0-0.4-0.1-0.6-0.3c-0.1-0.2-0.2-0.5-0.2-0.9
		c0-0.2,0-0.4,0.1-0.7c0.1-0.3,0.2-0.5,0.3-0.7c0.1-0.2,0.3-0.4,0.5-0.6s0.4-0.2,0.7-0.2c0.1,0,0.2,0,0.3,0.1
		c0.1,0.1,0.2,0.1,0.2,0.2c0.1,0.1,0.1,0.2,0.1,0.3c0,0.1,0.1,0.2,0.1,0.3v-0.1v-0.1c0.1-0.2,0.1-0.3,0.2-0.4
		c0.1-0.1,0.2-0.1,0.3-0.1c0.1,0,0.1,0,0.2,0s0.1,0.1,0.1,0.1c0,0.1,0,0.1-0.1,0.1v0.1v0.1c0,0.1,0,0.1-0.1,0.2c0,0,0,0.1-0.1,0.3
		c0,0.1-0.1,0.3-0.1,0.5s-0.1,0.4-0.1,0.6c-0.1,0.2-0.1,0.4-0.1,0.7c0.1-0.1,0.3-0.2,0.5-0.3c0.2-0.1,0.3-0.2,0.5-0.4
		c0.1-0.1,0.3-0.2,0.4-0.4c0.1-0.1,0.2-0.2,0.2-0.3c0-0.1,0.1-0.1,0.1-0.1c0.1,0,0.1,0,0.1,0s0.1,0,0.1,0.1c0,0,0,0.1-0.1,0.2
		c-0.1,0.2-0.3,0.4-0.4,0.6c-0.2,0.2-0.4,0.4-0.5,0.5c-0.2,0.2-0.4,0.3-0.5,0.4c-0.2,0.1-0.3,0.2-0.4,0.3c-0.1,0.2-0.1,0.4-0.1,0.6
		C1010.8,2070.4,1010.8,2070.5,1010.7,2070.8z M1007.2,2069.8c-0.1,0-0.2,0-0.3-0.1c-0.1,0-0.2-0.1-0.2-0.2
		c-0.1-0.1-0.1-0.2-0.1-0.3c0-0.1,0-0.2,0-0.3c0-0.1,0-0.2,0.1-0.3c0-0.1,0.1-0.3,0.1-0.4c0-0.1,0.1-0.3,0.1-0.4
		c0-0.1,0.1-0.3,0.1-0.4c0-0.1,0-0.2,0-0.3s-0.1-0.1-0.1-0.1c-0.1,0-0.2,0-0.3,0.1c-0.1,0.1-0.2,0.1-0.3,0.2
		c-0.1,0.1-0.2,0.2-0.3,0.3c-0.1,0.1-0.2,0.3-0.3,0.4c0,0.2-0.1,0.3-0.1,0.5c0,0.1-0.1,0.3-0.1,0.4c0,0.1,0,0.2-0.1,0.3
		c0,0.1,0,0.2-0.1,0.2c0,0.1-0.1,0.1-0.1,0.2c-0.1,0.1-0.2,0.1-0.3,0.1c-0.1,0-0.2,0-0.2,0c-0.1,0-0.1,0-0.1-0.1c0,0,0-0.1,0.1-0.2
		c0-0.1,0.1-0.2,0.1-0.4c0-0.2,0.1-0.3,0.1-0.5s0.1-0.3,0.1-0.5c0-0.1,0.1-0.3,0.1-0.4c0-0.1,0.1-0.3,0.1-0.4c0-0.2,0.1-0.4,0.1-0.6
		l0.1-0.1h0.1h0.1h0.1h0.1c0,0,0.1,0,0.1,0.1c0,0,0,0.1-0.1,0.2c0,0.1,0,0.1-0.1,0.2c0,0.1,0,0.2-0.1,0.3c0.1-0.1,0.1-0.2,0.2-0.3
		s0.2-0.2,0.3-0.3c0.1-0.1,0.2-0.1,0.3-0.2c0.1-0.1,0.2-0.1,0.4-0.1c0.1,0,0.2,0,0.3,0.1c0.1,0.1,0.1,0.1,0.2,0.2
		c0,0.1,0.1,0.2,0.1,0.4c0,0.1,0,0.3-0.1,0.5l-0.1,0.4c0,0.1-0.1,0.2-0.1,0.4s-0.1,0.3-0.1,0.5c0,0.1,0,0.2,0,0.3s0.1,0.1,0.2,0.1
		s0.2-0.1,0.4-0.2c0.1-0.1,0.3-0.3,0.4-0.4c0.1-0.2,0.3-0.3,0.4-0.5s0.2-0.3,0.3-0.4c0-0.1,0.1-0.1,0.1-0.1h0.1v0.1
		c0,0.1,0,0.1-0.1,0.2c0,0.1-0.1,0.2-0.2,0.3c-0.1,0.1-0.2,0.3-0.3,0.4c-0.1,0.1-0.2,0.3-0.3,0.4c-0.1,0.1-0.3,0.3-0.4,0.4
		C1007.5,2069.5,1007.3,2069.6,1007.2,2069.8C1007.5,2069.8,1007.3,2069.8,1007.2,2069.8z M1003.3,2066.5c0,0,0.1-0.1,0.2-0.1
		s0.2,0,0.2-0.1c0.1,0,0.2,0,0.2,0c0.1,0,0.1,0,0.1,0s0,0.1,0,0.2c0,0.1-0.1,0.2-0.1,0.4c0,0.1-0.1,0.3-0.2,0.4
		c-0.1,0.2-0.1,0.3-0.1,0.4c0,0.1-0.1,0.2-0.1,0.3c0,0.1-0.1,0.2-0.1,0.4c0,0.1,0,0.2-0.1,0.3c0,0.1,0,0.2,0,0.2
		c0,0.1,0.1,0.1,0.1,0.1h0.1c0.1,0,0.2-0.1,0.4-0.2c0.2-0.1,0.3-0.3,0.5-0.4c0.2-0.2,0.3-0.3,0.5-0.5c0.1-0.2,0.3-0.3,0.3-0.4
		c0-0.1,0.1-0.1,0.1-0.1h0.1v0.1c0,0,0,0.1-0.1,0.2c-0.1,0.1-0.2,0.3-0.4,0.5c-0.2,0.2-0.3,0.4-0.5,0.6s-0.4,0.3-0.5,0.5
		c-0.2,0.1-0.3,0.2-0.4,0.2s-0.2,0-0.3,0c-0.1,0-0.2-0.1-0.2-0.1c-0.1-0.1-0.1-0.1-0.2-0.2c0-0.1-0.1-0.2-0.1-0.3s0-0.3,0-0.5
		s0-0.5,0.1-0.7c0-0.2,0.1-0.5,0.2-0.7C1003.1,2066.8,1003.2,2066.6,1003.3,2066.5z M1004.4,2064.8c0,0.1,0,0.1-0.1,0.2
		c0,0.1-0.1,0.1-0.2,0.1s-0.1,0.1-0.2,0.1s-0.1,0-0.1,0c-0.1-0.1-0.2-0.2-0.2-0.3c0-0.1,0-0.2,0.1-0.3c0.1-0.1,0.1-0.2,0.2-0.2
		c0.1-0.1,0.1-0.1,0.2-0.1s0.1,0,0.1,0l0.1,0.1c0,0.1,0,0.1,0,0.2C1004.4,2064.8,1004.4,2064.8,1004.4,2064.8z M1002.8,2068.5
		c-0.2,0.3-0.4,0.5-0.6,0.7s-0.3,0.3-0.5,0.4c-0.1,0.1-0.2,0.1-0.3,0.2c-0.1,0-0.2,0-0.3,0c-0.1,0-0.2,0-0.3-0.1
		c-0.1,0-0.1-0.1-0.2-0.2c0-0.1-0.1-0.1-0.1-0.2c0-0.1,0-0.1-0.1-0.2c0-0.1,0-0.1-0.1-0.2c0-0.1,0-0.2-0.1-0.2
		c-0.1,0.1-0.2,0.2-0.3,0.4c-0.1,0.1-0.2,0.2-0.3,0.4c-0.1,0.1-0.3,0.3-0.4,0.4h-0.1H999c0,0-0.1,0-0.1-0.1c0,0,0,0,0-0.1
		c0,0,0,0,0-0.1v-0.1c0.2-0.2,0.3-0.3,0.5-0.5s0.3-0.3,0.4-0.5s0.3-0.3,0.4-0.5c-0.1-0.2-0.1-0.4-0.2-0.6s-0.1-0.3-0.1-0.4
		c-0.1-0.2-0.1-0.3-0.1-0.4c0-0.1-0.1-0.2-0.2-0.2c0.1-0.1,0.1-0.1,0.2-0.1s0.1-0.1,0.2-0.1s0.1,0,0.2,0s0.2,0.1,0.3,0.3
		c0.1,0.2,0.2,0.5,0.3,0.9c0,0,0,0,0,0.1c0.1-0.1,0.2-0.3,0.3-0.4c0.1-0.1,0.2-0.2,0.3-0.3c0.1-0.1,0.1-0.2,0.2-0.2
		c0-0.1,0.1-0.1,0.1-0.1c0.1-0.1,0.2-0.2,0.3-0.2c0.1,0,0.2,0,0.2,0.1c0,0,0.1,0,0.1,0.1c0.1,0,0.2,0.1,0.2,0.1
		c-0.1,0.1-0.2,0.2-0.3,0.3c-0.1,0.1-0.2,0.2-0.3,0.3c-0.1,0.1-0.2,0.2-0.3,0.3c-0.1,0.1-0.2,0.2-0.3,0.3c-0.1,0.1-0.2,0.2-0.3,0.4
		c0,0.1,0.1,0.3,0.1,0.4c0,0.1,0.1,0.2,0.1,0.3c0,0.1,0.1,0.2,0.1,0.2c0,0.1,0.1,0.1,0.2,0.1s0.2,0,0.3-0.1c0.1,0,0.2-0.1,0.3-0.2
		c0.1-0.1,0.2-0.2,0.4-0.3c0.1-0.1,0.2-0.2,0.4-0.3l0.1-0.1h0.1v0.1C1002.9,2068.4,1002.9,2068.4,1002.8,2068.5z M997.9,2066.6
		c-0.1,0-0.1,0-0.2,0.1c-0.1,0.1-0.2,0.2-0.3,0.3c-0.1,0.1-0.2,0.3-0.2,0.4c-0.1,0.2-0.1,0.4-0.2,0.6c0.1,0,0.1-0.1,0.2-0.1
		c0.1-0.1,0.1-0.1,0.2-0.2c0.2-0.2,0.4-0.3,0.5-0.5c0.1-0.1,0.1-0.2,0.2-0.3c0-0.1,0-0.2,0-0.2C998,2066.8,998,2066.6,997.9,2066.6z
		 M999.9,2067.9c-0.2,0.2-0.3,0.5-0.5,0.7s-0.4,0.4-0.6,0.6s-0.5,0.3-0.7,0.4c-0.2,0.1-0.5,0.2-0.7,0.2c-0.1,0-0.2,0-0.4-0.1
		c-0.1-0.1-0.3-0.1-0.4-0.3c-0.1-0.1-0.2-0.3-0.3-0.5c-0.1-0.2-0.1-0.4-0.1-0.7c0-0.2,0.1-0.4,0.2-0.7c0.1-0.2,0.3-0.5,0.4-0.7
		c0.2-0.2,0.4-0.4,0.6-0.5c0.2-0.1,0.4-0.2,0.6-0.2s0.3,0.1,0.4,0.2c0.1,0.1,0.1,0.2,0.1,0.4c0,0.2-0.1,0.3-0.1,0.5
		c-0.1,0.1-0.2,0.3-0.3,0.4c-0.1,0.1-0.2,0.2-0.3,0.3c-0.1,0.1-0.2,0.2-0.3,0.2c-0.1,0.1-0.2,0.2-0.3,0.2c-0.1,0.1-0.2,0.1-0.3,0.2
		c0,0.1,0,0.2,0.1,0.3c0,0.1,0.1,0.2,0.2,0.2c0.1,0.1,0.1,0.1,0.2,0.1s0.2,0,0.3,0c0.2,0,0.4-0.1,0.6-0.2c0.2-0.1,0.4-0.3,0.6-0.4
		c0.2-0.2,0.4-0.3,0.5-0.5c0.2-0.2,0.3-0.3,0.4-0.5l0.1-0.1h0.1v0.1C1000,2067.8,1000,2067.8,999.9,2067.9z M994.4,2068.1
		c0-0.1,0-0.2,0.1-0.3c0-0.1,0-0.2,0.1-0.3l0,0l0,0c-0.1,0-0.1,0-0.1,0v-0.1c0,0,0-0.1,0-0.2c0-0.1,0-0.2,0-0.3
		c0-0.1-0.1-0.2-0.1-0.2c0-0.1-0.1-0.1-0.2-0.1s-0.2,0.1-0.4,0.2c-0.1,0.1-0.2,0.3-0.4,0.5c-0.1,0.2-0.2,0.4-0.3,0.6
		c-0.1,0.2-0.1,0.4-0.1,0.5c0,0.3,0,0.4,0.1,0.6c0.1,0.1,0.2,0.2,0.3,0.2c0.1,0,0.2,0,0.3-0.1c0.1-0.1,0.2-0.2,0.3-0.3
		c0.1-0.1,0.2-0.2,0.3-0.3C994.3,2068.3,994.4,2068.3,994.4,2068.1z M994.9,2068c0,0.2-0.1,0.3-0.1,0.5c0,0.1,0,0.3,0,0.4
		c0,0.1,0,0.2,0.1,0.3c0.1,0.1,0.1,0.1,0.2,0.1s0.2,0,0.3-0.1c0.1-0.1,0.2-0.2,0.3-0.3c0.1-0.1,0.2-0.2,0.4-0.4
		c0.1-0.1,0.2-0.3,0.3-0.4c0.1-0.1,0.2-0.2,0.3-0.3c0.1-0.1,0.1-0.1,0.1-0.2l0.1-0.1h0.1c0,0,0,0,0,0.1c0,0,0,0.1-0.1,0.2
		c-0.1,0.1-0.1,0.2-0.2,0.4c-0.1,0.1-0.2,0.3-0.3,0.4c-0.1,0.1-0.3,0.3-0.4,0.4c-0.1,0.1-0.3,0.3-0.4,0.4c-0.1,0.1-0.3,0.2-0.4,0.3
		c-0.1,0.1-0.2,0.1-0.3,0.1c-0.1,0-0.1,0-0.2-0.1c-0.1,0-0.1-0.1-0.2-0.2c-0.1-0.1-0.1-0.1-0.1-0.2c0-0.1,0-0.2,0-0.3
		c0,0,0-0.1,0-0.2c-0.2,0.2-0.4,0.4-0.7,0.6c-0.2,0.1-0.4,0.2-0.6,0.2c-0.1,0-0.2,0-0.2-0.1c-0.1,0-0.2-0.1-0.2-0.2
		c0-0.1-0.1-0.2-0.2-0.3c0-0.1-0.1-0.3-0.1-0.5c0-0.3,0.1-0.6,0.2-0.9s0.2-0.5,0.4-0.7c0.2-0.2,0.3-0.4,0.5-0.5
		c0.2-0.1,0.4-0.2,0.6-0.2c0.1,0,0.2,0,0.2,0.1c0.1,0,0.1,0.1,0.2,0.2c0.1,0.1,0.1,0.1,0.1,0.2c0,0.1,0.1,0.2,0.1,0.2
		c0-0.2,0.1-0.3,0.1-0.5c0-0.1,0.1-0.3,0.1-0.4c0.1-0.2,0.1-0.4,0.2-0.6s0.1-0.4,0.2-0.7c0.1-0.3,0.1-0.5,0.2-0.8
		c0.1,0,0.1-0.1,0.2-0.1h0.1h0.1c0.1,0,0.1,0,0.1,0s0.1,0,0.1,0.1c0,0.1,0.1,0.1,0.1,0.3c0,0.1,0,0.3,0,0.5s-0.1,0.5-0.1,0.8
		c-0.1,0.3-0.2,0.6-0.3,0.9c-0.1,0.3-0.3,0.6-0.4,0.9C995.3,2067.5,995.1,2067.8,994.9,2068z M991,2069.8c-0.1,0-0.2,0-0.3-0.1
		c-0.1,0-0.2-0.1-0.2-0.2c-0.1-0.1-0.1-0.2-0.1-0.3c0-0.1,0-0.2,0-0.3c0-0.1,0-0.2,0.1-0.3c0-0.1,0.1-0.3,0.1-0.4
		c0-0.1,0.1-0.3,0.1-0.4c0-0.1,0.1-0.3,0.1-0.4c0-0.1,0-0.2,0-0.3s-0.1-0.1-0.1-0.1c-0.1,0-0.2,0-0.3,0.1c-0.1,0.1-0.2,0.1-0.3,0.2
		c-0.1,0.1-0.2,0.2-0.3,0.3c-0.1,0.1-0.2,0.3-0.3,0.4c0,0.2-0.1,0.3-0.1,0.5c0,0.1-0.1,0.3-0.1,0.4c0,0.1,0,0.2-0.1,0.3
		c0,0.1,0,0.2-0.1,0.2c0,0.1-0.1,0.1-0.1,0.2c-0.1,0.1-0.2,0.1-0.3,0.1c-0.1,0-0.2,0-0.2,0c-0.1,0-0.1,0-0.1-0.1c0,0,0-0.1,0.1-0.2
		c0-0.1,0.1-0.2,0.1-0.4c0-0.2,0.1-0.3,0.1-0.5s0.1-0.3,0.1-0.5c0-0.1,0.1-0.3,0.1-0.4c0-0.1,0.1-0.3,0.1-0.4c0-0.2,0.1-0.4,0.1-0.6
		l0.1-0.1h0.1h0.1h0.1h0.1c0,0,0.1,0,0.1,0.1c0,0,0,0.1-0.1,0.2c0,0.1,0,0.1-0.1,0.2c0,0.1,0,0.2-0.1,0.3c0.1-0.1,0.1-0.2,0.2-0.3
		s0.2-0.2,0.3-0.3c0.1-0.1,0.2-0.1,0.3-0.2c0.1-0.1,0.2-0.1,0.4-0.1c0.1,0,0.2,0,0.3,0.1c0.1,0.1,0.1,0.1,0.2,0.2
		c0,0.1,0.1,0.2,0.1,0.4c0,0.1,0,0.3-0.1,0.5l-0.1,0.4c0,0.1-0.1,0.2-0.1,0.4s-0.1,0.3-0.1,0.5c0,0.1,0,0.2,0,0.3s0.1,0.1,0.2,0.1
		s0.2-0.1,0.4-0.2c0.1-0.1,0.3-0.3,0.4-0.4c0.1-0.2,0.3-0.3,0.4-0.5s0.2-0.3,0.3-0.4c0-0.1,0.1-0.1,0.1-0.1h0.1v0.1
		c0,0.1,0,0.1-0.1,0.2c0,0.1-0.1,0.2-0.2,0.3c-0.1,0.1-0.2,0.3-0.3,0.4c-0.1,0.1-0.2,0.3-0.3,0.4c-0.1,0.1-0.3,0.3-0.4,0.4
		C991.3,2069.5,991.1,2069.6,991,2069.8C991.2,2069.8,991.1,2069.8,991,2069.8z M987,2066.5c0,0,0.1-0.1,0.2-0.1s0.2,0,0.2-0.1
		c0.1,0,0.2,0,0.2,0c0.1,0,0.1,0,0.1,0s0,0.1,0,0.2c0,0.1-0.1,0.2-0.1,0.4c0,0.1-0.1,0.3-0.2,0.4c-0.1,0.2-0.1,0.3-0.1,0.4
		c0,0.1-0.1,0.2-0.1,0.3c0,0.1-0.1,0.2-0.1,0.4c0,0.1-0.1,0.2-0.1,0.3s0,0.2,0,0.2c0,0.1,0.1,0.1,0.1,0.1h0.1c0.1,0,0.2-0.1,0.4-0.2
		c0.2-0.1,0.3-0.3,0.5-0.4c0.2-0.2,0.3-0.3,0.5-0.5c0.1-0.2,0.3-0.3,0.3-0.4c0-0.1,0.1-0.1,0.1-0.1h0.1v0.1c0,0,0,0.1-0.1,0.2
		c-0.1,0.1-0.2,0.3-0.4,0.5c-0.2,0.2-0.3,0.4-0.5,0.6s-0.4,0.3-0.5,0.5c-0.2,0.1-0.3,0.2-0.4,0.2s-0.2,0-0.3,0
		c-0.1,0-0.2-0.1-0.2-0.1c-0.1-0.1-0.1-0.1-0.2-0.2c0-0.1-0.1-0.2-0.1-0.3s0-0.3,0-0.5s0-0.5,0.1-0.7c0-0.2,0.1-0.5,0.2-0.7
		C986.9,2066.8,986.9,2066.6,987,2066.5z M988.1,2064.8c0,0.1,0,0.1-0.1,0.2c0,0.1-0.1,0.1-0.2,0.1s-0.1,0.1-0.2,0.1s-0.1,0-0.1,0
		c-0.1-0.1-0.2-0.2-0.2-0.3c0-0.1,0-0.2,0.1-0.3c0.1-0.1,0.1-0.2,0.2-0.2c0.1-0.1,0.1-0.1,0.2-0.1s0.1,0,0.1,0l0.1,0.1
		c0,0.1,0,0.1,0,0.2C988.1,2064.8,988.1,2064.8,988.1,2064.8z"/>
	<path class="st55" d="M1039.7,2067.8L1039.7,2067.8l0.2-0.1v0.1c0,0,0,0.1-0.1,0.2c-0.1,0.1-0.2,0.3-0.4,0.4
		c-0.1,0.1-0.3,0.3-0.4,0.4c-0.2,0.1-0.3,0.3-0.5,0.4c-0.2,0.1-0.3,0.2-0.4,0.3c-0.2,0.1-0.3,0.1-0.4,0.1s-0.2-0.1-0.3-0.2
		c-0.1-0.1-0.1-0.3-0.1-0.4c0-0.1,0-0.3,0.1-0.5c0-0.1,0.1-0.3,0.2-0.5s0.1-0.4,0.2-0.5c0-0.2,0.1-0.3,0-0.4c0-0.1-0.1-0.2-0.2-0.2
		s-0.2,0-0.3,0.1c-0.1,0.1-0.2,0.1-0.3,0.2c-0.1,0.1-0.2,0.2-0.3,0.3c-0.1,0.1-0.2,0.2-0.2,0.3c0,0.2-0.1,0.4-0.1,0.6
		s-0.1,0.4-0.1,0.6s-0.1,0.4-0.1,0.5c0,0-0.1,0-0.1,0.1h-0.1h-0.1h-0.1c0,0-0.1,0-0.1-0.1l-0.1-0.1c0.2-1,0.4-1.8,0.6-2.4
		c0.1-0.6,0.2-1.1,0.3-1.4c0.1-0.4,0.1-0.6,0.2-0.8c0-0.1,0-0.2,0-0.3c0-0.1,0-0.2,0-0.3c0-0.1,0-0.2,0-0.2s0.1,0,0.1-0.1
		c0.1,0,0.1,0,0.1,0c0.1,0,0.1,0,0.2,0s0.1,0,0.2,0h0.1c0,0,0.1,0,0.1,0.1c0,0,0,0.1,0,0.2c0,0.1,0,0.2,0,0.2c0,0.1,0,0.2-0.1,0.3
		c-0.1,0.4-0.2,0.8-0.4,1.3c-0.1,0.4-0.3,0.8-0.4,1.3c0.1-0.1,0.2-0.2,0.2-0.3c0.1-0.1,0.2-0.2,0.3-0.3c0.1-0.1,0.2-0.2,0.4-0.2
		c0.1-0.1,0.3-0.1,0.4-0.1s0.1,0,0.2,0s0.1,0.1,0.2,0.1c0.1,0.1,0.1,0.1,0.1,0.2c0,0.1,0,0.2,0,0.3s0,0.2,0,0.3s0,0.2-0.1,0.3
		c0,0.1-0.1,0.2-0.1,0.4c-0.1,0.1-0.1,0.3-0.2,0.5c0,0.1-0.1,0.2-0.1,0.3c0,0.1,0,0.2,0,0.2c0,0.1,0.1,0.1,0.3,0.1
		c0.1,0,0.4-0.2,0.6-0.4c0.1-0.1,0.1-0.1,0.2-0.2c0.1-0.1,0.2-0.2,0.2-0.2c0.1-0.1,0.1-0.2,0.2-0.2
		C1039.6,2067.9,1039.7,2067.8,1039.7,2067.8z M1032.6,2072.8c0.1,0,0.2-0.1,0.3-0.2c0.1-0.2,0.1-0.4,0.2-0.6c0-0.1,0-0.2,0.1-0.3
		c0-0.1,0.1-0.3,0.1-0.4c0-0.2,0.1-0.3,0.1-0.5s0.1-0.4,0.1-0.5l-0.1,0.1l-0.1,0.1c-0.1,0.1-0.2,0.2-0.3,0.3
		c-0.1,0.1-0.2,0.2-0.3,0.3c-0.1,0.1-0.2,0.2-0.2,0.4c-0.1,0.1-0.1,0.3-0.1,0.5s0,0.3,0,0.4c0,0.1,0,0.2,0.1,0.3
		C1032.5,2072.9,1032.6,2072.9,1032.6,2072.8C1032.5,2072.8,1032.5,2072.8,1032.6,2072.8z M1032.9,2069.1c0.1,0,0.2,0,0.3-0.1
		c0.1-0.1,0.2-0.1,0.3-0.2c0.1-0.1,0.1-0.2,0.2-0.2c0.1-0.1,0.1-0.1,0.1-0.2c0,0,0-0.1,0.1-0.2c0-0.1,0.1-0.2,0.1-0.2
		c0-0.1,0-0.1,0-0.2c0-0.1,0-0.1-0.1-0.1c0,0-0.1,0-0.1-0.1v-0.1v-0.1v-0.1c0-0.2-0.1-0.3-0.1-0.4c-0.1-0.1-0.1-0.1-0.2-0.1
		s-0.3,0.1-0.4,0.2c-0.1,0.1-0.2,0.2-0.3,0.4c-0.1,0.2-0.2,0.3-0.2,0.5c-0.1,0.2-0.1,0.4-0.1,0.6s0,0.4,0.1,0.5
		C1032.6,2069,1032.7,2069.1,1032.9,2069.1z M1033.9,2070.8c0,0.1-0.1,0.3-0.1,0.5s-0.1,0.4-0.1,0.6c-0.1,0.2-0.1,0.4-0.2,0.6
		s-0.1,0.4-0.2,0.6s-0.2,0.3-0.3,0.4c-0.1,0.1-0.2,0.2-0.3,0.2c-0.2,0-0.3-0.1-0.5-0.2c-0.1-0.1-0.2-0.2-0.3-0.4
		c-0.1-0.2-0.1-0.3-0.2-0.5c0-0.2-0.1-0.3-0.1-0.5s0-0.4,0.1-0.5c0-0.1,0.1-0.3,0.2-0.4c0.1-0.1,0.2-0.3,0.4-0.4
		c0.2-0.1,0.4-0.3,0.6-0.5c0.1-0.1,0.2-0.2,0.4-0.3c0.1-0.1,0.2-0.2,0.3-0.3c0-0.1,0.1-0.2,0.1-0.3c0-0.1,0-0.2,0.1-0.3
		c-0.1,0.2-0.3,0.3-0.5,0.5c-0.2,0.1-0.4,0.2-0.7,0.2c-0.2,0-0.4-0.1-0.6-0.3c-0.1-0.2-0.2-0.5-0.2-0.9c0-0.2,0-0.4,0.1-0.7
		c0.1-0.3,0.2-0.5,0.3-0.7c0.1-0.2,0.3-0.4,0.5-0.6s0.4-0.2,0.7-0.2c0.1,0,0.2,0,0.3,0.1c0.1,0.1,0.2,0.1,0.2,0.2
		c0.1,0.1,0.1,0.2,0.1,0.3c0,0.1,0.1,0.2,0.1,0.3v-0.1v-0.1c0.1-0.2,0.1-0.3,0.2-0.4c0.1-0.1,0.2-0.1,0.3-0.1c0.1,0,0.1,0,0.2,0
		l0.1,0.1c0,0.1,0,0.1-0.1,0.1v0.1v0.1c0,0.1,0,0.1-0.1,0.2c0,0,0,0.1-0.1,0.3c0,0.1-0.1,0.3-0.1,0.5s-0.1,0.4-0.1,0.6
		c-0.1,0.2-0.1,0.4-0.1,0.7c0.1-0.1,0.3-0.2,0.5-0.3c0.2-0.1,0.3-0.2,0.5-0.4c0.1-0.1,0.3-0.2,0.4-0.4c0.1-0.1,0.2-0.2,0.2-0.3
		c0-0.1,0.1-0.1,0.1-0.1c0.1,0,0.1,0,0.1,0s0.1,0,0.1,0.1c0,0,0,0.1-0.1,0.2c-0.1,0.2-0.3,0.4-0.4,0.6c-0.2,0.2-0.4,0.4-0.5,0.5
		c-0.2,0.2-0.4,0.3-0.5,0.4c-0.2,0.1-0.3,0.2-0.4,0.3c-0.1,0.2-0.1,0.4-0.1,0.6C1034,2070.4,1034,2070.5,1033.9,2070.8z
		 M1030.2,2066.5c0,0,0.1-0.1,0.2-0.1s0.1,0,0.2-0.1c0.1,0,0.2,0,0.2,0c0.1,0,0.1,0,0.1,0s0,0.1,0,0.2c0,0.1-0.1,0.2-0.1,0.4
		c0,0.1-0.1,0.3-0.2,0.4c-0.1,0.2-0.1,0.3-0.1,0.4c0,0.1-0.1,0.2-0.1,0.3c0,0.1-0.1,0.2-0.1,0.4c0,0.1,0,0.2-0.1,0.3
		c0,0.1,0,0.2,0,0.2c0,0.1,0.1,0.1,0.1,0.1h0.1c0.1,0,0.2-0.1,0.4-0.2c0.2-0.1,0.3-0.3,0.5-0.4c0.2-0.2,0.3-0.3,0.5-0.5
		c0.1-0.2,0.3-0.3,0.3-0.4c0-0.1,0.1-0.1,0.1-0.1h0.1v0.1c0,0,0,0.1-0.1,0.2c-0.1,0.1-0.2,0.3-0.4,0.5c-0.2,0.2-0.3,0.4-0.5,0.6
		s-0.4,0.3-0.5,0.5c-0.2,0.1-0.3,0.2-0.4,0.2s-0.2,0-0.3,0c-0.1,0-0.2-0.1-0.2-0.1c-0.1-0.1-0.1-0.1-0.2-0.2c0-0.1-0.1-0.2-0.1-0.3
		s0-0.3,0-0.5s0-0.5,0.1-0.7c0-0.2,0.1-0.5,0.2-0.7C1030.1,2066.8,1030.2,2066.6,1030.2,2066.5z M1031.3,2064.8c0,0.1,0,0.1-0.1,0.2
		c0,0.1-0.1,0.1-0.2,0.1s-0.1,0.1-0.2,0.1s-0.1,0-0.1,0c-0.1-0.1-0.2-0.2-0.2-0.3c0-0.1,0-0.2,0.1-0.3c0.1-0.1,0.1-0.2,0.2-0.2
		c0.1-0.1,0.1-0.1,0.2-0.1s0.1,0,0.1,0l0.1,0.1c0,0.1,0,0.1,0,0.2C1031.4,2064.8,1031.4,2064.8,1031.3,2064.8z M1026,2069.5
		c0,0.1-0.1,0.1-0.1,0.1h-0.1c0,0-0.1,0-0.1-0.1c0,0,0-0.1,0-0.2c0,0,0.1-0.1,0.1-0.2c0.1-0.1,0.1-0.2,0.2-0.4s0.2-0.3,0.3-0.5
		c0.1-0.2,0.2-0.4,0.3-0.5c0.1-0.2,0.2-0.3,0.2-0.4c0.1-0.1,0.1-0.2,0.2-0.3c-0.1-0.1-0.1-0.1-0.1-0.1s0-0.1,0-0.2
		c0-0.1,0-0.2,0-0.3s0.1-0.2,0.2-0.3s0.1-0.2,0.2-0.3s0.2-0.1,0.2-0.1c0.1,0,0.3,0,0.3,0.1c0.1,0.1,0.1,0.2,0.1,0.3
		c0,0.1,0,0.2,0,0.3c0,0.1-0.1,0.2-0.1,0.3c0,0,0,0,0.1,0h0.1c0.1,0,0.1,0,0.2,0c0,0,0.1,0,0.2,0s0.2,0,0.2,0.1
		c0.1,0,0.1,0.1,0.1,0.2c0,0.1,0.1,0.1,0.1,0.2c0,0.1,0,0.1,0,0.2c0,0.1,0,0.3-0.1,0.4c-0.1,0.1-0.2,0.3-0.3,0.5
		c-0.1,0.1-0.1,0.2-0.2,0.4c-0.1,0.1-0.1,0.3-0.1,0.4c0,0.1,0,0.1,0.1,0.2c0,0,0.1,0.1,0.2,0.1s0.2,0,0.3-0.1
		c0.1-0.1,0.2-0.2,0.3-0.3c0.1-0.1,0.2-0.2,0.3-0.3s0.2-0.2,0.3-0.4c0.1-0.1,0.2-0.2,0.2-0.3c0.1-0.1,0.1-0.2,0.1-0.2l0.1-0.1h0.1
		l0.1,0.1c0,0,0,0.1-0.1,0.2c0,0.1-0.1,0.1-0.2,0.3c-0.1,0.1-0.2,0.2-0.3,0.4c-0.1,0.1-0.2,0.3-0.4,0.4c-0.1,0.2-0.3,0.3-0.4,0.4
		c-0.1,0.1-0.3,0.2-0.4,0.3c-0.1,0.1-0.3,0.1-0.4,0.1s-0.3,0-0.3-0.1c-0.1-0.1-0.2-0.1-0.2-0.2c-0.1-0.1-0.1-0.2-0.1-0.3
		s0-0.2,0-0.3s0-0.1,0.1-0.2c0-0.1,0.1-0.1,0.1-0.2c0-0.1,0.1-0.2,0.1-0.2c0-0.1,0.1-0.2,0.1-0.2c0.1-0.2,0.2-0.3,0.2-0.4
		c0.1-0.1,0.1-0.2,0.1-0.3v-0.1l-0.1-0.1h-0.1l0,0c0,0,0,0-0.1,0h-0.1c-0.1,0-0.1,0-0.2,0h-0.1c0,0-0.1,0.1-0.1,0.2
		c-0.1,0.1-0.2,0.3-0.3,0.4c-0.1,0.2-0.2,0.3-0.3,0.5c-0.1,0.2-0.2,0.3-0.3,0.5c-0.1,0.2-0.2,0.3-0.2,0.4
		C1026,2069.4,1026,2069.5,1026,2069.5z M1022.5,2066.6c-0.1,0-0.1,0-0.2,0.1c-0.1,0.1-0.2,0.2-0.3,0.3c-0.1,0.1-0.2,0.3-0.2,0.4
		c-0.1,0.2-0.1,0.4-0.2,0.6c0.1,0,0.1-0.1,0.2-0.1c0.1-0.1,0.1-0.1,0.2-0.2c0.2-0.2,0.4-0.3,0.5-0.5c0.1-0.1,0.1-0.2,0.2-0.3
		c0-0.1,0-0.2,0-0.2C1022.6,2066.8,1022.6,2066.6,1022.5,2066.6z M1024.6,2067.9c-0.2,0.2-0.3,0.5-0.5,0.7s-0.4,0.4-0.6,0.6
		s-0.5,0.3-0.7,0.4c-0.2,0.1-0.5,0.2-0.7,0.2c-0.1,0-0.2,0-0.4-0.1c-0.2-0.1-0.3-0.1-0.4-0.3c-0.1-0.1-0.2-0.3-0.3-0.5
		c-0.1-0.2-0.1-0.4-0.1-0.7c0-0.2,0.1-0.4,0.2-0.7c0.1-0.2,0.3-0.5,0.4-0.7c0.2-0.2,0.4-0.4,0.6-0.5c0.2-0.1,0.4-0.2,0.6-0.2
		s0.3,0.1,0.4,0.2c0.1,0.1,0.1,0.2,0.1,0.4c0,0.2-0.1,0.3-0.1,0.5c-0.1,0.1-0.2,0.3-0.3,0.4c-0.1,0.1-0.2,0.2-0.3,0.3
		c-0.1,0.1-0.2,0.2-0.3,0.2c-0.1,0.1-0.2,0.2-0.3,0.2c-0.1,0.1-0.2,0.1-0.3,0.2c0,0.1,0,0.2,0.1,0.3c0,0.1,0.1,0.2,0.2,0.2
		c0.1,0.1,0.1,0.1,0.2,0.1s0.2,0,0.3,0c0.2,0,0.4-0.1,0.6-0.2c0.2-0.1,0.4-0.3,0.6-0.4c0.2-0.2,0.4-0.3,0.5-0.5
		c0.2-0.2,0.3-0.3,0.4-0.5l0.1-0.1h0.1v0.1C1024.6,2067.8,1024.6,2067.8,1024.6,2067.9z M1021.3,2067.8L1021.3,2067.8l0.2-0.1v0.1
		c0,0,0,0.1-0.1,0.2c-0.1,0.1-0.2,0.3-0.3,0.4c-0.1,0.1-0.3,0.3-0.4,0.4c-0.2,0.1-0.3,0.3-0.5,0.4c-0.2,0.1-0.3,0.2-0.4,0.3
		c-0.2,0.1-0.3,0.1-0.4,0.1s-0.2-0.1-0.3-0.2c-0.1-0.1-0.1-0.3-0.1-0.4c0-0.1,0-0.3,0.1-0.5c0-0.1,0.1-0.3,0.2-0.5s0.1-0.4,0.2-0.5
		c0-0.2,0.1-0.3,0-0.4c0-0.1-0.1-0.2-0.2-0.2s-0.2,0-0.3,0.1c-0.1,0.1-0.2,0.1-0.3,0.2c-0.1,0.1-0.2,0.2-0.3,0.3
		c-0.1,0.1-0.2,0.2-0.2,0.3c0,0.2-0.1,0.4-0.1,0.6s-0.1,0.4-0.1,0.6s-0.1,0.4-0.1,0.5c0,0-0.1,0-0.1,0.1h-0.1h-0.1h-0.1
		c0,0-0.1,0-0.1-0.1l-0.1-0.1c0.2-1,0.4-1.8,0.6-2.4c0.1-0.6,0.2-1.1,0.3-1.4c0.1-0.4,0.1-0.6,0.2-0.8c0-0.1,0-0.2,0-0.3
		c0-0.1,0-0.2,0-0.3c0-0.1,0-0.2,0-0.2s0.1,0,0.1-0.1c0.1,0,0.1,0,0.1,0c0.1,0,0.1,0,0.2,0s0.1,0,0.2,0h0.1c0,0,0.1,0,0.1,0.1
		c0,0,0,0.1,0,0.2c0,0.1,0,0.2,0,0.2c0,0.1,0,0.2-0.1,0.3c-0.1,0.4-0.2,0.8-0.4,1.3c-0.1,0.4-0.3,0.8-0.4,1.3
		c0.1-0.1,0.2-0.2,0.2-0.3c0.1-0.1,0.2-0.2,0.3-0.3c0.1-0.1,0.2-0.2,0.4-0.2c0.1-0.1,0.3-0.1,0.4-0.1s0.1,0,0.2,0s0.1,0.1,0.2,0.1
		c0.1,0.1,0.1,0.1,0.1,0.2c0,0.1,0,0.2,0,0.3s0,0.2,0,0.3s0,0.2-0.1,0.3c0,0.1-0.1,0.2-0.1,0.4c-0.1,0.1-0.1,0.3-0.2,0.5
		c0,0.1-0.1,0.2-0.1,0.3c0,0.1,0,0.2,0,0.2c0,0.1,0.1,0.1,0.3,0.1c0.1,0,0.4-0.2,0.6-0.4c0.1-0.1,0.1-0.1,0.2-0.2
		c0.1-0.1,0.2-0.2,0.2-0.2c0.1-0.1,0.1-0.2,0.2-0.2C1021.2,2067.9,1021.2,2067.8,1021.3,2067.8z M1017.6,2067.5
		C1017.6,2067.5,1017.7,2067.5,1017.6,2067.5c0.1-0.1,0.1-0.1,0.2,0c0,0,0,0,0,0.1c0,0,0,0.1,0,0.2c-0.1,0.2-0.2,0.4-0.4,0.7
		c-0.2,0.2-0.4,0.5-0.5,0.7c-0.2,0.2-0.4,0.4-0.6,0.5c-0.2,0.1-0.3,0.2-0.5,0.2s-0.3,0-0.4-0.1c-0.1-0.1-0.2-0.2-0.3-0.3
		c-0.1-0.1-0.1-0.2-0.1-0.3c0-0.1,0-0.2,0-0.3c0-0.1,0-0.2,0.1-0.5c0-0.2,0.1-0.5,0.1-0.8c0.1-0.3,0.1-0.6,0.2-0.9s0.1-0.7,0.2-1
		c-0.1,0-0.2,0-0.3,0c-0.1,0-0.2,0-0.2,0c-0.2,0-0.3,0-0.5-0.1c-0.2,0-0.3-0.1-0.3-0.1l-0.1-0.1v-0.1l0.1-0.1h0.1c0.1,0,0.2,0,0.3,0
		c0.1,0,0.2,0,0.4,0c0.1,0,0.2,0,0.3,0c0.1,0,0.2,0,0.3,0c0.1-0.3,0.1-0.5,0.2-0.7s0.1-0.3,0.2-0.4l0.1-0.1c0.1,0,0.1,0,0.2,0
		s0.1,0,0.2,0s0.1,0,0.1,0.1c0,0,0,0.2,0,0.3c0,0.2,0,0.4-0.1,0.7c0.2,0,0.4,0,0.6,0s0.3,0.1,0.4,0.1s0.2,0.1,0.3,0.1
		c0.1,0,0.1,0,0.2,0.1c0,0,0.1,0,0.1,0.1v0.1c0,0,0,0.1-0.1,0.1h-0.1c-0.1,0-0.1,0-0.2,0s-0.1,0-0.2,0s-0.2,0-0.3,0
		c-0.1,0-0.3,0-0.4,0h-0.1h-0.1c0,0.1,0,0.2-0.1,0.3c0,0.1,0,0.2-0.1,0.3c-0.1,0.2-0.1,0.4-0.2,0.7c-0.1,0.2-0.2,0.5-0.3,0.7
		c-0.1,0.3-0.2,0.6-0.4,0.9c0,0.2,0,0.4,0,0.5c0,0.1,0.1,0.2,0.1,0.3c0.1,0.1,0.2,0.1,0.3,0.1c0.1,0,0.2,0,0.3-0.1
		c0.1-0.1,0.2-0.2,0.4-0.3c0.1-0.1,0.2-0.2,0.4-0.4c0.1-0.1,0.2-0.3,0.3-0.4c0.1-0.1,0.2-0.2,0.3-0.3
		C1017.5,2067.6,1017.6,2067.6,1017.6,2067.5z"/>
	<path class="st55" d="M1055.1,2066.6c0.1-0.1,0.1-0.1,0.2-0.1s0.1,0,0.2-0.1c0.1,0,0.1,0,0.2,0s0.2,0.1,0.3,0.1c0,0.1,0,0.2,0,0.4
		c0,0.1,0,0.2-0.1,0.3c0,0.1-0.1,0.3-0.2,0.5s-0.1,0.4-0.2,0.7s-0.1,0.5-0.2,0.9c-0.1,0.3-0.1,0.6-0.2,0.9s-0.1,0.7-0.2,1.1
		c-0.1,0.4-0.2,0.9-0.3,1.4c0,0.1-0.1,0.2-0.2,0.2s-0.2,0-0.3,0c0,0-0.1,0-0.1-0.1l-0.1-0.1l-0.1-0.1c0.1-0.4,0.2-0.9,0.3-1.2
		c0.1-0.4,0.2-0.7,0.3-1c0.1-0.3,0.2-0.6,0.2-0.8c0-0.1,0.1-0.2,0.1-0.3c0-0.1,0-0.2,0.1-0.3c-0.1,0.1-0.1,0.2-0.2,0.3
		s-0.2,0.2-0.3,0.3c-0.1,0.1-0.2,0.1-0.3,0.2c-0.1,0-0.2,0.1-0.3,0c-0.3,0-0.5-0.1-0.6-0.3c-0.1-0.2-0.2-0.4-0.2-0.7
		c0-0.1,0-0.2,0-0.4c0-0.1,0.1-0.3,0.1-0.4c0-0.1,0.1-0.2,0.1-0.3c0-0.1,0.1-0.2,0.1-0.2c0.1-0.2,0.1-0.4,0.1-0.5
		c0-0.1,0-0.3-0.1-0.4c0.1,0,0.1-0.1,0.2-0.1s0.1,0,0.2,0s0.1,0,0.2,0s0.2,0.1,0.3,0.2c0,0.1,0,0.2,0,0.4c0,0.1-0.1,0.2-0.1,0.3
		c0,0.1-0.1,0.3-0.2,0.4c-0.1,0.1-0.1,0.3-0.1,0.4c0,0.1-0.1,0.2-0.1,0.3c0,0.2-0.1,0.4,0,0.6c0,0.1,0.1,0.2,0.3,0.2
		c0.1,0,0.1,0,0.2-0.1c0.1-0.1,0.2-0.1,0.3-0.2c0.1-0.1,0.2-0.2,0.3-0.3c0.1-0.1,0.2-0.3,0.2-0.4c0.1-0.1,0.1-0.3,0.2-0.4
		c0.1-0.1,0.1-0.2,0.1-0.3c0-0.2,0.1-0.4,0.1-0.5C1055.2,2066.8,1055.2,2066.8,1055.1,2066.6z M1051.2,2068.3c0-0.1,0.1-0.2,0.1-0.4
		c0-0.1,0.1-0.3,0.1-0.4c0-0.1,0-0.2,0.1-0.3c0-0.1,0-0.1,0-0.1h-0.1h-0.1h-0.1c0-0.1,0.1-0.2,0.1-0.2c0-0.1,0-0.1,0-0.1v-0.1
		c-0.1,0-0.2,0-0.3,0.1c-0.1,0.1-0.3,0.4-0.5,0.7c-0.1,0.1-0.1,0.3-0.2,0.4c0,0.2-0.1,0.3-0.1,0.4c0,0.1,0,0.3,0,0.4
		c0,0.1,0,0.2,0.1,0.2c0.1,0.1,0.1,0.1,0.2,0.1s0.1,0,0.2-0.1c0.1,0,0.2-0.1,0.2-0.2c0.1-0.1,0.1-0.1,0.2-0.2
		C1051.2,2068.4,1051.2,2068.4,1051.2,2068.3C1051.1,2068.4,1051.2,2068.3,1051.2,2068.3z M1053.5,2067.9c-0.1,0.1-0.2,0.2-0.3,0.4
		c-0.1,0.2-0.2,0.3-0.4,0.5c-0.1,0.2-0.2,0.3-0.4,0.4c-0.1,0.1-0.2,0.2-0.3,0.3c-0.1,0-0.1,0.1-0.2,0.1s-0.1,0-0.2,0s-0.1,0-0.2,0
		s-0.1,0-0.2-0.1c0,0-0.1-0.1-0.1-0.2c0-0.1-0.1-0.1-0.1-0.2c0-0.1,0-0.2,0-0.4c-0.1,0.2-0.3,0.4-0.4,0.5c-0.2,0.1-0.3,0.2-0.4,0.3
		c-0.2,0.1-0.3,0.1-0.5,0.1c-0.1,0-0.2,0-0.2-0.1c-0.1-0.1-0.2-0.1-0.2-0.2c-0.1-0.1-0.1-0.3-0.1-0.4c0-0.2,0-0.4,0.1-0.6
		c0.1-0.3,0.2-0.6,0.4-0.9c0.2-0.3,0.3-0.5,0.5-0.7s0.4-0.3,0.6-0.4c0.2-0.1,0.3-0.1,0.5-0.1c0.1,0,0.3,0.1,0.4,0.1
		c0.1,0.1,0.1,0.1,0.1,0.2c0,0.1,0,0.2-0.1,0.4c0.1,0,0.1,0,0.2,0s0.1,0,0.1,0h0.1c0,0,0,0,0,0.1c0,0,0,0.1,0,0.2
		c0,0.1,0,0.2-0.1,0.4c0,0.2-0.1,0.4-0.1,0.6v0.1v0.1v0.1c0,0.1,0,0.1,0,0.2c0,0,0,0.1,0,0.2c0,0.1,0,0.1,0,0.2c0,0,0,0.1,0.1,0.1
		h0.1c0.1,0,0.1,0,0.2-0.1c0.1-0.1,0.2-0.2,0.3-0.3c0.1-0.1,0.2-0.2,0.3-0.3c0.1-0.1,0.2-0.2,0.3-0.4c0.1-0.1,0.2-0.2,0.2-0.3
		c0.1-0.1,0.1-0.2,0.2-0.2c0-0.1,0.1-0.1,0.1-0.1h0.1v0.1C1053.6,2067.8,1053.6,2067.9,1053.5,2067.9z M1048.3,2068.1
		c-0.1,0.2-0.2,0.4-0.3,0.6c-0.1,0.2-0.2,0.3-0.3,0.5c-0.1,0.1-0.2,0.3-0.4,0.3c-0.1,0.1-0.3,0.1-0.4,0.1c-0.3,0-0.4-0.1-0.6-0.3
		c-0.1-0.2-0.2-0.4-0.3-0.6c-0.1,0.1-0.2,0.2-0.2,0.3c-0.1,0.1-0.2,0.2-0.3,0.3c-0.1,0.1-0.2,0.2-0.3,0.2c-0.1,0.1-0.2,0.1-0.3,0.1
		c-0.1,0-0.3,0-0.3-0.1c-0.1-0.1-0.2-0.1-0.2-0.2c-0.1-0.1-0.1-0.2-0.1-0.4c0-0.1,0-0.3,0-0.4v-0.1c0-0.2,0-0.4,0-0.6
		s0.1-0.4,0.1-0.6s0.1-0.3,0.1-0.5c0-0.1,0.1-0.2,0.1-0.3s0.1-0.1,0.2-0.2c0.1-0.1,0.2-0.1,0.4-0.1c0.1,0,0.1,0,0.1,0.1
		c0,0,0,0.1,0,0.2c0,0.1-0.1,0.2-0.1,0.4c-0.1,0.2-0.1,0.4-0.2,0.6s-0.1,0.4-0.1,0.6s-0.1,0.4-0.1,0.5c0,0.2,0,0.3,0.1,0.4
		c0.1,0.1,0.1,0.1,0.2,0.1s0.3-0.1,0.4-0.2c0.2-0.1,0.3-0.4,0.5-0.8v-0.1v-0.1c0-0.2,0-0.5,0-0.7s0.1-0.4,0.1-0.6
		c0.1-0.2,0.1-0.3,0.2-0.4c0.1-0.1,0.2-0.1,0.4-0.1c0.1,0,0.1,0,0.2,0.1c0,0,0.1,0.1,0.1,0.2c0,0.2-0.1,0.4-0.2,0.7
		c-0.1,0.3-0.3,0.7-0.4,1c0,0,0,0,0,0.1c0,0.1,0,0.2,0.1,0.3c0,0.1,0.1,0.2,0.1,0.3c0,0.1,0.1,0.2,0.2,0.2c0.1,0.1,0.1,0.1,0.2,0.1
		s0.2-0.1,0.3-0.2c0.1-0.1,0.2-0.2,0.3-0.4c0.1-0.2,0.1-0.3,0.2-0.5s0.1-0.3,0.1-0.5c0-0.1,0-0.1,0-0.2c0-0.1,0-0.1,0-0.2
		c0-0.2,0-0.3,0.1-0.4c0-0.1,0.1-0.2,0.2-0.3c0.1-0.1,0.2-0.1,0.2-0.2c0.1,0,0.2-0.1,0.2-0.1c0.1,0,0.2,0.1,0.2,0.2
		c0,0.1,0,0.2-0.1,0.4c0,0.2-0.1,0.4-0.2,0.7c0.1,0,0.2,0.1,0.4,0.1c0.1,0,0.3,0,0.4-0.1c0.1,0,0.2-0.1,0.3-0.1
		c0.1-0.1,0.2-0.1,0.3-0.2c0.1-0.1,0.2-0.1,0.2-0.2c0.1,0,0.1,0,0.1,0s0,0.1,0,0.2c0,0.1-0.1,0.1-0.2,0.2c-0.1,0.1-0.2,0.2-0.4,0.3
		c-0.1,0.1-0.3,0.1-0.5,0.2c-0.2,0.1-0.4,0.1-0.6,0.1h-0.1C1048.4,2068.3,1048.3,2068.3,1048.3,2068.1z M1042.3,2067.5
		C1042.3,2067.5,1042.4,2067.5,1042.3,2067.5c0.1-0.1,0.1-0.1,0.2,0c0,0,0,0,0,0.1c0,0,0,0.1,0,0.2c-0.1,0.2-0.2,0.4-0.4,0.7
		c-0.2,0.2-0.4,0.5-0.5,0.7c-0.2,0.2-0.4,0.4-0.6,0.5c-0.2,0.1-0.3,0.2-0.5,0.2s-0.3,0-0.4-0.1c-0.1-0.1-0.2-0.2-0.3-0.3
		c-0.1-0.1-0.1-0.2-0.1-0.3c0-0.1,0-0.2,0-0.3c0-0.1,0-0.2,0.1-0.5c0-0.2,0.1-0.5,0.1-0.8c0.1-0.3,0.1-0.6,0.2-0.9s0.1-0.7,0.2-1
		c-0.1,0-0.2,0-0.3,0c-0.1,0-0.2,0-0.2,0c-0.2,0-0.3,0-0.5-0.1c-0.2,0-0.3-0.1-0.3-0.1l-0.1-0.1v-0.1l0.1-0.1h0.1c0.1,0,0.2,0,0.3,0
		c0.1,0,0.2,0,0.4,0c0.1,0,0.2,0,0.3,0c0.1,0,0.2,0,0.3,0c0.1-0.3,0.1-0.5,0.2-0.7s0.1-0.3,0.2-0.4l0.1-0.1c0.1,0,0.1,0,0.2,0
		s0.1,0,0.2,0s0.1,0,0.1,0.1c0,0,0,0.2,0,0.3c0,0.2,0,0.4-0.1,0.7c0.2,0,0.4,0,0.6,0s0.3,0.1,0.4,0.1s0.2,0.1,0.3,0.1
		c0.1,0,0.1,0,0.2,0.1c0,0,0.1,0,0.1,0.1v0.1l-0.1,0.1h-0.1c-0.1,0-0.1,0-0.2,0s-0.1,0-0.2,0s-0.2,0-0.3,0c-0.1,0-0.3,0-0.4,0h-0.1
		h-0.1c0,0.1,0,0.2-0.1,0.3c0,0.1,0,0.2-0.1,0.3c-0.1,0.2-0.1,0.4-0.2,0.7c-0.1,0.2-0.2,0.5-0.3,0.7c-0.1,0.3-0.2,0.6-0.4,0.9
		c0,0.2,0,0.4,0,0.5c0,0.1,0.1,0.2,0.1,0.3c0.1,0.1,0.2,0.1,0.3,0.1c0.1,0,0.2,0,0.3-0.1c0.1-0.1,0.2-0.2,0.4-0.3
		c0.1-0.1,0.2-0.2,0.4-0.4c0.1-0.1,0.2-0.3,0.3-0.4c0.1-0.1,0.2-0.2,0.3-0.3C1042.2,2067.6,1042.3,2067.6,1042.3,2067.5z"/>
</g>
<g>
	<linearGradient id="SVGID_50_" gradientUnits="userSpaceOnUse" x1="517.2975" y1="1638.2521" x2="733.4218" y2="1638.2521">
		<stop  offset="1.449920e-003" style="stop-color:#2B335C"/>
		<stop  offset="0.5329" style="stop-color:#3B4A78"/>
		<stop  offset="1" style="stop-color:#465A8D"/>
	</linearGradient>
	<path class="st56" d="M733.2,1594.1c-2.9-35.7-34.5-64.1-71.2-63.9c-12.9,0.1-24.9,3.3-35.6,9.5c-34.9,20.4-45.9,64.8-24.8,99.5
		c1.2,1.9,5.1,3.8,1.4,7c-5.3,4.5-8.6,11.7-17.6,10.9c-4.3-0.4-7.7,2.7-10.7,5.7c-16.9,16.9-33.9,33.7-50.7,50.7
		c-8.6,8.8-9,20.2-1.3,27.7c7.7,7.5,18.7,7,27.6-1.9c16.8-16.6,33.4-33.4,50.2-50.1c3-3,6.3-6.6,6-10.5c-0.6-7.8,4.7-11.4,8.8-16.3
		c3.1-3.7,5.3-2.9,8.9-0.7c15.3,9.4,31.8,13.1,49.9,10C711.1,1665.3,736.3,1632.4,733.2,1594.1z M661.7,1652.4
		c-28.2-0.1-50.5-22.8-50.4-51.4c0.1-28.2,22.8-50.9,50.9-50.9c28,0,50.8,22.9,50.8,51.1C713.1,1630,690.5,1652.6,661.7,1652.4z"/>
	<g>
		<linearGradient id="SVGID_51_" gradientUnits="userSpaceOnUse" x1="503.8062" y1="1788.2656" x2="854.8615" y2="1788.2656">
			<stop  offset="1.449920e-003" style="stop-color:#2B335C"/>
			<stop  offset="0.5329" style="stop-color:#3B4A78"/>
			<stop  offset="1" style="stop-color:#465A8D"/>
		</linearGradient>
		<rect x="503.8" y="1782.5" class="st57" width="351.1" height="11.6"/>
		<linearGradient id="SVGID_52_" gradientUnits="userSpaceOnUse" x1="803.8768" y1="1642.0748" x2="829.4481" y2="1642.0748">
			<stop  offset="1.449920e-003" style="stop-color:#2B335C"/>
			<stop  offset="0.5329" style="stop-color:#3B4A78"/>
			<stop  offset="1" style="stop-color:#465A8D"/>
		</linearGradient>
		<rect x="803.9" y="1510.8" class="st58" width="25.6" height="262.5"/>
		<linearGradient id="SVGID_53_" gradientUnits="userSpaceOnUse" x1="745.8404" y1="1663.0778" x2="771.4117" y2="1663.0778">
			<stop  offset="1.449920e-003" style="stop-color:#2B335C"/>
			<stop  offset="0.5329" style="stop-color:#3B4A78"/>
			<stop  offset="1" style="stop-color:#465A8D"/>
		</linearGradient>
		<rect x="745.8" y="1552.8" class="st59" width="25.6" height="220.5"/>
		<linearGradient id="SVGID_54_" gradientUnits="userSpaceOnUse" x1="686.8832" y1="1724.2952" x2="712.4545" y2="1724.2952">
			<stop  offset="1.449920e-003" style="stop-color:#2B335C"/>
			<stop  offset="0.5329" style="stop-color:#3B4A78"/>
			<stop  offset="1" style="stop-color:#465A8D"/>
		</linearGradient>
		<polygon class="st60" points="712.5,1773.3 686.9,1773.3 686.9,1691 712.5,1675.3 		"/>
		<linearGradient id="SVGID_55_" gradientUnits="userSpaceOnUse" x1="625.6256" y1="1731.0771" x2="651.1968" y2="1731.0771">
			<stop  offset="1.449920e-003" style="stop-color:#2B335C"/>
			<stop  offset="0.5329" style="stop-color:#3B4A78"/>
			<stop  offset="1" style="stop-color:#465A8D"/>
		</linearGradient>
		<rect x="625.6" y="1688.8" class="st61" width="25.6" height="84.5"/>
		<linearGradient id="SVGID_56_" gradientUnits="userSpaceOnUse" x1="563.5478" y1="1751.3822" x2="589.1191" y2="1751.3822">
			<stop  offset="1.449920e-003" style="stop-color:#2B335C"/>
			<stop  offset="0.5329" style="stop-color:#3B4A78"/>
			<stop  offset="1" style="stop-color:#465A8D"/>
		</linearGradient>
		<polygon class="st62" points="589.1,1773.3 563.5,1773.3 563.5,1752.7 589.1,1729.4 		"/>
	</g>
</g>
<g>
	
		<linearGradient id="SVGID_57_" gradientUnits="userSpaceOnUse" x1="2540.5442" y1="3457.0542" x2="2540.5442" y2="3620.0344" gradientTransform="matrix(-1 0 0 1 2849.1943 -1415.2003)">
		<stop  offset="0" style="stop-color:#424C75"/>
		<stop  offset="1" style="stop-color:#5D73A3"/>
	</linearGradient>
	<polygon class="st63" points="389.9,2439.1 386.7,2034.6 254.6,2034.6 227.4,2439.1 264,2439.1 313.8,2134.8 318.7,2134.8 
		353.8,2439.1 	"/>
	
		<linearGradient id="SVGID_58_" gradientUnits="userSpaceOnUse" x1="2462.1943" y1="3480.8003" x2="2597.3943" y2="3480.8003" gradientTransform="matrix(-1 0 0 1 2849.1943 -1415.2003)">
		<stop  offset="0" style="stop-color:#3A3D3F"/>
		<stop  offset="1" style="stop-color:#292B2D"/>
	</linearGradient>
	<polygon class="st64" points="387,2075.9 251.8,2075.9 253.2,2055.3 386.9,2055.3 	"/>
	
		<linearGradient id="SVGID_59_" gradientUnits="userSpaceOnUse" x1="2486.8943" y1="3468.8687" x2="2486.8943" y2="3480.0281" gradientTransform="matrix(-1 0 0 1 2849.1943 -1415.2003)">
		<stop  offset="0" style="stop-color:#424C75"/>
		<stop  offset="1" style="stop-color:#5D73A3"/>
	</linearGradient>
	<path class="st65" d="M366,2053.1v24c0,2-1.7,3.7-3.7,3.7s-3.7-1.7-3.7-3.7v-24H366z"/>
	
		<linearGradient id="SVGID_60_" gradientUnits="userSpaceOnUse" x1="2572.8943" y1="3468.8687" x2="2572.8943" y2="3480.0281" gradientTransform="matrix(-1 0 0 1 2849.1943 -1415.2003)">
		<stop  offset="0" style="stop-color:#424C75"/>
		<stop  offset="1" style="stop-color:#5D73A3"/>
	</linearGradient>
	<path class="st66" d="M280,2053.1v24c0,2-1.7,3.7-3.7,3.7s-3.7-1.7-3.7-3.7v-24H280z"/>
	
		<linearGradient id="SVGID_61_" gradientUnits="userSpaceOnUse" x1="2541.3853" y1="3292.6106" x2="2540.0178" y2="3676.124" gradientTransform="matrix(-1 0 0 1 2849.1943 -1415.2003)">
		<stop  offset="0" style="stop-color:#E4EFE9"/>
		<stop  offset="1" style="stop-color:#93A5CF"/>
	</linearGradient>
	<polygon class="st67" points="387.3,2060.8 398.9,1803.3 313,1776.3 216.2,1806.3 252.3,2060.8 	"/>
	
		<linearGradient id="SVGID_62_" gradientUnits="userSpaceOnUse" x1="2601.2888" y1="3340.7576" x2="2473.1387" y2="3031.0613" gradientTransform="matrix(-1 0 0 1 2849.1943 -1415.2003)">
		<stop  offset="0" style="stop-color:#E4EFE9"/>
		<stop  offset="1" style="stop-color:#93A5CF"/>
	</linearGradient>
	<path class="st68" d="M216.2,1806.3l-36.3,131.1c-1.6,5.8-0.2,12.1,3.7,16.6l79.6,92.3l22.5-16.1l-65.1-90
		c-1.4-1.9-1.9-4.4-1.3-6.7l9.5-38.6L216.2,1806.3z"/>
	
		<linearGradient id="SVGID_63_" gradientUnits="userSpaceOnUse" x1="2403.7168" y1="3273.9055" x2="2694.9167" y2="3010.718" gradientTransform="matrix(-1 0 0 1 2849.1943 -1415.2003)">
		<stop  offset="0" style="stop-color:#E4EFE9"/>
		<stop  offset="1" style="stop-color:#93A5CF"/>
	</linearGradient>
	<path class="st69" d="M398.9,1803.3l79.5,103.6c0.9,1.1,2.3,1.7,3.7,1.6l92.6-9v29.1l-99.4,22.8c-5,1.1-10.2-0.2-14-3.6l-66.5-58.8
		L398.9,1803.3z"/>
	
		<linearGradient id="SVGID_64_" gradientUnits="userSpaceOnUse" x1="2520.0483" y1="2865.7461" x2="2681.7561" y2="2865.7461" gradientTransform="matrix(-0.9847 0.1742 0.1742 0.9847 2384.3523 -1625.748)">
		<stop  offset="0" style="stop-color:#3A3D3F"/>
		<stop  offset="1" style="stop-color:#292B2D"/>
	</linearGradient>
	<path class="st70" d="M374.9,1647.9c13.2-9.3,21.4-25.4,21.4-41.7c0-11.5-5-25.8-15.6-31.6c-5.1-2.8-11.7-3.2-16.7-0.4
		c-3.6,2-6.2,5.4-9.9,7.3c-6.1,3-13.5,1.1-19.4-2.2c-11.5-6.3-22.6-11-35.7-5.6c-9.3,3.9-4.6,20.3-22.2,24.7
		c-12.8,3.2-32.7,6.2-35.4,34.9c-1.1,11.4,9,24.2,8.1,35.2c-0.5,5.2-6.3,17.5,4.8,44.8c6.4,15.7,30.6,21.2,46.3,20
		c14.1-1.1,12.5-10,23.7-19.1c10.2-8.2,16.7-20.5,19.9-33c1.2-4.7,2.1-9.7,4.8-13.8c3.2-4.8,8.3-7.6,13.1-10.4
		C366.6,1654.2,370.6,1651,374.9,1647.9z"/>
	
		<linearGradient id="SVGID_65_" gradientUnits="userSpaceOnUse" x1="2588.7209" y1="3095.0781" x2="2583.5659" y2="3125.4194" gradientTransform="matrix(-1 0 0 1 2849.1943 -1415.2003)">
		<stop  offset="0" style="stop-color:#FFECD2"/>
		<stop  offset="0.5703" style="stop-color:#FDCBB2"/>
		<stop  offset="1" style="stop-color:#FCB69F"/>
	</linearGradient>
	<path class="st71" d="M254.7,1710.3h16.8c3.7,0,6.6-3,6.6-6.6v-16.8c0-3.7-3-6.6-6.6-6.6h-16.8c-3.7,0-6.6,3-6.6,6.6v16.8
		C248.1,1707.3,251.1,1710.3,254.7,1710.3z"/>
	
		<linearGradient id="SVGID_66_" gradientUnits="userSpaceOnUse" x1="2533.9443" y1="3209.1672" x2="2533.9443" y2="3183.9832" gradientTransform="matrix(-1 0 0 1 2849.1943 -1415.2003)">
		<stop  offset="0" style="stop-color:#FFECD2"/>
		<stop  offset="0.5703" style="stop-color:#FDCBB2"/>
		<stop  offset="1" style="stop-color:#FCB69F"/>
	</linearGradient>
	<rect x="300.8" y="1766.6" class="st72" width="28.9" height="28.4"/>
	
		<linearGradient id="SVGID_67_" gradientUnits="userSpaceOnUse" x1="2486.2024" y1="3084.1721" x2="2667.1013" y2="3199.3945" gradientTransform="matrix(-1 0 0 1 2849.1943 -1415.2003)">
		<stop  offset="0" style="stop-color:#FFECD2"/>
		<stop  offset="0.5703" style="stop-color:#FDCBB2"/>
		<stop  offset="1" style="stop-color:#FCB69F"/>
	</linearGradient>
	<path class="st73" d="M362.2,1640.5c5.3,0,9.5,4.3,9.5,9.5v84.4c0,22.9-25.1,41.5-56.1,41.5s-56.1-18.6-56.1-41.5V1650
		c0-5.3,4.3-9.5,9.5-9.5H362.2z"/>
	
		<linearGradient id="SVGID_68_" gradientUnits="userSpaceOnUse" x1="2406.1335" y1="3876.2471" x2="2499.2942" y2="3876.2471" gradientTransform="matrix(-1 0 0 1 2849.1943 -1415.2003)">
		<stop  offset="0" style="stop-color:#3A3D3F"/>
		<stop  offset="1" style="stop-color:#292B2D"/>
	</linearGradient>
	<path class="st74" d="M389.9,2439.1c0,0,9.8,10.6,21.6,14.6c11.8,4.1,35.5,12.6,31,21c-4.4,8.2-42.1,13.6-89.7-0.6
		c-1.7-0.5-2.9-2.1-2.9-4v-5.7l1.5-3.3c0,0-2.7-12.6,2-21.9L389.9,2439.1L389.9,2439.1z"/>
	
		<linearGradient id="SVGID_69_" gradientUnits="userSpaceOnUse" x1="2581.3943" y1="3876.3718" x2="2674.9551" y2="3876.3718" gradientTransform="matrix(-1 0 0 1 2849.1943 -1415.2003)">
		<stop  offset="0" style="stop-color:#3A3D3F"/>
		<stop  offset="1" style="stop-color:#292B2D"/>
	</linearGradient>
	<path class="st75" d="M227.4,2439.1c0,0-9.8,10.6-21.6,14.6c-11.8,4.1-35.5,12.6-31,21c4.3,8,40.9,13.8,87.2,0.7
		c3.4-1,5.8-4.2,5.8-7.7v-2.8l-1.8-3.8c0,0,2.7-12.6-2-21.9L227.4,2439.1L227.4,2439.1z"/>
	
		<linearGradient id="SVGID_70_" gradientUnits="userSpaceOnUse" x1="2519.8943" y1="3218.5002" x2="2547.2642" y2="3218.5002" gradientTransform="matrix(-1 0 0 1 2849.1943 -1415.2003)">
		<stop  offset="0" style="stop-color:#3A3D3F"/>
		<stop  offset="1" style="stop-color:#292B2D"/>
	</linearGradient>
	<polygon class="st76" points="329.3,1795.1 302,1794.8 310.3,1811.8 321.4,1811.8 	"/>
	
		<linearGradient id="SVGID_71_" gradientUnits="userSpaceOnUse" x1="322.3546" y1="3196.1213" x2="349.0031" y2="3247.5483" gradientTransform="matrix(1 0 0 1 0 -1415.2003)">
		<stop  offset="0" style="stop-color:#E4EFE9"/>
		<stop  offset="1" style="stop-color:#93A5CF"/>
	</linearGradient>
	<polygon class="st77" points="315.6,1795 329.6,1781.5 338,1783.9 342.4,1814.9 	"/>
	
		<linearGradient id="SVGID_72_" gradientUnits="userSpaceOnUse" x1="303.6637" y1="3205.0464" x2="279.8205" y2="3266.5247" gradientTransform="matrix(1 0 0 1 0 -1415.2003)">
		<stop  offset="0" style="stop-color:#E4EFE9"/>
		<stop  offset="1" style="stop-color:#93A5CF"/>
	</linearGradient>
	<polygon class="st78" points="315.6,1795 300.8,1780.1 292.5,1782.6 288.9,1814.9 	"/>
	
		<linearGradient id="SVGID_73_" gradientUnits="userSpaceOnUse" x1="2512.1943" y1="3307.2002" x2="2548.3943" y2="3307.2002" gradientTransform="matrix(-1 0 0 1 2849.1943 -1415.2003)">
		<stop  offset="0" style="stop-color:#3A3D3F"/>
		<stop  offset="1" style="stop-color:#292B2D"/>
	</linearGradient>
	<polygon class="st79" points="321.4,1811.8 337,1930.8 319.8,1972.3 300.8,1930.8 310.3,1811.8 	"/>
	
		<linearGradient id="SVGID_74_" gradientUnits="userSpaceOnUse" x1="2528.0442" y1="3474.5388" x2="2528.0442" y2="3490.1006" gradientTransform="matrix(-1 0 0 1 2849.1943 -1415.2003)">
		<stop  offset="0" style="stop-color:#FF316C"/>
		<stop  offset="1" style="stop-color:#FFB199"/>
	</linearGradient>
	<rect x="310.3" y="2060.8" class="st80" width="21.7" height="15.2"/>
	
		<linearGradient id="SVGID_75_" gradientUnits="userSpaceOnUse" x1="347.4171" y1="3444.0642" x2="229.7979" y2="3606.3352" gradientTransform="matrix(1 0 0 1 0 -1415.2003)">
		<stop  offset="0" style="stop-color:#E4EFE9"/>
		<stop  offset="1" style="stop-color:#93A5CF"/>
	</linearGradient>
	<polygon class="st81" points="294.4,2133.1 252.8,2075.3 332.9,2017.8 374.5,2075.5 	"/>
	
		<linearGradient id="SVGID_76_" gradientUnits="userSpaceOnUse" x1="275.5039" y1="3432.8267" x2="50.1979" y2="3352.7432" gradientTransform="matrix(1 0 0 1 0 -1415.2003)">
		<stop  offset="0" style="stop-color:#FFECD2"/>
		<stop  offset="0.5703" style="stop-color:#FDCBB2"/>
		<stop  offset="1" style="stop-color:#FCB69F"/>
	</linearGradient>
	<path class="st82" d="M298.4,2042.4l5-3.5c-2-2.9-4.9-2.5-9.2-3.1c-4.3-0.6-8.6-5.7-8.6-5.7l-59.8-82.6l-30.9,19.7l68.1,79
		c0,0,4,4.4,9.4,17.1s18.5,9.5,22.6,9.3c4.5-0.2,14.3-4.1,17.6-9.2C317.8,2055.4,298.4,2042.4,298.4,2042.4z"/>
	
		<linearGradient id="SVGID_77_" gradientUnits="userSpaceOnUse" x1="226.1471" y1="3360.113" x2="179.651" y2="3394.5618" gradientTransform="matrix(1 0 0 1 0 -1415.2003)">
		<stop  offset="0" style="stop-color:#E4EFE9"/>
		<stop  offset="1" style="stop-color:#93A5CF"/>
	</linearGradient>
	<path class="st83" d="M190.9,1960.8l29.9-19.1c0.8-0.5,1.8-0.3,2.4,0.4l6.4,8c0.6,0.8,0.5,2-0.3,2.6l-28.2,21.1
		c-0.8,0.6-1.9,0.4-2.5-0.3l-8.1-10C189.8,1962.5,190,1961.3,190.9,1960.8z"/>
	
		<linearGradient id="SVGID_78_" gradientUnits="userSpaceOnUse" x1="587.9137" y1="3347.4502" x2="598.9142" y2="3347.4502" gradientTransform="matrix(1 0 0 1 0 -1415.2003)">
		<stop  offset="0" style="stop-color:#3A3D3F"/>
		<stop  offset="1" style="stop-color:#292B2D"/>
	</linearGradient>
	<line class="st84" x1="589.6" y1="1953.8" x2="597.2" y2="1910.6"/>
	
		<linearGradient id="SVGID_79_" gradientUnits="userSpaceOnUse" x1="622.1519" y1="3307.5515" x2="384.3976" y2="3385.5037" gradientTransform="matrix(1 0 0 1 0 -1415.2003)">
		<stop  offset="0" style="stop-color:#FFECD2"/>
		<stop  offset="0.5703" style="stop-color:#FDCBB2"/>
		<stop  offset="1" style="stop-color:#FCB69F"/>
	</linearGradient>
	<path class="st85" d="M612.1,1893.4c-4.2-5.1-21.1-5.4-25.1-0.3s-11.8,6.2-11.8,6.2l-85.5,8.3l3,39.7l82.5-18.9
		c11.2-2.7,13.2-4.7,23.4-2.5c10.7,2.3,13-5.3,13.9-9.2C613.8,1911.1,615.2,1897.3,612.1,1893.4z"/>
	
		<linearGradient id="SVGID_80_" gradientUnits="userSpaceOnUse" x1="489.5057" y1="3323.7595" x2="489.697" y2="3397.0073" gradientTransform="matrix(1 0 0 1 0 -1415.2003)">
		<stop  offset="0" style="stop-color:#E4EFE9"/>
		<stop  offset="1" style="stop-color:#93A5CF"/>
	</linearGradient>
	<path class="st86" d="M480.9,1909.3l-1,39.6c0,1.1,1,2,2.1,1.7l16-3.7c0.9-0.2,1.4-1,1.3-1.9l-4.3-36.8c-0.1-0.9-0.9-1.6-1.9-1.5
		l-10.7,0.9C481.6,1907.8,480.9,1908.4,480.9,1909.3z"/>
	
		<linearGradient id="SVGID_81_" gradientUnits="userSpaceOnUse" x1="598.8827" y1="3238.1003" x2="626.7153" y2="3238.1003" gradientTransform="matrix(1 0 0 1 0 -1415.2003)">
		<stop  offset="0" style="stop-color:#3A3D3F"/>
		<stop  offset="1" style="stop-color:#292B2D"/>
	</linearGradient>
	<line class="st87" x1="600.6" y1="1891.9" x2="625" y2="1753.8"/>
</g>
<g>
	<linearGradient id="SVGID_82_" gradientUnits="userSpaceOnUse" x1="1025.7339" y1="1208.5499" x2="1209.066" y2="1208.5499">
		<stop  offset="0" style="stop-color:#FFFFFF"/>
		<stop  offset="0.3221" style="stop-color:#F4F7FB"/>
		<stop  offset="1" style="stop-color:#DFE9F3"/>
	</linearGradient>
	<path class="st88" d="M1209.1,1130.1c0-22-14.2-36.3-36.2-36.3c-36.7,0-73.4,0.5-110.1-0.2c-21-0.4-37.5,16-37,37.1
		c0.7,32.8,0.2,65.6,0.2,98.5c0,22.1,14.1,36.2,36.2,36.3c32.8,0,65.6,0.1,98.5,0c8.5,0,17.1,0.8,25.9-1.7c0,6.1,0,11.8,0,17.5
		c0,5-2.3,7.4-7.5,7.3c-8.4-0.2-16.7-0.2-25.1,0c-3.5,0.1-5.9-0.7-8.2-3.6c-4.1-5.1-9.9-7.6-16.6-7.6c-7.7,0.1-15.5,0-23.2,0
		c-10.2,0.1-18.6,6.3-21.6,15.8c-2.9,9.1,0.3,19.3,8,25.1c8.7,6.7,42.7,7.6,50.2-0.3c6.2-6.5,12.6-6.6,20-6.4c5.1,0.1,10.2,0,15.3,0
		c19.8,0,31.3-11.6,31.3-31.6C1209.1,1230,1209.1,1180,1209.1,1130.1z M1049.4,1124.1c2-5.1,6-7.6,11.4-7.6
		c37.7-0.1,75.4-0.1,113.1,0c7,0,12.6,5.1,12.6,10.8c0.2,1.8-0.3,2.6-2.3,2.3c-21.7-3.2-43.5-0.9-65.2-1.3
		c-18.9-0.4-37.9-0.1-56.8-0.1c-2.8,0-5.7-0.2-8.5,0.7c-1.4,0.5-3.4,1.6-4.6,0.3C1047.6,1127.7,1048.7,1125.7,1049.4,1124.1z
		 M1171.8,1242.9c-18.2,0-36.3,0-54.4,0c-18.2,0-36.3,0-54.4,0c-10,0-14.5-4.5-14.5-14.5c0-21-0.1-42,0-63c0-10.4,4-14.5,14.4-14.5
		c36.5-0.1,73-0.1,109.5,0c9.9,0,14.2,4.4,14.2,14.1c0,21,0,42,0,63C1186.5,1238.6,1182.3,1242.9,1171.8,1242.9z M1140.7,1162.5
		c-6.4-0.1-11.7,5-11.6,11.4c0,6.4,5.4,11.6,11.7,11.4c6.2-0.2,11-5.2,10.9-11.5C1151.6,1167.6,1146.8,1162.6,1140.7,1162.5z
		 M1136.3,1203.5c-1.5-2.6-2.8-2.9-5.7-1.4c-6.8,3.7-14.2,4.3-21.8,2.6c-3.7-0.8-7.2-5.1-10.2-3.4c-3.1,1.8-4.7,6.4-6.9,9.8
		c-1,1.5-1.9,3.1-3,4.6c-2,2.6-2.1,4.1,1.3,5.8c8.3,4.3,16.9,6.6,26,6.9c8.6-0.1,16.5-2.1,24.2-5.6c4.9-2.2,7.3-4.3,2.7-9.3
		C1140.3,1210.7,1138.3,1207,1136.3,1203.5z M1105.9,1173.9c0-6.4-5.2-11.6-11.6-11.5c-6.4,0.1-11.3,5.5-11,11.9
		c0.3,6.3,5.3,11,11.5,10.9C1100.8,1185.2,1105.9,1180,1105.9,1173.9z"/>
	<linearGradient id="SVGID_83_" gradientUnits="userSpaceOnUse" x1="1083.2953" y1="1173.8801" x2="1105.9127" y2="1173.8801">
		<stop  offset="0" style="stop-color:#FFFFFF"/>
		<stop  offset="0.3221" style="stop-color:#F4F7FB"/>
		<stop  offset="1" style="stop-color:#DFE9F3"/>
	</linearGradient>
	<path class="st89" d="M1094.8,1185.3c-6.2,0.1-11.2-4.7-11.5-10.9c-0.3-6.5,4.6-11.8,11-11.9c6.4-0.1,11.6,5,11.6,11.5
		C1105.9,1180,1100.8,1185.2,1094.8,1185.3z"/>
	<linearGradient id="SVGID_84_" gradientUnits="userSpaceOnUse" x1="1087.3853" y1="1214.7576" x2="1145.4878" y2="1214.7576">
		<stop  offset="0" style="stop-color:#FFFFFF"/>
		<stop  offset="0.3221" style="stop-color:#F4F7FB"/>
		<stop  offset="1" style="stop-color:#DFE9F3"/>
	</linearGradient>
	<path class="st90" d="M1143,1213.6c4.6,5,2.2,7.1-2.7,9.3c-7.7,3.5-15.7,5.4-24.2,5.6c-9.1-0.3-17.7-2.7-26-6.9
		c-3.4-1.8-3.3-3.3-1.3-5.8c1.1-1.4,2-3.1,3-4.6c2.2-3.4,3.8-8,6.9-9.8c3-1.7,6.5,2.6,10.2,3.4c7.6,1.7,15,1.1,21.8-2.6
		c2.9-1.5,4.1-1.2,5.7,1.4C1138.3,1207,1140.3,1210.7,1143,1213.6z"/>
	<linearGradient id="SVGID_85_" gradientUnits="userSpaceOnUse" x1="1129.0433" y1="1173.8761" x2="1151.6486" y2="1173.8761">
		<stop  offset="0" style="stop-color:#FFFFFF"/>
		<stop  offset="0.3221" style="stop-color:#F4F7FB"/>
		<stop  offset="1" style="stop-color:#DFE9F3"/>
	</linearGradient>
	<path class="st91" d="M1151.6,1173.8c0,6.3-4.7,11.3-10.9,11.5c-6.3,0.2-11.7-5-11.7-11.4c0-6.4,5.2-11.6,11.6-11.4
		C1146.8,1162.6,1151.6,1167.6,1151.6,1173.8z"/>
	<linearGradient id="SVGID_86_" gradientUnits="userSpaceOnUse" x1="1087.3853" y1="1214.7576" x2="1145.4878" y2="1214.7576">
		<stop  offset="0" style="stop-color:#FFFFFF"/>
		<stop  offset="0.3221" style="stop-color:#F4F7FB"/>
		<stop  offset="1" style="stop-color:#DFE9F3"/>
	</linearGradient>
	<path class="st92" d="M1140.3,1223c-7.7,3.5-15.7,5.4-24.2,5.6c-9.1-0.3-17.7-2.7-26-6.9c-3.4-1.8-3.3-3.3-1.3-5.8
		c1.1-1.4,2-3.1,3-4.6c2.2-3.4,3.8-8,6.9-9.8c3-1.7,6.5,2.6,10.2,3.4c7.6,1.7,15,1.1,21.8-2.6c2.9-1.5,4.1-1.2,5.7,1.4
		c2,3.5,4,7.2,6.7,10.1C1147.6,1218.7,1145.2,1220.8,1140.3,1223z"/>
	<linearGradient id="SVGID_87_" gradientUnits="userSpaceOnUse" x1="1083.2953" y1="1173.8801" x2="1105.9127" y2="1173.8801">
		<stop  offset="0" style="stop-color:#FFFFFF"/>
		<stop  offset="0.3221" style="stop-color:#F4F7FB"/>
		<stop  offset="1" style="stop-color:#DFE9F3"/>
	</linearGradient>
	<path class="st93" d="M1105.9,1173.9c0,6.1-5.1,11.3-11.1,11.4c-6.2,0.1-11.2-4.7-11.5-10.9c-0.3-6.5,4.6-11.8,11-11.9
		C1100.7,1162.3,1105.9,1167.5,1105.9,1173.9z"/>
	<linearGradient id="SVGID_88_" gradientUnits="userSpaceOnUse" x1="1129.0433" y1="1173.8761" x2="1151.6486" y2="1173.8761">
		<stop  offset="0" style="stop-color:#FFFFFF"/>
		<stop  offset="0.3221" style="stop-color:#F4F7FB"/>
		<stop  offset="1" style="stop-color:#DFE9F3"/>
	</linearGradient>
	<path class="st94" d="M1151.6,1173.8c0,6.3-4.7,11.3-10.9,11.5c-6.3,0.2-11.7-5-11.7-11.4c0-6.4,5.2-11.6,11.6-11.4
		C1146.8,1162.6,1151.6,1167.6,1151.6,1173.8z"/>
</g>
<g>
	<path d="M135.3,1421.5c-0.1,0-0.1-0.1-0.1-0.1c0,0,0.1,0,0.1-0.1C135.3,1421.4,135.3,1421.4,135.3,1421.5z"/>
	<path d="M322.2,1325.4c-3.4-5.9-10.6-8.7-17.2-6.8c-7.1,2.1-11.5,8.3-10.7,16.2c0.4,3.7-0.5,5.7-3.8,7.1c-2,0.8-3.9,2.1-5.8,3.2
		c-7.9,4.6-7.9,4.6-12.4-3c-2.1-3.6-4.7-7-6.3-10.9c-3.4-8-8.1-13-15.8-10.3c-5.3,0-8.8,0-12.4,0c-1.4,0-2.8,0.3-2.8,2.1
		c0.1,1.8,1.7,1.8,3,1.8c4.6,0,9.3,0.3,13.9-0.1c4.1-0.4,6.4,1.2,8.4,4.7c7.2,12.7,13.8,25.7,22,37.6c7.5,10.9,9.9,20.4,0.1,30.9
		c-1.2,1.2-3.1,3.7-0.9,5.2c3,2,3.5-1.7,4.5-3.2c10.3-16.7,10.3-16.7,0.7-32.9c-8.2-13.8-8.2-13.7,6-21.8c2.9-1.6,4.7-1.9,7.5,0.3
		c6.3,4.7,13.9,4,19.3-1.1C324.5,1339.5,325.7,1331.3,322.2,1325.4z M309.5,1344.1c-6.5,0.1-11.2-4.5-11.3-11
		c-0.1-6.4,4.6-11.1,11.2-11.1c6.1,0,11.3,5.2,11.2,11.3C320.3,1339.4,315.6,1344,309.5,1344.1z"/>
	<path d="M209.2,1320.9c-19.8-1.8-20-1.7-29.9,15.4c-0.7,1.1-1.3,2.3-1.9,3.5c-5.7,10.5-5.7,10.4-16.4,4.6
		c-4.8-2.6-8.5-4.6-7.4-11.7c1-6.6-5.2-12.4-12-13.7c-6.5-1.3-12.9,1.8-16.1,7.7c-3.3,5.9-2.3,13,2.4,17.6c5,4.9,13.2,6.8,18.1,2.6
		c5.1-4.4,8.4-2.5,12.5,0.5c2.3,1.7,4.9,3.1,7.5,4.3c3.1,1.4,3,3,1.4,5.6c-4.3,7-8.1,14.2-12.4,21.1c-1.9,3.1-2.4,5.6,0.2,8.3
		c2.4,4.8,4.6,9.7,7.2,14.4c0.9,1.6,2.1,4.3,4.9,2.1c2.5-2-0.4-2.8-1-4c-1.8-3.4-3.7-6.7-5.6-10.1c-3.3-4.4-2.7-8.4,0.2-13
		c7.2-11.6,14.6-23.2,20.3-35.5c5.6-12.1,12.9-19.1,26.9-15.9c0.4,0.1,0.9,0,1.3,0c1.5,0,3.5,0.5,3.4-1.8
		C212.6,1320.7,210.7,1321,209.2,1320.9z M138.7,1345c-6.5-0.1-11.2-5-11.2-11.3c0.1-6.4,5-11.1,11.5-10.9
		c6.2,0.2,10.8,4.8,10.8,10.9C149.8,1340,144.8,1345.2,138.7,1345z"/>
	<path d="M213.7,1483.2c-0.1,0.1-0.1,0.2-0.2,0.3v-0.3C213.5,1483.1,213.6,1483.2,213.7,1483.2z"/>
	<path d="M213.7,1478.4c-0.1,0-0.1,0.1-0.2,0.1v-0.3C213.6,1478.2,213.6,1478.3,213.7,1478.4z"/>
	<path d="M135.3,1421.5c-0.1,0-0.1-0.1-0.1-0.1c0,0,0.1,0,0.1-0.1C135.3,1421.4,135.3,1421.4,135.3,1421.5z"/>
	<path d="M270.6,1422c-2-0.9-2.6,0.8-3.4,2.1c-2.5,4.6-5,9.2-7.5,13.8c-1.3,1-1.9,2.9-3.8,3.1c-16.6-0.1-33.2-1.1-49.7,0
		c-11.4,0.7-19.4-1.6-23-13.2c-0.4-1.2-1.3-2.3-2-3.4c-0.8-1.4-1.5-2.9-3.5-1.9c-2.3,1.2-0.7,2.7-0.1,3.8c3.4,5.8,7,11.6,10.6,17.4
		c9,2.4,18.2,0.4,27.3,1.1c2.5,0.2,5.4-1.2,7.3,1.6c1,6.2,1.1,12.4,0,18.6c-4.4,3.1-10.7,4-12,10.6c-2,3.6-2.4,7.2,0,10.7
		c2.7,7.1,8,10.6,15.1,9.9c6.5-0.7,11.2-4,13-10.5c2-7.2-0.3-14.7-6.9-17.5c-5.2-2.2-6-5.3-5.6-10c0.2-2.4,0.3-4.9,0-7.3
		c-0.8-5,1.1-6.2,6-6.3c9.1-0.1,18.4,1.5,27.4-0.9c4.6-5.4,7.2-11.9,10.9-17.9C271.6,1424.6,272.9,1423,270.6,1422z M227.5,1470.4
		c5,1.4,7.8,4.8,8.2,9.9c0.5,5.6-2.6,9.2-7.4,11.2c-4.5,1.9-8.7,0.6-12-3c-1.3-1.4-2-3.4-2.9-5.1v-0.3c0-1.5,0-3.1,0-4.6v-0.3
		C217.3,1471.1,221.5,1468.7,227.5,1470.4z"/>
	<path d="M213.7,1483.2c-0.1,0.1-0.1,0.2-0.2,0.3v-0.3C213.5,1483.1,213.6,1483.2,213.7,1483.2z"/>
	<path d="M213.7,1478.4c-0.1,0-0.1,0.1-0.2,0.1v-0.3C213.6,1478.2,213.6,1478.3,213.7,1478.4z"/>
	<path d="M135.3,1421.5c-0.1,0-0.1-0.1-0.1-0.1c0,0,0.1,0,0.1-0.1C135.3,1421.4,135.3,1421.4,135.3,1421.5z"/>
	<path d="M320.2,1420.7c-5.7-5.4-13.3-6.1-19.8-1c-3,2.3-4.9,1.6-7.5,0.1c-7.8-4.5-15.7-8.9-23.5-13.3c-0.1-14.5-0.4-29-0.1-43.5
		c0.1-4.9-1.7-7.3-5.9-9.6c-12.7-7.2-25.8-13.9-37.8-22.5c-0.1-9.7-0.1-19.4-0.2-29.1c0.2-0.8,0.4-1.6,0.5-2.4
		c9.1-2.5,14.2-9.1,12.9-17c-1.3-8.1-8-13.4-16.3-13c-7.5,0.4-13.1,5.9-13.8,13.4c-0.8,8.2,3.6,13.8,12.7,16.5
		c1.2,7-0.1,14.1,0.7,21.1c1,8.4-1.1,14.2-9.7,17.4c-4.7,1.7-8.8,4.9-13.1,7.5c-6.4,3.8-14.9,6.2-18.8,11.8
		c-4.1,5.9-0.9,14.9-1.2,22.5c-0.3,9,2.6,19.7-1.4,26.5c-3.9,6.8-14.7,9.7-22.3,14.4c-2.7,1.6-4.4,2.1-7.4-0.2
		c-3.8-2.9-8.5-4.7-13.5-1.9c-8.4,2.9-12.5,10.2-10.2,18.5c2.1,7.3,9.8,12,17.5,10.4c8.8-1.8,13.1-8.5,11.6-18.1
		c0-1.6,0.1-3,1.8-3.9c8-4.6,16.1-9,23.9-13.9c2.6-1.7,4.2-0.1,5.9,0.9c11.4,6.5,22.9,13,34.2,19.8c3.4,2,6,2.3,9.6,0.1
		c11.2-6.9,22.8-13.3,34.2-19.9c2.3-1.4,4.6-2.7,7.3-1c7.2,4.3,14.2,8.6,21.5,12.7c2.5,1.4,3.2,2.6,2.8,5.6
		c-1,8.1,3.4,14.6,10.7,16.8c6.5,1.9,13.8-0.9,17.2-6.6C326.2,1433.3,325.3,1425.5,320.2,1420.7z M145.4,1441.3
		c-3.8,2.6-7.7,3.1-11.8,0.7c-4.2-2.5-6.1-6.2-5.6-11.1c0.5-4.5,3.5-7.3,7.1-9.6c0,0,0.1,0,0.1-0.1c6.3-1,11.1,1.1,14.4,6.6v0
		C151.3,1433.4,150.2,1437.9,145.4,1441.3z M212.5,1284.6c-0.1-6,5.2-11.5,11.2-11.5c6,0,11.4,5.3,11.4,11.3s-5.4,11.3-11.5,11.1
		C217.6,1295.4,212.6,1290.4,212.5,1284.6z M265.3,1403.8c-0.3,2.9-2.7,3.8-4.7,5c-10.9,6.3-21.8,12.5-32.6,18.9
		c-2.6,1.6-4.6,1.8-7.3,0.2c-11.6-6.8-23.2-13.5-34.9-20.1c-1.8-1-2.5-2.3-2.9-4.1c-0.8-15-1.3-30,0.3-45
		c11.9-6.7,23.9-13.2,35.6-20.3c4.2-2.6,7.1-2.2,11.2,0.3c11.5,7,23.3,13.4,35,20c1.9,6,0.7,12.1,0.8,18.2
		C265.8,1385.9,266.5,1394.9,265.3,1403.8z M309.9,1442.7c-6.2,0.1-11.2-4.7-11.3-11.2c-0.2-5.9,4.6-10.9,10.5-11.2
		c6.4-0.3,11.6,4.8,11.7,11.4C320.7,1437.5,315.8,1442.5,309.9,1442.7z"/>
	<path d="M213.5,1483.1v0.3c0.1-0.1,0.1-0.2,0.2-0.3C213.6,1483.2,213.5,1483.1,213.5,1483.1z M213.5,1478.1v0.3
		c0.1,0,0.1-0.1,0.2-0.1C213.6,1478.3,213.6,1478.2,213.5,1478.1z"/>
	<text transform="matrix(1 0 0 1 190.0622 1397.1923)" class="st95 st96">ERP</text>
</g>
<g>
	<path class="st97" d="M344.5,880.7c1,1.3,1.7,3.3,1,4.3c-4.2,6-0.4,14-5.3,19.7c-0.5,0.6-1.1,1.7-1,2.4c1.9,9.7-5.2,10.7-11.8,12.1
		c-12.8,2.7-25.4,2.1-37.9-1.5c-5.5-1.6-11-2.6-16.7,0.2c-3.4,1.7-7.4,0.4-11.2,0.4c-3.2,0-2.5-2.4-2.5-4.3c0-6.2,0-12.4,0-18.6
		c0-5.7,0.2-11.5-0.1-17.2c-0.1-3.2,0.5-5.1,4.2-4.5c4.1,0.6,8.3-1.2,12.3,1.2c2.4,1.5,4-0.5,4.9-2c7.3-12.8,16-24.5,23.8-36.9
		c1.9-3,1.8-7.2,2.9-10.8c1.5-4.7,4.2-5.1,7.7-1.6c4.2,4.3,5.1,13.9,1.9,20.6c-1.3,2.8-2.9,5.5-4.4,8.1c-2.4,4.2-1.5,6.7,3.5,7.1
		c5.9,0.4,11.9,0.7,17.8,1.1c10.4,0.8,13.5,5.3,10.4,15.2C343.5,877.7,343.4,879.2,344.5,880.7z"/>
	<path class="st97" d="M709.8,858.4c0-0.2,0-0.3,0-0.5c0-0.1,0-0.2,0-0.3c0-6.9,0.1-13.9,0-20.8v-0.1c-0.5-4-2.7-6.8-5.4-9.6
		c-5.5-5.8-12.2-7.1-19.9-7.1c-101,0.1-202.1,0-303.1,0.2c-7.1,0-12.6-1.9-17.6-7.1c-9.2-9.6-20.5-16-33.2-20
		c-6.4-2-13.1-1.5-19.5-2.8h-21.2c-15,1.6-28.7,6.8-40.9,15.7c-20.7,15.2-33.3,35.4-36.1,61.3v23.9c3,28.1,17.3,48.9,40.6,64.1
		c10.3,6.7,21.6,10.7,33.7,12.9H311c0.7-0.5,1.6-0.7,2.5-0.7c19.5,0.1,35.6-8.2,49.2-21.3c5.9-5.6,11.8-8,19.9-8
		c100.6,0.2,201.2,0.2,301.8,0.1c14.3,0,21.1-4.8,26-18v-43.8C708.9,870.5,710,864.4,709.8,858.4z M296.7,952.4
		c-31.3-2.1-69.3-30.3-68.4-75.4c0.9-42.6,39.4-72.9,73.8-71c38.8-1.6,74.4,33.6,73.9,74.5C375.7,917,341.9,955.4,296.7,952.4z
		 M694.6,911.8c-0.1,6-2.2,9.1-9.1,9.1c-98.4-0.3-196.8-0.5-295.2-0.7c-8.2,0-8.5-0.2-5.4-8c9-22.9,8.5-45.7-0.9-68.3
		c-2.4-5.9,0.1-5.9,4.6-5.9c49.5,0.1,99.1,0,148.6,0v-0.6h147.3c8.6,0,9.8,1,10.1,9.3C695.3,868.5,695.2,890.1,694.6,911.8z
		 M656.4,853.9c-2.6,12.3-10,17.3-22.2,15.7c5.4,7.2,9.1,18.3,9,26.2c4.4-2,8.6-5,13.1-5.7c4.9-0.8,8.2,5.1,13.4,5.7
		c-1.5-14.9-1.5-14.9,10.2-26.7C666,871.9,659.3,866.2,656.4,853.9z M601.2,852.8c-2.8,6.1-3.8,12-7.2,14.5
		c-3.7,2.6-9.6,2.1-16.8,3.3c11.5,6.5,15.2,14.6,9.3,26.3c9.8-8.6,18.8-8.1,28.2,0.3c-1-6.4-3.3-11.7-2.2-16.2
		c1-4.4,7.7-5.9,10.3-11.6C610.4,871.2,603.6,865.7,601.2,852.8z M545.2,853.7c-2.5,12.5-10,17.3-22.3,16.5
		c9.3,6.8,14.5,14.3,8.4,26.4c9.7-8.7,18.5-8.1,28,0.4c-5.3-11.6-2.5-20.1,8.4-26.7C555.2,871,547.8,866.1,545.2,853.7z
		 M489.5,853.9c-2.7,12.6-10.2,17.2-23.4,15.5c5.1,5.1,10.3,8.1,11.8,12.4c1.4,4-1.1,9.4-2.2,16.1c9.6-9.6,18.5-9,27.5-0.5
		c0.5-6.3-4-11.5-1.9-15.8c2.1-4.1,7-6.8,10.7-10.1c-0.1-0.7-0.3-1.3-0.4-2C499.2,871.6,492.5,865.6,489.5,853.9z M433.8,854.1
		c-2.2,13.4-10.7,16.7-20.7,15.8c3.2,3.7,7.6,6.9,9.3,11.1c1.7,4.2-1.1,9.1-2.5,15.9c9.7-7.4,18.7-8.7,28.3-0.5
		c-5.9-11.8-1.4-19.6,8.6-26.5C443.3,872.4,437.5,865.2,433.8,854.1z"/>
	<path class="st97" d="M709.1,836.7c0.4,0,0.9,0,1.3,0c0,7.1,0,14.2,0,21.2c-0.5,0.6-0.9,0.6-1.1-0.2
		C709.2,850.8,709.1,843.8,709.1,836.7z"/>
	<path class="st97" d="M709.3,857.8c0.4,0.1,0.8,0.1,1.1,0.2c0,6.2,0,12.4,0,18.6C707.8,870.4,709.5,864.1,709.3,857.8z"/>
	<path class="st97" d="M456.7,870c-10,6.9-14.5,14.6-8.6,26.5c-9.6-8.3-18.6-7-28.3,0.5c1.4-6.8,4.2-11.8,2.5-15.9
		c-1.7-4.2-6-7.4-9.3-11.1c10,0.9,18.6-2.5,20.7-15.8C437.5,865.2,443.3,872.4,456.7,870z"/>
	<path class="st97" d="M511.7,869.4c0.1,0.7,0.3,1.3,0.4,2c-3.7,3.3-8.7,6-10.7,10.1c-2.1,4.3,2.3,9.5,1.9,15.8
		c-9-8.5-17.8-9.1-27.5,0.5c1.1-6.6,3.6-12,2.2-16.1c-1.5-4.3-6.6-7.3-11.8-12.4c13.2,1.7,20.7-2.9,23.4-15.5
		C492.5,865.6,499.2,871.6,511.7,869.4z"/>
	<path class="st97" d="M567.7,870.3c-10.8,6.5-13.6,15.1-8.4,26.7c-9.5-8.5-18.4-9.1-28-0.4c6.1-12,0.8-19.6-8.4-26.4
		c12.3,0.8,19.8-4.1,22.3-16.5C547.8,866.1,555.2,871,567.7,870.3z"/>
	<path class="st97" d="M622.7,869.4c-2.6,5.7-9.2,7.2-10.3,11.6c-1.1,4.5,1.2,9.8,2.2,16.2c-9.3-8.5-18.4-8.9-28.2-0.3
		c5.9-11.7,2.2-19.8-9.3-26.3c7.2-1.2,13.2-0.6,16.8-3.3c3.4-2.5,4.3-8.3,7.2-14.5C603.6,865.7,610.4,871.2,622.7,869.4z"/>
	<path class="st97" d="M669.7,895.8c-5.1-0.6-8.5-6.5-13.4-5.7c-4.5,0.7-8.7,3.7-13.1,5.7c0.1-7.9-3.6-19.1-9-26.2
		c12.2,1.6,19.6-3.5,22.2-15.7c2.9,12.3,9.7,18,23.5,15.2C668.2,880.9,668.2,880.9,669.7,895.8z"/>
	<path class="st97" d="M345.5,885c-4.2,6-0.4,14-5.3,19.7c-0.5,0.6-1.1,1.7-1,2.4c1.9,9.7-5.2,10.7-11.8,12.1
		c-12.8,2.7-25.4,2.1-37.9-1.5c-5.5-1.6-11-2.6-16.7,0.2c-3.4,1.7-7.4,0.4-11.2,0.4c-3.2,0-2.5-2.4-2.5-4.3c0-6.2,0-12.4,0-18.6
		c0-5.7,0.2-11.5-0.1-17.2c-0.1-3.2,0.5-5.1,4.2-4.5c4.1,0.6,8.3-1.2,12.3,1.2c2.4,1.5,4-0.5,4.9-2c7.3-12.8,16-24.5,23.8-36.9
		c1.9-3,1.8-7.2,2.9-10.8c1.5-4.7,4.2-5.1,7.7-1.6c4.2,4.3,5.1,13.9,1.9,20.6c-1.3,2.8-2.9,5.5-4.4,8.1c-2.4,4.2-1.5,6.7,3.5,7.1
		c5.9,0.4,11.9,0.7,17.8,1.1c10.4,0.8,13.5,5.3,10.4,15.2c-0.6,1.9-0.6,3.4,0.5,4.9C345.5,882,346.3,884,345.5,885z"/>
	<path class="st97" d="M501.4,881.5c-2.1,4.3,2.3,9.5,1.9,15.8c-9-8.5-17.8-9.1-27.5,0.5c1.1-6.6,3.6-12,2.2-16.1
		c-1.5-4.3-6.6-7.3-11.8-12.4c13.2,1.7,20.7-2.9,23.4-15.5c3,11.7,9.7,17.7,22.2,15.5c0.1,0.7,0.3,1.3,0.4,2
		C508.4,874.7,503.4,877.4,501.4,881.5z"/>
	<path class="st97" d="M559.3,897c-9.5-8.5-18.4-9.1-28-0.4c6.1-12,0.8-19.6-8.4-26.4c12.3,0.8,19.8-4.1,22.3-16.5
		c2.5,12.4,10,17.4,22.5,16.6C556.9,876.8,554.1,885.3,559.3,897z"/>
	<path class="st97" d="M669.7,895.8c-5.1-0.6-8.5-6.5-13.4-5.7c-4.5,0.7-8.7,3.7-13.1,5.7c0.1-7.9-3.6-19.1-9-26.2
		c12.2,1.6,19.6-3.5,22.2-15.7c2.9,12.3,9.7,18,23.5,15.2C668.2,880.9,668.2,880.9,669.7,895.8z"/>
	<path class="st97" d="M448.1,896.5c-9.6-8.3-18.6-7-28.3,0.5c1.4-6.8,4.2-11.8,2.5-15.9c-1.7-4.2-6-7.4-9.3-11.1
		c10,0.9,18.6-2.5,20.7-15.8c3.7,11.1,9.5,18.4,22.9,15.9C446.7,876.9,442.2,884.7,448.1,896.5z"/>
	<path class="st97" d="M612.5,881c-1.1,4.5,1.2,9.8,2.2,16.2c-9.3-8.5-18.4-8.9-28.2-0.3c5.9-11.7,2.2-19.8-9.3-26.3
		c7.2-1.2,13.2-0.6,16.8-3.3c3.4-2.5,4.3-8.3,7.2-14.5c2.4,12.9,9.2,18.4,21.5,16.5C620.1,875.1,613.5,876.6,612.5,881z"/>
	<path class="st97" d="M345.5,885c-4.2,6-0.4,14-5.3,19.7c-0.5,0.6-1.1,1.7-1,2.4c1.9,9.7-5.2,10.7-11.8,12.1
		c-12.8,2.7-25.4,2.1-37.9-1.5c-5.5-1.6-11-2.6-16.7,0.2c-3.4,1.7-7.4,0.4-11.2,0.4c-3.2,0-2.5-2.4-2.5-4.3c0-6.2,0-12.4,0-18.6
		c0-5.7,0.2-11.5-0.1-17.2c-0.1-3.2,0.5-5.1,4.2-4.5c4.1,0.6,8.3-1.2,12.3,1.2c2.4,1.5,4-0.5,4.9-2c7.3-12.8,16-24.5,23.8-36.9
		c1.9-3,1.8-7.2,2.9-10.8c1.5-4.7,4.2-5.1,7.7-1.6c4.2,4.3,5.1,13.9,1.9,20.6c-1.3,2.8-2.9,5.5-4.4,8.1c-2.4,4.2-1.5,6.7,3.5,7.1
		c5.9,0.4,11.9,0.7,17.8,1.1c10.4,0.8,13.5,5.3,10.4,15.2c-0.6,1.9-0.6,3.4,0.5,4.9C345.5,882,346.3,884,345.5,885z"/>
</g>
</svg>
