<?xml version="1.0" encoding="utf-8"?>
<!-- Generator: Adobe Illustrator 19.0.0, SVG Export Plug-In . SVG Version: 6.00 Build 0)  -->
<svg version="1.1" xmlns="http://www.w3.org/2000/svg" xmlns:xlink="http://www.w3.org/1999/xlink" x="0px" y="0px"
	 viewBox="0 0 792 286" enable-background="new 0 0 792 286" xml:space="preserve">
<g id="Layer_2">
</g>
<g id="Layer_1">
	<path fill-rule="evenodd" clip-rule="evenodd" fill="#C5D6FF" d="M441.4,184.3L436,189c-1.9-2.6-3.8-3.9-5.8-3.9
		c-1,0-1.7,0.3-2.3,0.8c-0.6,0.5-0.9,1.1-0.9,1.7c0,0.6,0.2,1.3,0.6,1.8c0.6,0.8,2.4,2.4,5.3,4.9c2.8,2.3,4.5,3.8,5,4.4
		c1.5,1.5,2.5,2.9,3.1,4.3c0.6,1.4,0.9,2.8,0.9,4.4c0,3.1-1.1,5.7-3.2,7.7c-2.2,2-5,3.1-8.5,3.1c-2.7,0-5.1-0.7-7.1-2
		c-2-1.3-3.7-3.4-5.2-6.3l6.1-3.7c1.8,3.4,4,5,6.3,5c1.3,0,2.3-0.4,3.2-1.1c0.8-0.7,1.3-1.6,1.3-2.5c0-0.9-0.3-1.7-1-2.6
		c-0.6-0.9-2.1-2.2-4.2-4c-4.2-3.4-6.8-6-8.1-7.8c-1.2-1.8-1.8-3.7-1.8-5.5c0-2.6,1-4.9,3-6.8c2-1.9,4.5-2.8,7.5-2.8
		c1.9,0,3.7,0.4,5.4,1.3C437.5,180.3,439.4,182,441.4,184.3z M362.8,179.1h6.9l16.4,25.1v-25.1h7.2v38.1h-6.9l-16.4-25v25h-7.2
		V179.1z M316.8,185.3c-3.5,0-6.5,1.2-8.9,3.7c-2.4,2.5-3.6,5.6-3.6,9.3c0,4.2,1.5,7.5,4.5,10c2.4,1.9,5,2.9,8.1,2.9
		c3.4,0,6.3-1.2,8.8-3.7c2.4-2.5,3.6-5.5,3.6-9.2c0-3.6-1.2-6.7-3.6-9.2C323.2,186.5,320.2,185.3,316.8,185.3z M316.9,178.2
		c5.4,0,10,1.9,13.9,5.9c3.9,3.9,5.8,8.7,5.8,14.3c0,5.6-1.9,10.3-5.7,14.1c-3.8,3.9-8.5,5.8-13.9,5.8c-5.7,0-10.5-2-14.3-5.9
		c-3.8-4-5.7-8.7-5.7-14.1c0-3.6,0.9-7,2.6-10c1.8-3.1,4.2-5.5,7.3-7.3C310,179,313.3,178.2,316.9,178.2z M264.2,179.1h7.2v38.1
		h-7.2V179.1z M219.4,179.1h21.1v7.2h-7v31h-7.4v-31h-6.7V179.1z M169.5,179.1h7.3v24.7c0,2.1,0.2,3.6,0.6,4.5
		c0.4,0.9,1,1.6,1.8,2.1c0.9,0.5,1.9,0.8,3.1,0.8c1.3,0,2.4-0.3,3.3-0.9c0.9-0.6,1.6-1.3,1.9-2.2c0.4-0.9,0.5-2.6,0.5-5.2v-23.7h7.3
		v22.7c0,3.8-0.2,6.5-0.6,8c-0.4,1.5-1.3,2.9-2.5,4.3c-1.2,1.4-2.6,2.4-4.2,3.1c-1.6,0.7-3.4,1-5.5,1c-2.8,0-5.2-0.6-7.2-1.9
		c-2.1-1.3-3.5-2.9-4.4-4.8c-0.9-1.9-1.3-5.1-1.3-9.7V179.1z M127.1,179.1h7.2v31.2H145v6.9h-17.9V179.1z M81.1,185.3
		c-3.5,0-6.5,1.2-8.9,3.7c-2.4,2.5-3.6,5.6-3.6,9.3c0,4.2,1.5,7.5,4.5,10c2.3,1.9,5,2.9,8.1,2.9c3.4,0,6.3-1.2,8.8-3.7
		c2.4-2.5,3.6-5.5,3.6-9.2c0-3.6-1.2-6.7-3.6-9.2C87.5,186.5,84.6,185.3,81.1,185.3z M81.2,178.2c5.4,0,10,1.9,13.9,5.9
		c3.9,3.9,5.8,8.7,5.8,14.3c0,5.6-1.9,10.3-5.7,14.1c-3.8,3.9-8.5,5.8-13.9,5.8c-5.7,0-10.5-2-14.3-5.9c-3.8-4-5.7-8.7-5.7-14.1
		c0-3.6,0.9-7,2.7-10c1.8-3.1,4.2-5.5,7.3-7.3C74.3,179,77.6,178.2,81.2,178.2z M36.3,184.3l-5.4,4.7c-1.9-2.6-3.8-3.9-5.8-3.9
		c-1,0-1.7,0.3-2.3,0.8c-0.6,0.5-0.9,1.1-0.9,1.7c0,0.6,0.2,1.3,0.6,1.8c0.6,0.8,2.4,2.4,5.3,4.9c2.8,2.3,4.4,3.8,5,4.4
		c1.5,1.5,2.5,2.9,3.1,4.3c0.6,1.4,0.9,2.8,0.9,4.4c0,3.1-1.1,5.7-3.2,7.7c-2.2,2-5,3.1-8.5,3.1c-2.7,0-5.1-0.7-7.1-2
		c-2-1.3-3.8-3.4-5.2-6.3l6.1-3.7c1.8,3.4,4,5,6.3,5c1.3,0,2.3-0.4,3.2-1.1c0.8-0.7,1.3-1.6,1.3-2.5c0-0.9-0.3-1.7-1-2.6
		c-0.6-0.9-2.1-2.2-4.2-4c-4.2-3.4-6.8-6-8.1-7.8c-1.2-1.8-1.8-3.7-1.8-5.5c0-2.6,1-4.9,3-6.8c2-1.9,4.5-2.8,7.5-2.8
		c1.9,0,3.7,0.4,5.4,1.3C32.4,180.3,34.3,182,36.3,184.3z"/>
	<path fill-rule="evenodd" clip-rule="evenodd" fill="#FFFFFF" d="M742.2,22h25.9v143.3h-25.9V22z M665.6,83.1c-8,0-14.7,2.8-20,8.5
		c-5.3,5.6-8,12.9-8,21.8c0,8.9,2.7,16.3,8.1,22c5.4,5.7,12.1,8.6,20,8.6c8.2,0,14.9-2.8,20.3-8.5c5.4-5.6,8.1-13.1,8.1-22.3
		c0-9-2.7-16.3-8.1-21.8C680.7,85.9,673.8,83.1,665.6,83.1z M692.9,61.9h25.9v103.4h-25.9v-11c-5.1,4.8-10.2,8.2-15.3,10.4
		c-5.1,2.1-10.6,3.2-16.6,3.2c-13.4,0-25-5.2-34.7-15.5c-9.8-10.3-14.6-23.2-14.6-38.5c0-15.9,4.7-29,14.2-39.2
		c9.4-10.2,20.9-15.3,34.4-15.3c6.2,0,12,1.2,17.5,3.5c5.5,2.3,10.5,5.8,15.1,10.4V61.9z M567,61.9h25.9v103.4H567V61.9z M580,19.5
		c4.5,0,8.4,1.6,11.7,4.9c3.3,3.3,4.9,7.2,4.9,11.9c0,4.6-1.6,8.5-4.8,11.8c-3.2,3.2-7.1,4.9-11.6,4.9c-4.6,0-8.5-1.7-11.8-5
		c-3.3-3.3-4.9-7.3-4.9-12.1c0-4.5,1.6-8.4,4.8-11.6C571.5,21.1,575.4,19.5,580,19.5z M390.4,100.7c-1.7-5.6-5.1-10.3-10.1-13.8
		c-5.1-3.5-10.9-5.3-17.6-5.3c-7.2,0-13.6,2-19,6c-3.4,2.5-6.6,6.8-9.5,13.1H390.4z M416.2,120.9h-83.3c1.2,7.4,4.4,13.2,9.6,17.6
		c5.2,4.4,11.8,6.5,19.9,6.5c9.7,0,17.9-3.4,24.9-10.2l21.7,10.3c-5.4,7.7-11.9,13.4-19.5,17.2c-7.6,3.7-16.6,5.5-27,5.5
		c-16.2,0-29.3-5.1-39.5-15.3c-10.2-10.2-15.3-23-15.3-38.3c0-15.7,5.1-28.8,15.3-39.2c10.2-10.4,22.9-15.6,38.2-15.6
		c16.3,0,29.5,5.2,39.7,15.5c10.2,10.4,15.3,24.1,15.3,41.1L416.2,120.9z M233.4,83.1c-8,0-14.7,2.8-20,8.5c-5.3,5.6-8,12.9-8,21.8
		c0,8.9,2.7,16.3,8.1,22c5.4,5.7,12.1,8.6,20,8.6c8.2,0,14.9-2.8,20.3-8.5c5.4-5.6,8.1-13.1,8.1-22.3c0-9-2.7-16.3-8.1-21.8
		C248.4,85.9,241.6,83.1,233.4,83.1z M260.7,22h25.9v143.3h-25.9v-11c-5.1,4.8-10.2,8.2-15.3,10.4c-5.1,2.1-10.6,3.2-16.6,3.2
		c-13.4,0-25-5.2-34.7-15.5c-9.8-10.3-14.6-23.2-14.6-38.5c0-15.9,4.7-29,14.2-39.2c9.4-10.2,20.9-15.3,34.4-15.3
		c6.2,0,12,1.2,17.5,3.5c5.5,2.3,10.5,5.8,15.1,10.5V22z M67.2,61.9h25.9v10.6c5.9-4.9,11.2-8.3,16-10.3c4.8-1.9,9.7-2.9,14.7-2.9
		c10.3,0,19,3.6,26.1,10.7c6,6.1,9,15.1,9,27v68.3h-25.7v-45.2c0-12.3-0.6-20.5-1.7-24.5c-1.1-4.1-3-7.1-5.8-9.3
		c-2.8-2.1-6.2-3.2-10.2-3.2c-5.3,0-9.8,1.8-13.5,5.3c-3.8,3.5-6.4,8.4-7.8,14.5c-0.8,3.3-1.1,10.2-1.1,21v41.4H67.2V61.9z
		 M17.8,61.9h25.9v103.4H17.8V61.9z M30.9,19.5c4.5,0,8.4,1.6,11.7,4.9c3.3,3.3,4.9,7.2,4.9,11.9c0,4.6-1.6,8.5-4.8,11.8
		C39.4,51.3,35.5,53,31,53c-4.6,0-8.5-1.7-11.8-5c-3.3-3.3-4.9-7.3-4.9-12.1c0-4.5,1.6-8.4,4.8-11.6C22.4,21.1,26.3,19.5,30.9,19.5z
		"/>
	<path id="XMLID_48_" fill-rule="evenodd" clip-rule="evenodd" fill="#C5D6FF" d="M455.4,20.2c19.5-12.6,44.7-12.8,64.3-0.5
		l-32.4,49.6L455.4,20.2z"/>
	<path id="XMLID_47_" fill-rule="evenodd" clip-rule="evenodd" fill="#C5D6FF" d="M441.8,138.7c-10.5-19.2-17.3-37.9-16.6-54.5
		c0-18.8,4.6-34,12.1-45.6l35,53.8L441.8,138.7z"/>
	<path id="XMLID_46_" fill-rule="evenodd" clip-rule="evenodd" fill="#C5D6FF" d="M518.8,163.4c-9.6,14.1-20.4,28.1-30.9,41.3
		c-10.7-13.5-21.8-27.8-31.6-42.3l30.9-47L518.8,163.4z"/>
	<path id="XMLID_45_" fill-rule="evenodd" clip-rule="evenodd" fill="#C5D6FF" d="M550.7,84.2c0.7,16.9-6.3,36.1-17.2,55.6
		l-31.1-47.4l35.7-54.6C545.9,49.5,550.7,65,550.7,84.2z"/>
	<path fill-rule="evenodd" clip-rule="evenodd" fill="#FFFFFF" d="M556.6,273.9c0.5,0,0.9-0.4,1.2-1.1c0.3-0.7,0.6-1.8,1-3.1
		c0.1-0.3,0.2-0.7,0.3-1.3c0.1-0.6,0.3-1.2,0.5-2c0.2-0.7,0.4-1.5,0.6-2.4c0.2-0.8,0.4-1.7,0.6-2.6c-0.2,0.2-0.4,0.4-0.6,0.6
		c-0.2,0.2-0.4,0.4-0.7,0.7c-0.6,0.5-1.1,1-1.6,1.5c-0.5,0.5-1,1-1.4,1.6c-0.4,0.6-0.7,1.1-1,1.8c-0.2,0.6-0.4,1.4-0.4,2.2
		c0,0.8,0,1.5,0.1,2.1c0.1,0.5,0.2,0.9,0.3,1.3c0.1,0.3,0.3,0.5,0.4,0.6C556.2,273.9,556.4,273.9,556.6,273.9z M558.3,256.2
		c0.5,0,1-0.1,1.5-0.4c0.5-0.3,0.9-0.6,1.3-1c0.4-0.4,0.7-0.8,1-1.1c0.2-0.4,0.4-0.7,0.6-0.9c0.1-0.2,0.2-0.5,0.4-0.9
		c0.1-0.4,0.2-0.8,0.3-1.1c0.1-0.4,0.1-0.7,0.1-1c0-0.3-0.1-0.4-0.3-0.5c-0.2,0-0.3-0.1-0.4-0.3c-0.1-0.2-0.2-0.4-0.2-0.6
		c0-0.2-0.1-0.5-0.1-0.7c0-0.2,0-0.4,0-0.6c-0.1-0.9-0.3-1.5-0.7-1.9c-0.3-0.4-0.6-0.6-1-0.6c-0.6,0-1.2,0.3-1.8,0.8
		c-0.6,0.5-1.1,1.2-1.5,2c-0.4,0.8-0.8,1.7-1,2.6c-0.2,1-0.4,1.9-0.4,2.7c0,1.1,0.2,1.9,0.5,2.6
		C556.7,255.9,557.4,256.2,558.3,256.2z M563.1,263.7c-0.1,0.6-0.3,1.4-0.5,2.3c-0.2,0.9-0.4,1.9-0.6,2.9c-0.2,1-0.5,2-0.8,3
		c-0.3,1-0.7,1.9-1,2.7c-0.4,0.8-0.8,1.5-1.3,2c-0.5,0.5-1,0.8-1.5,0.8c-0.8,0-1.6-0.3-2.2-0.8c-0.6-0.5-1.1-1.1-1.5-1.9
		c-0.4-0.8-0.7-1.6-0.9-2.4c-0.2-0.9-0.3-1.7-0.3-2.4c0-1,0.1-1.9,0.3-2.5c0.2-0.7,0.5-1.3,0.9-1.9c0.4-0.6,1-1.3,1.8-1.9
		c0.8-0.7,1.7-1.5,2.9-2.6c0.6-0.5,1.1-1,1.7-1.4c0.5-0.5,1-0.9,1.5-1.3c0.1-0.5,0.2-1,0.4-1.4c0.1-0.4,0.2-0.8,0.3-1.2
		c-0.7,0.9-1.5,1.6-2.4,2.2c-0.9,0.6-2,0.9-3.2,0.9c-1.1,0-2-0.5-2.7-1.5c-0.7-1-1-2.4-1-4.3c0-0.9,0.2-2,0.5-3.2
		c0.4-1.2,0.9-2.4,1.5-3.4c0.7-1.1,1.5-2,2.4-2.7c1-0.7,2-1.1,3.2-1.1c0.6,0,1,0.1,1.4,0.4c0.4,0.3,0.7,0.6,1,1.1
		c0.3,0.4,0.5,0.9,0.6,1.3c0.2,0.5,0.3,0.9,0.3,1.3c0-0.2,0.1-0.3,0.1-0.5c0-0.2,0.1-0.3,0.1-0.4c0.3-0.9,0.5-1.4,0.9-1.8
		c0.3-0.3,0.8-0.5,1.4-0.5c0.4,0,0.7,0.1,0.9,0.2c0.2,0.1,0.4,0.2,0.4,0.3c-0.1,0.3-0.2,0.5-0.3,0.6c-0.1,0.2-0.2,0.3-0.2,0.5
		c-0.1,0.2-0.2,0.4-0.2,0.6c-0.1,0.3-0.2,0.6-0.3,1.1c0,0.2-0.1,0.6-0.3,1.2c-0.1,0.7-0.3,1.4-0.5,2.3c-0.2,0.9-0.4,1.9-0.7,2.9
		c-0.2,1.1-0.5,2.1-0.7,3.1c0.7-0.4,1.5-0.9,2.2-1.5c0.8-0.6,1.5-1.2,2.2-1.8c0.7-0.6,1.3-1.2,1.8-1.7c0.5-0.5,0.9-1,1.2-1.4
		c0.2-0.3,0.4-0.5,0.7-0.6c0.3-0.1,0.5-0.2,0.7-0.1c0.2,0,0.3,0.2,0.3,0.3c0,0.2,0,0.4-0.2,0.8c-0.6,0.9-1.3,1.8-2.1,2.7
		c-0.8,0.9-1.7,1.7-2.6,2.4c-0.9,0.7-1.7,1.4-2.6,2c-0.8,0.6-1.5,1-2.1,1.4c-0.3,1.1-0.5,2.1-0.6,2.8
		C563.4,262.5,563.3,263.2,563.1,263.7z M546.4,259.3c-0.6,0-1.1-0.1-1.5-0.3c-0.4-0.2-0.8-0.5-1-0.9c-0.3-0.4-0.4-0.8-0.5-1.2
		c-0.1-0.5,0-1,0.1-1.5c0.1-0.4,0.2-0.8,0.4-1.4c0.2-0.6,0.4-1.2,0.6-1.9c0.2-0.7,0.4-1.4,0.5-2.1c0.2-0.7,0.3-1.3,0.3-1.9
		c0-0.6,0-1-0.1-1.4c-0.1-0.4-0.3-0.6-0.7-0.6c-0.4,0-0.8,0.1-1.3,0.4c-0.4,0.3-0.9,0.6-1.3,1.1c-0.4,0.5-0.9,1-1.3,1.6
		c-0.4,0.6-0.9,1.2-1.3,1.9c-0.2,0.9-0.4,1.6-0.6,2.3c-0.2,0.6-0.3,1.2-0.4,1.7c-0.1,0.5-0.2,1-0.3,1.4c-0.1,0.4-0.2,0.8-0.3,1.1
		c-0.1,0.3-0.3,0.5-0.7,0.7c-0.4,0.2-0.8,0.4-1.2,0.6c-0.4,0.2-0.8,0.2-1.1,0.2c-0.3,0-0.5-0.1-0.4-0.3c0-0.2,0.1-0.5,0.2-1
		c0.1-0.5,0.3-1.2,0.5-1.9c0.2-0.7,0.4-1.5,0.6-2.3c0.2-0.8,0.4-1.6,0.6-2.3c0.1-0.6,0.3-1.2,0.4-1.9c0.1-0.6,0.3-1.3,0.5-2.1
		c0.2-0.8,0.4-1.7,0.7-2.7c0.2-0.2,0.4-0.3,0.5-0.4c0.2-0.1,0.4-0.2,0.6-0.2c0.2-0.1,0.4-0.1,0.6-0.2c0.2,0,0.4,0,0.6,0
		c0.2,0,0.4,0.1,0.6,0.1c0.2,0.1,0.4,0.2,0.5,0.3c-0.1,0.2-0.2,0.4-0.3,0.8c-0.1,0.3-0.2,0.6-0.3,1c-0.1,0.4-0.2,0.8-0.4,1.3
		c0.3-0.5,0.7-0.9,1.1-1.4c0.4-0.5,0.9-0.9,1.4-1.3c0.5-0.4,1-0.7,1.6-0.9c0.6-0.2,1.1-0.4,1.7-0.4c0.5,0,0.9,0.1,1.3,0.4
		c0.4,0.3,0.7,0.7,0.9,1.2c0.2,0.5,0.3,1.1,0.4,1.8c0,0.7-0.1,1.4-0.3,2.2l-0.4,1.7c-0.1,0.5-0.3,1.2-0.5,1.9
		c-0.2,0.7-0.4,1.5-0.7,2.4c-0.2,0.6-0.2,1-0.2,1.5c0,0.4,0.3,0.6,0.8,0.6c0.5,0,1-0.3,1.7-0.8c0.7-0.6,1.4-1.2,2.1-2
		c0.7-0.8,1.4-1.6,2-2.4c0.6-0.8,1.1-1.5,1.5-2c0.2-0.3,0.4-0.5,0.6-0.6c0.2-0.1,0.4-0.1,0.5,0c0.1,0.1,0.2,0.2,0.2,0.5
		c0,0.3-0.1,0.6-0.3,1c-0.2,0.4-0.4,0.8-0.8,1.4c-0.4,0.6-0.8,1.2-1.3,1.9c-0.5,0.7-1.1,1.3-1.6,2c-0.6,0.7-1.2,1.3-1.8,1.8
		c-0.6,0.5-1.3,1-1.9,1.3C547.5,259.1,546.9,259.3,546.4,259.3z M527.5,244c0.1-0.2,0.4-0.3,0.7-0.4c0.4-0.1,0.7-0.2,1.1-0.3
		c0.4-0.1,0.7-0.1,1-0.1c0.3,0,0.5,0,0.6,0c0,0,0,0.3-0.2,0.8c-0.2,0.5-0.3,1.1-0.6,1.8c-0.2,0.7-0.5,1.4-0.7,2.1
		c-0.3,0.7-0.4,1.3-0.6,1.8c-0.1,0.5-0.3,1-0.5,1.5c-0.2,0.6-0.3,1.1-0.5,1.7c-0.1,0.6-0.2,1.1-0.3,1.5c0,0.5,0,0.9,0.1,1.1
		c0.1,0.3,0.3,0.5,0.4,0.6c0.2,0.1,0.3,0.2,0.5,0.2c0.5,0,1.1-0.3,1.9-0.8c0.8-0.6,1.6-1.2,2.4-2c0.8-0.8,1.5-1.6,2.2-2.4
		c0.7-0.8,1.2-1.4,1.5-1.9c0.2-0.3,0.4-0.4,0.6-0.5c0.2-0.1,0.4-0.1,0.5,0c0.1,0.1,0.2,0.3,0.2,0.5c0,0.2-0.1,0.5-0.2,0.8
		c-0.4,0.7-1,1.6-1.8,2.5c-0.8,1-1.6,1.9-2.5,2.8c-0.9,0.9-1.8,1.7-2.6,2.3c-0.9,0.6-1.6,1-2.1,1c-0.4,0-0.8,0-1.3-0.2
		c-0.4-0.2-0.8-0.4-1.1-0.7c-0.3-0.3-0.6-0.6-0.9-1c-0.2-0.4-0.4-0.8-0.4-1.2c-0.1-0.6-0.1-1.5,0-2.6c0.1-1.1,0.2-2.2,0.4-3.4
		c0.2-1.2,0.5-2.3,0.8-3.3C526.7,245.3,527.1,244.5,527.5,244z M532.7,235.9c-0.1,0.3-0.2,0.6-0.4,0.8c-0.2,0.3-0.5,0.5-0.7,0.6
		c-0.3,0.2-0.5,0.3-0.8,0.3c-0.3,0.1-0.5,0-0.7-0.1c-0.5-0.4-0.8-0.8-0.8-1.3c0-0.5,0.1-0.9,0.3-1.3c0.3-0.4,0.6-0.8,0.9-1.1
		c0.4-0.3,0.7-0.5,1-0.5c0.3,0,0.5,0,0.7,0.2c0.2,0.2,0.3,0.4,0.4,0.6c0.1,0.3,0.2,0.6,0.2,0.9C532.8,235.3,532.8,235.6,532.7,235.9
		z M525.4,253.3c-1.1,1.3-2,2.4-2.8,3.2c-0.8,0.8-1.6,1.4-2.2,1.7c-0.6,0.4-1.2,0.6-1.7,0.7c-0.5,0.1-0.9,0.2-1.3,0.2
		c-0.5,0-0.9-0.1-1.2-0.3c-0.3-0.2-0.6-0.5-0.8-0.8c-0.2-0.3-0.4-0.7-0.5-1c-0.1-0.4-0.2-0.7-0.3-0.9c-0.1-0.3-0.2-0.6-0.3-1
		c-0.1-0.4-0.2-0.7-0.4-1.2c-0.5,0.5-1,1.1-1.6,1.7c-0.5,0.5-1,1.1-1.6,1.7c-0.6,0.6-1.2,1.3-1.9,2c-0.2,0-0.4,0-0.6,0
		c-0.2-0.1-0.3-0.1-0.5-0.2c-0.1-0.1-0.3-0.2-0.4-0.3c-0.1-0.1-0.2-0.2-0.2-0.3c0-0.1-0.1-0.2-0.2-0.3c-0.1-0.1-0.1-0.2-0.1-0.4
		c0.7-0.8,1.5-1.7,2.2-2.5c0.7-0.8,1.4-1.6,2-2.2c0.7-0.8,1.3-1.5,1.9-2.2c-0.4-1-0.7-1.9-1-2.7c-0.3-0.8-0.5-1.4-0.6-1.8
		c-0.3-0.7-0.5-1.3-0.7-1.8c-0.2-0.5-0.5-0.8-1-1c0.3-0.3,0.6-0.5,0.9-0.7c0.3-0.2,0.5-0.3,0.8-0.4c0.3-0.1,0.5-0.1,0.7-0.1
		c0.6,0,1.1,0.5,1.5,1.5c0.4,1,0.9,2.4,1.4,4.2c0,0.1,0,0.2,0.1,0.3c0.5-0.6,1-1.2,1.5-1.8c0.5-0.6,0.9-1.1,1.3-1.5
		c0.4-0.4,0.7-0.8,0.9-1c0.2-0.2,0.4-0.4,0.4-0.5c0.5-0.6,1-0.9,1.4-1c0.4-0.1,0.8,0,1.1,0.3c0.2,0.1,0.3,0.2,0.5,0.3
		c0.3,0.2,0.7,0.4,1.2,0.6c-0.4,0.4-0.9,0.9-1.4,1.4c-0.5,0.5-1,1-1.5,1.5c-0.5,0.6-1.1,1.1-1.6,1.7c-0.4,0.4-0.8,0.8-1.4,1.4
		c-0.5,0.6-1.1,1.2-1.7,1.8c0.2,0.6,0.4,1.2,0.6,1.8c0.2,0.6,0.4,1.1,0.6,1.5c0.2,0.4,0.4,0.8,0.7,1c0.2,0.3,0.5,0.4,0.7,0.4
		c0.4,0,0.9-0.1,1.4-0.3c0.5-0.2,1-0.5,1.6-0.9c0.6-0.4,1.1-0.8,1.7-1.3c0.6-0.5,1.1-1,1.7-1.6c0.2-0.2,0.4-0.3,0.6-0.3
		c0.2,0,0.3,0,0.4,0.1c0.1,0.1,0.1,0.3,0.1,0.5C525.8,252.7,525.7,253,525.4,253.3z M501.8,244.5c-0.3,0-0.7,0.1-1.1,0.5
		c-0.4,0.3-0.8,0.7-1.2,1.3c-0.4,0.6-0.8,1.3-1.1,2.1c-0.4,0.8-0.6,1.8-0.8,2.8c0.3-0.2,0.6-0.5,1-0.7c0.4-0.2,0.7-0.5,1.1-0.8
		c1.1-0.8,1.9-1.6,2.3-2.2c0.4-0.6,0.7-1.2,0.7-1.6c0.1-0.5,0-0.8-0.1-1C502.3,244.6,502.1,244.5,501.8,244.5z M511.5,250.4
		c-0.8,1.1-1.6,2.2-2.6,3.3c-1,1.1-2,2-3.1,2.8c-1.1,0.8-2.2,1.5-3.3,2c-1.1,0.5-2.2,0.8-3.3,0.8c-0.6,0-1.2-0.1-1.8-0.4
		c-0.6-0.3-1.2-0.7-1.8-1.2c-0.5-0.6-1-1.3-1.3-2.2c-0.3-0.9-0.4-2-0.3-3.2c0.1-1,0.4-2.1,1-3.3c0.5-1.2,1.2-2.2,2-3.2
		c0.8-1,1.7-1.8,2.7-2.4c1-0.6,2-0.9,3-0.9c1,0,1.7,0.2,2.1,0.7c0.4,0.5,0.6,1.1,0.6,1.8c-0.1,0.8-0.3,1.5-0.7,2.2
		c-0.4,0.7-0.8,1.3-1.3,1.8c-0.5,0.5-1,1-1.6,1.4c-0.6,0.4-1.1,0.8-1.6,1.2c-0.6,0.4-1.1,0.8-1.6,1.1c-0.5,0.3-1,0.7-1.3,0.9
		c0,0.6,0.1,1.2,0.3,1.6c0.2,0.4,0.5,0.8,0.8,1c0.3,0.3,0.7,0.5,1,0.6c0.4,0.1,0.8,0.2,1.2,0.2c0.9,0,1.8-0.3,2.7-0.8
		c0.9-0.6,1.9-1.2,2.8-2c0.9-0.8,1.7-1.6,2.5-2.4c0.8-0.8,1.4-1.6,1.9-2.2c0.2-0.2,0.4-0.3,0.5-0.4c0.2,0,0.3,0,0.5,0.1
		c0.1,0.1,0.2,0.2,0.2,0.5C511.8,249.9,511.7,250.1,511.5,250.4z M485.3,251.5c0.1-0.5,0.2-1,0.3-1.4c0.1-0.5,0.2-1,0.3-1.5
		c0,0-0.1,0.1-0.1,0.1c0,0-0.1,0-0.1,0.1c-0.3,0.1-0.5,0.1-0.6,0c-0.1-0.1-0.2-0.4-0.2-0.7c0-0.2,0-0.4,0-0.8c0-0.4-0.1-0.8-0.2-1.2
		c-0.1-0.4-0.3-0.8-0.5-1.1c-0.2-0.3-0.5-0.5-1-0.5c-0.6,0-1.2,0.3-1.8,0.9c-0.6,0.6-1.2,1.3-1.7,2.2c-0.5,0.8-1,1.8-1.3,2.7
		c-0.3,1-0.6,1.8-0.6,2.6c0,1.2,0.1,2.1,0.5,2.6c0.3,0.5,0.8,0.8,1.4,0.8c0.5,0,1-0.2,1.5-0.5c0.6-0.4,1.1-0.8,1.6-1.3
		c0.5-0.5,1-1,1.4-1.6C484.7,252.3,485,251.9,485.3,251.5z M487.5,251c-0.1,0.8-0.2,1.5-0.4,2.2c-0.1,0.7-0.2,1.3-0.2,1.7
		c0,0.6,0.1,1.1,0.3,1.4c0.3,0.3,0.5,0.4,0.8,0.4c0.4,0,0.8-0.2,1.3-0.5c0.5-0.4,1.1-0.8,1.6-1.3c0.6-0.5,1.2-1.1,1.8-1.8
		c0.6-0.6,1.1-1.2,1.6-1.8c0.5-0.6,0.9-1.1,1.3-1.5c0.3-0.4,0.6-0.7,0.7-0.8c0.2-0.1,0.3-0.2,0.5-0.3c0.2,0,0.3,0,0.4,0.1
		c0.1,0.1,0.2,0.2,0.2,0.4c0,0.2-0.1,0.5-0.3,0.8c-0.3,0.5-0.7,1.1-1.2,1.7c-0.5,0.6-1,1.3-1.6,2c-0.6,0.7-1.2,1.4-1.8,2
		c-0.7,0.7-1.3,1.2-1.9,1.7c-0.6,0.5-1.3,0.9-1.9,1.2c-0.6,0.3-1.1,0.5-1.6,0.5c-0.4,0-0.7-0.1-1-0.3c-0.3-0.2-0.6-0.5-0.9-0.8
		c-0.3-0.3-0.5-0.7-0.6-1.1c-0.1-0.4-0.2-0.8-0.2-1.2c0-0.2,0.1-0.5,0.1-0.9c-1.1,1.2-2.1,2.1-3.2,2.8c-1.1,0.7-2.1,1.1-3.1,1.1
		c-0.4,0-0.7-0.1-1.1-0.3c-0.4-0.2-0.8-0.5-1.1-0.9c-0.3-0.4-0.6-0.9-0.8-1.6c-0.2-0.7-0.3-1.5-0.2-2.4c0.1-1.5,0.4-2.9,0.9-4.2
		c0.5-1.3,1.2-2.5,1.9-3.4c0.8-1,1.6-1.8,2.6-2.3c1-0.6,2-0.9,3-0.9c0.4,0,0.8,0.1,1.2,0.3c0.4,0.2,0.7,0.5,0.9,0.8
		c0.3,0.3,0.5,0.7,0.6,1.1c0.2,0.4,0.3,0.8,0.4,1.1c0.2-0.7,0.3-1.5,0.5-2.2c0.2-0.7,0.3-1.4,0.5-2c0.2-0.9,0.5-2,0.8-3
		c0.2-0.9,0.5-2,0.9-3.2c0.3-1.2,0.7-2.5,1.1-3.8c0.2-0.2,0.5-0.4,0.7-0.5c0.2-0.1,0.4-0.2,0.6-0.2c0.2-0.1,0.4-0.1,0.6-0.1
		c0.3,0,0.5,0,0.7,0.1c0.2,0.1,0.4,0.2,0.5,0.5c0.1,0.3,0.2,0.7,0.3,1.2c0,0.5,0,1.3,0,2.2c0,1.1-0.3,2.3-0.6,3.7
		c-0.3,1.3-0.8,2.7-1.4,4.1c-0.6,1.4-1.2,2.8-1.9,4.2C489.2,248.4,488.4,249.8,487.5,251z M468.7,259.3c-0.6,0-1.1-0.1-1.5-0.3
		c-0.4-0.2-0.8-0.5-1-0.9c-0.3-0.4-0.4-0.8-0.5-1.2c-0.1-0.5,0-1,0.1-1.5c0.1-0.4,0.2-0.8,0.4-1.4c0.2-0.6,0.4-1.2,0.6-1.9
		c0.2-0.7,0.4-1.4,0.5-2.1c0.2-0.7,0.3-1.3,0.3-1.9c0-0.6,0-1-0.1-1.4c-0.1-0.4-0.3-0.6-0.7-0.6c-0.4,0-0.8,0.1-1.3,0.4
		c-0.4,0.3-0.9,0.6-1.3,1.1c-0.4,0.5-0.9,1-1.3,1.6c-0.4,0.6-0.9,1.2-1.3,1.9c-0.2,0.9-0.4,1.6-0.6,2.3c-0.2,0.6-0.3,1.2-0.4,1.7
		c-0.1,0.5-0.2,1-0.3,1.4c-0.1,0.4-0.2,0.8-0.3,1.1c-0.1,0.3-0.3,0.5-0.7,0.7c-0.4,0.2-0.8,0.4-1.2,0.6c-0.4,0.2-0.8,0.2-1.1,0.2
		c-0.3,0-0.5-0.1-0.4-0.3c0-0.2,0.1-0.5,0.2-1c0.1-0.5,0.3-1.2,0.5-1.9c0.2-0.7,0.4-1.5,0.6-2.3c0.2-0.8,0.4-1.6,0.6-2.3
		c0.1-0.6,0.3-1.2,0.4-1.9c0.1-0.6,0.3-1.3,0.5-2.1c0.2-0.8,0.4-1.7,0.7-2.7c0.2-0.2,0.4-0.3,0.6-0.4c0.2-0.1,0.4-0.2,0.6-0.2
		c0.2-0.1,0.4-0.1,0.6-0.2c0.2,0,0.4,0,0.6,0c0.2,0,0.4,0.1,0.6,0.1c0.2,0.1,0.4,0.2,0.5,0.3c-0.1,0.2-0.2,0.4-0.3,0.8
		c-0.1,0.3-0.2,0.6-0.3,1c-0.1,0.4-0.2,0.8-0.4,1.3c0.3-0.5,0.7-0.9,1.1-1.4c0.4-0.5,0.9-0.9,1.4-1.3c0.5-0.4,1-0.7,1.6-0.9
		c0.6-0.2,1.1-0.4,1.7-0.4c0.5,0,0.9,0.1,1.3,0.4c0.4,0.3,0.7,0.7,0.9,1.2c0.2,0.5,0.3,1.1,0.4,1.8c0,0.7-0.1,1.4-0.3,2.2l-0.4,1.7
		c-0.1,0.5-0.3,1.2-0.5,1.9c-0.2,0.7-0.4,1.5-0.7,2.4c-0.2,0.6-0.2,1-0.2,1.5c0,0.4,0.3,0.6,0.8,0.6c0.5,0,1-0.3,1.7-0.8
		c0.7-0.6,1.4-1.2,2.1-2c0.7-0.8,1.4-1.6,2-2.4c0.6-0.8,1.1-1.5,1.5-2c0.2-0.3,0.4-0.5,0.6-0.6c0.2-0.1,0.4-0.1,0.5,0
		c0.1,0.1,0.2,0.2,0.2,0.5c0,0.3-0.1,0.6-0.3,1c-0.2,0.4-0.5,0.8-0.8,1.4c-0.4,0.6-0.8,1.2-1.3,1.9c-0.5,0.7-1,1.3-1.6,2
		c-0.6,0.7-1.2,1.3-1.8,1.8c-0.6,0.5-1.3,1-1.9,1.3C469.9,259.1,469.3,259.3,468.7,259.3z M449.8,244c0.1-0.2,0.4-0.3,0.7-0.4
		c0.4-0.1,0.7-0.2,1.1-0.3c0.4-0.1,0.7-0.1,1-0.1c0.3,0,0.5,0,0.6,0c0,0,0,0.3-0.2,0.8c-0.2,0.5-0.3,1.1-0.6,1.8
		c-0.2,0.7-0.5,1.4-0.7,2.1c-0.2,0.7-0.4,1.3-0.6,1.8c-0.1,0.5-0.3,1-0.5,1.5c-0.2,0.6-0.3,1.1-0.5,1.7c-0.1,0.6-0.2,1.1-0.3,1.5
		c0,0.5,0,0.9,0.1,1.1c0.1,0.3,0.3,0.5,0.4,0.6c0.2,0.1,0.3,0.2,0.5,0.2c0.5,0,1.1-0.3,1.9-0.8c0.8-0.6,1.6-1.2,2.4-2
		c0.8-0.8,1.5-1.6,2.2-2.4c0.7-0.8,1.2-1.4,1.5-1.9c0.2-0.3,0.4-0.4,0.6-0.5c0.2-0.1,0.4-0.1,0.5,0c0.1,0.1,0.2,0.3,0.2,0.5
		c0,0.2-0.1,0.5-0.2,0.8c-0.4,0.7-1,1.6-1.8,2.5c-0.8,1-1.6,1.9-2.5,2.8c-0.9,0.9-1.8,1.7-2.6,2.3c-0.9,0.6-1.6,1-2.1,1
		c-0.4,0-0.8,0-1.3-0.2c-0.4-0.2-0.8-0.4-1.1-0.7c-0.3-0.3-0.6-0.6-0.8-1c-0.2-0.4-0.4-0.8-0.4-1.2c-0.1-0.6-0.1-1.5,0-2.6
		c0.1-1.1,0.2-2.2,0.4-3.4c0.2-1.2,0.5-2.3,0.8-3.3C449.1,245.3,449.4,244.5,449.8,244z M455.1,235.9c-0.1,0.3-0.2,0.6-0.4,0.8
		c-0.2,0.3-0.5,0.5-0.7,0.6c-0.3,0.2-0.5,0.3-0.8,0.3c-0.3,0.1-0.5,0-0.7-0.1c-0.5-0.4-0.8-0.8-0.8-1.3c0-0.5,0.1-0.9,0.3-1.3
		c0.2-0.4,0.6-0.8,0.9-1.1c0.4-0.3,0.7-0.5,1-0.5c0.3,0,0.5,0,0.7,0.2c0.2,0.2,0.3,0.4,0.4,0.6c0.1,0.3,0.2,0.6,0.2,0.9
		C455.2,235.3,455.2,235.6,455.1,235.9z"/>
	<path fill-rule="evenodd" clip-rule="evenodd" fill="#FFFFFF" d="M701.5,249.9c0.2-0.2,0.4-0.3,0.6-0.3c0.2,0,0.3,0,0.5,0.2
		c0.1,0.1,0.2,0.3,0.1,0.5c0,0.2-0.1,0.5-0.3,0.8c-0.5,0.7-1,1.3-1.7,2c-0.6,0.7-1.3,1.4-2,2c-0.7,0.7-1.5,1.3-2.2,1.9
		c-0.7,0.6-1.4,1.1-2.1,1.4c-0.8,0.4-1.4,0.6-1.9,0.6c-0.5,0-1-0.3-1.5-1c-0.5-0.6-0.7-1.2-0.7-1.9c0-0.7,0.2-1.5,0.4-2.5
		c0.2-0.6,0.4-1.4,0.7-2.3c0.3-0.9,0.6-1.7,0.8-2.5c0.2-0.8,0.2-1.5,0.2-2.1c-0.1-0.6-0.4-0.9-1-0.9c-0.4,0-0.8,0.1-1.3,0.4
		c-0.5,0.3-0.9,0.6-1.4,1.1c-0.5,0.4-0.9,0.9-1.4,1.5c-0.4,0.6-0.8,1.1-1.1,1.6c-0.2,1-0.4,2-0.6,2.9c-0.2,0.8-0.4,1.7-0.6,2.6
		c-0.2,0.9-0.4,1.8-0.5,2.5c-0.2,0.1-0.3,0.2-0.5,0.3c-0.2,0-0.3,0.1-0.5,0.1c-0.2,0-0.4,0-0.5,0c-0.2,0-0.4-0.1-0.6-0.2
		c-0.2-0.1-0.3-0.2-0.5-0.4c-0.1-0.2-0.3-0.4-0.3-0.7c1.1-4.7,2.1-8.5,2.7-11.3c0.7-2.8,1.2-5,1.5-6.5c0.4-1.8,0.7-3,0.8-3.7
		c0.1-0.5,0.1-1,0.2-1.4c0.1-0.4,0.1-0.8,0.1-1.3c0-0.4,0-0.8-0.1-1.2c0.2-0.1,0.4-0.2,0.7-0.3c0.2-0.1,0.5-0.1,0.7-0.2
		c0.3-0.1,0.6-0.1,0.8-0.2c0.3,0,0.5-0.1,0.8-0.1c0.2,0,0.4,0,0.6,0c0.2,0,0.3,0.1,0.3,0.3c0.2,0.1,0.2,0.4,0.2,0.8
		c0,0.4,0,0.8-0.1,1.2c-0.1,0.5-0.2,1-0.3,1.6c-0.5,2.1-1.1,4.1-1.8,6c-0.7,1.9-1.3,4-1.8,6.2c0.3-0.5,0.7-1,1.2-1.6
		c0.5-0.5,1-1,1.5-1.5c0.5-0.5,1.1-0.8,1.7-1.1c0.6-0.3,1.3-0.4,1.9-0.4c0.3,0,0.7,0.1,1,0.2c0.3,0.1,0.6,0.3,0.8,0.6
		c0.2,0.3,0.4,0.6,0.6,1.1c0.1,0.4,0.2,1,0.2,1.6c0,0.4,0,0.8-0.1,1.3c-0.1,0.4-0.2,0.9-0.4,1.4c-0.2,0.5-0.4,1.1-0.6,1.7
		c-0.2,0.6-0.5,1.4-0.8,2.2c-0.2,0.6-0.4,1.1-0.5,1.5c-0.1,0.4-0.1,0.8,0.1,1.1c0.2,0.4,0.7,0.5,1.4,0.3c0.7-0.2,1.7-0.9,3-2
		c0.3-0.3,0.6-0.6,1-1c0.4-0.4,0.7-0.8,1.1-1.2c0.4-0.4,0.7-0.8,1-1.1C701,250.4,701.3,250.1,701.5,249.9z M667.4,273.9
		c0.5,0,0.9-0.4,1.2-1.1c0.3-0.7,0.6-1.8,1-3.1c0.1-0.3,0.2-0.7,0.3-1.3c0.1-0.6,0.3-1.2,0.5-2c0.2-0.7,0.4-1.5,0.6-2.4
		c0.2-0.8,0.4-1.7,0.6-2.6c-0.2,0.2-0.4,0.4-0.6,0.6c-0.2,0.2-0.4,0.4-0.7,0.7c-0.6,0.5-1.1,1-1.6,1.5c-0.5,0.5-1,1-1.4,1.6
		c-0.4,0.6-0.7,1.1-1,1.8c-0.2,0.6-0.4,1.4-0.4,2.2c0,0.8,0,1.5,0.1,2.1c0.1,0.5,0.1,0.9,0.3,1.3c0.1,0.3,0.2,0.5,0.4,0.6
		C667,273.9,667.2,273.9,667.4,273.9z M669.1,256.2c0.5,0,1-0.1,1.5-0.4c0.5-0.3,0.9-0.6,1.3-1c0.4-0.4,0.7-0.8,1-1.1
		c0.3-0.4,0.4-0.7,0.6-0.9c0.1-0.2,0.2-0.5,0.4-0.9c0.1-0.4,0.2-0.8,0.3-1.1c0.1-0.4,0.1-0.7,0.1-1c0-0.3-0.1-0.4-0.3-0.5
		c-0.2,0-0.3-0.1-0.4-0.3c-0.1-0.2-0.2-0.4-0.2-0.6c-0.1-0.2-0.1-0.5-0.1-0.7c0-0.2,0-0.4-0.1-0.6c-0.1-0.9-0.3-1.5-0.6-1.9
		c-0.3-0.4-0.7-0.6-1-0.6c-0.6,0-1.2,0.3-1.8,0.8c-0.6,0.5-1.1,1.2-1.5,2c-0.4,0.8-0.8,1.7-1.1,2.6c-0.3,1-0.4,1.9-0.4,2.7
		c0,1.1,0.2,1.9,0.5,2.6C667.5,255.9,668.2,256.2,669.1,256.2z M673.9,263.7c-0.1,0.6-0.3,1.4-0.5,2.3c-0.2,0.9-0.4,1.9-0.7,2.9
		c-0.2,1-0.5,2-0.8,3c-0.3,1-0.7,1.9-1.1,2.7c-0.4,0.8-0.8,1.5-1.3,2c-0.5,0.5-1,0.8-1.5,0.8c-0.8,0-1.6-0.3-2.2-0.8
		c-0.6-0.5-1.1-1.1-1.5-1.9c-0.4-0.8-0.7-1.6-0.9-2.4c-0.2-0.9-0.3-1.7-0.3-2.4c0-1,0.1-1.9,0.3-2.5c0.2-0.7,0.5-1.3,0.9-1.9
		c0.4-0.6,1.1-1.3,1.8-1.9c0.8-0.7,1.7-1.5,2.9-2.6c0.6-0.5,1.1-1,1.7-1.4c0.5-0.5,1-0.9,1.5-1.3c0.1-0.5,0.2-1,0.4-1.4
		c0.1-0.4,0.2-0.8,0.3-1.2c-0.7,0.9-1.5,1.6-2.4,2.2c-0.9,0.6-2,0.9-3.2,0.9c-1.1,0-2-0.5-2.7-1.5c-0.7-1-1-2.4-1-4.3
		c0-0.9,0.2-2,0.5-3.2c0.4-1.2,0.9-2.4,1.5-3.4c0.7-1.1,1.5-2,2.4-2.7c1-0.7,2-1.1,3.2-1.1c0.6,0,1,0.1,1.4,0.4
		c0.4,0.3,0.7,0.6,1,1.1c0.3,0.4,0.5,0.9,0.7,1.3c0.1,0.5,0.3,0.9,0.3,1.3c0-0.2,0.1-0.3,0.1-0.5c0-0.2,0.1-0.3,0.1-0.4
		c0.2-0.9,0.5-1.4,0.9-1.8c0.3-0.3,0.8-0.5,1.4-0.5c0.4,0,0.7,0.1,0.9,0.2c0.2,0.1,0.4,0.2,0.4,0.3c-0.1,0.3-0.2,0.5-0.3,0.6
		c-0.1,0.2-0.2,0.3-0.2,0.5c-0.1,0.2-0.2,0.4-0.2,0.6c-0.1,0.3-0.2,0.6-0.3,1.1c-0.1,0.2-0.2,0.6-0.3,1.2c-0.1,0.7-0.3,1.4-0.5,2.3
		c-0.2,0.9-0.5,1.9-0.7,2.9c-0.2,1.1-0.5,2.1-0.7,3.1c0.7-0.4,1.4-0.9,2.2-1.5c0.8-0.6,1.5-1.2,2.2-1.8c0.7-0.6,1.3-1.2,1.8-1.7
		c0.5-0.5,0.9-1,1.2-1.4c0.2-0.3,0.4-0.5,0.7-0.6c0.3-0.1,0.5-0.2,0.7-0.1c0.2,0,0.3,0.2,0.3,0.3c0,0.2,0,0.4-0.3,0.8
		c-0.6,0.9-1.3,1.8-2.1,2.7c-0.8,0.9-1.7,1.7-2.6,2.4c-0.9,0.7-1.7,1.4-2.6,2c-0.8,0.6-1.5,1-2.1,1.4c-0.2,1.1-0.5,2.1-0.6,2.8
		C674.2,262.5,674.1,263.2,673.9,263.7z M656.3,244c0.1-0.2,0.4-0.3,0.7-0.4c0.4-0.1,0.7-0.2,1.1-0.3c0.4-0.1,0.7-0.1,1.1-0.1
		c0.3,0,0.5,0,0.6,0c0,0,0,0.3-0.2,0.8c-0.2,0.5-0.3,1.1-0.6,1.8c-0.2,0.7-0.5,1.4-0.7,2.1c-0.3,0.7-0.4,1.3-0.6,1.8
		c-0.1,0.5-0.3,1-0.5,1.5c-0.2,0.6-0.3,1.1-0.5,1.7c-0.1,0.6-0.2,1.1-0.3,1.5c0,0.5,0,0.9,0.1,1.1c0.1,0.3,0.3,0.5,0.4,0.6
		c0.1,0.1,0.3,0.2,0.5,0.2c0.5,0,1.1-0.3,1.9-0.8c0.8-0.6,1.6-1.2,2.4-2c0.8-0.8,1.5-1.6,2.2-2.4c0.7-0.8,1.2-1.4,1.5-1.9
		c0.2-0.3,0.4-0.4,0.6-0.5c0.2-0.1,0.4-0.1,0.5,0c0.1,0.1,0.2,0.3,0.2,0.5c0,0.2-0.1,0.5-0.2,0.8c-0.4,0.7-1,1.6-1.8,2.5
		c-0.8,1-1.6,1.9-2.5,2.8c-0.9,0.9-1.8,1.7-2.6,2.3c-0.8,0.6-1.5,1-2.1,1c-0.4,0-0.8,0-1.3-0.2c-0.4-0.2-0.8-0.4-1.1-0.7
		c-0.3-0.3-0.6-0.6-0.9-1c-0.2-0.4-0.3-0.8-0.4-1.2c-0.1-0.6-0.1-1.5,0-2.6c0.1-1.1,0.2-2.2,0.4-3.4c0.2-1.2,0.5-2.3,0.8-3.3
		C655.5,245.3,655.9,244.5,656.3,244z M661.6,235.9c-0.1,0.3-0.2,0.6-0.4,0.8c-0.2,0.3-0.5,0.5-0.7,0.6c-0.3,0.2-0.5,0.3-0.8,0.3
		c-0.3,0.1-0.5,0-0.7-0.1c-0.5-0.4-0.8-0.8-0.8-1.3c0-0.5,0.1-0.9,0.3-1.3c0.2-0.4,0.6-0.8,0.9-1.1c0.4-0.3,0.7-0.5,1-0.5
		c0.3,0,0.5,0,0.7,0.2c0.2,0.2,0.3,0.4,0.4,0.6c0.1,0.3,0.2,0.6,0.2,0.9C661.7,235.3,661.6,235.6,661.6,235.9z M635.9,258.1
		c-0.2,0.3-0.4,0.5-0.6,0.6c-0.2,0.1-0.4,0.1-0.6,0c-0.2-0.1-0.3-0.2-0.3-0.4c-0.1-0.2,0-0.5,0.1-0.8c0.1-0.2,0.2-0.5,0.5-1
		c0.3-0.5,0.6-1.2,1-1.9c0.4-0.8,0.8-1.6,1.2-2.4c0.4-0.9,0.8-1.7,1.2-2.5c0.4-0.8,0.8-1.5,1.1-2.1c0.3-0.6,0.6-1.1,0.7-1.4
		c-0.3-0.3-0.5-0.4-0.6-0.6c-0.1-0.1-0.2-0.4-0.2-0.7c0-0.3,0-0.8,0.2-1.3c0.2-0.5,0.5-1.1,0.8-1.5c0.3-0.5,0.7-0.9,1.1-1.3
		c0.4-0.4,0.8-0.5,1.2-0.5c0.7,0,1.2,0.2,1.5,0.7c0.3,0.5,0.5,0.9,0.5,1.4c0,0.3,0,0.7-0.1,1.3c-0.1,0.5-0.3,1-0.6,1.4
		c0.1,0,0.2,0.1,0.3,0.2c0.1,0.1,0.3,0.1,0.6,0.1c0.4,0,0.7,0,0.8-0.1c0.2,0,0.4-0.1,0.8-0.1c0.4,0,0.8,0.1,1.1,0.3
		c0.3,0.2,0.5,0.5,0.7,0.8c0.2,0.3,0.3,0.7,0.4,1c0.1,0.4,0.2,0.7,0.2,1c0.1,0.6-0.1,1.3-0.5,2c-0.4,0.7-0.9,1.4-1.5,2.2
		c-0.3,0.5-0.7,1.1-1.1,1.7c-0.4,0.6-0.5,1.2-0.5,1.7c0.1,0.3,0.1,0.6,0.3,0.8c0.1,0.2,0.5,0.3,1.1,0.3c0.4,0,0.9-0.2,1.4-0.5
		c0.5-0.3,1.1-0.7,1.6-1.2c0.5-0.5,1.1-1,1.6-1.6s1-1.2,1.5-1.7c0.5-0.6,0.8-1.1,1.2-1.6c0.3-0.5,0.6-0.8,0.7-1
		c0.1-0.2,0.3-0.3,0.5-0.4c0.2-0.1,0.4-0.1,0.5,0c0.2,0.1,0.3,0.2,0.3,0.5c0,0.2,0,0.5-0.3,0.9c-0.2,0.3-0.4,0.7-0.8,1.2
		c-0.4,0.6-0.8,1.2-1.3,1.9c-0.5,0.7-1.1,1.4-1.7,2.1c-0.6,0.7-1.3,1.4-2,2c-0.7,0.6-1.4,1.1-2.1,1.5c-0.7,0.4-1.4,0.6-2,0.6
		c-0.7,0-1.2-0.1-1.6-0.4c-0.4-0.3-0.8-0.6-1.1-0.9c-0.3-0.4-0.5-0.8-0.6-1.2c-0.1-0.5-0.2-0.9-0.1-1.2c0-0.3,0.1-0.6,0.2-1
		c0.1-0.3,0.3-0.7,0.5-1.1c0.2-0.4,0.4-0.7,0.6-1.1c0.2-0.4,0.4-0.7,0.6-1.1c0.4-0.7,0.8-1.4,1-1.9c0.3-0.5,0.4-1,0.4-1.3
		c0-0.2,0-0.4-0.1-0.6c-0.1-0.2-0.3-0.3-0.5-0.3c-0.2,0-0.3,0-0.3,0c-0.1,0-0.1,0-0.2,0c-0.1,0-0.2,0-0.3,0c-0.1,0-0.3,0-0.5,0
		c-0.3,0-0.6-0.1-0.8-0.2c-0.2-0.1-0.4-0.2-0.6-0.2c-0.1,0.2-0.3,0.6-0.7,1.1c-0.3,0.6-0.8,1.3-1.2,2.1c-0.5,0.8-1,1.6-1.5,2.5
		c-0.5,0.9-1,1.7-1.5,2.4c-0.5,0.7-0.8,1.4-1.2,1.9C636.2,257.7,636,258,635.9,258.1z M619.4,244.5c-0.3,0-0.7,0.1-1.1,0.5
		c-0.4,0.3-0.8,0.7-1.2,1.3c-0.4,0.6-0.8,1.3-1.1,2.1c-0.4,0.8-0.6,1.8-0.8,2.8c0.3-0.2,0.6-0.5,1-0.7c0.4-0.2,0.7-0.5,1.1-0.8
		c1.1-0.8,1.9-1.6,2.3-2.2c0.4-0.6,0.7-1.2,0.7-1.6c0-0.5,0-0.8-0.1-1C619.9,244.6,619.7,244.5,619.4,244.5z M629.1,250.4
		c-0.8,1.1-1.6,2.2-2.6,3.3c-1,1.1-2,2-3.1,2.8c-1.1,0.8-2.2,1.5-3.3,2c-1.1,0.5-2.2,0.8-3.3,0.8c-0.6,0-1.2-0.1-1.8-0.4
		c-0.6-0.3-1.2-0.7-1.8-1.2c-0.5-0.6-1-1.3-1.3-2.2c-0.3-0.9-0.4-2-0.3-3.2c0.1-1,0.4-2.1,1-3.3c0.5-1.2,1.2-2.2,2-3.2
		c0.8-1,1.7-1.8,2.7-2.4c1-0.6,2-0.9,3-0.9c1,0,1.7,0.2,2.1,0.7c0.4,0.5,0.6,1.1,0.6,1.8c-0.1,0.8-0.3,1.5-0.7,2.2
		c-0.4,0.7-0.8,1.3-1.3,1.8c-0.5,0.5-1,1-1.6,1.4c-0.6,0.4-1.1,0.8-1.6,1.2c-0.6,0.4-1.1,0.8-1.6,1.1c-0.5,0.3-1,0.7-1.3,0.9
		c0,0.6,0.1,1.2,0.3,1.6c0.2,0.4,0.5,0.8,0.8,1c0.3,0.3,0.7,0.5,1.1,0.6c0.4,0.1,0.8,0.2,1.2,0.2c0.9,0,1.8-0.3,2.7-0.8
		c0.9-0.6,1.9-1.2,2.8-2c0.9-0.8,1.7-1.6,2.5-2.4c0.8-0.8,1.4-1.6,1.9-2.2c0.2-0.2,0.4-0.3,0.6-0.4c0.2,0,0.3,0,0.5,0.1
		c0.1,0.1,0.2,0.2,0.2,0.5C629.4,249.9,629.3,250.1,629.1,250.4z M613.4,249.9c0.2-0.2,0.4-0.3,0.6-0.3c0.2,0,0.3,0,0.5,0.2
		c0.1,0.1,0.2,0.3,0.2,0.5c0,0.2-0.1,0.5-0.3,0.8c-0.5,0.7-1,1.3-1.7,2c-0.6,0.7-1.3,1.4-2,2c-0.7,0.7-1.5,1.3-2.2,1.9
		c-0.7,0.6-1.4,1.1-2.1,1.4c-0.8,0.4-1.4,0.6-1.9,0.6c-0.5,0-1-0.3-1.5-1c-0.5-0.6-0.7-1.2-0.7-1.9c0-0.7,0.2-1.5,0.4-2.5
		c0.2-0.6,0.4-1.4,0.7-2.3c0.3-0.9,0.6-1.7,0.8-2.5c0.2-0.8,0.2-1.5,0.2-2.1c-0.1-0.6-0.4-0.9-1-0.9c-0.4,0-0.8,0.1-1.3,0.4
		c-0.5,0.3-0.9,0.6-1.4,1.1c-0.5,0.4-0.9,0.9-1.4,1.5c-0.4,0.6-0.8,1.1-1.1,1.6c-0.2,1-0.4,2-0.6,2.9c-0.2,0.8-0.4,1.7-0.6,2.6
		c-0.2,0.9-0.4,1.8-0.5,2.5c-0.2,0.1-0.3,0.2-0.5,0.3c-0.2,0-0.3,0.1-0.5,0.1c-0.2,0-0.3,0-0.5,0c-0.2,0-0.4-0.1-0.6-0.2
		c-0.2-0.1-0.3-0.2-0.5-0.4c-0.2-0.2-0.3-0.4-0.3-0.7c1.1-4.7,2-8.5,2.7-11.3c0.7-2.8,1.2-5,1.5-6.5c0.4-1.8,0.7-3,0.8-3.7
		c0.1-0.5,0.1-1,0.2-1.4c0-0.4,0.1-0.8,0.1-1.3c0-0.4,0-0.8-0.1-1.2c0.2-0.1,0.4-0.2,0.7-0.3c0.2-0.1,0.5-0.1,0.7-0.2
		c0.3-0.1,0.6-0.1,0.8-0.2c0.3,0,0.5-0.1,0.8-0.1c0.2,0,0.4,0,0.6,0c0.2,0,0.3,0.1,0.3,0.3c0.1,0.1,0.2,0.4,0.2,0.8
		c0,0.4,0,0.8-0.1,1.2c-0.1,0.5-0.2,1-0.3,1.6c-0.5,2.1-1.1,4.1-1.8,6c-0.7,1.9-1.3,4-1.8,6.2c0.3-0.5,0.7-1,1.2-1.6
		c0.5-0.5,1-1,1.5-1.5c0.5-0.5,1.1-0.8,1.7-1.1c0.6-0.3,1.3-0.4,1.9-0.4c0.3,0,0.7,0.1,1,0.2c0.3,0.1,0.6,0.3,0.8,0.6
		c0.2,0.3,0.4,0.6,0.6,1.1c0.1,0.4,0.2,1,0.2,1.6c0,0.4,0,0.8-0.1,1.3c-0.1,0.4-0.2,0.9-0.4,1.4c-0.1,0.5-0.3,1.1-0.6,1.7
		c-0.2,0.6-0.5,1.4-0.9,2.2c-0.2,0.6-0.4,1.1-0.5,1.5c-0.1,0.4-0.1,0.8,0.1,1.1c0.2,0.4,0.7,0.5,1.3,0.3c0.7-0.2,1.7-0.9,3-2
		c0.3-0.3,0.6-0.6,1-1c0.4-0.4,0.7-0.8,1.1-1.2c0.4-0.4,0.7-0.8,1-1.1C612.9,250.4,613.2,250.1,613.4,249.9z M596,248.7
		c0.1-0.2,0.2-0.3,0.4-0.3c0.2,0,0.3,0,0.4,0c0.1,0.1,0.2,0.2,0.2,0.4c0,0.2-0.1,0.4-0.2,0.7c-0.5,1-1.2,2-2,3.1
		c-0.8,1.1-1.7,2.2-2.6,3.1c-0.9,1-1.8,1.8-2.7,2.4c-0.9,0.6-1.6,1-2.2,1c-0.8,0-1.5-0.2-2.1-0.5c-0.6-0.3-1-0.7-1.3-1.2
		c-0.3-0.5-0.5-1-0.7-1.6c-0.1-0.6-0.2-1.1-0.1-1.6c0-0.4,0.1-1.1,0.3-2.2c0.2-1.1,0.3-2.3,0.6-3.7c0.2-1.4,0.5-2.9,0.9-4.4
		c0.3-1.6,0.7-3.1,1-4.6c-0.4,0-0.9,0.1-1.3,0.2c-0.4,0-0.8,0.1-1.2,0.1c-0.8,0-1.6-0.1-2.3-0.3c-0.7-0.2-1.3-0.4-1.6-0.6
		c-0.2-0.1-0.3-0.2-0.3-0.4c0-0.2,0.1-0.4,0.2-0.6c0.1-0.2,0.3-0.4,0.5-0.5c0.2-0.1,0.4-0.2,0.5-0.2c0.5,0,1,0.1,1.6,0.1
		c0.6,0,1.2,0,1.8,0c0.5,0,0.9-0.1,1.4-0.1c0.4-0.1,0.9-0.1,1.3-0.2c0.3-1.2,0.7-2.3,1-3.2c0.3-0.9,0.6-1.5,0.9-1.9
		c0.1-0.1,0.3-0.2,0.5-0.3c0.3-0.1,0.5-0.2,0.8-0.2c0.3,0,0.6,0,0.9,0c0.3,0,0.5,0.1,0.6,0.3c0.1,0.2,0.2,0.7,0.2,1.6
		c0,0.8-0.2,1.9-0.4,3.2c1.1,0,2,0.1,2.8,0.2c0.8,0.1,1.5,0.2,2.1,0.4c0.6,0.1,1.1,0.3,1.4,0.4c0.4,0.1,0.6,0.2,0.8,0.3
		c0.2,0.1,0.3,0.2,0.3,0.4c0,0.2,0,0.4-0.1,0.6c-0.1,0.2-0.2,0.4-0.4,0.5c-0.2,0.2-0.4,0.2-0.7,0.2c-0.3,0-0.5-0.1-0.9-0.2
		c-0.3-0.1-0.7-0.1-1.1-0.2c-0.4,0-1-0.1-1.6-0.1c-0.6,0-1.3-0.1-2.1-0.1c-0.2,0-0.3,0-0.5,0c-0.2,0-0.4,0-0.6,0
		c-0.1,0.4-0.2,0.8-0.3,1.2c-0.1,0.4-0.2,0.8-0.4,1.2c-0.3,1-0.7,2.1-1.1,3.3c-0.4,1-0.8,2.2-1.4,3.6c-0.5,1.3-1.1,2.8-1.8,4.3
		c-0.2,1.1-0.1,1.9,0.1,2.5c0.2,0.6,0.4,1,0.7,1.2c0.3,0.3,0.7,0.4,1.2,0.5c0.4,0,0.8-0.1,1.4-0.4c0.5-0.3,1.1-0.7,1.7-1.3
		c0.6-0.5,1.2-1.1,1.8-1.7c0.6-0.6,1.1-1.3,1.7-1.9c0.5-0.6,1-1.2,1.3-1.7C595.6,249.2,595.9,248.9,596,248.7z"/>
	<path fill-rule="evenodd" clip-rule="evenodd" fill="#FFFFFF" d="M774.9,244.3c0.3-0.2,0.7-0.5,1-0.6c0.3-0.1,0.6-0.2,0.9-0.3
		c0.3-0.1,0.6-0.1,0.8-0.1c0.7,0.1,1.1,0.3,1.3,0.7c0.2,0.4,0.2,1,0.1,1.8c-0.1,0.4-0.2,1-0.5,1.6c-0.2,0.7-0.5,1.5-0.8,2.4
		c-0.3,1-0.6,2-1,3.3c-0.3,1.2-0.7,2.6-1,4.1c-0.3,1.2-0.6,2.7-1,4.3c-0.3,1.4-0.7,3.1-1.1,5.1c-0.4,2-0.9,4.3-1.4,6.9
		c-0.1,0.6-0.4,1-0.8,1.1c-0.4,0.1-0.9,0-1.3-0.2c-0.2-0.1-0.3-0.2-0.5-0.3c-0.1-0.1-0.3-0.3-0.4-0.4c-0.2-0.2-0.3-0.4-0.4-0.7
		c0.6-2.1,1.1-4.1,1.5-5.8c0.4-1.8,0.8-3.3,1.2-4.6c0.4-1.5,0.7-2.8,1.1-4c0.1-0.5,0.2-1.1,0.4-1.6c0.1-0.5,0.2-1,0.4-1.6
		c-0.3,0.5-0.7,1-1.1,1.5c-0.4,0.5-0.8,0.9-1.3,1.3c-0.5,0.4-0.9,0.6-1.5,0.8c-0.5,0.2-1,0.2-1.6,0.2c-1.4-0.2-2.4-0.7-2.9-1.5
		c-0.6-0.8-0.8-1.9-0.7-3.3c0-0.5,0.1-1.1,0.2-1.8c0.1-0.6,0.3-1.2,0.4-1.8c0.1-0.6,0.3-1.1,0.4-1.6c0.1-0.5,0.3-0.8,0.3-1
		c0.3-1,0.5-1.8,0.7-2.5c0.1-0.7,0-1.3-0.3-1.7c0.4-0.2,0.7-0.4,1-0.5c0.3-0.1,0.6-0.2,0.9-0.2c0.3,0,0.6,0,0.8,0
		c0.7,0.1,1.1,0.4,1.2,0.8c0.1,0.4,0.1,1-0.1,1.8c-0.1,0.4-0.3,1-0.5,1.6c-0.2,0.7-0.5,1.4-0.7,2.1c-0.3,0.7-0.5,1.4-0.7,2
		c-0.2,0.6-0.3,1-0.3,1.3c-0.2,1.1-0.2,2,0,2.7c0.2,0.6,0.6,0.9,1.3,0.9c0.3,0,0.7-0.1,1.1-0.4c0.4-0.3,0.8-0.7,1.2-1.2
		c0.4-0.5,0.8-1,1.2-1.7c0.4-0.6,0.8-1.2,1.1-1.9c0.3-0.6,0.6-1.3,0.9-1.9c0.3-0.6,0.5-1.2,0.6-1.6c0.2-0.9,0.3-1.7,0.3-2.2
		C775.5,245.2,775.3,244.7,774.9,244.3z M756.3,252.4c0.1-0.5,0.3-1.1,0.5-1.8c0.2-0.7,0.3-1.3,0.5-2c0.1-0.6,0.2-1.2,0.3-1.6
		c0.1-0.4,0-0.6-0.1-0.6c-0.1,0-0.3,0.1-0.4,0.1c-0.1,0-0.3,0.1-0.5,0.1c-0.2,0-0.4,0.1-0.6,0.1c0.2-0.4,0.3-0.7,0.4-1
		c0-0.3,0-0.5,0-0.6c0-0.2-0.1-0.3-0.2-0.4c-0.3-0.2-0.8,0-1.5,0.6c-0.7,0.6-1.5,1.7-2.4,3.3c-0.4,0.7-0.7,1.4-0.9,2.1
		c-0.2,0.8-0.4,1.5-0.5,2.1c-0.1,0.7-0.1,1.2-0.1,1.7c0.1,0.5,0.2,0.8,0.3,1c0.3,0.3,0.6,0.4,1,0.4c0.3,0,0.7-0.1,1.1-0.3
		c0.4-0.2,0.7-0.4,1.1-0.7c0.4-0.3,0.7-0.6,1-1c0.3-0.3,0.5-0.6,0.7-0.9C756.2,252.7,756.3,252.5,756.3,252.4z M767.4,250.7
		c-0.4,0.5-0.8,1.1-1.4,1.9c-0.6,0.7-1.1,1.5-1.7,2.2c-0.6,0.7-1.2,1.4-1.7,2.1c-0.6,0.6-1,1-1.4,1.3c-0.2,0.2-0.5,0.3-0.9,0.4
		c-0.3,0.1-0.7,0.2-1,0.2c-0.3,0-0.7,0-1-0.1c-0.3-0.1-0.6-0.2-0.8-0.3c-0.2-0.2-0.4-0.4-0.6-0.8c-0.1-0.3-0.2-0.6-0.4-1.1
		c-0.1-0.5-0.2-1-0.1-1.7c-0.6,1-1.3,1.8-2,2.3c-0.7,0.6-1.4,1-2.1,1.2c-0.8,0.3-1.5,0.4-2.3,0.5c-0.4,0-0.7-0.1-1.1-0.4
		c-0.4-0.2-0.8-0.6-1-1.1c-0.3-0.5-0.5-1.2-0.5-2c-0.1-0.8,0-1.8,0.3-3c0.4-1.6,0.9-3,1.7-4.2c0.8-1.3,1.6-2.3,2.5-3.3
		c0.9-0.9,1.8-1.6,2.7-2c0.9-0.5,1.6-0.7,2.2-0.6c0.7,0.1,1.2,0.3,1.7,0.6c0.4,0.2,0.6,0.6,0.7,1.1c0.1,0.5-0.1,1.1-0.6,2
		c0.4-0.1,0.6-0.1,0.9-0.2c0.3,0,0.4,0,0.6,0c0.2,0,0.3,0,0.3,0c0,0,0,0.2,0,0.3c0,0.2,0,0.5-0.1,0.9c-0.1,0.4-0.2,1-0.3,1.7
		c-0.2,0.7-0.4,1.7-0.6,2.9c-0.1,0.2-0.1,0.4-0.1,0.6c0,0.2-0.1,0.4-0.1,0.6c0,0.2-0.1,0.4-0.1,0.7c-0.1,0.2-0.1,0.6-0.2,0.9
		c0,0.2,0,0.5,0,0.7c0,0.3,0.1,0.5,0.1,0.7c0.1,0.2,0.2,0.4,0.4,0.6c0.2,0.1,0.4,0.2,0.7,0.2c0.2,0,0.6-0.2,1-0.5
		c0.4-0.3,0.8-0.7,1.3-1.2c0.5-0.5,0.9-1,1.4-1.6c0.5-0.6,1-1.2,1.4-1.7c0.4-0.6,0.8-1.1,1.2-1.5c0.3-0.4,0.6-0.8,0.7-0.9
		c0.2-0.2,0.4-0.4,0.6-0.4c0.2,0,0.4,0,0.5,0.2c0.1,0.2,0.1,0.4,0.1,0.7C767.9,250,767.8,250.3,767.4,250.7z M742.5,251.7
		c-0.4,0.9-0.8,1.8-1.2,2.7c-0.5,0.9-1,1.6-1.5,2.3c-0.6,0.7-1.2,1.2-1.8,1.6c-0.6,0.4-1.3,0.6-2.1,0.6c-1.2,0-2.1-0.4-2.7-1.2
		c-0.6-0.8-1-1.8-1.3-2.9c-0.4,0.5-0.7,1.1-1.1,1.6c-0.4,0.5-0.8,1-1.3,1.4c-0.5,0.4-0.9,0.7-1.4,1c-0.5,0.3-1,0.4-1.5,0.4
		c-0.7,0-1.2-0.1-1.7-0.4c-0.5-0.3-0.8-0.7-1.1-1.2c-0.3-0.5-0.5-1.1-0.6-1.7c-0.1-0.6-0.2-1.3-0.2-2.1v-0.5c0-0.9,0.1-1.9,0.2-2.9
		c0.2-1,0.3-1.9,0.5-2.7c0.2-0.8,0.4-1.6,0.6-2.2c0.2-0.6,0.3-1,0.5-1.2c0.2-0.2,0.6-0.5,1.2-0.7c0.6-0.2,1.2-0.3,1.8-0.3
		c0.3,0,0.4,0.1,0.4,0.3c0,0.2,0,0.5-0.1,0.8c-0.1,0.4-0.3,1.1-0.5,1.9c-0.2,0.9-0.5,1.8-0.8,2.8c-0.3,1-0.5,2-0.7,3
		c-0.2,1-0.3,1.8-0.3,2.5c0,0.8,0.1,1.4,0.4,1.7c0.3,0.4,0.7,0.5,1.2,0.5c0.6,0,1.3-0.4,2.1-1.1c0.8-0.7,1.5-1.9,2.3-3.6
		c0-0.2,0-0.3,0-0.5c0-0.2,0-0.3,0-0.5c0-1.1,0-2.2,0.1-3.3c0.1-1,0.3-2,0.5-2.7c0.3-0.8,0.6-1.4,1.1-1.9c0.5-0.5,1.1-0.7,1.8-0.7
		c0.3,0,0.6,0.1,0.8,0.3c0.2,0.2,0.3,0.4,0.3,0.8c0,0.8-0.3,2-0.8,3.4c-0.6,1.5-1.3,3.1-2,4.9c-0.1,0.1-0.1,0.2-0.1,0.3
		c0.1,0.5,0.2,1,0.3,1.5c0.1,0.5,0.3,1,0.5,1.5c0.2,0.4,0.4,0.8,0.7,1.1c0.3,0.3,0.6,0.4,1,0.4c0.6,0,1.1-0.3,1.5-0.8
		c0.5-0.5,0.9-1.2,1.3-1.9c0.4-0.8,0.7-1.6,1-2.4c0.3-0.9,0.5-1.6,0.6-2.3c-0.1-0.3-0.1-0.6-0.2-0.8c0-0.3-0.1-0.6-0.1-0.9
		c0-0.8,0.1-1.5,0.3-2c0.2-0.6,0.5-1,0.9-1.4c0.4-0.4,0.8-0.6,1.2-0.8c0.4-0.2,0.8-0.3,1.2-0.3c0.6,0,1,0.3,1,0.8
		c0,0.4-0.1,1.1-0.3,2.1c-0.2,1-0.5,2.1-0.9,3.4c0.5,0.2,1,0.3,1.7,0.3c0.7,0,1.3-0.1,1.8-0.2c0.6-0.2,1.1-0.4,1.5-0.6
		c0.5-0.3,0.9-0.5,1.3-0.8c0.4-0.3,0.8-0.6,1.1-0.9c0.3-0.2,0.5-0.2,0.7,0c0.2,0.2,0.1,0.5-0.1,0.8c-0.2,0.3-0.6,0.7-1,1.1
		c-0.5,0.4-1.1,0.8-1.8,1.2c-0.7,0.4-1.5,0.7-2.3,1c-0.8,0.3-1.7,0.4-2.7,0.4c-0.1,0-0.3,0-0.5,0
		C742.9,251.8,742.7,251.8,742.5,251.7z M714,248.7c0.1-0.2,0.2-0.3,0.4-0.3c0.2,0,0.3,0,0.4,0c0.1,0.1,0.2,0.2,0.2,0.4
		c0,0.2-0.1,0.4-0.2,0.7c-0.5,1-1.2,2-2,3.1c-0.8,1.1-1.7,2.2-2.6,3.1c-0.9,1-1.8,1.8-2.7,2.4c-0.9,0.6-1.6,1-2.2,1
		c-0.8,0-1.5-0.2-2.1-0.5c-0.6-0.3-1-0.7-1.3-1.2c-0.3-0.5-0.5-1-0.7-1.6c-0.1-0.6-0.2-1.1-0.1-1.6c0-0.4,0.1-1.1,0.3-2.2
		c0.2-1.1,0.4-2.3,0.6-3.7c0.2-1.4,0.5-2.9,0.9-4.4c0.3-1.6,0.7-3.1,1-4.6c-0.4,0-0.9,0.1-1.3,0.2c-0.4,0-0.8,0.1-1.2,0.1
		c-0.8,0-1.6-0.1-2.3-0.3c-0.7-0.2-1.3-0.4-1.6-0.6c-0.2-0.1-0.3-0.2-0.3-0.4c0-0.2,0.1-0.4,0.2-0.6c0.1-0.2,0.3-0.4,0.5-0.5
		c0.2-0.1,0.4-0.2,0.5-0.2c0.5,0,1,0.1,1.6,0.1c0.6,0,1.2,0,1.8,0c0.5,0,1-0.1,1.4-0.1c0.4-0.1,0.9-0.1,1.3-0.2
		c0.3-1.2,0.7-2.3,1-3.2c0.3-0.9,0.6-1.5,0.8-1.9c0.1-0.1,0.2-0.2,0.5-0.3c0.3-0.1,0.5-0.2,0.8-0.2c0.3,0,0.6,0,0.9,0
		c0.3,0,0.5,0.1,0.6,0.3c0.1,0.2,0.2,0.7,0.2,1.6c0,0.8-0.2,1.9-0.4,3.2c1.1,0,2,0.1,2.8,0.2c0.8,0.1,1.5,0.2,2.1,0.4
		c0.6,0.1,1.1,0.3,1.4,0.4c0.4,0.1,0.6,0.2,0.8,0.3c0.2,0.1,0.3,0.2,0.3,0.4c0,0.2,0,0.4-0.1,0.6c-0.1,0.2-0.2,0.4-0.4,0.5
		c-0.2,0.2-0.4,0.2-0.7,0.2c-0.3,0-0.5-0.1-0.9-0.2c-0.3-0.1-0.7-0.1-1.1-0.2c-0.4,0-1-0.1-1.6-0.1c-0.6,0-1.3-0.1-2.1-0.1
		c-0.2,0-0.3,0-0.5,0c-0.2,0-0.4,0-0.6,0c-0.1,0.4-0.2,0.8-0.3,1.2c-0.1,0.4-0.2,0.8-0.4,1.2c-0.3,1-0.7,2.1-1.1,3.3
		c-0.4,1-0.8,2.2-1.4,3.6c-0.5,1.3-1.1,2.8-1.8,4.3c-0.1,1.1-0.1,1.9,0.1,2.5c0.2,0.6,0.4,1,0.7,1.2c0.3,0.3,0.7,0.4,1.2,0.5
		c0.4,0,0.8-0.1,1.4-0.4c0.5-0.3,1.1-0.7,1.7-1.3c0.6-0.5,1.2-1.1,1.8-1.7c0.6-0.6,1.1-1.3,1.7-1.9c0.5-0.6,1-1.2,1.3-1.7
		C713.6,249.2,713.9,248.9,714,248.7z"/>
</g>
</svg>
