<?xml version="1.0" encoding="utf-8"?>
<!-- Generator: Adobe Illustrator 19.0.0, SVG Export Plug-In . SVG Version: 6.00 Build 0)  -->
<svg version="1.1" id="Layer_1" xmlns="http://www.w3.org/2000/svg" xmlns:xlink="http://www.w3.org/1999/xlink" x="0px" y="0px"
	 viewBox="2 242.7 600 356.2" style="enable-background:new 2 242.7 600 356.2;" xml:space="preserve">
<style type="text/css">
	.st0{fill:url(#SVGID_1_);}
	.st1{filter:url(#Adobe_OpacityMaskFilter);}
	.st2{clip-path:url(#SVGID_3_);}
	.st3{clip-path:url(#SVGID_6_);fill:url(#SVGID_7_);}
	.st4{opacity:0.2;clip-path:url(#SVGID_3_);mask:url(#SVGID_5_);}
	.st5{fill:#D1DCE6;}
	.st6{enable-background:new    ;}
	.st7{fill:#82D7E6;}
	.st8{fill:#C1EBF3;}
	.st9{fill:#A1E1EC;}
	.st10{fill:#326770;}
	.st11{fill:#63CDE0;}
	.st12{fill:#4A9AA8;}
	.st13{opacity:0.25;}
	.st14{fill:#21FBFF;}
	.st15{fill:#696665;}
	.st16{fill:#34312F;}
	.st17{fill:#0D164D;}
	.st18{fill:#14256D;}
	.st19{fill:#367C83;}
	.st20{fill:#46AAB4;}
	.st21{fill:#163891;}
	.st22{fill:#290F01;}
	.st23{fill:#02567D;}
	.st24{fill:#F0C17D;}
	.st25{fill:#FFDBA7;}
	.st26{fill:#5E6C78;}
	.st27{fill:#137096;}
	.st28{fill:#05345E;}
	.st29{fill:#042847;}
	.st30{fill:#6489B1;}
	.st31{fill:#021A30;}
	.st32{fill:#86B7EC;}
	.st33{fill:#435C76;}
	.st34{fill:#032747;}
	.st35{fill:#632404;}
	.st36{fill:#151717;}
	.st37{fill:#22485A;}
	.st38{fill:#3EC1D9;}
	.st39{fill:#116E93;}
	.st40{fill:#9BDFEB;}
	.st41{fill:#02415E;}
	.st42{fill:#E6E6E6;}
	.st43{fill:#343E47;}
	.st44{fill:#44515C;}
	.st45{fill:#11AFBD;}
	.st46{fill:#12BDCC;}
	.st47{fill:#11828C;}
	.st48{fill:#139EAB;}
	.st49{fill:#279CD6;}
	.st50{fill:#163240;}
	.st51{fill:#171C26;}
	.st52{fill:#232C3B;}
	.st53{fill:#F7CC8F;}
	.st54{fill:#36435A;}
	.st55{fill:#2E3139;}
	.st56{fill:#121314;}
	.st57{fill:#099FE0;}
	.st58{fill:#2A3445;}
	.st59{fill:#323A4A;}
	.st60{fill:#BA2722;}
	.st61{fill:#A11D18;}
	.st62{fill:#C82B26;}
	.st63{fill:#851511;}
	.st64{fill:#23D9D9;}
	.st65{fill:#048CC6;}
	.st66{fill:#3D424F;}
	.st67{fill:#4D5363;}
	.st68{fill:#1C5F66;}
</style>
<g>
	<g>
		
			<radialGradient id="SVGID_1_" cx="534.6296" cy="246.6316" r="1.0928" gradientTransform="matrix(-1 0 0 -1 604 841.27)" gradientUnits="userSpaceOnUse">
			<stop  offset="0" style="stop-color:#02567D"/>
			<stop  offset="1" style="stop-color:#02567D;stop-opacity:0.3"/>
		</radialGradient>
		<polygon class="st0" points="68,595.2 68,594.1 70.8,595.2 		"/>
	</g>
	<g>
		<defs>
			<rect id="SVGID_2_" x="144.9" y="292.6" width="337.6" height="289.6"/>
		</defs>
		<clipPath id="SVGID_3_">
			<use xlink:href="#SVGID_2_"  style="overflow:visible;"/>
		</clipPath>
		<defs>
			<filter id="Adobe_OpacityMaskFilter" filterUnits="userSpaceOnUse" x="139.6" y="298.4" width="350.4" height="284.5">
				<feColorMatrix  type="matrix" values="1 0 0 0 0  0 1 0 0 0  0 0 1 0 0  0 0 0 1 0"/>
			</filter>
		</defs>
		<mask maskUnits="userSpaceOnUse" x="139.6" y="298.4" width="350.4" height="284.5" id="SVGID_5_">
			<g class="st1">
				<g>
					<defs>
						<rect id="SVGID_4_" x="144.9" y="292.6" width="337.6" height="289.6"/>
					</defs>
					<clipPath id="SVGID_6_" class="st2">
						<use xlink:href="#SVGID_4_"  style="overflow:visible;"/>
					</clipPath>
					
						<radialGradient id="SVGID_7_" cx="284.636" cy="357.18" r="204.5" gradientTransform="matrix(-1 0 0 -1 604 841.27)" gradientUnits="userSpaceOnUse">
						<stop  offset="0" style="stop-color:#F2F2F2"/>
						<stop  offset="1" style="stop-color:#000000"/>
					</radialGradient>
					<circle class="st3" cx="319.4" cy="484.1" r="204.5"/>
				</g>
			</g>
		</mask>
		<g class="st4">
			<g>
				<polygon class="st5" points="418.1,582.9 432.2,574.8 431.4,574.3 416.6,582.9 				"/>
			</g>
			<g>
				<polygon class="st5" points="185.7,382.5 184.9,382.1 204.9,370.5 205.7,371 				"/>
			</g>
			<g>
				<polygon class="st5" points="310.1,334.6 309.3,334.1 329.3,322.6 330.1,323 				"/>
			</g>
			<g class="st6">
				<g>
					<polygon class="st5" points="310.2,310.6 309.5,310.2 329.9,298.4 330.6,298.9 					"/>
				</g>
				<g>
					<polygon class="st5" points="289.5,322.6 288.7,322.2 308.7,310.6 309.5,311.1 					"/>
				</g>
				<g>
					<polygon class="st5" points="288.5,298.9 308.7,310.6 309.5,311.1 329.3,322.6 330.1,323 350,334.6 350.7,335 370.6,346.6 
						371.3,347 391.2,358.6 392,359 411.8,370.5 412.6,371 432.5,382.5 433.2,383 453.1,394.5 453.9,395 473.7,406.5 474.5,407 
						490,416 490,415.1 475.3,406.5 474.5,406.1 454.6,394.5 453.9,394.1 434,382.5 433.2,382.1 413.4,370.5 412.6,370.1 
						392.8,358.6 392,358.1 372.1,346.6 371.4,346.1 351.5,334.6 350.7,334.1 330.9,322.6 330.1,322.2 310.2,310.6 309.5,310.2 
						289.2,298.4 					"/>
				</g>
				<g>
					<polygon class="st5" points="330.9,322.6 330.1,322.2 350.5,310.4 351.2,310.8 					"/>
				</g>
				<g>
					<polygon class="st5" points="268.7,334.6 268,334.1 287.9,322.6 288.7,323 					"/>
				</g>
				<g>
					<polygon class="st5" points="351.5,334.6 350.7,334.1 371.1,322.4 371.9,322.8 					"/>
				</g>
				<g>
					<polygon class="st5" points="248,346.6 247.2,346.1 267.2,334.6 267.9,335 					"/>
				</g>
				<g>
					<polygon class="st5" points="289.4,346.6 288.6,346.1 308.6,334.6 309.3,335 					"/>
				</g>
				<g>
					<polygon class="st5" points="330.7,346.6 330,346.1 350,334.6 350.7,335 					"/>
				</g>
				<g>
					<polygon class="st5" points="372.1,346.6 371.4,346.1 391.7,334.4 392.5,334.8 					"/>
				</g>
				<g>
					<polygon class="st5" points="205.4,346.8 225.7,358.6 226.4,359 246.3,370.5 247.1,371 266.9,382.5 267.7,383 287.5,394.5 
						288.3,395 308.2,406.5 308.9,407 328.8,418.5 329.6,418.9 349.4,430.5 350.2,430.9 370,442.5 370.8,442.9 390.7,454.4 
						391.4,454.9 411.3,466.4 412.1,466.9 431.9,478.4 432.7,478.9 452.5,490.4 453.3,490.9 473.2,502.4 473.9,502.8 490,512.2 
						490,511.3 474.7,502.4 474,501.9 454.1,490.4 453.3,490 433.5,478.4 432.7,478 412.8,466.4 412.1,466 392.2,454.4 391.4,454 
						371.6,442.5 370.8,442 351,430.5 350.2,430 330.3,418.5 329.6,418 309.7,406.5 308.9,406.1 289.1,394.5 288.3,394.1 
						268.5,382.5 267.7,382.1 247.8,370.5 247.1,370.1 227.2,358.6 226.4,358.1 206.2,346.3 					"/>
				</g>
				<g>
					<polygon class="st5" points="227.2,358.6 226.4,358.1 246.4,346.6 247.2,347 					"/>
				</g>
				<g>
					<polygon class="st5" points="268.6,358.6 267.8,358.1 287.8,346.6 288.6,347 					"/>
				</g>
				<g>
					<polygon class="st5" points="246.9,322.8 267.2,334.6 267.9,335 287.8,346.6 288.6,347 308.4,358.6 309.2,359 329.1,370.5 
						329.8,371 349.7,382.5 350.5,383 370.3,394.5 371.1,395 390.9,406.5 391.7,407 411.6,418.5 412.3,418.9 432.2,430.5 433,430.9 
						452.8,442.5 453.6,442.9 473.4,454.5 474.2,454.9 490,464.1 490,463.2 475,454.4 474.2,454 454.4,442.5 453.6,442 433.7,430.5 
						433,430 413.1,418.5 412.3,418 392.5,406.5 391.7,406.1 371.9,394.5 371.1,394.1 351.2,382.5 350.5,382.1 330.6,370.5 
						329.8,370.1 310,358.6 309.2,358.1 289.4,346.6 288.6,346.1 268.7,334.6 268,334.1 247.7,322.4 					"/>
				</g>
				<g>
					<polygon class="st5" points="310,358.6 309.2,358.1 329.2,346.6 330,347 					"/>
				</g>
				<g>
					<polygon class="st5" points="351.4,358.6 350.6,358.1 370.6,346.6 371.3,347 					"/>
				</g>
				<g>
					<polygon class="st5" points="392.8,358.6 392,358.1 412.4,346.4 413.1,346.8 					"/>
				</g>
				<g>
					<polygon class="st5" points="184.7,358.8 204.9,370.5 205.7,371 225.5,382.5 226.3,383 246.2,394.5 246.9,395 266.8,406.5 
						267.5,407 287.4,418.5 288.2,418.9 308,430.5 308.8,430.9 328.7,442.5 329.4,442.9 349.3,454.5 350.1,454.9 369.9,466.4 
						370.7,466.9 390.5,478.4 391.3,478.9 411.2,490.4 411.9,490.9 431.8,502.4 432.6,502.8 452.4,514.4 453.2,514.8 473,526.4 
						473.8,526.8 490,536.2 490,535.4 474.6,526.4 473.8,525.9 454,514.4 453.2,513.9 433.3,502.4 432.6,501.9 412.7,490.4 
						411.9,490 392.1,478.4 391.3,478 371.4,466.4 370.7,466 350.8,454.5 350.1,454 330.2,442.5 329.4,442 309.6,430.5 308.8,430 
						288.9,418.5 288.2,418 268.3,406.5 267.5,406.1 247.7,394.5 246.9,394.1 227.1,382.5 226.3,382.1 206.4,370.5 205.7,370.1 
						185.4,358.3 					"/>
				</g>
				<g>
					<polygon class="st5" points="206.4,370.5 205.7,370.1 225.7,358.6 226.4,359 					"/>
				</g>
				<g>
					<polygon class="st5" points="247.8,370.5 247.1,370.1 267,358.6 267.8,359 					"/>
				</g>
				<g>
					<polygon class="st5" points="289.2,370.5 288.4,370.1 308.4,358.6 309.2,359 					"/>
				</g>
				<g>
					<polygon class="st5" points="330.6,370.5 329.8,370.1 349.8,358.6 350.6,359 					"/>
				</g>
				<g>
					<polygon class="st5" points="372,370.5 371.2,370.1 391.2,358.6 392,359 					"/>
				</g>
				<g>
					<polygon class="st5" points="413.4,370.5 412.6,370.1 433,358.3 433.8,358.8 					"/>
				</g>
				<g>
					<polygon class="st5" points="227.1,382.5 226.3,382.1 246.3,370.5 247.1,371 					"/>
				</g>
				<g>
					<polygon class="st5" points="268.5,382.5 267.7,382.1 287.7,370.5 288.4,371 					"/>
				</g>
				<g>
					<polygon class="st5" points="309.8,382.5 309.1,382.1 329.1,370.5 329.8,371 					"/>
				</g>
				<g>
					<polygon class="st5" points="351.2,382.5 350.5,382.1 370.5,370.5 371.2,371 					"/>
				</g>
				<g>
					<polygon class="st5" points="392.6,382.5 391.8,382.1 411.8,370.5 412.6,371 					"/>
				</g>
				<g>
					<polygon class="st5" points="434,382.5 433.2,382.1 453.6,370.3 454.4,370.8 					"/>
				</g>
				<g>
					<polygon class="st5" points="164.9,394.5 164.2,394.1 184.1,382.5 184.9,383 					"/>
				</g>
				<g>
					<polygon class="st5" points="206.3,394.5 205.5,394.1 225.5,382.5 226.3,383 					"/>
				</g>
				<g>
					<polygon class="st5" points="247.7,394.5 246.9,394.1 266.9,382.5 267.7,383 					"/>
				</g>
				<g>
					<polygon class="st5" points="289.1,394.5 288.3,394.1 308.3,382.5 309.1,383 					"/>
				</g>
				<g>
					<polygon class="st5" points="330.5,394.5 329.7,394.1 349.7,382.5 350.5,383 					"/>
				</g>
				<g>
					<polygon class="st5" points="371.9,394.5 371.1,394.1 391.1,382.5 391.8,383 					"/>
				</g>
				<g>
					<polygon class="st5" points="413.2,394.5 412.5,394.1 432.5,382.5 433.2,383 					"/>
				</g>
				<g>
					<polygon class="st5" points="454.6,394.5 453.9,394.1 474.2,382.3 475,382.8 					"/>
				</g>
				<g>
					<polygon class="st5" points="226.7,454.5 225.9,454 245.9,442.5 246.7,442.9 					"/>
				</g>
				<g>
					<polygon class="st5" points="247.3,466.4 246.5,466 266.5,454.5 267.3,454.9 					"/>
				</g>
				<g>
					<polygon class="st5" points="267.9,478.4 267.1,478 287.1,466.4 287.9,466.9 					"/>
				</g>
				<g>
					<polygon class="st5" points="288.5,490.4 287.8,490 307.8,478.4 308.5,478.9 					"/>
				</g>
				<g>
					<polygon class="st5" points="309.2,502.4 308.4,501.9 328.4,490.4 329.1,490.9 					"/>
				</g>
				<g>
					<polygon class="st5" points="329.8,514.4 329,513.9 349,502.4 349.8,502.8 					"/>
				</g>
				<g>
					<polygon class="st5" points="350.4,526.4 349.7,525.9 369.6,514.4 370.4,514.8 					"/>
				</g>
				<g>
					<polygon class="st5" points="371.1,538.4 370.3,537.9 390.3,526.4 391,526.8 					"/>
				</g>
				<g>
					<polygon class="st5" points="391.7,550.3 390.9,549.9 410.9,538.4 411.7,538.8 					"/>
				</g>
				<g>
					<polygon class="st5" points="412.3,562.3 411.5,561.9 431.5,550.3 432.3,550.8 					"/>
				</g>
				<g>
					<polygon class="st5" points="432.9,574.3 432.2,573.9 452.1,562.3 452.9,562.8 					"/>
				</g>
				<g>
					<polygon class="st5" points="447.6,582.9 432.9,574.3 432.2,573.9 412.3,562.3 411.5,561.9 391.7,550.3 390.9,549.9 
						371.1,538.4 370.3,537.9 350.4,526.4 350.4,526.4 349.7,525.9 349.7,525.9 329.8,514.4 329,513.9 309.2,502.4 308.4,501.9 
						288.5,490.4 287.8,490 267.9,478.4 267.1,478 247.3,466.4 246.5,466 226.7,454.5 225.9,454 206,442.5 205.3,442 185.4,430.5 
						184.6,430 164.8,418.5 164,418 144.2,406.5 143.4,406.1 139.6,403.9 139.6,404.8 142.6,406.5 143.4,407 163.2,418.5 164,418.9 
						183.9,430.5 184.6,430.9 204.5,442.5 205.3,442.9 225.1,454.5 225.9,454.9 245.7,466.4 246.5,466.9 266.4,478.4 267.1,478.9 
						287,490.4 287.8,490.9 307.6,502.4 308.4,502.8 328.3,514.4 329,514.8 348.9,526.4 349.6,526.8 369.5,538.4 370.3,538.8 
						390.1,550.3 390.9,550.8 410.8,562.3 411.5,562.8 431.4,574.3 432.2,574.8 446.1,582.9 					"/>
				</g>
				<g>
					<polygon class="st5" points="144.2,406.5 143.4,406.1 163.4,394.5 164.1,395 					"/>
				</g>
				<g>
					<polygon class="st5" points="143.9,382.3 164.2,394.1 164.9,394.5 184.8,406.1 185.5,406.5 205.4,418 206.2,418.5 226,430 
						226.8,430.5 246.7,442 247.4,442.5 267.3,454 268.1,454.4 287.9,466 288.7,466.4 308.5,478 309.3,478.4 329.2,490 329.9,490.4 
						349.8,501.9 350.6,502.4 370.4,513.9 371.2,514.4 391,525.9 391.8,526.4 411.7,537.9 412.4,538.4 432.3,549.9 433.1,550.3 
						452.9,561.9 453.7,562.3 473.9,574.1 473.2,574.5 452.9,562.8 452.1,562.3 432.3,550.8 431.5,550.3 411.7,538.8 410.9,538.4 
						391,526.8 390.3,526.4 370.4,514.8 369.6,514.4 349.8,502.8 349,502.4 329.2,490.9 328.4,490.4 308.5,478.9 307.8,478.4 
						287.9,466.9 287.1,466.4 267.3,454.9 266.5,454.5 246.7,442.9 245.9,442.5 226,430.9 225.3,430.5 205.4,418.9 204.6,418.5 
						184.8,407 184,406.5 164.1,395 163.4,394.5 143.1,382.8 					"/>
				</g>
				<g>
					<polygon class="st5" points="185.5,406.5 184.8,406.1 204.8,394.5 205.5,395 					"/>
				</g>
				<g>
					<polygon class="st5" points="226.9,406.5 226.2,406.1 246.2,394.5 246.9,395 					"/>
				</g>
				<g>
					<polygon class="st5" points="268.3,406.5 267.5,406.1 287.5,394.5 288.3,395 					"/>
				</g>
				<g>
					<polygon class="st5" points="309.7,406.5 308.9,406.1 328.9,394.5 329.7,395 					"/>
				</g>
				<g>
					<polygon class="st5" points="351.1,406.5 350.3,406.1 370.3,394.5 371.1,395 					"/>
				</g>
				<g>
					<polygon class="st5" points="392.5,406.5 391.7,406.1 411.7,394.5 412.5,395 					"/>
				</g>
				<g>
					<polygon class="st5" points="433.9,406.5 433.1,406.1 453.1,394.5 453.9,395 					"/>
				</g>
				<g>
					<polygon class="st5" points="474.5,406.1 475.3,406.5 490,398 490,397.1 					"/>
				</g>
				<g>
					<polygon class="st5" points="406.2,582.9 391.5,574.3 390.8,573.9 370.9,562.3 370.1,561.9 350.3,550.3 349.5,549.9 
						329.7,538.4 328.9,537.9 309,526.4 308.3,525.9 288.4,514.4 287.6,513.9 267.8,502.4 267,501.9 247.2,490.4 246.4,490 
						226.5,478.4 225.8,478 205.9,466.4 205.1,466 185.3,454.4 184.5,454 164.7,442.5 163.9,442 144,430.5 143.3,430 139.6,427.9 
						139.6,428.8 142.5,430.5 143.3,430.9 163.1,442.5 163.9,442.9 183.7,454.4 184.5,454.9 204.4,466.4 205.1,466.9 225,478.4 
						225.8,478.9 245.6,490.4 246.4,490.9 266.2,502.4 267,502.8 286.9,514.4 287.6,514.8 307.5,526.4 308.3,526.8 328.1,538.4 
						328.9,538.8 348.7,550.3 349.5,550.8 369.4,562.3 370.1,562.8 390,574.3 390.8,574.8 404.7,582.9 					"/>
				</g>
				<g>
					<polygon class="st5" points="139.6,409.1 143.4,407 142.6,406.5 139.6,408.2 					"/>
				</g>
				<g>
					<polygon class="st5" points="164.8,418.5 164,418 184,406.5 184.8,407 					"/>
				</g>
				<g>
					<polygon class="st5" points="206.2,418.5 205.4,418 225.4,406.5 226.2,407 					"/>
				</g>
				<g>
					<polygon class="st5" points="247.6,418.5 246.8,418 266.8,406.5 267.5,407 					"/>
				</g>
				<g>
					<polygon class="st5" points="288.9,418.5 288.2,418 308.2,406.5 308.9,407 					"/>
				</g>
				<g>
					<polygon class="st5" points="330.3,418.5 329.6,418 349.6,406.5 350.3,407 					"/>
				</g>
				<g>
					<polygon class="st5" points="371.7,418.5 370.9,418 390.9,406.5 391.7,407 					"/>
				</g>
				<g>
					<polygon class="st5" points="413.1,418.5 412.3,418 432.3,406.5 433.1,407 					"/>
				</g>
				<g>
					<polygon class="st5" points="454.5,418.5 453.7,418 473.7,406.5 474.5,407 					"/>
				</g>
				<g>
					<polygon class="st5" points="144,430.5 143.3,430 163.2,418.5 164,418.9 					"/>
				</g>
				<g>
					<polygon class="st5" points="185.4,430.5 184.6,430 204.6,418.5 205.4,418.9 					"/>
				</g>
				<g>
					<polygon class="st5" points="226.8,430.5 226,430 246,418.5 246.8,418.9 					"/>
				</g>
				<g>
					<polygon class="st5" points="268.2,430.5 267.4,430 287.4,418.5 288.2,418.9 					"/>
				</g>
				<g>
					<polygon class="st5" points="309.6,430.5 308.8,430 328.8,418.5 329.6,418.9 					"/>
				</g>
				<g>
					<polygon class="st5" points="351,430.5 350.2,430 370.2,418.5 370.9,418.9 					"/>
				</g>
				<g>
					<polygon class="st5" points="392.3,430.5 391.6,430 411.6,418.5 412.3,418.9 					"/>
				</g>
				<g>
					<polygon class="st5" points="433.7,430.5 433,430 453,418.5 453.7,418.9 					"/>
				</g>
				<g>
					<polygon class="st5" points="474.4,430 475.1,430.5 490,421.9 490,421 					"/>
				</g>
				<g>
					<polygon class="st5" points="139.6,433 143.3,430.9 142.5,430.5 139.6,432.1 					"/>
				</g>
				<g>
					<polygon class="st5" points="164.7,442.5 163.9,442 183.9,430.5 184.6,430.9 					"/>
				</g>
				<g>
					<polygon class="st5" points="206,442.5 205.3,442 225.3,430.5 226,430.9 					"/>
				</g>
				<g>
					<polygon class="st5" points="247.4,442.5 246.7,442 266.6,430.5 267.4,430.9 					"/>
				</g>
				<g>
					<polygon class="st5" points="288.8,442.5 288,442 308,430.5 308.8,430.9 					"/>
				</g>
				<g>
					<polygon class="st5" points="330.2,442.5 329.4,442 349.4,430.5 350.2,430.9 					"/>
				</g>
				<g>
					<polygon class="st5" points="371.6,442.5 370.8,442 390.8,430.5 391.6,430.9 					"/>
				</g>
				<g>
					<polygon class="st5" points="413,442.5 412.2,442 432.2,430.5 433,430.9 					"/>
				</g>
				<g>
					<polygon class="st5" points="454.4,442.5 453.6,442 473.6,430.5 474.4,430.9 					"/>
				</g>
				<g>
					<polygon class="st5" points="282.1,582.9 267.4,574.3 266.6,573.9 246.8,562.3 246,561.9 226.1,550.3 225.4,549.9 205.5,538.4 
						204.7,537.9 184.9,526.4 184.1,525.9 164.3,514.4 163.5,513.9 143.6,502.4 142.9,501.9 139.6,500.1 139.6,501 142.1,502.4 
						142.8,502.8 162.7,514.4 163.5,514.8 183.3,526.4 184.1,526.8 204,538.4 204.7,538.8 224.6,550.3 225.3,550.8 245.2,562.3 
						246,562.8 265.8,574.3 266.6,574.8 280.5,582.9 					"/>
				</g>
				<g>
					<polygon class="st5" points="288.3,538.4 287.5,537.9 307.5,526.4 308.3,526.8 					"/>
				</g>
				<g>
					<polygon class="st5" points="308.9,550.3 308.1,549.9 328.1,538.4 328.9,538.8 					"/>
				</g>
				<g>
					<polygon class="st5" points="329.5,562.3 328.8,561.9 348.7,550.3 349.5,550.8 					"/>
				</g>
				<g>
					<polygon class="st5" points="350.1,574.3 349.4,573.9 369.4,562.3 370.1,562.8 					"/>
				</g>
				<g>
					<polygon class="st5" points="364.9,582.9 350.1,574.3 349.4,573.9 329.5,562.3 328.8,561.9 308.9,550.3 308.9,550.3 
						308.1,549.9 288.3,538.4 287.5,537.9 287.5,537.9 267.6,526.4 266.9,525.9 247,514.4 246.3,513.9 226.4,502.4 225.6,501.9 
						205.8,490.4 205,490 185.1,478.4 184.4,478 164.5,466.4 163.7,466 143.9,454.5 143.1,454 139.6,452 139.6,452.9 142.3,454.5 
						143.1,454.9 163,466.4 163.7,466.9 183.6,478.4 184.4,478.9 204.2,490.4 205,490.9 224.8,502.4 225.6,502.8 245.5,514.4 
						246.2,514.8 266.1,526.4 266.9,526.8 286.7,538.4 287.5,538.8 307.4,550.3 308.1,550.8 328,562.3 328.8,562.8 348.6,574.3 
						349.4,574.8 363.3,582.9 					"/>
				</g>
				<g>
					<polygon class="st5" points="143.9,454.5 143.1,454 163.1,442.5 163.9,442.9 					"/>
				</g>
				<g>
					<polygon class="st5" points="185.3,454.4 184.5,454 204.5,442.5 205.3,442.9 					"/>
				</g>
				<g>
					<polygon class="st5" points="268.1,454.4 267.3,454 287.3,442.5 288,442.9 					"/>
				</g>
				<g>
					<polygon class="st5" points="309.4,454.4 308.7,454 328.7,442.5 329.4,442.9 					"/>
				</g>
				<g>
					<polygon class="st5" points="350.8,454.5 350.1,454 370,442.5 370.8,442.9 					"/>
				</g>
				<g>
					<polygon class="st5" points="392.2,454.4 391.4,454 411.4,442.5 412.2,442.9 					"/>
				</g>
				<g>
					<polygon class="st5" points="433.6,454.5 432.8,454 452.8,442.5 453.6,442.9 					"/>
				</g>
				<g>
					<polygon class="st5" points="474.2,454 475,454.4 490,445.8 490,444.9 					"/>
				</g>
				<g>
					<polygon class="st5" points="240.7,582.9 226,574.3 225.2,573.9 205.4,562.3 204.6,561.9 184.7,550.3 184,549.9 164.1,538.4 
						163.3,537.9 143.5,526.4 142.7,525.9 139.6,524.1 139.6,525 141.9,526.4 142.7,526.8 162.6,538.4 163.3,538.8 183.2,550.3 
						184,550.8 203.8,562.3 204.6,562.8 224.4,574.3 225.2,574.8 239.2,582.9 					"/>
				</g>
				<g>
					<polygon class="st5" points="139.6,456.9 143.1,454.9 142.3,454.5 139.6,456 					"/>
				</g>
				<g>
					<polygon class="st5" points="164.5,466.4 163.7,466 183.7,454.4 184.5,454.9 					"/>
				</g>
				<g>
					<polygon class="st5" points="205.9,466.4 205.1,466 225.1,454.5 225.9,454.9 					"/>
				</g>
				<g>
					<polygon class="st5" points="288.7,466.4 287.9,466 307.9,454.4 308.7,454.9 					"/>
				</g>
				<g>
					<polygon class="st5" points="330.1,466.4 329.3,466 349.3,454.5 350.1,454.9 					"/>
				</g>
				<g>
					<polygon class="st5" points="371.4,466.4 370.7,466 390.7,454.4 391.4,454.9 					"/>
				</g>
				<g>
					<polygon class="st5" points="412.8,466.4 412.1,466 432.1,454.5 432.8,454.9 					"/>
				</g>
				<g>
					<polygon class="st5" points="454.2,466.4 453.5,466 473.4,454.5 474.2,454.9 					"/>
				</g>
				<g>
					<polygon class="st5" points="199.3,582.9 184.6,574.3 183.8,573.9 164,562.3 163.2,561.9 143.4,550.3 142.6,549.9 139.6,548.2 
						139.6,549.1 141.8,550.3 142.6,550.8 162.4,562.3 163.2,562.8 183.1,574.3 183.8,574.8 197.8,582.9 					"/>
				</g>
				<g>
					<polygon class="st5" points="143.8,478.4 143,478 163,466.4 163.7,466.9 					"/>
				</g>
				<g>
					<polygon class="st5" points="185.1,478.4 184.4,478 204.4,466.4 205.1,466.9 					"/>
				</g>
				<g>
					<polygon class="st5" points="226.5,478.4 225.8,478 245.7,466.4 246.5,466.9 					"/>
				</g>
				<g>
					<polygon class="st5" points="309.3,478.4 308.5,478 328.5,466.4 329.3,466.9 					"/>
				</g>
				<g>
					<polygon class="st5" points="350.7,478.4 349.9,478 369.9,466.4 370.7,466.9 					"/>
				</g>
				<g>
					<polygon class="st5" points="392.1,478.4 391.3,478 411.3,466.4 412.1,466.9 					"/>
				</g>
				<g>
					<polygon class="st5" points="433.5,478.4 432.7,478 452.7,466.4 453.4,466.9 					"/>
				</g>
				<g>
					<polygon class="st5" points="474.1,478 474.9,478.4 490,469.7 490,468.8 					"/>
				</g>
				<g>
					<polygon class="st5" points="139.6,480.8 143,478.9 142.2,478.4 139.6,479.9 					"/>
				</g>
				<g>
					<polygon class="st5" points="164.4,490.4 163.6,490 183.6,478.4 184.4,478.9 					"/>
				</g>
				<g>
					<polygon class="st5" points="205.8,490.4 205,490 225,478.4 225.8,478.9 					"/>
				</g>
				<g>
					<polygon class="st5" points="247.2,490.4 246.4,490 266.4,478.4 267.1,478.9 					"/>
				</g>
				<g>
					<polygon class="st5" points="329.9,490.4 329.2,490 349.1,478.4 349.9,478.9 					"/>
				</g>
				<g>
					<polygon class="st5" points="371.3,490.4 370.6,490 390.5,478.4 391.3,478.9 					"/>
				</g>
				<g>
					<polygon class="st5" points="412.7,490.4 411.9,490 431.9,478.4 432.7,478.9 					"/>
				</g>
				<g>
					<polygon class="st5" points="454.1,490.4 453.3,490 473.3,478.4 474.1,478.9 					"/>
				</g>
				<g>
					<polygon class="st5" points="143.6,502.4 142.9,501.9 162.8,490.4 163.6,490.9 					"/>
				</g>
				<g>
					<polygon class="st5" points="185,502.4 184.2,501.9 204.2,490.4 205,490.9 					"/>
				</g>
				<g>
					<polygon class="st5" points="226.4,502.4 225.6,501.9 245.6,490.4 246.4,490.9 					"/>
				</g>
				<g>
					<polygon class="st5" points="267.8,502.4 267,501.9 287,490.4 287.8,490.9 					"/>
				</g>
				<g>
					<polygon class="st5" points="350.6,502.4 349.8,501.9 369.8,490.4 370.5,490.9 					"/>
				</g>
				<g>
					<polygon class="st5" points="391.9,502.4 391.2,501.9 411.2,490.4 411.9,490.9 					"/>
				</g>
				<g>
					<polygon class="st5" points="433.3,502.4 432.6,501.9 452.5,490.4 453.3,490.9 					"/>
				</g>
				<g>
					<polygon class="st5" points="474,501.9 474.7,502.4 490,493.6 490,492.7 					"/>
				</g>
				<g>
					<polygon class="st5" points="267.7,310.8 287.9,322.6 288.7,323 308.6,334.6 309.3,335 329.2,346.6 330,347 349.8,358.6 
						350.6,359 370.5,370.5 371.2,371 391.1,382.5 391.8,383 411.7,394.5 412.5,395 432.3,406.5 433.1,407 453,418.5 453.7,418.9 
						473.6,430.5 474.4,430.9 490,440 490,439.1 475.1,430.5 474.4,430 454.5,418.5 453.7,418 433.9,406.5 433.1,406.1 413.2,394.5 
						412.5,394.1 392.6,382.5 391.8,382.1 372,370.5 371.2,370.1 351.4,358.6 350.6,358.1 330.7,346.6 330,346.1 310.1,334.6 
						309.3,334.1 289.5,322.6 288.7,322.2 268.5,310.4 					"/>
				</g>
				<g>
					<polygon class="st5" points="139.6,504.7 142.8,502.8 142.1,502.4 139.6,503.8 					"/>
				</g>
				<g>
					<polygon class="st5" points="164.2,514.4 163.5,513.9 183.5,502.4 184.2,502.8 					"/>
				</g>
				<g>
					<polygon class="st5" points="205.6,514.4 204.9,513.9 224.8,502.4 225.6,502.8 					"/>
				</g>
				<g>
					<polygon class="st5" points="247,514.4 246.3,513.9 266.2,502.4 267,502.8 					"/>
				</g>
				<g>
					<polygon class="st5" points="288.4,514.4 287.6,513.9 307.6,502.4 308.4,502.8 					"/>
				</g>
				<g>
					<polygon class="st5" points="371.2,514.4 370.4,513.9 390.4,502.4 391.2,502.8 					"/>
				</g>
				<g>
					<polygon class="st5" points="412.6,514.4 411.8,513.9 431.8,502.4 432.6,502.8 					"/>
				</g>
				<g>
					<polygon class="st5" points="454,514.4 453.2,513.9 473.2,502.4 473.9,502.8 					"/>
				</g>
				<g>
					<polygon class="st5" points="143.5,526.4 142.7,525.9 162.7,514.4 163.5,514.8 					"/>
				</g>
				<g>
					<polygon class="st5" points="184.9,526.4 184.1,525.9 204.1,514.4 204.9,514.8 					"/>
				</g>
				<g>
					<polygon class="st5" points="226.3,526.4 225.5,525.9 245.5,514.4 246.2,514.8 					"/>
				</g>
				<g>
					<polygon class="st5" points="267.6,526.4 266.9,525.9 286.9,514.4 287.6,514.8 					"/>
				</g>
				<g>
					<polygon class="st5" points="309,526.4 308.3,525.9 328.3,514.4 329,514.8 					"/>
				</g>
				<g>
					<polygon class="st5" points="391.8,526.4 391,525.9 411,514.4 411.8,514.8 					"/>
				</g>
				<g>
					<polygon class="st5" points="433.2,526.4 432.4,525.9 452.4,514.4 453.2,514.8 					"/>
				</g>
				<g>
					<polygon class="st5" points="473.8,525.9 474.6,526.4 490,517.4 490,516.6 					"/>
				</g>
				<g>
					<polygon class="st5" points="226.2,334.8 246.4,346.6 247.2,347 267,358.6 267.8,359 287.7,370.5 288.4,371 308.3,382.5 
						309.1,383 328.9,394.5 329.7,395 349.6,406.5 350.3,407 370.2,418.5 370.9,418.9 390.8,430.5 391.6,430.9 411.4,442.5 
						412.2,442.9 432.1,454.5 432.8,454.9 452.7,466.4 453.4,466.9 473.3,478.4 474.1,478.9 490,488.1 490,487.2 474.9,478.4 
						474.1,478 454.2,466.4 453.5,466 433.6,454.5 432.8,454 413,442.5 412.2,442 392.3,430.5 391.6,430 371.7,418.5 370.9,418 
						351.1,406.5 350.3,406.1 330.5,394.5 329.7,394.1 309.8,382.5 309.1,382.1 289.2,370.5 288.4,370.1 268.6,358.6 267.8,358.1 
						248,346.6 247.2,346.1 227,334.4 					"/>
				</g>
				<g>
					<polygon class="st5" points="139.6,528.6 142.7,526.8 141.9,526.4 139.6,527.7 					"/>
				</g>
				<g>
					<polygon class="st5" points="164.1,538.4 163.3,537.9 183.3,526.4 184.1,526.8 					"/>
				</g>
				<g>
					<polygon class="st5" points="205.5,538.4 204.7,537.9 224.7,526.4 225.5,526.8 					"/>
				</g>
				<g>
					<polygon class="st5" points="246.9,538.4 246.1,537.9 266.1,526.4 266.9,526.8 					"/>
				</g>
				<g>
					<polygon class="st5" points="329.7,538.4 328.9,537.9 348.9,526.4 349.6,526.8 					"/>
				</g>
				<g>
					<polygon class="st5" points="412.4,538.4 411.7,537.9 431.7,526.4 432.4,526.8 					"/>
				</g>
				<g>
					<polygon class="st5" points="453.8,538.4 453.1,537.9 473,526.4 473.8,526.8 					"/>
				</g>
				<g>
					<polygon class="st5" points="143.4,550.3 142.6,549.9 162.6,538.4 163.3,538.8 					"/>
				</g>
				<g>
					<polygon class="st5" points="184.7,550.3 184,549.9 204,538.4 204.7,538.8 					"/>
				</g>
				<g>
					<polygon class="st5" points="226.1,550.3 225.4,549.9 245.3,538.4 246.1,538.8 					"/>
				</g>
				<g>
					<polygon class="st5" points="267.5,550.3 266.7,549.9 286.7,538.4 287.5,538.8 					"/>
				</g>
				<g>
					<polygon class="st5" points="350.3,550.3 349.5,549.9 369.5,538.4 370.3,538.8 					"/>
				</g>
				<g>
					<polygon class="st5" points="433.1,550.3 432.3,549.9 452.3,538.4 453,538.8 					"/>
				</g>
				<g>
					<polygon class="st5" points="473.7,549.9 474.4,550.3 490,541.3 490,540.5 					"/>
				</g>
				<g>
					<polygon class="st5" points="164,562.3 163.2,561.9 183.2,550.3 184,550.8 					"/>
				</g>
				<g>
					<polygon class="st5" points="139.6,552.5 142.6,550.8 141.8,550.3 139.6,551.6 					"/>
				</g>
				<g>
					<polygon class="st5" points="205.4,562.3 204.6,561.9 224.6,550.3 225.3,550.8 					"/>
				</g>
				<g>
					<polygon class="st5" points="246.8,562.3 246,561.9 266,550.3 266.7,550.8 					"/>
				</g>
				<g>
					<polygon class="st5" points="288.1,562.3 287.4,561.9 307.4,550.3 308.1,550.8 					"/>
				</g>
				<g>
					<polygon class="st5" points="370.9,562.3 370.1,561.9 390.1,550.3 390.9,550.8 					"/>
				</g>
				<g>
					<polygon class="st5" points="453.7,562.3 452.9,561.9 472.9,550.3 473.7,550.8 					"/>
				</g>
				<g>
					<polygon class="st5" points="163.9,370.8 184.1,382.5 184.9,383 204.8,394.5 205.5,395 225.4,406.5 226.2,407 246,418.5 
						246.8,418.9 266.6,430.5 267.4,430.9 287.3,442.5 288,442.9 307.9,454.4 308.7,454.9 328.5,466.4 329.3,466.9 349.1,478.4 
						349.9,478.9 369.8,490.4 370.5,490.9 390.4,502.4 391.2,502.8 411,514.4 411.8,514.8 431.7,526.4 432.4,526.8 452.3,538.4 
						453,538.8 472.9,550.3 473.7,550.8 490,560.3 490,559.4 474.5,550.3 473.7,549.9 453.8,538.4 453.1,537.9 433.2,526.4 
						432.4,525.9 412.6,514.4 411.8,513.9 391.9,502.4 391.2,501.9 371.3,490.4 370.6,490 350.7,478.4 349.9,478 330.1,466.4 
						329.3,466 309.4,454.4 308.7,454 288.8,442.5 288,442 268.2,430.5 267.4,430 247.6,418.5 246.8,418 226.9,406.5 226.2,406.1 
						206.3,394.5 205.5,394.1 185.7,382.5 184.9,382.1 164.7,370.3 					"/>
				</g>
				<g>
					<polygon class="st5" points="184.6,574.3 183.8,573.9 203.8,562.3 204.6,562.8 					"/>
				</g>
				<g>
					<polygon class="st5" points="163.2,562.8 142.8,574.5 142.1,574.1 162.4,562.3 					"/>
				</g>
				<g>
					<polygon class="st5" points="226,574.3 225.2,573.9 245.2,562.3 246,562.8 					"/>
				</g>
				<g>
					<polygon class="st5" points="267.4,574.3 266.6,573.9 286.6,562.3 287.4,562.8 					"/>
				</g>
				<g>
					<polygon class="st5" points="308.8,574.3 308,573.9 328,562.3 328.8,562.8 					"/>
				</g>
				<g>
					<polygon class="st5" points="391.5,574.3 390.8,573.9 410.8,562.3 411.5,562.8 					"/>
				</g>
				<g>
					<polygon class="st5" points="211.2,582.9 225.2,574.8 224.4,574.3 209.6,582.9 					"/>
				</g>
				<g>
					<polygon class="st5" points="169.8,582.9 183.8,574.8 183.1,574.3 168.3,582.9 					"/>
				</g>
				<g>
					<polygon class="st5" points="252.6,582.9 266.6,574.8 265.8,574.3 251,582.9 					"/>
				</g>
				<g>
					<polygon class="st5" points="294,582.9 308,574.8 307.2,574.3 292.4,582.9 					"/>
				</g>
				<g>
					<polygon class="st5" points="335.3,582.9 349.4,574.8 348.6,574.3 333.8,582.9 					"/>
				</g>
				<g>
					<polygon class="st5" points="376.7,582.9 390.8,574.8 390,574.3 375.2,582.9 					"/>
				</g>
				<g>
					<polygon class="st5" points="323.5,582.9 308.8,574.3 308,573.9 288.1,562.3 287.4,561.9 267.5,550.3 266.7,549.9 246.9,538.4 
						246.1,537.9 226.3,526.4 225.5,525.9 205.6,514.4 204.9,513.9 185,502.4 184.2,501.9 164.4,490.4 163.6,490 143.8,478.4 
						143,478 139.6,476 139.6,476.9 142.2,478.4 143,478.9 162.8,490.4 163.6,490.9 183.5,502.4 184.2,502.8 204.1,514.4 
						204.9,514.8 224.7,526.4 225.5,526.8 245.3,538.4 246.1,538.8 266,550.3 266.7,550.8 286.6,562.3 287.4,562.8 307.2,574.3 
						308,574.8 321.9,582.9 					"/>
				</g>
			</g>
		</g>
	</g>
	<g>
		<polygon class="st7" points="473.4,331.2 473.8,460.5 468.3,463.6 466.3,401.9 468,334.4 		"/>
		<polygon class="st8" points="468,333.5 468.3,463.6 323.7,379.6 323.3,249.4 		"/>
		<polygon class="st9" points="328.8,246.4 473.4,331.2 468,334.4 323.3,249.4 		"/>
	</g>
	<g>
		<polygon class="st10" points="427.4,310.7 427.7,440 422.3,443.1 420.3,381.4 421.9,313.9 		"/>
		<polygon class="st11" points="421.9,313 422.3,443.1 355.7,404.3 355.3,274.2 		"/>
		<polygon class="st12" points="360.6,271.3 427.4,310.7 421.9,313.9 355.3,274.2 		"/>
	</g>
	<g class="st13">
		<polygon class="st14" points="355.5,416.2 398.1,440.8 398.1,434.5 355.5,409.9 		"/>
		<polygon class="st14" points="355.5,399.4 386.9,417.5 386.9,411.2 355.5,393.1 		"/>
		<polygon class="st14" points="355.5,407.8 404.9,436.3 404.9,430 355.5,401.5 		"/>
		<polygon class="st14" points="355.5,391 400.5,416.9 400.5,410.6 355.5,384.7 		"/>
		<polygon class="st14" points="355.5,374.2 402.8,401.4 402.8,395.1 355.5,367.9 		"/>
		<polygon class="st14" points="355.5,365.8 398.3,390.4 398.3,384.1 355.5,359.4 		"/>
		<polygon class="st14" points="355.5,382.6 414,416.3 414,410 355.5,376.3 		"/>
		<polygon class="st14" points="355.5,348.9 387,367.1 387.1,360.8 355.5,342.6 		"/>
		<polygon class="st14" points="355.5,315.3 366.9,321.8 366.9,315.5 355.5,309 		"/>
		<polygon class="st14" points="355.5,357.3 405.1,385.9 405.1,379.6 355.5,351 		"/>
		<polygon class="st14" points="355.5,340.5 400.6,366.5 400.6,360.2 355.5,334.2 		"/>
		<polygon class="st14" points="355.5,306.9 375.9,318.6 375.9,312.3 355.5,300.5 		"/>
		<polygon class="st14" points="355.5,323.7 402.9,351 402.9,344.7 355.5,317.4 		"/>
		<polygon class="st14" points="355.5,332.1 414.1,365.9 414.2,359.6 355.5,325.8 		"/>
		<polygon class="st14" points="355.5,290 389.5,309.6 389.5,303.3 355.5,283.7 		"/>
		<polygon class="st14" points="355.5,298.4 405.2,327.1 405.2,320.8 355.5,292.1 		"/>
		<polygon class="st14" points="355.5,281.6 394,303.8 394,297.5 355.5,275.3 		"/>
	</g>
	<g>
		<g>
			<g>
				<g>
					<polygon class="st15" points="327.2,401.6 327.2,422.3 329.5,423.6 329.9,411.6 329.5,403 					"/>
					<polygon class="st16" points="329.5,423.6 331.7,422.3 331.7,401.7 329.5,403 					"/>
				</g>
				<g>
					<polygon class="st17" points="345.8,412.4 345.8,444.1 348.1,445.4 348.5,422.4 348.1,413.8 					"/>
					<polygon class="st18" points="348.1,445.4 350.3,444.1 350.4,412.5 348.1,413.8 					"/>
				</g>
			</g>
			<g>
				<g>
					<polygon class="st17" points="313.1,409.9 313.1,441.6 315.4,442.9 315.8,419.8 315.4,411.2 					"/>
					<polygon class="st18" points="315.4,442.9 317.6,441.6 317.7,409.9 315.4,411.2 					"/>
				</g>
				<g>
					<polygon class="st17" points="331.8,420.7 331.7,452.4 334,453.7 334.4,430.6 334,422 					"/>
					<polygon class="st18" points="334,453.7 336.2,452.4 336.3,420.7 334,422 					"/>
				</g>
			</g>
			<polygon class="st19" points="331.7,421.4 329.9,420.3 329.9,421.7 331.7,422.8 			"/>
			<path class="st17" d="M352.2,406.3v0.1c0,0,0,0.1,0,0.2s-0.1,0.3-0.1,0.4v0.1c0,0.1,0,0.1,0,0.1c0,0.1,0,0.1,0,0.2
				s-0.1,0.2-0.1,0.3s-0.1,0.2-0.1,0.3l0,0l0,0c0,0.1-0.1,0.2-0.1,0.3s0,0.2-0.1,0.3c0,0-0.1,0.1-0.1,0.2l0,0l0,0
				c-0.1,0.1-0.1,0.2-0.2,0.3s-0.1,0.2-0.2,0.3l-0.1,0.1c0,0.1,0,0.1,0,0.1l-0.1,0.1c-0.1,0.1-0.2,0.2-0.3,0.3l-0.1,0.1l-0.1,0.1
				l-0.1,0.1c-0.1,0.1-0.2,0.2-0.3,0.3c-0.1,0.1-0.1,0.1-0.2,0.2c-0.2,0.1-0.4,0.3-0.6,0.4l-1.8-1.1c0.2-0.1,0.4-0.2,0.6-0.4
				c0.1-0.1,0.1-0.1,0.2-0.2c0.1-0.1,0.3-0.3,0.4-0.4l0.1-0.1c0.2-0.2,0.3-0.4,0.5-0.6c0-0.1,0-0.1,0-0.1c0.2-0.2,0.4-0.5,0.5-0.7
				l0,0c0.1-0.3,0.3-0.5,0.4-0.8l0,0c0.1-0.3,0.2-0.5,0.3-0.8c0-0.1,0-0.1,0-0.1c0.1-0.2,0.2-0.5,0.2-0.7v-0.1
				c0.1-0.3,0.1-0.5,0.1-0.8l1.8,1.1c0,0.3,0,0.5,0,0.7C352.6,406.1,352.6,406.2,352.2,406.3z"/>
			<polygon class="st17" points="352.6,386.5 350.8,385.5 350.8,404.4 352.6,405.4 			"/>
			<polygon class="st20" points="353.8,385.8 352,384.8 350.8,385.5 352.6,386.5 			"/>
			<polygon class="st20" points="349.3,411.2 331.7,421.4 329.9,420.3 347.5,410.2 			"/>
			<path class="st18" d="M353.9,404.7c0,2.9-2.1,6.4-4.6,7.9l-17.5,10.1v-1.4l17.5-10.1c1.9-1.1,3.4-3.7,3.4-5.8l-0.1-18.9l1.2-0.7
				L353.9,404.7z"/>
			<path class="st17" d="M336.5,398v0.1c0,0,0,0.1,0,0.2s-0.1,0.3-0.1,0.4v0.1c0,0.1,0,0.1,0,0.1c0,0.1,0,0.1,0,0.2
				s-0.1,0.2-0.1,0.3s-0.1,0.2-0.1,0.3l0,0l0,0c0,0.1-0.1,0.2-0.1,0.3s0,0.2-0.1,0.3c0,0-0.1,0.1-0.1,0.2l0,0l0,0
				c-0.1,0.1-0.1,0.2-0.2,0.3s-0.1,0.2-0.2,0.3l-0.1,0.1c0,0.1,0,0.1,0,0.1l-0.1,0.1c-0.1,0.1-0.2,0.2-0.3,0.3l-0.1,0.1l-0.1,0.1
				l-0.1,0.1c-0.1,0.1-0.2,0.2-0.3,0.3s-0.1,0.1-0.2,0.2c-0.2,0.1-0.4,0.3-0.6,0.4l-1.8-1.1c0.2-0.1,0.4-0.2,0.6-0.4
				c0.1-0.1,0.1-0.1,0.2-0.2c0.1-0.1,0.3-0.3,0.4-0.4l0.1-0.1c0.2-0.2,0.3-0.4,0.5-0.6c0-0.1,0-0.1,0-0.1c0.2-0.2,0.4-0.5,0.5-0.7
				l0,0c0.1-0.3,0.3-0.5,0.4-0.8l0,0c0.1-0.3,0.2-0.5,0.3-0.8c0-0.1,0-0.1,0-0.1c0.1-0.2,0.2-0.5,0.2-0.7v-0.1
				c0.1-0.3,0.1-0.5,0.1-0.8l1.8,1.1c0,0.3,0,0.5,0,0.7C336.9,397.8,336.9,397.9,336.5,398z"/>
			<polygon class="st17" points="336.9,378.2 335.1,377.2 335.2,396.1 337,397.1 			"/>
			<polygon class="st20" points="338.1,377.5 336.3,376.5 335.1,377.2 336.9,378.2 			"/>
			<polygon class="st20" points="333.6,402.9 316.1,413.1 314.3,412 331.8,401.9 			"/>
			<path class="st18" d="M338.2,396.4c0,2.9-2.1,6.4-4.6,7.9l-17.5,10.1V413l17.5-10.1c1.9-1.1,3.4-3.7,3.4-5.8l-0.1-18.9l1.2-0.7
				L338.2,396.4z"/>
			<g>
				<path class="st18" d="M351.9,415.6L351.9,415.6L351.9,415.6v0.1v0.1l0,0l0,0c-0.1,0-0.1,0.1-0.1,0.1c0,0.1,0,0.1,0,0.1l0,0l0,0
					l-0.1,0.1l0,0c0,0,0,0.1-0.1,0.1l-0.1,0.1l0,0l-17,9.9v-2.7l17-9.9l0.1-0.1l0.1-0.1c0.1-0.1,0.2-0.1,0.2-0.2l0,0
					c0-0.1,0.1-0.1,0.1-0.2l0,0c0-0.1,0-0.1,0-0.2L351.9,415.6z"/>
				<path class="st17" d="M334.4,423.5v2.7c-0.2,0.1-0.3,0.1-0.5,0.2c-0.1,0-0.1,0-0.2,0h-0.1h-0.1c-0.1,0-0.2,0-0.3,0
					c0,0-0.1,0-0.2,0h-0.1l0,0h-0.1c-0.1,0-0.1,0-0.2,0s-0.1,0-0.2,0s-0.1,0-0.2,0s-0.1,0-0.1,0l0,0H332c-0.1,0-0.2-0.1-0.3-0.1
					c-0.1,0-0.2,0-0.3-0.1l-19.7-11.4c-0.4-0.3-0.6-0.6-0.6-0.9v-2.7c0,0.3,0.2,0.7,0.6,0.9l19.7,11.4c0.2,0.2,0.4,0.2,0.7,0.3l0,0
					c0.3,0.1,0.5,0.1,0.8,0.1l0,0c0.2,0,0.5,0,0.7-0.1h0.1C334,423.8,334.2,423.7,334.4,423.5z"/>
				<path class="st21" d="M331.7,400.5c-0.8-0.5-2.2-0.5-3,0l-17,9.9c-0.8,0.5-0.8,1.3,0,1.8l19.7,11.4c0.8,0.5,2.2,0.5,3,0l17-9.9
					c0.8-0.5,0.8-1.3,0-1.8L331.7,400.5z"/>
			</g>
			<path class="st18" d="M357.8,388.3v10.6l0,0c0,0.1,0,0.1,0,0.1c0,0.1,0,0.1,0,0.1c0,0.1,0,0.1,0,0.1c0,0.1,0,0.1,0,0.1l0,0l0,0
				l0,0v0.1v0.1v0.1l0,0l0,0c-0.1,0-0.1,0.1-0.1,0.1l0,0c0,0.1-0.1,0.1-0.2,0.2l-2.4,1.4c0.1,0,0.1-0.1,0.2-0.2c0,0,0.1,0,0.1-0.1
				l0,0c0.1-0.1,0.1-0.2,0.1-0.3l0,0c0-0.1,0-0.2,0-0.3v-10.6L357.8,388.3z"/>
			<path class="st21" d="M354.2,387.1L354.2,387.1c-0.1-0.1-0.2-0.1-0.3-0.2l-19.7-11.4c-0.1,0-0.2-0.1-0.3-0.1l0,0
				c-0.1-0.1-0.2-0.1-0.3-0.1l0,0c-0.1,0-0.2,0-0.3,0l0,0c-0.1,0-0.1,0.1-0.2,0.1l2.4-1.4c0-0.1,0.1-0.1,0.1-0.1h0.1l0,0l0,0h0.1
				h0.1c0.1,0,0.1,0,0.1,0l0,0l0,0l0,0c0.1,0,0.1,0,0.1,0c0.1,0,0.1,0,0.1,0c0.1,0,0.1,0,0.1,0l0,0l0,0l0,0c0.1,0,0.1,0,0.1,0
				c0.1,0,0.1,0,0.1,0c0.1,0,0.1,0,0.1,0c0.1,0,0.1,0,0.1,0l0,0l19.7,11.4l0,0c0.1,0,0.1,0,0.1,0c0.1,0,0.1,0,0.1,0
				c0.1,0,0.1,0,0.1,0c0.1,0.1,0.1,0.1,0.1,0.1l0,0l0,0l0,0c0.1,0.1,0.1,0.1,0.1,0.1c0.1,0.1,0.1,0.1,0.1,0.1
				c0.1,0.1,0.1,0.1,0.1,0.1c0,0.1,0,0.1,0,0.1l0,0l0,0c0.1,0.1,0.1,0.1,0.1,0.1c0.1,0.1,0.1,0.1,0.1,0.1c0.1,0.1,0.1,0.1,0.1,0.1
				c0.1,0,0.1,0.1,0.1,0.1l0,0l0,0l0.1,0.1c0,0.1,0.1,0.1,0.1,0.2l0,0l0,0c0.1,0,0.1,0.1,0.1,0.1v0.1v0.1c0,0.1,0,0.1,0,0.1l0,0l0,0
				c0,0.1,0,0.1,0,0.1v0.1v0.1v0.1v0.1l0,0l0,0c0,0.1,0,0.1,0,0.1v0.1v0.1v0.1c0,0.1,0,0.1,0,0.1l0,0l0,0v0.1c0,0.1,0,0.1,0,0.1
				c0,0.1,0,0.1,0,0.1c0,0.1,0,0.1,0,0.1c0,0.1,0,0.1,0,0.1l-2.4,1.4c0-0.2,0-0.3,0-0.4l0,0c0-0.1-0.1-0.3-0.1-0.4l0,0
				c0-0.2,0-0.3-0.1-0.4l0,0c-0.1-0.2-0.1-0.3-0.2-0.4l0,0c0-0.1-0.1-0.2-0.2-0.3l0,0c-0.1-0.1-0.2-0.2-0.3-0.3l0,0
				C354.4,387.5,354.4,387.5,354.2,387.1z"/>
			<path class="st17" d="M355.4,389.8v10.6c0,1-0.7,1.4-1.5,0.9l-19.7-11.4c-0.8-0.5-1.5-1.6-1.5-2.6v-10.6c0-1,0.7-1.4,1.5-0.9
				l19.7,11.4C354.8,387.6,355.5,388.8,355.4,389.8z"/>
		</g>
		<g>
			<path class="st22" d="M348,356.6l-7.9,14.7l-5.6-0.6c3.3-4.5,0.2-15.4,4.3-21c0.9-1.3,2.9-1.7,5.7-1.5L348,356.6z"/>
			<path class="st23" d="M336.5,368.5c-1.3,0.8,1,3.5,5.2,5.9c4.2,2.5,8.7,3.8,10.1,3s-0.8-4.5-5-6.9
				C342.5,368.1,337.9,367.8,336.5,368.5z"/>
			<path class="st24" d="M339.5,363.4c0.3,2.6,0,4.3-0.9,7.1l-0.6,3.2l7.8-4c-1.1-3.5,0.5-6.4,0.8-7.7L339.5,363.4z"/>
			<path class="st25" d="M350.9,353.2l-1.9,8.3c-0.5,2.2-7,5-8.6,4.5c-0.8-0.2-1.5-0.9-2-2.3c-0.3-0.9-0.8-2.3-0.6-4
				c0.4-3.2-0.8-5.9,1.9-9.8L350.9,353.2z"/>
			<path class="st23" d="M339.3,372.4c-0.3-1.2-0.3-3-0.1-4c-1.2,0.3-2.7,0.2-3.3,0.8c-0.9,0.9-1.4,2.2-2.2,3.8
				c-1.4,2.7-3,5.3-3.3,7.5c-0.3,1.6,0,3.6,1.1,5.6c0.7,2.6,1.5,4.4,1.5,5.4c0,1.1,0.6,2.9-0.4,5.2c-3,6.8-3.5,11.3-2.6,14.5
				c3.1,11.1,21.9,1.5,15.9-14.1c-0.4-1-0.3-1.9-0.2-3c0.2-1.6,0.6-3.6,1.9-6.1c2.3-4.4,5.8-11.1,2.2-13.8c-1.4-1.1-3-1.8-3.8-3.2
				c-0.3-0.6,0.1-1.5-0.1-2.2C344,370.1,340.1,371.8,339.3,372.4z"/>
			<path class="st24" d="M319.3,409.1c-0.2,1.8-0.5,4.2-0.7,7.9c-0.4,6.4-3.5,12.2-6.2,23.1l-2.9-3.5c0.7-7.4,0.5-14.5,1.6-21.6
				C311.9,409.6,320,402.6,319.3,409.1z"/>
			<path class="st25" d="M326.1,413.3c-0.2,1.7-0.4,4-0.6,7.4c-0.4,6.4-3.5,12.2-6.2,23.1l-2.9-3.5c0.7-7.4,0.5-14.5,1.6-21.6
				c0.4-2.5-0.3-4.2,0.2-7.6C318.9,404.1,328.2,397.4,326.1,413.3z"/>
			<path class="st26" d="M333.1,391.1c0.3,3.4,0.1,5-1.4,7.2c-3,0.3-15,7.4-18.2,9.3c-1.9,1.1-2.5,2.9-3.3,4.8
				c2.8,2.3,9.6,5.9,15.3,8.5c6.3-4.6,14.5-3.6,18.7-7c3.1-2.5,3.6-7.8,3.5-11.1c0-0.8-0.3-2.7-0.5-3.5
				C345,398.1,334.9,393.5,333.1,391.1z"/>
			<path class="st23" d="M345.5,371.5c-22,23.1-12,18.7-10.2,26.7c3.3,2.3,11.3,8.9,12.7,7.4c0.1-3.6-1.4-7.8-1.9-10.8
				c-0.2-1.6,0.7-4,1.9-6.8c1.9-4.6,5.4-11.2,1.8-13.9c-1.5-1.1-1.8-1.7-3.5-3C346,371.4,345.9,371,345.5,371.5z"/>
			<path class="st27" d="M349.7,374.7c1.5,0,2.7,1.5,3.1,3.5c0.8,4.7,0.2,12.5-0.1,17.8c0,0.3-0.8,0.9-0.8,1.1l-3.8-0.8
				c-0.9-5-3.2-15.5-1.2-19.8C347.3,375.6,348.6,374.8,349.7,374.7z"/>
			<path class="st27" d="M346.4,370.9c-2.8,1.8-4.8,2.3-7.3,4.5l0.1-3.1c2.3-1.5,4.5-2.1,6.9-3.5L346.4,370.9z"/>
			<path class="st22" d="M338.8,350.7c0.8-2.2,3-3,4.5-3.1c6.9-1,9.7,3.9,9.5,9.2c-0.3,9.6-2.7,15.7-9.8,15.4c1-1.6,2.1-6.8,4-9.4
				c0.4-0.2,0.6,0.5,1,0c0.5-0.6,0.7-1.8,0.9-2.5c0.2-0.8,0.1-1.5-0.6-1.7c-0.5-0.1-1.5,0.1-1.6,1.9
				C345.2,356.6,337.1,355.5,338.8,350.7z"/>
			<path class="st23" d="M336.1,399.6c-0.8-12-3.6-12.3-0.3-23c1.2-4,2.5-8.3,2.3-8.3c-0.9,0.1-1.6,0.1-2,0.5
				c-0.9,0.9-2,2.5-2.8,4.1c-1.4,2.7-2.8,5.3-3.1,7.5c-0.2,1.6,0.2,3.9,1.3,5.9c0.8,3.3,2.3,7.3,0.8,10.7
				C333.7,398.3,334.5,398.7,336.1,399.6z"/>
			<path class="st26" d="M310.6,412.1c-1.4,0.8,0.9,3.4,5.1,5.8c4.1,2.4,8.6,3.7,10,2.9c1.4-0.8-0.9-3.4-5.1-5.8
				C316.4,412.6,311.9,411.3,310.6,412.1z"/>
			<g>
				<path class="st25" d="M321.2,435.4c-0.2,1.6-0.7,3.4,0.2,4.8c1.9,3.2-0.2,2.5-0.6,6.5c-0.1,0.4-2.4,6.2-2.4,6.2s-3.7,0.6-4,0.5
					s-2.4-1.3-2.4-1.3c1-1.4,1.5-2.4,1.9-3.2c0.9-1.9,2.8-10,3.2-12.4L321.2,435.4z"/>
				<path class="st28" d="M316,451.1c3.2-1.1,4.6-8.2,5.6-11.2c0.8,1.4,2,2.6,1.6,4.3c-0.1,0.4-0.5,1-0.7,1.7
					c-0.6,1.7-1.2,4.1-1.6,6.1h-0.5l0.6-5.7c-0.8,2.3-1.8,4.3-2.4,6.6c-1,1-3.2,1.8-4.3,1.7c-0.8-0.1-3-0.4-3-1.5
					c0-0.8,0.8-1.1,1.6-2.5C313.4,451.2,314.8,451.7,316,451.1z"/>
			</g>
			<g>
				<path class="st24" d="M314.4,431.3c-0.2,1.6-0.7,3.4,0.2,4.8c1.9,3.2-0.2,2.5-0.6,6.5c-0.1,0.4-2.4,6.2-2.4,6.2s-3.7,0.6-4,0.5
					s-2.4-1.3-2.4-1.3c1-1.4,1.5-2.4,1.9-3.2c0.9-1.9,2.8-10,3.2-12.4L314.4,431.3z"/>
				<path class="st29" d="M309.3,447c3.2-1.1,4.6-8.2,5.6-11.2c0.8,1.4,2,2.6,1.6,4.3c-0.1,0.4-0.5,1-0.7,1.7
					c-0.6,1.7-1.2,4.1-1.6,6.1h-0.5l0.6-5.7c-0.8,2.3-1.8,4.3-2.4,6.6c-1,1-3.2,1.8-4.3,1.7c-0.8-0.1-3-0.4-3-1.5
					c0-0.8,0.8-1.1,1.6-2.5C306.6,447,308,447.5,309.3,447z"/>
			</g>
			<path class="st27" d="M337.9,368.5c-0.6,2.3-0.8,3.2-1.1,5.6c0.8-0.5,1.6-1.2,2.4-1.7c-0.1-2.2,0.1-3.7,0.2-4.5L337.9,368.5z"/>
		</g>
	</g>
	<g>
		<g>
			<g>
				<g>
					<polygon class="st15" points="360.9,421.4 360.8,442.1 363.1,443.4 363.5,431.4 363.1,422.7 					"/>
					<polygon class="st16" points="363.1,443.4 365.3,442.1 365.4,421.4 363.1,422.7 					"/>
				</g>
				<g>
					<polygon class="st17" points="379.5,432.2 379.4,463.9 381.7,465.2 382.2,442.2 381.8,433.5 					"/>
					<polygon class="st18" points="381.7,465.2 384,463.9 384,432.2 381.8,433.5 					"/>
				</g>
			</g>
			<g>
				<g>
					<polygon class="st17" points="346.8,429.7 346.7,461.3 349,462.7 349.5,439.6 349.1,431 					"/>
					<polygon class="st18" points="349,462.7 351.3,461.4 351.3,429.7 349.1,431 					"/>
				</g>
				<g>
					<polygon class="st17" points="365.4,440.5 365.4,472.1 367.6,473.5 368.1,450.4 367.7,441.8 					"/>
					<polygon class="st18" points="367.6,473.5 369.9,472.2 369.9,440.5 367.7,441.8 					"/>
				</g>
			</g>
			<polygon class="st19" points="365.4,441.1 363.6,440.1 363.6,441.5 365.4,442.5 			"/>
			<path class="st17" d="M385.8,426.1v0.1c0,0,0,0.1,0,0.2c0,0.1-0.1,0.3-0.1,0.4v0.1c0,0.1,0,0.1,0,0.1c0,0.1,0,0.1,0,0.2
				s-0.1,0.2-0.1,0.3s-0.1,0.2-0.1,0.3l0,0l0,0c0,0.1-0.1,0.2-0.1,0.3s0,0.2-0.1,0.3c0,0-0.1,0.1-0.1,0.2l0,0l0,0
				c-0.1,0.1-0.1,0.2-0.2,0.3c-0.1,0.1-0.1,0.2-0.2,0.3l-0.1,0.1c0,0.1,0,0.1,0,0.1l-0.1,0.1c-0.1,0.1-0.2,0.2-0.3,0.3l-0.1,0.1
				l-0.1,0.1l-0.1,0.1c-0.1,0.1-0.2,0.2-0.3,0.3c-0.1,0.1-0.1,0.1-0.2,0.2c-0.2,0.1-0.4,0.3-0.6,0.4l-1.8-1.1
				c0.2-0.1,0.4-0.2,0.6-0.4c0.1-0.1,0.1-0.1,0.2-0.2s0.3-0.3,0.4-0.4l0.1-0.1c0.2-0.2,0.3-0.4,0.5-0.6c0-0.1,0-0.1,0-0.1
				c0.2-0.2,0.4-0.5,0.5-0.7l0,0c0.1-0.3,0.3-0.5,0.4-0.8l0,0c0.1-0.3,0.2-0.5,0.3-0.8c0-0.1,0-0.1,0-0.1c0.1-0.2,0.2-0.5,0.2-0.7
				v-0.1c0.1-0.3,0.1-0.5,0.1-0.8l1.8,1.1c0,0.3,0,0.5,0,0.7C386.2,425.9,386.2,425.9,385.8,426.1z"/>
			<polygon class="st17" points="386.2,406.3 384.4,405.2 384.4,424.1 386.3,425.2 			"/>
			<polygon class="st20" points="387.4,405.6 385.6,404.5 384.4,405.2 386.2,406.3 			"/>
			<polygon class="st20" points="382.9,431 365.4,441.1 363.6,440.1 381.1,430 			"/>
			<path class="st18" d="M387.5,424.5c0,2.9-2.1,6.4-4.6,7.9l-17.5,10.1v-1.4l17.5-10.1c1.9-1.1,3.4-3.7,3.4-5.8l-0.1-18.9l1.2-0.7
				L387.5,424.5z"/>
			<path class="st17" d="M370.2,417.8v0.1c0,0,0,0.1,0,0.2s-0.1,0.3-0.1,0.4v0.1c0,0.1,0,0.1,0,0.1c0,0.1,0,0.1,0,0.2
				s-0.1,0.2-0.1,0.3s-0.1,0.2-0.1,0.3l0,0l0,0c0,0.1-0.1,0.2-0.1,0.3s0,0.2-0.1,0.3c0,0-0.1,0.1-0.1,0.2l0,0l0,0
				c-0.1,0.1-0.1,0.2-0.2,0.3s-0.1,0.2-0.2,0.3l-0.1,0.1c0,0.1,0,0.1,0,0.1l-0.1,0.1c-0.1,0.1-0.2,0.2-0.3,0.3l-0.1,0.1l-0.1,0.1
				l-0.1,0.1c-0.1,0.1-0.2,0.2-0.3,0.3c-0.1,0.1-0.1,0.1-0.2,0.2c-0.2,0.1-0.4,0.3-0.6,0.4l-1.8-1.1c0.2-0.1,0.4-0.2,0.6-0.4
				c0.1-0.1,0.1-0.1,0.2-0.2c0.1-0.1,0.3-0.3,0.4-0.4l0.1-0.1c0.2-0.2,0.3-0.4,0.5-0.6c0-0.1,0-0.1,0-0.1c0.2-0.2,0.4-0.5,0.5-0.7
				l0,0c0.1-0.3,0.3-0.5,0.4-0.8l0,0c0.1-0.3,0.2-0.5,0.3-0.8c0-0.1,0-0.1,0-0.1c0.1-0.2,0.2-0.5,0.2-0.7v-0.1
				c0.1-0.3,0.1-0.5,0.1-0.8l1.8,1.1c0,0.3,0,0.5,0,0.7C370.6,417.6,370.6,417.6,370.2,417.8z"/>
			<polygon class="st17" points="370.6,398 368.7,396.9 368.8,415.8 370.6,416.9 			"/>
			<polygon class="st20" points="371.8,397.3 370,396.2 368.7,396.9 370.6,398 			"/>
			<polygon class="st20" points="367.2,422.7 349.7,432.8 347.9,431.8 365.4,421.7 			"/>
			<path class="st18" d="M371.9,416.2c0,2.9-2.1,6.4-4.6,7.9l-17.5,10.1v-1.4l17.5-10.1c1.9-1.1,3.4-3.7,3.4-5.8l-0.1-18.9l1.2-0.7
				L371.9,416.2z"/>
			<g>
				<path class="st18" d="M385.5,435.4L385.5,435.4L385.5,435.4v0.1v0.1l0,0l0,0c-0.1,0-0.1,0.1-0.1,0.1c0,0.1,0,0.1,0,0.1l0,0l0,0
					c0,0,0,0.1-0.1,0.1l0,0c0,0,0,0.1-0.1,0.1l-0.1,0.1l0,0l-17,9.9v-2.7l17-9.9l0.1-0.1l0.1-0.1c0.1-0.1,0.2-0.1,0.2-0.2l0,0
					c0-0.1,0.1-0.1,0.1-0.2l0,0c0-0.1,0-0.1,0-0.2L385.5,435.4z"/>
				<path class="st17" d="M368,443.4v2.7c-0.2,0.1-0.3,0.1-0.5,0.2c-0.1,0-0.1,0-0.2,0h-0.1h-0.1c-0.1,0-0.2,0-0.3,0
					c0,0-0.1,0-0.2,0h-0.1l0,0h-0.1c-0.1,0-0.1,0-0.2,0c-0.1,0-0.1,0-0.2,0s-0.1,0-0.2,0s-0.1,0-0.1,0l0,0h-0.1
					c-0.1,0-0.2-0.1-0.3-0.1s-0.2,0-0.3-0.1l-19.6-11.5c-0.4-0.3-0.6-0.6-0.6-0.9V431c0,0.3,0.2,0.7,0.6,0.9l19.7,11.4
					c0.2,0.2,0.4,0.2,0.7,0.3l0,0c0.3,0.1,0.5,0.1,0.8,0.1l0,0c0.2,0,0.5,0,0.7-0.1h0.1C367.6,443.5,367.8,443.5,368,443.4z"/>
				<path class="st21" d="M365.3,420.3c-0.8-0.5-2.2-0.5-3,0l-17,9.9c-0.8,0.5-0.8,1.3,0,1.8l19.7,11.4c0.8,0.5,2.2,0.5,3,0l17-9.9
					c0.8-0.5,0.8-1.3,0-1.8L365.3,420.3z"/>
			</g>
			<path class="st18" d="M391.4,408.1v10.6l0,0c0,0.1,0,0.1,0,0.1c0,0.1,0,0.1,0,0.1c0,0.1,0,0.1,0,0.1c0,0.1,0,0.1,0,0.1l0,0l0,0
				l0,0v0.1v0.1v0.1l0,0l0,0c-0.1,0-0.1,0.1-0.1,0.1l0,0c0,0.1-0.1,0.1-0.2,0.2l-2.4,1.4c0.1,0,0.1-0.1,0.2-0.2c0,0,0.1,0,0.1-0.1
				l0,0c0.1-0.1,0.1-0.2,0.1-0.3l0,0c0-0.1,0-0.2,0-0.3v-10.6L391.4,408.1z"/>
			<path class="st21" d="M387.9,406.9L387.9,406.9c-0.1-0.1-0.2-0.1-0.3-0.2l-19.7-11.4c-0.1,0-0.2-0.1-0.3-0.1l0,0
				c-0.1-0.1-0.2-0.1-0.3-0.1l0,0c-0.1,0-0.2,0-0.3,0l0,0c-0.1,0-0.1,0.1-0.2,0.1l2.4-1.4c0-0.1,0.1-0.1,0.1-0.1h0.1l0,0l0,0h0.1
				h0.1c0.1,0,0.1,0,0.1,0l0,0l0,0l0,0c0.1,0,0.1,0,0.1,0c0.1,0,0.1,0,0.1,0c0.1,0,0.1,0,0.1,0l0,0l0,0l0,0c0.1,0,0.1,0,0.1,0
				c0.1,0,0.1,0,0.1,0c0.1,0,0.1,0,0.1,0c0.1,0,0.1,0,0.1,0l0,0l19.7,11.4l0,0c0.1,0,0.1,0,0.1,0c0.1,0,0.1,0,0.1,0
				c0.1,0,0.1,0,0.1,0c0.1,0.1,0.1,0.1,0.1,0.1l0,0l0,0l0,0c0.1,0.1,0.1,0.1,0.1,0.1c0.1,0.1,0.1,0.1,0.1,0.1
				c0.1,0.1,0.1,0.1,0.1,0.1c0,0.1,0,0.1,0,0.1l0,0l0,0c0.1,0.1,0.1,0.1,0.1,0.1c0.1,0.1,0.1,0.1,0.1,0.1c0.1,0.1,0.1,0.1,0.1,0.1
				c0.1,0,0.1,0.1,0.1,0.1l0,0l0,0l0.1,0.1c0,0.1,0.1,0.1,0.1,0.2l0,0l0,0c0.1,0,0.1,0.1,0.1,0.1v0.1v0.1c0,0.1,0,0.1,0,0.1l0,0l0,0
				c0,0.1,0,0.1,0,0.1v0.1v0.1v0.1v0.1l0,0l0,0c0,0.1,0,0.1,0,0.1v0.1v0.1v0.1c0,0.1,0,0.1,0,0.1l0,0l0,0v0.1c0,0.1,0,0.1,0,0.1v0.1
				c0,0.1,0,0.1,0,0.1c0,0.1,0,0.1,0,0.1l-2.4,1.4c0-0.2,0-0.3,0-0.4l0,0c0-0.1-0.1-0.3-0.1-0.4l0,0c0-0.2,0-0.3-0.1-0.4l0,0
				c-0.1-0.2-0.1-0.3-0.2-0.4l0,0c0-0.1-0.1-0.2-0.2-0.3l0,0c-0.1-0.1-0.2-0.2-0.3-0.3l0,0C388.1,407.3,388,407.2,387.9,406.9z"/>
			<path class="st17" d="M389.1,409.5v10.6c0,1-0.7,1.4-1.5,0.9l-19.7-11.4c-0.8-0.5-1.5-1.6-1.5-2.6v-10.6c0-1,0.7-1.4,1.5-0.9
				l19.7,11.4C388.4,407.4,389.1,408.6,389.1,409.5z"/>
		</g>
		<path d="M351.2,464.9l3-0.4c1.1,1.9,1.5,2,1.6,4.2l-0.2,2.5l-3,1.7l-0.2-0.6c-2.3,2-4.5,4.2-7.5,4.9c-1.4,0.4-3.5,0.6-4.7,0
			c-1.1-0.6-1.3-1.3-1-2c0.4-1,1.9-1.4,2.7-2.3c1.1-1.1,2.1-2.2,3-3.2c1-1.3,1.9-2.6,2.9-4.2L351.2,464.9z"/>
		<path class="st30" d="M360.9,379.8c-2.1,1.3,1.5,5.3,8,9.1c6.6,3.8,13.9,5.7,16,4.5c1.5-2.3-2.4-8.4-10-12.3
			C367.3,377.2,362.7,379.2,360.9,379.8z"/>
		<path class="st30" d="M355.6,398.6c2-7.5,1.3-17.5,6.1-18.9c1.1-0.3,2.5,4.8,4.6,5.7l-3.4,16c-0.5,3.3-0.9,4.8-4.5,4.2l-17.4-1.8
			c-0.6-0.6-0.8-5.1,0-5.5C344.9,398.8,351.7,398.2,355.6,398.6z"/>
		<path class="st24" d="M366,378.6c0.2,1.8,0.3,3.5,0.4,5.3l2.7,0.5l4.6-1.9c-0.3-2.7-0.3-4.1,0-6.9L366,378.6z"/>
		<path class="st31" d="M355.8,424.1c-1.6,0.3-9,5.3-10.8,8.5c0,11.2,0.2,24,0.5,36l0,0c0,0.1,0.1,0.2,0.2,0.3
			c0.9,0.5,3.7-0.3,6.3-1.8c2.2-1.3,3.6-2.7,3.4-3.4l0.7-21.4l-1.3-7.3L355.8,424.1z"/>
		<path class="st31" d="M370.5,424.7c-6.5,5.2-11.8,10.3-18.9,12.4c-2.5,0.8-7.2-0.7-6.5-5.7c0.1-0.6,0.2-1.4,0.7-1.9
			c3.1-3.1,12.4-8.7,17.7-10.8L370.5,424.7z"/>
		<path class="st30" d="M367.5,383.2l1.1,1.1l5.5-2.7l0.9,1.2l0.6,44.9c-2.6,0.7-14.2-5.9-13.4-9l-1.1-20.2
			c0.9-4.6,1.4-15.1,5.1-17.9L367.5,383.2z"/>
		<g>
			<path class="st32" d="M374.6,382.2c-0.7,1.5-1.2,2.9-4.8,5.4l-1.2-3.3c1.5-0.7,3.7-1.6,4.9-4.3L374.6,382.2z"/>
			<path class="st33" d="M368.5,384.7l-1.2,2.2v0.6l0.6,0.9l-1.8,2.2c-1,6.9-0.7,14,0.1,20.6c0.3-7.2,0.9-13.4,3.1-19.7l-0.9-2.8
				l1.1-0.6l0.1-0.6l-0.9-2.7L368.5,384.7z"/>
			<path class="st32" d="M365.9,382.1c-0.4,2.1-0.2,2.8,1,5c0.6-0.9,1.1-1.9,1.7-2.8c-1.2-1.5-2-2.2-2.4-3.7L365.9,382.1z"/>
		</g>
		<path class="st34" d="M380.4,427.3c1.4,4.6-2.1,6.8-4.3,8.3c-5.2,3.6-12.5,7.4-17.6,8.9c-2.5,0.8-7.3-1.4-6.6-6.4
			c0.1-0.6,0.3-1.3,0.7-1.9c2.8-4.1,14-10,19.3-12.1L380.4,427.3z"/>
		<path class="st30" d="M365.3,409.8c0.5,4.8-0.9,10.9-2.3,14.8c-1-0.7-4.6-3.5-4.2-5.3c0.5-2.1,0.9-3.2,0.7-7.8
			c-0.2-4.3-2.8-16.3-1.7-24.4c0.4-2.8,1.5-6,3-7c1.2-0.9,2.9,0.6,5.3,0.5C362.8,387.8,364.5,401.1,365.3,409.8z"/>
		<path class="st30" d="M385.1,391.5c-0.6-1.4-3.3-3.8-5.9-5.6c-1.7-1.1-3.5-2.2-4.2-3.3c-0.3-0.4,0,1.1-0.1,0.7l-0.1,0.3
			c-3,4.2-4.3,7.3-5.7,11.7c-2.3,7.4-3.1,27-2.8,31.4c2.9,2.2,14.9,6.8,14.9,3.3C380.1,418.4,386.7,395.5,385.1,391.5z"/>
		<g>
			<path class="st25" d="M365.3,364.1c1.9-0.6,5.4,0.3,9.4,1.6l0.5,6.7l-1.1,3.3c-0.5,2.4-0.4,2.9-2.4,3.9c-0.9,0.4-3.4,1.8-4.6,2
				c-0.6,0.1-1.7-0.1-2.2-0.4c-0.4-0.3-1-1.8-1.4-3c-1.3-4.1-1.1-3.8-1.1-6.3C362.3,367,363.3,364.7,365.3,364.1z"/>
			<path class="st35" d="M362.2,368c-0.2,2.8,8.2,1.4,8.3,1.4c0.9,3.2,0.5,3.6,0.5,5.1c0.8-2.6,2.3-2.6,2.8-2.3
				c0.8,0.6-0.1,2.6,0,4.6c2.6-3.8,5.8-12.2,0.1-13.8C371,360.2,362.6,361.1,362.2,368z"/>
		</g>
		<path class="st36" d="M358.7,469.2l3-0.4c1.1,1.9,1.5,2.1,1.6,4.2l-0.2,2.5l-3,1.7l-0.2-0.6c-2.3,2-4.5,4.2-7.5,4.9
			c-1.4,0.4-3.5,0.6-4.7,0c-1.1-0.6-1.3-1.3-1-2c0.4-1,1.9-1.4,2.7-2.3c1.1-1.1,2.1-2.2,3-3.2c1-1.3,1.9-2.6,2.9-4.2L358.7,469.2z"
			/>
		<path class="st34" d="M362.8,429c-1.6,0.2-9.1,6.4-10.9,9.6c0,11.2,0.2,22.9,0.5,34.9l0,0c0,0.1,0.1,0.2,0.2,0.3
			c0.9,0.5,3.7-0.3,6.3-1.8c2.2-1.3,3.6-2.7,3.4-3.4l0.7-21.4l-1.3-7.3L362.8,429z"/>
	</g>
	<g>
		<path class="st37" d="M326.5,468.1L326.5,468.1L326.5,468.1c0-0.6,0-1.2,0.1-1.8c0.1-0.6,0.2-1.1,0.4-1.7c0.3-0.7,0.4-1.5,0.4-2.3
			l-0.2-72.6l0,0l0,0c0,0.4,0,0.8-0.1,1.2c-0.1,0.4-0.2,0.8-0.3,1.2c-0.4,1.1-0.6,2.3-0.6,3.5L326.5,468.1z"/>
		<path class="st38" d="M286.6,395.7l0.2,59.9c0,0.3,0,0.5,0,0.7c0.1,4.6,1.7,9.3,3.9,13.3c11,19.9,39.1,30.9,58.4,34.9
			c13.7,2.8,39.9,5.1,50.7-1.1c3.7-2.2,5.9-5.1,5.9-8.2c-0.1-24.1-0.2-59.9-0.2-59.9C371.6,439.2,305.8,419.3,286.6,395.7z"/>
		<g>
			<path class="st39" d="M289.9,411c4.4,7.2,11.9,14.3,22.4,20.4c10.4,6.1,22.7,10.5,35.2,13.1c13.6,2.8,27.7,3.5,40.6,2
				c4-0.4,7.4-1.6,10.1-3.1c4.6-2.6,6.8-6.5,5.5-10.4c-2.1-6.2-12.6-10.2-23.3-9c-5.8,0.7-12.5,0.3-19.3-1.1
				c-7.1-1.4-14.2-4-20.5-7.7c-6.3-3.6-10.8-7.8-13.3-11.9c-2.4-3.9-3-7.8-1.8-11.2c2.2-6.2-4.7-12.3-15.4-13.5
				c-6.8-0.8-13.4,0.5-18,3.1c-2.6,1.5-4.6,3.5-5.4,5.8C284,395,285.2,403.2,289.9,411z"/>
			<path class="st7" d="M328.4,382.9v9.1c0-1.5,0.2-2.9,0.7-4.2c0.3-0.9,0.5-1.9,0.5-2.8v-9.1c0,0.2,0,0.5,0,0.7
				c-0.1,0.7-0.2,1.4-0.5,2.1C328.6,380.1,328.4,381.5,328.4,382.9z"/>
			<path class="st7" d="M281.6,391.6L281.6,391.6c0,0.3,0,0.5,0,0.8c0,0.2,0,0.4,0,0.6c0,0.5,0.1,1,0.1,1.5c0,0.3,0.1,0.7,0.1,1
				c0,0.5,0.1,1,0.2,1.5c0,0.2,0.1,0.4,0.1,0.6c0,0.1,0.1,0.3,0.1,0.4c0.1,0.5,0.3,1.1,0.4,1.6c0,0.3,0.1,0.6,0.2,0.9
				c0.1,0.7,0.4,1.3,0.6,2c0.1,0.2,0.1,0.3,0.2,0.5v0.1c0,0,0.1,0.1,0.1,0.2c0.3,0.6,0.5,1.3,0.8,1.9c0.1,0.1,0.1,0.3,0.2,0.4
				c0.3,0.7,0.7,1.3,1,2c0.1,0.1,0.1,0.3,0.2,0.4c0.1,0.2,0.3,0.5,0.4,0.7c0.3,0.4,0.5,0.9,0.8,1.3c0.5,0.7,1,1.5,1.5,2.2
				c0.2,0.2,0.3,0.3,0.4,0.5c0.5,0.7,1,1.5,1.6,2.2c0,0.1,0,0.1,0,0.1c0.1,0.2,0.2,0.3,0.3,0.4c0.4,0.4,0.7,0.9,1.1,1.3
				c0.1,0.2,0.3,0.4,0.5,0.6c0.3,0.3,0.7,0.7,1,1.1c0.2,0.3,0.4,0.5,0.6,0.7c0.4,0.4,0.7,0.7,1.1,1.1c0.2,0.2,0.4,0.4,0.6,0.6
				c0.4,0.4,0.9,0.8,1.3,1.2c0.1,0.1,0.3,0.3,0.4,0.4l0.1,0.1c0.2,0.2,0.4,0.4,0.6,0.6c0.3,0.3,0.7,0.6,1,0.9
				c0.2,0.2,0.5,0.4,0.7,0.6c0.3,0.2,0.7,0.5,1,0.8c0.3,0.2,0.5,0.4,0.8,0.6c0.3,0.3,0.6,0.5,1,0.8c0.3,0.2,0.5,0.4,0.8,0.6
				c0.4,0.3,0.7,0.5,1.1,0.8c0.3,0.2,0.6,0.4,0.9,0.6c0.4,0.3,0.7,0.5,1.1,0.8c0.3,0.2,0.6,0.4,0.9,0.6c0.4,0.3,0.8,0.5,1.2,0.8
				c0.3,0.2,0.6,0.4,0.9,0.6c0.4,0.3,0.8,0.5,1.2,0.8c0.3,0.2,0.6,0.4,0.9,0.6c0.1,0.1,0.2,0.1,0.3,0.2c0.6,0.3,1.1,0.7,1.7,1
				c1.3,0.8,2.8,1.5,4.2,2.3c0.4,0.2,0.7,0.3,1,0.5c1.4,0.7,2.8,1.4,4.3,2.1c0.2,0.1,0.4,0.2,0.6,0.3c1.4,0.6,2.7,1.2,4.1,1.8
				c0.3,0.1,0.6,0.3,0.9,0.4c1.5,0.6,3,1.2,4.5,1.8c0.4,0.1,0.7,0.2,1,0.3c1.4,0.5,2.8,1,4.2,1.5c0.2,0,0.5,0.1,0.7,0.2
				c0.1,0,0.2,0.1,0.3,0.1c1.5,0.5,3,1,4.5,1.4c0.5,0.1,0.9,0.2,1.3,0.3c1.2,0.3,2.5,0.7,3.8,1c0.5,0.2,0.9,0.3,1.4,0.4
				c1.7,0.4,3.3,0.8,5,1.1c1.3,0.3,2.6,0.6,3.9,0.8c0.6,0.1,1.1,0.2,1.7,0.3c0.2,0,0.4,0.1,0.7,0.1c1.8,0.3,3.6,0.6,5.4,0.8
				c0.3,0,0.5,0.1,0.8,0.1c1.4,0.2,2.7,0.4,4.1,0.5c0.3,0.1,0.6,0.1,0.9,0.1c0.7,0.1,1.4,0.1,2.1,0.2c1.2,0.1,2.5,0.2,3.7,0.3
				c0.7,0,1.4,0.1,2.1,0.1c0.4,0,0.9,0.1,1.4,0.1c0.9,0.1,1.8,0.1,2.7,0.1c0.5,0,0.9,0,1.3,0c1.6,0,3.3,0,4.9,0c0.2,0,0.3,0,0.5,0
				c0.3,0,0.7,0,1,0c1.5,0,2.9-0.1,4.4-0.2c0.4,0,0.9-0.1,1.3-0.1c0.3-0.1,0.6-0.1,0.9-0.1c1.5-0.1,3-0.2,4.5-0.4
				c0.4,0,0.7-0.1,1-0.1c0.1-0.1,0.2-0.1,0.3-0.1c0.7-0.1,1.3-0.2,1.9-0.3c0.1,0,0.1,0,0.2,0l0,0c0.8-0.1,1.5-0.3,2.2-0.5
				c0-0.1,0.1-0.1,0.2-0.1c0.1,0,0.3-0.1,0.4-0.1c0.2-0.1,0.5-0.1,0.7-0.2c0.3-0.1,0.5-0.2,0.8-0.3c0.3,0,0.5-0.1,0.7-0.2
				c0.1,0,0.2-0.1,0.3-0.1s0.2-0.1,0.3-0.1c0.4-0.2,0.8-0.3,1.2-0.5c0.2-0.1,0.3-0.1,0.5-0.2c0.5-0.3,1-0.5,1.5-0.8
				c4.4-2.5,7-6,7-9.7V430c0,3.7-2.6,7.2-7,9.7c-0.5,0.3-1,0.6-1.5,0.8c-0.2,0.1-0.3,0.1-0.5,0.2c-0.4,0.2-0.8,0.3-1.2,0.5
				c-0.2,0-0.4,0.1-0.6,0.2c-0.3,0-0.5,0.1-0.7,0.2c-0.3,0.1-0.5,0.2-0.8,0.3c-0.2,0.1-0.5,0.1-0.7,0.2c-0.3,0.1-0.5,0.1-0.7,0.2
				c-0.7,0.2-1.4,0.3-2.2,0.5c-0.1,0-0.2,0-0.3,0c-0.6,0.1-1.3,0.2-1.9,0.3c-0.5,0.1-0.9,0.1-1.3,0.2c-1.7,0.2-3.5,0.4-5.3,0.5
				c-0.4,0-0.9,0.1-1.3,0.1c-1.4,0.1-2.9,0.1-4.4,0.2c-0.3,0-0.7,0-1,0c-1.8,0.1-3.6,0.1-5.4,0.1c-0.5,0-0.9,0-1.3,0
				c-1.4,0-2.7,0-4.1-0.1c-0.7,0-1.4-0.1-2.1-0.1c-1.2-0.1-2.5-0.2-3.7-0.3c-0.7-0.1-1.4-0.1-2.1-0.2c-1.6-0.1-3.3-0.3-5-0.5
				c-0.3,0-0.5-0.1-0.8-0.1c-1.8-0.2-3.6-0.5-5.4-0.8c-0.2,0-0.5-0.1-0.7-0.1c-1.8-0.4-3.7-0.7-5.6-1.1c-1.7-0.3-3.3-0.7-5-1.1
				c-0.5-0.2-0.9-0.3-1.4-0.4c-1.3-0.3-2.5-0.6-3.8-1c-0.5-0.1-0.9-0.2-1.3-0.3c-1.7-0.5-3.3-1-4.9-1.5c-0.2,0-0.5-0.1-0.7-0.2
				c-1.4-0.5-2.8-1-4.2-1.5c-0.4-0.1-0.7-0.2-1-0.3c-1.5-0.6-3-1.2-4.5-1.8c-0.3-0.1-0.6-0.3-0.9-0.4c-1.4-0.6-2.8-1.2-4.1-1.8
				c-0.2-0.1-0.4-0.2-0.6-0.3c-1.4-0.7-2.9-1.4-4.3-2.1c-0.4-0.2-0.7-0.3-1-0.5c-1.4-0.7-2.8-1.5-4.2-2.3c-0.7-0.4-1.3-0.8-2-1.2
				c-0.3-0.2-0.6-0.4-0.9-0.6c-0.4-0.3-0.8-0.5-1.2-0.8c-0.3-0.2-0.6-0.4-0.9-0.6c-0.4-0.3-0.8-0.5-1.2-0.8
				c-0.3-0.2-0.6-0.4-0.9-0.6c-0.4-0.3-0.7-0.5-1.1-0.8c-0.3-0.2-0.6-0.4-0.9-0.6c-0.4-0.3-0.7-0.5-1.1-0.8
				c-0.3-0.2-0.5-0.4-0.8-0.6c-0.3-0.3-0.7-0.5-1-0.8c-0.3-0.2-0.5-0.4-0.8-0.6c-0.3-0.3-0.7-0.6-1-0.9c-0.2-0.2-0.5-0.4-0.7-0.6
				c-0.3-0.3-0.7-0.6-1-0.9c-0.2-0.2-0.4-0.4-0.6-0.6c-0.2-0.2-0.3-0.3-0.5-0.5c-0.5-0.4-0.9-0.8-1.3-1.2c-0.2-0.2-0.4-0.4-0.6-0.6
				c-0.4-0.4-0.7-0.7-1.1-1.1c-0.2-0.3-0.4-0.5-0.6-0.7c-0.3-0.3-0.7-0.7-1-1.1c-0.1-0.2-0.3-0.4-0.5-0.6c-0.4-0.4-0.7-0.9-1.1-1.3
				c-0.2-0.1-0.3-0.3-0.4-0.4c-0.5-0.7-1.1-1.5-1.6-2.2c-0.2-0.2-0.3-0.3-0.4-0.5c-0.5-0.7-1-1.5-1.5-2.2c-0.5-0.6-0.8-1.3-1.2-2
				c-0.1-0.1-0.1-0.3-0.2-0.4c-0.4-0.7-0.7-1.3-1-2c-0.1-0.1-0.1-0.3-0.2-0.4c-0.3-0.6-0.6-1.3-0.8-1.9c0,0-0.1-0.1-0.1-0.2
				c-0.1-0.2-0.1-0.4-0.2-0.6c-0.2-0.6-0.4-1.3-0.6-1.9c0-0.3-0.1-0.6-0.2-0.9c-0.1-0.5-0.3-1.1-0.4-1.6c-0.1-0.3-0.1-0.7-0.2-1
				c-0.1-0.5-0.1-1-0.2-1.5c0-0.3-0.1-0.7-0.1-1c0-0.5-0.1-1-0.1-1.5c-0.1-0.5-0.1-0.9-0.1-1.4L281.6,391.6z"/>
			<path class="st9" d="M310.6,362.7c12.8,1.5,21,8.7,18.4,16.1c-1.4,4-0.6,8.6,2.2,13.3c3,4.9,8.3,9.9,15.8,14.2
				c7.5,4.4,15.9,7.4,24.4,9.2c8.1,1.6,16.1,2.1,23,1.3c12.8-1.5,25.3,3.3,27.8,10.7c1.6,4.7-1.1,9.3-6.5,12.4
				c-3.2,1.8-7.3,3.1-12,3.7c-15.4,1.8-32.1,0.9-48.3-2.4c-14.9-3.1-29.5-8.4-41.9-15.6c-12.4-7.2-21.4-15.6-26.7-24.3
				c-5.7-9.4-7.2-19.1-4-28c1-2.7,3.3-5.1,6.5-6.9C294.7,363.2,302.7,361.7,310.6,362.7z"/>
		</g>
		<g>
			<path class="st40" d="M405.4,461.4c-1,0.9-2.2,1.7-3.4,2.4c-5,2.8-12.9,3.9-21.4,4.1c-11.3,0.3-23.8-1.2-31.9-2.8
				c-11.4-2.2-25.7-6.8-38.1-14c-9.6-5.6-18-12.8-23.1-21.7l0,0c-0.3-0.6-0.6-1.2-0.9-1.8v-13l0,0v0.3l0,0v0.3c0,2.1,0.4,4.2,1,6.2
				c0.7,2.2,1.7,4.4,2.8,6.4l0,0c4.8,8.4,12.8,15.2,22,20.5c12.1,7,26,11.5,37.1,13.7c8,1.6,20.2,3,31.2,2.8
				c8.1-0.2,15.4-1.2,19.9-3.7c2-1.2,4.3-3,5-5.3L405.4,461.4z"/>
			<path class="st40" d="M405.6,479.1c-1,1-2.2,1.9-3.5,2.6c-5,2.8-12.9,3.9-21.4,4.1c-11.2,0.3-23.7-1.2-31.8-2.8
				c-11.3-2.2-25.6-6.8-38-14c-9.6-5.6-18-12.8-23.1-21.7l0,0c-0.3-0.6-0.7-1.2-1-1.9v-12.8h0.1v0.3l0,0v0.3c0,2.1,0.4,4.2,1,6.2
				c0.7,2.2,1.7,4.4,2.8,6.4l0,0c4.7,8.4,12.8,15.2,21.9,20.5c12,7,25.9,11.5,37,13.7c8,1.6,20.1,3,31.1,2.8
				c8-0.2,15.3-1.2,19.8-3.7c2.2-1.3,4.7-3.4,5.1-6V479.1z"/>
		</g>
	</g>
	<g>
		<path class="st24" d="M318.9,382.9c0.1,0,0.7,0.5,0.7,0.5s1.5-1,1.5-1.1s-0.1-1.1-0.1-1.1l-0.6-1.1
			C318.7,381,317.1,381.3,318.9,382.9z"/>
		<path class="st41" d="M332.5,390.1c-0.3-1.3-0.7-2.6-1-3.8c-0.4-0.8-0.8-1.7-1-2.5c-2.3-0.6-4.8-0.9-6.3-1.2
			c-0.1,1-0.2,2.5-0.9,3.7C325,387.1,329.3,389.6,332.5,390.1z"/>
		<polygon class="st42" points="336.8,396.6 321.6,388.1 317.4,378.4 332.7,386.9 		"/>
		<path class="st25" d="M338,394l-1.1-0.5l-2.9,0.9c-1.1-0.5-1.6-1-2.2-1.6c-0.4-0.4-0.4-0.5-0.4-1.1c-0.1-0.8,0-1.6,0-1.9
			c0.7,0.4,0.8,0.8,1.9,0.7c0.3-0.1,1-0.1,1.3-0.4c0-0.2-0.1-0.3-0.3-0.5c-0.1-0.2-0.5-0.2-0.7-0.4l-0.4-1c0.5,0.1,2,0.4,2.6,0.7
			c0.6,0.4,1,1.6,1.8,1.7L338,394z"/>
		<path class="st27" d="M352.5,396.5c-0.4,1.2-1.6,2.3-3.8,1.6c-4.2-1.3-7.6-2.8-11.5-4.3c0-1.3,0-2.1,0.1-3.3
			c4.7,0.9,8.5,1.6,12.9,2.6C352.4,393.6,353,395.1,352.5,396.5z"/>
		<g>
			<path class="st25" d="M320,383c1.1-0.4,1.1-0.4,1.7,0.3l-0.6,0.4c-0.6,0.4-0.6,0.5-1.2,0.4c-0.5-0.1-0.9-0.1-1.4-0.4
				c-0.6-0.3-0.6-0.5-0.1-1.2L320,383z"/>
			<path class="st25" d="M320.1,384c1.3-0.3,1.4-0.6,2,0.5c-0.4,0.2-0.9,0.5-1.4,0.6c-0.1,0.1-0.3,0.1-0.5,0.1c-0.3,0-0.6,0-0.9-0.1
				c-0.3-0.2-0.7-0.6-0.8-0.7s-0.1-0.3-0.1-0.8L320.1,384z"/>
			<path class="st25" d="M320,385.2c1.1-0.2,1.2-0.4,1.7,0.5c-0.4,0.1-0.8,0.3-1.2,0.4c-0.1,0-0.2,0-0.4,0s-0.5,0-0.7-0.1
				c-0.2-0.1-0.3-0.3-0.3-0.4c0-0.1,0-0.5,0-0.9L320,385.2z"/>
			<path class="st25" d="M318.4,381.5c0.4-0.1,0.9,0.3,1.2,0.6c1-0.2,1.5-0.3,1.6,0.5c-0.5,0.2-1.3,0.7-1.9,0.5
				c-0.2-0.1-0.5-0.3-0.9-0.6c-0.3-0.2-0.5-0.4-0.5-0.6C317.9,381.5,318.2,381.4,318.4,381.5z"/>
		</g>
	</g>
	<g>
		<path class="st32" d="M382.8,389.2c1.8,0.6,2.8,3,2.5,5.5c-0.7,6.2-4.6,15.6-6.9,22c-0.1,0.3-1.3,0.7-1.4,1l-4.4-2.4
			c0.8-5.8,1.8-17.3,4.8-23C378.5,390.2,380.3,388.5,382.8,389.2z"/>
		<g>
			<path class="st25" d="M360.4,420.9l-3.7,2.5c-1,0.7-3.1-1-4.6-0.1s-2.9,2.4-4.5,3.2l-2.1-2.2c1.4-1.9,3.4-3.9,4.8-5.1
				c1.5-1.2,2.3-1.4,5.1-1.1l2.5,0.1L360.4,420.9z"/>
			<path class="st32" d="M378.6,415.1c0.2,1.5-0.6,3-3.6,3.9c-5.6,1.7-11.6,2.7-17.3,4.2c-0.8-0.6-2.4-4.4-1.9-5.4
				c5.7-1.8,12.3-4.9,18-6.2C376.7,410.9,378.4,413.3,378.6,415.1z"/>
		</g>
		<g>
			<path class="st25" d="M341.3,399c0.6,0.2,1.6,0.2,2.2,0.2l-0.8,4.2l-2.2-0.5l-2.6,2.1c-1.7,1.3-1.7,0.9-3.9,0.8
				c-2.5-0.4-4.9-0.5-4.8-2.1c-0.1-1.2-0.2-1.9,0.9-1.8l3.5,0.1l1.1-0.5l1.5-1.3l-2.5-0.3c-1.1-0.2-1.2-0.6-1-0.9
				c0.2-0.5,0.9-0.9,2.3-0.8c1.9-0.2,2.6-0.6,3.5-0.5C339.7,397.9,340.2,398.6,341.3,399z"/>
			<path class="st30" d="M355.6,398.5l1.8,0.7l1,6.4l-0.5-0.1l-16.9-1.7c-0.6-0.6-0.8-5.1,0-5.5
				C344.9,398.8,351.7,398.2,355.6,398.5z"/>
		</g>
	</g>
	<g>
		<path class="st43" d="M512.9,428.5c-1.8,4.1-6.4,1.2-6.5-1.2c0.6-2.7,2.7-10.8,4.6-15.6c0.7-1.8,1.5-3.9,3.5-4.6
			c2.3-0.9,5.1,0.3,5.2,5.3C519.8,415.1,515.2,423.4,512.9,428.5z"/>
		<path class="st44" d="M532.2,420.6c-2.8,1.1-9.3-1.2-14.1-4.9s-6.4-7.6-3.6-8.7c2.3-0.9,6.4,0,10.7,2.6
			C528.1,411.4,534.7,417.8,532.2,420.6z"/>
		<g>
			<path class="st45" d="M506.6,438.9l13-7.5l0,0c0.3-0.1,0.6-0.1,0.8,0.1l-5.5,3.7l-7.4,3.8C507.2,438.9,506.8,438.8,506.6,438.9z"
				/>
			<path class="st45" d="M511.8,441.6l6.5-4.8l6.4-2.7c0.6,0.4,1.2,1.3,1.2,2l-5.4,5.1l-7.5,2.4C512.1,443.6,511.2,443,511.8,441.6z
				"/>
			<polygon class="st46" points="511.8,441.6 519.3,437.2 524.8,434 520.4,431.5 514.4,434.9 507.4,439 509,441.5 			"/>
			<path class="st47" d="M513,455.1l-1.4-9.5l1.4-2l13-7.5v11.5c0,0.4-0.1,0.6-0.3,0.8l-13,7.5C512.9,455.8,513,455.5,513,455.1z"/>
			<path class="st48" d="M507.4,439c-0.7-0.4-1.2-0.1-1.2,0.7v11.5c0,0.8,0.5,1.7,1.2,2l4.4,2.6c0.7,0.4,1.2,0.1,1.2-0.7v-11.5
				c0-0.7-0.5-1.7-1.2-2L507.4,439z"/>
		</g>
		<g>
			<path class="st25" d="M495.9,420.8c-1,0-2.4-0.4-3.3-0.7s-1.7-0.8-2.9-1.8c-0.6-0.5-0.7-0.5-1.5-0.5h-1.7c-1,0-1.1,0.2-2,0.7
				c-0.8,0.4-1.6,0.9-1.3,1.4c0.3,0.5,1.1,0.2,1.9,0c0.3,1.1,0,2.3,0.3,3.3c0.3,0.2,2.3,0.2,2.6,0.3c1.2,0.6,2.4,0.8,3.4,0.6
				c0.4-0.1,0.8-0.2,1.4-0.5l4.2-0.6L495.9,420.8z"/>
			<path class="st24" d="M483.3,420c0.3,0.3,1.4-0.5,2.2-0.7c-0.5,1.3-0.1,3.5-0.1,3.7c1.3-0.2,3,0.4,3.7,0.6c1,0.3,1.6,0.2,2.5,0
				c0.3,0,0.7-0.4,1-0.6c-0.8-0.3-1.7-0.5-2.1-1c-0.9-1.1-0.8-2.4-1.7-2.9c-0.6-0.4-1.3-0.6-3.1-0.4
				C484.7,419.2,483.7,419.6,483.3,420z"/>
		</g>
		<g>
			<path class="st49" d="M523.4,495.9c-0.6,2.2-1.2,2.8-2.1,3.7c-0.7,0.7-4.6,3.2-4.9,3.9c-0.2,0.5-0.2,1.5,0.6,2
				c0.9,0.6,2.7,0.6,3.9,0.4c2.5-0.4,4.5-1.9,6.5-3.4c0.2,0.2,1.1-0.1,2-0.6c0.7-0.4,1-0.8,1.1-1.4c0.1-0.4,0-1.4-0.1-1.9
				c-0.2-1.3-0.7-2.3-1.3-3.7l-2.5-0.6L523.4,495.9z"/>
			<path class="st50" d="M516.2,504.1c-0.1,0.5,0.1,1.2,0.7,1.6c0.9,0.6,2.7,0.6,3.9,0.4c2.5-0.4,4.5-1.9,6.5-3.4
				c0.2,0.2,1.1-0.1,2-0.6c0.7-0.4,1-0.8,1.1-1.4c0-0.2,0-0.6,0-1c-0.3,1-2.3,1.9-3.3,2c-2,1.5-4,2.9-6.5,3.3
				c-1.2,0.2-3,0.2-3.9-0.4C516.5,504.4,516.3,504.2,516.2,504.1z"/>
		</g>
		<g>
			<path class="st49" d="M517.1,492.3c-0.6,2.2-1.2,2.8-2.1,3.7c-0.7,0.7-4.6,3.2-4.9,3.9c-0.2,0.5-0.2,1.5,0.6,2
				c0.9,0.6,2.7,0.6,3.9,0.4c2.5-0.4,4.5-1.9,6.5-3.4c0.2,0.2,1.1-0.1,2-0.6c0.7-0.4,1-0.8,1.1-1.4c0.1-0.4,0-1.4-0.1-1.9
				c-0.2-1.3-0.7-2.3-1.3-3.7l-2.5-0.6L517.1,492.3z"/>
			<path class="st50" d="M510,500.4c-0.1,0.5,0.1,1.2,0.7,1.6c0.9,0.6,2.7,0.6,3.9,0.4c2.5-0.4,4.5-1.9,6.5-3.4
				c0.2,0.2,1.1-0.1,2-0.6c0.7-0.4,1-0.8,1.1-1.4c0-0.2,0-0.6,0-1c-0.3,1-2.3,1.9-3.3,2c-2,1.5-4,2.9-6.5,3.3
				c-1.2,0.2-3,0.2-3.9-0.4C510.2,500.7,510.1,500.5,510,500.4z"/>
		</g>
		<path class="st34" d="M523.3,441c0.6,3,1.4,5.5,1.6,8.5c0.4,5.6-2.1,14.9-2.4,21l0.2,4.4c0.5,4.6,0.2,9.4,0.6,16.5
			c0,0.1,0,0.2,0,0.3c1.2,0.7,0.5,2.3-1.6,3.5c-2.1,1.2-4.8,1.6-6,0.9c-0.3-0.2-0.5-0.4-0.6-0.6l0,0c-0.1-0.2-1-26.1-1.3-29.3
			c-0.4-9.1-0.4-17.3-0.7-27L523.3,441z"/>
		<path class="st28" d="M530.1,442.5c0.5,4.8,1.7,7,0.7,12.1c-0.9,5.1-1.6,10.8-1.9,16l0.7,6.7c0.5,4.6,0,12,0.4,19.1
			c0.3,0.8-0.5,1.9-2.1,2.9c-2.1,1.2-4.8,1.6-6,0.9c-0.4-0.3-0.6-0.6-0.6-1l-1.7-30.3c-0.4-9.1-0.6-16.3-1-26L530.1,442.5z"/>
		<path class="st24" d="M524,405.5c-0.2,1.8-0.1,3.7,0.3,5.2c-1.5,2.2-7.3,3.9-6.8-0.4v-2.4L524,405.5z"/>
		<path class="st44" d="M513.6,407.7c0.5-0.3,1-0.3,1.4-0.3c0.9,0.1,1.6,0.9,2.9,2.1c-1.9,4.4,4.9,4,6.3,1.6c2,1.3,3.7,2.7,5.9,4.3
			c3.6,2.6,2.4,8.6,1.9,12.9c-0.5,4.5-1,6.9-1,12.5c0,1.6,0.5,6.2,0.4,9.2c0.2,1-0.2,1.9-1.2,2.5c-2.6,1.5-8.2,0.6-12.6-1.9
			c-3.5-2-5.2-4.6-4.4-6.2l-1.4-23.3C511.2,414.2,512.2,408.4,513.6,407.7z"/>
		<path class="st26" d="M530.2,438.9l-4.3-16.6c-0.6-3.3,0.8-6.4,3.4-6.4c2.1,0,3.4,1.5,4.3,4.6c0.7,2.3,1.1,9.7,2.1,14.8
			c0.1,0.4,0.2,0.8,0.3,1.2C536.3,441.3,531.4,441.6,530.2,438.9z"/>
		<path class="st43" d="M506.8,424.3c-3.2-0.7-10.4-3.9-13.1-4.6c-1.2-0.2-2,3-1.6,4l13.3,6.1c2.1,1.2,4.6,2.2,6.4,1.2
			c0.5-0.3,0.5-3.5,0.2-4.1C511.2,425.5,509.1,424.8,506.8,424.3z"/>
		<g>
			<path class="st51" d="M467.3,400.5l55.9,61.6c0.9,1,2.3,0.9,3.2,0l-0.6-0.6l-56.6-64.1c-0.3-0.3-1.2-0.3-2.1,0.9
				C466.8,398.8,466.6,399.7,467.3,400.5z"/>
			<path class="st52" d="M468.1,397.8L468.1,397.8c-0.6,0.3-0.2,1.5,0.3,2l56.8,62.5c0.7,0.8,2.7-0.4,1.1-2.1l-56.8-62.5
				C469,397.2,468.7,397.5,468.1,397.8z"/>
		</g>
		<path class="st25" d="M515.8,444.4c-0.9,0.1-1.1,0.1-2-0.2c-0.7-0.2-1.3,0.1-1.8,0.3l1,1.2c-0.3,0.4-1.1,0.7-1.5,0.9
			c-1.2,0.5-1.7,0.1-2.7-0.2c0.1,0.6,0,0.6,0.2,1.1c0.7,1.6,3.4,4.2,4.5,3.4l4-2.5L515.8,444.4z"/>
		<path class="st26" d="M534.4,440.2l-16.5,8.9c-1.3-0.9-3-3.4-2.8-4.8l14.9-8.5C532.2,433.4,538.2,436.6,534.4,440.2z"/>
		<g>
			<path class="st53" d="M486.8,421.5c-0.5-0.1-1.2-0.3-1.5-0.5c-0.1-0.1-0.1-0.5-0.1-0.7c0-0.2,0-0.3,0.5-0.2
				c0.3,0,0.8,0.2,1.1,0.3C487.5,420.6,487.8,421.7,486.8,421.5z"/>
			<path class="st25" d="M487.1,422.8c-0.5-0.1-1.4-0.4-1.8-0.7c-0.1-0.1-0.1-0.4-0.1-0.7c0-0.2,0.1-0.3,0.4-0.3
				c0.3,0.1,1.1,0.4,1.4,0.5C487.7,421.9,488,423,487.1,422.8z"/>
			<path class="st25" d="M486.9,423.8c-0.4-0.1-1.2-0.4-1.5-0.5c-0.1-0.1-0.2-0.5-0.2-0.6c0-0.2,0.1-0.3,0.3-0.2
				c0.2,0.1,1.1,0.4,1.3,0.5c0.5,0.2,0.7,0.9,0.2,0.9C487,423.8,487,423.8,486.9,423.8z"/>
		</g>
		<path class="st25" d="M488.4,418.5c-0.6,0.7-1.9,0.8-3,0.5c-0.5-0.1-1-0.3-1.3-0.3c-0.2,0-0.4,0.1-0.4,0.3
			c-0.1,0.3,0.4,1.2,1.6,1.4l1.9,0.3c1.7,1.7,2.5,2,4.9,1.4l0.3-1.9l-2.4-1.4L488.4,418.5z"/>
		<path class="st51" d="M463.2,396.6c-1.4,1.4-1.7,3.8-0.7,5.4c0.5,0.8,1.1,1.2,1.8,1.4l2.3,0.3c0.6-0.1-0.3-0.6,0.2-1.1
			c1.4-1.4,1.7-3.8,0.7-5.4l0.2-1.1l-2.5-0.3C464.5,395.7,463.8,396,463.2,396.6z"/>
		<path class="st51" d="M464.7,400.1l-22.4,8.1l0.1-2.7l20.9-7c0.3-0.1,0.9-0.8,1.8,1C465.5,400.2,465.5,399.8,464.7,400.1z"/>
		<path class="st52" d="M464.2,396.6c0.6,0.7,0.2,1.6-0.3,1.8l-21.5,7.9l-1.6-2l22.8-8.1L464.2,396.6z"/>
		<g>
			<path class="st52" d="M465.2,396.9c-1.4,1.4-1.7,3.8-0.8,5.4c1,1.7,2.9,1.9,4.4,0.5c1.4-1.4,1.7-3.8,0.7-5.4
				C468.5,395.7,466.6,395.5,465.2,396.9z"/>
			<path class="st54" d="M465.8,398c-0.9,0.9-1.1,2.4-0.5,3.4s1.9,1.2,2.7,0.3c0.9-0.9,1.1-2.4,0.5-3.4S466.7,397.1,465.8,398z"/>
		</g>
		<path class="st48" d="M528.9,412.5c-5,6.2-8.9,13.1-12.5,19.3c-1.8,3.2-3.7,6.4-5.8,9.8l-2.2-1.4c2.1-3.3,3.9-6.5,5.8-9.7
			c3.6-6.3,7.6-13.4,12.7-19.8C527.6,411.3,528.2,411.9,528.9,412.5z"/>
		<g>
			<path class="st55" d="M436.8,421.6L436.8,421.6L436.8,421.6L436.8,421.6z"/>
			<path class="st55" d="M435.4,419.9L435.4,419.9L435.4,419.9L435.4,419.9z"/>
			<path class="st51" d="M435.1,417.8L435.1,417.8L435.1,417.8L435.1,417.8v-0.1l2.8-20.6c0.8,0.8,6.5,0.9,8.2,1.5v-0.1
				c0-0.1,0.1-0.2,0.1-0.3l-2.8,20.6l0,0l0,0l0,0l0,0l0,0l0,0l0,0l0,0l0,0l0,0c-0.1,0.5-0.2,0.8-0.4,1.2c-1.9,3.7-7.3,2.5-7.9-1.1
				C435.1,418.6,435.1,418.2,435.1,417.8z"/>
			<path class="st52" d="M446.2,398.4c0-0.1,0-0.1,0-0.2s0-0.2,0-0.3s0-0.1,0-0.2v-0.1v-0.1l0,0l0,0c0-0.1,0-0.2,0-0.3
				c0-0.2-0.1-0.3-0.1-0.5l0,0v-0.1c0-0.1,0-0.1-0.1-0.2c0-0.1-0.1-0.3-0.2-0.5c-1.2-2.3-4.2-3.2-6.3-1.5c-0.1,0.1-0.1,0.1-0.2,0.2
				c0,0-0.1,0.1-0.2,0.2l0,0l0,0c-0.1,0.1-0.2,0.2-0.3,0.4l0,0l0,0c0,0.1-0.1,0.1-0.1,0.2l0,0l0,0c-0.1,0.1-0.1,0.2-0.2,0.3l0,0
				c-0.1,0.1-0.1,0.2-0.1,0.3l0,0c0,0.1-0.1,0.2-0.1,0.2l0,0l0,0c-0.1,0.2-0.1,0.3-0.1,0.4v0.1l0,0v0.1v0.1c0,0.1,0,0.1,0,0.2l0,0
				l0,0l0,0l0,0l0,0l0,0l0,0l0,0l0,0l0,0l0,0l0,0c0.1,1.5,2,2.8,3.8,3.1C443,400.6,445.9,400,446.2,398.4z"/>
		</g>
		<path class="st54" d="M436.6,406.7l0.3-2.5l0,0l0,0c0,0.1,0,0.1,0,0.2l0,0l0,0l0,0l0,0l0,0l0,0l0,0l0,0l0,0l0,0l0,0l0,0
			c0.1,1.5,2,2.8,3.8,3.1c1.3,0.2,4.2-0.5,4.5-2v-0.1l-0.4,2.6c-0.4,1.4-3.2,2.1-4.5,1.9c-1.5-0.2-3-1.2-3.6-2.4
			C436.7,407.5,436.6,407.1,436.6,406.7z"/>
		<g>
			
				<ellipse transform="matrix(-0.9991 4.167608e-002 -4.167608e-002 -0.9991 1047.77 779.9538)" class="st56" cx="515.8" cy="400.9" rx="1.9" ry="2.4"/>
			<g>
				<path class="st25" d="M514.7,400.4c0,2.1-0.5,2.9,0.6,6.3c0.3,1,0.8,2.3,1.1,2.5c0.4,0.3,1.5,1,2,0.9c1-0.1,3.1-1.3,3.8-1.6
					c1.7-0.8,1.6-1.3,2-3.2l0.9-2.8l-0.4-5.6c-3.3-1.1-6.2-1.9-7.7-1.4C515.4,396.1,514.7,396.3,514.7,400.4z"/>
				<path d="M524.2,394.8c1.8,0.6,2.8,2.8,2.5,5.2c-0.2,2.3-1.6,4.6-2.8,6.3c-0.1-1.6,0.7-3.3,0-3.8c-0.4-0.3-1.6-0.3-2.3,1.9
					c-0.4-1.5-0.2-1.8-0.3-3.2c0-4.3-6.3-0.4-7.4-4.7c1.1-0.5,1.7-2.2,3.5-3C519.4,392.6,522.9,393,524.2,394.8z"/>
			</g>
			<path class="st46" d="M523.1,403.1c0-2-0.1-5.5-2.2-6.8c-1.1-0.7-3.6-1.7-5.3-1.5c0.4-0.5,1.8-1.5,2.6-1.5
				c1.1,0.1,3.2,0.9,4.1,1.4c2.8,1.4,2.8,5.4,2.7,8L523.1,403.1z"/>
			<g>
				
					<ellipse transform="matrix(-0.9933 -0.1154 0.1154 -0.9933 997.5092 865.0438)" class="st56" cx="523.8" cy="403.6" rx="2" ry="2.6"/>
				<path class="st46" d="M524.5,401.5c2.3,0.3,1.8,4.8-0.5,4.5c-1-0.1-1.6-1.2-1.5-2.5C522.6,402.3,523.5,401.4,524.5,401.5z"/>
			</g>
		</g>
	</g>
	<g>
		<g>
			<polygon class="st51" points="231.3,517.8 233.3,516.7 257.6,468.9 255.5,470.1 			"/>
			<polygon class="st51" points="282.4,547.7 284.5,546.5 257.6,463.2 255.5,464.4 			"/>
			<polygon class="st52" points="229,516.4 231.3,517.8 255.5,470.1 280.2,546.4 282.4,547.7 282.4,547.7 255.5,464.4 			"/>
		</g>
		<path class="st24" d="M251.1,458.9c3.6-3.7,1.2-6.8-4.1,0.6c-1,2.3-3.8,6.6-5.1,10.4c-1,3.1-1.2,4.9,0.6,5.7c2,1,2.9-0.1,3.7-1.7
			c1.7-3.3,3.3-11,3.7-13C250.2,460,250.4,459.7,251.1,458.9z"/>
		<g>
			<path class="st24" d="M226.4,466c-0.6,2.5,0,4.9,6.4,7.1L243,476c3.1,0.7,4.4-4.5,1.7-5.6c-5-1.9-9.1-5.5-14-7.2
				C229,462.6,226.9,463.7,226.4,466z"/>
			<path class="st57" d="M226.1,465.9c-0.6,2.5,0.1,5.1,6.5,7.3l4.1,1.3c1.6-0.6,3.6-5.6,1.9-7.6c-2.6-1.4-5.4-2.8-7.9-3.7
				C229.1,462.6,226.7,463.7,226.1,465.9z"/>
		</g>
		<g>
			<g>
				<polygon class="st52" points="271.2,453.9 271.5,456.3 271.2,459.8 268.6,460 267.4,454.8 				"/>
				<polygon class="st58" points="273.5,452.6 271.2,453.9 269.1,455.4 265,453.6 266.1,450.9 				"/>
				<polygon class="st51" points="271.2,453.9 273.5,452.6 273.5,458.5 271.2,459.8 				"/>
				<path class="st51" d="M268.3,460.4l1.1-0.6c0.1,0,0.1-0.1,0.2-0.1c0.4-0.4,0.6-0.9,0.6-1.7c0-0.1,0-0.2,0-0.3v-0.1v-0.1
					c0-0.1,0-0.1,0-0.1c0-0.1,0-0.1,0-0.2v-0.1l0,0V457v-0.1c0-0.1,0-0.1,0-0.1v-0.1v-0.1v-0.1v-0.1l0,0c0,0-0.1-0.1-0.1-0.2l0,0
					l0,0c0-0.1-0.1-0.1-0.1-0.2s0-0.1,0-0.1v-0.1v-0.1c0-0.1-0.1-0.1-0.1-0.2l0,0l0,0c0,0-0.1-0.1-0.1-0.2l0,0
					c-0.1,0-0.1-0.1-0.1-0.1l-0.1-0.1c-0.1-0.1-0.1-0.1-0.1-0.1l-0.1-0.1c-0.1-0.1-0.1-0.1-0.1-0.1c-0.1,0-0.1-0.1-0.1-0.1l-0.1-0.1
					c0-0.1,0-0.1,0-0.1c-0.1-0.1-0.1-0.1-0.1-0.1c-0.1-0.1-0.1-0.1-0.2-0.2s-0.1-0.1-0.1-0.1c-0.1-0.1-0.1-0.1-0.1-0.1l-0.1-0.1
					c-0.1,0-0.1-0.1-0.2-0.1l-0.1-0.1c-0.1,0-0.1-0.1-0.2-0.1c0-0.1-0.1-0.1-0.1-0.1c-0.1-0.1-0.2-0.1-0.3-0.2
					c-0.1,0-0.2-0.1-0.3-0.1s-0.1,0-0.1,0c-0.1,0-0.1,0-0.1,0c-0.1-0.1-0.1-0.1-0.2-0.1l0,0h-0.1c-0.1,0-0.1,0-0.1,0h-0.1
					c-0.1,0-0.1,0-0.1,0h-0.1h-0.1l0,0h-0.1l0,0l0,0c-0.1,0-0.1,0-0.2,0l0,0l0,0h-0.1c-0.1,0-0.1,0-0.1,0l0,0l0,0
					c0,0.1-0.1,0.1-0.1,0.1l0,0l-1.1,0.6l2.1,3.3L268.3,460.4z"/>
				<path class="st52" d="M263.8,455.5c0,1.8,1.3,3.9,2.8,4.8s2.8,0.2,2.8-1.6c0-1.8-1.3-3.9-2.8-4.8S263.9,453.7,263.8,455.5z"/>
				<path class="st51" d="M263.7,462.1l3.2-1.8l0.1-0.1c0.3-0.3,0.5-0.7,0.5-1.3c0,0,0-0.1,0-0.2v-0.1v-0.1l0,0c0-0.1,0-0.1,0-0.2
					v-0.1l0,0v-0.1V458c0-0.1,0-0.1,0-0.1v-0.1v-0.1v-0.1c0-0.1,0-0.1,0-0.1l0,0c0-0.1-0.1-0.1-0.1-0.2l0,0l0,0
					c-0.1-0.1-0.1-0.1-0.1-0.2s0-0.1,0-0.1c0-0.1,0-0.1,0-0.1c0-0.1,0-0.1,0-0.1c-0.1,0-0.1-0.1-0.1-0.1l0,0l0,0
					c0-0.1-0.1-0.1-0.1-0.2l0,0c0-0.1,0-0.1,0-0.1c-0.1,0-0.1-0.1-0.1-0.1c0-0.1,0-0.1,0-0.1c-0.1,0-0.1-0.1-0.1-0.1
					c0-0.1,0-0.1,0-0.1c-0.1-0.1-0.1-0.1-0.1-0.1l-0.1-0.1l0,0l0,0c0-0.1-0.1-0.2-0.1-0.2l0,0l0,0c-0.1-0.1-0.1-0.1-0.1-0.1
					l-0.1-0.1c-0.1-0.1-0.1-0.1-0.1-0.1l-0.1-0.1c-0.1,0-0.1,0-0.1,0c-0.1,0-0.1-0.1-0.2-0.1s-0.1-0.1-0.2-0.1s-0.1,0-0.1,0
					c-0.1,0-0.1,0-0.1,0c0-0.1-0.1-0.1-0.1-0.1l0,0h-0.1l0,0h-0.1c-0.1,0-0.1,0-0.1,0c-0.1,0-0.1,0-0.1,0c-0.1,0-0.1,0-0.1,0l0,0
					h-0.1l0,0l0,0h-0.1l0,0l0,0c-0.1,0-0.1,0-0.1,0c-0.1,0-0.1,0-0.1,0l0,0l0,0c0,0.1-0.1,0.1-0.1,0.1l0,0l-3.5,2L263.7,462.1z"/>
				<polygon class="st54" points="266.1,450.9 268.4,449.6 273.5,452.6 271.2,453.9 				"/>
			</g>
			<g>
				<path class="st58" d="M260.9,458.6c0.2,0.1,0.5,0,0.7-0.1l-2.6-1.7l-4-2.1h-0.1l0,0h-0.1l0,0h-0.1l0,0h-0.1l0,0
					c-0.1,0-0.1,0-0.1,0l0,0c-0.1,0-0.1,0-0.1,0l0,0c0,0,0-0.1-0.1-0.1c0.1,0.1,0.1,0,0,0L260.9,458.6z"/>
				<path class="st58" d="M250.8,462.4l-2.2-1.6l-4.3-2.2l0,0l0,0l0,0l0,0l0,0l0,0l0,0l0,0l0,0l0,0l0,0l0,0l0,0l0,0l0,0l0,0l0,0
					c0,0.1,0,0.1,0,0.1c-0.1,0-0.1,0.1-0.1,0.1c-0.1,0-0.1,0.1-0.1,0.1l0,0l0,0c0,0.1,0,0.1,0,0.1c0,0.1,0,0.1,0,0.1
					c0,0.1,0,0.1,0,0.1l0,0l0,0l0,0l0,0l0,0l0,0l0,0c0,0.1,0,0.1,0,0.1l0,0l0,0l0,0c0,0.1,0,0.1,0,0.1c0,0.1,0,0.1,0,0.1
					c0,0.1,0,0.1,0,0.1l0,0l0,0l0,0l0,0l0,0l0,0l0,0l0,0l4,2.6l2.6,1.2C251.2,463.1,251.8,462.5,250.8,462.4z"/>
				<path class="st59" d="M258.2,459.5c0,1.4,0.9,3,2.1,3.7c1.2,0.7,2.2,0.2,2.2-1.2s-0.9-3-2.1-3.7
					C259.2,457.6,258.3,458.1,258.2,459.5z"/>
				<path class="st58" d="M265.9,456.1L265.9,456.1c0.1,0,0.1,0-0.4,0.1l-6.5-3.8h-0.1l0,0c-0.1,0-0.1,0-0.1,0l0,0l0,0
					c-0.1,0-0.1,0-0.1,0l0,0l0,0l0,0l0,0l0,0l0,0l0,0l0,0l0,0l0,0l0,0l0,0l0,0l0,0l0,0l0,0l0,0l0,0l0,0l0,0l0,0l0,0l3.6,2.4l3,1.3
					h0.1l0,0h0.1l0,0h0.1l0,0h0.1l0,0C265.8,456.1,265.8,456.1,265.9,456.1C265.8,456,265.8,456,265.9,456.1
					C265.8,456,265.9,456,265.9,456.1L265.9,456.1z"/>
				<polygon class="st54" points="255,454.6 261.6,458.4 265.3,456.2 258.8,452.4 				"/>
				<path class="st52" d="M244.4,460v7l0,0l0,0l0,0l0,0l0,0l0,0l0,0l0,0l0,0l0,0l0,0l0,0l0,0l0,0l0,0l0,0l0,0c0,0.1,0,0.1,0,0.1l0,0
					c0.1,0,0.1,0.1,0.1,0.1l0,0c0,0.1,0.1,0.1,0.1,0.1c2.2,1.3,4.3,2.5,6.5,3.8c-0.1-0.2-0.3-0.5-0.3-0.6l0.2-7L244.4,460z"/>
				<path class="st52" d="M258.3,452.8c0,0.1,0,0.2,0,0.3v0.1l0.9,0.5v-0.1l0,0c0-0.3,0-1-0.2-1.3c0-0.1-0.1-0.1-0.1-0.1l-0.9-0.5
					C258.3,451.8,258.3,452.5,258.3,452.8L258.3,452.8z"/>
				<path class="st58" d="M259.8,450.8c-0.1,0-0.9-0.5-0.9-0.5c-0.3-0.1-0.6-0.1-0.9,0.1l0.9,0.6
					C259.2,450.9,259.5,450.8,259.8,450.8z"/>
				<polygon class="st54" points="253.4,454.3 252.4,453.7 258,450.5 258.9,451 				"/>
				<path class="st51" d="M258.9,451c0.8-0.4,1.4,0.1,1.4,1.1v1.1l-1,0.6v-0.1c0-1.5-0.2-1.8-1.4-1.1l-4.5,2.7v-1L258.9,451z"/>
				<path class="st55" d="M271.8,444.1L271.8,444.1L271.8,444.1z"/>
				<path class="st55" d="M271,443.9L271,443.9L271,443.9L271,443.9z"/>
				<path class="st51" d="M270.6,443.9c1.3-0.3,2.5,1.3,1.5,2.5c-0.2,0.1-0.3,0.2-0.4,0.3l0,0l0,0l0,0l0,0l0,0l0,0l0,0l0,0l0,0l0,0
					l-6.5,3.8l0.1-0.1l0,0c-0.4-0.4-1.2-2.3-1.6-2.5l6.6-3.8l0,0l0,0l0,0l0,0C270.4,444,270.5,444,270.6,443.9z"/>
				<path class="st52" d="M265.2,448.6c-0.4-0.5-1.1-1-1.6-0.8l0,0l0,0l0,0l0,0l0,0l0,0l0,0l0,0l0,0l0,0l0,0l0,0c-0.1,0-0.1,0-0.1,0
					l0,0l0,0l0,0l0,0l-0.1,0.1l0,0l0,0c-0.1,0.1-0.1,0.1-0.1,0.1l0,0c-0.1,0-0.1,0.1-0.1,0.1l0,0c-0.1,0-0.1,0.1-0.1,0.1l0,0l0,0
					c0,0.1,0,0.1,0,0.1l0,0l0,0c-0.1,0.1-0.1,0.2-0.1,0.2l0,0l0,0v0.1v0.1c-0.2,0.9,0.5,1.8,1.4,1.9c0.1,0,0.1,0,0.2,0s0.1,0,0.1,0
					l0,0l0,0c0.1,0,0.1,0,0.2,0h0.1l0,0l0,0l0,0l0,0c0.1,0,0.1,0,0.1,0c0.1,0,0.1,0,0.2-0.1l0,0
					C265.8,450.2,265.6,449.1,265.2,448.6z"/>
				<path class="st58" d="M259.2,457.5l-6.5-3.8h-0.1l0,0c-0.1,0-0.1,0-0.1,0l0,0l0,0l0,0l0,0l0,0l0,0l0,0l0,0l0,0l0,0l0,0l0,0l0,0
					l0,0l0,0l0,0l0,0l0,0l0,0l0,0l0,0l0,0l0,0l0,0l0,0l5.4,3.3l1.1,0.5C259.2,457.5,259.5,457.5,259.2,457.5z"/>
				<polygon class="st54" points="245.2,457.9 252,461.9 259,457.5 252.5,453.7 				"/>
				<polygon class="st52" points="259.1,453.1 259.1,454.9 260,455.4 260,453.6 				"/>
				<polygon class="st54" points="261.4,451.1 260.5,450.4 263.7,448.6 264.6,449.1 				"/>
				<path class="st58" d="M261.4,450.9l-0.9-0.5l0,0c-0.4,0.2-0.6,0.5-0.8,0.8c-0.4,0.6-0.6,1.3-0.6,1.9l0.9,0.5
					C260.1,452.8,260.8,451.7,261.4,450.9z"/>
				<path class="st51" d="M264.6,449.1v1l-2.2,1.3c-1.3,0.7-1.4,1.1-1.4,2.6v0.8l-1,0.6v-1.8c0-1,0.7-2.2,1.4-2.6L264.6,449.1z"/>
				<path class="st51" d="M250.8,463.5v7c0,0.7,0.5,0.9,1,0.6l13.6-7.9c0.6-0.3,1-1.1,1-1.7v-4.7c0-0.7-0.5-0.9-1-0.6l-3.8,2.2
					c-0.3,0.1-0.6,0.2-0.8,0l-1-0.9c-0.2-0.2-0.5-0.2-0.8,0l-7.3,4.2C251.2,462,250.7,462.8,250.8,463.5z"/>
				<path class="st52" d="M259,458.7c0.8-0.4,1.4,0.1,1.4,1.1v3.6c0,1-0.7,2.2-1.4,2.6l-6,3.5c-0.8,0.4-1.4-0.1-1.4-1.1v-3.6
					c-0.1-1,0.6-2.2,1.3-2.6L259,458.7z"/>
				<g>
					<path class="st60" d="M258.9,460.1l-0.3-0.2h-0.1l0,0c0,0.1-0.1,0.2-0.1,0.3l0.2,0.1l0.2,0.1
						C258.8,460.3,258.8,460.1,258.9,460.1z"/>
					<path class="st60" d="M259.8,459.6l-0.3-0.3l0,0h-0.1l0.1,0.1L259.8,459.6L259.8,459.6z"/>
					<path class="st61" d="M258.3,460.2v0.4l0,0l0.1,0.1l0.4,0.2l0,0l0,0c0,0,0-0.1,0-0.2s0-0.2,0-0.3L258.3,460.2z"/>
					<polygon class="st62" points="259,460 258.9,460.1 258.5,459.8 259.4,459.3 259.8,459.6 					"/>
					<path class="st63" d="M258.8,460.4v0.4c0,0.1,0,0.1,0.1,0.1l0.8-0.5c0-0.1,0.1-0.2,0.1-0.3v-0.4c0-0.1,0-0.1-0.1-0.1l-0.8,0.5
						C258.8,460.1,258.8,460.2,258.8,460.4z"/>
				</g>
				<g>
					<path class="st60" d="M257.6,460.8l-0.2-0.1l-0.2-0.1l0,0c0,0.1-0.1,0.2-0.1,0.3l0.2,0.1l0.2,0.1
						C257.5,461,257.6,460.8,257.6,460.8z"/>
					<path class="st60" d="M257.8,460.3l0.3,0.2c0.1,0,0.1,0,0.1,0L257.8,460.3L257.8,460.3L257.8,460.3z"/>
					<path class="st61" d="M257.2,460.9v0.4l0,0l0,0v0.1l0,0l0.4,0.2c0,0,0-0.4,0-0.5L257.2,460.9z"/>
					<polygon class="st62" points="258,460.7 257.7,460.8 257.3,460.6 257.7,460.3 258.1,460.5 					"/>
					<path class="st63" d="M257.6,461.1v0.4c0,0.1,0,0.1,0.1,0.1l0.4-0.3c0-0.1,0.1-0.2,0.1-0.3v-0.4c0-0.1,0-0.1-0.1-0.1l-0.4,0.3
						C257.6,460.8,257.5,461,257.6,461.1z"/>
				</g>
				<g>
					<path class="st60" d="M256.1,464.5l-0.5-0.3l-0.5-0.2l0,0c-0.3,0.1-0.4,0.4-0.4,0.7l0.4,0.3l0.6,0.2
						C255.7,464.9,255.9,464.6,256.1,464.5z"/>
					<path class="st60" d="M256.2,463.2l1,0.7c0.1,0,0.1-0.1,0.2-0.1l-1-0.6c0.1,0,0.1,0,0,0C256.4,463.2,256.3,463.2,256.2,463.2z"
						/>
					<path class="st61" d="M254.7,464.6v1l0,0l0,0c0,0.1,0.1,0.1,0.1,0.2s0.1,0.1,0.1,0.1l1,0.6c-0.1-0.1-0.1-1.1-0.1-1.3
						L254.7,464.6z"/>
					<polygon class="st62" points="256.7,464.2 256.1,464.5 255.1,463.9 256.2,463.3 257.2,463.8 					"/>
					<path class="st63" d="M255.7,465.2v1c0,0.3,0.2,0.4,0.4,0.3l1.1-0.6c0.2-0.1,0.4-0.4,0.4-0.7v-1c0-0.3-0.2-0.4-0.4-0.3
						l-1.1,0.6C255.9,464.6,255.7,464.9,255.7,465.2z"/>
				</g>
			</g>
			<g>
				<path class="st54" d="M246.1,460.8c0,0.1,0,0.1-0.8-0.2c0,0.4-0.2,0.7-0.4,0.8l3.2-1.9c0-0.1,0.1-0.1,0.1-0.1
					c0.2-0.2,0.3-0.5,0.3-0.8v-0.1l0,0c0-0.1,0-0.1,0-0.1l0,0v-0.1l0,0l0,0c0-0.1,0-0.1,0-0.1c0-0.1,0-0.1,0-0.1l0,0
					c0-0.1,0-0.1,0-0.1l0,0c0-0.1,0-0.1,0-0.1l0,0l0,0v-0.1l0,0l0,0v-0.1l0,0l0,0l0,0v-0.1l0,0l0,0c-0.1,0-0.1-0.1-0.1-0.1l0,0l0,0
					c0-0.1,0-0.1,0-0.1l0,0l0,0l0,0l0,0c0-0.1,0-0.1,0-0.1l0,0l0,0l-0.1-0.1l0,0l0,0l0,0c-0.1-0.1-0.1-0.1-0.1-0.1l0,0
					c0-0.1-0.1-0.1-0.1-0.1l0,0c0-0.1-0.1-0.1-0.1-0.1c0-0.1-0.1-0.1-0.1-0.1l0,0l0,0h-0.1l0,0c-0.1,0-0.1,0-0.1,0l0,0
					c-0.1,0-0.1,0-0.1,0l0,0l0,0l0,0l0,0c-0.1,0-0.1,0-0.1,0l0,0l0,0h-0.1l0,0l0,0l0,0l0,0l0,0l0,0c-0.1,0-0.1,0-0.1,0l0,0l-3.2,1.9
					h0.1l0,0c0.1,0,0.1,0,0.1,0l0,0h0.1l0,0h0.1l0,0c0.1,0,0.1,0,0.1,0c0.1,0,0.1,0,0.1,0h0.1l0,0h0.1l0,0c0,0.1,0.1,0.1,0.1,0.1
					l0.1,0.1l0,0c0,0.1,0.1,0.1,0.1,0.1l0,0c0.1,0.1,0.1,0.1,0.1,0.1l0,0c0.1,0.1,0.1,0.1,0.1,0.1l0.1,0.1c0,0.1,0,0.1,0,0.1
					c0,0.1,0,0.1,0,0.1c0.1,0.1,0.1,0.1,0.1,0.1l0,0c0.1,0,0.1,0.1,0.1,0.1l0,0l0.1,0.1l0,0c0.1,0,0.1,0.1,0.1,0.1l0,0
					c0.1,0,0.1,0.1,0.1,0.1l0,0c0.1,0,0.1,0.1,0.1,0.1l0,0v0.1c0,0.1,0,0.1,0,0.1v0.1c0,0.1,0,0.1,0,0.1c0,0.1,0,0.1,0,0.1
					S246.1,460.7,246.1,460.8C246.1,460.7,246.1,460.8,246.1,460.8L246.1,460.8z"/>
				<path class="st59" d="M243.5,459.5c0,0.8,0.6,1.8,1.3,2.2c0.7,0.4,1.3,0.1,1.3-0.7c0-0.8-0.6-1.8-1.3-2.2
					C244.1,458.4,243.6,458.7,243.5,459.5z"/>
				<path class="st58" d="M245.2,461.7c0,0.1,0,0.2-0.6-0.1c0,0.5-0.2,0.8-0.5,1l1.9-1.1c0-0.1,0.1-0.1,0.1-0.1
					c0.3-0.2,0.4-0.6,0.4-1c0-0.1,0-0.1,0-0.2s0-0.1,0-0.1V460l0,0v-0.1c0-0.1,0-0.1,0-0.1l0,0v-0.1c0-0.1,0-0.1,0-0.1l0,0
					c0-0.1,0-0.1,0-0.1c0-0.1,0-0.1,0-0.1c0-0.1,0-0.1,0-0.1c0-0.1,0-0.1,0-0.1l0,0c-0.1,0-0.1-0.1-0.1-0.1l0,0l0,0
					c-0.1,0-0.1-0.1-0.1-0.1l0,0l0,0l0,0c-0.1,0-0.1-0.1-0.1-0.1l0,0l0,0l-0.1-0.1l0,0l0,0c0-0.1,0-0.1,0-0.1l0,0c0-0.1,0-0.1,0-0.1
					l0,0l0,0c-0.1,0-0.1-0.1-0.1-0.1l0,0l0,0l-0.1-0.1l0,0l0,0c-0.1-0.1-0.1-0.1-0.1-0.1l-0.1-0.1c-0.1,0-0.1,0-0.1,0
					c0-0.1-0.1-0.1-0.1-0.1l0,0c-0.1,0-0.1-0.1-0.2-0.1c0-0.1-0.1-0.1-0.1-0.1l0,0l0,0h-0.1l0,0H245l0,0c-0.1,0-0.1,0-0.1,0l0,0l0,0
					l0,0l0,0c-0.1,0-0.1,0-0.1,0l0,0l0,0h-0.1l0,0l0,0l0,0l0,0l0,0l0,0h-0.1l0,0l-1.9,1.1h0.1l0,0h0.1l0,0h0.1l0,0h0.1l0,0h0.1
					c0.1,0,0.1,0,0.1,0h0.1l0,0c0,0.1,0.1,0.1,0.1,0.1l0,0l0.1,0.1c0.1,0,0.1,0.1,0.2,0.1l0,0l0.1,0.1c0.1,0,0.1,0,0.1,0l0.1,0.1
					c0.1,0,0.1,0,0.1,0c0.1,0.1,0.1,0.1,0.1,0.1l0.1,0.1c0.1,0.1,0.1,0.1,0.1,0.1c0.1,0,0.1,0.1,0.1,0.1c0.1,0,0.1,0.1,0.1,0.1
					c0,0.1,0,0.1,0,0.1l0.1,0.1l0,0c0,0.1,0.1,0.1,0.1,0.2l0,0l0.1,0.1l0,0c0.1,0.1,0.1,0.1,0.1,0.2l0,0c0.1,0.1,0.1,0.1,0.1,0.2
					s0,0.1,0,0.1v0.1c0,0.1,0,0.1,0,0.1v0.1v0.1v0.1v0.1V461.7C245.2,461.8,245.2,461.8,245.2,461.7z"/>
				<path class="st59" d="M242,460.1c0,1,0.7,2.2,1.6,2.7s1.6,0.1,1.6-0.9s-0.7-2.2-1.6-2.7C242.8,458.7,242,459.1,242,460.1z"/>
				<path class="st51" d="M244,463.7l0.8-0.5l0.1-0.1c0.3-0.2,0.5-0.6,0.5-1.2c0,0,0-0.1,0-0.2s0-0.1,0-0.1v-0.1l0,0
					c0-0.1,0-0.1,0-0.2s0-0.1,0-0.1l0,0v-0.1V461c0-0.1,0-0.1,0-0.1v-0.1c0-0.1,0-0.1,0-0.1v-0.1c0-0.1,0-0.1,0-0.1l0,0
					c0-0.1-0.1-0.1-0.1-0.2l0,0l0,0c-0.1,0-0.1-0.1-0.1-0.1c0-0.1,0-0.1,0-0.1c0-0.1,0-0.1,0-0.1c0-0.1,0-0.1,0-0.1
					c-0.1,0-0.1-0.1-0.1-0.1l0,0l0,0c0-0.1-0.1-0.1-0.1-0.2l0,0c0-0.1,0-0.1,0-0.1c-0.1,0-0.1-0.1-0.1-0.1c0-0.1,0-0.1,0-0.1
					c-0.1,0-0.1-0.1-0.1-0.1c0-0.1,0-0.1,0-0.1c-0.1-0.1-0.1-0.1-0.1-0.1l-0.1-0.1l0,0l0,0l-0.1-0.1l0,0l0,0
					c-0.1-0.1-0.1-0.1-0.1-0.1l-0.1-0.1c-0.1-0.1-0.1-0.1-0.1-0.1l-0.1-0.1c-0.1,0-0.1,0-0.1,0c-0.1,0-0.1-0.1-0.2-0.1
					s-0.1-0.1-0.2-0.1l0,0c-0.1,0-0.1,0-0.1,0h-0.1l0,0h-0.1l0,0h-0.1c-0.1,0-0.1,0-0.1,0c-0.1,0-0.1,0-0.1,0c-0.1,0-0.1,0-0.1,0
					l0,0h-0.1l0,0l0,0h-0.1l0,0l0,0c-0.1,0-0.1,0-0.1,0c-0.1,0-0.1,0-0.1,0l0,0l0,0c0,0.1-0.1,0.1-0.1,0.1l0,0l-0.8,0.5l1.6,2.5
					L244,463.7z"/>
				<path class="st52" d="M241,460.1c0,1.3,0.9,2.8,2,3.5c1.2,0.6,2.1,0.1,2.1-1.2c0-1.3-0.9-2.8-2-3.5
					C241.9,458.2,241,458.8,241,460.1z"/>
				<path class="st64" d="M241.6,460.4c0,0.9,0.7,2,1.5,2.5s1.5,0.1,1.5-0.8s-0.7-2-1.5-2.5C242.3,459.1,241.6,459.5,241.6,460.4z"
					/>
			</g>
		</g>
		<path class="st25" d="M258.6,471.7c0.4-0.4,1.5-1.6,1.7-2.1c0.2-0.6,0.7-2.7,0.5-3.2c-0.3-0.9-3.3-3.5-3.6-3.5
			c-0.4,1.1,0.3,2,0,3.4c-0.1,0.3-1.3,1.7-1.7,2.2v-1.1c0.6-0.9,0.5-1.3-0.1-2l-1.4,2.5c-0.1,0.7-0.4,1.7-0.3,2.1
			c0.2,0.7,0.9,1.7,0.7,2.3c-1,2.3-3.8,6.6-5.1,10.4c-1,3.1-1.2,4.9,0.6,5.7c2,1,2.9-0.1,3.7-1.7c1.7-3.3,3.3-11,3.7-13
			C257.6,472.9,257.8,472.5,258.6,471.7z"/>
		<g>
			<path class="st49" d="M228.2,546.2l5-1c2-0.4,3.1,1.1,2.5,2.6c-0.9,2.4-4.3,4.4-6.8,5.4c-0.7,0.3-1.3,0.3-2,0.6
				c-0.2,0-0.3,0.1-0.5,0.2c-1.4,0.9-4,1.2-5.3-0.2c-0.9-1-0.6-2.5-0.1-5.5l3.4-1.8L228.2,546.2z"/>
			<path class="st50" d="M226.7,552.9c4.1-1.4,8.6-4.2,9-6.5c0.2,0.5,0.2,1,0,1.5c-0.9,2.4-4.3,4.4-6.8,5.4c-0.7,0.3-1.3,0.3-2,0.6
				c-0.2,0-0.3,0.1-0.5,0.2c-1.4,0.9-4,1.2-5.3-0.2c-0.4-0.4-0.6-0.9-0.6-1.6C221.1,554,224,553.8,226.7,552.9z"/>
		</g>
		<g>
			<path class="st49" d="M234.6,550.3l5-1c2-0.4,3.1,1.1,2.5,2.6c-0.9,2.4-4.3,4.4-6.8,5.4c-0.7,0.3-1.3,0.3-2,0.6
				c-0.2,0-0.3,0.1-0.5,0.2c-1.4,0.9-4,1.2-5.3-0.2c-0.9-1-0.6-2.5-0.1-5.5l3.4-1.8L234.6,550.3z"/>
			<path class="st50" d="M233.1,557c4.1-1.4,8.6-4.2,9-6.5c0.2,0.5,0.2,1,0,1.5c-0.9,2.4-4.3,4.4-6.8,5.4c-0.7,0.3-1.3,0.3-2,0.6
				c-0.2,0-0.3,0.1-0.5,0.2c-1.4,0.9-4,1.2-5.3-0.2c-0.4-0.4-0.6-0.9-0.6-1.6C227.5,558.1,230.4,557.9,233.1,557z"/>
		</g>
		<path class="st65" d="M230.4,463.1c-2.8-0.1-3.8,0.9-4.5,3.6c-0.8,3.1-0.1,6.1,0.2,9.2c0.8,2.5,7.3,0.4,7.6-1.1
			c0.5-2.6,0.9-5.3,1-7.4C234.8,465.1,233.9,463.1,230.4,463.1z"/>
		<path class="st65" d="M228.2,463.6c-1.8,0.5,0.1,4.1,4.2,7.9c4.1,3.8,8.9,6.5,10.6,6c1.8-0.5-0.4-6-4.5-9.8
			C234.4,463.8,230,463,228.2,463.6z"/>
		<path class="st66" d="M220.1,516.7c-0.8-5.5-3.7-12.2-3-15.8c0.5-2.4,1.5-4.3,2.1-6.4c0.1-0.3,1.1-1.8,1.1-2.2l7.7,4.1
			c0.3,7.5,0.6,17.1,0.5,24.6c-0.2,1-0.4,1.7-0.8,2.2l0.8,0.7l0.2,22.5c0.3,0.1,0.5,0.2,0.7,0.3c1.4,0.8,0.6,2.6-1.8,4
			c-2.4,1.4-5.5,1.8-6.9,1c-0.4-0.2-0.6-0.5-0.7-0.8c0-0.1,0-0.1,0-0.1v-0.1l-0.6-27.1C219.5,522.1,220.3,518.6,220.1,516.7
			L220.1,516.7z"/>
		<path class="st67" d="M226,520.5c-0.8-5.5-3.6-12.7-3.4-16.4c0.1-2.5,0.8-5.9,1.4-8c0.1-0.3,2.2,0.2,2.2-0.2l8.3,4.6
			c0.3,7.5,0.7,17.1,0.6,24.6L235,528l0.6,23.6c0.3,0.9-0.5,2.1-2.2,3.1c-2.2,1.2-5,1.6-6.3,0.9c-0.3-0.2-0.5-0.4-0.6-0.7l0,0
			c0-0.1,0-0.1,0-0.1v-0.1c0-0.1,0-0.2,0-0.3l-0.6-26.8C226,526.2,226.2,522.4,226,520.5L226,520.5z"/>
		<path class="st65" d="M232.3,466.1c0.8,1.7,4.5,3.3,5.2,2.6c0.3,1.1,0.7,2,1.6,2.9l0.1,0.1c0.7,0.6,1.7,1.4,2.5,2.5h-0.1
			c2.1,2.5,2,4.2,1.2,7c-1.3,4.1-3.7,8.2-5.6,13.9c-0.8,2.5-1.3,5.3-2.1,8.4c-0.2,0.8-0.8,1.3-1.6,1.5c-2.6,0.8-8.5-1-11.9-4.2
			c-2.5-2.4-3-5-2.3-6.4c1.2-2.6,2.4-7.4,2.6-10.5c0.4-4.4,0.4-9.1,1.5-13.2c0.8-3.1,2.2-6.1,4.8-7.1c0.7-0.3,2,0.6,3,0.8
			C231.3,464.4,231.2,464.1,232.3,466.1z"/>
		<g>
			<path class="st25" d="M237.5,472c-1.5,2.1-1.9,4.5,3.1,9.1l8.2,6.8c2.6,1.9,5.9-2.3,3.8-4.4c-3.8-3.8-6.2-8.6-10-12.2
				C241.3,470.1,238.9,470.3,237.5,472z"/>
			<path class="st57" d="M237.3,472c-1.5,2.1-1.9,4.7,3.1,9.3l3.3,2.8c1.7,0,5.5-3.8,4.8-6.3c-1.9-2.3-3.8-4.7-5.8-6.5
				C241.4,470.1,238.8,470.1,237.3,472z"/>
		</g>
		<path class="st24" d="M242.7,456.9c-3,5.2-3.8,8.3-4.9,11.3c-0.3,0.6-0.8,1.4-0.9,1.4c-2.5,0.7-5.6-2.7-4.9-4.4
			c0.9-2.3,1.5-3,2-7.7L242.7,456.9z"/>
		<path class="st57" d="M232.6,463.7c-0.2,0.4,0.4,1.5,1.6,2.6c1.4,1.3,3,2.2,3.6,2c0-0.1,0.1-0.1,0.1-0.1l-0.8,1.9
			c0,0.2-0.1,0.3-0.2,0.3c-0.6,0.2-2.2-0.7-3.6-2c-1.3-1.2-1.9-2.3-1.6-2.6C232,465.1,232.4,464.1,232.6,463.7L232.6,463.7z"/>
		<path class="st25" d="M239.6,453.5l-3.2,7.4c0.2,0.6-0.7,2.7-0.1,3.6c0.9,1.3,3.5,1.7,4.1,1.5c0.9-0.3,2-3,2.3-4
			c0.3-1.2,0.8-3,1-4.3c0.2-1.6,0-2.6-0.4-3.9L239.6,453.5z"/>
		<path d="M241.1,450.3c2.4,1.1,3.5,3.2,4.6,2.8c0.4,2.1-0.8,2.5-1.5,3.1c-1.5,1.4-2.6,3.8-3.7,5.6c0.4-1.9,0.5-2.6,0-2.6
			c-1.3-0.1-1.4,2.4-3.4,4c-1.3,1-3.6,0.8-4.4,0c0.1-2.5-0.6-2.2-1.1-3.7C229.3,453.1,235.1,447.7,241.1,450.3z"/>
	</g>
	<g>
		<path class="st68" d="M362.6,332.8v-16.6l3.5,2.2l2.9,7.7c0.8,2.2,1.7,4.8,2.3,7.1l0.1,0c-0.3-2.4-0.4-4.7-0.4-7.1l-0.1-4.7
			l2.7,1.7l0.5,16.8l-3.3-2l-3-8.4c-0.8-2.3-1.7-5-2.4-7.3l-0.1,0c0.1,2.2,0.2,4.6,0.2,7.3l0,5.2L362.6,332.8z"/>
		<path class="st68" d="M384.3,338.9l-4.8-3l0.2,4.1l5.5,3.3l0.2,3.2l-8.6-5.2l-0.6-16.8l8,5l0.2,3l-5-3.1l0.2,3.4l4.8,3
			L384.3,338.9z"/>
		<path class="st68" d="M389.6,349.2l-4.2-18.8l3.1,1.9l1.4,7.4c0.4,2.2,0.9,4.5,1.2,6.4l0,0c0.1-1.7,0.2-3.6,0.4-5.5l0.6-6.1l3,1.9
			l1.6,7.6c0.5,2.2,0.8,4.1,1.2,6.1l0,0c0-1.8,0.1-3.6,0.2-5.5l0.4-6.1l2.8,1.8l-1.6,15l-3.2-1.9l-1.7-8.1c-0.4-1.9-0.7-3.6-1-5.6
			l0,0c-0.1,1.7-0.2,3.2-0.3,4.7l-0.6,6.7L389.6,349.2z"/>
		<path class="st68" d="M404.2,354.2c0.8,1,2.1,2.3,3.3,3c1.3,0.8,1.9,0.5,1.8-0.7c-0.1-1.1-0.8-2.1-2.4-3.7
			c-2.2-2.3-3.7-4.7-3.9-7.1c-0.3-2.8,1.2-3.9,4.1-2.1c1.4,0.9,2.4,1.9,3.2,2.8l-0.2,2.6c-0.5-0.6-1.4-1.6-2.6-2.4
			c-1.2-0.7-1.7-0.4-1.6,0.5c0.1,1.1,0.9,2,2.5,3.8c2.3,2.4,3.5,4.6,3.8,7.1c0.4,2.9-1,4.5-4.4,2.4c-1.5-0.9-2.9-2.3-3.7-3.3
			L404.2,354.2z"/>
	</g>
</g>
</svg>
