<?xml version="1.0" encoding="utf-8"?>
<!-- Generator: Adobe Illustrator 19.0.0, SVG Export Plug-In . SVG Version: 6.00 Build 0)  -->
<svg version="1.1" id="Ñëîé_1" xmlns="http://www.w3.org/2000/svg" xmlns:xlink="http://www.w3.org/1999/xlink" x="0px" y="0px"
	 viewBox="2 242.7 600 356.2" style="enable-background:new 2 242.7 600 356.2;" xml:space="preserve">
<style type="text/css">
	.st0{fill:#D3008D;}
	.st1{fill:#FF2C9C;}
	.st2{fill:#FFFFFF;}
	.st3{fill:#EFEFEF;}
	.st4{fill:#396CAA;}
	.st5{fill:#173D7A;}
	.st6{fill:#D4ECFF;}
	.st7{fill:#5793CE;}
	.st8{fill:#FFC2B0;}
	.st9{fill:#EA9C92;}
	.st10{fill:#699DD1;}
	.st11{opacity:0.7;fill:#FF2C9C;enable-background:new    ;}
	.st12{opacity:0.5;fill:#FF2C9C;enable-background:new    ;}
	.st13{opacity:0.5;fill:#396CAA;enable-background:new    ;}
	.st14{fill-rule:evenodd;clip-rule:evenodd;fill:#568FC7;}
	.st15{fill-rule:evenodd;clip-rule:evenodd;fill:#868789;}
	.st16{fill-rule:evenodd;clip-rule:evenodd;fill:#FFFFFF;}
	.st17{fill-rule:evenodd;clip-rule:evenodd;fill:#1B1918;}
</style>
<g>
	<g>
		<g>
			<path class="st0" d="M166,331.9l-29.4-17c-0.6-0.3-1.1-0.3-1.5-0.1l0,0l-2.9,1.7c0,0,1.3,0.5,2,0.7v21.4c0,1.7,1.1,3.8,2.4,4.5
				l28.1,16.3v2.5l2.9-1.7l0,0c0.5-0.3,0.8-1,0.8-1.9v-21.8C168.4,334.7,167.3,332.7,166,331.9z"/>
			<path class="st1" d="M163.1,361.8l-29.4-17c-1.3-0.8-2.4-2.8-2.4-4.5v-21.9c0-1.7,1.1-2.5,2.4-1.8l29.4,17
				c1.3,0.8,2.4,2.8,2.4,4.5V360C165.5,361.8,164.4,362.6,163.1,361.8z"/>
			<path class="st2" d="M163.8,333.1l-29.4-17c-0.8-0.5-1.6-0.3-2,0.3c0.4-0.1,0.8,0,1.3,0.2l29.4,17c1.3,0.8,2.4,2.8,2.4,4.5V360
				c0,0.6-0.1,1.2-0.4,1.5c0.7-0.2,1.1-0.9,1.1-2v-21.9C166.2,335.9,165.1,333.9,163.8,333.1z"/>
		</g>
		<g>
			<path class="st2" d="M143.6,337.3c0,1.3-0.9,1.8-2,1.1c-1.1-0.6-2-2.2-2-3.4s0.9-1.8,2-1.1C142.7,334.5,143.6,336,143.6,337.3z"
				/>
			<path class="st2" d="M149.6,340.8c0,1.3-0.9,1.8-2,1.1c-1.1-0.6-2-2.2-2-3.4s0.9-1.8,2-1.1C148.7,338,149.6,339.5,149.6,340.8z"
				/>
			<path class="st2" d="M155.6,344.2c0,1.3-0.9,1.8-2,1.1c-1.1-0.6-2-2.2-2-3.4s0.9-1.8,2-1.1C154.7,341.4,155.6,343,155.6,344.2z"
				/>
		</g>
	</g>
	<path class="st3" d="M338.7,463.6c-1.6-0.2-3.1-0.7-4.3-1.4c-3.7-2.1-3.7-5.6,0-7.7s9.7-2.1,13.3,0c1.2,0.7,2,1.6,2.4,2.5
		l25.5-14.7L321.3,411c-4.6-2.6-12-2.6-16.5,0l-54.3,31.3l25,14.4c-1,0.3-1.9,0.6-2.7,1.1c-3.7,2.1-3.7,5.6,0,7.7
		c3.7,2.1,9.7,2.1,13.3,0c0.8-0.5,1.4-1,1.9-1.5l25,14.4L338.7,463.6z"/>
	<path class="st3" d="M460.2,496.6l-54.3-31.3L380.4,480c-0.4-0.9-1.2-1.8-2.4-2.5c-3.7-2.1-9.7-2.1-13.3,0c-3.7,2.1-3.7,5.6,0,7.7
		c1.2,0.7,2.7,1.2,4.3,1.4l-25.5,14.7l26.3,15.2c0.1-1.3,1-2.5,2.7-3.5c3.7-2.1,9.7-2.1,13.3,0c3.7,2.1,3.7,5.6,0,7.7
		c-1.7,1-3.9,1.5-6.1,1.6l26.3,15.2l54.3-31.3C464.8,503.5,464.8,499.3,460.2,496.6z"/>
	<path class="st3" d="M261.2,518.4c-1.2-0.7-2.7-1.2-4.2-1.4l25.5-14.7l-25-14.4c-0.5,0.6-1.1,1.1-1.9,1.5c-3.7,2.1-9.7,2.1-13.3,0
		c-3.7-2.1-3.7-5.6,0-7.7c0.8-0.5,1.7-0.8,2.7-1.1l-25-14.4l-54.3,31.3c-4.6,2.6-4.6,6.9,0,9.5l54.3,31.3l25.5-14.7
		c0.4,0.9,1.2,1.7,2.4,2.4c3.7,2.1,9.7,2.1,13.3,0C264.9,524,264.9,520.5,261.2,518.4z"/>
	<path class="st3" d="M347.5,542.4c2.1-0.1,4.1-0.6,5.7-1.5c3.5-2,3.5-5.3,0-7.3s-9.1-2-12.6,0c-1.6,0.9-2.5,2.1-2.6,3.3l-24.8-14.3
		l-24.1,13.9c1.5,0.2,2.8,0.7,4,1.3c3.5,2,3.5,5.3,0,7.3s-9.1,2-12.6,0c-1.1-0.7-1.9-1.4-2.3-2.3l-24.1,13.9l51.3,29.6
		c4.3,2.5,11.3,2.5,15.6,0l51.3-29.6L347.5,542.4z"/>
	<g>
		<g>
			<path class="st0" d="M372,400.3l-48.8-28.2c-5.5-3.2-14.5-3.2-20,0l-51.1,29.6l-14.6-6v14.4l23.7,13.7v9.5
				c-0.1,1.8,1,3.5,3.3,4.9c4.5,2.6,11.7,2.6,16.2,0c1-0.6,1.7-1.2,2.3-1.9l30.3,17.5l30.9-17.8l0,0v-12.8c3.8-0.6,8,0,11,1.7
				c1.5,0.9,2.5,1.9,3,3l30.9-17.8v-14.4L372,400.3z"/>
			<path class="st2" d="M341.2,422.7l-0.5,0.7h0.3l-27.8,16L283,422c-0.5,0.7-1.3,1.3-2.3,1.9c-4.5,2.6-11.7,2.6-16.2,0
				c-1.8-1-2.9-2.3-3.2-3.7c-0.5,2,0.6,4.1,3.2,5.6c4.5,2.6,11.7,2.6,16.2,0c1-0.6,1.7-1.2,2.3-1.9l30.3,17.5l30.9-17.8v-1.9
				L341.2,422.7z"/>
			<path class="st1" d="M344.1,421.6c-1.9-0.3-3.7-0.9-5.2-1.7c-4.5-2.6-4.5-6.8,0-9.3c4.5-2.6,11.7-2.6,16.2,0c1.5,0.9,2.5,1.9,3,3
				l30.9-17.9l-65.7-38c-5.5-3.2-14.5-3.2-20,0l-65.7,38l30.3,17.5c-1.2,0.3-2.3,0.7-3.2,1.3c-4.5,2.6-4.5,6.8,0,9.3
				c4.5,2.6,11.7,2.6,16.2,0c1-0.6,1.7-1.2,2.3-1.9l30.3,17.5L344.1,421.6z"/>
			<g>
				<path class="st2" d="M267.8,413.2l-30.3-17.5v1.9l28.2,16.3C266.4,413.6,267,413.4,267.8,413.2z"/>
				<path class="st2" d="M358.1,413.5c-0.5-1.1-1.5-2.1-3-3c-4.5-2.6-11.7-2.6-16.2,0c-2.7,1.5-3.7,3.6-3.2,5.6
					c0.3-1.4,1.4-2.7,3.2-3.7c4.5-2.6,11.7-2.6,16.2,0c1.5,0.9,2.5,1.9,3,3l30.9-17.8v-1.9L358.1,413.5z"/>
			</g>
		</g>
		<g>
			<path class="st4" d="M465.3,458.3l-58.9-34l-30.9,17.8c-0.5-1.1-1.5-2.1-3-3c-1.6-0.9-3.5-1.5-5.5-1.8c-1-1.3-4.3-5.3-4.7-5.4
				c-0.4-0.1-9.4-2.7-9.4-2.7v14.5c0,1.7,1.1,3.4,3.3,4.7c1.5,0.9,3.3,1.4,5.2,1.7l-15.5,9l-15.4-5.5V468l31.8,18.4
				c0.2-1.5,1.3-3.1,3.3-4.2c2.4-1.4,5.6-2,8.8-1.9v13.2l31.8,18.4l65.7-38c2.8-1.6,4.2-3.8,4.1-5.9l0,0v-14.1L465.3,458.3z"/>
			<path class="st5" d="M362.5,460.8v25.5c0.2-1.5,1.3-3.1,3.3-4.2c4.5-2.6,11.7-2.6,16.2,0c1,0.6,1.7,1.2,2.2,1.9
				c2.4-0.7,4.9-1.2,7.4-1.3v-21.8L362.5,460.8L362.5,460.8z"/>
			<path class="st5" d="M406.4,424.3l-0.2,0.1v87.2l0.2,0.1l65.7-38c2.8-1.6,4.2-3.8,4.1-5.9l0,0v-14.1l-11,4.5L406.4,424.3z"/>
			<polygon class="st4" points="374.6,483.2 374.6,479 378.2,481.1 			"/>
			<path class="st2" d="M476.2,454.6c-0.4,1.8-1.7,3.5-4,4.8l-65.7,38l-27.7-16c0-0.4-0.2-1.3-0.2-1.3l-3.9-1v1.9l31.8,18.4l65.7-38
				C475.4,459.5,476.7,457,476.2,454.6z"/>
			<path class="st6" d="M472.2,447.9l-65.7-38l-30.9,17.8c-0.5-1.1-1.5-2.1-3-3c-4.5-2.6-11.7-2.6-16.2,0s-4.5,6.8,0,9.3
				c1.5,0.9,3.3,1.4,5.2,1.7l-30.9,18l31.8,18.4c0.2-1.5,1.3-3.1,3.3-4.2c4.5-2.6,11.7-2.6,16.2,0s4.5,6.8,0,9.3
				c-2,1.2-4.7,1.8-7.4,1.9l31.8,18.4l65.7-38C477.7,456.2,477.7,451.1,472.2,447.9z"/>
			<g>
				<path class="st2" d="M356.4,436c0.8,0.5,1.8,0.9,2.8,1.2l2.4-1.4c-1.9-0.3-3.7-0.9-5.2-1.7c-1.8-1-2.9-2.3-3.2-3.7
					C352.7,432.4,353.7,434.5,356.4,436z"/>
				<path class="st2" d="M385.2,473.4c0.5-2-0.6-4.1-3.2-5.6c-4.5-2.6-11.7-2.6-16.2,0c-2,1.2-3.1,2.7-3.3,4.2l-31.8-18.3v1.9
					l31.8,18.4c0.2-1.5,1.3-3.1,3.3-4.2c4.5-2.6,11.7-2.6,16.2,0C383.8,470.7,384.9,472,385.2,473.4z"/>
			</g>
		</g>
		<g>
			<path class="st5" d="M295.5,468v-14.3l-15.1,5.6l-15.2-8.8c-0.5,0.7-1.3,1.3-2.3,1.9c-4.5,2.6-11.7,2.6-16.2,0
				c-4.4-2.5-4.5-6.6-0.3-9.2l3.5,2v-17.8H239l-1.1,7.4l-18.3-10.5l-58.1,33.6l-11.7-4.2v14.4l0,0c0,2.1,1.4,4.2,4.1,5.8l65.7,38
				l30.9-17.8c0.5,1.1,1.5,2.1,2.9,2.9c4.5,2.6,11.7,2.6,16.2,0c2.3-1.3,3.4-3.1,3.3-4.9v-11L295.5,468z"/>
			<path class="st4" d="M219.7,424.3l-58.1,33.6l-11.7-4.2v14.4l0,0c0,2.1,1.4,4.2,4.1,5.8l65.7,38L219.7,424.3L219.7,424.3z"/>
			<path class="st2" d="M247.4,427.5l-0.4,1l0.1,0.1c-0.1,0.1-0.2,0.1-0.3,0.2c-2.7,1.5-3.7,3.6-3.2,5.6c0.3-1.4,1.4-2.7,3.2-3.7
				c1-0.6,2.1-1,3.2-1.3v-1.9L247.4,427.5z"/>
			<path class="st7" d="M269.7,473.2c-1.5-0.8-3.2-1.4-5.1-1.7l30.9-17.8l-30.3-17.5c-0.5,0.7-1.3,1.3-2.3,1.9
				c-4.5,2.6-11.7,2.6-16.2,0s-4.5-6.8,0-9.3c1-0.6,2.1-1,3.2-1.3L219.6,410l-65.7,38c-5.5,3.2-5.5,8.4,0,11.5l65.7,38l30.9-17.8
				c0.5,1.1,1.5,2.1,2.9,2.9c4.5,2.6,11.7,2.6,16.2,0C274.1,479.9,274.1,475.7,269.7,473.2z"/>
			<g>
				<path class="st2" d="M269.7,482.5c-4.5,2.6-11.7,2.6-16.2,0c-1.5-0.8-2.4-1.9-2.9-2.9l-30.9,17.8l-65.7-38
					c-2.3-1.3-3.7-3.1-4-4.8c-0.5,2.4,0.8,4.9,4,6.7l65.7,38l30.9-17.8c0.5,1.1,1.5,2.1,2.9,2.9c4.5,2.6,11.7,2.6,16.2,0
					c2.7-1.5,3.7-3.6,3.2-5.6C272.6,480.1,271.5,481.5,269.7,482.5z"/>
				<path class="st2" d="M264.6,471.5c0.8,0.1,1.6,0.3,2.4,0.6l28.5-16.4v-2L264.6,471.5z"/>
			</g>
		</g>
		<g>
			<path class="st0" d="M374.2,517.7l-17-9.8c2.7-0.1,5.3-0.7,7.4-1.9c1.9-1.1,2.9-2.4,3.2-3.8l0.1,0.1v-0.9c0,0,0,0,0-0.1v-14.4
				l-14.4,5.6l3.3,2.2c-3-0.1-6.1,0.6-8.4,1.9c-2,1.2-3.1,2.7-3.3,4.2l-31.8-18.4l-18.7,10.8l-1.9-6.5l-10.2-0.9v16l3.1-0.8
				c0.7,0.3,1.3,0.5,2,0.9c4.5,2.6,4.5,6.8,0,9.3c-4.5,2.6-11.7,2.6-16.2,0c-1.5-0.8-2.4-1.9-2.9-2.9l-17.1,9.9l-13.8-6.4v14.4
				l65.7,38c5.5,3.2,14.5,3.2,20,0l65.7-38v-14.4L374.2,517.7z"/>
			<path class="st2" d="M287.5,487.7c-0.7-0.4-1.5-0.7-2.3-1l-0.3-0.5l-2.5-0.2v1.9c1.9,0.3,3.6,0.9,5.1,1.7c1.8,1,2.9,2.3,3.2,3.7
				C291.2,491.3,290.1,489.2,287.5,487.7z"/>
			<path class="st1" d="M357.2,493.5c2.7-0.1,5.3-0.7,7.4-1.9c4.5-2.6,4.5-6.8,0-9.3c-4.5-2.6-11.7-2.6-16.2,0
				c-2,1.2-3.1,2.7-3.3,4.2l-31.8-18.4l-30.9,17.8c1.9,0.3,3.6,0.9,5.1,1.7c4.5,2.6,4.5,6.8,0,9.3c-4.5,2.6-11.7,2.6-16.2,0
				c-1.5-0.8-2.4-1.9-2.9-2.9l-30.9,17.8l65.7,38c5.5,3.2,14.5,3.2,20,0l65.7-38L357.2,493.5z"/>
			<g>
				<path class="st2" d="M367.7,487.9c-0.3,1.4-1.4,2.7-3.2,3.7c-2,1.2-4.7,1.8-7.4,1.9l2.8,1.6c1.7-0.3,3.2-0.8,4.6-1.6
					C367.2,492,368.2,489.9,367.7,487.9z"/>
				<path class="st2" d="M323.2,549.8c-5.5,3.2-14.5,3.2-20,0l-65.7-38v1.9l65.7,38c5.5,3.2,14.5,3.2,20,0l65.7-38v-1.9L323.2,549.8
					z"/>
			</g>
		</g>
		<g>
			<path class="st4" d="M241.6,469.6c-11.8,6.8-31,6.8-42.8,0c-11.8-6.8-11.8-17.9,0-24.7c11.8-6.8,31-6.8,42.8,0
				C253.4,451.7,253.4,462.8,241.6,469.6z"/>
			<g>
				<path class="st1" d="M205.6,278.2c0,0,0.7,13.6,1.7,22.7s23-7,23-7v-10.4L205.6,278.2z"/>
				<g>
					<path class="st5" d="M217.4,447.4c0.3,0.8,6,7.8,11.7,9.5c2.5,0.8,4.1,0.9,5.2,0.7c1.1-0.1,1.8-1.3,1.4-2.3
						c-1-2.8-3.8-8.5-10.9-12.1C215.1,438.5,217.4,447.4,217.4,447.4z"/>
					<path class="st5" d="M215.5,450.1c0,0,2.1,5,2.8,9.3c0.4,2.6-1,5.9-2.2,8.1c-0.7,1.4-2.5,1.7-3.7,0.6c-1.9-1.7-4.2-4.6-4.6-8.8
						c-0.7-7.1,0-8.3,0-8.3L215.5,450.1z"/>
					<path class="st6" d="M201.7,364.1c0,0-0.7,9,0,18.9s3.4,56.3,3.9,67.5c0,0-0.2,3.4,6.3,2.6c6.5-0.7,6-4.5,6-4.5
						s9.2-0.1,9.5-5.5s9.4-64.6,9.4-85.9L201.7,364.1z"/>
					<g>
						<path class="st8" d="M240.2,317.8l4.5,7l15.5,18.7c0,0-0.5,1.7-2.5,2.2c-1.5,0.4-14.5-12.1-20.1-17.5
							c-1.5-1.4-1.7-3.7-0.6-5.5L240.2,317.8z"/>
						<path class="st7" d="M231.4,289.2c0,0,7.1-0.2,9.6,10.1c2.5,10.3,4.4,23.3,2.3,24.3c-6.5,3.2-10.6-0.5-10.6-0.5L231.4,289.2z"
							/>
						<path class="st7" d="M233.6,289.6c-1.2-0.5-2.6-0.6-3.9-0.2c-6.1,1.7-29,8.5-32.8,11.7c-4.4,3.7,6.5,24.7,6.4,31.5
							c-0.2,6.9-0.9,15-1.5,22.4c-0.6,7.5-1.4,11.6,4.7,14.7c6.1,3.2,16.5,3.3,24.3-2.6s6.4-10,6.1-14.3c-0.3-4.3-3-23-2.8-28.3
							c0,0,2.7-2,4.8-5.5c2-3.5-1.6-9.9-3.1-14c-1.5-4.2,0.8-8.9,0.4-12.3C236,291,234.9,290.2,233.6,289.6z"/>
						<path class="st2" d="M216.1,303.7l2.6,3c0.3,0.4,0.5,0.9,0.4,1.4l-2.3,15.9c-0.1,0.4,0,0.9,0.3,1.3l5.6,7.7
							c0.2,0.3,0.8,0.3,0.9-0.1l3.4-9.8c0.1-0.4,0.1-0.8,0-1.1l-5.1-14.6c-0.1-0.3-0.1-0.7-0.1-1l0.9-3.8L216.1,303.7z"/>
						
							<ellipse transform="matrix(-0.1271 -0.9919 0.9919 -0.1271 -50.0812 551.6766)" class="st2" cx="217.7" cy="297.9" rx="6.9" ry="8.7"/>
						
							<ellipse transform="matrix(-0.1271 -0.9919 0.9919 -0.1271 -50.0806 551.6761)" class="st8" cx="217.7" cy="297.9" rx="4.9" ry="6.2"/>
						<path class="st8" d="M220.4,288.2c0,0-4.1-3.4-4.9-1.7c-0.8,1.7-1.5,9.1-1.5,9.1l8.2,2.2l-1.2-7.5
							C221,290.4,222.6,289,220.4,288.2z"/>
						<circle class="st8" cx="221" cy="279.4" r="12.3"/>
						<path class="st9" d="M214.9,288.7c-0.1,0.4-0.1,0.8-0.2,1.2c0.8,4.3,7.2,6.1,7.2,6.1l-0.9-5.7c0,0,0.8-0.7,0.6-1.3
							C219,288.3,215.8,287.6,214.9,288.7z"/>
						<circle class="st8" cx="221" cy="279.4" r="12.3"/>
						<polygon class="st8" points="190.8,331.3 192.2,364.1 197,364.6 200.1,335.1 						"/>
						<path class="st4" d="M206.6,328.5c-0.3-1.1-2.4-2.1-2.7-3.6c-1.6-7.6-2-18.9-2-18.9l-1.3,15.4c1.5,4.6,2.9,8.8,2.8,11.2
							c-0.1,4-0.4,8.5-0.8,13l0,0C202.6,345.6,208.2,335.5,206.6,328.5z"/>
						<path class="st7" d="M197.9,300.4c0,0-3.8,1.5-6,13.2c-2.2,11.8-3.8,23.6,0.1,25.1c3.9,1.5,7.1,2.7,8.2-0.5
							c1.1-3.1,1.8-18.3,2-23.8C202.3,309,202.5,301.5,197.9,300.4z"/>
						<path class="st8" d="M259,342.1c0,0,2.1,0.8,3.6,2.4c1.2,1.3,1.9,2.5,2.4,3.3c1.2,1.8,2.2,5.6,1.5,6.1s-4.9-6.4-5.6-4.8
							s0,3.1-0.9,3.1s-3.9-7-6.2-9.1C251.5,340.9,259,342.1,259,342.1z"/>
					</g>
					<path class="st4" d="M217.9,448.6c0,0,1.1,0,2.6-0.3l0,0l1.8-72.1L217.9,448.6z"/>
				</g>
				<g>
					<path class="st4" d="M211,409.7l-2.6-3.3l-26.8-15.5c-0.9-0.5-1.6-1.8-1.6-3v-22l-1.5-2l1.4-0.8l0,0c0.3-0.2,0.6-0.2,1.1,0.1
						l30.4,17.6c0.9,0.5,1.6,1.8,1.6,3v23.9c0,0.6-0.2,1.1-0.6,1.3l0,0L211,409.7z"/>
					<path class="st4" d="M192.4,397.1l-1.9-1.1L180,377.8v-11.9l-1.5-2l1.4-0.8l0,0c0.3-0.2,0.6-0.2,1.1,0.1l30.4,17.6
						c0.5,0.3,0.9,0.8,1.1,1.3L192.4,397.1z"/>
					<path class="st4" d="M179.2,364.8l-0.7-0.9l1.4-0.8l0,0c0.3-0.2,0.6-0.2,1.1,0.1l0.5,0.3L179.2,364.8z"/>
					<path class="st4" d="M211.7,380.9c0.7,0.6,1.2,1.6,1.3,2.6l-3,1.7l-1.4-2.5L211.7,380.9z"/>
					<path class="st6" d="M210,381.5l-30.4-17.6c-0.9-0.5-1.6,0-1.6,1.2V389c0,1.1,0.7,2.5,1.6,3l30.4,17.6c0.9,0.5,1.6,0,1.6-1.2
						v-23.9C211.6,383.4,210.9,382,210,381.5z"/>
					<path class="st2" d="M210.5,381.3l-30.4-17.6c-0.5-0.3-1-0.2-1.2,0.1c0.2,0,0.5,0,0.8,0.2l30.4,17.6c0.9,0.5,1.6,1.8,1.6,3
						v23.9c0,0.5-0.1,0.8-0.3,1.1c0.5-0.1,0.8-0.6,0.8-1.3v-23.9C212,383.1,211.3,381.7,210.5,381.3z"/>
				</g>
				<polygon class="st2" points="203.8,398.7 202.3,397.8 202.3,385.4 203.8,386.2 				"/>
				<polygon class="st2" points="200.4,396.7 198.9,395.9 198.9,383.5 200.4,384.3 				"/>
				<polygon class="st2" points="197,394.8 195.5,393.9 195.5,381.5 197,382.3 				"/>
				<path class="st8" d="M192.2,363.8c0,0-1.3,7.7-1.1,10.1s1.5,6.5,2.5,6.4s0-9.9,1.8-8.9c1.7,1,1.9,2.6,2.7,2.1
					c0.8-0.6-1.4-8.9-0.8-12.6C197.9,357.3,192.2,363.8,192.2,363.8z"/>
				<path class="st9" d="M225.7,280.5c6.1,2.2,7.3,0.9,7.4,0.8c0.1-0.4,0.1-0.7,0.1-1.1c0.1-1.4-0.1-2.7-0.4-3.9l-16-2.2
					C216.9,274.1,219.4,278.2,225.7,280.5z"/>
				<path class="st1" d="M233.7,267.9c-1.4-1.2-6.7-7.4-16-5.9c-5.9,0.9-10.8,4.9-11.9,14c-0.7,6.1,1.5,12.2,5.7,16.7
					c0.2-0.1,0.5-0.2,0.7-0.3c2.3-1.5,2.6-2.4,2.6-2.4l0.5-4.6c0-0.7-0.5-1.2-1.2-1.3c-0.5,0-1.1-0.3-1.7-1c-1.3-1.8-0.7-4.5,2-4.6
					c1.4-0.1,2-0.8,2.1-1.5c0.2-0.6,0.8-1,1.4-0.7c3.1,1.1,10.6,3.5,15.5,2.1C239.6,276.4,235.1,269.2,233.7,267.9z"/>
				<path class="st2" d="M226.7,286l3.7-1c0,0-1.8,2.8-4.4,3.5c-2.6,0.7-3-1.5-3-1.5L226.7,286z"/>
				<polygon class="st4" points="198.6,373.3 195.4,371.4 196.6,373.4 198.2,374 				"/>
			</g>
			<circle class="st2" cx="212.6" cy="283.2" r="1.3"/>
		</g>
		<g>
			<g>
				<path class="st10" d="M427,465.3c-11.6,6.7-30.5,6.7-42.1,0c-11.6-6.7-11.6-17.6,0-24.3c11.6-6.7,30.5-6.7,42.1,0
					C438.7,447.7,438.7,458.6,427,465.3z"/>
				<g>
					<g>
						<g>
							<path class="st5" d="M407.7,444.1c-0.3,0.8-6.1,7.8-11.8,9.5c-2.5,0.8-4.2,0.9-5.3,0.7c-1.1-0.1-1.8-1.3-1.4-2.3
								c1-2.8,3.8-8.6,11-12.1C410,435.1,407.7,444.1,407.7,444.1z"/>
							<path class="st5" d="M409.6,446.8c0,0-2.2,5.1-2.8,9.3c-0.4,2.6,1,5.9,2.2,8.2c0.7,1.4,2.6,1.7,3.7,0.6
								c1.9-1.7,4.3-4.6,4.6-8.9c0.7-7.1,0-8.4,0-8.4L409.6,446.8z"/>
							<path class="st6" d="M423.4,360.5c0,0,0.7,9,0,19s-3.4,56.5-3.9,67.7c0,0,0.2,3.4-6.3,2.6c-6.6-0.7-6-4.5-6-4.5
								s-9.2-0.1-9.5-5.6c-0.3-5.4-9.4-64.9-9.4-86.3L423.4,360.5z"/>
							<path class="st4" d="M407.2,445.3c0,0-1.1,0-2.6-0.3l0,0l-1.8-72.4L407.2,445.3z"/>
							<path class="st7" d="M413.7,294.4c14.9,6.2,14.6,15,14.6,15s-2.9,32.3-1.9,53.9c0.4,9-47.9,9.7-40.7-14.3
								c8.5-28.4,5.3-51.3,9.3-54.8C398.9,290.7,409.8,292.8,413.7,294.4z"/>
							
								<ellipse transform="matrix(0.2494 -0.9684 0.9684 0.2494 17.7286 623.3976)" class="st8" cx="411" cy="300.3" rx="5.7" ry="7.7"/>
							<path class="st2" d="M412.2,307c-0.9,0-1.8-0.1-2.8-0.4c-2.2-0.6-4.1-1.7-5.3-3.3c-1.3-1.6-1.8-3.5-1.4-5.3s1.8-3.2,3.7-3.9
								c1.9-0.7,4.1-0.8,6.3-0.3c2.2,0.6,4.1,1.7,5.3,3.3c1.3,1.6,1.8,3.5,1.4,5.3c-0.5,1.8-1.8,3.2-3.7,3.9
								C414.6,306.8,413.4,307,412.2,307z M409.9,295.4c-1,0-1.9,0.2-2.8,0.5c-1.4,0.6-2.3,1.5-2.6,2.7c-0.3,1.2,0.1,2.4,1,3.6
								c1,1.2,2.6,2.2,4.4,2.6c1.8,0.5,3.6,0.4,5.1-0.2c1.4-0.6,2.3-1.5,2.6-2.7c0.3-1.2-0.1-2.4-1-3.6c-1-1.2-2.6-2.2-4.4-2.6
								C411.4,295.5,410.7,295.4,409.9,295.4z"/>
							<path class="st8" d="M407.7,293.7c0,0,0.1,0.6-0.1,5.3c-0.1,1.5,5.1,2.9,6.5,1.5c1.3-1.3,0.8-2.7,1.1-7.8
								C415.5,287.7,407.7,293.7,407.7,293.7z"/>
							<path class="st9" d="M415.2,292.8c0,0-1.3,4.7-7.6,6.5l0.1-4.3L415.2,292.8z"/>
							<circle class="st8" cx="408.1" cy="283.8" r="11.5"/>
							<path class="st9" d="M410.7,284.2c0,0-6.3,2.7-10.7,2.7c-4.4,0-3.4-3.6-3.4-3.6l13-1.9L410.7,284.2z"/>
							<path class="st1" d="M398.7,284.9c0,0,5.5-2.3,10.3-1.4c1.1,0.2,2.2,0.8,2.9,1.7c0.2,0.3,0.5,0.6,0.9,0.6
								c0.9,0.2,2.3-3.4,3.9-3.4s2.8,1.1,1.4,3.3c-1.4,2.2-0.9,4.6-0.3,5c0.6,0.4,7.3-4.7,1.4-16.4c-5.9-11.6-20.8-5.4-23.1-3
								c0,0-2.4,2.1-4.4,0.2C391.8,271.6,389.5,288.3,398.7,284.9z"/>
							<path class="st8" d="M387.7,291.8l-8-3.5c-0.9-0.4-1.6-1.2-2-2.1l-7.9-22.9l-3.7,0.6l6.4,28.5c0.3,1.3,1.1,2.5,2.3,3.1
								l13.3,7.5L387.7,291.8z"/>
						</g>
						<path class="st8" d="M471,295.5l1.8-0.8c1.6-0.7,3-1.7,4.2-2.9l1.3-1.3c0.7-0.7,0.9-1.8,0.5-2.7l0,0c-0.3-0.7-1.2-1-1.9-0.7
							l-3.8,1.9c0,0,0.6-1.7,0.3-2.1c-0.3-0.4-3.3,2.8-4.6,5.2C467.5,294.3,471,295.5,471,295.5z"/>
						<path class="st8" d="M439.1,304.7l6.9-0.8c1.6-0.2,3.2-0.7,4.6-1.5L469,292l2.2,3.5L452.4,310c-0.6,0.4-1.2,0.8-1.9,1.1
							l-11.2,4.8L439.1,304.7z"/>
						<path class="st8" d="M366.1,263.9l-0.7-0.8c-0.8-0.9-1.3-2.1-1.5-3.3l-0.5-3.3c-0.2-1,0.3-2.1,1.1-2.7c0,0,0.1,0,0.1-0.1
							c0.9-0.6,2.1-0.2,2.5,0.8l1.6,4c0,0-0.5-2.1,0.1-2.3c0.5-0.2,1.4,2.4,0.9,3.8s0,3.3,0,3.3L366.1,263.9z"/>
						<path class="st2" d="M403.5,291.7l-3-0.8c0,0,1.4,2.2,3.5,2.8c2.1,0.6,2.4-1.2,2.4-1.2L403.5,291.7z"/>
					</g>
				</g>
				<path class="st7" d="M399.1,292.5c0,0-13.4-2.6-17.5-3.9c-4.1-1.2-5.8,10-5.5,12.8s14.2,6,15.9,10.9
					C393.7,317.2,399.1,292.5,399.1,292.5z"/>
				<path class="st7" d="M419.5,297.4c0,0,9.8,4.2,26.2,6.2c0.7,0.1,1.2,0.5,1.5,1.2c0.6,1.8,1.7,5.8,0.9,9.8
					c-0.3,1.7-1.9,2.9-3.6,2.8c-5.1,0-16.2,0.5-17.9,5.2C424.1,329,419.5,297.4,419.5,297.4z"/>
				<path class="st2" d="M413.8,306.2l-2.7,2.9c-0.3,0.4-0.5,0.9-0.5,1.4l1.8,15.9c0.1,0.4-0.1,0.9-0.3,1.3l-5.8,7.5
					c-0.3,0.3-0.8,0.2-0.9-0.2l-3.1-9.9c-0.1-0.4-0.1-0.8,0-1.1l5.5-14.5c0.1-0.3,0.1-0.7,0.1-1l-0.8-3.8L413.8,306.2z"/>
			</g>
			<path class="st4" d="M443.1,314.5c-2.9,0.3-10.1,1-15.6,1.4c-3.2,0.3-5.3,3.3-4.5,6.4c2.9,11.3-1,29.5-0.3,35.7
				c0.8,7.4-3.6,10.2-3.6,10.2c4.4-1,7.4-2.7,7.3-5c-0.6-13.2,0.3-30.5,1-41.9c3.2-3.5,12.6-3.9,17.1-3.9c1.7,0,3.2-1.2,3.5-2.9
				c0.4-2.1,0.3-4.2,0.1-6C448.1,308.7,448.1,313.9,443.1,314.5z"/>
		</g>
		<g>
			<path class="st0" d="M292.3,527.9c13.8,7.9,36.1,7.9,49.8,0c13.8-7.9,13.8-20.8,0-28.8s-36.1-7.9-49.8,0
				C278.5,507.1,278.5,519.9,292.3,527.9z"/>
			<g>
				<path class="st5" d="M295.6,502.7c-2.5,1-4,3.8-3.8,6.7c0.1,1.4,0.3,2.7,0.6,3.3c0.8,1.6,3.3,3.9,7.4,2.3
					c4.1-1.6,13.2-10.1,13.5-15.7C313.9,488.9,302,499.9,295.6,502.7z"/>
				<path class="st5" d="M319.6,519.9c0,0-1,6-0.5,7.1c0.5,1.1,3.3,3.4,7.5,2.9s16.3-4.7,19-12.6c4.2-12.4-23.3,0.9-23.3,0.9
					L319.6,519.9z"/>
				<path class="st6" d="M331.4,424.3l0.9,93.3c-0.1,3.2-2.2,6-5.1,6.5c-0.4,0.1-0.7,0.1-1.1,0.1c-2.9,0.3-4.6-1-5.5-2.3
					c-0.8-1.1-1.2-2.4-1.2-3.8l-1.2-39.8l-5.9-35.6l-8.2,63c-0.1,1.7-0.9,3.3-2.3,4.2c-0.9,0.6-2.1,1.1-3.8,1c-2.4-0.1-4-1.3-5-2.5
					c-0.8-0.9-1.2-2.1-1.2-3.4l3.3-37.9l1.2-48.4L331.4,424.3z"/>
				<path class="st8" d="M319.3,340.8l-1.5,8.5c0,0-0.1,2.9,3.2,3.7c3.2,0.8,4.2-1.3,4.2-1.3l1.5-9.6L319.3,340.8z"/>
				<path class="st8" d="M337.2,336.1c-2.3,7.3-9.4,11.5-15.9,9.4s-9.9-9.7-7.6-16.9c2.3-7.3,9.4-11.5,15.9-9.4
					C336.1,321.2,339.5,328.8,337.2,336.1z"/>
				<path class="st7" d="M319.7,349.4c-0.2-0.1-13.7-8.8-18.7,0.3c-8.1,14.9-2.2,31.9-5.1,68.9c-0.5,6.2,8.3,10,12.5,12.3
					c3.7,2.1,7.9,3.4,12.1,3.4s12.3-3.7,12-9.2c-1.4-25.4,0.9-46.8,3-67.6C335.5,357.6,332.9,354.8,319.7,349.4z"/>
				<path class="st4" d="M312.2,442.7l-8.2,63c-0.1,1.7-0.9,3.3-2.3,4.2c-0.2,0.1-0.5,0.3-0.7,0.4c1.7-1.3,6.7-54.2,7.6-60.1
					S312.2,442.7,312.2,442.7z"/>
			</g>
			<polygon class="st8" points="363.5,357.1 374.9,334.7 371.3,332.4 359.6,349.5 			"/>
			<polygon class="st8" points="288.9,333.3 294.4,308.2 298.8,308.3 297.1,329 			"/>
			<path class="st7" d="M335.5,357.6c0,0,12.7,5,23.5-8.7c1-1.2,2.9-1.1,3.5,0.2c1,2.2,2.2,5.6,0.7,8.8c-6.6,14.1-29,13.6-34.4,21.5
				C323.4,387.3,335.5,357.6,335.5,357.6z"/>
			<path class="st7" d="M311.1,346.3c0,0-10.5,0.8-12-8.2c-0.8-4.7-1-7.4-1.1-9c0-1.1-1-1.9-2-1.8c-2.5,0.3-6.4,1.1-6.9,2.7
				c-0.8,2.5-2.3,14.8,8.1,33.6C304,376,311.1,346.3,311.1,346.3z"/>
			<path class="st8" d="M294.4,308.3l0.1-2.9c0-1,0.3-2,0.9-2.9l2.9-4.8l0.8-1c0.7-0.9,1.9-1.1,2.9-0.5l0.7,0.4
				c0.8,0.5,1.3,1.5,1.3,2.5l-1.5,4.1l1.9-0.4c0.4-0.1,0.7,0.2,0.8,0.5l0,0c0.1,0.3-0.1,0.6-0.4,0.7l-3.1,1.2l-2.8,4L294.4,308.3z"
				/>
			<path class="st8" d="M374.9,334.8l1.3-2.5c0.5-0.9,0.7-1.9,0.7-2.9l-0.2-5.6l-0.2-1.2c-0.2-1.1-1.2-1.9-2.3-1.9h-0.8
				c-1,0-1.9,0.6-2.3,1.5l-0.7,4.3l-1.5-1.3c-0.3-0.2-0.7-0.2-1,0.1l0,0c-0.2,0.2-0.2,0.6,0,0.8l2.1,2.6l0.5,5.4L374.9,334.8z"/>
			<path class="st4" d="M327.2,376.6c-1.1,5,5.5,42.9-1.8,56.7c3.7-1.5,7.3-4.4,7.1-8.2c-1-18.2-0.1-34.3,1.2-49.6
				c6.3-3.2,16.2-5.1,23.1-10.2C349.4,368.1,328.2,372.1,327.2,376.6z"/>
			<path class="st2" d="M314.8,347l1.9-1.9c0,0,3.1,3.2,5.6,3.7c0,0,3,0.8,4.4,0.9l1.2,3.3C327.9,353,318.1,352.3,314.8,347z"/>
			<path class="st5" d="M328.4,336.3c0.5,0,1-0.2,1.3-0.7c0.5-0.7,0.2-4.2,1.8-4.7c2.5-0.9,8.3,2.2,9-6.7c0.3-4.6-1.9-5.9-1.9-8.4
				c0,0,0.2,1.3-11.7,0.5c-11.9-0.8-15.8,9.8-16.1,14.8c-0.3,5,2.2,13.3,10.3,14.5c1.4,0.2,7-4.4,6.9-5s-2.3-0.6-2-2.3
				C326.1,336.9,327,336.4,328.4,336.3z"/>
		</g>
	</g>
</g>
<path class="st11" d="M86.9,383.4c-25.1,0-45.5,20.4-45.5,45.5s20.4,45.5,45.5,45.5s45.5-20.4,45.5-45.5S112,383.4,86.9,383.4z
	 M97.9,398.4l-11.3,17.2l-11.1-17C82.4,394.1,91.1,394.1,97.9,398.4z M65.1,420.7c0-6.5,1.6-11.8,4.2-15.8l12.2,18.7l-10.6,16.1
	C67.2,433,64.8,426.5,65.1,420.7z M86.9,462.6c-3.7-4.7-7.6-9.7-11-14.7l10.7-16.3l11,16.7C94.3,453.2,90.5,458,86.9,462.6z
	 M102.7,440l-10.8-16.5l12.4-19c2.7,4.1,4.4,9.4,4.4,16.1C109,426.6,106.5,433.3,102.7,440z"/>
<circle class="st12" cx="104.3" cy="272.3" r="17.4"/>
<circle class="st4" cx="535.2" cy="388.4" r="26.1"/>
<circle class="st13" cx="202.3" cy="555.4" r="17.6"/>
<circle class="st6" cx="501.2" cy="546.2" r="32.7"/>
<path class="st14" d="M942,293.5l-2.2,1.9c-0.8-1.1-1.5-1.6-2.3-1.6c-0.4,0-0.7,0.1-0.9,0.3c-0.2,0.2-0.4,0.4-0.4,0.7
	c0,0.3,0.1,0.5,0.3,0.7c0.2,0.3,1,1,2.2,2c1.1,0.9,1.8,1.5,2,1.8c0.6,0.6,1,1.2,1.3,1.7c0.2,0.6,0.4,1.1,0.4,1.8
	c0,1.3-0.4,2.3-1.3,3.1c-0.9,0.8-2,1.2-3.4,1.2c-1.1,0-2.1-0.3-2.9-0.8c-0.8-0.5-1.5-1.4-2.1-2.5l2.5-1.5c0.7,1.4,1.6,2,2.6,2
	c0.5,0,0.9-0.1,1.3-0.4c0.3-0.3,0.5-0.6,0.5-1c0-0.3-0.1-0.7-0.4-1.1c-0.3-0.3-0.8-0.9-1.7-1.6c-1.7-1.4-2.8-2.4-3.3-3.2
	c-0.5-0.7-0.7-1.5-0.7-2.2c0-1.1,0.4-2,1.2-2.8c0.8-0.8,1.8-1.1,3-1.1c0.8,0,1.5,0.2,2.2,0.5C940.5,291.9,941.2,292.6,942,293.5z
	 M910.2,291.4h2.8l6.6,10.2v-10.2h2.9v15.4h-2.8l-6.6-10.1v10.1h-2.9V291.4z M891.6,293.9c-1.4,0-2.6,0.5-3.6,1.5
	c-1,1-1.5,2.3-1.5,3.8c0,1.7,0.6,3.1,1.8,4c1,0.8,2,1.2,3.3,1.2c1.4,0,2.6-0.5,3.5-1.5c1-1,1.5-2.2,1.5-3.7c0-1.5-0.5-2.7-1.5-3.7
	C894.2,294.4,893,293.9,891.6,293.9z M891.6,291c2.2,0,4.1,0.8,5.6,2.4c1.6,1.6,2.4,3.5,2.4,5.8c0,2.3-0.8,4.2-2.3,5.7
	c-1.5,1.6-3.4,2.3-5.6,2.3c-2.3,0-4.2-0.8-5.8-2.4c-1.5-1.6-2.3-3.5-2.3-5.7c0-1.5,0.4-2.8,1.1-4.1c0.7-1.2,1.7-2.2,2.9-2.9
	C888.8,291.4,890.2,291,891.6,291z M870.3,291.4h2.9v15.4h-2.9V291.4z M852.2,291.4h8.5v2.9h-2.8v12.5h-3v-12.5h-2.7V291.4z
	 M832,291.4h2.9v10c0,0.9,0.1,1.5,0.2,1.8c0.2,0.4,0.4,0.6,0.7,0.9c0.3,0.2,0.8,0.3,1.3,0.3c0.5,0,1-0.1,1.3-0.4
	c0.4-0.2,0.6-0.5,0.8-0.9c0.1-0.4,0.2-1.1,0.2-2.1v-9.6h2.9v9.2c0,1.6-0.1,2.6-0.3,3.2c-0.2,0.6-0.5,1.2-1,1.7
	c-0.5,0.6-1.1,1-1.7,1.2c-0.6,0.3-1.4,0.4-2.2,0.4c-1.1,0-2.1-0.3-2.9-0.8c-0.8-0.5-1.4-1.2-1.8-1.9c-0.4-0.8-0.5-2.1-0.5-3.9V291.4
	z M814.8,291.4h2.9v12.6h4.3v2.8h-7.2V291.4z M796.2,293.9c-1.4,0-2.6,0.5-3.6,1.5c-1,1-1.5,2.3-1.5,3.8c0,1.7,0.6,3.1,1.8,4
	c0.9,0.8,2,1.2,3.3,1.2c1.4,0,2.6-0.5,3.5-1.5c1-1,1.5-2.2,1.5-3.7c0-1.5-0.5-2.7-1.5-3.7C798.8,294.4,797.6,293.9,796.2,293.9z
	 M796.2,291c2.2,0,4.1,0.8,5.6,2.4c1.6,1.6,2.4,3.5,2.4,5.8c0,2.3-0.8,4.2-2.3,5.7c-1.5,1.6-3.4,2.3-5.6,2.3c-2.3,0-4.2-0.8-5.8-2.4
	c-1.5-1.6-2.3-3.5-2.3-5.7c0-1.5,0.4-2.8,1.1-4.1c0.7-1.2,1.7-2.2,2.9-2.9C793.4,291.4,794.8,291,796.2,291z M778,293.5l-2.2,1.9
	c-0.8-1.1-1.5-1.6-2.3-1.6c-0.4,0-0.7,0.1-0.9,0.3c-0.2,0.2-0.4,0.4-0.4,0.7c0,0.3,0.1,0.5,0.3,0.7c0.2,0.3,1,1,2.2,2
	c1.1,0.9,1.8,1.5,2,1.8c0.6,0.6,1,1.2,1.3,1.7c0.2,0.6,0.4,1.1,0.4,1.8c0,1.3-0.4,2.3-1.3,3.1c-0.9,0.8-2,1.2-3.4,1.2
	c-1.1,0-2.1-0.3-2.9-0.8c-0.8-0.5-1.5-1.4-2.1-2.5l2.5-1.5c0.7,1.4,1.6,2,2.6,2c0.5,0,0.9-0.1,1.3-0.4c0.3-0.3,0.5-0.6,0.5-1
	c0-0.3-0.1-0.7-0.4-1.1c-0.3-0.3-0.8-0.9-1.7-1.6c-1.7-1.4-2.8-2.4-3.3-3.2c-0.5-0.7-0.7-1.5-0.7-2.2c0-1.1,0.4-2,1.2-2.8
	c0.8-0.8,1.8-1.1,3-1.1c0.8,0,1.5,0.2,2.2,0.5C776.5,291.9,777.2,292.6,778,293.5z"/>
<path class="st15" d="M1063.8,227.8h10.5v58h-10.5V227.8z M1032.8,252.6c-3.3,0-6,1.1-8.1,3.4c-2.2,2.3-3.2,5.2-3.2,8.8
	c0,3.6,1.1,6.6,3.3,8.9c2.2,2.3,4.9,3.5,8.1,3.5c3.3,0,6-1.1,8.2-3.4c2.2-2.3,3.3-5.3,3.3-9c0-3.6-1.1-6.6-3.3-8.8
	C1038.9,253.7,1036.1,252.6,1032.8,252.6z M1043.9,244h10.5v41.9h-10.5v-4.5c-2.1,1.9-4.1,3.3-6.2,4.2c-2.1,0.9-4.3,1.3-6.7,1.3
	c-5.4,0-10.1-2.1-14.1-6.3c-4-4.2-5.9-9.4-5.9-15.6c0-6.4,1.9-11.7,5.7-15.9c3.8-4.1,8.5-6.2,13.9-6.2c2.5,0,4.9,0.5,7.1,1.4
	c2.2,0.9,4.2,2.4,6.1,4.2V244z M992.9,244h10.5v41.9h-10.5V244z M998.1,226.8c1.8,0,3.4,0.7,4.7,2c1.3,1.3,2,2.9,2,4.8
	c0,1.9-0.7,3.5-2,4.8c-1.3,1.3-2.9,2-4.7,2c-1.9,0-3.5-0.7-4.8-2c-1.3-1.3-2-3-2-4.9c0-1.8,0.7-3.4,2-4.7
	C994.7,227.5,996.3,226.8,998.1,226.8z M921.4,259.7c-0.7-2.3-2.1-4.2-4.1-5.6c-2-1.4-4.4-2.1-7.1-2.1c-2.9,0-5.5,0.8-7.7,2.4
	c-1.4,1-2.7,2.8-3.9,5.3H921.4z M931.8,267.9h-33.7c0.5,3,1.8,5.4,3.9,7.1c2.1,1.8,4.8,2.6,8.1,2.6c3.9,0,7.3-1.4,10.1-4.1l8.8,4.2
	c-2.2,3.1-4.8,5.4-7.9,7c-3.1,1.5-6.7,2.2-10.9,2.2c-6.5,0-11.9-2.1-16-6.2c-4.1-4.1-6.2-9.3-6.2-15.5c0-6.4,2.1-11.7,6.2-15.9
	c4.1-4.2,9.3-6.3,15.5-6.3c6.6,0,11.9,2.1,16.1,6.3c4.1,4.2,6.2,9.7,6.2,16.6L931.8,267.9z M857.8,252.6c-3.3,0-6,1.1-8.1,3.4
	c-2.2,2.3-3.2,5.2-3.2,8.8c0,3.6,1.1,6.6,3.3,8.9c2.2,2.3,4.9,3.5,8.1,3.5c3.3,0,6-1.1,8.2-3.4c2.2-2.3,3.3-5.3,3.3-9
	c0-3.6-1.1-6.6-3.3-8.8C863.9,253.7,861.1,252.6,857.8,252.6z M868.9,227.8h10.5v58h-10.5v-4.5c-2.1,1.9-4.1,3.3-6.2,4.2
	c-2.1,0.9-4.3,1.3-6.7,1.3c-5.4,0-10.1-2.1-14.1-6.3c-4-4.2-5.9-9.4-5.9-15.6c0-6.4,1.9-11.7,5.7-15.9c3.8-4.1,8.5-6.2,13.9-6.2
	c2.5,0,4.9,0.5,7.1,1.4c2.2,0.9,4.2,2.4,6.1,4.2V227.8z M790.6,244H801v4.3c2.4-2,4.5-3.4,6.5-4.2c1.9-0.8,3.9-1.2,5.9-1.2
	c4.2,0,7.7,1.4,10.6,4.3c2.4,2.5,3.7,6.1,3.7,10.9v27.6h-10.4v-18.3c0-5-0.2-8.3-0.7-9.9c-0.4-1.6-1.2-2.9-2.3-3.7
	c-1.1-0.9-2.5-1.3-4.1-1.3c-2.1,0-4,0.7-5.5,2.1c-1.5,1.4-2.6,3.4-3.2,5.9c-0.3,1.3-0.5,4.1-0.5,8.5v16.8h-10.5V244z M770.6,244H781
	v41.9h-10.5V244z M775.8,226.8c1.8,0,3.4,0.7,4.7,2c1.3,1.3,2,2.9,2,4.8c0,1.9-0.7,3.5-2,4.8c-1.3,1.3-2.9,2-4.7,2
	c-1.9,0-3.5-0.7-4.8-2c-1.3-1.3-2-3-2-4.9c0-1.8,0.7-3.4,2-4.7C772.4,227.5,774,226.8,775.8,226.8z"/>
<path class="st14" d="M947.7,227.1c7.9-5.1,18.1-5.2,26-0.2L960.6,247L947.7,227.1z"/>
<path class="st14" d="M942.2,275.1c-4.3-7.8-7-15.3-6.7-22.1c0-7.6,1.9-13.8,4.9-18.5l14.2,21.8L942.2,275.1z"/>
<path class="st14" d="M973.4,285.1c-3.9,5.7-8.3,11.4-12.5,16.7c-4.3-5.5-8.8-11.3-12.8-17.1l12.5-19L973.4,285.1z"/>
<path class="st14" d="M986.3,253c0.3,6.9-2.6,14.6-7,22.5l-12.6-19.2l14.5-22.1C984.3,239,986.3,245.2,986.3,253z"/>
<path class="st16" d="M528.1,371.3c4.2-2.8,9.7-2.8,14-0.1l-7.1,10.8L528.1,371.3z"/>
<path class="st16" d="M525.1,397.1c-2.3-4.2-3.8-8.3-3.6-11.9c0-4.1,1-7.4,2.6-9.9l7.6,11.7L525.1,397.1z"/>
<path class="st16" d="M541.9,402.5c-2.1,3.1-4.4,6.1-6.7,9c-2.3-2.9-4.7-6.1-6.9-9.2l6.7-10.2L541.9,402.5z"/>
<path class="st16" d="M548.9,385.2c0.2,3.7-1.4,7.9-3.7,12.1l-6.8-10.3l7.8-11.9C547.8,377.7,548.9,381,548.9,385.2z"/>
<g>
	<g>
		<g>
			<path class="st7" d="M491.2,364.6l-43-24.8c-0.9-0.5-1.6-0.5-2.2-0.2l0,0l-4.2,2.4c0,0,1.8,0.7,2.9,1.1v31.3
				c0,2.6,1.6,5.5,3.5,6.6l41.1,23.7v3.7l4.2-2.4l0,0c0.7-0.4,1.2-1.4,1.2-2.8v-32C494.7,368.6,493.1,365.7,491.2,364.6z"/>
			<path class="st6" d="M487,408.2l-43-24.8c-1.9-1.1-3.5-4.1-3.5-6.6v-32c0-2.6,1.6-3.7,3.5-2.6l43,24.8c1.9,1.1,3.5,4.1,3.5,6.6
				v32C490.4,408.2,488.9,409.3,487,408.2z"/>
			<path class="st2" d="M487,367l-43-24.8c-1.1-0.6-2-0.5-2.7,0.2c0.5,0,1,0.1,1.5,0.4l43,24.8c1.9,1.1,3.5,4.1,3.5,6.6v32
				c0,1.1-0.3,1.9-0.8,2.4c1.1-0.1,1.9-1.2,1.9-3v-32C490.4,371.1,488.9,368.1,487,367z"/>
		</g>
	</g>
	<g>
		<path class="st16" d="M457.4,360.4c3.4-2.1,8.1-1.4,11.6,1.8l-6.2,8.6L457.4,360.4z"/>
		<path class="st16" d="M455.8,380.4c-1.6-3.2-2.8-6.4-2.8-9.1c-0.2-3.2,0.4-5.8,1.5-7.8l5.8,10.7L455.8,380.4z"/>
		<path class="st16" d="M467.2,386.9c-1.6,1.6-3.2,3-4.8,4.3c-1.5-2.2-3-4.5-4.4-6.8l4.7-5.8L467.2,386.9z"/>
		<path class="st16" d="M473.6,375.7c-0.2,2.9-1.8,5.8-3.8,8.4l-4.6-8.8l7-8.8C473.4,369.1,474,372.2,473.6,375.7z"/>
	</g>
</g>
<g>
	<g>
		<g>
			<path class="st7" d="M166.1,490.1l-31.2-18c-0.7-0.4-1.2-0.4-1.6-0.1l0,0l-3,1.7c0,0,1.3,0.5,2.1,0.8v22.7c0,1.9,1.2,4,2.5,4.8
				l29.8,17.2v2.7l3-1.7l0,0c0.5-0.3,0.9-1,0.9-2v-23.2C168.6,493,167.5,490.9,166.1,490.1z"/>
			<path class="st6" d="M163,521.8l-31.2-18c-1.4-0.8-2.5-3-2.5-4.8v-23.2c0-1.9,1.2-2.7,2.5-1.9l31.2,18c1.4,0.8,2.5,3,2.5,4.8
				v23.2C165.5,521.8,164.4,522.6,163,521.8z"/>
			<path class="st2" d="M163,491.9l-31.2-18c-0.8-0.4-1.5-0.4-2,0.1c0.4,0,0.7,0.1,1.1,0.3l31.2,18c1.4,0.8,2.5,3,2.5,4.8v23.2
				c0,0.8-0.2,1.4-0.6,1.7c0.8-0.1,1.4-0.9,1.4-2.2v-23.2C165.5,494.8,164.4,492.7,163,491.9z"/>
		</g>
	</g>
	<g>
		<path class="st16" d="M141.6,487.1c2.5-1.5,5.8-1,8.4,1.3l-4.5,6.3L141.6,487.1z"/>
		<path class="st16" d="M140.4,501.6c-1.2-2.4-2-4.7-2-6.6c-0.1-2.4,0.3-4.2,1.1-5.7l4.2,7.8L140.4,501.6z"/>
		<path class="st16" d="M148.7,506.3c-1.1,1.1-2.4,2.2-3.5,3.1c-1.1-1.6-2.2-3.3-3.2-5l3.4-4.2L148.7,506.3z"/>
		<path class="st16" d="M153.3,498.2c-0.1,2.1-1.3,4.2-2.8,6.1l-3.3-6.4l5.1-6.4C153.2,493.4,153.6,495.6,153.3,498.2z"/>
	</g>
</g>
<path class="st17" d="M988.7,329.8c0.2,0,0.4-0.1,0.5-0.5c0.1-0.3,0.3-0.7,0.4-1.2c0-0.1,0.1-0.3,0.1-0.5c0.1-0.2,0.1-0.5,0.2-0.8
	c0.1-0.3,0.2-0.6,0.2-1c0.1-0.3,0.2-0.7,0.3-1c-0.1,0.1-0.2,0.1-0.3,0.2c-0.1,0.1-0.2,0.2-0.3,0.3c-0.2,0.2-0.4,0.4-0.7,0.6
	c-0.2,0.2-0.4,0.4-0.6,0.6c-0.2,0.2-0.3,0.5-0.4,0.7c-0.1,0.3-0.1,0.6-0.1,0.9c0,0.3,0,0.6,0,0.8c0,0.2,0.1,0.4,0.1,0.5
	c0,0.1,0.1,0.2,0.2,0.3C988.5,329.8,988.6,329.8,988.7,329.8z M989.4,322.7c0.2,0,0.4-0.1,0.6-0.2c0.2-0.1,0.4-0.2,0.5-0.4
	c0.2-0.2,0.3-0.3,0.4-0.5c0.1-0.2,0.2-0.3,0.2-0.4c0-0.1,0.1-0.2,0.1-0.4c0.1-0.2,0.1-0.3,0.1-0.4c0-0.1,0-0.3,0-0.4
	c0-0.1,0-0.2-0.1-0.2c-0.1,0-0.1-0.1-0.1-0.1c0-0.1-0.1-0.2-0.1-0.2c0-0.1,0-0.2,0-0.3c0-0.1,0-0.2,0-0.2c-0.1-0.4-0.1-0.6-0.3-0.8
	c-0.1-0.2-0.3-0.3-0.4-0.3c-0.3,0-0.5,0.1-0.7,0.3c-0.2,0.2-0.4,0.5-0.6,0.8c-0.2,0.3-0.3,0.7-0.4,1.1c-0.1,0.4-0.2,0.8-0.2,1.1
	c0,0.4,0.1,0.8,0.2,1C988.7,322.5,989,322.7,989.4,322.7z M991.3,325.7c-0.1,0.3-0.1,0.6-0.2,0.9s-0.2,0.8-0.3,1.2
	c-0.1,0.4-0.2,0.8-0.3,1.2c-0.1,0.4-0.3,0.8-0.4,1.1c-0.2,0.3-0.3,0.6-0.5,0.8c-0.2,0.2-0.4,0.3-0.6,0.3c-0.3,0-0.6-0.1-0.9-0.3
	c-0.2-0.2-0.4-0.5-0.6-0.8c-0.2-0.3-0.3-0.6-0.4-1c-0.1-0.3-0.1-0.7-0.1-1c0-0.4,0-0.8,0.1-1c0.1-0.3,0.2-0.5,0.4-0.8
	c0.2-0.2,0.4-0.5,0.7-0.8c0.3-0.3,0.7-0.6,1.2-1c0.2-0.2,0.5-0.4,0.7-0.6c0.2-0.2,0.4-0.4,0.6-0.5c0.1-0.2,0.1-0.4,0.1-0.6
	c0-0.2,0.1-0.3,0.1-0.5c-0.3,0.4-0.6,0.7-1,0.9c-0.4,0.2-0.8,0.4-1.3,0.4c-0.4,0-0.8-0.2-1.1-0.6c-0.3-0.4-0.4-1-0.4-1.8
	c0-0.4,0.1-0.8,0.2-1.3c0.1-0.5,0.3-1,0.6-1.4c0.3-0.4,0.6-0.8,1-1.1c0.4-0.3,0.8-0.4,1.3-0.4c0.2,0,0.4,0.1,0.6,0.2
	c0.2,0.1,0.3,0.3,0.4,0.4c0.1,0.2,0.2,0.3,0.3,0.5c0.1,0.2,0.1,0.4,0.1,0.5c0-0.1,0-0.1,0-0.2c0-0.1,0-0.1,0-0.2
	c0.1-0.4,0.2-0.6,0.3-0.7c0.1-0.1,0.3-0.2,0.6-0.2c0.1,0,0.3,0,0.4,0.1c0.1,0.1,0.1,0.1,0.1,0.1c-0.1,0.1-0.1,0.2-0.1,0.3
	c0,0.1-0.1,0.1-0.1,0.2c0,0.1-0.1,0.2-0.1,0.3c0,0.1-0.1,0.3-0.1,0.4c0,0.1-0.1,0.2-0.1,0.5c-0.1,0.3-0.1,0.6-0.2,0.9
	c-0.1,0.4-0.2,0.8-0.3,1.2c-0.1,0.4-0.2,0.9-0.3,1.3c0.3-0.2,0.6-0.4,0.9-0.6c0.3-0.2,0.6-0.5,0.9-0.7c0.3-0.2,0.5-0.5,0.7-0.7
	c0.2-0.2,0.4-0.4,0.5-0.5c0.1-0.1,0.2-0.2,0.3-0.3c0.1-0.1,0.2-0.1,0.3-0.1c0.1,0,0.1,0.1,0.1,0.1c0,0.1,0,0.2-0.1,0.3
	c-0.2,0.4-0.5,0.7-0.9,1.1c-0.3,0.4-0.7,0.7-1,1c-0.4,0.3-0.7,0.6-1,0.8c-0.3,0.2-0.6,0.4-0.9,0.6c-0.1,0.5-0.2,0.8-0.3,1.1
	C991.4,325.2,991.4,325.5,991.3,325.7z M984.5,323.9c-0.2,0-0.4,0-0.6-0.1c-0.2-0.1-0.3-0.2-0.4-0.3c-0.1-0.1-0.2-0.3-0.2-0.5
	c0-0.2,0-0.4,0-0.6c0-0.1,0.1-0.3,0.2-0.6c0.1-0.2,0.1-0.5,0.2-0.8c0.1-0.3,0.1-0.6,0.2-0.8c0.1-0.3,0.1-0.5,0.1-0.8
	c0-0.2,0-0.4,0-0.6c0-0.1-0.1-0.2-0.3-0.2c-0.2,0-0.3,0.1-0.5,0.2c-0.2,0.1-0.4,0.3-0.5,0.4c-0.2,0.2-0.4,0.4-0.5,0.6
	c-0.2,0.2-0.4,0.5-0.5,0.8c-0.1,0.3-0.2,0.7-0.2,0.9c-0.1,0.3-0.1,0.5-0.2,0.7c0,0.2-0.1,0.4-0.1,0.6c0,0.2-0.1,0.3-0.1,0.5
	c0,0.1-0.1,0.2-0.3,0.3c-0.2,0.1-0.3,0.2-0.5,0.2c-0.2,0.1-0.3,0.1-0.5,0.1c-0.1,0-0.2,0-0.2-0.1c0-0.1,0-0.2,0.1-0.4
	c0.1-0.2,0.1-0.5,0.2-0.8c0.1-0.3,0.2-0.6,0.2-0.9c0.1-0.3,0.2-0.6,0.2-0.9c0.1-0.2,0.1-0.5,0.2-0.8c0.1-0.3,0.1-0.5,0.2-0.9
	c0.1-0.3,0.2-0.7,0.3-1.1c0.1-0.1,0.1-0.1,0.2-0.1c0.1,0,0.2-0.1,0.2-0.1c0.1,0,0.2-0.1,0.3-0.1c0.1,0,0.2,0,0.2,0
	c0.1,0,0.1,0,0.2,0.1c0.1,0,0.1,0.1,0.2,0.1c0,0.1-0.1,0.2-0.1,0.3c0,0.1-0.1,0.3-0.1,0.4c0,0.2-0.1,0.3-0.2,0.5
	c0.1-0.2,0.3-0.4,0.5-0.6c0.2-0.2,0.4-0.4,0.6-0.5c0.2-0.2,0.4-0.3,0.6-0.4c0.2-0.1,0.5-0.1,0.7-0.1c0.2,0,0.4,0.1,0.5,0.2
	c0.2,0.1,0.3,0.3,0.4,0.5c0.1,0.2,0.1,0.4,0.2,0.7c0,0.3,0,0.6-0.1,0.9l-0.2,0.7c0,0.2-0.1,0.5-0.2,0.8c-0.1,0.3-0.2,0.6-0.3,1
	c-0.1,0.2-0.1,0.4-0.1,0.6c0,0.2,0.1,0.2,0.3,0.2c0.2,0,0.4-0.1,0.7-0.3c0.3-0.2,0.6-0.5,0.9-0.8c0.3-0.3,0.6-0.6,0.8-1
	c0.3-0.3,0.5-0.6,0.6-0.8c0.1-0.1,0.2-0.2,0.3-0.3c0.1,0,0.1,0,0.2,0c0,0,0.1,0.1,0.1,0.2c0,0.1,0,0.2-0.1,0.4
	c-0.1,0.1-0.2,0.3-0.3,0.6c-0.1,0.2-0.3,0.5-0.5,0.8c-0.2,0.3-0.4,0.5-0.7,0.8c-0.2,0.3-0.5,0.5-0.7,0.7c-0.3,0.2-0.5,0.4-0.8,0.5
	C985,323.8,984.8,323.9,984.5,323.9z M976.9,317.7c0.1-0.1,0.1-0.1,0.3-0.2c0.1,0,0.3-0.1,0.4-0.1c0.2,0,0.3,0,0.4,0
	c0.1,0,0.2,0,0.2,0c0,0,0,0.1-0.1,0.3c-0.1,0.2-0.1,0.4-0.2,0.7c-0.1,0.3-0.2,0.6-0.3,0.9c-0.1,0.3-0.2,0.5-0.2,0.7
	c0,0.2-0.1,0.4-0.2,0.6c-0.1,0.2-0.1,0.5-0.2,0.7c-0.1,0.2-0.1,0.4-0.1,0.6c0,0.2,0,0.3,0,0.4c0.1,0.1,0.1,0.2,0.2,0.3
	c0.1,0,0.1,0.1,0.2,0.1c0.2,0,0.5-0.1,0.8-0.3c0.3-0.2,0.6-0.5,1-0.8c0.3-0.3,0.6-0.6,0.9-1c0.3-0.3,0.5-0.6,0.6-0.8
	c0.1-0.1,0.2-0.2,0.3-0.2c0.1,0,0.2,0,0.2,0c0.1,0,0.1,0.1,0.1,0.2c0,0.1,0,0.2-0.1,0.3c-0.2,0.3-0.4,0.6-0.7,1
	c-0.3,0.4-0.7,0.8-1,1.1c-0.4,0.4-0.7,0.7-1.1,0.9c-0.3,0.3-0.6,0.4-0.8,0.4c-0.2,0-0.3,0-0.5-0.1c-0.2-0.1-0.3-0.2-0.5-0.3
	c-0.1-0.1-0.3-0.3-0.3-0.4c-0.1-0.2-0.1-0.3-0.2-0.5c0-0.3,0-0.6,0-1.1c0-0.4,0.1-0.9,0.2-1.4c0.1-0.5,0.2-0.9,0.3-1.3
	C976.6,318.2,976.7,317.9,976.9,317.7z M979,314.4c0,0.1-0.1,0.2-0.2,0.3c-0.1,0.1-0.2,0.2-0.3,0.3c-0.1,0.1-0.2,0.1-0.3,0.1
	c-0.1,0-0.2,0-0.3-0.1c-0.2-0.2-0.3-0.3-0.3-0.5c0-0.2,0-0.4,0.1-0.5c0.1-0.2,0.2-0.3,0.4-0.4c0.2-0.1,0.3-0.2,0.4-0.2
	c0.1,0,0.2,0,0.3,0.1c0.1,0.1,0.1,0.2,0.2,0.3c0,0.1,0.1,0.2,0.1,0.4C979.1,314.2,979,314.3,979,314.4z M976.1,321.5
	c-0.4,0.5-0.8,1-1.2,1.3c-0.3,0.3-0.6,0.6-0.9,0.7c-0.3,0.2-0.5,0.3-0.7,0.3c-0.2,0-0.4,0.1-0.5,0.1c-0.2,0-0.4,0-0.5-0.1
	c-0.1-0.1-0.3-0.2-0.3-0.3c-0.1-0.1-0.2-0.3-0.2-0.4c-0.1-0.1-0.1-0.3-0.1-0.4c0-0.1-0.1-0.2-0.1-0.4c0-0.1-0.1-0.3-0.1-0.5
	c-0.2,0.2-0.4,0.4-0.6,0.7c-0.2,0.2-0.4,0.4-0.7,0.7c-0.2,0.3-0.5,0.5-0.8,0.8c-0.1,0-0.2,0-0.2,0c-0.1,0-0.1,0-0.2-0.1
	c-0.1,0-0.1-0.1-0.2-0.1c0,0-0.1-0.1-0.1-0.1c0,0,0-0.1-0.1-0.1c0,0,0-0.1,0-0.1c0.3-0.3,0.6-0.7,0.9-1c0.3-0.3,0.6-0.6,0.8-0.9
	c0.3-0.3,0.5-0.6,0.8-0.9c-0.1-0.4-0.3-0.8-0.4-1.1c-0.1-0.3-0.2-0.6-0.2-0.7c-0.1-0.3-0.2-0.5-0.3-0.7c-0.1-0.2-0.2-0.3-0.4-0.4
	c0.1-0.1,0.2-0.2,0.4-0.3c0.1-0.1,0.2-0.1,0.3-0.1c0.1,0,0.2-0.1,0.3-0.1c0.2,0,0.4,0.2,0.6,0.6c0.2,0.4,0.4,1,0.5,1.7
	c0,0,0,0.1,0,0.1c0.2-0.3,0.4-0.5,0.6-0.7c0.2-0.2,0.4-0.4,0.5-0.6c0.1-0.2,0.3-0.3,0.4-0.4c0.1-0.1,0.1-0.2,0.2-0.2
	c0.2-0.2,0.4-0.4,0.6-0.4c0.2,0,0.3,0,0.4,0.1c0.1,0,0.1,0.1,0.2,0.1c0.1,0.1,0.3,0.2,0.5,0.2c-0.2,0.2-0.4,0.4-0.6,0.6
	c-0.2,0.2-0.4,0.4-0.6,0.6c-0.2,0.2-0.4,0.4-0.6,0.7c-0.2,0.2-0.3,0.3-0.5,0.6c-0.2,0.2-0.4,0.5-0.7,0.7c0.1,0.3,0.1,0.5,0.2,0.7
	c0.1,0.2,0.2,0.4,0.3,0.6c0.1,0.2,0.2,0.3,0.3,0.4c0.1,0.1,0.2,0.2,0.3,0.2c0.2,0,0.4,0,0.6-0.1c0.2-0.1,0.4-0.2,0.6-0.4
	c0.2-0.2,0.5-0.3,0.7-0.5c0.2-0.2,0.5-0.4,0.7-0.6c0.1-0.1,0.2-0.1,0.2-0.1c0.1,0,0.1,0,0.2,0c0,0,0,0.1,0,0.2
	C976.2,321.2,976.2,321.3,976.1,321.5z M966.5,317.9c-0.1,0-0.3,0.1-0.4,0.2c-0.2,0.1-0.3,0.3-0.5,0.5c-0.2,0.2-0.3,0.5-0.5,0.9
	c-0.1,0.3-0.3,0.7-0.3,1.1c0.1-0.1,0.3-0.2,0.4-0.3c0.1-0.1,0.3-0.2,0.4-0.3c0.4-0.3,0.8-0.6,0.9-0.9c0.2-0.3,0.3-0.5,0.3-0.7
	c0-0.2,0-0.3-0.1-0.4C966.7,318,966.6,317.9,966.5,317.9z M970.4,320.3c-0.3,0.5-0.7,0.9-1,1.3c-0.4,0.4-0.8,0.8-1.2,1.1
	c-0.4,0.3-0.9,0.6-1.3,0.8c-0.5,0.2-0.9,0.3-1.3,0.3c-0.2,0-0.5-0.1-0.7-0.2c-0.3-0.1-0.5-0.3-0.7-0.5c-0.2-0.2-0.4-0.5-0.5-0.9
	c-0.1-0.4-0.2-0.8-0.1-1.3c0-0.4,0.2-0.9,0.4-1.3c0.2-0.5,0.5-0.9,0.8-1.3c0.3-0.4,0.7-0.7,1.1-1c0.4-0.3,0.8-0.4,1.2-0.4
	c0.4,0,0.7,0.1,0.8,0.3c0.2,0.2,0.3,0.4,0.2,0.7c0,0.3-0.1,0.6-0.3,0.9c-0.1,0.3-0.3,0.5-0.5,0.7c-0.2,0.2-0.4,0.4-0.7,0.6
	c-0.2,0.2-0.4,0.3-0.7,0.5c-0.2,0.2-0.4,0.3-0.6,0.4c-0.2,0.1-0.4,0.3-0.5,0.4c0,0.3,0.1,0.5,0.1,0.6c0.1,0.2,0.2,0.3,0.3,0.4
	c0.1,0.1,0.3,0.2,0.4,0.2c0.2,0,0.3,0.1,0.5,0.1c0.3,0,0.7-0.1,1.1-0.3c0.4-0.2,0.8-0.5,1.1-0.8c0.4-0.3,0.7-0.6,1-1
	c0.3-0.3,0.6-0.6,0.8-0.9c0.1-0.1,0.1-0.1,0.2-0.1c0.1,0,0.1,0,0.2,0c0,0,0.1,0.1,0.1,0.2C970.5,320.1,970.5,320.2,970.4,320.3z
	 M959.8,320.8c0-0.2,0.1-0.4,0.1-0.6c0-0.2,0.1-0.4,0.1-0.6c0,0,0,0-0.1,0c0,0,0,0-0.1,0c-0.1,0.1-0.2,0.1-0.2,0
	c0-0.1-0.1-0.1-0.1-0.3c0-0.1,0-0.2,0-0.3c0-0.2,0-0.3-0.1-0.5c-0.1-0.2-0.1-0.3-0.2-0.4c-0.1-0.1-0.2-0.2-0.4-0.2
	c-0.2,0-0.5,0.1-0.7,0.4c-0.2,0.2-0.5,0.5-0.7,0.9c-0.2,0.3-0.4,0.7-0.5,1.1c-0.1,0.4-0.2,0.7-0.2,1c0,0.5,0,0.9,0.2,1.1
	c0.1,0.2,0.3,0.3,0.6,0.3c0.2,0,0.4-0.1,0.6-0.2c0.2-0.1,0.4-0.3,0.6-0.5c0.2-0.2,0.4-0.4,0.6-0.6
	C959.5,321.1,959.7,320.9,959.8,320.8z M960.7,320.6c0,0.3-0.1,0.6-0.1,0.9c0,0.3-0.1,0.5-0.1,0.7c0,0.3,0,0.4,0.1,0.6
	c0.1,0.1,0.2,0.2,0.3,0.2c0.1,0,0.3-0.1,0.5-0.2c0.2-0.1,0.4-0.3,0.7-0.5c0.2-0.2,0.5-0.5,0.7-0.7c0.2-0.3,0.5-0.5,0.7-0.7
	c0.2-0.2,0.4-0.4,0.5-0.6c0.1-0.2,0.2-0.3,0.3-0.3c0.1-0.1,0.1-0.1,0.2-0.1c0.1,0,0.1,0,0.2,0c0,0,0.1,0.1,0.1,0.2
	c0,0.1,0,0.2-0.1,0.3c-0.1,0.2-0.3,0.4-0.5,0.7c-0.2,0.3-0.4,0.5-0.6,0.8c-0.2,0.3-0.5,0.6-0.7,0.8c-0.3,0.3-0.5,0.5-0.8,0.7
	c-0.3,0.2-0.5,0.4-0.8,0.5c-0.2,0.1-0.5,0.2-0.7,0.2c-0.1,0-0.3,0-0.4-0.1c-0.1-0.1-0.2-0.2-0.3-0.3c-0.1-0.1-0.2-0.3-0.2-0.4
	c-0.1-0.2-0.1-0.3-0.1-0.5c0-0.1,0-0.2,0-0.4c-0.4,0.5-0.9,0.9-1.3,1.1c-0.4,0.3-0.9,0.4-1.3,0.4c-0.1,0-0.3,0-0.5-0.1
	c-0.2-0.1-0.3-0.2-0.4-0.4c-0.1-0.2-0.2-0.4-0.3-0.6c-0.1-0.3-0.1-0.6-0.1-1c0-0.6,0.2-1.2,0.4-1.7c0.2-0.5,0.5-1,0.8-1.4
	c0.3-0.4,0.7-0.7,1.1-0.9c0.4-0.2,0.8-0.3,1.2-0.3c0.2,0,0.3,0,0.5,0.1c0.1,0.1,0.3,0.2,0.4,0.3c0.1,0.1,0.2,0.3,0.3,0.5
	c0.1,0.2,0.1,0.3,0.1,0.5c0.1-0.3,0.1-0.6,0.2-0.9c0.1-0.3,0.1-0.6,0.2-0.8c0.1-0.4,0.2-0.8,0.3-1.2c0.1-0.4,0.2-0.8,0.4-1.3
	c0.1-0.5,0.3-1,0.5-1.6c0.1-0.1,0.2-0.1,0.3-0.2c0.1,0,0.2-0.1,0.3-0.1c0.1,0,0.2,0,0.3,0c0.1,0,0.2,0,0.3,0c0.1,0,0.2,0.1,0.2,0.2
	c0.1,0.1,0.1,0.3,0.1,0.5c0,0.2,0,0.5,0,0.9c0,0.5-0.1,0.9-0.2,1.5c-0.1,0.5-0.3,1.1-0.5,1.7c-0.2,0.6-0.5,1.1-0.8,1.7
	C961.4,319.5,961,320,960.7,320.6z M953.1,323.9c-0.2,0-0.4,0-0.6-0.1c-0.2-0.1-0.3-0.2-0.4-0.3c-0.1-0.1-0.2-0.3-0.2-0.5
	c0-0.2,0-0.4,0-0.6c0-0.1,0.1-0.3,0.2-0.6c0.1-0.2,0.1-0.5,0.2-0.8c0.1-0.3,0.1-0.6,0.2-0.8c0.1-0.3,0.1-0.5,0.1-0.8
	c0-0.2,0-0.4,0-0.6c0-0.1-0.1-0.2-0.3-0.2c-0.2,0-0.3,0.1-0.5,0.2c-0.2,0.1-0.4,0.3-0.5,0.4c-0.2,0.2-0.4,0.4-0.5,0.6
	c-0.2,0.2-0.4,0.5-0.5,0.8c-0.1,0.3-0.2,0.7-0.2,0.9c-0.1,0.3-0.1,0.5-0.2,0.7c0,0.2-0.1,0.4-0.1,0.6c0,0.2-0.1,0.3-0.1,0.5
	c0,0.1-0.1,0.2-0.3,0.3c-0.2,0.1-0.3,0.2-0.5,0.2c-0.2,0.1-0.3,0.1-0.5,0.1s-0.2,0-0.2-0.1c0-0.1,0-0.2,0.1-0.4
	c0.1-0.2,0.1-0.5,0.2-0.8c0.1-0.3,0.2-0.6,0.2-0.9c0.1-0.3,0.2-0.6,0.2-0.9c0.1-0.2,0.1-0.5,0.2-0.8c0.1-0.3,0.1-0.5,0.2-0.9
	c0.1-0.3,0.2-0.7,0.3-1.1c0.1-0.1,0.1-0.1,0.2-0.1c0.1,0,0.2-0.1,0.2-0.1c0.1,0,0.2-0.1,0.3-0.1c0.1,0,0.2,0,0.2,0
	c0.1,0,0.1,0,0.2,0.1c0.1,0,0.1,0.1,0.2,0.1c0,0.1-0.1,0.2-0.1,0.3c0,0.1-0.1,0.3-0.1,0.4c0,0.2-0.1,0.3-0.2,0.5
	c0.1-0.2,0.3-0.4,0.5-0.6c0.2-0.2,0.4-0.4,0.6-0.5c0.2-0.2,0.4-0.3,0.6-0.4c0.2-0.1,0.5-0.1,0.7-0.1c0.2,0,0.4,0.1,0.5,0.2
	c0.2,0.1,0.3,0.3,0.4,0.5c0.1,0.2,0.1,0.4,0.2,0.7c0,0.3,0,0.6-0.1,0.9l-0.2,0.7c0,0.2-0.1,0.5-0.2,0.8c-0.1,0.3-0.2,0.6-0.3,1
	c-0.1,0.2-0.1,0.4-0.1,0.6c0,0.2,0.1,0.2,0.3,0.2c0.2,0,0.4-0.1,0.7-0.3c0.3-0.2,0.6-0.5,0.9-0.8c0.3-0.3,0.6-0.6,0.8-1
	c0.3-0.3,0.5-0.6,0.6-0.8c0.1-0.1,0.2-0.2,0.3-0.3c0.1,0,0.1,0,0.2,0c0,0,0.1,0.1,0.1,0.2c0,0.1,0,0.2-0.1,0.4
	c-0.1,0.1-0.2,0.3-0.3,0.6c-0.1,0.2-0.3,0.5-0.5,0.8c-0.2,0.3-0.4,0.5-0.7,0.8c-0.2,0.3-0.5,0.5-0.7,0.7c-0.3,0.2-0.5,0.4-0.8,0.5
	C953.6,323.8,953.3,323.9,953.1,323.9z M945.4,317.7c0.1-0.1,0.1-0.1,0.3-0.2c0.1,0,0.3-0.1,0.4-0.1c0.2,0,0.3,0,0.4,0
	c0.1,0,0.2,0,0.2,0c0,0,0,0.1-0.1,0.3c-0.1,0.2-0.1,0.4-0.2,0.7c-0.1,0.3-0.2,0.6-0.3,0.9c-0.1,0.3-0.2,0.5-0.2,0.7
	c-0.1,0.2-0.1,0.4-0.2,0.6c-0.1,0.2-0.1,0.5-0.2,0.7c-0.1,0.2-0.1,0.4-0.1,0.6c0,0.2,0,0.3,0,0.4c0,0.1,0.1,0.2,0.2,0.3
	c0.1,0,0.1,0.1,0.2,0.1c0.2,0,0.5-0.1,0.8-0.3c0.3-0.2,0.6-0.5,1-0.8c0.3-0.3,0.6-0.6,0.9-1c0.3-0.3,0.5-0.6,0.6-0.8
	c0.1-0.1,0.2-0.2,0.3-0.2c0.1,0,0.2,0,0.2,0c0.1,0,0.1,0.1,0.1,0.2c0,0.1,0,0.2-0.1,0.3c-0.2,0.3-0.4,0.6-0.7,1
	c-0.3,0.4-0.7,0.8-1,1.1c-0.4,0.4-0.7,0.7-1.1,0.9c-0.3,0.3-0.6,0.4-0.8,0.4c-0.2,0-0.3,0-0.5-0.1c-0.2-0.1-0.3-0.2-0.5-0.3
	c-0.1-0.1-0.3-0.3-0.3-0.4c-0.1-0.2-0.1-0.3-0.2-0.5c0-0.3,0-0.6,0-1.1c0-0.4,0.1-0.9,0.2-1.4c0.1-0.5,0.2-0.9,0.3-1.3
	C945.1,318.2,945.3,317.9,945.4,317.7z M947.6,314.4c0,0.1-0.1,0.2-0.2,0.3c-0.1,0.1-0.2,0.2-0.3,0.3c-0.1,0.1-0.2,0.1-0.3,0.1
	c-0.1,0-0.2,0-0.3-0.1c-0.2-0.2-0.3-0.3-0.3-0.5c0-0.2,0-0.4,0.1-0.5c0.1-0.2,0.2-0.3,0.4-0.4c0.2-0.1,0.3-0.2,0.4-0.2
	c0.1,0,0.2,0,0.3,0.1c0.1,0.1,0.1,0.2,0.2,0.3c0,0.1,0.1,0.2,0.1,0.4C947.6,314.2,947.6,314.3,947.6,314.4z"/>
<path class="st17" d="M1047.3,320.1c0.1-0.1,0.1-0.1,0.2-0.1c0.1,0,0.1,0,0.2,0.1c0,0,0.1,0.1,0.1,0.2c0,0.1,0,0.2-0.1,0.3
	c-0.2,0.3-0.4,0.5-0.7,0.8c-0.3,0.3-0.5,0.6-0.8,0.8c-0.3,0.3-0.6,0.5-0.9,0.8c-0.3,0.2-0.6,0.4-0.9,0.6c-0.3,0.2-0.6,0.3-0.8,0.3
	c-0.2,0-0.4-0.1-0.6-0.4c-0.2-0.2-0.3-0.5-0.3-0.8c0-0.3,0.1-0.6,0.2-1c0.1-0.3,0.2-0.6,0.3-0.9c0.1-0.4,0.2-0.7,0.3-1
	c0.1-0.3,0.1-0.6,0.1-0.8c0-0.2-0.2-0.3-0.4-0.3c-0.2,0-0.3,0.1-0.5,0.2c-0.2,0.1-0.4,0.3-0.6,0.4c-0.2,0.2-0.4,0.4-0.5,0.6
	c-0.2,0.2-0.3,0.4-0.5,0.7c-0.1,0.4-0.2,0.8-0.2,1.2c-0.1,0.3-0.1,0.7-0.2,1.1c-0.1,0.4-0.2,0.7-0.2,1c-0.1,0-0.1,0.1-0.2,0.1
	c-0.1,0-0.1,0-0.2,0c-0.1,0-0.1,0-0.2,0c-0.1,0-0.2-0.1-0.2-0.1c-0.1,0-0.1-0.1-0.2-0.2c-0.1-0.1-0.1-0.2-0.1-0.3
	c0.5-1.9,0.8-3.4,1.1-4.6c0.3-1.2,0.5-2,0.6-2.6c0.2-0.7,0.3-1.2,0.3-1.5c0-0.2,0.1-0.4,0.1-0.6c0-0.2,0-0.3,0-0.5
	c0-0.2,0-0.3,0-0.5c0.1-0.1,0.2-0.1,0.3-0.1c0.1,0,0.2-0.1,0.3-0.1c0.1,0,0.2-0.1,0.3-0.1c0.1,0,0.2,0,0.3,0c0.1,0,0.2,0,0.2,0
	c0.1,0,0.1,0.1,0.1,0.1c0.1,0,0.1,0.2,0.1,0.3c0,0.2,0,0.3,0,0.5c0,0.2-0.1,0.4-0.1,0.6c-0.2,0.8-0.5,1.6-0.7,2.4
	c-0.3,0.8-0.5,1.6-0.7,2.5c0.1-0.2,0.3-0.4,0.5-0.6c0.2-0.2,0.4-0.4,0.6-0.6c0.2-0.2,0.5-0.3,0.7-0.4c0.2-0.1,0.5-0.2,0.8-0.2
	c0.1,0,0.3,0,0.4,0.1c0.1,0,0.2,0.1,0.3,0.2c0.1,0.1,0.2,0.3,0.2,0.4c0.1,0.2,0.1,0.4,0.1,0.7c0,0.2,0,0.3-0.1,0.5
	c0,0.2-0.1,0.4-0.1,0.6c-0.1,0.2-0.1,0.4-0.2,0.7c-0.1,0.3-0.2,0.6-0.3,0.9c-0.1,0.2-0.2,0.4-0.2,0.6c0,0.2,0,0.3,0,0.4
	c0.1,0.2,0.3,0.2,0.6,0.1c0.3-0.1,0.7-0.4,1.2-0.8c0.1-0.1,0.3-0.2,0.4-0.4c0.2-0.2,0.3-0.3,0.4-0.5c0.1-0.2,0.3-0.3,0.4-0.5
	C1047.1,320.3,1047.2,320.2,1047.3,320.1z M1033.5,329.8c0.2,0,0.4-0.1,0.5-0.5c0.1-0.3,0.3-0.7,0.4-1.2c0-0.1,0.1-0.3,0.1-0.5
	c0.1-0.2,0.1-0.5,0.2-0.8c0.1-0.3,0.2-0.6,0.2-1c0.1-0.3,0.2-0.7,0.3-1c-0.1,0.1-0.2,0.1-0.3,0.2c-0.1,0.1-0.2,0.2-0.3,0.3
	c-0.2,0.2-0.4,0.4-0.7,0.6c-0.2,0.2-0.4,0.4-0.6,0.6c-0.2,0.2-0.3,0.5-0.4,0.7c-0.1,0.3-0.1,0.6-0.1,0.9c0,0.3,0,0.6,0,0.8
	c0,0.2,0.1,0.4,0.1,0.5c0,0.1,0.1,0.2,0.2,0.3C1033.4,329.8,1033.4,329.8,1033.5,329.8z M1034.2,322.7c0.2,0,0.4-0.1,0.6-0.2
	c0.2-0.1,0.4-0.2,0.5-0.4c0.2-0.2,0.3-0.3,0.4-0.5c0.1-0.2,0.2-0.3,0.2-0.4c0-0.1,0.1-0.2,0.1-0.4c0.1-0.2,0.1-0.3,0.1-0.4
	c0-0.1,0-0.3,0-0.4c0-0.1,0-0.2-0.1-0.2c-0.1,0-0.1-0.1-0.1-0.1c0-0.1-0.1-0.2-0.1-0.2c0-0.1,0-0.2,0-0.3c0-0.1,0-0.2,0-0.2
	c-0.1-0.4-0.1-0.6-0.3-0.8c-0.1-0.2-0.3-0.3-0.4-0.3c-0.3,0-0.5,0.1-0.7,0.3c-0.2,0.2-0.4,0.5-0.6,0.8c-0.2,0.3-0.3,0.7-0.4,1.1
	c-0.1,0.4-0.2,0.8-0.2,1.1c0,0.4,0.1,0.8,0.2,1C1033.6,322.5,1033.8,322.7,1034.2,322.7z M1036.2,325.7c-0.1,0.3-0.1,0.6-0.2,0.9
	c-0.1,0.4-0.2,0.8-0.3,1.2c-0.1,0.4-0.2,0.8-0.3,1.2c-0.1,0.4-0.3,0.8-0.4,1.1c-0.2,0.3-0.3,0.6-0.5,0.8c-0.2,0.2-0.4,0.3-0.6,0.3
	c-0.3,0-0.6-0.1-0.9-0.3c-0.2-0.2-0.4-0.5-0.6-0.8c-0.2-0.3-0.3-0.6-0.4-1c-0.1-0.3-0.1-0.7-0.1-1c0-0.4,0-0.8,0.1-1
	c0.1-0.3,0.2-0.5,0.4-0.8c0.2-0.2,0.4-0.5,0.7-0.8c0.3-0.3,0.7-0.6,1.2-1c0.2-0.2,0.5-0.4,0.7-0.6c0.2-0.2,0.4-0.4,0.6-0.5
	c0.1-0.2,0.1-0.4,0.1-0.6c0.1-0.2,0.1-0.3,0.1-0.5c-0.3,0.4-0.6,0.7-1,0.9c-0.4,0.2-0.8,0.4-1.3,0.4c-0.4,0-0.8-0.2-1.1-0.6
	c-0.3-0.4-0.4-1-0.4-1.8c0-0.4,0.1-0.8,0.2-1.3c0.1-0.5,0.4-1,0.6-1.4c0.3-0.4,0.6-0.8,1-1.1c0.4-0.3,0.8-0.4,1.3-0.4
	c0.2,0,0.4,0.1,0.6,0.2c0.2,0.1,0.3,0.3,0.4,0.4c0.1,0.2,0.2,0.3,0.3,0.5c0.1,0.2,0.1,0.4,0.1,0.5c0-0.1,0-0.1,0-0.2
	c0-0.1,0-0.1,0-0.2c0.1-0.4,0.2-0.6,0.3-0.7c0.1-0.1,0.3-0.2,0.6-0.2c0.1,0,0.3,0,0.4,0.1c0.1,0.1,0.1,0.1,0.1,0.1
	c-0.1,0.1-0.1,0.2-0.1,0.3c0,0.1-0.1,0.1-0.1,0.2c0,0.1-0.1,0.2-0.1,0.3c0,0.1-0.1,0.3-0.1,0.4c0,0.1-0.1,0.2-0.1,0.5
	c-0.1,0.3-0.1,0.6-0.2,0.9c-0.1,0.4-0.2,0.8-0.3,1.2c-0.1,0.4-0.2,0.9-0.3,1.3c0.3-0.2,0.6-0.4,0.9-0.6c0.3-0.2,0.6-0.5,0.9-0.7
	c0.3-0.2,0.5-0.5,0.7-0.7c0.2-0.2,0.4-0.4,0.5-0.5c0.1-0.1,0.2-0.2,0.3-0.3c0.1-0.1,0.2-0.1,0.3-0.1c0.1,0,0.1,0.1,0.1,0.1
	c0,0.1,0,0.2-0.1,0.3c-0.2,0.4-0.5,0.7-0.9,1.1c-0.3,0.4-0.7,0.7-1,1c-0.4,0.3-0.7,0.6-1,0.8c-0.3,0.2-0.6,0.4-0.9,0.6
	c-0.1,0.5-0.2,0.8-0.3,1.1C1036.3,325.2,1036.2,325.5,1036.2,325.7z M1029,317.7c0.1-0.1,0.2-0.1,0.3-0.2c0.1,0,0.3-0.1,0.4-0.1
	c0.2,0,0.3,0,0.4,0c0.1,0,0.2,0,0.2,0c0,0,0,0.1-0.1,0.3c-0.1,0.2-0.1,0.4-0.2,0.7c-0.1,0.3-0.2,0.6-0.3,0.9
	c-0.1,0.3-0.2,0.5-0.2,0.7c0,0.2-0.1,0.4-0.2,0.6c-0.1,0.2-0.1,0.5-0.2,0.7c-0.1,0.2-0.1,0.4-0.1,0.6c0,0.2,0,0.3,0,0.4
	c0,0.1,0.1,0.2,0.2,0.3c0.1,0,0.1,0.1,0.2,0.1c0.2,0,0.5-0.1,0.8-0.3c0.3-0.2,0.6-0.5,1-0.8c0.3-0.3,0.6-0.6,0.9-1
	c0.3-0.3,0.5-0.6,0.6-0.8c0.1-0.1,0.2-0.2,0.3-0.2c0.1,0,0.2,0,0.2,0c0.1,0,0.1,0.1,0.1,0.2c0,0.1,0,0.2-0.1,0.3
	c-0.2,0.3-0.4,0.6-0.7,1c-0.3,0.4-0.7,0.8-1,1.1c-0.4,0.4-0.7,0.7-1.1,0.9c-0.3,0.3-0.6,0.4-0.8,0.4c-0.2,0-0.3,0-0.5-0.1
	c-0.2-0.1-0.3-0.2-0.5-0.3c-0.1-0.1-0.3-0.3-0.3-0.4c-0.1-0.2-0.1-0.3-0.2-0.5c0-0.3,0-0.6,0-1.1c0-0.4,0.1-0.9,0.2-1.4
	c0.1-0.5,0.2-0.9,0.3-1.3C1028.7,318.2,1028.9,317.9,1029,317.7z M1031.2,314.4c0,0.1-0.1,0.2-0.2,0.3c-0.1,0.1-0.2,0.2-0.3,0.3
	c-0.1,0.1-0.2,0.1-0.3,0.1c-0.1,0-0.2,0-0.3-0.1c-0.2-0.2-0.3-0.3-0.3-0.5c0-0.2,0-0.4,0.1-0.5c0.1-0.2,0.2-0.3,0.4-0.4
	c0.2-0.1,0.3-0.2,0.4-0.2c0.1,0,0.2,0,0.3,0.1c0.1,0.1,0.1,0.2,0.2,0.3c0,0.1,0.1,0.2,0.1,0.4
	C1031.2,314.2,1031.2,314.3,1031.2,314.4z M1020.8,323.4c-0.1,0.1-0.1,0.2-0.2,0.2c-0.1,0-0.2,0-0.2,0c-0.1,0-0.1-0.1-0.1-0.2
	c0-0.1,0-0.2,0.1-0.3c0-0.1,0.1-0.2,0.2-0.4c0.1-0.2,0.2-0.5,0.4-0.8c0.2-0.3,0.3-0.6,0.5-1c0.2-0.4,0.3-0.7,0.5-1
	c0.2-0.3,0.3-0.6,0.4-0.9c0.1-0.3,0.2-0.4,0.3-0.5c-0.1-0.1-0.2-0.2-0.2-0.2c0,0-0.1-0.1-0.1-0.3c0-0.1,0-0.3,0.1-0.5
	c0.1-0.2,0.2-0.4,0.3-0.6c0.1-0.2,0.3-0.4,0.4-0.5c0.2-0.1,0.3-0.2,0.5-0.2c0.3,0,0.5,0.1,0.6,0.3c0.1,0.2,0.2,0.4,0.2,0.6
	c0,0.1,0,0.3,0,0.5c0,0.2-0.1,0.4-0.2,0.6c0,0,0.1,0,0.1,0.1c0.1,0,0.1,0,0.2,0c0.2,0,0.3,0,0.3,0c0.1,0,0.2,0,0.3,0
	c0.2,0,0.3,0,0.4,0.1c0.1,0.1,0.2,0.2,0.3,0.3c0.1,0.1,0.1,0.3,0.2,0.4c0,0.1,0.1,0.3,0.1,0.4c0,0.3,0,0.5-0.2,0.8
	c-0.2,0.3-0.4,0.6-0.6,0.9c-0.1,0.2-0.3,0.4-0.4,0.7c-0.1,0.3-0.2,0.5-0.2,0.7c0,0.1,0.1,0.2,0.1,0.3c0.1,0.1,0.2,0.1,0.4,0.1
	c0.2,0,0.4-0.1,0.6-0.2c0.2-0.1,0.4-0.3,0.6-0.5c0.2-0.2,0.4-0.4,0.7-0.7s0.4-0.5,0.6-0.7c0.2-0.2,0.3-0.4,0.5-0.6
	c0.1-0.2,0.2-0.3,0.3-0.4c0.1-0.1,0.1-0.1,0.2-0.2c0.1,0,0.2,0,0.2,0c0.1,0,0.1,0.1,0.1,0.2c0,0.1,0,0.2-0.1,0.4
	c-0.1,0.1-0.2,0.3-0.3,0.5c-0.1,0.2-0.3,0.5-0.5,0.8c-0.2,0.3-0.4,0.6-0.7,0.9c-0.3,0.3-0.5,0.6-0.8,0.8c-0.3,0.2-0.6,0.4-0.8,0.6
	c-0.3,0.2-0.6,0.2-0.8,0.2c-0.3,0-0.5-0.1-0.7-0.2c-0.2-0.1-0.3-0.2-0.4-0.4c-0.1-0.1-0.2-0.3-0.2-0.5c0-0.2-0.1-0.3-0.1-0.5
	c0-0.1,0-0.3,0.1-0.4c0.1-0.1,0.1-0.3,0.2-0.4c0.1-0.1,0.2-0.3,0.3-0.4c0.1-0.2,0.2-0.3,0.2-0.4c0.2-0.3,0.3-0.6,0.4-0.8
	c0.1-0.2,0.2-0.4,0.2-0.5c0-0.1,0-0.2-0.1-0.3c0-0.1-0.1-0.1-0.2-0.1c-0.1,0-0.1,0-0.1,0c0,0-0.1,0-0.1,0c0,0-0.1,0-0.1,0
	c0,0-0.1,0-0.2,0c-0.1,0-0.2,0-0.3-0.1c-0.1,0-0.2-0.1-0.3-0.1c0,0.1-0.1,0.2-0.3,0.5c-0.1,0.2-0.3,0.5-0.5,0.8
	c-0.2,0.3-0.4,0.7-0.6,1c-0.2,0.4-0.4,0.7-0.6,1c-0.2,0.3-0.3,0.6-0.5,0.8C1020.9,323.3,1020.8,323.4,1020.8,323.4z M1014.1,317.9
	c-0.1,0-0.3,0.1-0.4,0.2c-0.2,0.1-0.3,0.3-0.5,0.5c-0.2,0.2-0.3,0.5-0.5,0.9c-0.1,0.3-0.3,0.7-0.3,1.1c0.1-0.1,0.3-0.2,0.4-0.3
	c0.1-0.1,0.3-0.2,0.4-0.3c0.4-0.3,0.8-0.6,0.9-0.9c0.2-0.3,0.3-0.5,0.3-0.7c0-0.2,0-0.3-0.1-0.4
	C1014.3,318,1014.2,317.9,1014.1,317.9z M1018,320.3c-0.3,0.5-0.7,0.9-1,1.3c-0.4,0.4-0.8,0.8-1.2,1.1c-0.4,0.3-0.9,0.6-1.3,0.8
	c-0.5,0.2-0.9,0.3-1.3,0.3c-0.2,0-0.5-0.1-0.7-0.2c-0.3-0.1-0.5-0.3-0.7-0.5c-0.2-0.2-0.4-0.5-0.5-0.9c-0.1-0.4-0.2-0.8-0.1-1.3
	c0-0.4,0.2-0.9,0.4-1.3c0.2-0.5,0.5-0.9,0.8-1.3c0.3-0.4,0.7-0.7,1.1-1c0.4-0.3,0.8-0.4,1.2-0.4c0.4,0,0.7,0.1,0.8,0.3
	c0.2,0.2,0.3,0.4,0.2,0.7c0,0.3-0.1,0.6-0.3,0.9c-0.1,0.3-0.3,0.5-0.5,0.7c-0.2,0.2-0.4,0.4-0.7,0.6c-0.2,0.2-0.4,0.3-0.7,0.5
	c-0.2,0.2-0.4,0.3-0.6,0.4c-0.2,0.1-0.4,0.3-0.5,0.4c0,0.3,0.1,0.5,0.1,0.6c0.1,0.2,0.2,0.3,0.3,0.4c0.1,0.1,0.3,0.2,0.4,0.2
	c0.2,0,0.3,0.1,0.5,0.1c0.3,0,0.7-0.1,1.1-0.3c0.4-0.2,0.8-0.5,1.1-0.8c0.4-0.3,0.7-0.6,1-1c0.3-0.3,0.6-0.6,0.8-0.9
	c0.1-0.1,0.1-0.1,0.2-0.1c0.1,0,0.1,0,0.2,0c0,0,0.1,0.1,0.1,0.2C1018.1,320.1,1018.1,320.2,1018,320.3z M1011.6,320.1
	c0.1-0.1,0.1-0.1,0.2-0.1c0.1,0,0.1,0,0.2,0.1c0,0,0.1,0.1,0.1,0.2c0,0.1,0,0.2-0.1,0.3c-0.2,0.3-0.4,0.5-0.7,0.8
	c-0.3,0.3-0.5,0.6-0.8,0.8c-0.3,0.3-0.6,0.5-0.9,0.8c-0.3,0.2-0.6,0.4-0.9,0.6c-0.3,0.2-0.6,0.3-0.8,0.3c-0.2,0-0.4-0.1-0.6-0.4
	c-0.2-0.2-0.3-0.5-0.3-0.8c0-0.3,0.1-0.6,0.2-1c0.1-0.3,0.2-0.6,0.3-0.9c0.1-0.4,0.2-0.7,0.3-1c0.1-0.3,0.1-0.6,0.1-0.8
	c0-0.2-0.2-0.3-0.4-0.3c-0.2,0-0.3,0.1-0.5,0.2c-0.2,0.1-0.4,0.3-0.6,0.4c-0.2,0.2-0.4,0.4-0.5,0.6c-0.2,0.2-0.3,0.4-0.5,0.7
	c-0.1,0.4-0.2,0.8-0.2,1.2c-0.1,0.3-0.1,0.7-0.2,1.1c-0.1,0.4-0.2,0.7-0.2,1c-0.1,0-0.1,0.1-0.2,0.1c-0.1,0-0.1,0-0.2,0
	c-0.1,0-0.1,0-0.2,0c-0.1,0-0.2-0.1-0.2-0.1c-0.1,0-0.1-0.1-0.2-0.2c-0.1-0.1-0.1-0.2-0.1-0.3c0.5-1.9,0.8-3.4,1.1-4.6
	c0.3-1.2,0.5-2,0.6-2.6c0.2-0.7,0.3-1.2,0.3-1.5c0-0.2,0.1-0.4,0.1-0.6c0-0.2,0-0.3,0-0.5c0-0.2,0-0.3,0-0.5
	c0.1-0.1,0.2-0.1,0.3-0.1c0.1,0,0.2-0.1,0.3-0.1c0.1,0,0.2-0.1,0.3-0.1c0.1,0,0.2,0,0.3,0c0.1,0,0.2,0,0.2,0c0.1,0,0.1,0.1,0.1,0.1
	c0.1,0,0.1,0.2,0.1,0.3c0,0.2,0,0.3,0,0.5c0,0.2-0.1,0.4-0.1,0.6c-0.2,0.8-0.5,1.6-0.7,2.4c-0.3,0.8-0.5,1.6-0.7,2.5
	c0.1-0.2,0.3-0.4,0.5-0.6c0.2-0.2,0.4-0.4,0.6-0.6c0.2-0.2,0.5-0.3,0.7-0.4c0.2-0.1,0.5-0.2,0.8-0.2c0.1,0,0.3,0,0.4,0.1
	c0.1,0,0.2,0.1,0.3,0.2c0.1,0.1,0.2,0.3,0.2,0.4c0,0.2,0.1,0.4,0.1,0.7c0,0.2,0,0.3-0.1,0.5c0,0.2-0.1,0.4-0.1,0.6
	c-0.1,0.2-0.1,0.4-0.2,0.7c-0.1,0.3-0.2,0.6-0.3,0.9c-0.1,0.2-0.2,0.4-0.2,0.6c-0.1,0.2,0,0.3,0,0.4c0.1,0.2,0.3,0.2,0.5,0.1
	c0.3-0.1,0.7-0.4,1.2-0.8c0.1-0.1,0.3-0.2,0.4-0.4c0.2-0.2,0.3-0.3,0.4-0.5c0.1-0.2,0.3-0.3,0.4-0.5
	C1011.5,320.3,1011.6,320.2,1011.6,320.1z M1004.6,319.6c0-0.1,0.1-0.1,0.2-0.1c0.1,0,0.1,0,0.2,0c0,0,0.1,0.1,0.1,0.2
	c0,0.1,0,0.2-0.1,0.3c-0.2,0.4-0.5,0.8-0.8,1.3c-0.3,0.5-0.7,0.9-1.1,1.3c-0.4,0.4-0.7,0.7-1.1,1c-0.3,0.3-0.6,0.4-0.9,0.4
	c-0.3,0-0.6-0.1-0.8-0.2c-0.2-0.1-0.4-0.3-0.5-0.5c-0.1-0.2-0.2-0.4-0.3-0.6c-0.1-0.2-0.1-0.4,0-0.6c0-0.2,0-0.5,0.1-0.9
	c0.1-0.4,0.1-0.9,0.2-1.5c0.1-0.6,0.2-1.2,0.3-1.8c0.1-0.6,0.3-1.3,0.4-1.9c-0.2,0-0.4,0-0.5,0.1c-0.2,0-0.3,0-0.5,0
	c-0.3,0-0.6,0-0.9-0.1c-0.3-0.1-0.5-0.2-0.7-0.2c-0.1,0-0.1-0.1-0.1-0.2c0-0.1,0-0.2,0.1-0.2c0.1-0.1,0.1-0.1,0.2-0.2
	c0.1-0.1,0.1-0.1,0.2-0.1c0.2,0,0.4,0,0.6,0.1c0.2,0,0.5,0,0.7,0c0.2,0,0.4,0,0.6,0c0.2,0,0.4,0,0.5-0.1c0.1-0.5,0.3-0.9,0.4-1.3
	c0.1-0.4,0.2-0.6,0.3-0.8c0-0.1,0.1-0.1,0.2-0.1c0.1,0,0.2-0.1,0.3-0.1c0.1,0,0.2,0,0.4,0c0.1,0,0.2,0.1,0.2,0.1
	c0.1,0.1,0.1,0.3,0.1,0.6c0,0.3-0.1,0.8-0.2,1.3c0.4,0,0.8,0,1.1,0.1c0.3,0,0.6,0.1,0.9,0.2c0.2,0.1,0.4,0.1,0.6,0.2
	c0.1,0.1,0.3,0.1,0.3,0.1c0.1,0,0.1,0.1,0.1,0.2c0,0.1,0,0.2,0,0.3c0,0.1-0.1,0.2-0.2,0.2c-0.1,0.1-0.2,0.1-0.3,0.1
	c-0.1,0-0.2,0-0.3-0.1c-0.1,0-0.3-0.1-0.5-0.1c-0.2,0-0.4,0-0.6-0.1c-0.3,0-0.5,0-0.9,0c-0.1,0-0.1,0-0.2,0c-0.1,0-0.2,0-0.2,0
	c0,0.2-0.1,0.3-0.1,0.5c0,0.2-0.1,0.3-0.1,0.5c-0.1,0.4-0.3,0.9-0.5,1.3c-0.2,0.4-0.3,0.9-0.6,1.4c-0.2,0.5-0.5,1.1-0.7,1.7
	c-0.1,0.4-0.1,0.8,0,1c0.1,0.2,0.2,0.4,0.3,0.5c0.1,0.1,0.3,0.2,0.5,0.2c0.2,0,0.3,0,0.6-0.2c0.2-0.1,0.5-0.3,0.7-0.5
	c0.2-0.2,0.5-0.5,0.7-0.7c0.2-0.3,0.5-0.5,0.7-0.8c0.2-0.2,0.4-0.5,0.5-0.7C1004.4,319.8,1004.6,319.7,1004.6,319.6z"/>
<path class="st17" d="M1077,317.8c0.1-0.1,0.3-0.2,0.4-0.2c0.1-0.1,0.2-0.1,0.3-0.1c0.1,0,0.2,0,0.3,0c0.3,0,0.4,0.1,0.5,0.3
	c0.1,0.2,0.1,0.4,0,0.7c0,0.2-0.1,0.4-0.2,0.7c-0.1,0.3-0.2,0.6-0.3,1c-0.1,0.4-0.3,0.8-0.4,1.3c-0.1,0.5-0.3,1.1-0.4,1.7
	c-0.1,0.5-0.3,1.1-0.4,1.7c-0.1,0.6-0.3,1.3-0.4,2.1c-0.2,0.8-0.4,1.7-0.5,2.8c-0.1,0.3-0.2,0.4-0.3,0.4c-0.2,0-0.3,0-0.5-0.1
	c-0.1,0-0.1-0.1-0.2-0.1c-0.1-0.1-0.1-0.1-0.2-0.2c-0.1-0.1-0.1-0.2-0.2-0.3c0.2-0.9,0.4-1.6,0.6-2.4c0.2-0.7,0.3-1.3,0.5-1.8
	c0.2-0.6,0.3-1.2,0.4-1.6c0-0.2,0.1-0.4,0.1-0.6c0-0.2,0.1-0.4,0.1-0.6c-0.1,0.2-0.3,0.4-0.4,0.6c-0.2,0.2-0.3,0.4-0.5,0.5
	c-0.2,0.1-0.4,0.3-0.6,0.3c-0.2,0.1-0.4,0.1-0.7,0.1c-0.6-0.1-1-0.3-1.2-0.6c-0.2-0.3-0.3-0.8-0.3-1.3c0-0.2,0-0.5,0.1-0.7
	c0.1-0.3,0.1-0.5,0.2-0.7c0.1-0.2,0.1-0.4,0.2-0.6c0.1-0.2,0.1-0.3,0.1-0.4c0.1-0.4,0.2-0.7,0.3-1c0.1-0.3,0-0.5-0.1-0.7
	c0.1-0.1,0.3-0.2,0.4-0.2c0.1,0,0.2-0.1,0.3-0.1c0.1,0,0.2,0,0.3,0c0.3,0,0.4,0.1,0.5,0.3c0,0.2,0,0.4-0.1,0.7
	c0,0.2-0.1,0.4-0.2,0.7c-0.1,0.3-0.2,0.6-0.3,0.8c-0.1,0.3-0.2,0.6-0.3,0.8c-0.1,0.2-0.1,0.4-0.1,0.5c-0.1,0.5-0.1,0.8,0,1.1
	c0.1,0.3,0.3,0.4,0.5,0.4c0.1,0,0.3-0.1,0.4-0.2c0.2-0.1,0.3-0.3,0.5-0.5c0.2-0.2,0.3-0.4,0.5-0.7c0.2-0.3,0.3-0.5,0.5-0.8
	c0.1-0.3,0.3-0.5,0.4-0.8c0.1-0.3,0.2-0.5,0.2-0.7c0.1-0.4,0.1-0.7,0.1-0.9C1077.3,318.2,1077.2,318,1077,317.8z M1069.5,321.1
	c0.1-0.2,0.1-0.4,0.2-0.7c0.1-0.3,0.1-0.5,0.2-0.8c0.1-0.3,0.1-0.5,0.1-0.6c0-0.2,0-0.3,0-0.2c-0.1,0-0.1,0-0.2,0
	c-0.1,0-0.1,0-0.2,0c-0.1,0-0.2,0-0.2,0c0.1-0.2,0.1-0.3,0.1-0.4c0-0.1,0-0.2,0-0.3c0-0.1,0-0.1-0.1-0.2c-0.1-0.1-0.3,0-0.6,0.2
	c-0.3,0.2-0.6,0.7-1,1.3c-0.2,0.3-0.3,0.6-0.4,0.9c-0.1,0.3-0.2,0.6-0.2,0.9c0,0.3,0,0.5,0,0.7c0,0.2,0.1,0.3,0.1,0.4
	c0.1,0.1,0.2,0.2,0.4,0.2c0.1,0,0.3,0,0.4-0.1c0.1-0.1,0.3-0.2,0.4-0.3c0.1-0.1,0.3-0.3,0.4-0.4c0.1-0.1,0.2-0.3,0.3-0.4
	C1069.5,321.2,1069.5,321.2,1069.5,321.1z M1074,320.4c-0.1,0.2-0.3,0.5-0.6,0.8c-0.2,0.3-0.5,0.6-0.7,0.9c-0.2,0.3-0.5,0.6-0.7,0.8
	c-0.2,0.3-0.4,0.4-0.6,0.5c-0.1,0.1-0.2,0.1-0.4,0.2c-0.1,0-0.3,0.1-0.4,0.1c-0.1,0-0.3,0-0.4,0c-0.1,0-0.2-0.1-0.3-0.1
	c-0.1-0.1-0.2-0.2-0.2-0.3c-0.1-0.1-0.1-0.3-0.1-0.4c0-0.2-0.1-0.4-0.1-0.7c-0.2,0.4-0.5,0.7-0.8,0.9c-0.3,0.2-0.6,0.4-0.8,0.5
	c-0.3,0.1-0.6,0.2-0.9,0.2c-0.1,0-0.3,0-0.5-0.1c-0.2-0.1-0.3-0.3-0.4-0.5c-0.1-0.2-0.2-0.5-0.2-0.8c0-0.3,0-0.7,0.1-1.2
	c0.1-0.6,0.4-1.2,0.7-1.7c0.3-0.5,0.7-0.9,1-1.3c0.4-0.4,0.7-0.6,1.1-0.8c0.4-0.2,0.7-0.3,0.9-0.2c0.3,0.1,0.5,0.1,0.7,0.2
	c0.1,0.1,0.2,0.3,0.3,0.5c0,0.2,0,0.5-0.3,0.8c0.1,0,0.3-0.1,0.4-0.1c0.1,0,0.2,0,0.2,0c0.1,0,0.1,0,0.1,0c0,0,0,0.1,0,0.1
	c0,0.1,0,0.2,0,0.4c0,0.2-0.1,0.4-0.1,0.7c-0.1,0.3-0.1,0.7-0.2,1.2c0,0.1,0,0.2-0.1,0.3c0,0.1,0,0.2,0,0.2c0,0.1,0,0.2-0.1,0.3
	c0,0.1-0.1,0.2-0.1,0.4c0,0.1,0,0.2,0,0.3c0,0.1,0,0.2,0.1,0.3c0,0.1,0.1,0.2,0.1,0.2c0.1,0.1,0.2,0.1,0.3,0.1
	c0.1,0,0.2-0.1,0.4-0.2c0.2-0.1,0.3-0.3,0.5-0.5c0.2-0.2,0.4-0.4,0.6-0.7c0.2-0.2,0.4-0.5,0.6-0.7c0.2-0.2,0.3-0.4,0.5-0.6
	c0.1-0.2,0.2-0.3,0.3-0.4c0.1-0.1,0.2-0.1,0.2-0.2c0.1,0,0.1,0,0.2,0.1c0,0.1,0,0.2,0,0.3C1074.2,320.1,1074.1,320.3,1074,320.4z
	 M1063.9,320.8c-0.1,0.4-0.3,0.7-0.5,1.1c-0.2,0.3-0.4,0.7-0.6,0.9c-0.2,0.3-0.5,0.5-0.7,0.7c-0.3,0.2-0.5,0.2-0.8,0.2
	c-0.5,0-0.8-0.2-1.1-0.5c-0.2-0.3-0.4-0.7-0.5-1.2c-0.1,0.2-0.3,0.4-0.5,0.6c-0.2,0.2-0.3,0.4-0.5,0.6c-0.2,0.2-0.4,0.3-0.6,0.4
	c-0.2,0.1-0.4,0.2-0.6,0.2c-0.3,0-0.5-0.1-0.7-0.2c-0.2-0.1-0.3-0.3-0.5-0.5c-0.1-0.2-0.2-0.4-0.3-0.7c-0.1-0.3-0.1-0.5-0.1-0.8
	v-0.2c0-0.4,0-0.8,0.1-1.2c0.1-0.4,0.1-0.8,0.2-1.1c0.1-0.3,0.2-0.6,0.2-0.9c0.1-0.3,0.1-0.4,0.2-0.5c0.1-0.1,0.2-0.2,0.5-0.3
	c0.2-0.1,0.5-0.1,0.7-0.1c0.1,0,0.2,0.1,0.2,0.1c0,0.1,0,0.2,0,0.3c0,0.2-0.1,0.4-0.2,0.8c-0.1,0.4-0.2,0.7-0.3,1.1
	c-0.1,0.4-0.2,0.8-0.3,1.2c-0.1,0.4-0.1,0.7-0.1,1c0,0.3,0.1,0.6,0.2,0.7c0.1,0.1,0.3,0.2,0.5,0.2c0.3,0,0.5-0.1,0.9-0.4
	c0.3-0.3,0.6-0.8,0.9-1.5c0-0.1,0-0.1,0-0.2c0-0.1,0-0.1,0-0.2c0-0.5,0-0.9,0.1-1.3c0-0.4,0.1-0.8,0.2-1.1c0.1-0.3,0.3-0.6,0.4-0.8
	c0.2-0.2,0.4-0.3,0.7-0.3c0.1,0,0.2,0,0.3,0.1c0.1,0.1,0.1,0.2,0.1,0.3c0,0.3-0.1,0.8-0.3,1.4c-0.2,0.6-0.5,1.3-0.8,2
	c0,0-0.1,0.1-0.1,0.1c0,0.2,0.1,0.4,0.1,0.6c0,0.2,0.1,0.4,0.2,0.6c0.1,0.2,0.2,0.3,0.3,0.4c0.1,0.1,0.3,0.2,0.4,0.2
	c0.2,0,0.4-0.1,0.6-0.3c0.2-0.2,0.4-0.5,0.5-0.8c0.1-0.3,0.3-0.6,0.4-1c0.1-0.3,0.2-0.7,0.3-0.9c0-0.1-0.1-0.2-0.1-0.3
	c0-0.1,0-0.2,0-0.4c0-0.3,0-0.6,0.1-0.8c0.1-0.2,0.2-0.4,0.4-0.6c0.1-0.1,0.3-0.3,0.5-0.3c0.2-0.1,0.3-0.1,0.5-0.1
	c0.3,0,0.4,0.1,0.4,0.3c0,0.2,0,0.4-0.1,0.9c-0.1,0.4-0.2,0.9-0.4,1.4c0.2,0.1,0.4,0.1,0.7,0.1c0.3,0,0.5,0,0.7-0.1
	c0.2-0.1,0.4-0.2,0.6-0.3c0.2-0.1,0.4-0.2,0.5-0.3c0.2-0.1,0.3-0.2,0.4-0.4c0.1-0.1,0.2-0.1,0.3,0c0.1,0.1,0.1,0.2,0,0.3
	c-0.1,0.1-0.2,0.3-0.4,0.5c-0.2,0.2-0.4,0.3-0.7,0.5c-0.3,0.2-0.6,0.3-0.9,0.4c-0.3,0.1-0.7,0.2-1.1,0.2c-0.1,0-0.1,0-0.2,0
	C1064.1,320.9,1064,320.8,1063.9,320.8z M1052.4,319.6c0-0.1,0.1-0.1,0.2-0.1c0.1,0,0.1,0,0.2,0c0,0,0.1,0.1,0.1,0.2
	c0,0.1,0,0.2-0.1,0.3c-0.2,0.4-0.5,0.8-0.8,1.3c-0.3,0.5-0.7,0.9-1.1,1.3c-0.4,0.4-0.7,0.7-1.1,1c-0.3,0.3-0.6,0.4-0.9,0.4
	c-0.3,0-0.6-0.1-0.8-0.2c-0.2-0.1-0.4-0.3-0.5-0.5c-0.1-0.2-0.2-0.4-0.3-0.6c-0.1-0.2-0.1-0.4,0-0.6c0-0.2,0-0.5,0.1-0.9
	c0.1-0.4,0.1-0.9,0.2-1.5c0.1-0.6,0.2-1.2,0.3-1.8c0.1-0.6,0.3-1.3,0.4-1.9c-0.2,0-0.4,0-0.5,0.1c-0.2,0-0.3,0-0.5,0
	c-0.3,0-0.6,0-0.9-0.1c-0.3-0.1-0.5-0.2-0.7-0.2c-0.1,0-0.1-0.1-0.1-0.2c0-0.1,0-0.2,0.1-0.2c0.1-0.1,0.1-0.1,0.2-0.2
	c0.1-0.1,0.1-0.1,0.2-0.1c0.2,0,0.4,0,0.6,0.1c0.2,0,0.5,0,0.7,0c0.2,0,0.4,0,0.6,0c0.2,0,0.4,0,0.5-0.1c0.1-0.5,0.3-0.9,0.4-1.3
	c0.1-0.4,0.2-0.6,0.3-0.8c0-0.1,0.1-0.1,0.2-0.1c0.1,0,0.2-0.1,0.3-0.1c0.1,0,0.2,0,0.4,0c0.1,0,0.2,0.1,0.2,0.1
	c0.1,0.1,0.1,0.3,0.1,0.6c0,0.3-0.1,0.8-0.2,1.3c0.4,0,0.8,0,1.1,0.1c0.3,0,0.6,0.1,0.9,0.2c0.2,0.1,0.4,0.1,0.6,0.2
	c0.1,0.1,0.3,0.1,0.3,0.1c0.1,0,0.1,0.1,0.1,0.2c0,0.1,0,0.2,0,0.3c0,0.1-0.1,0.2-0.2,0.2c-0.1,0.1-0.2,0.1-0.3,0.1
	c-0.1,0-0.2,0-0.3-0.1c-0.1,0-0.3-0.1-0.5-0.1c-0.2,0-0.4,0-0.6-0.1c-0.2,0-0.5,0-0.9,0c-0.1,0-0.1,0-0.2,0c-0.1,0-0.2,0-0.2,0
	c0,0.2-0.1,0.3-0.1,0.5c0,0.2-0.1,0.3-0.1,0.5c-0.1,0.4-0.3,0.9-0.5,1.3c-0.2,0.4-0.3,0.9-0.6,1.4c-0.2,0.5-0.5,1.1-0.7,1.7
	c-0.1,0.4-0.1,0.8,0,1c0.1,0.2,0.2,0.4,0.3,0.5c0.1,0.1,0.3,0.2,0.5,0.2c0.2,0,0.3,0,0.6-0.2c0.2-0.1,0.4-0.3,0.7-0.5
	c0.2-0.2,0.5-0.5,0.7-0.7c0.2-0.3,0.5-0.5,0.7-0.8c0.2-0.2,0.4-0.5,0.5-0.7C1052.2,319.8,1052.3,319.7,1052.4,319.6z"/>
</svg>
