<?xml version="1.0" encoding="utf-8"?>
<!-- Generator: Adobe Illustrator 19.0.0, SVG Export Plug-In . SVG Version: 6.00 Build 0)  -->
<svg version="1.1" id="Layer" xmlns="http://www.w3.org/2000/svg" xmlns:xlink="http://www.w3.org/1999/xlink" x="0px" y="0px"
	 viewBox="-1239 1247 520 508" style="enable-background:new -1239 1247 520 508;" xml:space="preserve">
<style type="text/css">
	.st0{fill:#FFFFFF;}
	.st1{fill:#345100;}
	.st2{fill:#A8CE00;}
	.st3{fill:#BFBFBF;}
	.st4{fill:url(#XMLID_2_);}
	.st5{fill:#E8E8E8;}
	.st6{fill:#CCCCCC;}
	.st7{fill:#868686;}
	.st8{fill:url(#XMLID_4_);}
	.st9{fill:url(#XMLID_22_);}
	.st10{fill:#3A3B3B;}
	.st11{fill:#90CBD3;}
	.st12{fill:#4EACB9;}
	.st13{fill:url(#XMLID_24_);}
	.st14{fill:#F5F5F5;}
	.st15{fill:#4B666D;}
	.st16{fill:#61777C;}
	.st17{fill:#F8F9FF;}
	.st18{fill:#F7AE40;}
	.st19{fill:#BAEB34;}
	.st20{fill:#FF5F3B;}
	.st21{fill:url(#XMLID_26_);}
	.st22{fill:url(#XMLID_30_);}
	.st23{fill:#52A5EA;}
	.st24{fill:url(#XMLID_31_);}
	.st25{fill:url(#XMLID_32_);}
	.st26{fill:#DCFFFF;}
	.st27{fill:#CFF2FF;}
	.st28{fill:#AACDEC;}
	.st29{fill:#428BD0;}
	.st30{fill:#F98B05;}
	.st31{fill:#FFD605;}
	.st32{fill:#E02305;}
	.st33{fill:#953400;}
	.st34{fill:#E04A05;}
	.st35{fill:#7C3B00;}
	.st36{fill:#E09705;}
	.st37{fill:#7C1F00;}
	.st38{fill:#A93300;}
	.st39{fill:#FF5E05;}
	.st40{fill:#394551;}
	.st41{fill:#54A4B8;}
	.st42{fill:#005956;}
	.st43{fill:#00A9A1;}
	.st44{fill:#F6F6F6;}
	.st45{fill:#C7273B;}
	.st46{fill:#FE6375;}
	.st47{fill:#1E61F7;}
	.st48{opacity:0.52;fill:#1E61F7;enable-background:new    ;}
</style>
<g id="XMLID_27_">
	<g id="XMLID_2854_">
		<path id="XMLID_5_" class="st0" d="M-963.4,1456.2V1397h3.6v61.5C-961,1457.7-962.2,1457-963.4,1456.2z"/>
	</g>
	<g id="XMLID_2852_">
		<path id="XMLID_6_" class="st0" d="M-998.4,1437.7l-0.1-59.7h3.6l0.1,61.5C-995.9,1438.9-997.1,1438.3-998.4,1437.7z"/>
	</g>
	<g id="XMLID_2850_">
		<path id="XMLID_7_" class="st0" d="M-975.8,1449.1V1392h3.6v59C-973.3,1450.4-974.5,1449.7-975.8,1449.1z"/>
	</g>
	<g id="XMLID_2848_">
		<path id="XMLID_8_" class="st0" d="M-987.1,1443.2v-65.3h3.6v67.2C-984.7,1444.5-985.8,1443.8-987.1,1443.2z"/>
	</g>
	<g id="XMLID_2837_">
		<path id="XMLID_2847_" class="st1" d="M-838.5,1590.6l18,10.5c3.3,1.9,5.9-0.1,5.9-4.5V1578c0-4.4-2.6-9.5-5.9-11.3l-18-10.5
			c-3.3-1.9-5.9,0.1-5.9,4.5v18.6C-844.4,1583.6-841.8,1588.7-838.5,1590.6z"/>
		<g id="XMLID_9_">
			<path id="XMLID_2846_" class="st2" d="M-842,1592.6l18,10.5c3.3,1.9,5.9-0.1,5.9-4.5V1580c0-4.4-2.6-9.5-5.9-11.3l-18-10.5
				c-3.3-1.9-5.9,0.1-5.9,4.5v18.6C-847.9,1585.6-845.2,1590.6-842,1592.6z"/>
			<g id="XMLID_10_">
				<polygon id="XMLID_2845_" class="st0" points="-825.1,1576.6 -824.7,1584 -830.6,1577.9 				"/>
				<polygon id="XMLID_2844_" class="st0" points="-840.8,1577.3 -840.3,1584.8 -835.3,1583.3 				"/>
				<g id="XMLID_11_">
					<path id="XMLID_2843_" class="st0" d="M-841.8,1572.4l3.4,3.6c0.5-2.6,2.8-3.5,5.5-2c1.7,1,3.3,2.8,4.3,4.9l2.9-1
						c-1.8-3.5-4.4-6.5-7.1-8.1C-837.1,1567.4-840.8,1568.6-841.8,1572.4z"/>
				</g>
				<g id="XMLID_12_">
					<path id="XMLID_2841_" class="st0" d="M-839.6,1583.8c1.8,3.2,4.1,5.7,6.6,7.2c4.1,2.4,7.6,1.3,8.8-2.4l-3.4-3.6
						c-0.6,2.4-2.8,3.2-5.4,1.8c-1.5-0.9-2.9-2.4-4-4.3L-839.6,1583.8z"/>
				</g>
			</g>
		</g>
	</g>
	<g id="XMLID_2809_">
		<path id="XMLID_2836_" class="st3" d="M-1058.3,1542.4l32.1-25c2.3-1.8,11,1.4,13.3,2.8l160.5,95.1c2,1.2-3.7,3.9-3.7,3.9
			l-35.3,21.4c-2.3,1.8-5.1,2.1-7.5,0.8l-35-20.3l-15.8,9.6c-1.2,0.9-2.7,1.1-3.9,0.4l-24-13.9l-40.3-23.5c-1-0.6-1-2.4,0-3.2
			l13.4-10.5l-53.9-31.4C-1060.3,1547.4-1060.3,1544-1058.3,1542.4z"/>
		<g id="XMLID_2810_">
			<g id="XMLID_14_">
				
					<linearGradient id="XMLID_2_" gradientUnits="userSpaceOnUse" x1="-1506.8907" y1="1405.8909" x2="-1434.7529" y2="1405.8909" gradientTransform="matrix(1 0 0 -1 488.9812 3004)">
					<stop  offset="0" style="stop-color:#F9F9F9"/>
					<stop  offset="2.344800e-002" style="stop-color:#DEDEDE"/>
					<stop  offset="0.6362" style="stop-color:#DEDEDE"/>
					<stop  offset="0.6672" style="stop-color:#AFAFAF"/>
					<stop  offset="0.6771" style="stop-color:#A9A9A9"/>
					<stop  offset="0.6902" style="stop-color:#989898"/>
					<stop  offset="0.7007" style="stop-color:#868686"/>
					<stop  offset="0.9595" style="stop-color:#868686"/>
					<stop  offset="1" style="stop-color:#737373"/>
				</linearGradient>
				<path id="XMLID_2835_" class="st4" d="M-945.8,1603.4L-945.8,1603.4v-1.5l-3.4,0.3l-1.2-0.3l-39.4-22.9c-1.8-1-4.4-1.1-5.9-0.3
					l-18.8,10.9l-3.4-0.7v1.6l0,0c0,0.7,0.5,1.4,1.4,1.9l42.5,24.8c1.8,1,4.4,1.1,5.9,0.3l21.2-12.3
					C-946,1604.7-945.7,1604.1-945.8,1603.4z"/>
				<path id="XMLID_2834_" class="st5" d="M-995.7,1575.1l-21.2,12.3c-1.5,0.8-1.3,2.4,0.4,3.4l42.5,24.8c1.8,1,4.4,1.1,5.9,0.3
					l21.2-12.3c1.5-0.8,1.3-2.4-0.4-3.4l-42.5-24.8C-991.5,1574.3-994.2,1574.2-995.7,1575.1z"/>
			</g>
			<polygon id="XMLID_2832_" class="st6" points="-987.6,1587.3 -963.4,1601.3 -971.8,1573.3 -996,1559.2 			"/>
			<polygon id="XMLID_2831_" class="st7" points="-963.4,1601.3 -958.6,1598.2 -967,1570.1 -971.8,1573.3 			"/>
			<g id="XMLID_15_">
				<g id="XMLID_16_">
					
						<linearGradient id="XMLID_4_" gradientUnits="userSpaceOnUse" x1="-2838.332" y1="2.1706" x2="-2574.1948" y2="2.1706" gradientTransform="matrix(-0.5002 -0.8659 -0.8659 0.5002 -2332.2881 -844.9575)">
						<stop  offset="0" style="stop-color:#737373"/>
						<stop  offset="4.054050e-002" style="stop-color:#868686"/>
						<stop  offset="0.4249" style="stop-color:#868686"/>
						<stop  offset="0.4283" style="stop-color:#989898"/>
						<stop  offset="0.4325" style="stop-color:#A9A9A9"/>
						<stop  offset="0.4356" style="stop-color:#AFAFAF"/>
						<stop  offset="0.4448" style="stop-color:#DEDEDE"/>
						<stop  offset="0.9876" style="stop-color:#DEDEDE"/>
						<stop  offset="1" style="stop-color:#F9F9F9"/>
					</linearGradient>
					<path id="XMLID_2830_" class="st8" d="M-1055.5,1390.4L-1055.5,1390.4l-5.6,3.2l4.6,6.9l1,2.8v111.9c0,5,3,10.7,6.7,12.9
						l132.3,77l2.9,8.2l5.8-3.3l0,0c1.4-0.8,2.4-2.8,2.4-5.5v-120.8c0-5-3-10.7-6.7-12.9l-138.4-80.4
						C-1052.5,1389.2-1054.3,1389.3-1055.5,1390.4z"/>
					
						<linearGradient id="XMLID_22_" gradientUnits="userSpaceOnUse" x1="-2838.3423" y1="4.3525" x2="-2574.2185" y2="4.3525" gradientTransform="matrix(-0.5002 -0.8659 -0.8659 0.5002 -2332.2881 -844.9575)">
						<stop  offset="0" style="stop-color:#B3B3B3"/>
						<stop  offset="4.054050e-002" style="stop-color:#BDBDBD"/>
						<stop  offset="0.6188" style="stop-color:#BDBDBD"/>
						<stop  offset="0.6206" style="stop-color:#BEBEBE"/>
						<stop  offset="0.6466" style="stop-color:#CFCFCF"/>
						<stop  offset="0.6663" style="stop-color:#D5D5D5"/>
						<stop  offset="0.7071" style="stop-color:#F0F0F0"/>
						<stop  offset="0.9766" style="stop-color:#F0F0F0"/>
						<stop  offset="1" style="stop-color:#FFFFFF"/>
					</linearGradient>
					<path id="XMLID_2829_" class="st9" d="M-909.3,1606.7v-120.8c0-5-3-10.7-6.7-12.9l-138.4-80.4c-1.4-0.8-2.8-1-3.9-0.6l-1,0.6
						c0,0-0.1,0-0.1,0.1l0,0l-1.8,1.1l4.6,6.9l1,2.8v111.9c0,5,3,10.7,6.7,12.9l132.3,77l2.9,8.2l2-1.2l0,0
						C-910.2,1611.3-909.3,1609.4-909.3,1606.7z"/>
					<polygon id="XMLID_2828_" class="st10" points="-909.2,1591.1 -909.2,1485.8 -911.4,1487 -911.4,1592.5 					"/>
					<path id="XMLID_2827_" class="st10" d="M-911.4,1592.5c0-0.2,0-0.3,0-0.4v-105l-151.8-88.3v105c0,0.2,0,0.3,0,0.4
						L-911.4,1592.5z"/>
				</g>
				<polygon id="XMLID_2823_" class="st11" points="-911.4,1591.2 -911.4,1488.3 -1063.2,1400 -1063.2,1503 				"/>
				<polygon id="XMLID_2820_" class="st12" points="-909.7,1590.3 -909.8,1487.4 -911.4,1488.3 -911.4,1591.2 				"/>
			</g>
			<g id="XMLID_17_">
				<g id="XMLID_20_">
					
						<linearGradient id="XMLID_24_" gradientUnits="userSpaceOnUse" x1="-2838.332" y1="2.1706" x2="-2574.1948" y2="2.1706" gradientTransform="matrix(-0.5002 -0.8659 -0.8659 0.5002 -2332.2881 -844.9575)">
						<stop  offset="0" style="stop-color:#737373"/>
						<stop  offset="4.054050e-002" style="stop-color:#868686"/>
						<stop  offset="0.4092" style="stop-color:#868686"/>
						<stop  offset="0.4148" style="stop-color:#989898"/>
						<stop  offset="0.4217" style="stop-color:#A9A9A9"/>
						<stop  offset="0.4269" style="stop-color:#AFAFAF"/>
						<stop  offset="0.4517" style="stop-color:#DEDEDE"/>
						<stop  offset="0.9876" style="stop-color:#DEDEDE"/>
						<stop  offset="1" style="stop-color:#F9F9F9"/>
					</linearGradient>
					<path id="XMLID_2818_" class="st13" d="M-1055.5,1390.4L-1055.5,1390.4l-5.6,3.2l4.6,6.9l1,2.8v111.9c0,5,3,10.7,6.7,12.9
						l132.3,77l2.9,8.2l5.8-3.3l0,0c1.4-0.8,2.4-2.8,2.4-5.5v-120.8c0-5-3-10.7-6.7-12.9l-138.4-80.4
						C-1052.5,1389.2-1054.3,1389.3-1055.5,1390.4z"/>
					<polygon id="XMLID_2817_" class="st10" points="-909.2,1591.1 -909.2,1485.8 -911.4,1487 -911.4,1592.5 					"/>
					<path id="XMLID_2816_" class="st14" d="M-1056.5,1532.5l138.4,80.4c3.7,2.2,6.7-0.2,6.7-5.1V1487c0-5-3-10.7-6.7-12.9
						l-138.4-80.4c-3.7-2.2-6.7,0.2-6.7,5.1v120.8C-1063.2,1524.6-1060.2,1530.4-1056.5,1532.5z"/>
					<path id="XMLID_2815_" class="st10" d="M-911.4,1592.5c0-0.2,0-0.3,0-0.4v-105l-151.8-88.3v105c0,0.2,0,0.3,0,0.4
						L-911.4,1592.5z"/>
				</g>
				<polygon id="XMLID_2813_" class="st15" points="-911.4,1591.2 -911.4,1488.3 -1063.2,1400 -1063.2,1503 				"/>
				<polygon id="XMLID_21_" class="st16" points="-911.4,1488.3 -911.4,1591.2 -990.3,1545.3 -990.9,1442.1 				"/>
			</g>
		</g>
	</g>
	<g id="XMLID_2801_">
		<polygon id="XMLID_2808_" class="st17" points="-926.1,1568.1 -926.1,1496.2 -1024.1,1439.2 -1027.4,1433.8 -1050.6,1420.3 
			-1053.3,1422.3 -1053.3,1494.2 		"/>
		<path id="XMLID_13_" class="st18" d="M-1035.9,1436.9c0,0.3,0,0.5,0.1,0.8c0.3,1.1,0.9,2.3,1.8,3c0.2,0.2,0.4,0.3,0.7,0.5
			c0.4,0.3,0.8,0.3,1.1,0.3l0,0c0.8,0,1.4-0.7,1.4-1.8c0-1.6-1.1-3.5-2.5-4.3c-1-0.6-1.8-0.4-2.3,0.3c-0.1,0.1-0.2,0.3-0.2,0.4
			C-1035.8,1436.4-1035.9,1436.6-1035.9,1436.9z"/>
		<path id="XMLID_23_" class="st19" d="M-1042.5,1432.9c0,0.3,0,0.5,0.1,0.8c0.3,1.1,0.9,2.3,1.8,3c0.2,0.2,0.4,0.3,0.7,0.5
			c0.4,0.3,0.8,0.3,1.1,0.3l0,0c0.8,0,1.4-0.7,1.4-1.8c0-1.6-1.1-3.5-2.5-4.3c-1-0.6-1.8-0.4-2.3,0.3c-0.1,0.1-0.2,0.3-0.2,0.4
			C-1042.4,1432.4-1042.5,1432.6-1042.5,1432.9z"/>
		<path id="XMLID_25_" class="st20" d="M-1049.2,1428.8c0,0.3,0,0.5,0.1,0.8c0.3,1.1,0.9,2.3,1.8,3c0.2,0.2,0.4,0.3,0.7,0.5
			c0.4,0.3,0.8,0.3,1.1,0.3l0,0c0.8,0,1.4-0.7,1.4-1.8c0-1.6-1.1-3.5-2.5-4.3c-1-0.6-1.8-0.4-2.3,0.3c-0.1,0.1-0.2,0.3-0.2,0.4
			C-1049.2,1428.3-1049.2,1428.6-1049.2,1428.8z"/>
	</g>
	<g id="XMLID_648_">
		
			<linearGradient id="XMLID_26_" gradientUnits="userSpaceOnUse" x1="-3404.5017" y1="1680.64" x2="-3393.4504" y2="1699.7815" gradientTransform="matrix(-1 0 0 -1 -4422 3004)">
			<stop  offset="0" style="stop-color:#5BBAF2"/>
			<stop  offset="5.184390e-002" style="stop-color:#61CAF2"/>
			<stop  offset="9.264274e-002" style="stop-color:#6CCCF6"/>
			<stop  offset="0.1718" style="stop-color:#7DCEFD"/>
			<stop  offset="0.2317" style="stop-color:#83CFFF"/>
			<stop  offset="0.4317" style="stop-color:#83CFFF"/>
			<stop  offset="0.6647" style="stop-color:#9EE6FF"/>
		</linearGradient>
		<path id="XMLID_1532_" class="st21" d="M-1018.8,1324.1c-3.5,2.4-8.1,3.9-12.3,5c-1.7,0.4-3.4,0.7-5,0.8c-0.5-2.3-0.8-4.5-0.8-6.7
			c-7.6,0-6.1-10.7-6.1-10.7l19.1-10.5c0.5-0.3,1-0.7,1.6-0.9h0.1l0,0c4.1-2,9.5-1.8,15.4,1.1
			C-1003.8,1308.4-1013.7,1320.4-1018.8,1324.1z"/>
		
			<linearGradient id="XMLID_30_" gradientUnits="userSpaceOnUse" x1="-3510.948" y1="1575.3417" x2="-3464.2783" y2="1656.1758" gradientTransform="matrix(-1 0 0 -1 -4422 3004)">
			<stop  offset="0" style="stop-color:#5BBAF2"/>
			<stop  offset="5.184390e-002" style="stop-color:#61CAF2"/>
			<stop  offset="9.264274e-002" style="stop-color:#6CCCF6"/>
			<stop  offset="0.1718" style="stop-color:#7DCEFD"/>
			<stop  offset="0.2317" style="stop-color:#83CFFF"/>
			<stop  offset="0.4317" style="stop-color:#83CFFF"/>
			<stop  offset="0.6647" style="stop-color:#9EE6FF"/>
		</linearGradient>
		<path id="XMLID_1531_" class="st22" d="M-918,1420.9l-64.3-37.4c5.5-5.3,10.8-10.7,16.5-16c7.2-6.7,14.9-13.1,21.7-20.2
			c4.7-5,15.2-13.4,19.6-18.6c6.9,8.1,11.5,19.1,11.5,28.7c0,2.1-0.3,3.9-0.7,5.6c0.7,0.3,1.3,0.7,2,1.1
			c12.8,7.5,23.3,25.6,23.3,40.4c0,7.3-2.5,12.5-6.6,14.9l0,0l-0.2,0.1c0,0,0,0-0.1,0l-19.9,11l-3.1-8.9l1.8,0.1
			C-917,1421.5-917.5,1421.1-918,1420.9z"/>
		<path id="XMLID_1530_" class="st23" d="M-984.8,1382l-0.9-0.5c2.9-2.4,5.8-4.6,8.6-7C-979.6,1377-982.2,1379.5-984.8,1382z"/>
		
			<linearGradient id="XMLID_31_" gradientUnits="userSpaceOnUse" x1="-3460.1047" y1="1639.2582" x2="-3418.8865" y2="1710.6504" gradientTransform="matrix(-1 0 0 -1 -4422 3004)">
			<stop  offset="0" style="stop-color:#5BBAF2"/>
			<stop  offset="5.184390e-002" style="stop-color:#61CAF2"/>
			<stop  offset="9.264274e-002" style="stop-color:#6CCCF6"/>
			<stop  offset="0.1718" style="stop-color:#7DCEFD"/>
			<stop  offset="0.2317" style="stop-color:#83CFFF"/>
			<stop  offset="0.4317" style="stop-color:#83CFFF"/>
			<stop  offset="0.6647" style="stop-color:#9EE6FF"/>
		</linearGradient>
		<path id="XMLID_1529_" class="st24" d="M-1029,1331.3c4.8-1.4,10.2-3.3,13.9-6.9c4.2-4.1,6.5-11.3,5.3-17.3
			c0.4,0.3,0.8,0.6,1.3,0.8c0.2-2,0.5-3.9,1-5.6c-3.4-1.1-5.5-3.3-5.5-3.3l19.6-10.8c0.1-0.1,0.2-0.1,0.3-0.1h0.1l0,0
			c5.6-3.1,13.3-2.6,21.7,2.4c9.7,5.6,18.2,15.7,23.9,27c3.6-1,8.1-0.3,12.8,2.5c2.9,1.7,5.6,3.9,8.1,6.5
			c-5,5.6-15.8,14.7-21.1,20.1c-1,1-2.1,2.1-3.1,3.1c-0.3,0-0.6,0.1-0.8,0.3c-12.3,9.9-24.4,20.1-36.8,29.9l-20.5-11.9v-0.1
			c-0.8-0.3-1.5-0.8-2.3-1.2c-11.3-6.5-20.9-20.5-24.5-34.2C-1033.3,1332.4-1031.2,1331.9-1029,1331.3z"/>
		
			<linearGradient id="XMLID_32_" gradientUnits="userSpaceOnUse" x1="-3492.3191" y1="1631.8549" x2="-3464.0107" y2="1680.886" gradientTransform="matrix(-1 0 0 -1 -4422 3004)">
			<stop  offset="0" style="stop-color:#5BBAF2"/>
			<stop  offset="5.184390e-002" style="stop-color:#61CAF2"/>
			<stop  offset="9.264274e-002" style="stop-color:#6CCCF6"/>
			<stop  offset="0.1718" style="stop-color:#7DCEFD"/>
			<stop  offset="0.2317" style="stop-color:#83CFFF"/>
			<stop  offset="0.4317" style="stop-color:#83CFFF"/>
			<stop  offset="0.6647" style="stop-color:#9EE6FF"/>
		</linearGradient>
		<path id="XMLID_1528_" class="st25" d="M-934.5,1320c11.8,6.9,21.5,23.6,21.5,37.3c0,2.1-0.3,3.9-0.7,5.6l-19.6,10.8
			c-50.6,7.5-33.7-45.4-33.7-45.4l19.6-10.8C-943.8,1316.5-939.3,1317.3-934.5,1320z"/>
		<path id="XMLID_1527_" class="st26" d="M-1050.3,1329.3c0,16.6,11.7,36.9,26,45.3c0.5,0.3,1,0.6,1.5,0.8c0.3,0.1,0.5,0.3,0.8,0.3
			v0.1l33.5,19.5l14.3,8.3l43,25c1.3,0.8,2.6,1.4,3.9,1.9c11,4.2,19.3-1.9,19.3-15.3c0-14.9-10.4-32.9-23.3-40.5
			c-0.7-0.4-1.3-0.8-2-1.1c0.4-1.7,0.7-3.5,0.7-5.6c0-12.6-8.1-27.7-18.6-35.4c-0.9-0.7-1.9-1.3-2.9-1.9c-4.8-2.8-9.2-3.5-12.8-2.5
			c-5.7-11.3-14.3-21.4-23.9-27c-3.2-1.8-6.3-3.1-9.2-3.8c-4.5-1-8.6-0.6-11.9,1.1c-5.4,2.7-9,8.6-9.7,17.1
			c-0.8-0.5-1.6-1.1-2.4-1.5c-5.2-3-10.2-4.1-14.2-3.4C-1045.6,1312.1-1050.3,1318.7-1050.3,1329.3z"/>
		<path id="XMLID_448_" class="st27" d="M-1047.2,1329.3c0,7.5,2.6,16.1,7.2,24.2c4.4,7.6,10.2,13.9,16.2,17.7
			c0.3,0.3,0.7,0.4,1.1,0.7c0.5,0.3,0.9,0.5,1.3,0.8c0.2,0.1,0.3,0.2,0.5,0.3l1.9,0.9v0.3l29.3,17l14.3,8.3l45.6,26.5
			c0.5,0.3,0.9,0.5,1.4,0.8c0.7,0.3,1.4,0.7,2.1,0.9c1.9,0.8,3.7,1.1,5.4,1.1c6,0,9.7-5,9.7-13.4c0-2.3-0.3-4.6-0.8-7.1
			c-0.8-4-2.4-8.1-4.5-12.2c-0.3-0.8-0.8-1.4-1.2-2.2c-4.1-7.1-9.6-12.9-15.3-16.3c-0.6-0.3-1.2-0.7-1.8-0.9l-2.4-1.1l0.6-2.5
			c0.3-1.4,0.6-3.1,0.6-4.9c0-6.5-2.4-13.8-6.1-20.2c-2.3-3.8-5-7.2-8.1-10.1c-1-0.9-2-1.8-3.1-2.6c-0.8-0.6-1.8-1.2-2.6-1.7
			c-2.9-1.7-5.6-2.5-8.1-2.5c-0.8,0-1.7,0.1-2.4,0.3l-2.5,0.8l-1.2-2.4c-5.6-11.2-13.9-20.6-22.8-25.7c-2.4-1.3-4.6-2.4-6.8-3
			c-0.5-0.2-1-0.3-1.5-0.4c-1.4-0.3-2.8-0.5-4-0.5c-2.2,0-4.1,0.4-5.9,1.3c-0.3,0.1-0.4,0.3-0.6,0.3c-2.7,1.5-4.7,4.1-6,7.6
			c-0.8,1.9-1.2,4.2-1.4,6.7l-0.4,5.4l-1.9-1.3l-2.4-1.7c-0.8-0.5-1.5-1-2.2-1.4c-0.8-0.5-1.7-0.9-2.4-1.3c-2.7-1.3-5.3-1.9-7.6-1.9
			c-0.6,0-1.2,0-1.8,0.2c-0.1,0-0.2,0-0.3,0C-1043.9,1315-1047.2,1320.6-1047.2,1329.3z"/>
		<g id="XMLID_1523_">
			<path id="XMLID_1526_" class="st28" d="M-1009.4,1301.4c-0.3,0.1-0.4,0.3-0.6,0.3c-4.2,2.4-6.8,7.4-7.4,14.3l-0.4,4.5l-1.4,0.9
				l0.5-5.4c0.6-6.8,3.2-11.8,7.4-14.3c0.2-0.1,0.4-0.3,0.6-0.3c1.6-0.8,3.4-1.3,5.5-1.3
				C-1006.8,1300.4-1008.2,1300.8-1009.4,1301.4z"/>
			<path id="XMLID_1525_" class="st28" d="M-1038,1314c0.1,0,0.2,0,0.3,0c0.5-0.1,1.1-0.2,1.6-0.2c-0.1,0-0.2,0-0.3,0s-0.2,0-0.3,0
				c-5.9,1-9.2,6.5-9.2,15.2c0,7.5,2.5,16.1,7.2,24.2c4.4,7.6,10.2,13.9,16.2,17.7c0.3,0.3,0.7,0.4,1.1,0.7c0.5,0.3,0.9,0.5,1.3,0.8
				c0.2,0.1,0.3,0.2,0.5,0.3l1.9,0.9v0.3l29.3,17l14.3,8.3l45.6,26.5c0.5,0.3,0.9,0.5,1.4,0.8c0.7,0.3,1.4,0.7,2.1,0.9
				c1.9,0.8,3.7,1.1,5.4,1.1l0,0c-0.4,0.1-0.9,0.1-1.4,0.1c-1.7,0-3.5-0.3-5.4-1.1c-0.7-0.3-1.3-0.6-2.1-0.9
				c-0.5-0.3-0.9-0.5-1.4-0.8l-45.6-26.5l-14.3-8.3l-29.3-17v-0.3l-1.9-0.9c-0.2-0.1-0.3-0.2-0.5-0.3c-0.4-0.3-0.8-0.5-1.3-0.8
				c-0.3-0.2-0.7-0.4-1.1-0.7c-6.1-3.9-11.8-10.1-16.2-17.7c-4.6-8.1-7.2-16.6-7.2-24.2C-1047.2,1320.5-1043.9,1315-1038,1314z"/>
			<path id="XMLID_1524_" class="st29" d="M-964.9,1331.3l-2.5,0.7l-0.2-0.3l1.3-0.3c0.8-0.2,1.5-0.3,2.4-0.3l0,0
				C-964.2,1331.1-964.5,1331.2-964.9,1331.3z"/>
		</g>
		<g id="XMLID_1520_">
			<path id="XMLID_1522_" class="st26" d="M-931.4,1378.4c-0.7-0.4-1.3-0.8-2-1.1c0.3-1,0.4-2.1,0.5-3.3c0.5,0.3,1,0.5,1.5,0.8
				c12.8,7.5,23.3,25.6,23.3,40.5c0,0.6,0,1.2-0.1,1.8C-908.9,1402.5-919,1385.5-931.4,1378.4z"/>
			<path id="XMLID_1521_" class="st26" d="M-951.3,1336.2c-0.9-0.7-1.9-1.3-2.9-1.9c-4.8-2.8-9.2-3.5-12.8-2.5
				c-5.7-11.3-14.3-21.4-23.9-27c-3.2-1.8-6.3-3.1-9.2-3.8c-4.5-1-8.6-0.6-11.9,1.1c-5.4,2.7-9,8.6-9.7,17.1
				c-0.8-0.5-1.6-1.1-2.4-1.5c-5.2-3-10.2-4.1-14.2-3.4c-6.7,1.2-11.3,7.1-11.8,16.6c0-0.6-0.1-1.2-0.1-1.8
				c0-10.6,4.7-17.1,11.8-18.4c4.1-0.7,9,0.3,14.2,3.4c0.8,0.5,1.6,1,2.4,1.5c0.8-8.6,4.4-14.4,9.7-17.1c3.4-1.7,7.5-2.1,11.9-1.1
				c2.9,0.7,6,1.8,9.2,3.8c9.7,5.6,18.2,15.7,23.9,27c3.6-1,8.1-0.3,12.8,2.5c1,0.6,1.9,1.2,2.9,1.9c10.5,7.7,18.6,22.8,18.6,35.4
				c0,0.6,0,1.2-0.1,1.8C-933.5,1357.6-941.3,1343.6-951.3,1336.2z"/>
		</g>
		<path id="XMLID_449_" class="st26" d="M-1050.3,1329.3c0,16.6,11.7,36.9,26,45.3c0.5,0.3,1,0.6,1.5,0.8c0.3,0.2,0.5,0.3,0.8,0.3
			v0.2l28.8,16.7l3,1.8l1.7,0.9l1.3,0.8l3,1.8l9.8,5.7l4.4,2.5l9.2,5.4l14.2,8.2l6.1,3.5l3,1.8l6,3.5c1.3,0.8,2.6,1.4,3.9,1.9
			c11,4.2,19.3-1.9,19.3-15.3c0-14.9-10.4-33-23.3-40.4c-0.7-0.4-1.3-0.8-2-1.1c0.4-1.7,0.7-3.5,0.7-5.6c0-12.6-8.1-27.6-18.6-35.3
			c-0.9-0.7-1.9-1.3-2.9-1.9c-4.8-2.8-9.3-3.5-12.8-2.5c-5.7-11.3-14.3-21.3-23.9-27c-3.2-1.8-6.3-3.1-9.2-3.8
			c-4.5-1-8.6-0.6-11.9,1.1c-5.4,2.7-9,8.6-9.7,17.1c-0.8-0.5-1.6-1.1-2.4-1.5c-5.2-3-10.2-4.1-14.2-3.4
			C-1045.6,1312.1-1050.3,1318.7-1050.3,1329.3z M-1040,1353.4c-4.7-8.1-7.2-16.6-7.2-24.2c0-8.6,3.4-14.2,9.2-15.2
			c0.1,0,0.2,0,0.3,0c0.6-0.1,1.2-0.2,1.8-0.2c2.4,0,5,0.7,7.6,1.9c0.8,0.3,1.7,0.8,2.4,1.3c0.7,0.4,1.4,0.8,2.2,1.4l2.4,1.7l2,1.3
			l0.4-5.4c0.2-2.5,0.7-4.7,1.4-6.7c1.3-3.4,3.3-6,6-7.6c0.2-0.2,0.4-0.3,0.7-0.3c1.7-0.8,3.7-1.3,5.8-1.3c1.3,0,2.6,0.2,4,0.5
			c0.5,0.1,1,0.3,1.5,0.4c2.2,0.6,4.5,1.6,6.8,3c8.8,5.1,17,14.4,22.8,25.7l1.2,2.4l2.5-0.8c0.8-0.2,1.5-0.3,2.4-0.3
			c2.4,0,5.2,0.8,8.1,2.5c0.8,0.5,1.8,1.1,2.6,1.8c1.1,0.8,2.1,1.7,3.1,2.6c3,2.9,5.8,6.3,8.1,10.1c3.8,6.5,6.1,13.7,6.1,20.2
			c0,1.8-0.2,3.4-0.5,4.9l-0.6,2.5l2.4,1.1c0.6,0.3,1.2,0.6,1.8,0.9c5.7,3.4,11.2,9.2,15.3,16.3c0.4,0.8,0.8,1.4,1.2,2.2
			c2.1,4,3.6,8.2,4.5,12.2c0.5,2.4,0.8,4.8,0.8,7.1c0,8.4-3.6,13.4-9.7,13.4c-1.7,0-3.5-0.4-5.4-1.2c-0.7-0.3-1.3-0.6-2.1-0.9
			c-0.4-0.3-0.9-0.5-1.4-0.8l-7.6-4.4l-9.2-5.4l-14.2-8.2l-3-1.8l-6.1-3.5l-5.4-3.2l-8.8-5.1l-3-1.8l-2.4-1.4l-0.7-0.3l-3-1.8
			l-25.6-14.9v-0.3l-1.9-0.9c-0.2-0.1-0.3-0.2-0.5-0.3c-0.4-0.3-0.8-0.5-1.3-0.8c-0.4-0.2-0.8-0.4-1.1-0.7
			C-1029.9,1367.3-1035.6,1361.1-1040,1353.4z"/>
	</g>
	<g id="XMLID_642_">
		<path id="XMLID_647_" class="st30" d="M-888.1,1460.5l18,10.5c3.3,1.9,5.9-0.1,5.9-4.5v-18.6c0-4.4-2.6-9.5-5.9-11.3l-18-10.5
			c-3.3-1.9-5.9,0.1-5.9,4.5v18.6C-894.1,1453.4-891.4,1458.6-888.1,1460.5z"/>
		<g id="XMLID_453_">
			<path id="XMLID_646_" class="st31" d="M-891.6,1462.4l18,10.5c3.3,1.9,5.9-0.1,5.9-4.5v-18.6c0-4.4-2.6-9.5-5.9-11.3l-18-10.5
				c-3.3-1.9-5.9,0.1-5.9,4.5v18.6C-897.5,1455.5-894.8,1460.6-891.6,1462.4z"/>
			<path id="XMLID_645_" class="st32" d="M-889.9,1441.6c0,4.6,7.2,21.5,7.2,21.5s7.2-8.5,7.2-13.1c0-4.6-3.3-10.2-7.2-12.6
				C-886.6,1435.1-889.9,1437-889.9,1441.6z"/>
			<path id="XMLID_644_" class="st31" d="M-886.4,1443.6c0,2.4,1.8,5.5,3.9,6.7c2.1,1.3,3.9,0.3,3.9-2.2s-1.8-5.5-3.9-6.7
				C-884.8,1440.2-886.4,1441.2-886.4,1443.6z"/>
		</g>
	</g>
	<g id="XMLID_637_">
		<path id="XMLID_641_" class="st33" d="M-817.5,1500l18,10.5c3.3,1.9,5.9-0.1,5.9-4.5v-18.6c0-4.4-2.6-9.5-5.9-11.3l-18-10.5
			c-3.3-1.9-5.9,0.1-5.9,4.5v18.6C-823.5,1493.1-820.8,1498.2-817.5,1500z"/>
		<g id="XMLID_454_">
			<path id="XMLID_640_" class="st34" d="M-821,1502.1l18,10.5c3.3,1.9,5.9-0.1,5.9-4.5v-18.6c0-4.4-2.6-9.5-5.9-11.3l-18-10.5
				c-3.3-1.9-5.9,0.1-5.9,4.5v18.6C-826.9,1495.1-824.2,1500.2-821,1502.1z"/>
			<polygon id="XMLID_639_" class="st0" points="-816.8,1498.4 -815.7,1479.8 -807.2,1491 			"/>
		</g>
	</g>
	<g id="XMLID_631_">
		<path id="XMLID_636_" class="st35" d="M-1152.5,1422.5l18,10.5c3.3,1.9,5.9-0.1,5.9-4.5v-18.6c0-4.4-2.6-9.5-5.9-11.3l-18-10.5
			c-3.3-1.9-5.9,0.1-5.9,4.5v18.6C-1158.4,1415.5-1155.8,1420.6-1152.5,1422.5z"/>
		<g id="XMLID_455_">
			<path id="XMLID_635_" class="st36" d="M-1156,1424.5l18,10.5c3.3,1.9,5.9-0.1,5.9-4.5v-18.6c0-4.4-2.6-9.5-5.9-11.3l-18-10.5
				c-3.3-1.9-5.9,0.1-5.9,4.5v18.6C-1161.8,1417.5-1159.2,1422.5-1156,1424.5z"/>
			<path id="XMLID_1242_" class="st0" d="M-1146.5,1424.4c5-0.5,7.9-2.4,7.9-9.6v-7.1l-8.7-3.6l-7.8-6.1v5.6
				C-1155.3,1411.4-1151.8,1417.6-1146.5,1424.4z"/>
			<path id="XMLID_1241_" class="st36" d="M-1146.6,1422.4c3.7,0.1,5.8-1.8,5.8-6.1v-4.3l-6.5-2.9l-5.7-4.3v3.4
				C-1153,1412.9-1150.5,1417.8-1146.6,1422.4z"/>
		</g>
	</g>
	<g id="XMLID_623_">
		<path id="XMLID_630_" class="st37" d="M-884,1359.7l18,10.5c3.3,1.9,5.9-0.1,5.9-4.5v-18.6c0-4.4-2.6-9.5-5.9-11.3l-18-10.5
			c-3.3-1.9-5.9,0.1-5.9,4.5v18.6C-889.9,1352.8-887.3,1357.8-884,1359.7z"/>
		<g id="XMLID_456_">
			<path id="XMLID_629_" class="st32" d="M-887.4,1361.7l18,10.5c3.3,1.9,5.9-0.1,5.9-4.5v-18.6c0-4.4-2.6-9.5-5.9-11.3l-18-10.5
				c-3.3-1.9-5.9,0.1-5.9,4.5v18.6C-893.3,1354.7-890.7,1359.8-887.4,1361.7z"/>
			<polygon id="XMLID_628_" class="st0" points="-874.6,1344.2 -869.6,1347.1 -869.6,1365.8 -874.6,1362.9 			"/>
			<polygon id="XMLID_627_" class="st0" points="-881,1344.1 -875.9,1347.1 -875.9,1362.1 -881,1359.2 			"/>
			<polygon id="XMLID_626_" class="st0" points="-887.4,1346.1 -882.3,1349.1 -882.3,1358.4 -887.4,1355.5 			"/>
		</g>
	</g>
	<g id="XMLID_613_">
		<path id="XMLID_622_" class="st38" d="M-1094.3,1330.1l18,10.5c3.3,1.9,5.9-0.1,5.9-4.5v-18.6c0-4.4-2.6-9.5-5.9-11.3l-18-10.5
			c-3.3-1.9-5.9,0.1-5.9,4.5v18.6C-1100.2,1323.1-1097.5,1328.3-1094.3,1330.1z"/>
		<g id="XMLID_457_">
			<path id="XMLID_621_" class="st39" d="M-1097.8,1332.1l18,10.5c3.3,1.9,5.9-0.1,5.9-4.5v-18.6c0-4.4-2.6-9.5-5.9-11.3l-18-10.5
				c-3.3-1.9-5.9,0.1-5.9,4.5v18.6C-1103.6,1325.1-1101,1330.3-1097.8,1332.1z"/>
			<g id="XMLID_458_">
				<path id="XMLID_620_" class="st0" d="M-1099.4,1312.9l10.6,18.4l10.6-6c-2.2-5.3-6.1-10.2-10.6-12.8
					C-1093.2,1309.8-1097.1,1310.2-1099.4,1312.9z"/>
				<path id="XMLID_619_" class="st39" d="M-1097.6,1315.9l8.9,15.4l8.9-5.1c-1.8-4.6-5-8.9-8.9-11.1
					C-1092.6,1312.9-1095.8,1313.4-1097.6,1315.9z"/>
				<path id="XMLID_618_" class="st0" d="M-1095.8,1319.1l7,12.2l7-4c-1.2-3.8-3.9-7.5-7-9.3
					C-1091.9,1316.2-1094.6,1316.8-1095.8,1319.1z"/>
				<path id="XMLID_617_" class="st39" d="M-1093.7,1322.7l5,8.6l5-2.9c-0.5-2.9-2.5-6-5-7.4S-1093.2,1320.4-1093.7,1322.7z"/>
				<path id="XMLID_616_" class="st0" d="M-1091.2,1325.8c0,1.6,1.1,3.4,2.4,4.2s2.4,0.2,2.4-1.4s-1.1-3.4-2.4-4.2
					C-1090.1,1323.6-1091.2,1324.2-1091.2,1325.8z"/>
			</g>
		</g>
	</g>
	<g id="XMLID_597_">
		<path id="XMLID_601_" class="st40" d="M-1107.4,1398.4l18,10.5c3.3,1.9,5.9-0.1,5.9-4.5v-18.6c0-4.4-2.6-9.5-5.9-11.3l-18-10.6
			c-3.3-1.9-5.9,0.1-5.9,4.5v18.6C-1113.4,1391.4-1110.7,1396.5-1107.4,1398.4z"/>
		<g id="XMLID_459_">
			<path id="XMLID_600_" class="st41" d="M-1110.9,1400.4l18,10.5c3.3,1.9,5.9-0.1,5.9-4.5v-18.6c0-4.4-2.6-9.5-5.9-11.3l-18-10.5
				c-3.3-1.9-5.9,0.1-5.9,4.5v18.6C-1116.8,1393.4-1114.1,1398.5-1110.9,1400.4z"/>
			<path id="XMLID_599_" class="st0" d="M-1113.2,1385.1c0,1.3,0.4,2.8,1.2,4.1c0.8,1.3,1.7,2.4,2.7,3c0.1,0,0.1,0.1,0.2,0.1
				c0.1,0.1,0.2,0.1,0.3,0.1c0,0,0.1,0,0.1,0.1l0.3,0.2v0.1l4.9,2.9l2.4,1.3l7.6,4.4c0.1,0.1,0.2,0.1,0.3,0.2s0.3,0.1,0.3,0.2
				c0.3,0.1,0.6,0.2,0.9,0.2c1,0,1.6-0.8,1.6-2.3c0-0.4-0.1-0.8-0.2-1.2c-0.2-0.7-0.4-1.3-0.8-2.1c-0.1-0.1-0.2-0.3-0.2-0.3
				c-0.7-1.2-1.6-2.2-2.5-2.8c-0.1-0.1-0.2-0.1-0.3-0.2l-0.4-0.2l0.1-0.4c0.1-0.3,0.1-0.5,0.1-0.8c0-1.1-0.4-2.4-1-3.4
				c-0.3-0.7-0.8-1.3-1.3-1.7c-0.2-0.2-0.3-0.3-0.5-0.4c-0.2-0.1-0.3-0.2-0.4-0.3c-0.5-0.3-0.9-0.4-1.3-0.4c-0.2,0-0.3,0-0.4,0.1
				l-0.4,0.2l-0.2-0.4c-0.9-1.9-2.4-3.4-3.8-4.4c-0.4-0.3-0.8-0.4-1.1-0.5c-0.1,0-0.2-0.1-0.3-0.1c-0.3-0.1-0.4-0.1-0.7-0.1
				c-0.3,0-0.7,0.1-1,0.3c0,0-0.1,0-0.1,0.1c-0.4,0.3-0.8,0.7-1,1.3c-0.1,0.3-0.2,0.8-0.3,1.2l-0.1,0.9l-0.3-0.3l-0.4-0.3
				c-0.2-0.1-0.3-0.2-0.3-0.3c-0.2-0.1-0.3-0.2-0.4-0.2c-0.4-0.2-0.9-0.3-1.3-0.3c-0.1,0-0.2,0-0.3,0l0,0
				C-1112.6,1382.7-1113.2,1383.7-1113.2,1385.1z"/>
		</g>
	</g>
	<g id="XMLID_588_">
		<path id="XMLID_596_" class="st42" d="M-867.2,1529.1l18,10.5c3.3,1.9,5.9-0.1,5.9-4.5v-18.6c0-4.4-2.6-9.5-5.9-11.3l-18-10.5
			c-3.3-1.9-5.9,0.1-5.9,4.5v18.6C-873.1,1522.1-870.5,1527.2-867.2,1529.1z"/>
		<g id="XMLID_460_">
			<path id="XMLID_595_" class="st43" d="M-870.6,1531.1l18,10.5c3.3,1.9,5.9-0.1,5.9-4.5v-18.6c0-4.4-2.6-9.5-5.9-11.3l-18-10.5
				c-3.3-1.9-5.9,0.1-5.9,4.5v18.6C-876.6,1524.1-873.9,1529.2-870.6,1531.1z"/>
			<path id="XMLID_1239_" class="st0" d="M-874.1,1512.3c0,0.1,0,0.2,0,0.3c0,1,0.1,2.1,0.3,3.1c0.7,3.9,2.5,8,5,11.4
				c1.8,2.5,4,4.7,6.4,6.3c0.3,0.2,0.5,0.3,0.8,0.5c1.8,1.1,3.5,1.6,5,1.7c3.3,0.2,5.7-1.6,6.8-5c0.3-0.7,0.3-1.4,0.4-2.2
				c0-0.2,0-0.3,0.1-0.5c0-0.4,0.1-0.8,0.1-1.2v-0.1c0-0.2,0-0.3,0-0.5c0-1-0.2-2-0.3-3c-0.6-3-1.8-6.1-3.4-9
				c-0.2-0.3-0.3-0.5-0.4-0.7l0,0c-0.8-1.2-1.5-2.2-2.4-3.3c-1-1.3-2.2-2.4-3.4-3.4c-0.6-0.5-1.2-0.9-1.8-1.3
				c-0.1,0-0.1-0.1-0.2-0.1c-0.2-0.1-0.3-0.3-0.6-0.3c-1.3-0.8-2.6-1.3-3.8-1.5c-0.2-0.1-0.4-0.1-0.6-0.1c-0.1,0-0.3,0-0.3,0
				c-0.3,0-0.6-0.1-0.9,0c-0.3,0-0.5,0-0.8,0.1C-871.7,1503.9-874.1,1507.1-874.1,1512.3z"/>
			<path id="XMLID_593_" class="st43" d="M-866.9,1505l0.2,0.9l1.6,0.5v-1.2l0.8,1.6l1.6,2.2l0.6,0.4l-0.5,0.6l0.4,0.8l1.4,0.7
				l0.3,2l-0.4,0.3l0.5,1.1l0.6,1.4l0.5,1.1l0.8,0.9l0.8,1.8l0.1,1.3l0.4,1.5l-0.3,0.7l-1,1.9l-0.8-0.5h-0.4l-1.3-1l-0.7,0.4
				l-0.6-0.3l0.3,1l0.3,1.2l-0.4,2l0.1,1.6l0.7,1.9l-1-0.1c0,0-1.1-0.5-1.8-1.3c-0.7-0.8-3.2-3.7-3.2-3.7v-0.8l-0.8-1.8l-1.3-2.2
				l-1.2-2.8l0.1-0.6l1.1,0.8l0.3-0.6l0.9-2.2l0.4-2.8l-0.3-0.1l-0.9,3.4l-0.5,1.3l-2-2l-0.6-1.5v-1.5l0.7,0.5l0.8-1.3h-0.7
				l-0.6,0.3l-0.2-0.7l0.8-4.8l3.3-2.9L-866.9,1505z"/>
			<path id="XMLID_592_" class="st0" d="M-865.7,1509l0.1,0.4l-0.2,0.3l-0.5,0.5l-0.3,0.3l0.4,0.8l0.4,0.8l0.3-0.3l-0.2-0.3
				l-0.3-0.1l-0.3-0.5l0.2-0.3l0.6-0.4l0.3-0.6c0,0,0.5,0.5,0.4,0.5s0.3,0.3,0.3,0.3h0.3c0,0,0.3,0.4,0.2,0.5c0,0.1,0.1,0.3,0.1,0.3
				l0.3,0.3l0.2,0.7l0.4,0.8l0.5,0.3l0.3,0.4l-0.3,0.2l-0.8-0.4l-0.3-0.6l-0.6-0.3l-0.5-0.2l-0.6-0.3l0.1,0.6l0.2,0.7l-0.8,0.2
				l-0.3,0.3l-0.6,0.1l-0.3-0.5l-0.1-0.4l-0.3-0.3l-0.3,0.3l-0.9,0.1l-0.4-0.5l-0.4,0.1l-0.3-0.3l-0.3-1.5v-0.4l0.4,0.5l0.4,0.2
				l0.2-0.2l0.2,0.3l0.4,0.2l0.1-0.5l-0.1-0.7l0.2-0.4l0.3,0.3l0.2,0.2l-0.3,0.6l0.1,0.2l0.3-0.2l0.4,0.1v-0.7l0.1-0.6l0.5-0.2
				l0.3-0.4L-865.7,1509z"/>
			<path id="XMLID_591_" class="st43" d="M-857.6,1510.5c0,0,0.3,1.1,0.2,1.3c-0.1,0.2-0.5,0.7-0.5,0.7s0.2,0.2,0.3,0.6
				c0.2,0.4,0.8,0.8,0.8,0.8l0.9,0.6l0.4,0.6l-0.8-0.4l-0.2,0.6l-0.5-0.3l0.3,0.5l1,0.9l0.6-0.1l0.2,0.6v0.8l0.8,0.5l0.5,1.3
				l-0.1,0.5l0.6,0.9l0.7,0.8l0.2,1.1l-0.1,0.7l0.3,0.7l0.3-0.5v-0.7h0.3h0.6l-0.5-2.2l-1.3-3.4l-1.4-2.4l-0.3-0.3l-0.3-0.8
				l-1.8-2.3l-0.3-0.1l-0.2-0.6L-857.6,1510.5z"/>
			<path id="XMLID_590_" class="st43" d="M-853,1524.8c0,0.2,0.8,1,0.8,1l0.3,1l0.2-0.3l0.6,0.2l0.3,0.4l-0.2,0.5l-0.5-0.6l-0.2,0.7
				l0.2,0.6l0.3,0.8l-0.6,1.7l-1.4,1.6l-2,1.1h-2v-0.7l0.2-0.6h0.5l-0.3-0.9l0.2-0.3l0.2-1l0.1-0.9l0.4-0.4l0.3,0.2l-0.2-0.8
				l0.5-0.9v-1c0,0,0.3-0.6,0.4-0.5s0.5-0.3,0.5-0.3l0.1-0.6l0.5,0.1l0.3,0.4h0.6L-853,1524.8z"/>
		</g>
	</g>
	<g id="XMLID_578_">
		<path id="XMLID_587_" class="st35" d="M-1052.9,1282.3l18.1,10.5c3.3,1.9,6-0.1,6-4.5v-18.6c0-4.4-2.7-9.5-6-11.4l-18.1-10.5
			c-3.3-1.9-6,0.1-6,4.5v18.7C-1058.8,1275.3-1056.2,1280.4-1052.9,1282.3z"/>
		<g id="XMLID_461_">
			<path id="XMLID_586_" class="st36" d="M-1056.4,1284.3l18.1,10.5c3.3,1.9,6-0.1,6-4.5v-18.6c0-4.4-2.7-9.5-6-11.4l-18.1-10.5
				c-3.3-1.9-6,0.1-6,4.5v18.7C-1062.3,1277.3-1059.6,1282.4-1056.4,1284.3z"/>
			<g id="XMLID_462_">
				<path id="XMLID_463_" class="st44" d="M-1058.4,1275v-16.9l22.1,12.8v16.9L-1058.4,1275z M-1057.1,1260.4v13.9l19.6,11.3v-13.8
					L-1057.1,1260.4z"/>
			</g>
			<g id="XMLID_466_">
				<polygon id="XMLID_467_" class="st44" points="-1047.6,1275.6 -1036.7,1272 -1037.1,1270.8 -1047.1,1274 -1057.2,1259 
					-1058.3,1259.7 				"/>
			</g>
		</g>
	</g>
	<g id="XMLID_570_">
		<path id="XMLID_577_" class="st37" d="M-944.8,1292.2l18.1,10.5c3.3,1.9,6-0.1,6-4.5v-18.6c0-4.4-2.7-9.5-6-11.4l-18.1-10.5
			c-3.3-1.9-6,0.1-6,4.5v18.7C-950.7,1285.3-948.1,1290.4-944.8,1292.2z"/>
		<g id="XMLID_468_">
			<path id="XMLID_576_" class="st32" d="M-948.2,1294.2l18.1,10.5c3.3,1.9,6-0.1,6-4.5v-18.6c0-4.4-2.7-9.5-6-11.4l-18.1-10.5
				c-3.3-1.9-6,0.1-6,4.5v18.7C-954.2,1287.2-951.5,1292.3-948.2,1294.2z"/>
			<g id="XMLID_1232_">
				<path id="XMLID_1233_" class="st0" d="M-933,1273.2c4.7,0.8,5.8,5.4,2.4,10.7c-2,3.3-5,5.1-7.1,4.8c-1.2-0.2-1.7-0.8-1.3-2
					l0.1-0.3c-1.5,1.1-2.8,1.3-3.8,1.2c-2.1-0.3-2.9-2.7-1-5.8c1.8-2.8,4.7-4.9,7.1-4.5c1.5,0.3,1.7,1.6,1.7,1.7l0.7-1l2.5,0.4
					l-4.5,7.3c-0.5,0.8-0.3,1.1,0,1.1c0.8,0.1,2.4-1.2,3.6-3.2c2.6-4.1,2.4-7.7-1.7-8.4c-3.5-0.6-8.6,2.3-11.1,6.4
					c-2.5,4-1.7,7.5,1.8,8.1c1.1,0.2,2.9,0,4.5-0.8l-0.2,2c-1.8,0.8-4.1,1.2-5.6,0.9c-4.7-0.8-5.8-5.3-2.5-10.6
					C-944.1,1275.9-937.7,1272.4-933,1273.2z M-940.9,1285.1c1.1,0.2,2.4-0.9,3.4-2.4c0.8-1.3,0.9-2.5-0.3-2.7
					c-1-0.2-2.3,0.8-3.1,2.2C-941.8,1283.6-941.9,1284.9-940.9,1285.1L-940.9,1285.1z"/>
			</g>
		</g>
	</g>
	<g id="XMLID_565_">
		<path id="XMLID_569_" class="st45" d="M-1154.6,1325.1l18.6,10.8c3.4,1.9,6.1-0.1,6.1-4.6V1312c0-4.5-2.8-9.8-6.1-11.8l-18.6-10.8
			c-3.4-1.9-6.1,0.1-6.1,4.6v19.2C-1160.7,1317.8-1158,1323.1-1154.6,1325.1z"/>
		<g id="XMLID_469_">
			<path id="XMLID_568_" class="st46" d="M-1158.2,1327.2l18.6,10.8c3.4,1.9,6.1-0.1,6.1-4.6v-19.3c0-4.5-2.8-9.8-6.1-11.8
				l-18.6-10.8c-3.4-1.9-6.1,0.1-6.1,4.6v19.2C-1164.3,1319.9-1161.6,1325.1-1158.2,1327.2z"/>
			<path id="XMLID_567_" class="st0" d="M-1154.9,1301.2c2,0.3,4.2,3.4,6,5.5c1.8-0.2,3.9-0.6,6,1.4c3.8,3.7,4.4,8.3,3,11.9
				c-1.3,3.5-9,4.9-9,4.9s-7.6-10.2-9-15.3C-1159.1,1304.6-1158.6,1300.6-1154.9,1301.2z"/>
		</g>
	</g>
	<g id="XMLID_487_">
		<path id="XMLID_564_" class="st1" d="M-845.1,1429.5l18.6,10.8c3.4,1.9,6.1-0.1,6.1-4.6v-19.2c0-4.5-2.8-9.8-6.1-11.8l-18.6-10.8
			c-3.4-1.9-6.1,0.1-6.1,4.6v19.2C-851.2,1422.3-848.5,1427.6-845.1,1429.5z"/>
		<g id="XMLID_470_">
			<path id="XMLID_563_" class="st2" d="M-848.6,1431.6l18.6,10.8c3.4,1.9,6.1-0.1,6.1-4.6v-19.2c0-4.5-2.8-9.8-6.1-11.8l-18.6-10.9
				c-3.4-1.9-6.1,0.1-6.1,4.6v19.2C-854.8,1424.4-852.1,1429.6-848.6,1431.6z"/>
			<g id="XMLID_471_">
				<path id="XMLID_472_" class="st0" d="M-839.9,1424.8l1.3-0.2c0.5,0.7,1.1,1.3,1.6,1.8l0,0l0,0l0.3,2l2.9,1.7l0.3-1.6l0,0l0,0
					c0.6,0.2,1.1,0.3,1.6,0.2l0,0l1.3,1.8l2-1.1l-0.8-2.1l0,0c0.3-0.4,0.5-0.9,0.7-1.5l0,0l0,0l0,0l0,0l0,0l1.6,0.5v-3.3l-1.6-1.3
					l0,0l0,0c-0.2-0.8-0.3-1.5-0.7-2.3l0,0l0.8-1l-2-3.5l-1.3,0.2c0,0,0,0,0,0.1c0,0,0,0,0-0.1c-0.6-0.8-1.2-1.4-1.8-1.9
					c0.1,0.1,0.2,0.2,0.3,0.3l-0.3-2l-2.9-1.7l-0.3,1.6c0.2,0.1,0.3,0.2,0.5,0.2c-0.8-0.3-1.5-0.4-2.2-0.4l-1.3-1.8l-2,1.1l0.8,2.1
					c-0.3,0.4-0.5,0.9-0.7,1.5l-1.6-0.5v3.3l1.6,1.3l0,0c0.2,0.8,0.3,1.5,0.7,2.3l-0.8,1L-839.9,1424.8z M-828.5,1422.9
					L-828.5,1422.9c0-0.1,0-0.2,0-0.3C-828.5,1422.8-828.5,1422.8-828.5,1422.9z M-828.4,1423.9L-828.4,1423.9L-828.4,1423.9
					C-828.4,1423.8-828.4,1423.8-828.4,1423.9C-828.4,1423.8-828.4,1423.9-828.4,1423.9z M-828.5,1425c0-0.1,0-0.1,0-0.2l0,0
					C-828.5,1424.8-828.5,1424.9-828.5,1425z M-830.9,1416.2c-0.1-0.2-0.2-0.3-0.3-0.4C-831.2,1416-831,1416.2-830.9,1416.2z
					 M-830.4,1417.2L-830.4,1417.2L-830.4,1417.2C-830.4,1417.2-830.4,1417.1-830.4,1417.2C-830.4,1417.1-830.4,1417.1-830.4,1417.2
					z M-829.6,1427.6c-0.1,0.1-0.2,0.2-0.3,0.3c0,0,0,0,0.1,0C-829.8,1427.7-829.7,1427.7-829.6,1427.6z M-830.4,1428.3
					L-830.4,1428.3L-830.4,1428.3L-830.4,1428.3L-830.4,1428.3z M-831.1,1428.5L-831.1,1428.5
					C-831.1,1428.5-831.1,1428.5-831.1,1428.5z M-840.6,1411.9c-0.1,0.1-0.2,0.2-0.2,0.3C-840.8,1412-840.7,1411.9-840.6,1411.9
					L-840.6,1411.9z M-840.6,1421.4C-840.6,1421.4-840.6,1421.5-840.6,1421.4c-0.1-0.3-0.2-0.5-0.3-0.8
					C-840.8,1420.9-840.8,1421.1-840.6,1421.4z M-842,1415.8L-842,1415.8L-842,1415.8L-842,1415.8L-842,1415.8z M-841.9,1416.7
					c0,0.2,0,0.3,0.1,0.4C-841.9,1417-841.9,1416.9-841.9,1416.7z M-841.9,1414.6c0,0.1,0,0.3-0.1,0.3
					C-841.9,1414.8-841.9,1414.7-841.9,1414.6z M-839.2,1411.1c-0.1,0-0.3,0.1-0.3,0.1C-839.4,1411.2-839.2,1411.1-839.2,1411.1z
					 M-839.1,1423.9c-0.2-0.2-0.3-0.4-0.4-0.6C-839.4,1423.6-839.2,1423.7-839.1,1423.9z M-835,1412.1c-0.1,0-0.1-0.1-0.2-0.1
					c-0.3-0.2-0.6-0.3-0.8-0.4c0.3,0.1,0.6,0.3,0.8,0.4C-835.1,1412-835.1,1412-835,1412.1z M-834.4,1428.1
					C-834.4,1428.2-834.4,1428.2-834.4,1428.1C-834.3,1428.1-834.3,1428.1-834.4,1428.1C-834.3,1428.2-834.4,1428.2-834.4,1428.1z
					 M-835.2,1427.7L-835.2,1427.7L-835.2,1427.7L-835.2,1427.7L-835.2,1427.7z M-836.1,1427.1L-836.1,1427.1
					C-836.1,1427.1-836.1,1427.1-836.1,1427.1C-836.1,1427.1-836.1,1427.1-836.1,1427.1z M-838.4,1417.9c0-2.1,1.4-2.9,3.2-1.8
					c0.2,0.1,0.4,0.3,0.6,0.4c1.3,1.1,2.4,2.9,2.6,4.6c0,0.3,0,0.4,0,0.6c0,2.1-1.4,2.9-3.2,1.8
					C-837,1422.5-838.4,1419.9-838.4,1417.9z"/>
				<path id="XMLID_473_" class="st0" d="M-851.1,1420.1L-851.1,1420.1L-851.1,1420.1c0.1,0.5,0.3,1.1,0.5,1.6l0,0l-0.6,0.8l1.4,2.5
					l0.9-0.2l0,0l0,0c0.4,0.5,0.8,1,1.3,1.3c-0.1-0.1-0.1-0.1-0.2-0.2l0.3,1.4l2,1.2l0.3-1.1c-0.1,0-0.3-0.1-0.3-0.2
					c0.5,0.2,1,0.3,1.5,0.3l0.9,1.3l1.4-0.8l-0.6-1.4c0.2-0.3,0.3-0.7,0.5-1l0,0l1.1,0.3v-2.4l-1.1-0.9l0,0
					c-0.1-0.5-0.3-1.1-0.5-1.6l0.6-0.8l-1.4-2.5l-0.9,0.2c-0.3-0.4-0.8-0.8-1.2-1.3l0,0l0,0l-0.3-1.4l-2-1.2l-0.3,1.1l0,0l0,0
					c-0.4-0.1-0.8-0.2-1.2-0.2l0,0l-0.9-1.3l-1.4,0.8l0.6,1.4l0,0c-0.2,0.3-0.3,0.7-0.5,1l0,0l0,0l0,0l0,0l0,0l-1.1-0.3v2.4
					L-851.1,1420.1z M-847.1,1415.6C-847.1,1415.6-847.1,1415.6-847.1,1415.6C-847.1,1415.6-847.1,1415.6-847.1,1415.6
					C-847.1,1415.6-847.1,1415.6-847.1,1415.6z M-846.5,1415.9L-846.5,1415.9L-846.5,1415.9
					C-846.5,1415.9-846.5,1415.8-846.5,1415.9L-846.5,1415.9z M-845.9,1416.3L-845.9,1416.3
					C-845.9,1416.2-845.9,1416.2-845.9,1416.3C-845.9,1416.2-845.9,1416.2-845.9,1416.3z M-842.7,1427c0.1-0.1,0.1-0.1,0.2-0.2
					C-842.6,1426.9-842.7,1427-842.7,1427L-842.7,1427z M-842.7,1420.3L-842.7,1420.3c0.1,0.2,0.2,0.3,0.3,0.6
					C-842.5,1420.7-842.6,1420.4-842.7,1420.3z M-843.4,1418.9c-0.1-0.2-0.2-0.3-0.3-0.4C-843.6,1418.7-843.5,1418.8-843.4,1418.9z
					 M-841.7,1424.2L-841.7,1424.2L-841.7,1424.2L-841.7,1424.2L-841.7,1424.2z M-841.8,1423.6c0-0.1,0-0.2,0-0.3
					C-841.8,1423.4-841.8,1423.5-841.8,1423.6z M-841.8,1425.1c0-0.1,0-0.2,0-0.3C-841.8,1425-841.8,1425.1-841.8,1425.1z
					 M-843.7,1427.5c0.1,0,0.2,0,0.3-0.1C-843.5,1427.5-843.6,1427.5-843.7,1427.5z M-846.6,1426.8L-846.6,1426.8
					c0.3,0.2,0.5,0.3,0.7,0.4C-846.1,1427.2-846.3,1427.1-846.6,1426.8C-846.5,1426.9-846.5,1426.9-846.6,1426.8z M-848.7,1420
					c0-1.4,1-2,2.3-1.3c1.3,0.8,2.3,2.5,2.3,3.9s-1,2-2.3,1.3c-0.2-0.1-0.3-0.2-0.4-0.3c-0.9-0.8-1.7-2.1-1.8-3.3
					C-848.7,1420.4-848.7,1420.2-848.7,1420z M-850.2,1415.7L-850.2,1415.7c-0.1,0.1-0.2,0.2-0.2,0.2
					C-850.3,1415.9-850.3,1415.8-850.2,1415.7z M-849.8,1415.5L-849.8,1415.5L-849.8,1415.5
					C-849.9,1415.5-849.9,1415.5-849.8,1415.5C-849.9,1415.5-849.9,1415.5-849.8,1415.5z M-849.2,1415.2c-0.1,0-0.2,0.1-0.3,0.1
					C-849.4,1415.3-849.3,1415.3-849.2,1415.2z M-849.5,1423.9c0.1,0.1,0.2,0.2,0.2,0.3C-849.3,1424.1-849.4,1424-849.5,1423.9z
					 M-849.8,1423.3C-849.9,1423.3-849.9,1423.3-849.8,1423.3C-849.9,1423.3-849.9,1423.3-849.8,1423.3L-849.8,1423.3L-849.8,1423.3
					z M-851.3,1418.6C-851.3,1418.5-851.3,1418.5-851.3,1418.6C-851.3,1418.5-851.3,1418.5-851.3,1418.6L-851.3,1418.6
					L-851.3,1418.6z M-851.2,1417.8c0,0.1,0,0.1,0,0.2l0,0C-851.3,1417.8-851.3,1417.8-851.2,1417.8z M-851.2,1419.4
					c0-0.1,0-0.1,0-0.2l0,0C-851.3,1419.3-851.3,1419.4-851.2,1419.4z"/>
			</g>
		</g>
	</g>
	<g id="XMLID_3_">
		<path id="XMLID_163_" class="st47" d="M-990.1,1512.6l-0.8,0.4c-0.3-0.8-0.6-1.2-0.9-1.3c-0.2-0.1-0.3-0.1-0.3-0.1
			c-0.1,0.1-0.2,0.2-0.2,0.3c0,0.2,0,0.3,0.1,0.4c0.1,0.3,0.4,0.8,0.8,1.5c0.4,0.8,0.8,1.3,0.8,1.4c0.3,0.4,0.4,0.8,0.5,1.2
			c0.1,0.3,0.2,0.7,0.2,1c0,0.7-0.2,1.1-0.5,1.3c-0.3,0.2-0.8,0.1-1.3-0.3c-0.4-0.3-0.8-0.7-1.2-1.2c-0.3-0.5-0.6-1.1-0.8-1.8l1-0.1
			c0.3,0.8,0.7,1.4,1,1.7c0.2,0.2,0.3,0.2,0.5,0.1s0.2-0.2,0.2-0.4c0-0.2-0.1-0.4-0.2-0.6c-0.1-0.3-0.3-0.7-0.7-1.3
			c-0.7-1.1-1.1-1.9-1.3-2.4c-0.2-0.5-0.3-0.9-0.3-1.3c0-0.5,0.2-0.9,0.5-1.1c0.3-0.2,0.8-0.1,1.2,0.2c0.3,0.2,0.6,0.5,0.8,0.8
			C-990.7,1511.4-990.5,1511.9-990.1,1512.6z M-1002.6,1503.7l1.1,0.7l2.6,6.6v-5l1.1,0.7v7.6l-1.1-0.7l-2.5-6.6v5l-1.1-0.7
			L-1002.6,1503.7z M-1009.5,1500.6c-0.5-0.3-0.9-0.3-1.3-0.1c-0.3,0.3-0.5,0.8-0.5,1.5c0,0.8,0.3,1.6,0.7,2.4
			c0.3,0.6,0.8,1,1.2,1.3c0.5,0.3,0.9,0.3,1.3,0.1c0.3-0.3,0.5-0.8,0.5-1.4c0-0.7-0.2-1.4-0.6-2.1
			C-1008.5,1501.5-1008.9,1501-1009.5,1500.6z M-1009.4,1499.3c0.8,0.5,1.5,1.3,2.1,2.4c0.6,1.1,0.8,2.3,0.8,3.4
			c0,1.1-0.3,1.8-0.8,2.2c-0.6,0.4-1.3,0.3-2.1-0.2c-0.8-0.5-1.5-1.3-2.1-2.5c-0.6-1.1-0.8-2.2-0.8-3.3c0-0.7,0.1-1.3,0.4-1.7
			c0.3-0.4,0.6-0.7,1.1-0.8C-1010.5,1498.8-1010,1498.9-1009.4,1499.3z M-1017.2,1494.7l1,0.7v7.3l-1-0.7V1494.7z M-1023.4,1490.8
			l2.9,1.8v1.3l-1-0.6v5.8l-1-0.7v-5.8l-0.9-0.6V1490.8z M-1030.1,1486.6l1,0.6v4.5c0,0.4,0,0.7,0.1,0.8c0.1,0.2,0.2,0.3,0.3,0.6
			c0.1,0.2,0.3,0.3,0.4,0.4c0.2,0.1,0.3,0.2,0.4,0.1c0.1,0,0.2-0.1,0.3-0.3s0.1-0.4,0.1-0.9v-4.4l1,0.6v4.2c0,0.7,0,1.2-0.1,1.4
			c-0.1,0.3-0.2,0.4-0.3,0.6c-0.2,0.2-0.3,0.3-0.6,0.2c-0.3,0-0.4-0.1-0.8-0.3c-0.3-0.3-0.7-0.6-0.9-1c-0.3-0.4-0.5-0.8-0.6-1.3
			c-0.1-0.4-0.2-1.1-0.2-1.9L-1030.1,1486.6z M-1035.7,1483.2l0.9,0.6v5.6l1.4,0.9v1.3l-2.4-1.5V1483.2z M-1041.5,1480.6
			c-0.4-0.3-0.8-0.3-1.1,0c-0.3,0.3-0.4,0.7-0.4,1.3c0,0.8,0.2,1.4,0.6,2.1c0.3,0.5,0.6,0.9,1,1.2s0.8,0.3,1.1,0
			c0.3-0.3,0.4-0.7,0.4-1.3s-0.2-1.3-0.4-1.9C-1040.7,1481.4-1041.1,1480.9-1041.5,1480.6z M-1041.5,1479.4c0.7,0.4,1.3,1.1,1.8,2.1
			s0.8,2,0.8,3s-0.3,1.7-0.8,2.1s-1.1,0.3-1.8-0.1s-1.3-1.2-1.8-2.2c-0.5-1-0.7-2-0.7-2.9c0-0.7,0.1-1.2,0.3-1.6
			c0.3-0.4,0.5-0.7,0.9-0.8C-1042.3,1479-1041.9,1479.1-1041.5,1479.4z M-1047,1477l-0.7,0.4c-0.3-0.6-0.4-1-0.7-1.1
			c-0.1-0.1-0.2-0.1-0.3-0.1c-0.1,0.1-0.1,0.1-0.1,0.3c0,0.1,0,0.3,0.1,0.3c0.1,0.2,0.3,0.6,0.7,1.3c0.3,0.6,0.5,1,0.6,1.2
			c0.2,0.3,0.3,0.7,0.4,1c0.1,0.3,0.1,0.6,0.1,0.8c0,0.6-0.2,0.9-0.4,1.1c-0.3,0.2-0.6,0.2-1-0.1c-0.3-0.2-0.6-0.5-0.8-0.9
			c-0.3-0.4-0.4-0.9-0.6-1.5l0.8-0.2c0.3,0.8,0.5,1.2,0.8,1.3c0.2,0.1,0.3,0.1,0.4,0.1c0.1-0.1,0.2-0.2,0.2-0.3c0-0.2,0-0.3-0.1-0.5
			s-0.3-0.5-0.5-1c-0.5-0.9-0.8-1.6-0.9-1.9c-0.2-0.4-0.3-0.8-0.3-1.1c0-0.4,0.1-0.8,0.3-0.9c0.3-0.2,0.5-0.2,0.9,0.1
			c0.3,0.2,0.4,0.3,0.7,0.7C-1047.5,1476-1047.2,1476.4-1047,1477z"/>
		<path id="XMLID_87_" d="M-934.5,1509.7l5.5,3l0.3,33.7l-5.5-3.4L-934.5,1509.7z M-950.1,1515c-1.6-0.9-2.9-1-3.9-0.3
			c-1,0.7-1.5,1.9-1.5,3.9c0,2,0.5,3.9,1.6,5.8c1.1,1.9,2.4,3.4,3.9,4.3c1.6,1,2.9,1.2,4,0.5c1.1-0.7,1.6-2,1.6-4.1
			c0-2-0.6-4-1.7-5.9C-947.1,1517.3-948.5,1515.9-950.1,1515z M-944.7,1513.2l5.3,2.9l0.2,23.8l-5.3-3.3v-2.5c-1,0.5-2,0.6-3,0.5
			c-1-0.2-2.1-0.6-3.3-1.3c-2.6-1.6-4.9-4.1-6.7-7.6c-1.8-3.4-2.8-6.7-2.9-10.2c0-3.5,0.8-5.8,2.6-7.1c1.8-1.3,3.9-1.1,6.6,0.3
			c1.3,0.7,2.4,1.6,3.4,2.7c1.1,1.1,2.1,2.5,3,4V1513.2z M-968.6,1499.7l4.7,2.7l0.1,22.4l-4.7-2.9L-968.6,1499.7z M-966.4,1491.9
			c0.8,0.4,1.5,1.2,2.2,2.3c0.6,1,0.9,2.1,0.9,3.1s-0.3,1.7-0.8,2.1c-0.6,0.3-1.3,0.3-2.1-0.2c-0.8-0.5-1.6-1.3-2.2-2.3
			c-0.6-1-0.9-2.1-0.9-3.1s0.3-1.7,0.8-2C-967.9,1491.5-967.2,1491.5-966.4,1491.9z M-998.4,1490.7c-0.3-1.3-0.8-2.5-1.6-3.7
			c-0.8-1.2-1.7-2-2.7-2.6c-1.1-0.7-2.1-0.8-2.9-0.5c-0.5,0.2-1,0.8-1.4,1.8L-998.4,1490.7z M-994.2,1497.2l-12.8-7.6
			c0.2,1.5,0.7,3,1.4,4.3c0.8,1.3,1.8,2.4,3,3.1c1.5,0.9,2.8,1,3.9,0.3l3.4,4.1c-0.8,1-1.8,1.5-3.1,1.6c-1.2,0-2.6-0.5-4.2-1.4
			c-2.4-1.5-4.5-3.7-6-6.6c-1.5-2.9-2.3-5.8-2.3-8.8c0-3,0.8-5.1,2.3-6.3c1.5-1.2,3.4-1.1,5.8,0.2c2.5,1.4,4.5,3.6,6.2,6.5
			c1.6,3,2.4,6.2,2.4,9.7L-994.2,1497.2z M-1021.5,1474c-1.1-0.7-2-0.7-2.8,0c-0.8,0.6-1.1,1.8-1.1,3.4c0,1.7,0.3,3.3,1.1,4.8
			c0.8,1.5,1.7,2.6,2.8,3.3c1.2,0.7,2.1,0.8,2.9,0.1c0.8-0.6,1.2-1.8,1.2-3.5c0-1.7-0.4-3.3-1.2-4.8
			C-1019.4,1475.7-1020.4,1474.6-1021.5,1474z M-1017.7,1464.6l3.7,2l0.1,27.5l-3.7-2.3v-2.1c-0.8,0.5-1.4,0.7-2.2,0.7
			c-0.7,0-1.5-0.3-2.4-0.8c-1.8-1.2-3.4-3.1-4.8-5.8s-1.9-5.5-2-8.3c0-2.9,0.6-5,1.9-6.1c1.3-1.2,2.9-1.3,4.7-0.2
			c0.8,0.5,1.7,1.2,2.4,2c0.8,0.8,1.5,1.9,2.1,3.2L-1017.7,1464.6z M-1043.3,1457.7l3.2,1.8v1.9c0.8-0.4,1.4-0.7,2-0.7
			c0.6,0,1.3,0.2,1.8,0.5c1.3,0.8,2.4,2,3.4,3.9c0.8,1.6,1.2,3.4,1.2,5.6v12.5l-3.4-2.1v-8.2c0-2.3-0.1-3.8-0.3-4.5
			c-0.2-0.8-0.4-1.5-0.8-2.1c-0.3-0.6-0.8-1-1.3-1.3c-0.7-0.4-1.3-0.4-1.7-0.1c-0.5,0.3-0.8,1-1,2c-0.1,0.5-0.2,1.8-0.2,3.7v7.4
			l-3.2-2L-1043.3,1457.7z M-1049.2,1454.4l3.1,1.8v18.1l-3.1-1.9V1454.4z M-1047.6,1447.8c0.6,0.3,1,0.8,1.4,1.6
			c0.4,0.8,0.6,1.6,0.6,2.4c0,0.8-0.2,1.4-0.6,1.8s-0.8,0.3-1.4,0.1c-0.6-0.3-1-0.8-1.4-1.7c-0.4-0.8-0.6-1.6-0.6-2.4
			c0-0.8,0.2-1.3,0.6-1.7S-1048.2,1447.6-1047.6,1447.8z"/>
		<path id="XMLID_29_" class="st47" d="M-987.9,1480.4c3.2-0.8,7.5,1.4,10.8,5.8l-5.5,7.3L-987.9,1480.4z"/>
		<path id="XMLID_28_" class="st47" d="M-990.1,1503.3c-1.8-5-2.9-9.3-2.7-12.7c0-3.8,0.8-6.5,1.9-8.1l5.8,14.3L-990.1,1503.3z"/>
		<path id="XMLID_19_" class="st47" d="M-977.1,1516.3c-1.7,1.9-3.5,3.7-5.3,5.4c-1.8-3.9-3.7-8.1-5.3-12l5.1-6.6L-977.1,1516.3z"/>
		<path id="XMLID_18_" class="st47" d="M-971.6,1502.8c0.2,3.7-1.1,7.1-3,10l-5.5-13.2l6.1-8C-972.5,1495-971.6,1498.8-971.6,1502.8
			z"/>
		<path id="XMLID_62_" class="st48" d="M-991.6,1325.3c5.2-1.3,12.1,2.3,17.5,9.3l-8.9,11.8L-991.6,1325.3z"/>
		<path id="XMLID_61_" class="st48" d="M-995.1,1362.3c-2.8-7.9-4.5-15.1-4.4-20.4c0-6.1,1.2-10.4,3.1-13.1l9.4,23L-995.1,1362.3z"
			/>
		<path id="XMLID_36_" class="st48" d="M-974.2,1383.2c-2.7,3.1-5.6,6-8.5,8.6c-2.9-6.4-6-13-8.6-19.4l8.3-10.7L-974.2,1383.2z"/>
		<path id="XMLID_34_" class="st48" d="M-965.2,1361.5c0.3,6-1.8,11.3-4.8,16.1l-8.8-21.2l9.9-12.8
			C-966.7,1348.8-965.3,1355-965.2,1361.5z"/>
	</g>
</g>
</svg>
