<?xml version="1.0" encoding="utf-8"?>
<!-- Generator: Adobe Illustrator 19.0.0, SVG Export Plug-In . SVG Version: 6.00 Build 0)  -->
<svg version="1.1" id="Layer_1" xmlns="http://www.w3.org/2000/svg" xmlns:xlink="http://www.w3.org/1999/xlink" x="0px" y="0px"
	 viewBox="2 242.7 600 356.2" style="enable-background:new 2 242.7 600 356.2;" xml:space="preserve">
<style type="text/css">
	.st0{fill:#FFFFFF;}
	.st1{fill:url(#SVGID_1_);}
	.st2{fill:url(#SVGID_2_);}
	.st3{fill:none;}
	.st4{fill:url(#SVGID_3_);}
	.st5{fill:url(#SVGID_4_);}
	.st6{fill:url(#SVGID_5_);}
	.st7{fill:url(#SVGID_6_);}
	.st8{fill:url(#SVGID_7_);}
	.st9{fill:url(#SVGID_8_);}
	.st10{fill:url(#SVGID_9_);}
	.st11{opacity:0.2;}
	.st12{fill:url(#SVGID_10_);}
	.st13{fill:url(#SVGID_11_);}
	.st14{opacity:0.5;}
	.st15{fill:url(#SVGID_12_);}
	.st16{fill:url(#SVGID_13_);}
	.st17{opacity:0.25;}
	.st18{fill:url(#SVGID_14_);}
	.st19{fill:url(#SVGID_15_);}
	.st20{fill:url(#SVGID_16_);}
	.st21{fill:url(#SVGID_17_);}
	.st22{opacity:0.3;}
	.st23{fill:url(#SVGID_18_);}
	.st24{fill:url(#SVGID_19_);}
	.st25{fill:url(#SVGID_20_);}
	.st26{fill:url(#SVGID_21_);}
	.st27{fill:#0063AD;}
	.st28{fill:url(#SVGID_22_);}
	.st29{fill:url(#SVGID_23_);}
	.st30{fill:#7BDAFF;}
	.st31{fill:url(#SVGID_24_);}
	.st32{clip-path:url(#SVGID_26_);}
	.st33{fill:url(#SVGID_27_);}
	.st34{fill:url(#SVGID_28_);}
	.st35{fill:#3A9BD5;}
	.st36{fill:url(#SVGID_29_);}
	.st37{fill:#2573BA;}
	.st38{fill:url(#SVGID_30_);}
	.st39{fill:url(#SVGID_31_);}
	.st40{opacity:0.5;fill:#0063AD;enable-background:new    ;}
	.st41{opacity:0.5;fill:#1A4272;enable-background:new    ;}
	.st42{fill:url(#SVGID_32_);}
	.st43{fill:url(#SVGID_33_);}
	.st44{fill:url(#SVGID_34_);}
	.st45{fill:url(#SVGID_35_);}
	.st46{fill:url(#SVGID_36_);}
	.st47{opacity:0.7;fill:#DA1E00;enable-background:new    ;}
	.st48{fill:url(#SVGID_37_);}
	.st49{fill:url(#SVGID_38_);}
	.st50{fill:url(#SVGID_39_);}
	.st51{fill:url(#SVGID_40_);}
	.st52{opacity:0.3;fill:url(#SVGID_41_);enable-background:new    ;}
	.st53{fill:url(#SVGID_42_);}
	.st54{fill:url(#SVGID_43_);}
	.st55{fill:url(#SVGID_44_);}
	.st56{fill:url(#SVGID_45_);}
	.st57{fill-rule:evenodd;clip-rule:evenodd;fill:#568FC7;}
	.st58{fill-rule:evenodd;clip-rule:evenodd;fill:#868789;}
	.st59{fill-rule:evenodd;clip-rule:evenodd;fill:#FFFFFF;}
	.st60{fill-rule:evenodd;clip-rule:evenodd;fill:#1B1918;}
</style>
<g id="Layer_2">
</g>
<g>
	<g>
		<path class="st0" d="M201.8,565.5l-50.9,29.2c-3.9,2.3-9.9,2.5-13.3,0.5l-52.5-31c-1.1-0.6-1.7-1.4-2-2.3c-0.6,1.7,0,3.4,2,4.6
			l52.5,31c3.4,2,9.3,1.8,13.3-0.5l50.9-29.2c2.7-1.5,3.7-3.6,3-5.5C204.4,563.5,203.4,564.6,201.8,565.5z"/>
	</g>
	<g>
		
			<linearGradient id="SVGID_1_" gradientUnits="userSpaceOnUse" x1="491.1079" y1="310.3159" x2="659.8357" y2="310.3159" gradientTransform="matrix(1 5.900000e-003 5.900000e-003 -1 -363.1965 848.9318)">
			<stop  offset="0" style="stop-color:#3A9BD5"/>
			<stop  offset="0.1172" style="stop-color:#3490CE"/>
			<stop  offset="0.367" style="stop-color:#2C80C3"/>
			<stop  offset="0.6442" style="stop-color:#2776BC"/>
			<stop  offset="1" style="stop-color:#2573BA"/>
		</linearGradient>
		<path class="st1" d="M205.3,487l-121.9-0.7L83,561.1l0,0c-0.1,1.3,0.6,2.6,2.2,3.5l52.4,30.6c3.4,2,9.3,1.8,13.3-0.5l50.8-28.9
			c2-1.2,3.1-2.6,3.2-4.1l0,0L205.3,487z"/>
		
			<linearGradient id="SVGID_2_" gradientUnits="userSpaceOnUse" x1="451.509" y1="446.3799" x2="581.6941" y2="250.0536" gradientTransform="matrix(1 5.900000e-003 5.900000e-003 -1 -363.1965 848.9318)">
			<stop  offset="0" style="stop-color:#59BDEF"/>
			<stop  offset="1" style="stop-color:#7BDAFF"/>
		</linearGradient>
		<path class="st2" d="M137.9,520.5l-52.4-30.6c-3.4-2-2.9-5.4,1-7.7l50.8-28.9c3.9-2.2,9.9-2.5,13.3-0.5l52.4,30.6
			c3.4,2,2.9,5.4-1,7.7L151.2,520C147.3,522.3,141.3,522.5,137.9,520.5z"/>
		<path class="st0" d="M202,488.8l-50.8,28.9c-3.9,2.2-9.9,2.5-13.3,0.5l-52.4-30.6c-1.1-0.6-1.7-1.4-2-2.2c-0.6,1.6,0,3.3,2,4.5
			l52.4,30.6c3.4,2,9.3,1.8,13.3-0.5l50.8-28.9c2.7-1.5,3.7-3.6,3-5.4C204.6,486.8,203.6,487.9,202,488.8z"/>
	</g>
	<rect x="66.1" y="307.2" class="st3" width="318.4" height="312.8"/>
	<g>
		<g>
			
				<linearGradient id="SVGID_3_" gradientUnits="userSpaceOnUse" x1="411.5" y1="508.8019" x2="480.8" y2="508.8019" gradientTransform="matrix(1 0 0 -1 0 841.27)">
				<stop  offset="0.4032" style="stop-color:#FD5A05"/>
				<stop  offset="0.423" style="stop-color:#FA5505"/>
				<stop  offset="0.5505" style="stop-color:#EC3D03"/>
				<stop  offset="0.6846" style="stop-color:#E22C01"/>
				<stop  offset="0.8286" style="stop-color:#DC2100"/>
				<stop  offset="1" style="stop-color:#DA1E00"/>
			</linearGradient>
			<path class="st4" d="M480.8,265.7h-69.3v113.6l0,0c0,0.7,0.4,1.5,1.3,2l29.9,17.2c1.9,1.1,5.3,1,7.5-0.3l28.8-16.6
				c1.2-0.7,1.8-1.5,1.8-2.3l0,0L480.8,265.7L480.8,265.7z"/>
			
				<linearGradient id="SVGID_4_" gradientUnits="userSpaceOnUse" x1="415.5233" y1="621.6914" x2="489.5544" y2="510.0485" gradientTransform="matrix(1 0 0 -1 0 841.27)">
				<stop  offset="0.4032" style="stop-color:#FC8B04"/>
				<stop  offset="0.5099" style="stop-color:#FC7904"/>
				<stop  offset="0.6558" style="stop-color:#FD6805"/>
				<stop  offset="0.813" style="stop-color:#FD5D05"/>
				<stop  offset="1" style="stop-color:#FD5A05"/>
			</linearGradient>
			<path class="st5" d="M442.6,285l-29.9-17.3c-1.9-1.1-1.7-3.1,0.5-4.4l28.8-16.6c2.2-1.3,5.6-1.4,7.5-0.3l30,17.3
				c1.9,1.1,1.7,3.1-0.5,4.4l-28.8,16.6C447.9,286,444.6,286.1,442.6,285z"/>
			<path class="st0" d="M478.9,266.8l-28.8,16.6c-2.2,1.3-5.6,1.4-7.5,0.3l-29.9-17.2c-0.6-0.4-1-0.8-1.2-1.3
				c-0.3,0.9,0,1.9,1.2,2.6l29.9,17.2c1.9,1.1,5.3,1,7.5-0.3l28.8-16.6c1.5-0.9,2.1-2.1,1.7-3.1
				C480.4,265.6,479.9,266.2,478.9,266.8z"/>
		</g>
		<g>
			
				<linearGradient id="SVGID_5_" gradientUnits="userSpaceOnUse" x1="458.9" y1="467.7519" x2="528.2" y2="467.7519" gradientTransform="matrix(1 0 0 -1 0 841.27)">
				<stop  offset="0.4032" style="stop-color:#FD5A05"/>
				<stop  offset="0.423" style="stop-color:#FA5505"/>
				<stop  offset="0.5505" style="stop-color:#EC3D03"/>
				<stop  offset="0.6846" style="stop-color:#E22C01"/>
				<stop  offset="0.8286" style="stop-color:#DC2100"/>
				<stop  offset="1" style="stop-color:#DA1E00"/>
			</linearGradient>
			<path class="st6" d="M528.2,320.1h-69.3V407l0,0c0,0.7,0.4,1.5,1.3,2l29.9,17.2c1.9,1.1,5.3,1,7.5-0.3l28.8-16.6
				c1.2-0.7,1.8-1.5,1.8-2.3l0,0V320.1z"/>
			
				<linearGradient id="SVGID_6_" gradientUnits="userSpaceOnUse" x1="462.9425" y1="567.2878" x2="536.9736" y2="455.6449" gradientTransform="matrix(1 0 0 -1 0 841.27)">
				<stop  offset="0.4032" style="stop-color:#FC8B04"/>
				<stop  offset="0.5099" style="stop-color:#FC7904"/>
				<stop  offset="0.6558" style="stop-color:#FD6805"/>
				<stop  offset="0.813" style="stop-color:#FD5D05"/>
				<stop  offset="1" style="stop-color:#FD5A05"/>
			</linearGradient>
			<path class="st7" d="M490.1,339.4l-29.9-17.2c-1.9-1.1-1.7-3.1,0.5-4.4l28.8-16.6c2.2-1.3,5.6-1.4,7.5-0.3l29.9,17.2
				c1.9,1.1,1.7,3.1-0.5,4.4l-28.8,16.6C495.4,340.3,492,340.5,490.1,339.4z"/>
			<path class="st0" d="M526.4,321.2l-28.8,16.6c-2.2,1.3-5.6,1.4-7.5,0.3l-29.9-17.2c-0.6-0.4-1-0.8-1.2-1.3
				c-0.3,0.9,0,1.9,1.2,2.6l29.9,17.2c1.9,1.1,5.3,1,7.5-0.3l28.8-16.6c1.5-0.9,2.1-2.1,1.7-3.1C527.9,320,527.3,320.6,526.4,321.2z
				"/>
		</g>
		<g>
			
				<linearGradient id="SVGID_7_" gradientUnits="userSpaceOnUse" x1="364" y1="436.1519" x2="433.3" y2="436.1519" gradientTransform="matrix(1 0 0 -1 0 841.27)">
				<stop  offset="0.4032" style="stop-color:#FD5A05"/>
				<stop  offset="0.423" style="stop-color:#FA5505"/>
				<stop  offset="0.5505" style="stop-color:#EC3D03"/>
				<stop  offset="0.6846" style="stop-color:#E22C01"/>
				<stop  offset="0.8286" style="stop-color:#DC2100"/>
				<stop  offset="1" style="stop-color:#DA1E00"/>
			</linearGradient>
			<path class="st8" d="M433.3,384.3H364V406l0,0c0,0.7,0.4,1.5,1.3,2l29.9,17.2c1.9,1.1,5.3,1,7.5-0.3l28.8-16.6
				c1.2-0.7,1.8-1.5,1.8-2.3l0,0L433.3,384.3L433.3,384.3z"/>
			<path class="st0" d="M431.5,385.4L402.7,402c-2.2,1.3-5.6,1.4-7.5,0.3l-29.9-17.2c-0.6-0.4-1-0.8-1.2-1.3c-0.3,0.9,0,1.9,1.2,2.6
				l29.9,17.2c1.9,1.1,5.3,1,7.5-0.3l28.8-16.6c1.5-0.9,2.1-2.1,1.7-3.1C433,384.2,432.4,384.9,431.5,385.4z"/>
		</g>
		<g>
			
				<linearGradient id="SVGID_8_" gradientUnits="userSpaceOnUse" x1="411.5" y1="425.0519" x2="480.8" y2="425.0519" gradientTransform="matrix(1 0 0 -1 0 841.27)">
				<stop  offset="0.4032" style="stop-color:#FD5A05"/>
				<stop  offset="0.423" style="stop-color:#FA5505"/>
				<stop  offset="0.5505" style="stop-color:#EC3D03"/>
				<stop  offset="0.6846" style="stop-color:#E22C01"/>
				<stop  offset="0.8286" style="stop-color:#DC2100"/>
				<stop  offset="1" style="stop-color:#DA1E00"/>
			</linearGradient>
			<path class="st9" d="M480.8,378.8h-69.3v54.9l0,0c0,0.7,0.4,1.5,1.3,2l29.9,17.2c1.9,1.1,5.3,1,7.5-0.3L479,436
				c1.2-0.7,1.8-1.5,1.8-2.3l0,0L480.8,378.8L480.8,378.8z"/>
			
				<linearGradient id="SVGID_9_" gradientUnits="userSpaceOnUse" x1="415.6725" y1="507.8094" x2="489.459" y2="396.5355" gradientTransform="matrix(1 0 0 -1 0 841.27)">
				<stop  offset="0.4032" style="stop-color:#FC8B04"/>
				<stop  offset="0.5099" style="stop-color:#FC7904"/>
				<stop  offset="0.6558" style="stop-color:#FD6805"/>
				<stop  offset="0.813" style="stop-color:#FD5D05"/>
				<stop  offset="1" style="stop-color:#FD5A05"/>
			</linearGradient>
			<path class="st10" d="M441.1,392.2c-9.3-3.8-18.5-7.6-27.8-11.3c-1,0.1-1.8-0.7-1.8-1.7c0-0.9,0.7-1.7,1.7-1.8
				c7.8-2.8,15.5-5.5,23.3-8.3c2.1-0.8,5.9-1.9,10.8-1.6c4.1,0.3,7.3,1.5,9.3,2.4c7.6,2.6,15.3,5.2,22.9,7.9c0.1,0,1,0.4,1.3,1.3
				c0.2,0.9-0.4,2-1.6,2.4c-9.5,3.6-19,7.1-28.5,10.7c-1,0.4-2.6,0.8-4.6,0.8C443.9,393,442.2,392.6,441.1,392.2z"/>
			<path class="st0" d="M478.8,380.7c-9.2,3.5-18.5,7-27.7,10.5c-1,0.6-2.9,1.4-5.4,1.4c-1.9,0-3.5-0.4-4.5-0.8
				c-9.5-3.8-19.1-7.7-28.6-11.5c-0.6-0.4-1-0.9-1.2-1.4c-0.3,1,0,2.1,1.2,2.9c9.5,4.1,19,8.3,28.5,12.4c0.9,0.4,2.4,1,4.5,1
				c2.2,0,3.9-0.9,4.8-1.3c9.5-3.9,19-7.8,28.5-11.7c1.5-1,2.1-2.3,1.7-3.5C480,379.3,479.4,380,478.8,380.7z"/>
		</g>
	</g>
	<rect x="294.2" y="275.2" class="st3" width="243.7" height="197.5"/>
	<g class="st11">
		
			<linearGradient id="SVGID_10_" gradientUnits="userSpaceOnUse" x1="8.5972" y1="669.4021" x2="62.2263" y2="669.4021" gradientTransform="matrix(0.3477 -0.9376 -0.9376 -0.3477 796.9423 575.8829)">
			<stop  offset="0.4032" style="stop-color:#FD5A05"/>
			<stop  offset="0.423" style="stop-color:#FA5505"/>
			<stop  offset="0.5505" style="stop-color:#EC3D03"/>
			<stop  offset="0.6846" style="stop-color:#E22C01"/>
			<stop  offset="0.8286" style="stop-color:#DC2100"/>
			<stop  offset="1" style="stop-color:#DA1E00"/>
		</linearGradient>
		<path class="st12" d="M168.3,276.4l-18.6,50.3l30.8,11.4l0,0c0.5,0.2,1.2,0.1,1.8-0.4l20.5-17c1.3-1.1,2.1-3.6,1.8-5.6l-4.3-25.3
			c-0.2-1-0.6-1.7-1.2-1.9l0,0L168.3,276.4z"/>
		
			<linearGradient id="SVGID_11_" gradientUnits="userSpaceOnUse" x1="11.8323" y1="729.2666" x2="69.0647" y2="642.9569" gradientTransform="matrix(0.3477 -0.9376 -0.9376 -0.3477 796.9423 575.8829)">
			<stop  offset="0.4032" style="stop-color:#FC8B04"/>
			<stop  offset="0.5099" style="stop-color:#FC7904"/>
			<stop  offset="0.6558" style="stop-color:#FD6805"/>
			<stop  offset="0.813" style="stop-color:#FD5D05"/>
			<stop  offset="1" style="stop-color:#FD5A05"/>
		</linearGradient>
		<path class="st13" d="M172,309.2l-20.5,17c-1.3,1.1-2.7,0.4-3-1.6l-4.3-25.3c-0.3-2,0.5-4.4,1.8-5.6l20.5-17
			c1.3-1.1,2.7-0.4,3,1.6l4.3,25.3C174.1,305.6,173.3,308.1,172,309.2z"/>
		<path class="st0" d="M168.6,278l4.3,25.3c0.3,2-0.5,4.4-1.8,5.6l-20.5,17c-0.4,0.3-0.8,0.5-1.2,0.5c0.6,0.5,1.4,0.5,2.2-0.2
			l20.5-17c1.3-1.1,2.1-3.6,1.8-5.6l-4.3-25.3c-0.2-1.3-0.9-2.1-1.8-2.1C168.1,276.6,168.4,277.2,168.6,278z"/>
	</g>
	<g class="st14">
		
			<linearGradient id="SVGID_12_" gradientUnits="userSpaceOnUse" x1="-120.407" y1="708.2674" x2="-88.6561" y2="708.2674" gradientTransform="matrix(0.3477 -0.9376 -0.9376 -0.3477 796.9423 575.8829)">
			<stop  offset="0.4032" style="stop-color:#FD5A05"/>
			<stop  offset="0.423" style="stop-color:#FA5505"/>
			<stop  offset="0.5505" style="stop-color:#EC3D03"/>
			<stop  offset="0.6846" style="stop-color:#E22C01"/>
			<stop  offset="0.8286" style="stop-color:#DC2100"/>
			<stop  offset="1" style="stop-color:#DA1E00"/>
		</linearGradient>
		<path class="st15" d="M88.6,407.7l-11,29.8l18.2,6.8l0,0c0.3,0.1,0.7,0.1,1.1-0.2l12.2-10.1c0.8-0.7,1.3-2.1,1.1-3.3l-2.6-15
			c-0.1-0.6-0.4-1-0.7-1.2l0,0L88.6,407.7z"/>
		
			<linearGradient id="SVGID_13_" gradientUnits="userSpaceOnUse" x1="-118.5507" y1="743.7632" x2="-84.6545" y2="692.6461" gradientTransform="matrix(0.3477 -0.9376 -0.9376 -0.3477 796.9423 575.8829)">
			<stop  offset="0.4032" style="stop-color:#FC8B04"/>
			<stop  offset="0.5099" style="stop-color:#FC7904"/>
			<stop  offset="0.6558" style="stop-color:#FD6805"/>
			<stop  offset="0.813" style="stop-color:#FD5D05"/>
			<stop  offset="1" style="stop-color:#FD5A05"/>
		</linearGradient>
		<path class="st16" d="M90.8,427.2l-12.2,10.1c-0.8,0.7-1.6,0.2-1.8-0.9l-2.6-15c-0.2-1.2,0.3-2.6,1.1-3.3L87.5,408
			c0.8-0.7,1.6-0.2,1.8,0.9l2.6,15C92,425.1,91.5,426.5,90.8,427.2z"/>
		<path class="st0" d="M88.7,408.7l2.6,15c0.2,1.2-0.3,2.6-1.1,3.3L78,437.1c-0.2,0.2-0.5,0.3-0.7,0.3c0.3,0.3,0.8,0.3,1.3-0.1
			l12.2-10.1c0.8-0.7,1.3-2.1,1.1-3.3l-2.6-15c-0.1-0.8-0.6-1.2-1.1-1.2C88.5,407.9,88.6,408.2,88.7,408.7z"/>
	</g>
	<g class="st17">
		
			<linearGradient id="SVGID_14_" gradientUnits="userSpaceOnUse" x1="-682.0991" y1="451.9487" x2="-658.8989" y2="451.9487" gradientTransform="matrix(0.6045 0.7966 0.7966 -0.6045 485.507 1377.5846)">
			<stop  offset="0.4032" style="stop-color:#FD5A05"/>
			<stop  offset="0.423" style="stop-color:#FA5505"/>
			<stop  offset="0.5505" style="stop-color:#EC3D03"/>
			<stop  offset="0.6846" style="stop-color:#E22C01"/>
			<stop  offset="0.8286" style="stop-color:#DC2100"/>
			<stop  offset="1" style="stop-color:#DA1E00"/>
		</linearGradient>
		<path class="st18" d="M455.5,573.2l-14-18.5l-11.3,8.6l0,0c-0.2,0.1-0.3,0.4-0.3,0.7l1.4,11.4c0.1,0.7,0.8,1.6,1.6,1.9l10.2,4.3
			c0.4,0.2,0.8,0.2,1,0l0,0L455.5,573.2z"/>
		
			<linearGradient id="SVGID_15_" gradientUnits="userSpaceOnUse" x1="-680.6977" y1="477.7979" x2="-655.9398" y2="440.4615" gradientTransform="matrix(0.6045 0.7966 0.7966 -0.6045 485.507 1377.5846)">
			<stop  offset="0.4032" style="stop-color:#FC8B04"/>
			<stop  offset="0.5099" style="stop-color:#FC7904"/>
			<stop  offset="0.6558" style="stop-color:#FD6805"/>
			<stop  offset="0.813" style="stop-color:#FD5D05"/>
			<stop  offset="1" style="stop-color:#FD5A05"/>
		</linearGradient>
		<path class="st19" d="M442.7,566.9l-1.4-11.4c-0.1-0.7,0.5-1.1,1.3-0.7l10.2,4.3c0.8,0.3,1.5,1.2,1.6,1.9l1.4,11.4
			c0.1,0.7-0.5,1.1-1.3,0.7l-10.2-4.3C443.5,568.6,442.7,567.7,442.7,566.9z"/>
		<path class="st0" d="M454.8,572.9l-10.2-4.3c-0.8-0.3-1.5-1.2-1.6-1.9l-1.4-11.4c0-0.2,0-0.4,0.1-0.6c-0.3,0.1-0.5,0.4-0.4,0.8
			l1.4,11.4c0.1,0.7,0.8,1.6,1.6,1.9l10.2,4.3c0.5,0.2,1,0.1,1.2-0.2C455.5,573.1,455.2,573.1,454.8,572.9z"/>
	</g>
	<g class="st17">
		
			<linearGradient id="SVGID_16_" gradientUnits="userSpaceOnUse" x1="-968.5579" y1="518.1655" x2="-945.3577" y2="518.1655" gradientTransform="matrix(0.6045 0.7966 0.7966 -0.6045 485.507 1377.5846)">
			<stop  offset="0.4032" style="stop-color:#FD5A05"/>
			<stop  offset="0.423" style="stop-color:#FA5505"/>
			<stop  offset="0.5505" style="stop-color:#EC3D03"/>
			<stop  offset="0.6846" style="stop-color:#E22C01"/>
			<stop  offset="0.8286" style="stop-color:#DC2100"/>
			<stop  offset="1" style="stop-color:#DA1E00"/>
		</linearGradient>
		<path class="st20" d="M335.1,305l-14-18.5l-11.3,8.6l0,0c-0.2,0.1-0.3,0.4-0.3,0.7l1.4,11.4c0.1,0.7,0.8,1.6,1.6,1.9l10.2,4.3
			c0.4,0.2,0.8,0.2,1,0l0,0L335.1,305z"/>
		
			<linearGradient id="SVGID_17_" gradientUnits="userSpaceOnUse" x1="-967.169" y1="543.9623" x2="-942.4111" y2="506.626" gradientTransform="matrix(0.6045 0.7966 0.7966 -0.6045 485.507 1377.5846)">
			<stop  offset="0.4032" style="stop-color:#FC8B04"/>
			<stop  offset="0.5099" style="stop-color:#FC7904"/>
			<stop  offset="0.6558" style="stop-color:#FD6805"/>
			<stop  offset="0.813" style="stop-color:#FD5D05"/>
			<stop  offset="1" style="stop-color:#FD5A05"/>
		</linearGradient>
		<path class="st21" d="M322.2,298.8l-1.4-11.4c-0.1-0.7,0.5-1.1,1.3-0.7l10.2,4.3c0.8,0.3,1.5,1.2,1.6,1.9l1.4,11.4
			c0.1,0.7-0.5,1.1-1.3,0.7l-10.2-4.3C323,300.4,322.3,299.5,322.2,298.8z"/>
		<path class="st0" d="M334.4,304.7l-10.2-4.3c-0.8-0.3-1.5-1.2-1.6-1.9l-1.4-11.4c0-0.2,0-0.4,0.1-0.6c-0.3,0.1-0.5,0.4-0.4,0.8
			l1.4,11.4c0.1,0.7,0.8,1.6,1.6,1.9l10.2,4.3c0.5,0.2,1,0.1,1.2-0.2C335,304.9,334.7,304.9,334.4,304.7z"/>
	</g>
	<g class="st22">
		
			<linearGradient id="SVGID_18_" gradientUnits="userSpaceOnUse" x1="348.4" y1="319.6425" x2="414.9" y2="319.6425" gradientTransform="matrix(1 0 0 -1 0 841.27)">
			<stop  offset="0" style="stop-color:#59BDEF"/>
			<stop  offset="1" style="stop-color:#7BDAFF"/>
		</linearGradient>
		<path class="st23" d="M353.8,502.5l60.8,35.1c0.4,0.2,0.4,0.7,0,0.9l-3.5,2.1c-0.5,0.3-1.1,0.3-1.6,0l-60.8-35.1
			c-0.4-0.2-0.4-0.7,0-0.9l3.5-2.1C352.7,502.3,353.3,502.3,353.8,502.5z"/>
	</g>
	<g>
		<g>
			<g>
				
					<linearGradient id="SVGID_19_" gradientUnits="userSpaceOnUse" x1="431.9995" y1="383.6867" x2="347.3938" y2="405.4036" gradientTransform="matrix(1 0 0 -1 0 841.27)">
					<stop  offset="0" style="stop-color:#2573BA"/>
					<stop  offset="7.539809e-003" style="stop-color:#2674BB"/>
					<stop  offset="0.1331" style="stop-color:#2F86C7"/>
					<stop  offset="0.2856" style="stop-color:#3592CF"/>
					<stop  offset="0.4934" style="stop-color:#3999D4"/>
					<stop  offset="1" style="stop-color:#3A9BD5"/>
				</linearGradient>
				<path class="st24" d="M351.4,358.6l7.1-4.1l0,0c0.3-0.1,0.7-0.1,1.1,0.1l61.1,35.3c0.9,0.5,1.7,2,1.7,3.2v139.1
					c0,0.7-0.2,1.1-0.6,1.3l0,0l-7.1,4.1l-0.2-7.7l-55-31.7c-0.9-0.5-1.7-2-1.7-3.2V362.2c-0.1,0.5-0.3,0.8-0.3,0.8L351.4,358.6z"/>
				
					<linearGradient id="SVGID_20_" gradientUnits="userSpaceOnUse" x1="-307.0456" y1="438.0503" x2="-307.0456" y2="451.1748" gradientTransform="matrix(-1 0 0 -1 104.6044 841.27)">
					<stop  offset="0" style="stop-color:#C0D6FF"/>
					<stop  offset="0.2978" style="stop-color:#C5DBFF"/>
					<stop  offset="0.6488" style="stop-color:#D3E9FF"/>
					<stop  offset="1" style="stop-color:#E9FFFF"/>
				</linearGradient>
				<path class="st25" d="M422.3,392.6l-18.5,10.7l-2.8-1.6l19.9-11.5C421.6,390.6,422.1,391.6,422.3,392.6z"/>
				
					<linearGradient id="SVGID_21_" gradientUnits="userSpaceOnUse" x1="-306.3574" y1="319.4379" x2="-306.3574" y2="443.8025" gradientTransform="matrix(-0.866 -0.5 0 -1.1547 117.7445 735.5276)">
					<stop  offset="0" style="stop-color:#59BDEF"/>
					<stop  offset="1" style="stop-color:#7BDAFF"/>
				</linearGradient>
				<path class="st26" d="M352.5,502.2l61.1,35.3c0.9,0.5,1.7,0,1.7-1.3V397.1c0-1.2-0.7-2.7-1.7-3.2l-61.1-35.2
					c-0.9-0.5-1.7,0-1.7,1.3v139.1C350.8,500.2,351.5,501.7,352.5,502.2z"/>
				<path class="st0" d="M414.4,393.5l-61.1-35.3c-0.6-0.3-1.1-0.2-1.4,0.2c0.2,0,0.4,0.1,0.5,0.2l61.1,35.3c0.9,0.5,1.7,2,1.7,3.2
					v139.1c0,0.4-0.1,0.8-0.3,1c0.6,0.1,1.1-0.5,1.1-1.4V396.7C416.1,395.5,415.4,394.1,414.4,393.5z"/>
				<path class="st27" d="M390.4,386.6c0-0.1,0.1-0.2,0.1-0.4c0-0.6-0.4-1.3-0.8-1.6l-11.8-6.8l-0.1-0.1l0,0
					c-0.4-0.2-0.7,0.1-0.7,0.7s0.4,1.3,0.8,1.6l11.8,6.8C390,387,390.3,386.9,390.4,386.6L390.4,386.6L390.4,386.6L390.4,386.6
					L390.4,386.6z"/>
			</g>
		</g>
	</g>
	<g>
		<polygon class="st0" points="358.3,375.4 357.3,374.8 357.3,372 358.3,372.6 		"/>
		<polygon class="st0" points="360.1,376.4 359.2,375.9 359.2,373.1 360.1,373.6 		"/>
		<polygon class="st0" points="361.9,377.5 361,376.9 361,374.1 361.9,374.7 		"/>
		<polygon class="st0" points="363.8,378.5 362.8,378 362.8,375.2 363.8,375.7 		"/>
	</g>
	<g>
		<g>
			
				<linearGradient id="SVGID_22_" gradientUnits="userSpaceOnUse" x1="386.9526" y1="341.2951" x2="384.4162" y2="356.7843" gradientTransform="matrix(1 0 0 -1 0 841.27)">
				<stop  offset="0" style="stop-color:#2573BA"/>
				<stop  offset="1" style="stop-color:#1A4272"/>
			</linearGradient>
			<polygon class="st28" points="400.3,483.7 400.3,508.7 369.5,491.2 			"/>
			<g>
				<g>
					
						<linearGradient id="SVGID_23_" gradientUnits="userSpaceOnUse" x1="3399.7852" y1="397.7179" x2="3337.7205" y2="417.992" gradientTransform="matrix(-1 0 0 -1 3762.3752 841.27)">
						<stop  offset="0" style="stop-color:#2573BA"/>
						<stop  offset="1" style="stop-color:#1A4272"/>
					</linearGradient>
					<polygon class="st29" points="367.2,394.5 367.2,459.8 400.3,478.8 400.3,413.5 					"/>
					<polygon class="st30" points="367.2,394.5 367.2,459.8 400.3,478.8 400.3,483.7 363,462.2 363,392 					"/>
					
						<linearGradient id="SVGID_24_" gradientUnits="userSpaceOnUse" x1="356.3383" y1="403.43" x2="381.0156" y2="403.43" gradientTransform="matrix(1 0 0 -1 0 841.27)">
						<stop  offset="0" style="stop-color:#2573BA"/>
						<stop  offset="7.539809e-003" style="stop-color:#2674BB"/>
						<stop  offset="0.1331" style="stop-color:#2F86C7"/>
						<stop  offset="0.2856" style="stop-color:#3592CF"/>
						<stop  offset="0.4934" style="stop-color:#3999D4"/>
						<stop  offset="1" style="stop-color:#3A9BD5"/>
					</linearGradient>
					<polygon class="st31" points="367.2,394.5 367.2,459.8 400.3,478.8 400.3,483.7 363,462.2 363,392 					"/>
				</g>
				<g>
					<g>
						<defs>
							<polygon id="SVGID_25_" points="400.3,427.2 400.3,444.3 400.3,500.7 368.9,524.2 322.6,515.9 303.4,483.7 							"/>
						</defs>
						<clipPath id="SVGID_26_">
							<use xlink:href="#SVGID_25_"  style="overflow:visible;"/>
						</clipPath>
						<g class="st32">
							
								<linearGradient id="SVGID_27_" gradientUnits="userSpaceOnUse" x1="3353.1643" y1="357.03" x2="3427.6667" y2="357.03" gradientTransform="matrix(-1 0 0 -1 3762.3752 841.27)">
								<stop  offset="0" style="stop-color:#2573BA"/>
								<stop  offset="1" style="stop-color:#0063AD"/>
							</linearGradient>
							<path class="st33" d="M348.6,512.2l52.6-30.1l8.1-25.8l-52.7,23.4c0,0-21.6,16.1-21.8,16.5c-0.2,0.3,11.6,15.2,11.6,15.2
								L348.6,512.2z"/>
							<g>
								<polygon class="st27" points="403.4,480.6 373.1,463.1 373.6,462.8 403.9,480.3 								"/>
								<polygon class="st27" points="358,471.9 358.4,471.6 388.7,489.1 388.2,489.4 								"/>
								<polygon class="st27" points="373.5,497.9 373,498.1 342.8,480.7 343.3,480.4 								"/>
								<polygon class="st27" points="358.5,506.8 358.1,507 327.6,489.5 328.1,489.2 								"/>
							</g>
							
								<linearGradient id="SVGID_28_" gradientUnits="userSpaceOnUse" x1="3352.2468" y1="381.9541" x2="3446.2307" y2="349.022" gradientTransform="matrix(-1 0 0 -1 3762.3752 841.27)">
								<stop  offset="0" style="stop-color:#59BDEF"/>
								<stop  offset="1" style="stop-color:#7BDAFF"/>
							</linearGradient>
							<path class="st34" d="M317.1,495.5L317.1,495.5l29.5,17l-1.3-4.9l0.5-3.4l0.6-3.3l4.2-4.1l7.7-4.8l52-30l-6.5-10.1l-0.2-2.8
								c3.4-1.9-0.4-4.7-0.4-9.2c0-2.5-0.9-4.4-2.3-5.2c-1.3-0.7,4.4-4.9,2.8-4l-82.9,48.1c-3.4,1.9-6,7-6,11.4
								C314.8,492.7,315.7,494.6,317.1,495.5z"/>
							<g>
								<polygon class="st35" points="398.6,468.8 368.3,451.3 368.7,451.1 399,468.6 								"/>
								<polygon class="st35" points="353.1,460.1 353.6,459.9 383.8,477.3 383.4,477.6 								"/>
								<polygon class="st35" points="383.4,442.5 383.9,442.3 414.1,459.7 413.7,460 								"/>
								<polygon class="st35" points="368.6,486.1 368.2,486.4 337.9,468.9 338.4,468.7 								"/>
								<polygon class="st35" points="353.6,495 353.2,495.3 322.8,477.7 323.2,477.4 								"/>
							</g>
							<g>
								
									<linearGradient id="SVGID_29_" gradientUnits="userSpaceOnUse" x1="4226.2656" y1="2896.5181" x2="4239.0581" y2="2896.5181" gradientTransform="matrix(-0.866 0.5 0 -1.1547 4016.2344 1731.0403)">
									<stop  offset="0" style="stop-color:#59BDEF"/>
									<stop  offset="1" style="stop-color:#7BDAFF"/>
								</linearGradient>
								<path class="st36" d="M345.2,506c0,3.5,2.5,5,5.5,3.2c3.1-1.8,5.5-6.1,5.5-9.6s-2.5-5-5.5-3.2
									C347.7,498.2,345.2,502.5,345.2,506z"/>
								<path class="st37" d="M347.3,504.8c0,2.2,1.5,3,3.4,2c1.9-1.1,3.4-3.7,3.4-5.9c0-2.2-1.5-3-3.4-2
									C348.9,500,347.3,502.6,347.3,504.8z"/>
								
									<linearGradient id="SVGID_30_" gradientUnits="userSpaceOnUse" x1="3408.2261" y1="338.3832" x2="3414.644" y2="338.3832" gradientTransform="matrix(-1 0 0 -1 3762.3752 841.27)">
									<stop  offset="0" style="stop-color:#7BDAFF"/>
									<stop  offset="1" style="stop-color:#59BDEF"/>
								</linearGradient>
								<path class="st38" d="M349.5,506c1.9-1.1,3.4-3.7,3.4-5.9c0-0.7-0.1-1.2-0.4-1.6c0.9,0.1,1.6,1,1.6,2.4
									c0,2.2-1.5,4.8-3.4,5.9c-1.3,0.8-2.5,0.6-3-0.4C348.3,506.5,348.9,506.3,349.5,506z"/>
							</g>
							<g>
								
									<linearGradient id="SVGID_31_" gradientUnits="userSpaceOnUse" x1="4104.1196" y1="2750.4644" x2="4206.1978" y2="2750.4644" gradientTransform="matrix(-0.866 0.5 0 -1.1547 3986.9675 1580.522)">
									<stop  offset="0" style="stop-color:#3A9BD5"/>
									<stop  offset="1" style="stop-color:#2573BA"/>
								</linearGradient>
								<path class="st39" d="M346.7,512.5c-1.5-0.9-2.3-2.8-2.3-5.2c0-4.5,2.6-9.5,6-11.4l75.6-43.8c1.6-0.9,3.2-1,4.5-0.3
									c1.5,0.9,2.3,2.8,2.3,5.2c0,4.5-2.6,9.5-6,11.4l-75.6,43.8l0,0c-0.9,0.5-1.8,0.8-2.6,0.8C347.8,513,347.2,512.8,346.7,512.5
									z M350.3,510.8l75.6-43.8c2.9-1.7,5.2-6.1,5.2-10c0-1.9-0.6-3.3-1.5-3.8c-1-0.6-2.1-0.1-2.9,0.3l-75.6,43.8
									c-2.9,1.7-5.2,6.1-5.2,10c0,1.9,0.6,3.3,1.5,3.8C348.4,511.7,349.6,511.3,350.3,510.8L350.3,510.8z"/>
							</g>
						</g>
					</g>
				</g>
				<polygon class="st40" points="400.3,462.7 374.5,447.7 400.3,432.8 				"/>
			</g>
		</g>
		<path class="st41" d="M356.9,486.6l-20.5-11.8c-1.1-0.6-1-1.7,0.3-2.5l19.9-11.5c1.3-0.7,3.2-0.8,4.3-0.2l20.5,11.8
			c1.1,0.6,1,1.7-0.3,2.5l-19.9,11.5C359.9,487.2,358,487.3,356.9,486.6z"/>
		<g>
			
				<linearGradient id="SVGID_32_" gradientUnits="userSpaceOnUse" x1="425.26" y1="384.6409" x2="474.9598" y2="384.6409" gradientTransform="matrix(0.9933 -0.1157 -0.1157 -0.9933 -45.544 895.2896)">
				<stop  offset="0.4032" style="stop-color:#FD5A05"/>
				<stop  offset="0.423" style="stop-color:#FA5505"/>
				<stop  offset="0.5505" style="stop-color:#EC3D03"/>
				<stop  offset="0.6846" style="stop-color:#E22C01"/>
				<stop  offset="0.8286" style="stop-color:#DC2100"/>
				<stop  offset="1" style="stop-color:#DA1E00"/>
			</linearGradient>
			<path class="st42" d="M379.1,436l-49.4,5.8l3.5,30.3l0,0c0,0.5,0.4,1,1.1,1.3l22.7,9.8c1.5,0.6,3.9,0.3,5.3-0.8l19.1-14.2
				c0.8-0.6,1.1-1.2,1.1-1.8l0,0L379.1,436z"/>
			
				<linearGradient id="SVGID_33_" gradientUnits="userSpaceOnUse" x1="428.158" y1="440.1473" x2="481.2158" y2="360.1333" gradientTransform="matrix(0.9933 -0.1157 -0.1157 -0.9933 -45.544 895.2896)">
				<stop  offset="0.4032" style="stop-color:#FC8B04"/>
				<stop  offset="0.5099" style="stop-color:#FC7904"/>
				<stop  offset="0.6558" style="stop-color:#FD6805"/>
				<stop  offset="0.813" style="stop-color:#FD5D05"/>
				<stop  offset="1" style="stop-color:#FD5A05"/>
			</linearGradient>
			<path class="st43" d="M353.6,452.9l-22.7-9.8c-1.5-0.6-1.5-2,0-3.1l19.1-14.3c1.5-1.1,3.9-1.5,5.3-0.8l22.7,9.8
				c1.5,0.6,1.5,2,0,3.1L358.9,452C357.4,453.1,355,453.5,353.6,452.9z"/>
			
				<linearGradient id="SVGID_34_" gradientUnits="userSpaceOnUse" x1="340.8933" y1="400.8114" x2="368.3368" y2="404.181" gradientTransform="matrix(1 0 0 -1 0 841.27)">
				<stop  offset="0" style="stop-color:#DA1E00"/>
				<stop  offset="0.2337" style="stop-color:#DB2000"/>
				<stop  offset="0.3329" style="stop-color:#DF2701"/>
				<stop  offset="0.4066" style="stop-color:#E73402"/>
				<stop  offset="0.4674" style="stop-color:#F14503"/>
				<stop  offset="0.5164" style="stop-color:#FD5A05"/>
			</linearGradient>
			<path class="st44" d="M354,446.7l-12.7-5.5c-0.8-0.4-0.8-1.1,0-1.8l10.7-8c0.8-0.6,2.2-0.8,3-0.5l12.7,5.5c0.8,0.4,0.8,1.1,0,1.8
				l-10.7,8C356.1,446.8,354.8,447,354,446.7z"/>
			<path class="st0" d="M377.9,436.9l-19.1,14.2c-1.5,1.1-3.9,1.5-5.3,0.8l-22.7-9.8c-0.5-0.2-0.8-0.5-0.9-0.8
				c-0.2,0.7,0.2,1.3,1,1.7l22.7,9.8c1.5,0.6,3.9,0.3,5.3-0.8l19.1-14.2c1-0.8,1.3-1.6,1-2.3C378.9,435.9,378.5,436.4,377.9,436.9z"
				/>
		</g>
		<g>
			<g>
				
					<linearGradient id="SVGID_35_" gradientUnits="userSpaceOnUse" x1="65.6968" y1="-121.9437" x2="115.4287" y2="-121.9437" gradientTransform="matrix(0.9031 0.4294 0.4294 -0.9031 318.1289 274.8304)">
					<stop  offset="0.4032" style="stop-color:#FD5A05"/>
					<stop  offset="0.423" style="stop-color:#FA5505"/>
					<stop  offset="0.5505" style="stop-color:#EC3D03"/>
					<stop  offset="0.6846" style="stop-color:#E22C01"/>
					<stop  offset="0.8286" style="stop-color:#DC2100"/>
					<stop  offset="1" style="stop-color:#DA1E00"/>
				</linearGradient>
				<path class="st45" d="M374.4,425.3L329.5,404l-2.6,5.4l0,0c-0.3,0.5-0.2,1.1,0.2,1.7l14,20.4c0.9,1.3,3.1,2.3,5,2.1l23.7-1.9
					c0.9-0.1,1.6-0.4,1.9-0.9l0,0L374.4,425.3z"/>
				
					<linearGradient id="SVGID_36_" gradientUnits="userSpaceOnUse" x1="68.6974" y1="-78.6263" x2="121.7537" y2="-158.638" gradientTransform="matrix(0.9031 0.4294 0.4294 -0.9031 318.1289 274.8304)">
					<stop  offset="0.4032" style="stop-color:#FC8B04"/>
					<stop  offset="0.5099" style="stop-color:#FC7904"/>
					<stop  offset="0.6558" style="stop-color:#FD6805"/>
					<stop  offset="0.813" style="stop-color:#FD5D05"/>
					<stop  offset="1" style="stop-color:#FD5A05"/>
				</linearGradient>
				<path class="st46" d="M343.8,426l-14-20.4c-0.9-1.3-0.2-2.5,1.7-2.7l23.7-1.9c1.8-0.1,4.1,0.8,5,2.1l14,20.4
					c0.9,1.3,0.2,2.5-1.7,2.7l-23.7,1.9C346.9,428.3,344.7,427.3,343.8,426z"/>
				<path class="st0" d="M372.9,425.4l-23.7,1.9c-1.8,0.1-4.1-0.8-5-2.1l-14-20.4c-0.3-0.4-0.4-0.8-0.4-1.2c-0.5,0.5-0.6,1.2,0,2
					l14,20.4c0.9,1.3,3.1,2.3,5,2.1l23.7-1.9c1.3-0.1,2-0.7,2.1-1.5C374.2,425.1,373.7,425.3,372.9,425.4z"/>
			</g>
			<path class="st47" d="M349.5,422.8l-8.2-11.9c-0.5-0.8-0.1-1.5,1-1.6l13.9-1.1c1.1-0.1,2.4,0.5,2.9,1.2l8.2,11.9
				c0.5,0.8,0.1,1.5-1,1.6l-13.9,1.1C351.4,424.1,350,423.5,349.5,422.8z"/>
			<g>
				
					<linearGradient id="SVGID_37_" gradientUnits="userSpaceOnUse" x1="76.0279" y1="-112.8832" x2="105.1091" y2="-112.8832" gradientTransform="matrix(0.9031 0.4294 0.4294 -0.9031 318.1289 274.8304)">
					<stop  offset="0.4032" style="stop-color:#FD5A05"/>
					<stop  offset="0.423" style="stop-color:#FA5505"/>
					<stop  offset="0.5505" style="stop-color:#EC3D03"/>
					<stop  offset="0.6846" style="stop-color:#E22C01"/>
					<stop  offset="0.8286" style="stop-color:#DC2100"/>
					<stop  offset="1" style="stop-color:#DA1E00"/>
				</linearGradient>
				<path class="st48" d="M367.1,416.5L340.8,404l-1.5,3.2l0,0c-0.2,0.3-0.1,0.6,0.1,1l8.2,11.9c0.5,0.8,1.8,1.3,2.9,1.2l13.9-1.1
					c0.6,0,0.9-0.3,1.1-0.5l0,0L367.1,416.5z"/>
				
					<linearGradient id="SVGID_38_" gradientUnits="userSpaceOnUse" x1="77.7419" y1="-87.5971" x2="108.7708" y2="-134.3903" gradientTransform="matrix(0.9031 0.4294 0.4294 -0.9031 318.1289 274.8304)">
					<stop  offset="0.4032" style="stop-color:#FC7D14"/>
					<stop  offset="0.4333" style="stop-color:#FC7912"/>
					<stop  offset="0.6021" style="stop-color:#FD680B"/>
					<stop  offset="0.7838" style="stop-color:#FD5D06"/>
					<stop  offset="1" style="stop-color:#FD5A05"/>
				</linearGradient>
				<path class="st49" d="M349.2,417l-8.2-11.9c-0.5-0.8-0.1-1.5,1-1.6l13.9-1.1c1.1-0.1,2.4,0.5,2.9,1.2l8.2,11.9
					c0.5,0.8,0.1,1.5-1,1.6l-13.9,1.1C351.1,418.3,349.8,417.7,349.2,417z"/>
			</g>
		</g>
	</g>
	<g>
		
			<linearGradient id="SVGID_39_" gradientUnits="userSpaceOnUse" x1="475.501" y1="336.8083" x2="567.6308" y2="336.8083" gradientTransform="matrix(0.9022 0.4314 0.4314 -0.9022 -301.9147 651.2966)">
			<stop  offset="0" style="stop-color:#3A9BD5"/>
			<stop  offset="0.1172" style="stop-color:#3490CE"/>
			<stop  offset="0.367" style="stop-color:#2C80C3"/>
			<stop  offset="0.6442" style="stop-color:#2776BC"/>
			<stop  offset="1" style="stop-color:#2573BA"/>
		</linearGradient>
		<path class="st50" d="M322.4,543.2l-60.1-28.7l-17.6,36.8l0,0c-0.4,0.6-0.3,1.4,0.3,2.3l18.7,27.3c1.2,1.8,4.2,3,6.7,2.9l31.8-2.5
			c1.3-0.1,2.2-0.6,2.5-1.2l0,0L322.4,543.2z"/>
		
			<linearGradient id="SVGID_40_" gradientUnits="userSpaceOnUse" x1="453.8918" y1="411.1573" x2="524.9744" y2="303.9608" gradientTransform="matrix(0.9022 0.4314 0.4314 -0.9022 -301.9147 651.2966)">
			<stop  offset="0" style="stop-color:#59BDEF"/>
			<stop  offset="1" style="stop-color:#7BDAFF"/>
		</linearGradient>
		<path class="st51" d="M281.3,544l-18.7-27.3c-1.2-1.8-0.2-3.4,2.3-3.5l31.8-2.5c2.5-0.2,5.5,1.1,6.7,2.9l18.7,27.3
			c1.2,1.8,0.2,3.4-2.3,3.5l-31.8,2.5C285.5,547.1,282.6,545.8,281.3,544z"/>
		<path class="st0" d="M320.4,543.3l-31.8,2.5c-2.5,0.2-5.5-1.1-6.7-2.9l-18.7-27.3c-0.4-0.6-0.5-1.1-0.5-1.6
			c-0.7,0.7-0.8,1.6,0,2.7l18.7,27.3c1.2,1.8,4.2,3,6.7,2.9l31.8-2.5c1.7-0.1,2.7-0.9,2.8-2C322.1,542.9,321.4,543.2,320.4,543.3z"
			/>
	</g>
	<rect x="232.2" y="508" class="st3" width="92.8" height="63.5"/>
	
		<linearGradient id="SVGID_41_" gradientUnits="userSpaceOnUse" x1="572.4531" y1="353.7628" x2="613.9203" y2="291.228" gradientTransform="matrix(0.9992 -7.549652e-002 -0.1112 -1.0898 -87.5363 899.2888)">
		<stop  offset="0" style="stop-color:#59BDEF"/>
		<stop  offset="1" style="stop-color:#7BDAFF"/>
	</linearGradient>
	<path class="st52" d="M464.4,509.4l-17.8-9.3c-1.2-0.6-1.1-1.8,0-2.7l15.1-11.4c1.1-0.8,3-1.1,4.2-0.5l17.8,9.3
		c1.2,0.6,1.1,1.8,0,2.7l-15.1,11.4C467.3,509.7,465.4,509.9,464.4,509.4z"/>
	<g>
		
			<linearGradient id="SVGID_42_" gradientUnits="userSpaceOnUse" x1="533.6377" y1="343.0432" x2="572.4985" y2="343.0432" gradientTransform="matrix(0.9933 -0.1157 -0.1157 -0.9933 -45.544 895.2896)">
			<stop  offset="0.4032" style="stop-color:#FD5A05"/>
			<stop  offset="0.423" style="stop-color:#FA5505"/>
			<stop  offset="0.5505" style="stop-color:#EC3D03"/>
			<stop  offset="0.6846" style="stop-color:#E22C01"/>
			<stop  offset="0.8286" style="stop-color:#DC2100"/>
			<stop  offset="1" style="stop-color:#DA1E00"/>
		</linearGradient>
		<path class="st53" d="M481.4,470.9l-38.6,4.5l2.8,23.7l0,0c0,0.4,0.3,0.8,0.8,1l17.7,7.7c1.1,0.5,3,0.2,4.2-0.7l14.9-11.1
			c0.6-0.4,0.9-1,0.9-1.4l0,0L481.4,470.9z"/>
		
			<linearGradient id="SVGID_43_" gradientUnits="userSpaceOnUse" x1="535.9787" y1="386.4055" x2="577.446" y2="323.8705" gradientTransform="matrix(0.9933 -0.1157 -0.1157 -0.9933 -45.544 895.2896)">
			<stop  offset="0.4032" style="stop-color:#FC8B04"/>
			<stop  offset="0.5099" style="stop-color:#FC7904"/>
			<stop  offset="0.6558" style="stop-color:#FD6805"/>
			<stop  offset="0.813" style="stop-color:#FD5D05"/>
			<stop  offset="1" style="stop-color:#FD5A05"/>
		</linearGradient>
		<path class="st54" d="M461.4,484.1l-17.7-7.7c-1.1-0.5-1.1-1.6,0-2.5l14.9-11.1c1.2-0.9,3-1.2,4.2-0.7l17.7,7.7
			c1.1,0.5,1.1,1.6,0,2.5l-14.9,11.1C464.4,484.3,462.6,484.6,461.4,484.1z"/>
		<path class="st0" d="M480.5,471.6l-15,11.1c-1.2,0.9-3,1.2-4.2,0.7l-17.7-7.7c-0.4-0.2-0.6-0.4-0.7-0.6c-0.1,0.5,0.1,1.1,0.8,1.3
			l17.7,7.7c1.1,0.5,3,0.2,4.2-0.7l14.9-11.1c0.8-0.6,1-1.3,0.7-1.8C481.2,470.9,480.9,471.3,480.5,471.6z"/>
	</g>
	<g class="st14">
		
			<linearGradient id="SVGID_44_" gradientUnits="userSpaceOnUse" x1="437.1312" y1="484.0945" x2="460.8836" y2="484.0945" gradientTransform="matrix(0.7842 0.6205 0.6205 -0.7842 -362.3502 505.6115)">
			<stop  offset="0" style="stop-color:#3A9BD5"/>
			<stop  offset="0.1172" style="stop-color:#3490CE"/>
			<stop  offset="0.367" style="stop-color:#2C80C3"/>
			<stop  offset="0.6442" style="stop-color:#2776BC"/>
			<stop  offset="1" style="stop-color:#2573BA"/>
		</linearGradient>
		<path class="st55" d="M306.1,403.6l-18.6-14.7l-9,11.4l0,0c-0.2,0.2-0.2,0.5-0.1,0.8l4.4,11c0.3,0.7,1.2,1.4,2.1,1.5l11.3,1.7
			c0.5,0.1,0.8,0,1-0.2l0,0L306.1,403.6z"/>
		
			<linearGradient id="SVGID_45_" gradientUnits="userSpaceOnUse" x1="438.5159" y1="510.5654" x2="463.8743" y2="472.3235" gradientTransform="matrix(0.7842 0.6205 0.6205 -0.7842 -362.3502 505.6115)">
			<stop  offset="0" style="stop-color:#59BDEF"/>
			<stop  offset="1" style="stop-color:#7BDAFF"/>
		</linearGradient>
		<path class="st56" d="M291.7,400.7l-4.4-11c-0.3-0.7,0.2-1.2,1.1-1.1l11.3,1.7c0.9,0.1,1.8,0.8,2.1,1.5l4.4,11
			c0.3,0.7-0.2,1.2-1.1,1.1l-11.3-1.7C293,402.1,292,401.4,291.7,400.7z"/>
		<path class="st0" d="M305.4,403.5l-11.3-1.7c-0.9-0.1-1.8-0.8-2.1-1.5l-4.4-11c-0.1-0.2-0.1-0.4,0-0.6c-0.3,0.2-0.4,0.5-0.2,0.9
			l4.4,11c0.3,0.7,1.2,1.4,2.1,1.5l11.3,1.7c0.6,0.1,1-0.1,1.1-0.5C306,403.5,305.7,403.5,305.4,403.5z"/>
	</g>
</g>
<path class="st57" d="M37,198.6l-2.2,1.9c-0.8-1.1-1.5-1.6-2.3-1.6c-0.4,0-0.7,0.1-0.9,0.3c-0.2,0.2-0.4,0.4-0.4,0.7
	c0,0.3,0.1,0.5,0.3,0.7c0.2,0.3,1,1,2.2,2c1.1,0.9,1.8,1.5,2,1.8c0.6,0.6,1,1.2,1.3,1.7c0.2,0.6,0.4,1.1,0.4,1.8
	c0,1.3-0.4,2.3-1.3,3.1c-0.9,0.8-2,1.2-3.4,1.2c-1.1,0-2.1-0.3-2.9-0.8c-0.8-0.5-1.5-1.4-2.1-2.5l2.5-1.5c0.7,1.4,1.6,2,2.6,2
	c0.5,0,0.9-0.1,1.3-0.4c0.3-0.3,0.5-0.6,0.5-1c0-0.3-0.1-0.7-0.4-1.1c-0.3-0.3-0.8-0.9-1.7-1.6c-1.7-1.4-2.8-2.4-3.3-3.2
	c-0.5-0.7-0.7-1.5-0.7-2.2c0-1.1,0.4-2,1.2-2.8c0.8-0.8,1.8-1.1,3-1.1c0.8,0,1.5,0.2,2.2,0.5C35.4,197,36.2,197.7,37,198.6z
	 M5.2,196.5H8l6.6,10.2v-10.2h2.9v15.4h-2.8l-6.6-10.1v10.1H5.2V196.5z M-13.5,199c-1.4,0-2.6,0.5-3.6,1.5c-1,1-1.5,2.3-1.5,3.8
	c0,1.7,0.6,3.1,1.8,4c1,0.8,2,1.2,3.3,1.2c1.4,0,2.6-0.5,3.5-1.5c1-1,1.5-2.2,1.5-3.7c0-1.5-0.5-2.7-1.5-3.7
	C-10.9,199.5-12.1,199-13.5,199z M-13.4,196.1c2.2,0,4.1,0.8,5.6,2.4c1.6,1.6,2.4,3.5,2.4,5.8c0,2.3-0.8,4.2-2.3,5.7
	c-1.5,1.6-3.4,2.3-5.6,2.3c-2.3,0-4.2-0.8-5.8-2.4c-1.5-1.6-2.3-3.5-2.3-5.7c0-1.5,0.4-2.8,1.1-4.1c0.7-1.2,1.7-2.2,2.9-2.9
	C-16.2,196.5-14.9,196.1-13.4,196.1z M-34.7,196.5h2.9v15.4h-2.9V196.5z M-52.9,196.5h8.5v2.9h-2.8v12.5h-3v-12.5h-2.7V196.5z
	 M-73.1,196.5h2.9v10c0,0.9,0.1,1.5,0.2,1.8c0.2,0.4,0.4,0.6,0.7,0.9c0.3,0.2,0.8,0.3,1.3,0.3c0.5,0,1-0.1,1.3-0.4
	c0.4-0.2,0.6-0.5,0.8-0.9c0.1-0.4,0.2-1.1,0.2-2.1v-9.6h2.9v9.2c0,1.6-0.1,2.6-0.3,3.2c-0.2,0.6-0.5,1.2-1,1.7
	c-0.5,0.6-1.1,1-1.7,1.2c-0.6,0.3-1.4,0.4-2.2,0.4c-1.1,0-2.1-0.3-2.9-0.8c-0.8-0.5-1.4-1.2-1.8-1.9c-0.4-0.8-0.5-2.1-0.5-3.9V196.5
	z M-90.3,196.5h2.9v12.6h4.3v2.8h-7.2V196.5z M-108.9,199c-1.4,0-2.6,0.5-3.6,1.5c-1,1-1.5,2.3-1.5,3.8c0,1.7,0.6,3.1,1.8,4
	c0.9,0.8,2,1.2,3.3,1.2c1.4,0,2.6-0.5,3.5-1.5c1-1,1.5-2.2,1.5-3.7c0-1.5-0.5-2.7-1.5-3.7C-106.3,199.5-107.5,199-108.9,199z
	 M-108.8,196.1c2.2,0,4.1,0.8,5.6,2.4c1.6,1.6,2.4,3.5,2.4,5.8c0,2.3-0.8,4.2-2.3,5.7c-1.5,1.6-3.4,2.3-5.6,2.3
	c-2.3,0-4.2-0.8-5.8-2.4c-1.5-1.6-2.3-3.5-2.3-5.7c0-1.5,0.4-2.8,1.1-4.1c0.7-1.2,1.7-2.2,2.9-2.9
	C-111.6,196.5-110.3,196.1-108.8,196.1z M-127,198.6l-2.2,1.9c-0.8-1.1-1.5-1.6-2.3-1.6c-0.4,0-0.7,0.1-0.9,0.3
	c-0.2,0.2-0.4,0.4-0.4,0.7c0,0.3,0.1,0.5,0.3,0.7c0.2,0.3,1,1,2.2,2c1.1,0.9,1.8,1.5,2,1.8c0.6,0.6,1,1.2,1.3,1.7
	c0.2,0.6,0.4,1.1,0.4,1.8c0,1.3-0.4,2.3-1.3,3.1c-0.9,0.8-2,1.2-3.4,1.2c-1.1,0-2.1-0.3-2.9-0.8c-0.8-0.5-1.5-1.4-2.1-2.5l2.5-1.5
	c0.7,1.4,1.6,2,2.6,2c0.5,0,0.9-0.1,1.3-0.4c0.3-0.3,0.5-0.6,0.5-1c0-0.3-0.1-0.7-0.4-1.1c-0.3-0.3-0.8-0.9-1.7-1.6
	c-1.7-1.4-2.8-2.4-3.3-3.2c-0.5-0.7-0.7-1.5-0.7-2.2c0-1.1,0.4-2,1.2-2.8c0.8-0.8,1.8-1.1,3-1.1c0.8,0,1.5,0.2,2.2,0.5
	C-128.6,197-127.8,197.7-127,198.6z"/>
<path class="st58" d="M158.8,132.9h10.5v58h-10.5V132.9z M127.8,157.7c-3.3,0-6,1.1-8.1,3.4c-2.2,2.3-3.2,5.2-3.2,8.8
	c0,3.6,1.1,6.6,3.3,8.9c2.2,2.3,4.9,3.5,8.1,3.5c3.3,0,6-1.1,8.2-3.4c2.2-2.3,3.3-5.3,3.3-9c0-3.6-1.1-6.6-3.3-8.8
	C133.9,158.8,131.1,157.7,127.8,157.7z M138.8,149.1h10.5v41.9h-10.5v-4.5c-2,1.9-4.1,3.3-6.2,4.2c-2.1,0.9-4.3,1.3-6.7,1.3
	c-5.4,0-10.1-2.1-14.1-6.3c-4-4.2-5.9-9.4-5.9-15.6c0-6.4,1.9-11.7,5.7-15.9c3.8-4.1,8.5-6.2,13.9-6.2c2.5,0,4.9,0.5,7.1,1.4
	c2.2,0.9,4.2,2.4,6.1,4.2V149.1z M87.8,149.1h10.5v41.9H87.8V149.1z M93.1,131.9c1.8,0,3.4,0.7,4.7,2c1.3,1.3,2,2.9,2,4.8
	c0,1.9-0.7,3.5-2,4.8c-1.3,1.3-2.9,2-4.7,2c-1.9,0-3.5-0.7-4.8-2c-1.3-1.3-2-3-2-4.9c0-1.8,0.7-3.4,2-4.7
	C89.7,132.5,91.3,131.9,93.1,131.9z M16.3,164.8c-0.7-2.3-2.1-4.2-4.1-5.6c-2-1.4-4.4-2.1-7.1-2.1c-2.9,0-5.5,0.8-7.7,2.4
	c-1.4,1-2.7,2.8-3.9,5.3H16.3z M26.8,173H-6.9c0.5,3,1.8,5.4,3.9,7.1c2.1,1.8,4.8,2.6,8.1,2.6c3.9,0,7.3-1.4,10.1-4.1l8.8,4.2
	c-2.2,3.1-4.8,5.4-7.9,7c-3.1,1.5-6.7,2.2-10.9,2.2c-6.5,0-11.9-2.1-16-6.2c-4.1-4.1-6.2-9.3-6.2-15.5c0-6.4,2.1-11.7,6.2-15.9
	c4.1-4.2,9.3-6.3,15.5-6.3c6.6,0,11.9,2.1,16.1,6.3c4.1,4.2,6.2,9.7,6.2,16.6L26.8,173z M-47.2,157.7c-3.3,0-6,1.1-8.1,3.4
	c-2.2,2.3-3.2,5.2-3.2,8.8c0,3.6,1.1,6.6,3.3,8.9c2.2,2.3,4.9,3.5,8.1,3.5c3.3,0,6-1.1,8.2-3.4c2.2-2.3,3.3-5.3,3.3-9
	c0-3.6-1.1-6.6-3.3-8.8C-41.1,158.8-43.9,157.7-47.2,157.7z M-36.2,132.9h10.5v58h-10.5v-4.5c-2.1,1.9-4.1,3.3-6.2,4.2
	c-2.1,0.9-4.3,1.3-6.7,1.3c-5.4,0-10.1-2.1-14.1-6.3c-4-4.2-5.9-9.4-5.9-15.6c0-6.4,1.9-11.7,5.7-15.9c3.8-4.1,8.5-6.2,13.9-6.2
	c2.5,0,4.9,0.5,7.1,1.4c2.2,0.9,4.2,2.4,6.1,4.2V132.9z M-114.5,149.1h10.5v4.3c2.4-2,4.5-3.4,6.5-4.2c1.9-0.8,3.9-1.2,5.9-1.2
	c4.2,0,7.7,1.4,10.6,4.3c2.4,2.5,3.7,6.1,3.7,10.9v27.6h-10.4v-18.3c0-5-0.2-8.3-0.7-9.9c-0.4-1.6-1.2-2.9-2.3-3.7
	c-1.1-0.9-2.5-1.3-4.1-1.3c-2.1,0-4,0.7-5.5,2.1c-1.5,1.4-2.6,3.4-3.2,5.9c-0.3,1.3-0.5,4.1-0.5,8.5v16.8h-10.5V149.1z
	 M-134.5,149.1h10.5v41.9h-10.5V149.1z M-129.2,131.9c1.8,0,3.4,0.7,4.7,2c1.3,1.3,2,2.9,2,4.8c0,1.9-0.7,3.5-2,4.8
	c-1.3,1.3-2.9,2-4.7,2c-1.9,0-3.5-0.7-4.8-2c-1.3-1.3-2-3-2-4.9c0-1.8,0.7-3.4,2-4.7C-132.6,132.5-131.1,131.9-129.2,131.9z"/>
<path class="st57" d="M42.7,132.2c7.9-5.1,18.1-5.2,26-0.2l-13.1,20.1L42.7,132.2z"/>
<path class="st57" d="M37.1,180.2c-4.3-7.8-7-15.3-6.7-22.1c0-7.6,1.9-13.8,4.9-18.5l14.2,21.8L37.1,180.2z"/>
<path class="st57" d="M68.3,190.2c-3.9,5.7-8.3,11.4-12.5,16.7c-4.3-5.5-8.8-11.3-12.8-17.1l12.5-19L68.3,190.2z"/>
<path class="st57" d="M81.3,158.1c0.3,6.9-2.6,14.6-7,22.5l-12.6-19.2l14.5-22.1C79.3,144,81.3,150.3,81.3,158.1z"/>
<g>
	<path class="st59" d="M399.3,406.4l0.8,0.5l0.1,4.8l-0.8-0.5L399.3,406.4z M396.8,406.9c-0.3-0.2-0.5-0.2-0.7-0.1
		c-0.2,0.1-0.3,0.3-0.3,0.6c0,0.3,0.1,0.6,0.3,1c0.2,0.3,0.4,0.6,0.7,0.7c0.3,0.2,0.5,0.2,0.7,0.1c0.2-0.1,0.3-0.3,0.3-0.6
		c0-0.3-0.1-0.6-0.3-0.9C397.3,407.3,397.1,407.1,396.8,406.9z M397.7,406.7l0.9,0.5l0.1,3.5l-0.9-0.5l0-0.4
		c-0.2,0.1-0.3,0.1-0.5,0.1c-0.2,0-0.4-0.1-0.6-0.2c-0.5-0.3-0.9-0.7-1.3-1.2c-0.4-0.6-0.6-1.1-0.6-1.7c0-0.6,0.1-0.9,0.5-1.1
		c0.3-0.2,0.7-0.1,1.2,0.2c0.2,0.1,0.4,0.3,0.6,0.5c0.2,0.2,0.4,0.4,0.5,0.7L397.7,406.7z M393.2,404l1,0.6l0.1,3.8l-1-0.6
		L393.2,404z M393.6,402.7c0.2,0.1,0.3,0.3,0.4,0.5c0.1,0.2,0.2,0.4,0.2,0.5c0,0.2-0.1,0.3-0.2,0.3c-0.1,0-0.3,0-0.4-0.1
		c-0.2-0.1-0.3-0.3-0.5-0.5c-0.1-0.2-0.2-0.4-0.2-0.6c0-0.2,0.1-0.3,0.2-0.3C393.3,402.6,393.5,402.6,393.6,402.7z M385.7,400.9
		c-0.1-0.3-0.2-0.6-0.5-0.8c-0.2-0.3-0.5-0.5-0.9-0.7c-0.4-0.2-0.7-0.3-0.9-0.3c-0.2,0-0.3,0.1-0.5,0.3L385.7,400.9z M386.9,402.4
		l-4-2.3c0.1,0.3,0.2,0.7,0.5,1c0.3,0.3,0.6,0.6,1,0.8c0.5,0.3,0.9,0.4,1.2,0.3l1,1c-0.2,0.2-0.5,0.2-0.9,0.2
		c-0.4-0.1-0.8-0.2-1.3-0.5c-0.8-0.4-1.5-1-2-1.7c-0.5-0.7-0.8-1.4-0.8-2.1c0-0.7,0.2-1.1,0.8-1.2c0.5-0.1,1.1,0,1.9,0.5
		c0.8,0.5,1.4,1.1,1.9,1.8c0.5,0.7,0.7,1.4,0.7,2.1L386.9,402.4z M377.5,395.3c-0.5-0.3-0.9-0.4-1.2-0.3c-0.3,0.1-0.5,0.3-0.5,0.7
		c0,0.4,0.2,0.8,0.5,1.3c0.3,0.4,0.7,0.8,1.2,1.1c0.5,0.3,0.8,0.4,1.1,0.3c0.3-0.1,0.4-0.3,0.4-0.7c0-0.4-0.2-0.8-0.5-1.2
		C378.3,396,377.9,395.6,377.5,395.3z M379,393.6l1.4,0.9l0.1,6.2l-1.4-0.8l0-0.5c-0.3,0.1-0.6,0-0.8,0c-0.3-0.1-0.6-0.2-0.9-0.4
		c-0.8-0.4-1.5-1.1-2.1-1.9c-0.6-0.8-0.9-1.6-0.9-2.3c0-0.7,0.3-1.2,0.8-1.3c0.6-0.1,1.2,0.1,2,0.5c0.4,0.2,0.7,0.5,1,0.8
		c0.3,0.3,0.6,0.6,0.8,1L379,393.6z M366.8,387.9l1.8,1.1l0,0.5c0.4,0,0.8,0.1,1.1,0.2c0.3,0.1,0.6,0.3,1,0.5
		c0.7,0.4,1.2,0.9,1.7,1.5c0.4,0.5,0.6,1.1,0.6,1.6l0,3.2l-1.7-0.9l0-2.2c0-0.6,0-1-0.1-1.2c-0.1-0.2-0.2-0.5-0.4-0.7
		c-0.2-0.2-0.4-0.4-0.7-0.6c-0.4-0.2-0.7-0.3-0.9-0.3c-0.3,0-0.4,0.1-0.5,0.4c-0.1,0.1-0.1,0.5-0.1,1l0,2l-1.8-1L366.8,387.9z
		 M363.1,385.6l2,1.2l0,5.2l-2-1.1L363.1,385.6z M364.1,384.1c0.3,0.2,0.6,0.5,0.9,0.8c0.2,0.3,0.4,0.6,0.4,0.8
		c0,0.2-0.1,0.4-0.4,0.4c-0.2,0-0.5-0.1-0.9-0.3c-0.4-0.2-0.7-0.5-0.9-0.8c-0.3-0.3-0.4-0.6-0.4-0.9c0-0.2,0.1-0.4,0.4-0.4
		C363.5,383.8,363.8,383.9,364.1,384.1z"/>
	<path class="st59" d="M388.5,399.5c0.8,0,1.9,0.7,2.7,1.7l-1.3,1.1L388.5,399.5z"/>
	<path class="st59" d="M388,403.8c-0.5-1-0.8-2-0.8-2.6c0-0.7,0.2-1.2,0.5-1.5l1.6,3L388,403.8z"/>
	<path class="st59" d="M391.3,406.6c-0.4,0.3-0.8,0.6-1.2,0.9c-0.5-0.8-1-1.6-1.4-2.4l1.3-1.1L391.3,406.6z"/>
	<path class="st59" d="M392.6,404.4c0,0.6-0.2,1.2-0.6,1.7l-1.3-2.5l1.4-1.2C392.3,403,392.5,403.7,392.6,404.4z"/>
</g>
<path class="st60" d="M83.6,234.9c0.2,0,0.4-0.1,0.5-0.5c0.1-0.3,0.3-0.7,0.4-1.2c0-0.1,0.1-0.3,0.1-0.5c0.1-0.2,0.1-0.5,0.2-0.8
	c0.1-0.3,0.2-0.6,0.2-1c0.1-0.3,0.2-0.7,0.3-1c-0.1,0.1-0.2,0.1-0.3,0.2c-0.1,0.1-0.2,0.2-0.3,0.3c-0.2,0.2-0.4,0.4-0.7,0.6
	c-0.2,0.2-0.4,0.4-0.6,0.6c-0.2,0.2-0.3,0.5-0.4,0.7c-0.1,0.3-0.1,0.6-0.1,0.9c0,0.3,0,0.6,0,0.8c0,0.2,0.1,0.4,0.1,0.5
	c0,0.1,0.1,0.2,0.2,0.3C83.5,234.9,83.5,234.9,83.6,234.9z M84.3,227.7c0.2,0,0.4-0.1,0.6-0.2c0.2-0.1,0.4-0.2,0.5-0.4
	c0.2-0.2,0.3-0.3,0.4-0.5c0.1-0.2,0.2-0.3,0.2-0.4c0-0.1,0.1-0.2,0.1-0.4c0.1-0.2,0.1-0.3,0.1-0.4c0-0.1,0-0.3,0-0.4
	c0-0.1,0-0.2-0.1-0.2c-0.1,0-0.1-0.1-0.1-0.1c0-0.1-0.1-0.2-0.1-0.2c0-0.1,0-0.2,0-0.3c0-0.1,0-0.2,0-0.2c-0.1-0.4-0.1-0.6-0.3-0.8
	c-0.1-0.2-0.3-0.3-0.4-0.3c-0.3,0-0.5,0.1-0.7,0.3c-0.2,0.2-0.4,0.5-0.6,0.8c-0.2,0.3-0.3,0.7-0.4,1.1c-0.1,0.4-0.2,0.8-0.2,1.1
	c0,0.4,0.1,0.8,0.2,1C83.7,227.6,83.9,227.7,84.3,227.7z M86.3,230.8c-0.1,0.3-0.1,0.6-0.2,0.9c-0.1,0.4-0.2,0.8-0.3,1.2
	c-0.1,0.4-0.2,0.8-0.3,1.2c-0.1,0.4-0.3,0.8-0.4,1.1c-0.2,0.3-0.3,0.6-0.5,0.8c-0.2,0.2-0.4,0.3-0.6,0.3c-0.3,0-0.6-0.1-0.9-0.3
	c-0.2-0.2-0.4-0.5-0.6-0.8c-0.2-0.3-0.3-0.6-0.4-1c-0.1-0.3-0.1-0.7-0.1-1c0-0.4,0-0.8,0.1-1c0.1-0.3,0.2-0.5,0.4-0.8
	c0.2-0.2,0.4-0.5,0.7-0.8c0.3-0.3,0.7-0.6,1.2-1c0.2-0.2,0.5-0.4,0.7-0.6c0.2-0.2,0.4-0.4,0.6-0.5c0.1-0.2,0.1-0.4,0.1-0.6
	c0-0.2,0.1-0.3,0.1-0.5c-0.3,0.4-0.6,0.7-1,0.9c-0.4,0.2-0.8,0.4-1.3,0.4c-0.4,0-0.8-0.2-1.1-0.6c-0.3-0.4-0.4-1-0.4-1.8
	c0-0.4,0.1-0.8,0.2-1.3c0.1-0.5,0.3-1,0.6-1.4c0.3-0.4,0.6-0.8,1-1.1c0.4-0.3,0.8-0.4,1.3-0.4c0.2,0,0.4,0.1,0.6,0.2
	c0.2,0.1,0.3,0.3,0.4,0.4c0.1,0.2,0.2,0.3,0.3,0.5c0.1,0.2,0.1,0.4,0.1,0.5c0-0.1,0-0.1,0-0.2c0-0.1,0-0.1,0-0.2
	c0.1-0.4,0.2-0.6,0.3-0.7s0.3-0.2,0.6-0.2c0.1,0,0.3,0,0.4,0.1c0.1,0.1,0.1,0.1,0.1,0.1c-0.1,0.1-0.1,0.2-0.1,0.3
	c0,0.1-0.1,0.1-0.1,0.2c0,0.1-0.1,0.2-0.1,0.3c0,0.1-0.1,0.3-0.1,0.4c0,0.1-0.1,0.2-0.1,0.5c-0.1,0.3-0.1,0.6-0.2,0.9
	c-0.1,0.4-0.2,0.8-0.3,1.2c-0.1,0.4-0.2,0.9-0.3,1.3c0.3-0.2,0.6-0.4,0.9-0.6c0.3-0.2,0.6-0.5,0.9-0.7c0.3-0.2,0.5-0.5,0.7-0.7
	c0.2-0.2,0.4-0.4,0.5-0.5c0.1-0.1,0.2-0.2,0.3-0.3c0.1-0.1,0.2-0.1,0.3-0.1c0.1,0,0.1,0.1,0.1,0.1c0,0.1,0,0.2-0.1,0.3
	c-0.2,0.4-0.5,0.7-0.9,1.1c-0.3,0.4-0.7,0.7-1,1c-0.4,0.3-0.7,0.6-1,0.8c-0.3,0.2-0.6,0.4-0.9,0.6c-0.1,0.5-0.2,0.8-0.3,1.1
	C86.4,230.3,86.3,230.5,86.3,230.8z M79.5,228.9c-0.2,0-0.4,0-0.6-0.1c-0.2-0.1-0.3-0.2-0.4-0.3c-0.1-0.1-0.2-0.3-0.2-0.5
	c0-0.2,0-0.4,0-0.6c0-0.1,0.1-0.3,0.2-0.6c0.1-0.2,0.1-0.5,0.2-0.8c0.1-0.3,0.1-0.6,0.2-0.8c0.1-0.3,0.1-0.5,0.1-0.8
	c0-0.2,0-0.4,0-0.6c0-0.1-0.1-0.2-0.3-0.2c-0.2,0-0.3,0.1-0.5,0.2c-0.2,0.1-0.4,0.3-0.5,0.4c-0.2,0.2-0.4,0.4-0.5,0.6
	c-0.2,0.2-0.4,0.5-0.5,0.8c-0.1,0.3-0.2,0.7-0.2,0.9c-0.1,0.3-0.1,0.5-0.2,0.7c0,0.2-0.1,0.4-0.1,0.6c0,0.2-0.1,0.3-0.1,0.5
	c0,0.1-0.1,0.2-0.3,0.3c-0.2,0.1-0.3,0.2-0.5,0.2c-0.2,0.1-0.3,0.1-0.5,0.1c-0.1,0-0.2,0-0.2-0.1c0-0.1,0-0.2,0.1-0.4
	c0.1-0.2,0.1-0.5,0.2-0.8c0.1-0.3,0.2-0.6,0.2-0.9c0.1-0.3,0.2-0.6,0.2-0.9c0.1-0.2,0.1-0.5,0.2-0.8c0.1-0.3,0.1-0.5,0.2-0.9
	c0.1-0.3,0.2-0.7,0.3-1.1c0.1-0.1,0.1-0.1,0.2-0.1c0.1,0,0.2-0.1,0.2-0.1c0.1,0,0.2-0.1,0.3-0.1c0.1,0,0.2,0,0.2,0
	c0.1,0,0.1,0,0.2,0.1c0.1,0,0.1,0.1,0.2,0.1c0,0.1-0.1,0.2-0.1,0.3c0,0.1-0.1,0.3-0.1,0.4c0,0.2-0.1,0.3-0.2,0.5
	c0.1-0.2,0.3-0.4,0.5-0.6c0.2-0.2,0.4-0.4,0.6-0.5c0.2-0.2,0.4-0.3,0.6-0.4c0.2-0.1,0.5-0.1,0.7-0.1c0.2,0,0.4,0.1,0.5,0.2
	c0.2,0.1,0.3,0.3,0.4,0.5c0.1,0.2,0.1,0.4,0.2,0.7c0,0.3,0,0.6-0.1,0.9l-0.2,0.7c0,0.2-0.1,0.5-0.2,0.8c-0.1,0.3-0.2,0.6-0.3,1
	c-0.1,0.2-0.1,0.4-0.1,0.6c0,0.2,0.1,0.2,0.3,0.2c0.2,0,0.4-0.1,0.7-0.3c0.3-0.2,0.6-0.5,0.9-0.8c0.3-0.3,0.6-0.6,0.8-1
	c0.3-0.3,0.5-0.6,0.6-0.8c0.1-0.1,0.2-0.2,0.3-0.3c0.1,0,0.1,0,0.2,0c0,0,0.1,0.1,0.1,0.2c0,0.1,0,0.2-0.1,0.4
	c-0.1,0.1-0.2,0.3-0.3,0.6c-0.1,0.2-0.3,0.5-0.5,0.8c-0.2,0.3-0.4,0.5-0.7,0.8c-0.2,0.3-0.5,0.5-0.7,0.7c-0.3,0.2-0.5,0.4-0.8,0.5
	C80,228.9,79.7,228.9,79.5,228.9z M71.8,222.8c0.1-0.1,0.1-0.1,0.3-0.2c0.1,0,0.3-0.1,0.4-0.1c0.2,0,0.3,0,0.4,0c0.1,0,0.2,0,0.2,0
	c0,0,0,0.1-0.1,0.3c-0.1,0.2-0.1,0.4-0.2,0.7c-0.1,0.3-0.2,0.6-0.3,0.9c-0.1,0.3-0.2,0.5-0.2,0.7c0,0.2-0.1,0.4-0.2,0.6
	c-0.1,0.2-0.1,0.5-0.2,0.7c-0.1,0.2-0.1,0.4-0.1,0.6c0,0.2,0,0.3,0,0.4c0.1,0.1,0.1,0.2,0.2,0.3c0.1,0,0.1,0.1,0.2,0.1
	c0.2,0,0.5-0.1,0.8-0.3c0.3-0.2,0.6-0.5,1-0.8c0.3-0.3,0.6-0.6,0.9-1c0.3-0.3,0.5-0.6,0.6-0.8c0.1-0.1,0.2-0.2,0.3-0.2
	c0.1,0,0.2,0,0.2,0c0.1,0,0.1,0.1,0.1,0.2c0,0.1,0,0.2-0.1,0.3c-0.2,0.3-0.4,0.6-0.7,1c-0.3,0.4-0.7,0.8-1,1.1
	c-0.4,0.4-0.7,0.7-1.1,0.9c-0.3,0.3-0.6,0.4-0.8,0.4c-0.2,0-0.3,0-0.5-0.1c-0.2-0.1-0.3-0.2-0.5-0.3c-0.1-0.1-0.3-0.3-0.3-0.4
	c-0.1-0.2-0.1-0.3-0.2-0.5c0-0.3,0-0.6,0-1.1c0-0.4,0.1-0.9,0.2-1.4c0.1-0.5,0.2-0.9,0.3-1.3C71.5,223.3,71.7,223,71.8,222.8z
	 M74,219.5c0,0.1-0.1,0.2-0.2,0.3c-0.1,0.1-0.2,0.2-0.3,0.3c-0.1,0.1-0.2,0.1-0.3,0.1c-0.1,0-0.2,0-0.3-0.1
	c-0.2-0.2-0.3-0.3-0.3-0.5c0-0.2,0-0.4,0.1-0.5c0.1-0.2,0.2-0.3,0.4-0.4c0.2-0.1,0.3-0.2,0.4-0.2c0.1,0,0.2,0,0.3,0.1
	c0.1,0.1,0.1,0.2,0.2,0.3c0,0.1,0.1,0.2,0.1,0.4C74,219.3,74,219.4,74,219.5z M71,226.5c-0.4,0.5-0.8,1-1.2,1.3
	c-0.3,0.3-0.6,0.6-0.9,0.7c-0.3,0.2-0.5,0.3-0.7,0.3c-0.2,0-0.4,0.1-0.5,0.1c-0.2,0-0.4,0-0.5-0.1c-0.1-0.1-0.3-0.2-0.3-0.3
	c-0.1-0.1-0.2-0.3-0.2-0.4c-0.1-0.1-0.1-0.3-0.1-0.4c0-0.1-0.1-0.2-0.1-0.4c0-0.1-0.1-0.3-0.1-0.5c-0.2,0.2-0.4,0.4-0.6,0.7
	c-0.2,0.2-0.4,0.4-0.7,0.7c-0.2,0.3-0.5,0.5-0.8,0.8c-0.1,0-0.2,0-0.2,0c-0.1,0-0.1,0-0.2-0.1c-0.1,0-0.1-0.1-0.2-0.1
	c0,0-0.1-0.1-0.1-0.1c0,0,0-0.1-0.1-0.1c0,0,0-0.1,0-0.1c0.3-0.3,0.6-0.7,0.9-1c0.3-0.3,0.6-0.6,0.8-0.9c0.3-0.3,0.5-0.6,0.8-0.9
	c-0.1-0.4-0.3-0.8-0.4-1.1c-0.1-0.3-0.2-0.6-0.2-0.7c-0.1-0.3-0.2-0.5-0.3-0.7c-0.1-0.2-0.2-0.3-0.4-0.4c0.1-0.1,0.2-0.2,0.4-0.3
	c0.1-0.1,0.2-0.1,0.3-0.1c0.1,0,0.2-0.1,0.3-0.1c0.2,0,0.4,0.2,0.6,0.6c0.2,0.4,0.4,1,0.5,1.7c0,0,0,0.1,0,0.1
	c0.2-0.3,0.4-0.5,0.6-0.7c0.2-0.2,0.4-0.4,0.5-0.6c0.1-0.2,0.3-0.3,0.4-0.4c0.1-0.1,0.1-0.2,0.2-0.2c0.2-0.2,0.4-0.4,0.6-0.4
	c0.2,0,0.3,0,0.4,0.1c0.1,0,0.1,0.1,0.2,0.1c0.1,0.1,0.3,0.2,0.5,0.2c-0.2,0.2-0.4,0.4-0.6,0.6c-0.2,0.2-0.4,0.4-0.6,0.6
	c-0.2,0.2-0.4,0.4-0.6,0.7c-0.2,0.2-0.3,0.3-0.5,0.6c-0.2,0.2-0.4,0.5-0.7,0.7c0.1,0.3,0.1,0.5,0.2,0.7c0.1,0.2,0.2,0.4,0.3,0.6
	c0.1,0.2,0.2,0.3,0.3,0.4c0.1,0.1,0.2,0.2,0.3,0.2c0.2,0,0.4,0,0.6-0.1c0.2-0.1,0.4-0.2,0.6-0.4c0.2-0.2,0.5-0.3,0.7-0.5
	c0.2-0.2,0.5-0.4,0.7-0.6c0.1-0.1,0.2-0.1,0.2-0.1c0.1,0,0.1,0,0.2,0c0,0,0,0.1,0,0.2C71.2,226.3,71.1,226.4,71,226.5z M61.4,223
	c-0.1,0-0.3,0.1-0.4,0.2c-0.2,0.1-0.3,0.3-0.5,0.5c-0.2,0.2-0.3,0.5-0.5,0.9c-0.1,0.3-0.3,0.7-0.3,1.1c0.1-0.1,0.3-0.2,0.4-0.3
	c0.1-0.1,0.3-0.2,0.4-0.3c0.4-0.3,0.8-0.6,0.9-0.9c0.2-0.3,0.3-0.5,0.3-0.7c0-0.2,0-0.3-0.1-0.4C61.6,223,61.6,223,61.4,223z
	 M65.4,225.4c-0.3,0.5-0.7,0.9-1,1.3c-0.4,0.4-0.8,0.8-1.2,1.1c-0.4,0.3-0.9,0.6-1.3,0.8c-0.5,0.2-0.9,0.3-1.3,0.3
	c-0.2,0-0.5-0.1-0.7-0.2c-0.3-0.1-0.5-0.3-0.7-0.5c-0.2-0.2-0.4-0.5-0.5-0.9c-0.1-0.4-0.2-0.8-0.1-1.3c0-0.4,0.2-0.9,0.4-1.3
	c0.2-0.5,0.5-0.9,0.8-1.3c0.3-0.4,0.7-0.7,1.1-1c0.4-0.3,0.8-0.4,1.2-0.4c0.4,0,0.7,0.1,0.8,0.3c0.2,0.2,0.3,0.4,0.2,0.7
	c0,0.3-0.1,0.6-0.3,0.9c-0.1,0.3-0.3,0.5-0.5,0.7c-0.2,0.2-0.4,0.4-0.7,0.6c-0.2,0.2-0.4,0.3-0.7,0.5c-0.2,0.2-0.4,0.3-0.6,0.4
	c-0.2,0.1-0.4,0.3-0.5,0.4c0,0.3,0.1,0.5,0.1,0.6c0.1,0.2,0.2,0.3,0.3,0.4c0.1,0.1,0.3,0.2,0.4,0.2c0.2,0,0.3,0.1,0.5,0.1
	c0.3,0,0.7-0.1,1.1-0.3c0.4-0.2,0.8-0.5,1.1-0.8c0.4-0.3,0.7-0.6,1-1c0.3-0.3,0.6-0.6,0.8-0.9c0.1-0.1,0.1-0.1,0.2-0.1
	c0.1,0,0.1,0,0.2,0c0,0,0.1,0.1,0.1,0.2C65.5,225.1,65.5,225.2,65.4,225.4z M54.8,225.8c0-0.2,0.1-0.4,0.1-0.6
	c0-0.2,0.1-0.4,0.1-0.6c0,0,0,0-0.1,0c0,0,0,0-0.1,0c-0.1,0.1-0.2,0.1-0.2,0c0-0.1-0.1-0.1-0.1-0.3c0-0.1,0-0.2,0-0.3
	c0-0.2,0-0.3-0.1-0.5c-0.1-0.2-0.1-0.3-0.2-0.4c-0.1-0.1-0.2-0.2-0.4-0.2c-0.2,0-0.5,0.1-0.7,0.4c-0.2,0.2-0.5,0.5-0.7,0.9
	c-0.2,0.3-0.4,0.7-0.5,1.1c-0.1,0.4-0.2,0.7-0.2,1c0,0.5,0,0.9,0.2,1.1c0.1,0.2,0.3,0.3,0.6,0.3c0.2,0,0.4-0.1,0.6-0.2
	c0.2-0.1,0.4-0.3,0.6-0.5c0.2-0.2,0.4-0.4,0.6-0.6C54.5,226.1,54.7,226,54.8,225.8z M55.7,225.6c0,0.3-0.1,0.6-0.1,0.9
	c0,0.3-0.1,0.5-0.1,0.7c0,0.3,0,0.4,0.1,0.6c0.1,0.1,0.2,0.2,0.3,0.2c0.1,0,0.3-0.1,0.5-0.2c0.2-0.1,0.4-0.3,0.7-0.5
	c0.2-0.2,0.5-0.5,0.7-0.7c0.2-0.3,0.5-0.5,0.7-0.7c0.2-0.2,0.4-0.4,0.5-0.6c0.1-0.2,0.2-0.3,0.3-0.3c0.1-0.1,0.1-0.1,0.2-0.1
	c0.1,0,0.1,0,0.2,0c0,0,0.1,0.1,0.1,0.2c0,0.1,0,0.2-0.1,0.3c-0.1,0.2-0.3,0.4-0.5,0.7c-0.2,0.3-0.4,0.5-0.6,0.8
	c-0.2,0.3-0.5,0.6-0.7,0.8c-0.3,0.3-0.5,0.5-0.8,0.7c-0.3,0.2-0.5,0.4-0.8,0.5c-0.2,0.1-0.5,0.2-0.7,0.2c-0.1,0-0.3,0-0.4-0.1
	c-0.1-0.1-0.2-0.2-0.3-0.3c-0.1-0.1-0.2-0.3-0.2-0.4c-0.1-0.2-0.1-0.3-0.1-0.5c0-0.1,0-0.2,0-0.4c-0.4,0.5-0.9,0.9-1.3,1.1
	c-0.4,0.3-0.9,0.4-1.3,0.4c-0.1,0-0.3,0-0.5-0.1c-0.2-0.1-0.3-0.2-0.4-0.4c-0.1-0.2-0.2-0.4-0.3-0.6c-0.1-0.3-0.1-0.6-0.1-1
	c0-0.6,0.2-1.2,0.4-1.7c0.2-0.5,0.5-1,0.8-1.4c0.3-0.4,0.7-0.7,1.1-0.9c0.4-0.2,0.8-0.3,1.2-0.3c0.2,0,0.3,0,0.5,0.1
	c0.1,0.1,0.3,0.2,0.4,0.3c0.1,0.1,0.2,0.3,0.3,0.5c0.1,0.2,0.1,0.3,0.1,0.5c0.1-0.3,0.1-0.6,0.2-0.9c0.1-0.3,0.1-0.6,0.2-0.8
	c0.1-0.4,0.2-0.8,0.3-1.2c0.1-0.4,0.2-0.8,0.4-1.3c0.1-0.5,0.3-1,0.5-1.6c0.1-0.1,0.2-0.1,0.3-0.2c0.1,0,0.2-0.1,0.3-0.1
	c0.1,0,0.2,0,0.3,0c0.1,0,0.2,0,0.3,0c0.1,0,0.2,0.1,0.2,0.2c0.1,0.1,0.1,0.3,0.1,0.5c0,0.2,0,0.5,0,0.9c0,0.5-0.1,0.9-0.2,1.5
	c-0.1,0.5-0.3,1.1-0.5,1.7c-0.2,0.6-0.5,1.1-0.8,1.7C56.3,224.6,56,225.1,55.7,225.6z M48.1,228.9c-0.2,0-0.4,0-0.6-0.1
	c-0.2-0.1-0.3-0.2-0.4-0.3c-0.1-0.1-0.2-0.3-0.2-0.5c0-0.2,0-0.4,0-0.6c0-0.1,0.1-0.3,0.2-0.6c0.1-0.2,0.1-0.5,0.2-0.8
	c0.1-0.3,0.1-0.6,0.2-0.8c0.1-0.3,0.1-0.5,0.1-0.8c0-0.2,0-0.4,0-0.6c0-0.1-0.1-0.2-0.3-0.2c-0.2,0-0.3,0.1-0.5,0.2
	c-0.2,0.1-0.4,0.3-0.5,0.4c-0.2,0.2-0.4,0.4-0.5,0.6c-0.2,0.2-0.4,0.5-0.5,0.8c-0.1,0.3-0.2,0.7-0.2,0.9c-0.1,0.3-0.1,0.5-0.2,0.7
	c0,0.2-0.1,0.4-0.1,0.6c0,0.2-0.1,0.3-0.1,0.5c0,0.1-0.1,0.2-0.3,0.3c-0.2,0.1-0.3,0.2-0.5,0.2c-0.2,0.1-0.3,0.1-0.5,0.1
	s-0.2,0-0.2-0.1c0-0.1,0-0.2,0.1-0.4c0.1-0.2,0.1-0.5,0.2-0.8c0.1-0.3,0.2-0.6,0.2-0.9c0.1-0.3,0.2-0.6,0.2-0.9
	c0.1-0.2,0.1-0.5,0.2-0.8c0.1-0.3,0.1-0.5,0.2-0.9c0.1-0.3,0.2-0.7,0.3-1.1c0.1-0.1,0.1-0.1,0.2-0.1c0.1,0,0.2-0.1,0.2-0.1
	c0.1,0,0.2-0.1,0.3-0.1c0.1,0,0.2,0,0.2,0c0.1,0,0.1,0,0.2,0.1c0.1,0,0.1,0.1,0.2,0.1c0,0.1-0.1,0.2-0.1,0.3c0,0.1-0.1,0.3-0.1,0.4
	c0,0.2-0.1,0.3-0.2,0.5c0.1-0.2,0.3-0.4,0.5-0.6c0.2-0.2,0.4-0.4,0.6-0.5c0.2-0.2,0.4-0.3,0.6-0.4c0.2-0.1,0.5-0.1,0.7-0.1
	c0.2,0,0.4,0.1,0.5,0.2c0.2,0.1,0.3,0.3,0.4,0.5c0.1,0.2,0.1,0.4,0.2,0.7c0,0.3,0,0.6-0.1,0.9l-0.2,0.7c0,0.2-0.1,0.5-0.2,0.8
	c-0.1,0.3-0.2,0.6-0.3,1c-0.1,0.2-0.1,0.4-0.1,0.6c0,0.2,0.1,0.2,0.3,0.2c0.2,0,0.4-0.1,0.7-0.3c0.3-0.2,0.6-0.5,0.9-0.8
	c0.3-0.3,0.6-0.6,0.8-1c0.3-0.3,0.5-0.6,0.6-0.8c0.1-0.1,0.2-0.2,0.3-0.3c0.1,0,0.1,0,0.2,0c0,0,0.1,0.1,0.1,0.2
	c0,0.1,0,0.2-0.1,0.4c-0.1,0.1-0.2,0.3-0.3,0.6c-0.1,0.2-0.3,0.5-0.5,0.8c-0.2,0.3-0.4,0.5-0.7,0.8c-0.2,0.3-0.5,0.5-0.7,0.7
	c-0.3,0.2-0.5,0.4-0.8,0.5C48.5,228.9,48.3,228.9,48.1,228.9z M40.4,222.8c0.1-0.1,0.1-0.1,0.3-0.2c0.1,0,0.3-0.1,0.4-0.1
	c0.2,0,0.3,0,0.4,0c0.1,0,0.2,0,0.2,0c0,0,0,0.1-0.1,0.3c-0.1,0.2-0.1,0.4-0.2,0.7c-0.1,0.3-0.2,0.6-0.3,0.9
	c-0.1,0.3-0.2,0.5-0.2,0.7c-0.1,0.2-0.1,0.4-0.2,0.6c-0.1,0.2-0.1,0.5-0.2,0.7c-0.1,0.2-0.1,0.4-0.1,0.6c0,0.2,0,0.3,0,0.4
	c0,0.1,0.1,0.2,0.2,0.3c0.1,0,0.1,0.1,0.2,0.1c0.2,0,0.5-0.1,0.8-0.3c0.3-0.2,0.6-0.5,1-0.8c0.3-0.3,0.6-0.6,0.9-1
	c0.3-0.3,0.5-0.6,0.6-0.8c0.1-0.1,0.2-0.2,0.3-0.2c0.1,0,0.2,0,0.2,0c0.1,0,0.1,0.1,0.1,0.2c0,0.1,0,0.2-0.1,0.3
	c-0.2,0.3-0.4,0.6-0.7,1c-0.3,0.4-0.7,0.8-1,1.1c-0.4,0.4-0.7,0.7-1.1,0.9c-0.3,0.3-0.6,0.4-0.8,0.4c-0.2,0-0.3,0-0.5-0.1
	c-0.2-0.1-0.3-0.2-0.5-0.3c-0.1-0.1-0.3-0.3-0.3-0.4c-0.1-0.2-0.1-0.3-0.2-0.5c0-0.3,0-0.6,0-1.1c0-0.4,0.1-0.9,0.2-1.4
	c0.1-0.5,0.2-0.9,0.3-1.3C40.1,223.3,40.2,223,40.4,222.8z M42.5,219.5c0,0.1-0.1,0.2-0.2,0.3c-0.1,0.1-0.2,0.2-0.3,0.3
	c-0.1,0.1-0.2,0.1-0.3,0.1c-0.1,0-0.2,0-0.3-0.1c-0.2-0.2-0.3-0.3-0.3-0.5c0-0.2,0-0.4,0.1-0.5c0.1-0.2,0.2-0.3,0.4-0.4
	c0.2-0.1,0.3-0.2,0.4-0.2c0.1,0,0.2,0,0.3,0.1c0.1,0.1,0.1,0.2,0.2,0.3c0,0.1,0.1,0.2,0.1,0.4C42.6,219.3,42.6,219.4,42.5,219.5z"/>
<path class="st60" d="M142.3,225.2c0.1-0.1,0.1-0.1,0.2-0.1c0.1,0,0.1,0,0.2,0.1c0,0,0.1,0.1,0.1,0.2c0,0.1,0,0.2-0.1,0.3
	c-0.2,0.3-0.4,0.5-0.7,0.8c-0.3,0.3-0.5,0.6-0.8,0.8c-0.3,0.3-0.6,0.5-0.9,0.8c-0.3,0.2-0.6,0.4-0.9,0.6c-0.3,0.2-0.6,0.3-0.8,0.3
	c-0.2,0-0.4-0.1-0.6-0.4c-0.2-0.2-0.3-0.5-0.3-0.8c0-0.3,0.1-0.6,0.2-1c0.1-0.3,0.2-0.6,0.3-0.9c0.1-0.4,0.2-0.7,0.3-1
	c0.1-0.3,0.1-0.6,0.1-0.8c0-0.2-0.2-0.3-0.4-0.3c-0.2,0-0.3,0.1-0.5,0.2c-0.2,0.1-0.4,0.3-0.6,0.4c-0.2,0.2-0.4,0.4-0.5,0.6
	c-0.2,0.2-0.3,0.4-0.5,0.7c-0.1,0.4-0.2,0.8-0.2,1.2c-0.1,0.3-0.1,0.7-0.2,1.1c-0.1,0.4-0.2,0.7-0.2,1c-0.1,0-0.1,0.1-0.2,0.1
	c-0.1,0-0.1,0-0.2,0c-0.1,0-0.1,0-0.2,0c-0.1,0-0.2-0.1-0.2-0.1c-0.1,0-0.1-0.1-0.2-0.2c-0.1-0.1-0.1-0.2-0.1-0.3
	c0.5-1.9,0.8-3.4,1.1-4.6c0.3-1.2,0.5-2,0.6-2.6c0.2-0.7,0.3-1.2,0.3-1.5c0-0.2,0.1-0.4,0.1-0.6c0-0.2,0-0.3,0-0.5
	c0-0.2,0-0.3,0-0.5c0.1-0.1,0.2-0.1,0.3-0.1c0.1,0,0.2-0.1,0.3-0.1c0.1,0,0.2-0.1,0.3-0.1c0.1,0,0.2,0,0.3,0c0.1,0,0.2,0,0.2,0
	c0.1,0,0.1,0.1,0.1,0.1c0.1,0,0.1,0.2,0.1,0.3c0,0.2,0,0.3,0,0.5c0,0.2-0.1,0.4-0.1,0.6c-0.2,0.8-0.5,1.6-0.7,2.4
	c-0.3,0.8-0.5,1.6-0.7,2.5c0.1-0.2,0.3-0.4,0.5-0.6c0.2-0.2,0.4-0.4,0.6-0.6c0.2-0.2,0.5-0.3,0.7-0.4c0.2-0.1,0.5-0.2,0.8-0.2
	c0.1,0,0.3,0,0.4,0.1c0.1,0,0.2,0.1,0.3,0.2c0.1,0.1,0.2,0.3,0.2,0.4c0.1,0.2,0.1,0.4,0.1,0.7c0,0.2,0,0.3-0.1,0.5
	c0,0.2-0.1,0.4-0.1,0.6c-0.1,0.2-0.1,0.4-0.2,0.7c-0.1,0.3-0.2,0.6-0.3,0.9c-0.1,0.2-0.2,0.4-0.2,0.6c0,0.2,0,0.3,0,0.4
	c0.1,0.2,0.3,0.2,0.6,0.1c0.3-0.1,0.7-0.4,1.2-0.8c0.1-0.1,0.3-0.2,0.4-0.4c0.2-0.2,0.3-0.3,0.4-0.5c0.1-0.2,0.3-0.3,0.4-0.5
	C142.1,225.4,142.2,225.3,142.3,225.2z M128.5,234.9c0.2,0,0.4-0.1,0.5-0.5c0.1-0.3,0.3-0.7,0.4-1.2c0-0.1,0.1-0.3,0.1-0.5
	c0.1-0.2,0.1-0.5,0.2-0.8c0.1-0.3,0.2-0.6,0.2-1c0.1-0.3,0.2-0.7,0.3-1c-0.1,0.1-0.2,0.1-0.3,0.2c-0.1,0.1-0.2,0.2-0.3,0.3
	c-0.2,0.2-0.4,0.4-0.7,0.6c-0.2,0.2-0.4,0.4-0.6,0.6c-0.2,0.2-0.3,0.5-0.4,0.7c-0.1,0.3-0.1,0.6-0.1,0.9c0,0.3,0,0.6,0,0.8
	c0,0.2,0.1,0.4,0.1,0.5c0,0.1,0.1,0.2,0.2,0.3C128.3,234.9,128.4,234.9,128.5,234.9z M129.2,227.7c0.2,0,0.4-0.1,0.6-0.2
	c0.2-0.1,0.4-0.2,0.5-0.4c0.2-0.2,0.3-0.3,0.4-0.5c0.1-0.2,0.2-0.3,0.2-0.4c0-0.1,0.1-0.2,0.1-0.4c0.1-0.2,0.1-0.3,0.1-0.4
	c0-0.1,0-0.3,0-0.4c0-0.1,0-0.2-0.1-0.2c-0.1,0-0.1-0.1-0.1-0.1c0-0.1-0.1-0.2-0.1-0.2c0-0.1,0-0.2,0-0.3c0-0.1,0-0.2,0-0.2
	c-0.1-0.4-0.1-0.6-0.3-0.8c-0.1-0.2-0.3-0.3-0.4-0.3c-0.3,0-0.5,0.1-0.7,0.3c-0.2,0.2-0.4,0.5-0.6,0.8c-0.2,0.3-0.3,0.7-0.4,1.1
	c-0.1,0.4-0.2,0.8-0.2,1.1c0,0.4,0.1,0.8,0.2,1C128.5,227.6,128.8,227.7,129.2,227.7z M131.1,230.8c-0.1,0.3-0.1,0.6-0.2,0.9
	c-0.1,0.4-0.2,0.8-0.3,1.2c-0.1,0.4-0.2,0.8-0.3,1.2c-0.1,0.4-0.3,0.8-0.4,1.1c-0.2,0.3-0.3,0.6-0.5,0.8c-0.2,0.2-0.4,0.3-0.6,0.3
	c-0.3,0-0.6-0.1-0.9-0.3c-0.2-0.2-0.4-0.5-0.6-0.8c-0.2-0.3-0.3-0.6-0.4-1c-0.1-0.3-0.1-0.7-0.1-1c0-0.4,0-0.8,0.1-1
	c0.1-0.3,0.2-0.5,0.4-0.8c0.2-0.2,0.4-0.5,0.7-0.8c0.3-0.3,0.7-0.6,1.2-1c0.2-0.2,0.5-0.4,0.7-0.6c0.2-0.2,0.4-0.4,0.6-0.5
	c0.1-0.2,0.1-0.4,0.1-0.6c0.1-0.2,0.1-0.3,0.1-0.5c-0.3,0.4-0.6,0.7-1,0.9c-0.4,0.2-0.8,0.4-1.3,0.4c-0.4,0-0.8-0.2-1.1-0.6
	c-0.3-0.4-0.4-1-0.4-1.8c0-0.4,0.1-0.8,0.2-1.3c0.1-0.5,0.4-1,0.6-1.4c0.3-0.4,0.6-0.8,1-1.1c0.4-0.3,0.8-0.4,1.3-0.4
	c0.2,0,0.4,0.1,0.6,0.2c0.2,0.1,0.3,0.3,0.4,0.4c0.1,0.2,0.2,0.3,0.3,0.5c0.1,0.2,0.1,0.4,0.1,0.5c0-0.1,0-0.1,0-0.2
	c0-0.1,0-0.1,0-0.2c0.1-0.4,0.2-0.6,0.3-0.7c0.1-0.1,0.3-0.2,0.6-0.2c0.1,0,0.3,0,0.4,0.1c0.1,0.1,0.1,0.1,0.1,0.1
	c-0.1,0.1-0.1,0.2-0.1,0.3c0,0.1-0.1,0.1-0.1,0.2c0,0.1-0.1,0.2-0.1,0.3c0,0.1-0.1,0.3-0.1,0.4c0,0.1-0.1,0.2-0.1,0.5
	c-0.1,0.3-0.1,0.6-0.2,0.9c-0.1,0.4-0.2,0.8-0.3,1.2c-0.1,0.4-0.2,0.9-0.3,1.3c0.3-0.2,0.6-0.4,0.9-0.6c0.3-0.2,0.6-0.5,0.9-0.7
	c0.3-0.2,0.5-0.5,0.7-0.7c0.2-0.2,0.4-0.4,0.5-0.5c0.1-0.1,0.2-0.2,0.3-0.3c0.1-0.1,0.2-0.1,0.3-0.1c0.1,0,0.1,0.1,0.1,0.1
	c0,0.1,0,0.2-0.1,0.3c-0.2,0.4-0.5,0.7-0.9,1.1c-0.3,0.4-0.7,0.7-1,1c-0.4,0.3-0.7,0.6-1,0.8c-0.3,0.2-0.6,0.4-0.9,0.6
	c-0.1,0.5-0.2,0.8-0.3,1.1C131.2,230.3,131.2,230.5,131.1,230.8z M124,222.8c0.1-0.1,0.2-0.1,0.3-0.2c0.1,0,0.3-0.1,0.4-0.1
	c0.2,0,0.3,0,0.4,0c0.1,0,0.2,0,0.2,0c0,0,0,0.1-0.1,0.3c-0.1,0.2-0.1,0.4-0.2,0.7c-0.1,0.3-0.2,0.6-0.3,0.9
	c-0.1,0.3-0.2,0.5-0.2,0.7c0,0.2-0.1,0.4-0.2,0.6c-0.1,0.2-0.1,0.5-0.2,0.7c-0.1,0.2-0.1,0.4-0.1,0.6c0,0.2,0,0.3,0,0.4
	c0,0.1,0.1,0.2,0.2,0.3c0.1,0,0.1,0.1,0.2,0.1c0.2,0,0.5-0.1,0.8-0.3c0.3-0.2,0.6-0.5,1-0.8c0.3-0.3,0.6-0.6,0.9-1
	c0.3-0.3,0.5-0.6,0.6-0.8c0.1-0.1,0.2-0.2,0.3-0.2c0.1,0,0.2,0,0.2,0c0.1,0,0.1,0.1,0.1,0.2c0,0.1,0,0.2-0.1,0.3
	c-0.2,0.3-0.4,0.6-0.7,1c-0.3,0.4-0.7,0.8-1,1.1c-0.4,0.4-0.7,0.7-1.1,0.9c-0.3,0.3-0.6,0.4-0.8,0.4c-0.2,0-0.3,0-0.5-0.1
	c-0.2-0.1-0.3-0.2-0.5-0.3c-0.1-0.1-0.3-0.3-0.3-0.4c-0.1-0.2-0.1-0.3-0.2-0.5c0-0.3,0-0.6,0-1.1c0-0.4,0.1-0.9,0.2-1.4
	c0.1-0.5,0.2-0.9,0.3-1.3S123.8,223,124,222.8z M126.1,219.5c0,0.1-0.1,0.2-0.2,0.3c-0.1,0.1-0.2,0.2-0.3,0.3
	c-0.1,0.1-0.2,0.1-0.3,0.1c-0.1,0-0.2,0-0.3-0.1c-0.2-0.2-0.3-0.3-0.3-0.5c0-0.2,0-0.4,0.1-0.5c0.1-0.2,0.2-0.3,0.4-0.4
	c0.2-0.1,0.3-0.2,0.4-0.2c0.1,0,0.2,0,0.3,0.1c0.1,0.1,0.1,0.2,0.2,0.3c0,0.1,0.1,0.2,0.1,0.4C126.2,219.3,126.2,219.4,126.1,219.5z
	 M115.7,228.5c-0.1,0.1-0.1,0.2-0.2,0.2c-0.1,0-0.2,0-0.2,0c-0.1,0-0.1-0.1-0.1-0.2c0-0.1,0-0.2,0.1-0.3c0-0.1,0.1-0.2,0.2-0.4
	c0.1-0.2,0.2-0.5,0.4-0.8c0.2-0.3,0.3-0.6,0.5-1c0.2-0.4,0.3-0.7,0.5-1c0.2-0.3,0.3-0.6,0.4-0.9c0.1-0.3,0.2-0.4,0.3-0.5
	c-0.1-0.1-0.2-0.2-0.2-0.2c0,0-0.1-0.1-0.1-0.3c0-0.1,0-0.3,0.1-0.5c0.1-0.2,0.2-0.4,0.3-0.6c0.1-0.2,0.3-0.4,0.4-0.5
	c0.2-0.1,0.3-0.2,0.5-0.2c0.3,0,0.5,0.1,0.6,0.3c0.1,0.2,0.2,0.4,0.2,0.6c0,0.1,0,0.3,0,0.5c0,0.2-0.1,0.4-0.2,0.6
	c0,0,0.1,0,0.1,0.1c0.1,0,0.1,0,0.2,0c0.2,0,0.3,0,0.3,0c0.1,0,0.2,0,0.3,0c0.2,0,0.3,0,0.4,0.1c0.1,0.1,0.2,0.2,0.3,0.3
	c0.1,0.1,0.1,0.3,0.2,0.4c0,0.1,0.1,0.3,0.1,0.4c0,0.3,0,0.5-0.2,0.8c-0.2,0.3-0.4,0.6-0.6,0.9c-0.1,0.2-0.3,0.4-0.4,0.7
	c-0.1,0.3-0.2,0.5-0.2,0.7c0,0.1,0.1,0.2,0.1,0.3c0.1,0.1,0.2,0.1,0.4,0.1c0.2,0,0.4-0.1,0.6-0.2c0.2-0.1,0.4-0.3,0.6-0.5
	c0.2-0.2,0.4-0.4,0.7-0.7s0.4-0.5,0.6-0.7c0.2-0.2,0.3-0.4,0.5-0.6c0.1-0.2,0.2-0.3,0.3-0.4c0.1-0.1,0.1-0.1,0.2-0.2
	c0.1,0,0.2,0,0.2,0c0.1,0,0.1,0.1,0.1,0.2c0,0.1,0,0.2-0.1,0.4c-0.1,0.1-0.2,0.3-0.3,0.5c-0.1,0.2-0.3,0.5-0.5,0.8
	c-0.2,0.3-0.4,0.6-0.7,0.9c-0.3,0.3-0.5,0.6-0.8,0.8c-0.3,0.2-0.6,0.4-0.8,0.6c-0.3,0.2-0.6,0.2-0.8,0.2c-0.3,0-0.5-0.1-0.7-0.2
	c-0.2-0.1-0.3-0.2-0.4-0.4c-0.1-0.1-0.2-0.3-0.2-0.5c0-0.2-0.1-0.3-0.1-0.5c0-0.1,0-0.3,0.1-0.4c0.1-0.1,0.1-0.3,0.2-0.4
	c0.1-0.1,0.2-0.3,0.3-0.4c0.1-0.2,0.2-0.3,0.2-0.4c0.2-0.3,0.3-0.6,0.4-0.8c0.1-0.2,0.2-0.4,0.2-0.5c0-0.1,0-0.2-0.1-0.3
	c0-0.1-0.1-0.1-0.2-0.1c-0.1,0-0.1,0-0.1,0c0,0-0.1,0-0.1,0c0,0-0.1,0-0.1,0c0,0-0.1,0-0.2,0c-0.1,0-0.2,0-0.3-0.1
	c-0.1,0-0.2-0.1-0.3-0.1c0,0.1-0.1,0.2-0.3,0.5c-0.1,0.2-0.3,0.5-0.5,0.8c-0.2,0.3-0.4,0.7-0.6,1c-0.2,0.4-0.4,0.7-0.6,1
	c-0.2,0.3-0.3,0.6-0.5,0.8C115.8,228.3,115.8,228.4,115.7,228.5z M109.1,223c-0.1,0-0.3,0.1-0.4,0.2c-0.2,0.1-0.3,0.3-0.5,0.5
	c-0.2,0.2-0.3,0.5-0.5,0.9c-0.1,0.3-0.3,0.7-0.3,1.1c0.1-0.1,0.3-0.2,0.4-0.3c0.1-0.1,0.3-0.2,0.4-0.3c0.4-0.3,0.8-0.6,0.9-0.9
	c0.2-0.3,0.3-0.5,0.3-0.7c0-0.2,0-0.3-0.1-0.4C109.3,223,109.2,223,109.1,223z M113,225.4c-0.3,0.5-0.7,0.9-1,1.3
	c-0.4,0.4-0.8,0.8-1.2,1.1c-0.4,0.3-0.9,0.6-1.3,0.8c-0.5,0.2-0.9,0.3-1.3,0.3c-0.2,0-0.5-0.1-0.7-0.2c-0.3-0.1-0.5-0.3-0.7-0.5
	c-0.2-0.2-0.4-0.5-0.5-0.9c-0.1-0.4-0.2-0.8-0.1-1.3c0-0.4,0.2-0.9,0.4-1.3c0.2-0.5,0.5-0.9,0.8-1.3c0.3-0.4,0.7-0.7,1.1-1
	c0.4-0.3,0.8-0.4,1.2-0.4c0.4,0,0.7,0.1,0.8,0.3c0.2,0.2,0.3,0.4,0.2,0.7c0,0.3-0.1,0.6-0.3,0.9c-0.1,0.3-0.3,0.5-0.5,0.7
	c-0.2,0.2-0.4,0.4-0.7,0.6c-0.2,0.2-0.4,0.3-0.7,0.5c-0.2,0.2-0.4,0.3-0.6,0.4c-0.2,0.1-0.4,0.3-0.5,0.4c0,0.3,0.1,0.5,0.1,0.6
	c0.1,0.2,0.2,0.3,0.3,0.4c0.1,0.1,0.3,0.2,0.4,0.2c0.2,0,0.3,0.1,0.5,0.1c0.3,0,0.7-0.1,1.1-0.3c0.4-0.2,0.8-0.5,1.1-0.8
	c0.4-0.3,0.7-0.6,1-1c0.3-0.3,0.6-0.6,0.8-0.9c0.1-0.1,0.1-0.1,0.2-0.1c0.1,0,0.1,0,0.2,0c0,0,0.1,0.1,0.1,0.2
	C113.1,225.1,113.1,225.2,113,225.4z M106.6,225.2c0.1-0.1,0.1-0.1,0.2-0.1c0.1,0,0.1,0,0.2,0.1c0,0,0.1,0.1,0.1,0.2
	c0,0.1,0,0.2-0.1,0.3c-0.2,0.3-0.4,0.5-0.7,0.8c-0.3,0.3-0.5,0.6-0.8,0.8c-0.3,0.3-0.6,0.5-0.9,0.8c-0.3,0.2-0.6,0.4-0.9,0.6
	c-0.3,0.2-0.6,0.3-0.8,0.3s-0.4-0.1-0.6-0.4c-0.2-0.2-0.3-0.5-0.3-0.8c0-0.3,0.1-0.6,0.2-1c0.1-0.3,0.2-0.6,0.3-0.9
	c0.1-0.4,0.2-0.7,0.3-1c0.1-0.3,0.1-0.6,0.1-0.8c0-0.2-0.2-0.3-0.4-0.3c-0.2,0-0.3,0.1-0.5,0.2c-0.2,0.1-0.4,0.3-0.6,0.4
	c-0.2,0.2-0.4,0.4-0.5,0.6c-0.2,0.2-0.3,0.4-0.5,0.7c-0.1,0.4-0.2,0.8-0.2,1.2c-0.1,0.3-0.1,0.7-0.2,1.1c-0.1,0.4-0.2,0.7-0.2,1
	c-0.1,0-0.1,0.1-0.2,0.1c-0.1,0-0.1,0-0.2,0c-0.1,0-0.1,0-0.2,0c-0.1,0-0.2-0.1-0.2-0.1c-0.1,0-0.1-0.1-0.2-0.2
	c-0.1-0.1-0.1-0.2-0.1-0.3c0.5-1.9,0.8-3.4,1.1-4.6c0.3-1.2,0.5-2,0.6-2.6c0.2-0.7,0.3-1.2,0.3-1.5c0-0.2,0.1-0.4,0.1-0.6
	c0-0.2,0-0.3,0-0.5c0-0.2,0-0.3,0-0.5c0.1-0.1,0.2-0.1,0.3-0.1c0.1,0,0.2-0.1,0.3-0.1c0.1,0,0.2-0.1,0.3-0.1c0.1,0,0.2,0,0.3,0
	c0.1,0,0.2,0,0.2,0c0.1,0,0.1,0.1,0.1,0.1c0.1,0,0.1,0.2,0.1,0.3c0,0.2,0,0.3,0,0.5c0,0.2-0.1,0.4-0.1,0.6c-0.2,0.8-0.5,1.6-0.7,2.4
	c-0.3,0.8-0.5,1.6-0.7,2.5c0.1-0.2,0.3-0.4,0.5-0.6c0.2-0.2,0.4-0.4,0.6-0.6c0.2-0.2,0.5-0.3,0.7-0.4c0.2-0.1,0.5-0.2,0.8-0.2
	c0.1,0,0.3,0,0.4,0.1c0.1,0,0.2,0.1,0.3,0.2c0.1,0.1,0.2,0.3,0.2,0.4c0,0.2,0.1,0.4,0.1,0.7c0,0.2,0,0.3-0.1,0.5
	c0,0.2-0.1,0.4-0.1,0.6c-0.1,0.2-0.1,0.4-0.2,0.7c-0.1,0.3-0.2,0.6-0.3,0.9c-0.1,0.2-0.2,0.4-0.2,0.6c0,0.2,0,0.3,0,0.4
	c0.1,0.2,0.3,0.2,0.5,0.1c0.3-0.1,0.7-0.4,1.2-0.8c0.1-0.1,0.3-0.2,0.4-0.4c0.2-0.2,0.3-0.3,0.4-0.5c0.1-0.2,0.3-0.3,0.4-0.5
	C106.4,225.4,106.5,225.3,106.6,225.2z M99.6,224.7c0-0.1,0.1-0.1,0.2-0.1c0.1,0,0.1,0,0.2,0c0,0,0.1,0.1,0.1,0.2
	c0,0.1,0,0.2-0.1,0.3c-0.2,0.4-0.5,0.8-0.8,1.3c-0.3,0.5-0.7,0.9-1.1,1.3c-0.4,0.4-0.7,0.7-1.1,1c-0.3,0.3-0.6,0.4-0.9,0.4
	c-0.3,0-0.6-0.1-0.8-0.2c-0.2-0.1-0.4-0.3-0.5-0.5c-0.1-0.2-0.2-0.4-0.3-0.6c-0.1-0.2-0.1-0.4,0-0.6c0-0.2,0-0.5,0.1-0.9
	c0.1-0.4,0.1-0.9,0.2-1.5c0.1-0.6,0.2-1.2,0.3-1.8c0.1-0.6,0.3-1.3,0.4-1.9c-0.2,0-0.4,0-0.5,0.1c-0.2,0-0.3,0-0.5,0
	c-0.3,0-0.6,0-0.9-0.1c-0.3-0.1-0.5-0.2-0.7-0.2c-0.1,0-0.1-0.1-0.1-0.2c0-0.1,0-0.2,0.1-0.2c0.1-0.1,0.1-0.1,0.2-0.2
	c0.1-0.1,0.1-0.1,0.2-0.1c0.2,0,0.4,0,0.6,0.1c0.2,0,0.5,0,0.7,0c0.2,0,0.4,0,0.6,0c0.2,0,0.4,0,0.5-0.1c0.1-0.5,0.3-0.9,0.4-1.3
	c0.1-0.4,0.2-0.6,0.3-0.8c0-0.1,0.1-0.1,0.2-0.1c0.1,0,0.2-0.1,0.3-0.1c0.1,0,0.2,0,0.4,0c0.1,0,0.2,0.1,0.2,0.1
	c0,0.1,0.1,0.3,0.1,0.6c0,0.3-0.1,0.8-0.2,1.3c0.4,0,0.8,0,1.1,0.1c0.3,0,0.6,0.1,0.9,0.2c0.2,0.1,0.4,0.1,0.6,0.2
	c0.1,0.1,0.3,0.1,0.3,0.1c0.1,0,0.1,0.1,0.1,0.2c0,0.1,0,0.2,0,0.3c0,0.1-0.1,0.2-0.2,0.2c-0.1,0.1-0.2,0.1-0.3,0.1
	c-0.1,0-0.2,0-0.3-0.1c-0.1,0-0.3-0.1-0.5-0.1c-0.2,0-0.4,0-0.6-0.1c-0.3,0-0.5,0-0.9,0c-0.1,0-0.1,0-0.2,0c-0.1,0-0.2,0-0.2,0
	c0,0.2-0.1,0.3-0.1,0.5c0,0.2-0.1,0.3-0.1,0.5c-0.1,0.4-0.3,0.9-0.5,1.3c-0.2,0.4-0.3,0.9-0.6,1.4c-0.2,0.5-0.5,1.1-0.7,1.7
	c-0.1,0.4-0.1,0.8,0,1c0.1,0.2,0.2,0.4,0.3,0.5c0.1,0.1,0.3,0.2,0.5,0.2c0.2,0,0.3,0,0.6-0.2c0.2-0.1,0.5-0.3,0.7-0.5
	c0.2-0.2,0.5-0.5,0.7-0.7c0.2-0.3,0.5-0.5,0.7-0.8c0.2-0.3,0.4-0.5,0.5-0.7C99.4,224.9,99.5,224.7,99.6,224.7z"/>
<path class="st60" d="M172,222.9c0.1-0.1,0.3-0.2,0.4-0.2c0.1-0.1,0.2-0.1,0.3-0.1c0.1,0,0.2,0,0.3,0c0.3,0,0.4,0.1,0.5,0.3
	c0.1,0.2,0.1,0.4,0,0.7c0,0.2-0.1,0.4-0.2,0.7c-0.1,0.3-0.2,0.6-0.3,1c-0.1,0.4-0.3,0.8-0.4,1.3c-0.1,0.5-0.3,1.1-0.4,1.7
	c-0.1,0.5-0.3,1.1-0.4,1.7c-0.1,0.6-0.3,1.3-0.4,2.1c-0.2,0.8-0.4,1.7-0.5,2.8c-0.1,0.3-0.2,0.4-0.3,0.4c-0.2,0-0.3,0-0.5-0.1
	c-0.1,0-0.1-0.1-0.2-0.1c-0.1-0.1-0.1-0.1-0.2-0.2c-0.1-0.1-0.1-0.2-0.2-0.3c0.2-0.9,0.4-1.6,0.6-2.4c0.2-0.7,0.3-1.3,0.5-1.8
	c0.2-0.6,0.3-1.2,0.4-1.6c0-0.2,0.1-0.4,0.1-0.6c0-0.2,0.1-0.4,0.1-0.6c-0.1,0.2-0.3,0.4-0.4,0.6c-0.2,0.2-0.3,0.4-0.5,0.5
	c-0.2,0.1-0.4,0.3-0.6,0.3c-0.2,0.1-0.4,0.1-0.7,0.1c-0.6-0.1-1-0.3-1.2-0.6c-0.2-0.3-0.3-0.8-0.3-1.3c0-0.2,0-0.5,0.1-0.7
	c0.1-0.3,0.1-0.5,0.2-0.7c0.1-0.2,0.1-0.4,0.2-0.6c0.1-0.2,0.1-0.3,0.1-0.4c0.1-0.4,0.2-0.7,0.3-1c0.1-0.3,0-0.5-0.1-0.7
	c0.1-0.1,0.3-0.2,0.4-0.2c0.1,0,0.2-0.1,0.3-0.1c0.1,0,0.2,0,0.3,0c0.3,0,0.4,0.1,0.5,0.3c0,0.2,0,0.4-0.1,0.7
	c0,0.2-0.1,0.4-0.2,0.7c-0.1,0.3-0.2,0.6-0.3,0.8c-0.1,0.3-0.2,0.6-0.3,0.8c-0.1,0.2-0.1,0.4-0.1,0.5c-0.1,0.5-0.1,0.8,0,1.1
	c0.1,0.3,0.3,0.4,0.5,0.4c0.1,0,0.3-0.1,0.4-0.2c0.2-0.1,0.3-0.3,0.5-0.5c0.2-0.2,0.3-0.4,0.5-0.7c0.2-0.3,0.3-0.5,0.5-0.8
	c0.1-0.3,0.3-0.5,0.4-0.8c0.1-0.3,0.2-0.5,0.2-0.7c0.1-0.4,0.1-0.7,0.1-0.9C172.2,223.3,172.2,223.1,172,222.9z M164.5,226.2
	c0-0.2,0.1-0.4,0.2-0.7c0.1-0.3,0.1-0.5,0.2-0.8c0.1-0.3,0.1-0.5,0.1-0.6c0-0.2,0-0.3,0-0.2c-0.1,0-0.1,0-0.2,0c-0.1,0-0.1,0-0.2,0
	c-0.1,0-0.2,0-0.2,0c0.1-0.2,0.1-0.3,0.1-0.4c0-0.1,0-0.2,0-0.3c0-0.1,0-0.1-0.1-0.2c-0.1-0.1-0.3,0-0.6,0.2c-0.3,0.2-0.6,0.7-1,1.3
	c-0.2,0.3-0.3,0.6-0.4,0.9c-0.1,0.3-0.2,0.6-0.2,0.9c0,0.3,0,0.5,0,0.7c0,0.2,0.1,0.3,0.1,0.4c0.1,0.1,0.2,0.2,0.4,0.2
	c0.1,0,0.3,0,0.4-0.1c0.1-0.1,0.3-0.2,0.4-0.3c0.1-0.1,0.3-0.3,0.4-0.4c0.1-0.1,0.2-0.3,0.3-0.4
	C164.4,226.3,164.5,226.2,164.5,226.2z M169,225.5c-0.1,0.2-0.3,0.5-0.6,0.8c-0.2,0.3-0.5,0.6-0.7,0.9c-0.2,0.3-0.5,0.6-0.7,0.8
	c-0.2,0.3-0.4,0.4-0.6,0.5c-0.1,0.1-0.2,0.1-0.4,0.2c-0.1,0-0.3,0.1-0.4,0.1c-0.1,0-0.3,0-0.4,0c-0.1,0-0.2-0.1-0.3-0.1
	c-0.1-0.1-0.2-0.2-0.2-0.3c-0.1-0.1-0.1-0.3-0.1-0.4c0-0.2-0.1-0.4-0.1-0.7c-0.2,0.4-0.5,0.7-0.8,0.9c-0.3,0.2-0.6,0.4-0.8,0.5
	c-0.3,0.1-0.6,0.2-0.9,0.2c-0.1,0-0.3-0.1-0.5-0.1c-0.2-0.1-0.3-0.3-0.4-0.5c-0.1-0.2-0.2-0.5-0.2-0.8c0-0.3,0-0.7,0.1-1.2
	c0.1-0.6,0.4-1.2,0.7-1.7c0.3-0.5,0.7-0.9,1-1.3c0.4-0.4,0.7-0.6,1.1-0.8c0.4-0.2,0.7-0.3,0.9-0.2c0.3,0.1,0.5,0.1,0.7,0.2
	c0.1,0.1,0.2,0.3,0.3,0.5c0,0.2,0,0.5-0.3,0.8c0.1,0,0.3-0.1,0.4-0.1c0.1,0,0.2,0,0.2,0c0.1,0,0.1,0,0.1,0c0,0,0,0.1,0,0.1
	c0,0.1,0,0.2,0,0.4c0,0.2-0.1,0.4-0.1,0.7c-0.1,0.3-0.1,0.7-0.2,1.2c0,0.1,0,0.2-0.1,0.3c0,0.1,0,0.2,0,0.2c0,0.1,0,0.2-0.1,0.3
	c0,0.1,0,0.2-0.1,0.4c0,0.1,0,0.2,0,0.3c0,0.1,0,0.2,0.1,0.3c0,0.1,0.1,0.2,0.1,0.2c0.1,0.1,0.2,0.1,0.3,0.1c0.1,0,0.2-0.1,0.4-0.2
	c0.2-0.1,0.3-0.3,0.5-0.5c0.2-0.2,0.4-0.4,0.6-0.7c0.2-0.2,0.4-0.5,0.6-0.7c0.2-0.2,0.3-0.4,0.5-0.6c0.1-0.2,0.2-0.3,0.3-0.4
	c0.1-0.1,0.2-0.1,0.2-0.2c0.1,0,0.1,0,0.2,0.1c0,0.1,0,0.2,0,0.3C169.2,225.2,169.1,225.3,169,225.5z M158.9,225.9
	c-0.1,0.4-0.3,0.7-0.5,1.1c-0.2,0.3-0.4,0.7-0.6,0.9c-0.2,0.3-0.5,0.5-0.7,0.7c-0.3,0.2-0.5,0.2-0.8,0.2c-0.5,0-0.8-0.2-1.1-0.5
	c-0.2-0.3-0.4-0.7-0.5-1.2c-0.1,0.2-0.3,0.4-0.5,0.6c-0.2,0.2-0.3,0.4-0.5,0.6c-0.2,0.2-0.4,0.3-0.6,0.4c-0.2,0.1-0.4,0.2-0.6,0.2
	c-0.3,0-0.5-0.1-0.7-0.2c-0.2-0.1-0.3-0.3-0.5-0.5c-0.1-0.2-0.2-0.4-0.3-0.7c-0.1-0.3-0.1-0.5-0.1-0.8v-0.2c0-0.4,0-0.8,0.1-1.2
	c0.1-0.4,0.1-0.8,0.2-1.1c0.1-0.3,0.2-0.6,0.2-0.9c0.1-0.3,0.1-0.4,0.2-0.5c0.1-0.1,0.2-0.2,0.5-0.3c0.2-0.1,0.5-0.1,0.7-0.1
	c0.1,0,0.2,0.1,0.2,0.1c0,0.1,0,0.2,0,0.3c0,0.2-0.1,0.4-0.2,0.8c-0.1,0.4-0.2,0.7-0.3,1.1c-0.1,0.4-0.2,0.8-0.3,1.2
	c-0.1,0.4-0.1,0.7-0.1,1c0,0.3,0.1,0.6,0.2,0.7c0.1,0.1,0.3,0.2,0.5,0.2c0.3,0,0.5-0.1,0.9-0.4c0.3-0.3,0.6-0.8,0.9-1.5
	c0-0.1,0-0.1,0-0.2c0-0.1,0-0.1,0-0.2c0-0.5,0-0.9,0.1-1.3c0-0.4,0.1-0.8,0.2-1.1c0.1-0.3,0.3-0.6,0.4-0.8c0.2-0.2,0.4-0.3,0.7-0.3
	c0.1,0,0.2,0,0.3,0.1c0.1,0.1,0.1,0.2,0.1,0.3c0,0.3-0.1,0.8-0.3,1.4c-0.2,0.6-0.5,1.3-0.8,2c0,0-0.1,0.1-0.1,0.1
	c0,0.2,0.1,0.4,0.1,0.6c0,0.2,0.1,0.4,0.2,0.6c0.1,0.2,0.2,0.3,0.3,0.4c0.1,0.1,0.3,0.2,0.4,0.2c0.2,0,0.4-0.1,0.6-0.3
	c0.2-0.2,0.4-0.5,0.5-0.8c0.1-0.3,0.3-0.6,0.4-1c0.1-0.3,0.2-0.7,0.3-0.9c0-0.1-0.1-0.2-0.1-0.3c0-0.1,0-0.2,0-0.4
	c0-0.3,0-0.6,0.1-0.8c0.1-0.2,0.2-0.4,0.4-0.6c0.1-0.1,0.3-0.3,0.5-0.3c0.2-0.1,0.3-0.1,0.5-0.1c0.3,0,0.4,0.1,0.4,0.3
	c0,0.2,0,0.4-0.1,0.9c-0.1,0.4-0.2,0.9-0.4,1.4c0.2,0.1,0.4,0.1,0.7,0.1c0.3,0,0.5,0,0.7-0.1c0.2-0.1,0.4-0.2,0.6-0.3
	c0.2-0.1,0.4-0.2,0.5-0.3c0.2-0.1,0.3-0.2,0.4-0.4c0.1-0.1,0.2-0.1,0.3,0c0.1,0.1,0.1,0.2,0,0.3c-0.1,0.1-0.2,0.3-0.4,0.5
	c-0.2,0.2-0.4,0.3-0.7,0.5c-0.3,0.2-0.6,0.3-0.9,0.4c-0.3,0.1-0.7,0.2-1.1,0.2c-0.1,0-0.1,0-0.2,0C159,225.9,159,225.9,158.9,225.9z
	 M147.4,224.7c0-0.1,0.1-0.1,0.2-0.1c0.1,0,0.1,0,0.2,0c0,0,0.1,0.1,0.1,0.2c0,0.1,0,0.2-0.1,0.3c-0.2,0.4-0.5,0.8-0.8,1.3
	c-0.3,0.5-0.7,0.9-1.1,1.3c-0.4,0.4-0.7,0.7-1.1,1c-0.3,0.3-0.6,0.4-0.9,0.4c-0.3,0-0.6-0.1-0.8-0.2c-0.2-0.1-0.4-0.3-0.5-0.5
	c-0.1-0.2-0.2-0.4-0.3-0.6c-0.1-0.2-0.1-0.4,0-0.6c0-0.2,0-0.5,0.1-0.9c0.1-0.4,0.1-0.9,0.2-1.5c0.1-0.6,0.2-1.2,0.3-1.8
	c0.1-0.6,0.3-1.3,0.4-1.9c-0.2,0-0.4,0-0.5,0.1c-0.2,0-0.3,0-0.5,0c-0.3,0-0.6,0-0.9-0.1c-0.3-0.1-0.5-0.2-0.7-0.2
	c-0.1,0-0.1-0.1-0.1-0.2c0-0.1,0-0.2,0.1-0.2c0.1-0.1,0.1-0.1,0.2-0.2c0.1-0.1,0.1-0.1,0.2-0.1c0.2,0,0.4,0,0.6,0.1
	c0.2,0,0.5,0,0.7,0c0.2,0,0.4,0,0.6,0c0.2,0,0.4,0,0.5-0.1c0.1-0.5,0.3-0.9,0.4-1.3c0.1-0.4,0.2-0.6,0.3-0.8c0-0.1,0.1-0.1,0.2-0.1
	c0.1,0,0.2-0.1,0.3-0.1c0.1,0,0.2,0,0.4,0c0.1,0,0.2,0.1,0.2,0.1c0.1,0.1,0.1,0.3,0.1,0.6c0,0.3-0.1,0.8-0.2,1.3
	c0.4,0,0.8,0,1.1,0.1c0.3,0,0.6,0.1,0.9,0.2c0.2,0.1,0.4,0.1,0.6,0.2c0.1,0.1,0.3,0.1,0.3,0.1c0.1,0,0.1,0.1,0.1,0.2
	c0,0.1,0,0.2,0,0.3c0,0.1-0.1,0.2-0.2,0.2c-0.1,0.1-0.2,0.1-0.3,0.1c-0.1,0-0.2,0-0.3-0.1c-0.1,0-0.3-0.1-0.5-0.1
	c-0.2,0-0.4,0-0.6-0.1c-0.2,0-0.5,0-0.9,0c-0.1,0-0.1,0-0.2,0c-0.1,0-0.2,0-0.2,0c0,0.2-0.1,0.3-0.1,0.5c0,0.2-0.1,0.3-0.1,0.5
	c-0.1,0.4-0.3,0.9-0.5,1.3c-0.2,0.4-0.3,0.9-0.6,1.4c-0.2,0.5-0.5,1.1-0.7,1.7c-0.1,0.4,0,0.8,0,1c0.1,0.2,0.2,0.4,0.3,0.5
	c0.1,0.1,0.3,0.2,0.5,0.2c0.2,0,0.3,0,0.6-0.2c0.2-0.1,0.4-0.3,0.7-0.5c0.2-0.2,0.5-0.5,0.7-0.7c0.2-0.3,0.5-0.5,0.7-0.8
	c0.2-0.3,0.4-0.5,0.5-0.7C147.2,224.9,147.3,224.7,147.4,224.7z"/>
</svg>
