<?xml version="1.0" encoding="utf-8"?>
<!-- Generator: Adobe Illustrator 19.0.0, SVG Export Plug-In . SVG Version: 6.00 Build 0)  -->
<svg version="1.1" id="OBJECTS" xmlns="http://www.w3.org/2000/svg" xmlns:xlink="http://www.w3.org/1999/xlink" x="0px" y="0px"
	 viewBox="0 0 750 500" style="enable-background:new 0 0 750 500;" xml:space="preserve">
<style type="text/css">
	.st0{fill:#E5E3FF;}
	.st1{fill:url(#XMLID_185_);}
	.st2{fill:url(#XMLID_186_);}
	.st3{fill:url(#XMLID_187_);}
	.st4{fill:#2C2C3D;}
	.st5{fill:#2323C4;}
	.st6{fill:url(#XMLID_188_);}
	.st7{fill:url(#XMLID_189_);}
	.st8{fill:url(#XMLID_192_);}
	.st9{fill:url(#XMLID_193_);}
	.st10{fill:url(#XMLID_194_);}
	.st11{fill:url(#XMLID_195_);}
	.st12{fill:url(#XMLID_196_);}
	.st13{fill:#20EDE3;}
	.st14{fill:#13A095;}
	.st15{fill:#0F5E56;}
	.st16{fill:url(#XMLID_218_);}
	.st17{fill:url(#XMLID_220_);}
	.st18{fill:url(#XMLID_221_);}
	.st19{fill:#4943ED;}
	.st20{fill:#FFFFFF;}
	.st21{fill:url(#XMLID_222_);}
	.st22{fill:url(#XMLID_223_);}
	.st23{fill:#2121E8;}
	.st24{fill:none;stroke:#EF8E1D;stroke-width:0.454;stroke-miterlimit:10;}
	.st25{fill:#DB2F19;}
	.st26{fill:#FFA44A;}
	.st27{fill:none;stroke:#FFFFFF;stroke-width:0.454;stroke-miterlimit:10;}
	.st28{fill:#C65446;}
	.st29{fill:#9E9E9E;}
	.st30{fill:#80A9FF;}
	.st31{fill:#FFE519;}
	.st32{fill:#1C1C75;}
	.st33{fill:#1E1EA8;}
	.st34{fill:url(#XMLID_224_);}
	.st35{fill:#3B3B52;}
	.st36{fill:#FF9C9C;}
	.st37{fill:url(#XMLID_227_);}
	.st38{fill:url(#XMLID_228_);}
	.st39{fill:url(#XMLID_229_);}
	.st40{fill:url(#XMLID_230_);}
	.st41{fill:url(#XMLID_232_);}
	.st42{fill:url(#XMLID_234_);}
	.st43{fill:url(#XMLID_235_);}
	.st44{fill:url(#XMLID_237_);}
	.st45{fill:url(#XMLID_239_);}
	.st46{fill:url(#XMLID_240_);}
	.st47{fill-rule:evenodd;clip-rule:evenodd;fill:#FFFFFF;}
</style>
<g id="XMLID_30_">
	<g id="XMLID_9_">
		<path id="XMLID_51_" class="st0" d="M102.6,403.6c42.2,29.6,153.2,87.7,243.5,62.4c90.3-25.3,139.4-59.7,156.8-147.3
			c17.4-87.5,14.8-200.1-39.7-238.1c-55.9-38.9-119.6-63.5-151.6-48.5C279.8,47,262,124.5,248.8,179.7
			C222.6,289.5-18.8,318.4,102.6,403.6z"/>
		<g id="XMLID_52_">
			<linearGradient id="XMLID_185_" gradientUnits="userSpaceOnUse" x1="311.2607" y1="395.7821" x2="293.4517" y2="430.2384">
				<stop  offset="0" style="stop-color:#EF8E1D"/>
				<stop  offset="1" style="stop-color:#A7A3FF;stop-opacity:0"/>
			</linearGradient>
			<polygon id="XMLID_53_" class="st1" points="322.5,458 271,446 271,389.8 322.5,389.8 			"/>
			<g id="XMLID_54_">
				<linearGradient id="XMLID_186_" gradientUnits="userSpaceOnUse" x1="271.6268" y1="382.2101" x2="322.4806" y2="382.2101">
					<stop  offset="2.504010e-003" style="stop-color:#EF8E1D"/>
					<stop  offset="0.4529" style="stop-color:#EF6D1D"/>
				</linearGradient>
				<path id="XMLID_55_" class="st2" d="M322.5,414.7l-11.9,7.3l-27.8-29.7L271.8,352c-0.5-1.7,0.2-3.6,1.8-4.5l7.3-4.5
					c1.2-0.8,2.8-0.8,4.1-0.1l34.2,19.4c2.1,1.2,3.4,3.4,3.4,5.8V414.7z"/>
			</g>
			<g id="XMLID_56_">
				<linearGradient id="XMLID_187_" gradientUnits="userSpaceOnUse" x1="304.7346" y1="410.512" x2="266.7024" y2="345.2283">
					<stop  offset="2.504010e-003" style="stop-color:#EF8E1D"/>
					<stop  offset="1" style="stop-color:#FFE619"/>
				</linearGradient>
				<path id="XMLID_57_" class="st3" d="M310.6,421.9L271,399.5v-47c0-1.5,1.6-2.4,2.9-1.7l33.4,18.9c2.1,1.2,3.4,3.4,3.4,5.8V421.9
					z"/>
				<path id="XMLID_58_" class="st4" d="M295.6,383.8c0-3.5-2.2-7.6-5-9.1c-2.7-1.6-5,0-5,3.5c0,2.5,1.1,5.2,2.8,7.2l-1.6,8l7.6,4.3
					l-1.6-9.8C294.4,387.8,295.6,386.3,295.6,383.8z"/>
			</g>
			<g id="XMLID_59_">
				<path id="XMLID_60_" class="st5" d="M307.4,364c-1.4,0-2.5-1.1-2.5-2.5v-17.2c0-6.1-4.1-13.4-9-16c-1.8-0.9-3.3-1.1-4.4-0.4
					c-1.3,0.8-2.1,2.8-2.1,5.5v17.2c0,1.4-1.1,2.5-2.5,2.5s-2.5-1.1-2.5-2.5v-17.2c0-4.5,1.7-8.1,4.6-9.8c2.7-1.6,6.1-1.5,9.5,0.3
					c6.5,3.5,11.7,12.5,11.7,20.5v17.2C309.9,362.9,308.8,364,307.4,364z"/>
			</g>
		</g>
		<g id="XMLID_61_">
			
				<linearGradient id="XMLID_188_" gradientUnits="userSpaceOnUse" x1="554.314" y1="150.2829" x2="554.314" y2="208.7267" gradientTransform="matrix(0.9429 -0.3332 0.3332 0.9429 -477.5357 253.8416)">
				<stop  offset="0" style="stop-color:#80A9FF"/>
				<stop  offset="0.2303" style="stop-color:#7899FF"/>
				<stop  offset="0.6809" style="stop-color:#636EFF"/>
				<stop  offset="1" style="stop-color:#524CFF"/>
			</linearGradient>
			<path id="XMLID_25_" class="st6" d="M117.3,221.4c-8.3,11.3-8.1,23.6-6.8,31.2l-3.4-9.6c-1.3-3.7-1.6-7.7-0.8-11.5
				c0.8-4.3,2-8.5,1.9-12.6c-0.1-8.5-10.6-17.4-11.6-23.3c0,0-6.8,15-3.3,26.8c2.7,9,8.9,17.7,11.8,21.4c0.5,0.6,0.9,1.3,1.2,2.1
				l3.7,10.4c-4.1-6.4-11.4-14.2-23.2-17.3c0,0,0.9,4,3.7,10.4c4.6,10.7,16.6,10.1,22.1,14.1l8.8,24.8l1.7-0.6l-8.7-24.6
				c-1.4-4.1-0.9-8.6,1.4-12.3c3.3-5.1,7.5-10.9,5.3-18.9C119.2,225.1,117.3,221.4,117.3,221.4z"/>
			
				<linearGradient id="XMLID_189_" gradientUnits="userSpaceOnUse" x1="559.7183" y1="143.3327" x2="559.7183" y2="172.8282" gradientTransform="matrix(0.9429 -0.3332 0.3332 0.9429 -477.5357 253.8416)">
				<stop  offset="0" style="stop-color:#524CFF"/>
				<stop  offset="0.1862" style="stop-color:#5852FF;stop-opacity:0.8138"/>
				<stop  offset="0.4265" style="stop-color:#6762FF;stop-opacity:0.5735"/>
				<stop  offset="0.6966" style="stop-color:#817CFF;stop-opacity:0.3034"/>
				<stop  offset="0.9865" style="stop-color:#A5A1FF;stop-opacity:1.346356e-002"/>
				<stop  offset="1" style="stop-color:#A7A3FF;stop-opacity:0"/>
			</linearGradient>
			<path id="XMLID_24_" class="st7" d="M107.2,242.9c-1.3-3.7-1.6-7.7-0.8-11.5c0.8-4.3,2-8.5,1.9-12.6
				c-0.1-8.5-10.6-17.4-11.6-23.3C95.2,207.8,100.8,225.7,107.2,242.9z"/>
		</g>
		<linearGradient id="XMLID_192_" gradientUnits="userSpaceOnUse" x1="156.0194" y1="181.319" x2="175.4694" y2="285.0517">
			<stop  offset="0" style="stop-color:#80A9FF"/>
			<stop  offset="0.2858" style="stop-color:#7FA6FF"/>
			<stop  offset="0.478" style="stop-color:#7A9DFF"/>
			<stop  offset="0.6427" style="stop-color:#738EFF"/>
			<stop  offset="0.7919" style="stop-color:#6879FF"/>
			<stop  offset="0.9293" style="stop-color:#5B5DFF"/>
			<stop  offset="1" style="stop-color:#524CFF"/>
		</linearGradient>
		<path id="XMLID_62_" class="st8" d="M100.9,320.2c0,0-4.1-44.8,4-49.3c8.1-4.5,12.5,11.7,19.5,8.8c7-2.9-3.4-49.8,12-53
			c12-2.5,21.7,27,21.7,27s4.8-72.5,16.7-71.4c11.9,1.1,16.7,46.9,16.7,46.9s10.3-88.6,28.8-90.6c18.5-1.9,20,95,20,95
			S139.5,303,100.9,320.2z"/>
		<linearGradient id="XMLID_193_" gradientUnits="userSpaceOnUse" x1="301.8539" y1="264.3788" x2="272.3068" y2="316.7576">
			<stop  offset="0" style="stop-color:#524CFF"/>
			<stop  offset="0.1862" style="stop-color:#5852FF;stop-opacity:0.8138"/>
			<stop  offset="0.4265" style="stop-color:#6762FF;stop-opacity:0.5735"/>
			<stop  offset="0.6966" style="stop-color:#817CFF;stop-opacity:0.3034"/>
			<stop  offset="0.9865" style="stop-color:#A5A1FF;stop-opacity:1.346356e-002"/>
			<stop  offset="1" style="stop-color:#A7A3FF;stop-opacity:0"/>
		</linearGradient>
		<polygon id="XMLID_63_" class="st9" points="330.9,361.7 223.9,300.1 223.9,253.8 330.9,315.5 		"/>
		
			<linearGradient id="XMLID_194_" gradientUnits="userSpaceOnUse" x1="705.1838" y1="32.6409" x2="812.3906" y2="226.5064" gradientTransform="matrix(-1 0 0 1 1176.13 0)">
			<stop  offset="0" style="stop-color:#524CFF"/>
			<stop  offset="0.5943" style="stop-color:#8782FF;stop-opacity:0.4057"/>
			<stop  offset="1" style="stop-color:#A7A3FF;stop-opacity:0"/>
		</linearGradient>
		<path id="XMLID_23_" class="st10" d="M388.2,105c37.3,21.6,67.5,73.8,67.4,116.7c-0.1,42.9-30.5,60.3-67.8,38.7
			c-37.3-21.6-67.5-73.9-67.4-116.8C320.5,100.7,350.9,83.4,388.2,105"/>
		<linearGradient id="XMLID_195_" gradientUnits="userSpaceOnUse" x1="152.3784" y1="413.7011" x2="261.9836" y2="331.4973">
			<stop  offset="0" style="stop-color:#F2F1FF;stop-opacity:0"/>
			<stop  offset="0.967" style="stop-color:#A7A3FF"/>
		</linearGradient>
		<path id="XMLID_22_" class="st11" d="M185.1,356.8c-20.1,11.6-25.6,27.4-12.2,35.2s40.8,4.6,60.9-7c20.1-11.6,25.6-27.4,12.2-35.2
			C232.6,342,205.2,345.2,185.1,356.8z"/>
		
			<linearGradient id="XMLID_196_" gradientUnits="userSpaceOnUse" x1="875.8367" y1="92.0388" x2="843.7263" y2="30.6933" gradientTransform="matrix(-1 0 0 1 1154.4055 0)">
			<stop  offset="0" style="stop-color:#524CFF"/>
			<stop  offset="0.6109" style="stop-color:#8984FF;stop-opacity:0.3891"/>
			<stop  offset="1" style="stop-color:#A7A3FF;stop-opacity:0"/>
		</linearGradient>
		<path id="XMLID_21_" class="st12" d="M278.1,41c8.1,4.7,14.9,14.8,17,24.5c1.7-0.3,3.7,0.2,5.9,1.4c5.8,3.4,10.6,11.3,10.9,18.1
			l4.6,2.7c5,2.9,9.1,9.9,9,15.7c0,5.7-4.1,8.1-9.1,5.2l-63.1-36.4c-5-2.9-9.1-9.9-9-15.7c0-5.8,4.1-8.1,9.1-5.2l0.4,0.2
			c0-0.4-0.1-0.9-0.1-1.3c0-4.9,3.3-7,7.5-5C263.6,38.5,270.3,36.5,278.1,41"/>
		<g id="XMLID_64_">
			<path id="XMLID_65_" class="st13" d="M680.3,101.3l-15.7-9l-15.5,8.9c-2.2,1.3-4.2,0.8-4.9-1.2c-0.7-2-1.5-3.9-2.5-5.5
				c-1-1.7-0.6-4.7,1-7.3l4.3-7.5l4.7,1.4l10.6-9.5l-15.5-8.7l0,0.1c-2.8-1.6-5.8-2.9-9-3.6l-10.9,18.9c-1,1.7-2.3,3.1-3.6,3.8
				c-0.8,0.4-1.5,0.7-2.3,0.7c-1.4,0-2.9,0.1-4.4,0.4l10.4-12.1l-15.7-9c-3.6,1.4-7.3,3.1-11.1,5.3c-3.8,2.2-7.5,4.8-11.1,7.6
				l0,17.8c0,2.5-1.4,5.6-3.5,7.6c-2.1,2-4.1,4.1-6,6.4c-0.7,0.8-1.5,1.5-2.3,1.9c-1.3,0.8-2.6,0.9-3.6,0.4l-11-6.3
				c-6.1,8.5-11.4,17.7-15.7,27.2l11,6.3c1.5,0.9,2,3.4,1,6.2c-1,2.8-1.8,5.6-2.5,8.4c-0.7,2.8-2.7,5.5-4.8,6.8l-15.5,8.9
				c-0.6,4.5-1,9-1,13.4c0,4.4,0.4,8.4,1,12.2l15.7,9l7-5.4c-0.2,0.5-0.4,1-0.7,1.5L547.4,216c2.3,2.4,4.9,4.4,7.7,5.9l0,0l15.4,8.8
				l8.5-16.6l-7.3-3.8l2.5-4.3c1-1.7,2.3-3.1,3.6-3.8c0.8-0.4,1.6-0.7,2.3-0.7c1.9,0,4-0.2,6-0.6c2.1-0.4,3.5,1.1,3.5,3.6l0.1,17.8
				l15.7,9l10.9-15.4l-4.3-12l0-12.3c0-2.5,1.4-5.6,3.5-7.6c3.3-3.1,6.3-6.6,9.2-10.2l13.7,7.8c6.1-8.4,11.4-17.7,15.7-27.2l-11-6.3
				c-1.6-0.9-2-3.4-1-6.2c1-2.8,1.8-5.6,2.5-8.4c0.7-2.8,2.7-5.5,4.9-6.8l15.5-8.9c0-0.2,0-0.4,0.1-0.6l4.6,0.2L680.3,101.3z
				 M571.5,179.7l-0.1,0l0-0.2C571.4,179.5,571.4,179.6,571.5,179.7z M600.6,169.9c-13.3,7.7-24.2,1.5-24.2-13.8
				c0-15.3,10.8-34,24.1-41.7c13.4-7.7,24.2-1.5,24.2,13.8C624.7,143.5,613.9,162.2,600.6,169.9z"/>
			<path id="XMLID_66_" class="st14" d="M660.1,142.6c0.7-2.8,2.7-5.5,4.9-6.8l15.5-8.9c0.6-4.5,1-9,1-13.4c0-4.4-0.4-8.4-1-12.2
				l-15.5,8.9c-2.2,1.3-4.2,0.8-4.9-1.2c-0.7-2-1.5-3.9-2.5-5.5c-1-1.7-0.6-4.7,1-7.3l10.9-18.9c-4.3-4.5-9.7-7.6-15.8-9l-10.9,18.9
				c-1,1.7-2.3,3.1-3.6,3.8c-0.8,0.4-1.5,0.7-2.3,0.7c-1.9,0-4,0.2-6.1,0.6c-2.1,0.4-3.5-1.1-3.5-3.6l-0.1-17.8
				c-3.6,1.4-7.3,3.1-11.1,5.3c-3.8,2.2-7.5,4.8-11.1,7.6l0.1,17.8c0,2.5-1.4,5.6-3.5,7.6c-2.1,2-4.1,4.1-6,6.4
				c-0.7,0.8-1.5,1.5-2.3,1.9c-1.3,0.8-2.6,0.9-3.6,0.4l-11-6.3c-6.1,8.5-11.4,17.7-15.7,27.2l11,6.3c1.5,0.9,2,3.4,1,6.2
				c-1,2.8-1.8,5.6-2.5,8.4c-0.7,2.8-2.7,5.5-4.8,6.8l-15.5,8.9c-0.6,4.5-1,9-1,13.4c0,4.4,0.4,8.4,1,12.2l15.5-8.9
				c2.2-1.3,4.2-0.8,4.9,1.2c0.7,2,1.6,3.8,2.5,5.5c1,1.7,0.6,4.7-1,7.4L563,225c4.3,4.6,9.7,7.6,15.8,9l10.9-18.9
				c1-1.7,2.3-3.1,3.6-3.8c0.8-0.4,1.6-0.7,2.3-0.7c1.9,0,4-0.2,6-0.6c2.1-0.4,3.5,1.1,3.5,3.6l0.1,17.8c3.7-1.4,7.4-3.1,11.1-5.2
				c3.8-2.2,7.5-4.8,11.1-7.6l-0.1-17.8c0-2.5,1.4-5.6,3.5-7.6c3.3-3.1,6.3-6.6,9.2-10.2l13.7,7.8c6.1-8.4,11.4-17.7,15.7-27.2
				l-11-6.3c-1.6-0.9-2-3.4-1-6.2C658.6,148.2,659.4,145.4,660.1,142.6z M616.1,123.4c13.4-7.7,24.2-1.5,24.2,13.8
				c0,15.3-10.7,34-24.1,41.7c-13.3,7.7-24.2,1.5-24.2-13.8C591.9,149.7,602.7,131,616.1,123.4z M587.1,188.6l-0.1,0l0-0.2
				C587,188.5,587.1,188.6,587.1,188.6z"/>
			<path id="XMLID_11_" class="st15" d="M616.3,190.5c-18.9,10.9-34.3,2.1-34.4-19.6c-0.1-21.7,15.3-48.3,34.2-59.2
				c18.9-10.9,34.3-2.1,34.4,19.6C650.5,153.1,635.2,179.6,616.3,190.5 M616,108.3c-20.5,11.9-37.2,40.7-37.1,64.4
				c0.1,23.6,16.8,33.2,37.4,21.3c20.6-11.9,37.2-40.7,37.2-64.4C653.4,106,636.6,96.4,616,108.3"/>
		</g>
		<g id="XMLID_67_">
			<linearGradient id="XMLID_218_" gradientUnits="userSpaceOnUse" x1="122.4401" y1="299.5823" x2="122.4401" y2="357.7814">
				<stop  offset="2.504010e-003" style="stop-color:#EF8E1D"/>
				<stop  offset="0.4529" style="stop-color:#EF6D1D"/>
			</linearGradient>
			<path id="XMLID_68_" class="st16" d="M156.1,338.3l-64.5,37.4c-1.3,0.7-2.9-0.2-2.9-1.7v-52l67.4-39.1V338.3z"/>
			<linearGradient id="XMLID_220_" gradientUnits="userSpaceOnUse" x1="102.2542" y1="352.1398" x2="125.0446" y2="390.228">
				<stop  offset="0" style="stop-color:#EF8E1D"/>
				<stop  offset="1" style="stop-color:#A7A3FF;stop-opacity:0"/>
			</linearGradient>
			<path id="XMLID_69_" class="st17" d="M159,397.5l-67.3,39c-1.3,0.8-3-0.2-3-1.7v-51.9c0-1.5,0.8-2.8,2-3.5l66.6-38.6
				c0.7-0.4,1.6,0.1,1.6,0.9V397.5z"/>
			<linearGradient id="XMLID_221_" gradientUnits="userSpaceOnUse" x1="86.5527" y1="365.3111" x2="153.2589" y2="306.6905">
				<stop  offset="2.504010e-003" style="stop-color:#EF8E1D"/>
				<stop  offset="1" style="stop-color:#FFE619"/>
			</linearGradient>
			<path id="XMLID_70_" class="st18" d="M156.9,338l-65.6,38v-49.4l19.6-11.3l7.6,4.8l40.2-23.3v38C158.7,336.1,158,337.3,156.9,338
				z"/>
		</g>
		<g id="XMLID_29_">
			
				<image style="overflow:visible;opacity:0.36;" width="373" height="851" id="XMLID_997_" xlink:href="CF90BBEB.png"  transform="matrix(0.24 0 0 0.24 330.0282 191.0119)">
			</image>
			<g id="XMLID_656_">
				<g id="XMLID_895_">
					<polygon id="XMLID_947_" class="st4" points="409.4,385.1 340.1,344.9 340.1,201.1 409.4,241.2 					"/>
					<polygon id="XMLID_946_" class="st19" points="409.4,257.8 340.1,217.6 340.1,201.1 409.4,241.2 					"/>
					<g id="XMLID_942_">
						
							<image style="overflow:visible;opacity:0.36;" width="265" height="277" id="XMLID_945_" xlink:href="CF90BBE9.png"  transform="matrix(0.24 0 0 0.24 342.9661 237.6452)">
						</image>
						<g id="XMLID_943_">
							<polygon id="XMLID_944_" class="st4" points="396.6,294 352.8,268.7 352.8,247.5 396.6,272.9 							"/>
						</g>
					</g>
					<g id="XMLID_932_">
						<path id="XMLID_940_" class="st20" d="M368.3,262.7c0.1,0,0.1,0.1,0.2,0.2c0,0.1,0.1,0.2,0.1,0.2v7c0,0.1,0,0.1-0.1,0.2
							c0,0-0.1,0-0.2,0l-0.7-0.4c-0.1,0-0.1-0.1-0.2-0.2c0-0.1-0.1-0.2-0.1-0.2v-2.9l-2.5-1.4v2.9c0,0.1,0,0.1-0.1,0.2
							c0,0-0.1,0-0.2,0l-0.7-0.4c-0.1,0-0.1-0.1-0.2-0.2c0-0.1-0.1-0.2-0.1-0.2v-7c0-0.1,0-0.1,0.1-0.2c0,0,0.1,0,0.2,0l0.7,0.4
							c0.1,0,0.1,0.1,0.2,0.2c0,0.1,0.1,0.2,0.1,0.2v2.8l2.5,1.4v-2.8c0-0.1,0-0.1,0.1-0.2c0,0,0.1,0,0.2,0L368.3,262.7z"/>
						<path id="XMLID_938_" class="st20" d="M373.9,266c0.1,0,0.1,0.1,0.2,0.2c0,0.1,0.1,0.2,0.1,0.2v0.8c0,0.1,0,0.1-0.1,0.2
							c0,0-0.1,0-0.2,0l-1.5-0.9v5.9c0,0.1,0,0.1-0.1,0.2c0,0-0.1,0-0.2,0l-0.7-0.4c-0.1,0-0.1-0.1-0.2-0.2c0-0.1-0.1-0.2-0.1-0.2
							v-5.9l-1.5-0.9c-0.1,0-0.1-0.1-0.2-0.2c0-0.1-0.1-0.2-0.1-0.2v-0.8c0-0.1,0-0.1,0.1-0.2c0,0,0.1,0,0.2,0L373.9,266z"/>
						<path id="XMLID_935_" class="st20" d="M377.9,272.1l1.6-2.7c0,0,0.1-0.1,0.1-0.1c0.1,0,0.1,0,0.2,0l0.6,0.3
							c0.1,0,0.1,0.1,0.2,0.2c0,0.1,0.1,0.2,0.1,0.2v7c0,0.1,0,0.1-0.1,0.2s-0.1,0-0.2,0l-0.7-0.4c-0.1,0-0.1-0.1-0.2-0.2
							c0-0.1-0.1-0.2-0.1-0.2v-4.2l-1.1,1.8c0,0-0.1,0.1-0.1,0.1c0,0-0.1,0-0.2,0l-0.4-0.2c-0.1,0-0.1-0.1-0.2-0.2
							c0-0.1-0.1-0.2-0.1-0.2l-1.1-3.1v4.2c0,0.1,0,0.1-0.1,0.2c0,0-0.1,0-0.2,0l-0.7-0.4c-0.1,0-0.1-0.1-0.2-0.2
							c0-0.1-0.1-0.2-0.1-0.2v-7c0-0.1,0-0.1,0.1-0.2c0,0,0.1,0,0.2,0l0.6,0.3c0.1,0.1,0.2,0.2,0.2,0.3c0.1,0.1,0.1,0.2,0.1,0.2
							L377.9,272.1z"/>
						<path id="XMLID_933_" class="st20" d="M385.9,279.1c0.1,0,0.1,0.1,0.2,0.2c0,0.1,0.1,0.2,0.1,0.2v0.8c0,0.1,0,0.1-0.1,0.2
							c0,0-0.1,0-0.2,0l-3.6-2.1c-0.1,0-0.1-0.1-0.2-0.2c0-0.1-0.1-0.2-0.1-0.2v-7c0-0.1,0-0.1,0.1-0.2c0,0,0.1,0,0.2,0l0.7,0.4
							c0.1,0,0.1,0.1,0.2,0.2c0,0.1,0.1,0.2,0.1,0.2v5.9L385.9,279.1z"/>
					</g>
					<g id="XMLID_928_">
						
							<image style="overflow:visible;opacity:0.36;" width="265" height="277" id="XMLID_931_" xlink:href="CF90BBEF.png"  transform="matrix(0.24 0 0 0.24 342.9661 270.4939)">
						</image>
						<g id="XMLID_929_">
							<polygon id="XMLID_930_" class="st4" points="396.6,326.9 352.8,301.5 352.8,280.4 396.6,305.7 							"/>
						</g>
					</g>
					<g id="XMLID_921_">
						<path id="XMLID_926_" class="st20" d="M370.4,302c0-0.1,0-0.1,0.1-0.2c0,0,0.1,0,0.2,0l0.7,0.4c0.1,0,0.1,0.1,0.2,0.2
							c0,0.1,0.1,0.2,0.1,0.2c0,0.3-0.1,0.5-0.2,0.8c-0.1,0.2-0.2,0.4-0.4,0.5c-0.2,0.1-0.4,0.2-0.8,0.2c-0.3,0-0.7-0.2-1.1-0.4
							c-0.4-0.2-0.7-0.5-1-0.8c-0.3-0.3-0.5-0.7-0.7-1c-0.2-0.4-0.4-0.8-0.5-1.2c-0.1-0.4-0.2-0.9-0.2-1.3c0-0.3,0-0.6,0-0.9
							c0-0.3,0-0.6,0-0.9c0-0.4,0.1-0.8,0.2-1.1c0.1-0.3,0.3-0.5,0.5-0.7c0.2-0.1,0.5-0.2,0.7-0.2s0.6,0.1,1,0.4
							c0.4,0.2,0.8,0.5,1.1,0.9c0.3,0.3,0.6,0.7,0.8,1c0.2,0.4,0.3,0.7,0.4,1.1c0.1,0.4,0.2,0.7,0.2,1c0,0.1,0,0.1-0.1,0.2
							c0,0-0.1,0-0.2,0l-0.7-0.4c-0.1,0-0.1-0.1-0.2-0.2c0-0.1-0.1-0.2-0.1-0.3c0-0.2-0.1-0.3-0.1-0.5c-0.1-0.2-0.1-0.3-0.2-0.5
							c-0.1-0.2-0.2-0.3-0.4-0.5c-0.2-0.2-0.3-0.3-0.6-0.4c-0.2-0.1-0.4-0.2-0.6-0.2c-0.2,0-0.3,0-0.4,0.1c-0.1,0.1-0.2,0.2-0.2,0.4
							c-0.1,0.2-0.1,0.4-0.1,0.6c0,0.3,0,0.6,0,0.9c0,0.3,0,0.6,0,0.9c0,0.2,0,0.5,0.1,0.7c0.1,0.2,0.1,0.5,0.2,0.7
							c0.1,0.2,0.2,0.4,0.4,0.6c0.2,0.2,0.3,0.3,0.6,0.5c0.2,0.1,0.4,0.2,0.6,0.2c0.2,0,0.3,0,0.4,0c0.1,0,0.2-0.1,0.3-0.2
							C370.4,302.2,370.4,302.1,370.4,302z"/>
						<path id="XMLID_924_" class="st20" d="M374.7,299.2c0.4,0.2,0.7,0.5,1,0.8c0.3,0.3,0.5,0.6,0.7,0.9c0.2,0.3,0.3,0.6,0.4,0.9
							c0.1,0.3,0.2,0.5,0.2,0.8c0,0.1,0,0.1-0.1,0.2c0,0-0.1,0-0.2,0l-0.6-0.3c-0.1-0.1-0.2-0.1-0.2-0.2c0-0.1-0.1-0.2-0.1-0.3
							c-0.1-0.2-0.2-0.5-0.4-0.7c-0.2-0.2-0.4-0.4-0.7-0.6c-0.1-0.1-0.3-0.1-0.4-0.2c-0.1,0-0.2,0-0.3,0c-0.1,0-0.2,0.1-0.2,0.1
							c-0.1,0.1-0.1,0.2-0.1,0.3c0,0.2,0,0.3,0.1,0.5c0.1,0.1,0.1,0.3,0.3,0.4c0.1,0.1,0.3,0.3,0.5,0.5c0.2,0.2,0.5,0.4,0.8,0.7
							c0.3,0.3,0.6,0.6,0.9,0.8c0.2,0.3,0.4,0.5,0.6,0.8c0.2,0.3,0.3,0.5,0.3,0.8c0.1,0.3,0.1,0.6,0.1,0.9c0,0.3-0.1,0.6-0.2,0.8
							c-0.1,0.2-0.3,0.4-0.5,0.4c-0.2,0.1-0.5,0.1-0.8,0c-0.3-0.1-0.6-0.2-1-0.4c-0.3-0.2-0.6-0.4-0.9-0.7c-0.3-0.3-0.5-0.5-0.7-0.9
							c-0.2-0.3-0.4-0.6-0.5-1c-0.1-0.3-0.2-0.7-0.2-1c0-0.1,0-0.1,0.1-0.2c0,0,0.1,0,0.2,0l0.6,0.3c0.1,0.1,0.2,0.1,0.2,0.2
							c0,0.1,0.1,0.2,0.1,0.3c0,0.1,0.1,0.2,0.1,0.4c0.1,0.1,0.1,0.3,0.2,0.4c0.1,0.1,0.2,0.3,0.4,0.4c0.1,0.1,0.3,0.3,0.5,0.4
							c0.2,0.1,0.3,0.2,0.5,0.2c0.2,0.1,0.3,0.1,0.4,0.1c0.1,0,0.2,0,0.3-0.1c0.1-0.1,0.1-0.2,0.1-0.4c0-0.2,0-0.3-0.1-0.5
							c-0.1-0.1-0.2-0.3-0.4-0.5c-0.2-0.2-0.4-0.3-0.6-0.5c-0.2-0.2-0.5-0.4-0.8-0.7c-0.3-0.2-0.5-0.5-0.7-0.7
							c-0.2-0.2-0.4-0.5-0.5-0.7c-0.1-0.3-0.2-0.5-0.3-0.8s-0.1-0.6-0.1-0.9c0-0.3,0.1-0.6,0.2-0.8c0.1-0.2,0.3-0.4,0.5-0.4
							c0.2-0.1,0.4-0.1,0.7-0.1C374.1,298.9,374.4,299,374.7,299.2z"/>
						<path id="XMLID_922_" class="st20" d="M380.3,302.4c0.4,0.2,0.7,0.5,1,0.8c0.3,0.3,0.5,0.6,0.7,0.9c0.2,0.3,0.3,0.6,0.4,0.9
							c0.1,0.3,0.2,0.5,0.2,0.8c0,0.1,0,0.1-0.1,0.2s-0.1,0-0.2,0l-0.6-0.3c-0.1-0.1-0.2-0.1-0.2-0.2c0-0.1-0.1-0.2-0.1-0.3
							c-0.1-0.2-0.2-0.5-0.4-0.7c-0.2-0.2-0.4-0.4-0.7-0.6c-0.1-0.1-0.3-0.1-0.4-0.2c-0.1,0-0.2,0-0.3,0c-0.1,0-0.2,0.1-0.2,0.1
							c-0.1,0.1-0.1,0.2-0.1,0.3c0,0.2,0,0.3,0.1,0.5c0.1,0.1,0.1,0.3,0.3,0.4c0.1,0.1,0.3,0.3,0.5,0.5c0.2,0.2,0.5,0.4,0.8,0.7
							c0.3,0.3,0.6,0.6,0.9,0.8c0.2,0.3,0.4,0.5,0.6,0.8c0.2,0.3,0.3,0.5,0.3,0.8c0.1,0.3,0.1,0.6,0.1,0.9c0,0.3-0.1,0.6-0.2,0.8
							c-0.1,0.2-0.3,0.4-0.5,0.4c-0.2,0.1-0.5,0.1-0.7,0c-0.3-0.1-0.6-0.2-1-0.4c-0.3-0.2-0.6-0.4-0.9-0.7c-0.3-0.3-0.5-0.5-0.7-0.9
							c-0.2-0.3-0.4-0.6-0.5-1c-0.1-0.3-0.2-0.7-0.2-1c0-0.1,0-0.1,0.1-0.2c0,0,0.1,0,0.2,0l0.6,0.3c0.1,0.1,0.2,0.1,0.2,0.2
							c0,0.1,0.1,0.2,0.1,0.3c0,0.1,0.1,0.2,0.1,0.4c0.1,0.1,0.1,0.3,0.2,0.4c0.1,0.1,0.2,0.3,0.4,0.4c0.1,0.1,0.3,0.3,0.5,0.4
							c0.2,0.1,0.3,0.2,0.5,0.2c0.2,0.1,0.3,0.1,0.4,0.1c0.1,0,0.2,0,0.3-0.1c0.1-0.1,0.1-0.2,0.1-0.4c0-0.2,0-0.3-0.1-0.5
							c-0.1-0.1-0.2-0.3-0.4-0.5c-0.2-0.2-0.4-0.3-0.6-0.5c-0.2-0.2-0.5-0.4-0.8-0.7c-0.3-0.2-0.5-0.5-0.7-0.7
							c-0.2-0.2-0.4-0.5-0.5-0.7c-0.1-0.3-0.2-0.5-0.3-0.8c-0.1-0.3-0.1-0.6-0.1-0.9c0-0.3,0.1-0.6,0.2-0.8c0.1-0.2,0.3-0.4,0.5-0.4
							c0.2-0.1,0.4-0.1,0.7-0.1C379.7,302.1,380,302.2,380.3,302.4z"/>
					</g>
					<g id="XMLID_917_">
						
							<image style="overflow:visible;opacity:0.36;" width="265" height="277" id="XMLID_920_" xlink:href="CF90BBE8.png"  transform="matrix(0.24 0 0 0.24 342.9661 303.3427)">
						</image>
						<g id="XMLID_918_">
							<polygon id="XMLID_919_" class="st4" points="396.6,359.7 352.8,334.4 352.8,313.2 396.6,338.6 							"/>
						</g>
					</g>
					<g id="XMLID_900_">
						<path id="XMLID_915_" class="st20" d="M363.6,326.4c0,0,0.1-0.1,0.1-0.1c0,0,0.1,0,0.2,0l0.5,0.3c0,0,0.1,0.1,0.1,0.1
							c0,0.1,0,0.1,0,0.2c0,0,0,0,0,0.1l-2.2,5.5c0,0,0,0.1-0.1,0.1c0,0-0.1,0-0.2,0l-0.5-0.3c0,0-0.1-0.1-0.1-0.1
							c0-0.1,0-0.1,0-0.2c0,0,0,0,0-0.1L363.6,326.4z"/>
						<path id="XMLID_913_" class="st20" d="M366.8,328.5c0.3,0.2,0.5,0.4,0.8,0.6c0.2,0.2,0.4,0.5,0.5,0.7c0.1,0.2,0.3,0.5,0.3,0.7
							c0.1,0.2,0.1,0.4,0.1,0.6c0,0.1,0,0.1,0,0.1c0,0-0.1,0-0.1,0l-0.4-0.3c-0.1,0-0.1-0.1-0.2-0.1c0-0.1-0.1-0.1-0.1-0.2
							c-0.1-0.2-0.2-0.4-0.3-0.5c-0.1-0.2-0.3-0.3-0.6-0.5c-0.1-0.1-0.2-0.1-0.3-0.1c-0.1,0-0.2,0-0.3,0c-0.1,0-0.1,0.1-0.2,0.1
							c0,0.1-0.1,0.1-0.1,0.2c0,0.1,0,0.2,0.1,0.3c0,0.1,0.1,0.2,0.2,0.3c0.1,0.1,0.2,0.2,0.4,0.4c0.2,0.1,0.4,0.3,0.6,0.5
							c0.3,0.2,0.5,0.4,0.7,0.6c0.2,0.2,0.3,0.4,0.5,0.6c0.1,0.2,0.2,0.4,0.3,0.6c0.1,0.2,0.1,0.4,0.1,0.7c0,0.3,0,0.5-0.1,0.6
							c-0.1,0.2-0.2,0.3-0.4,0.3c-0.2,0.1-0.4,0.1-0.6,0c-0.2,0-0.5-0.1-0.8-0.3c-0.2-0.1-0.5-0.3-0.7-0.5c-0.2-0.2-0.4-0.4-0.6-0.7
							c-0.2-0.2-0.3-0.5-0.4-0.7c-0.1-0.3-0.2-0.5-0.2-0.8c0-0.1,0-0.1,0-0.1c0,0,0.1,0,0.1,0l0.4,0.3c0.1,0,0.1,0.1,0.2,0.1
							c0,0.1,0.1,0.1,0.1,0.2c0,0.1,0.1,0.2,0.1,0.3c0,0.1,0.1,0.2,0.2,0.3c0.1,0.1,0.2,0.2,0.3,0.3c0.1,0.1,0.2,0.2,0.4,0.3
							c0.1,0.1,0.2,0.1,0.4,0.2c0.1,0,0.2,0.1,0.3,0.1c0.1,0,0.2,0,0.2-0.1c0.1-0.1,0.1-0.1,0.1-0.3c0-0.1,0-0.2-0.1-0.4
							c-0.1-0.1-0.1-0.2-0.3-0.4c-0.1-0.1-0.3-0.3-0.4-0.4c-0.2-0.2-0.4-0.3-0.6-0.5c-0.2-0.2-0.4-0.4-0.6-0.6
							c-0.2-0.2-0.3-0.4-0.4-0.6c-0.1-0.2-0.2-0.4-0.2-0.6c-0.1-0.2-0.1-0.4-0.1-0.7c0-0.3,0-0.5,0.1-0.6c0.1-0.2,0.2-0.3,0.4-0.3
							c0.1-0.1,0.3-0.1,0.5,0C366.3,328.3,366.5,328.4,366.8,328.5z"/>
						<path id="XMLID_911_" class="st20" d="M372.3,335.8c0-0.1,0-0.1,0.1-0.1c0,0,0.1,0,0.1,0l0.5,0.3c0,0,0.1,0.1,0.1,0.1
							c0,0.1,0.1,0.1,0,0.2c0,0.2-0.1,0.4-0.1,0.6c-0.1,0.2-0.2,0.3-0.3,0.4c-0.2,0.1-0.3,0.1-0.6,0.1c-0.2,0-0.5-0.1-0.8-0.3
							c-0.3-0.2-0.6-0.4-0.8-0.6c-0.2-0.2-0.4-0.5-0.6-0.8c-0.2-0.3-0.3-0.6-0.4-0.9c-0.1-0.3-0.1-0.7-0.2-1c0-0.2,0-0.5,0-0.7
							c0-0.3,0-0.5,0-0.7c0-0.3,0.1-0.6,0.2-0.8c0.1-0.2,0.2-0.4,0.4-0.5c0.2-0.1,0.3-0.2,0.6-0.1c0.2,0,0.5,0.1,0.8,0.3
							c0.3,0.2,0.6,0.4,0.8,0.7c0.2,0.3,0.4,0.5,0.6,0.8c0.2,0.3,0.3,0.5,0.3,0.8c0.1,0.3,0.1,0.5,0.1,0.8c0,0.1,0,0.1,0,0.1
							c0,0-0.1,0-0.1,0l-0.5-0.3c0,0-0.1-0.1-0.1-0.1c0-0.1-0.1-0.1-0.1-0.2c0-0.1,0-0.2-0.1-0.4c0-0.1-0.1-0.3-0.2-0.4
							c-0.1-0.1-0.2-0.3-0.3-0.4c-0.1-0.1-0.3-0.2-0.4-0.3c-0.2-0.1-0.3-0.1-0.4-0.2c-0.1,0-0.2,0-0.3,0.1c-0.1,0.1-0.1,0.2-0.2,0.3
							c0,0.1-0.1,0.3-0.1,0.4c0,0.2,0,0.4,0,0.7c0,0.3,0,0.5,0,0.7c0,0.2,0,0.4,0.1,0.5c0,0.2,0.1,0.3,0.2,0.5s0.2,0.3,0.3,0.4
							c0.1,0.1,0.3,0.3,0.4,0.4c0.2,0.1,0.3,0.2,0.4,0.2c0.1,0,0.2,0,0.3,0c0.1,0,0.1-0.1,0.2-0.2
							C372.2,336,372.2,335.9,372.3,335.8z"/>
						<path id="XMLID_908_" class="st20" d="M375.9,333.9c0.5,0.3,0.9,0.7,1.2,1.2c0.3,0.5,0.4,1,0.4,1.6c0,0.4-0.1,0.7-0.2,0.9
							c-0.1,0.2-0.4,0.3-0.6,0.3l0.9,2.6c0,0,0,0.1,0,0.1c0,0.1,0,0.1,0,0.1c0,0-0.1,0-0.1,0l-0.5-0.3c-0.1,0-0.1-0.1-0.2-0.2
							c0-0.1-0.1-0.1-0.1-0.2l-0.8-2.4l-0.8-0.5v1.9c0,0.1,0,0.1-0.1,0.1c0,0-0.1,0-0.1,0l-0.5-0.3c0,0-0.1-0.1-0.1-0.1
							c0-0.1-0.1-0.1-0.1-0.2v-5.4c0-0.1,0-0.1,0.1-0.1c0,0,0.1,0,0.1,0L375.9,333.9z M374.9,336l0.9,0.5c0.2,0.1,0.4,0.2,0.6,0.2
							c0.1,0,0.2-0.2,0.2-0.5c0-0.3-0.1-0.6-0.2-0.8c-0.1-0.2-0.3-0.4-0.6-0.5l-0.9-0.5V336z"/>
						<path id="XMLID_906_" class="st20" d="M378.6,341.4c0,0-0.1-0.1-0.1-0.1c0-0.1-0.1-0.1-0.1-0.2v-5.4c0-0.1,0-0.1,0.1-0.1
							c0,0,0.1,0,0.1,0l0.5,0.3c0,0,0.1,0.1,0.1,0.1c0,0.1,0.1,0.1,0.1,0.2v5.4c0,0.1,0,0.1-0.1,0.1c0,0-0.1,0-0.1,0L378.6,341.4z"
							/>
						<path id="XMLID_903_" class="st20" d="M382.4,337.7c0.5,0.3,0.9,0.7,1.2,1.2c0.3,0.5,0.4,1,0.4,1.6s-0.1,1-0.4,1.2
							c-0.3,0.2-0.7,0.1-1.2-0.2l-1-0.6v1.9c0,0.1,0,0.1-0.1,0.1c0,0-0.1,0-0.1,0l-0.5-0.3c0,0-0.1-0.1-0.1-0.1
							c0-0.1-0.1-0.1-0.1-0.2v-5.4c0-0.1,0-0.1,0.1-0.1c0,0,0.1,0,0.1,0L382.4,337.7z M381.3,339.8l1,0.6c0.2,0.1,0.4,0.2,0.6,0.1
							c0.1,0,0.2-0.2,0.2-0.5c0-0.3-0.1-0.6-0.2-0.8c-0.1-0.2-0.3-0.4-0.6-0.5l-1-0.6V339.8z"/>
						<path id="XMLID_901_" class="st20" d="M387.8,340.8c0,0,0.1,0.1,0.1,0.1c0,0.1,0.1,0.1,0.1,0.2v0.6c0,0.1,0,0.1-0.1,0.1
							c0,0-0.1,0-0.1,0l-1.1-0.7v4.6c0,0.1,0,0.1-0.1,0.1c0,0-0.1,0-0.1,0l-0.5-0.3c0,0-0.1-0.1-0.1-0.1c0-0.1-0.1-0.1-0.1-0.2v-4.6
							l-1.1-0.7c0,0-0.1-0.1-0.1-0.1c0-0.1-0.1-0.1-0.1-0.2v-0.6c0-0.1,0-0.1,0.1-0.1c0,0,0.1,0,0.1,0L387.8,340.8z"/>
					</g>
					<g id="XMLID_896_">
						<path id="XMLID_899_" class="st20" d="M348.2,214c0,1.1-0.7,1.6-1.5,1.1c-0.8-0.5-1.5-1.8-1.5-2.9s0.7-1.6,1.5-1.1
							C347.5,211.7,348.2,212.9,348.2,214z"/>
						<path id="XMLID_898_" class="st20" d="M353.7,217.2c0,1.1-0.7,1.6-1.5,1.1c-0.8-0.5-1.5-1.8-1.5-2.9c0-1.1,0.7-1.6,1.5-1.1
							C353,214.8,353.7,216.1,353.7,217.2z"/>
						<path id="XMLID_897_" class="st20" d="M359.2,220.4c0,1.1-0.7,1.6-1.5,1.1c-0.8-0.5-1.5-1.8-1.5-2.9c0-1.1,0.7-1.6,1.5-1.1
							C358.5,218,359.2,219.3,359.2,220.4z"/>
					</g>
				</g>
			</g>
		</g>
		<g id="XMLID_122_">
			<linearGradient id="XMLID_222_" gradientUnits="userSpaceOnUse" x1="446.1543" y1="206.4303" x2="453.9987" y2="44.4404">
				<stop  offset="0" style="stop-color:#524CFF"/>
				<stop  offset="0.2683" style="stop-color:#554FFF;stop-opacity:0.7317"/>
				<stop  offset="0.4692" style="stop-color:#5E59FF;stop-opacity:0.5308"/>
				<stop  offset="0.6482" style="stop-color:#6E69FF;stop-opacity:0.3518"/>
				<stop  offset="0.8144" style="stop-color:#847FFF;stop-opacity:0.1856"/>
				<stop  offset="0.9704" style="stop-color:#A19DFF;stop-opacity:2.962184e-002"/>
				<stop  offset="1" style="stop-color:#A7A3FF;stop-opacity:0"/>
			</linearGradient>
			<path id="XMLID_171_" class="st21" d="M454.4,194v-40.9c0-5.2,2.2-8.8,5.7-10.2c4.2-1.8,6.9-6.4,6.9-13.2
				c0-5.6-1.8-11.6-4.7-17.1c-0.5-0.9-1.3-1.4-1.9-1.2l0,0l-3.2,1.7l0.5,1.1l-1.3,1.4c-0.3,0.4-0.3,1.1,0,1.9
				c1.6,3.7,2.3,7.6,1.3,10.9c-1,3.4-3.9,4.9-7.4,3.9c-6.7-1.9-12.7-11-12.7-18.5c0-2.8,0.9-5,2.3-6.2c0.4-0.4,0.5-1.1,0.1-1.9
				l-3.6-7.8c-0.4-0.9-1.2-1.5-1.8-1.4l0,0l-0.1,0.1c0,0-0.1,0-0.1,0c-0.1,0-0.1,0.1-0.2,0.1l-2.7,1.4l0.2,1
				c-1.8,2.4-2.9,5.8-2.9,10c0,6.8,2.7,14.4,6.9,20.7c3.5,5.2,5.7,11.2,5.7,16.4v40.9c0,5.2-2.2,8.8-5.7,10.2
				c-4.2,1.8-6.9,6.4-6.9,13.2c0,6,2.1,12.5,5.4,18.2l-1.1,2.9l2.8-1.5l0,0c0.2,0,0.4-0.1,0.5-0.2l3.6-3.9c0.4-0.4,0.3-1.2-0.1-2
				c-1.7-3.4-2.6-7.2-2.2-10.5c0.7-4.8,4.4-6.9,8.9-5.1c6.2,2.6,11.5,11,11.5,18.1c0,2.5-0.7,4.3-1.8,5.6c-0.3,0.4-0.4,1.1,0,1.8
				l3,6.5l-0.6,4.4l3.1-1.5l0,0c0.1,0,0.3,0,0.4-0.1c2.9-2.3,4.7-6.4,4.7-11.9c0-6.8-2.7-14.4-6.9-20.7
				C456.7,205.2,454.4,199.3,454.4,194z"/>
			<linearGradient id="XMLID_223_" gradientUnits="userSpaceOnUse" x1="445.036" y1="61.6659" x2="445.036" y2="194.5007">
				<stop  offset="0" style="stop-color:#F2F1FF"/>
				<stop  offset="0.967" style="stop-color:#A7A3FF"/>
			</linearGradient>
			<path id="XMLID_172_" class="st22" d="M451.5,195.5v-40.9c0-5.2,2.2-8.8,5.7-10.2c4.2-1.8,6.9-6.4,6.9-13.2
				c0-5.6-1.8-11.6-4.7-17.1c-0.6-1.1-1.7-1.6-2.2-1.1l-3.7,4c-0.3,0.4-0.3,1.1,0,1.9c1.6,3.7,2.3,7.6,1.3,10.9
				c-1,3.4-3.9,4.9-7.4,3.9c-6.7-1.9-12.7-11-12.7-18.5c0-2.8,0.9-5,2.3-6.2c0.4-0.4,0.5-1.1,0.1-1.9l-3.6-7.8
				c-0.5-1-1.5-1.7-2.1-1.4c-3.4,2.1-5.6,6.4-5.6,12.5c0,6.8,2.7,14.4,6.9,20.7c3.5,5.2,5.7,11.2,5.7,16.4v40.9
				c0,5.2-2.2,8.8-5.7,10.2c-4.2,1.8-6.9,6.4-6.9,13.2c0,6.1,2.1,12.7,5.6,18.6c0.6,1,1.6,1.4,2.1,0.9l3.6-3.9
				c0.4-0.4,0.3-1.2-0.1-2c-1.7-3.4-2.6-7.2-2.2-10.5c0.7-4.8,4.4-6.9,8.9-5.1c6.2,2.6,11.5,11,11.5,18.1c0,2.5-0.7,4.3-1.8,5.6
				c-0.3,0.4-0.4,1.1,0,1.8l3.7,8c0.5,1.1,1.6,1.7,2.2,1.3c2.9-2.3,4.7-6.4,4.7-11.9c0-6.8-2.7-14.4-6.9-20.7
				C453.8,206.7,451.5,200.8,451.5,195.5z"/>
		</g>
		<g id="XMLID_28_">
			
				<image style="overflow:visible;opacity:0.36;" width="374" height="600" id="XMLID_530_" xlink:href="CF90BBE6.png"  transform="matrix(0.24 0 0 0.24 330.0282 92.201)">
			</image>
			<g id="XMLID_406_">
				<g id="XMLID_488_">
					<polygon id="XMLID_508_" class="st4" points="409.7,226 340.1,185.6 340.1,102.2 409.7,142.7 					"/>
					<polygon id="XMLID_507_" class="st19" points="409.7,163 340.1,122.5 340.1,102.2 409.7,142.7 					"/>
					<polygon id="XMLID_506_" class="st23" points="346.1,137.7 343.6,136.2 343.6,131.1 346.1,132.6 					"/>
					<line id="XMLID_505_" class="st24" x1="347.2" y1="133.3" x2="377.8" y2="151"/>
					<line id="XMLID_504_" class="st24" x1="347.2" y1="136.7" x2="377.8" y2="154.5"/>
					<line id="XMLID_503_" class="st24" x1="347.2" y1="140.2" x2="377.8" y2="158"/>
					<line id="XMLID_502_" class="st24" x1="347.2" y1="143.7" x2="392" y2="169.8"/>
					<path id="XMLID_501_" class="st25" d="M361.1,161.7l-11.8-6.9c-1.2-0.7-2.1-2.2-2.1-3.4v-1.9c0-1.2,1-1.6,2.1-0.9l11.8,6.9
						c1.2,0.7,2.1,2.2,2.1,3.4v1.9C363.3,162,362.3,162.4,361.1,161.7z"/>
					<polygon id="XMLID_500_" class="st23" points="346.1,166.4 343.6,165 343.6,159.9 346.1,161.3 					"/>
					<line id="XMLID_499_" class="st24" x1="347.2" y1="162" x2="391.6" y2="187.8"/>
					<line id="XMLID_498_" class="st24" x1="347.2" y1="165.5" x2="377.8" y2="183.2"/>
					<line id="XMLID_497_" class="st24" x1="347.2" y1="169" x2="377.8" y2="186.7"/>
					<line id="XMLID_496_" class="st24" x1="347.2" y1="172.4" x2="392" y2="198.5"/>
					<path id="XMLID_495_" class="st26" d="M361.1,190.4l-11.8-6.9c-1.2-0.7-2.1-2.2-2.1-3.4v-1.9c0-1.2,1-1.6,2.1-0.9l11.8,6.9
						c1.2,0.7,2.1,2.2,2.1,3.4v1.9C363.3,190.7,362.3,191.1,361.1,190.4z"/>
					<line id="XMLID_494_" class="st27" x1="405.9" y1="164.4" x2="405.9" y2="216.5"/>
					<path id="XMLID_493_" class="st28" d="M407.3,188.4c0,1.6-0.6,2.5-1.4,2.1c-0.8-0.4-1.4-2.1-1.4-3.7c0-1.6,0.6-2.5,1.4-2.1
						C406.7,185.1,407.3,186.8,407.3,188.4z"/>
					<g id="XMLID_489_">
						<path id="XMLID_492_" class="st20" d="M347.2,116.6c0,1.3-0.5,2.1-1.2,1.8c-0.7-0.4-1.2-1.8-1.2-3.1s0.5-2.1,1.2-1.8
							C346.7,113.8,347.2,115.2,347.2,116.6z"/>
						<path id="XMLID_491_" class="st20" d="M351.5,119c0,1.3-0.5,2.1-1.2,1.8s-1.2-1.8-1.2-3.1c0-1.3,0.5-2.1,1.2-1.8
							C351,116.3,351.5,117.7,351.5,119z"/>
						<path id="XMLID_490_" class="st20" d="M355.8,121.5c0,1.3-0.5,2.1-1.2,1.8c-0.7-0.4-1.2-1.8-1.2-3.1s0.5-2.1,1.2-1.8
							C355.2,118.8,355.8,120.2,355.8,121.5z"/>
					</g>
				</g>
			</g>
		</g>
		<g id="XMLID_26_">
			
				<image style="overflow:visible;opacity:0.36;" width="552" height="1076" id="XMLID_936_" xlink:href="CF90BBE7.png"  transform="matrix(0.24 0 0 0.24 213.8568 60.8763)">
			</image>
			<g id="XMLID_622_">
				<g id="XMLID_833_">
					<polygon id="XMLID_884_" class="st4" points="330.9,309.1 223.9,247.3 223.9,70.9 330.9,132.7 					"/>
					<polygon id="XMLID_883_" class="st19" points="330.9,153 223.9,91.2 223.9,70.9 330.9,132.7 					"/>
					<path id="XMLID_882_" class="st26" d="M238.3,186.8c0,1.7-0.8,2.5-1.7,2s-1.7-2.3-1.7-4c0-1.7,0.8-2.5,1.7-2
						C237.5,183.4,238.3,185.2,238.3,186.8z"/>
					<polygon id="XMLID_881_" class="st29" points="266.2,206 240.2,190.9 240.2,186 266.2,201 					"/>
					<polygon id="XMLID_880_" class="st30" points="289.4,225.6 240.2,197.2 240.2,195.3 289.4,223.8 					"/>
					<polygon id="XMLID_879_" class="st5" points="314.9,240.4 291.5,226.8 291.5,225 314.9,238.5 					"/>
					<polygon id="XMLID_878_" class="st5" points="265.1,215.8 240.2,201.4 240.2,199.5 265.1,213.9 					"/>
					<polygon id="XMLID_877_" class="st30" points="314.9,244.6 268.1,217.5 268.1,215.7 314.9,242.7 					"/>
					<polygon id="XMLID_876_" class="st30" points="289.4,234.7 240.2,206.3 240.2,204.5 289.4,232.9 					"/>
					<polygon id="XMLID_875_" class="st30" points="314.9,249.5 291.5,236 291.5,234.1 314.9,247.6 					"/>
					<polygon id="XMLID_874_" class="st31" points="244.2,212.9 240.2,210.5 240.2,208.7 244.2,211 					"/>
					<polygon id="XMLID_873_" class="st31" points="250,216.2 246,213.9 246,212 250,214.4 					"/>
					<polygon id="XMLID_872_" class="st31" points="255.8,219.6 251.8,217.2 251.8,215.4 255.8,217.7 					"/>
					<polygon id="XMLID_871_" class="st31" points="261.6,222.9 257.6,220.6 257.6,218.7 261.6,221.1 					"/>
					<polygon id="XMLID_870_" class="st31" points="267.5,226.3 263.4,223.9 263.4,222.1 267.5,224.4 					"/>
					<polygon id="XMLID_869_" class="st31" points="273.3,229.6 269.2,227.3 269.2,225.4 273.3,227.8 					"/>
					<path id="XMLID_868_" class="st26" d="M238.3,222c0,1.7-0.8,2.5-1.7,2s-1.7-2.3-1.7-4c0-1.7,0.8-2.5,1.7-2
						C237.5,218.6,238.3,220.4,238.3,222z"/>
					<polygon id="XMLID_867_" class="st29" points="266.2,241.1 240.2,226.1 240.2,221.1 266.2,236.2 					"/>
					<polygon id="XMLID_866_" class="st30" points="289.4,260.8 240.2,232.4 240.2,230.5 289.4,258.9 					"/>
					<polygon id="XMLID_865_" class="st5" points="314.9,275.5 291.5,262 291.5,260.2 314.9,273.7 					"/>
					<polygon id="XMLID_864_" class="st30" points="265.1,251 240.2,236.6 240.2,234.7 265.1,249.1 					"/>
					<polygon id="XMLID_863_" class="st30" points="314.9,279.7 268.1,252.7 268.1,250.8 314.9,277.9 					"/>
					<polygon id="XMLID_862_" class="st5" points="289.4,269.9 240.2,241.5 240.2,239.6 289.4,268 					"/>
					<polygon id="XMLID_861_" class="st5" points="314.9,284.7 291.5,271.1 291.5,269.3 314.9,282.8 					"/>
					<polygon id="XMLID_860_" class="st31" points="244.2,248 240.2,245.7 240.2,243.8 244.2,246.2 					"/>
					<polygon id="XMLID_859_" class="st31" points="250,251.4 246,249 246,247.2 250,249.5 					"/>
					<polygon id="XMLID_858_" class="st31" points="255.8,254.7 251.8,252.4 251.8,250.5 255.8,252.9 					"/>
					<polygon id="XMLID_857_" class="st31" points="261.6,258.1 257.6,255.7 257.6,253.9 261.6,256.2 					"/>
					<polygon id="XMLID_856_" class="st31" points="267.5,261.4 263.4,259.1 263.4,257.2 267.5,259.6 					"/>
					<polygon id="XMLID_855_" class="st31" points="273.3,264.8 269.2,262.4 269.2,260.6 273.3,262.9 					"/>
					<g id="XMLID_851_">
						<path id="XMLID_854_" class="st20" d="M231.4,85.4c0,1.3-0.6,2.1-1.4,1.6c-0.8-0.4-1.4-1.9-1.4-3.2s0.6-2.1,1.4-1.6
							C230.8,82.6,231.4,84.1,231.4,85.4z"/>
						<path id="XMLID_853_" class="st20" d="M236.5,88.3c0,1.3-0.6,2.1-1.4,1.6c-0.8-0.4-1.4-1.9-1.4-3.2c0-1.3,0.6-2.1,1.4-1.6
							C235.9,85.5,236.5,87,236.5,88.3z"/>
						<path id="XMLID_852_" class="st20" d="M241.6,91.3c0,1.3-0.6,2.1-1.4,1.6c-0.8-0.4-1.4-1.9-1.4-3.2s0.6-2.1,1.4-1.6
							C240.9,88.5,241.6,89.9,241.6,91.3z"/>
					</g>
					<g id="XMLID_841_">
						
							<image style="overflow:visible;opacity:0.36;" width="305" height="514" id="XMLID_850_" xlink:href="CF90BBF7.png"  transform="matrix(0.24 0 0 0.24 264.8394 116.4233)">
						</image>
						<g id="XMLID_842_">
							<g id="XMLID_843_">
								<polygon id="XMLID_849_" class="st4" points="317.9,219.7 284.9,200.7 284.9,136.5 317.9,155.5 								"/>
								<polygon id="XMLID_848_" class="st19" points="317.9,168.2 284.9,149.2 284.9,136.5 317.9,155.5 								"/>
								<g id="XMLID_844_">
									<path id="XMLID_847_" class="st20" d="M289,145.2c0,0.9-0.4,1.4-1,1.1c-0.5-0.3-1-1.3-1-2.2s0.4-1.4,1-1.1
										C288.5,143.3,289,144.3,289,145.2z"/>
									<path id="XMLID_846_" class="st20" d="M292.4,147.2c0,0.9-0.4,1.4-1,1.1c-0.5-0.3-1-1.3-1-2.2s0.4-1.4,1-1.1
										C292,145.3,292.4,146.3,292.4,147.2z"/>
									<path id="XMLID_845_" class="st20" d="M295.9,149.2c0,0.9-0.4,1.4-1,1.1c-0.5-0.3-1-1.3-1-2.2c0-0.9,0.4-1.4,1-1.1
										C295.5,147.3,295.9,148.3,295.9,149.2z"/>
								</g>
							</g>
						</g>
					</g>
					<g id="XMLID_834_">
						<path id="XMLID_839_" class="st20" d="M291.3,174.3c0-0.2,0-0.4,0.1-0.5c0.1-0.1,0.2-0.2,0.3-0.3l4.6-2.8c0,0,0.1,0,0.1,0
							c0,0,0,0,0.1,0c0.1,0,0.2,0.1,0.2,0.3c0.1,0.1,0.1,0.3,0.1,0.4v1.1c0,0.2,0,0.4-0.1,0.6c-0.1,0.1-0.2,0.2-0.3,0.3l-3.7,2.2
							l3.7,6.5c0.1,0.2,0.2,0.4,0.3,0.6c0.1,0.2,0.1,0.5,0.1,0.7v1.1c0,0.1,0,0.3-0.1,0.3c-0.1,0.1-0.1,0.1-0.2,0c0,0,0,0-0.1,0
							c0,0-0.1-0.1-0.1-0.1l-4.6-8.1c-0.1-0.2-0.2-0.4-0.3-0.6c-0.1-0.2-0.1-0.4-0.1-0.6V174.3z"/>
						<path id="XMLID_837_" class="st20" d="M303.1,171.7c0-0.2,0.1-0.3,0.2-0.4c0.1-0.1,0.2-0.1,0.4,0l0.5,0.3
							c0.1,0,0.2,0.1,0.2,0.3c0.1,0.1,0.1,0.3,0.1,0.4c0,0.1,0,0.1,0,0.2l-4.7,17c0,0.1-0.1,0.3-0.2,0.4c-0.1,0.1-0.2,0.1-0.4,0
							l-0.4-0.2c-0.1,0-0.2-0.1-0.2-0.3c-0.1-0.1-0.1-0.3-0.1-0.4c0-0.1,0-0.1,0-0.2L303.1,171.7z"/>
						<path id="XMLID_835_" class="st20" d="M311.5,187c0,0.2,0,0.4-0.1,0.5c-0.1,0.1-0.2,0.2-0.3,0.3l-4.6,2.8c0,0-0.1,0-0.1,0
							c0,0,0,0-0.1,0c-0.1,0-0.2-0.1-0.2-0.3c-0.1-0.1-0.1-0.3-0.1-0.4v-1.1c0-0.2,0-0.4,0.1-0.6c0.1-0.1,0.2-0.2,0.3-0.3l3.7-2.2
							l-3.7-6.5c-0.1-0.2-0.2-0.4-0.3-0.6c-0.1-0.2-0.1-0.5-0.1-0.7v-1.1c0-0.1,0-0.3,0.1-0.3c0.1-0.1,0.1-0.1,0.2,0c0,0,0,0,0.1,0
							c0,0,0.1,0.1,0.1,0.1l4.6,8.1c0.1,0.2,0.2,0.4,0.3,0.6c0.1,0.2,0.1,0.4,0.1,0.6V187z"/>
					</g>
				</g>
			</g>
		</g>
		<g id="XMLID_269_">
			<path id="XMLID_326_" class="st32" d="M222.1,364.1c0,0,11.7-2.9,12.5-1.2c0.8,1.8-12.1,11.4-15.8,11.4c-3.7,0-0.6-9.3-0.6-9.3
				L222.1,364.1z"/>
			<path id="XMLID_327_" class="st32" d="M176.1,369.1c0,0,11.7-2.9,12.5-1.2c0.8,1.8-12.1,11.4-15.8,11.4c-3.7,0,0.3-9.5,0.3-9.5
				L176.1,369.1z"/>
			<path id="XMLID_328_" class="st33" d="M213.5,246.6c0,0-13.4,75.2-33.7,124c0,0-8.4,4.4-6.7-2.2c1.7-6.7,6.4-45.4,10.3-53
				c0,0-5.2-63.6-2.7-72.2L213.5,246.6z"/>
			<path id="XMLID_329_" class="st5" d="M228.2,243.1c0,0,9.8,44.6,7.5,63.3c-2.2,18.7-11.7,59.4-11.7,59.4s-9.6,8.4-8.9,2.8
				c0.8-5.6,3-55.2,3-55.2s-21.5-48.9-22.3-65.3L228.2,243.1z"/>
			<linearGradient id="XMLID_224_" gradientUnits="userSpaceOnUse" x1="212.5329" y1="229.9655" x2="190.6718" y2="280.276">
				<stop  offset="6.929090e-002" style="stop-color:#1C1C75"/>
				<stop  offset="1" style="stop-color:#1C1C75;stop-opacity:0"/>
			</linearGradient>
			<path id="XMLID_330_" class="st34" d="M228.2,243.1l-19.2,3l-28.4-3c-0.8,3-0.8,12.5-0.3,23.7c24.8,0.3,43-11.4,49.5-16.3
				C228.9,246,228.2,243.1,228.2,243.1z"/>
			<polygon id="XMLID_331_" class="st35" points="275.9,199.4 229.9,172.9 229.9,109.8 275.9,136.2 			"/>
			<path id="XMLID_332_" class="st31" d="M241.9,154.6c0.2,0.7,0.1,1.2-0.2,1.4l-2.5,1.4c1,2.2,2.2,4.3,3.6,6.2l3.1-1.8
				c0.7,0.8,1.4,1.6,2.1,2.3c0.5,0.5,0.8,1.2,0.8,1.7l0,4.1c0.8,0.6,1.7,1.2,2.5,1.7c0.9,0.5,1.7,0.9,2.5,1.2l0-4.1
				c0-0.6,0.3-0.9,0.8-0.8c0.5,0.1,0.9,0.1,1.4,0.1c0.2,0,0.3,0.1,0.5,0.2c0.3,0.2,0.6,0.5,0.8,0.9l2.5,4.3c1.4-0.3,2.6-1,3.6-2.1
				l-2.5-4.3c-0.4-0.6-0.4-1.3-0.2-1.7c0.2-0.4,0.4-0.8,0.6-1.3c0.2-0.5,0.6-0.6,1.1-0.3l3.5,2c0.1-0.9,0.2-1.8,0.2-2.8
				c0-1-0.1-2-0.2-3.1l-3.5-2c-0.5-0.3-0.9-0.9-1.1-1.6c-0.2-0.6-0.3-1.3-0.6-1.9c-0.2-0.6-0.1-1.2,0.2-1.4l2.5-1.4
				c-1-2.2-2.2-4.3-3.6-6.2l-2.5,1.4c-0.2,0.1-0.5,0.1-0.8-0.1c-0.2-0.1-0.4-0.3-0.5-0.4c-0.4-0.5-0.9-1-1.4-1.5
				c-0.5-0.5-0.8-1.2-0.8-1.7l0-4.1c-0.8-0.6-1.7-1.2-2.5-1.7c-0.9-0.5-1.7-0.9-2.5-1.2l0,4.1c0,0.6-0.3,0.9-0.8,0.8
				c-0.5-0.1-0.9-0.1-1.4-0.1c-0.2,0-0.3-0.1-0.5-0.2c-0.3-0.2-0.6-0.5-0.8-0.9l-2.5-4.3c-1.4,0.3-2.6,1-3.6,2.1l2.5,4.3
				c0.4,0.6,0.4,1.3,0.2,1.7c-0.2,0.4-0.4,0.8-0.6,1.3c-0.2,0.5-0.6,0.6-1.1,0.3l-3.5-2c-0.1,0.9-0.2,1.8-0.2,2.8c0,1,0.1,2,0.2,3.1
				l3.5,2c0.5,0.3,1,0.9,1.1,1.5C241.5,153.3,241.7,153.9,241.9,154.6z M256.9,157.8c0,3.5-2.5,4.9-5.5,3.2c-3-1.8-5.5-6-5.5-9.5
				c0-3.5,2.5-4.9,5.5-3.2C254.4,150,256.9,154.3,256.9,157.8z"/>
			<path id="XMLID_333_" class="st36" d="M228.8,154.2l1.1-2.6v-3.3c0,0,3.3-1.7,2.5-2.3c-0.7-0.6-2.5-0.1-2.5-0.1v-5.3
				c0,0-4.8,2.7-4,11l-1.6,4L228.8,154.2z"/>
			<path id="XMLID_334_" class="st25" d="M206.6,179.1l17.4-25c0,0,5.6-1.6,5.9,1L218.5,184L206.6,179.1z"/>
			<linearGradient id="XMLID_227_" gradientUnits="userSpaceOnUse" x1="206.6277" y1="168.8138" x2="229.9385" y2="168.8138">
				<stop  offset="0" style="stop-color:#663819"/>
				<stop  offset="1" style="stop-color:#663819;stop-opacity:0"/>
			</linearGradient>
			<path id="XMLID_335_" class="st37" d="M206.6,179.1l17.4-25c0,0,5.6-1.6,5.9,1L218.5,184L206.6,179.1z"/>
			<path id="XMLID_336_" class="st36" d="M211.9,148.9c0,0,4.2,13.6,2.2,14.8c-2,1.2-4.8,1.7-4.8,1.7l0.5,10.1c0,0-9.3,2.7-11.1,1.8
				c-1.8-0.9,0-14.7,0-14.7l-0.8-15.2L211.9,148.9z"/>
			<linearGradient id="XMLID_228_" gradientUnits="userSpaceOnUse" x1="200.4229" y1="166.236" x2="212.0431" y2="166.236">
				<stop  offset="0.1105" style="stop-color:#C65446"/>
				<stop  offset="1" style="stop-color:#C65446;stop-opacity:0"/>
			</linearGradient>
			<path id="XMLID_337_" class="st38" d="M209.2,165.4c0,0,1.3-0.2,2.8-0.8c-6.1,0.5-8.1-2.8-8.1-2.8l-3.6-0.4l9.1,9.6L209.2,165.4z
				"/>
			<path id="XMLID_338_" class="st25" d="M207.3,173.6c0,0,13.4,7.2,18.4,10.2s4.2,16.5,4.1,26.8c-0.1,10.3-0.1,26.8,0.9,31.4
				c1.1,4.6-4.3,10.6-13.3,12.2c-8.9,1.6-26.8-2.4-30.9-4.5c-4.1-2-8.7-5.8-6-19c2.7-13.1-0.2-38.4,1.2-42.1c0,0-8.8-4.3-6.6-9.7
				C177.4,173.5,190.6,166.4,207.3,173.6z"/>
			<linearGradient id="XMLID_229_" gradientUnits="userSpaceOnUse" x1="198.3412" y1="173.9317" x2="190.8544" y2="211.0657">
				<stop  offset="0" style="stop-color:#663819"/>
				<stop  offset="1" style="stop-color:#663819;stop-opacity:0"/>
			</linearGradient>
			<path id="XMLID_339_" class="st39" d="M181.9,188.6c-0.5,1.4-0.4,6-0.3,11.9c11.5,0.7,27.9-14.8,27.9-14.8
				C202.9,191.1,186.8,191.7,181.9,188.6z"/>
			<linearGradient id="XMLID_230_" gradientUnits="userSpaceOnUse" x1="215.2028" y1="214.0542" x2="229.9385" y2="214.0542">
				<stop  offset="0" style="stop-color:#663819"/>
				<stop  offset="1" style="stop-color:#663819;stop-opacity:0"/>
			</linearGradient>
			<path id="XMLID_340_" class="st40" d="M229.9,201.7l-14.7-4.8l14.7,34.2c-0.2-6.6-0.2-14.7-0.1-20.6
				C229.8,207.7,229.9,204.7,229.9,201.7z"/>
			<linearGradient id="XMLID_232_" gradientUnits="userSpaceOnUse" x1="219.791" y1="291.222" x2="179.363" y2="343.9282">
				<stop  offset="6.929090e-002" style="stop-color:#1C1C75"/>
				<stop  offset="1" style="stop-color:#1C1C75;stop-opacity:0"/>
			</linearGradient>
			<path id="XMLID_341_" class="st41" d="M183.3,315c0,0.2,0,0.3,0,0.3c-3.9,7.5-8.6,46.3-10.3,53c-1.7,6.7,6.7,2.2,6.7,2.2
				c11.3-27.2,20.5-62.6,26.4-88.6C206.1,282,198,301.3,183.3,315z"/>
			<path id="XMLID_342_" class="st36" d="M270.1,175.5l0-0.3l0.9-7.7c0,0-0.1-13.5,1.3-13.7s1.7,5.1,2.3,5.3
				c0.6,0.2,1.4-6.6,1.4-6.6s5.2,7.7,2.2,11.6c-3,3.8-3.6,13-3.6,13L270.1,175.5z"/>
			<path id="XMLID_343_" class="st25" d="M256.5,198.8c0,0-24.5-11.6-31.8-15.7c-7.3-4.1-12,2.4-11.6,11.4c0.4,9,20,18.8,30.9,23.2
				c10.9,4.4,22.9,0.2,25.9-12.4c3-12.7,6.7-31.4,6.7-31.4l-7.4-1.6L256.5,198.8z"/>
			<path id="XMLID_344_" class="st32" d="M199,141.8c0,0,3.3-4.3,8.1-2.2c6.7-1.1,10.7,1.8,9.8,6c-1,4.2-8.1,7.7-12.1,7.7
				c1.8,3.1,2.9,4.2,1.3,4.3c-1.7,0.1-4-1.8-4,0c-0.1,1.8,2.1,4.3,2.1,4.3s-0.8,8.4-3.2,8.4c-2.4,0-11.9-7.1-12.1-15.6
				C188.4,146.1,195.5,139.8,199,141.8z"/>
		</g>
		<g id="XMLID_345_">
			
				<linearGradient id="XMLID_234_" gradientUnits="userSpaceOnUse" x1="458.8409" y1="224.9344" x2="458.8409" y2="290.042" gradientTransform="matrix(0.9626 -0.2708 0.2708 0.9626 -86.8698 176.4769)">
				<stop  offset="0" style="stop-color:#80A9FF"/>
				<stop  offset="0.2303" style="stop-color:#7899FF"/>
				<stop  offset="0.6809" style="stop-color:#636EFF"/>
				<stop  offset="1" style="stop-color:#524CFF"/>
			</linearGradient>
			<path id="XMLID_15_" class="st42" d="M439.6,282c-10.1,12-10.7,25.7-9.8,34.2l-3.1-11c-1.2-4.2-1.2-8.7-0.1-12.9
				c1.2-4.7,2.8-9.3,3-13.8c0.5-9.5-10.5-20.2-11.2-26.8c0,0-8.6,16.2-5.6,29.6c2.3,10.2,8.6,20.4,11.5,24.7
				c0.5,0.7,0.9,1.6,1.1,2.4l3.3,11.8c-4.1-7.4-11.6-16.6-24.6-21c0,0,0.7,4.6,3.3,11.8c4.4,12.2,17.7,12.4,23.5,17.2l7.9,28.2
				l2-0.6l-7.9-28c-1.3-4.7-0.4-9.7,2.5-13.5c4-5.4,9.1-11.6,7.3-20.6C441.3,286.3,439.6,282,439.6,282z"/>
			
				<linearGradient id="XMLID_235_" gradientUnits="userSpaceOnUse" x1="464.8617" y1="217.1918" x2="464.8617" y2="250.0503" gradientTransform="matrix(0.9626 -0.2708 0.2708 0.9626 -86.8698 176.4769)">
				<stop  offset="0" style="stop-color:#524CFF"/>
				<stop  offset="0.1862" style="stop-color:#5852FF;stop-opacity:0.8138"/>
				<stop  offset="0.4265" style="stop-color:#6762FF;stop-opacity:0.5735"/>
				<stop  offset="0.6966" style="stop-color:#817CFF;stop-opacity:0.3034"/>
				<stop  offset="0.9865" style="stop-color:#A5A1FF;stop-opacity:1.346356e-002"/>
				<stop  offset="1" style="stop-color:#A7A3FF;stop-opacity:0"/>
			</linearGradient>
			<path id="XMLID_14_" class="st43" d="M426.7,305.2c-1.2-4.2-1.2-8.7-0.1-12.9c1.2-4.7,2.8-9.3,3-13.8
				c0.5-9.5-10.5-20.2-11.2-26.8C416,265.4,420.8,285.6,426.7,305.2z"/>
		</g>
		<g id="XMLID_346_">
			
				<linearGradient id="XMLID_237_" gradientUnits="userSpaceOnUse" x1="759.3848" y1="237.8396" x2="759.3848" y2="296.2869" gradientTransform="matrix(-0.9871 -0.16 -0.16 0.9871 1289.7567 98.4082)">
				<stop  offset="0" style="stop-color:#80A9FF"/>
				<stop  offset="0.2303" style="stop-color:#7899FF"/>
				<stop  offset="0.6809" style="stop-color:#636EFF"/>
				<stop  offset="1" style="stop-color:#524CFF"/>
			</linearGradient>
			<path id="XMLID_13_" class="st44" d="M482.2,226c10.2,9.7,12.2,21.8,12.2,29.5l1.6-10.1c0.6-3.9,0.2-7.9-1.2-11.5
				c-1.6-4.1-3.4-8-4.1-12c-1.4-8.4,7.3-19,7.3-25c0,0,9.3,13.6,8,25.8c-1,9.3-5.6,19.1-7.8,23.2c-0.4,0.7-0.6,1.5-0.8,2.3
				l-1.8,10.9c2.9-7,8.7-16,19.8-21.2c0,0-0.2,4.1-1.8,10.9c-2.7,11.3-14.6,12.9-19.2,17.8l-4.2,26l-1.8-0.3l4.2-25.8
				c0.7-4.3-0.6-8.6-3.6-11.8c-4.1-4.4-9.3-9.4-8.6-17.7C481.1,229.9,482.2,226,482.2,226z"/>
			
				<linearGradient id="XMLID_239_" gradientUnits="userSpaceOnUse" x1="764.7889" y1="230.889" x2="764.7889" y2="260.3863" gradientTransform="matrix(-0.9871 -0.16 -0.16 0.9871 1289.7567 98.4082)">
				<stop  offset="0" style="stop-color:#524CFF"/>
				<stop  offset="0.1862" style="stop-color:#5852FF;stop-opacity:0.8138"/>
				<stop  offset="0.4265" style="stop-color:#6762FF;stop-opacity:0.5735"/>
				<stop  offset="0.6966" style="stop-color:#817CFF;stop-opacity:0.3034"/>
				<stop  offset="0.9865" style="stop-color:#A5A1FF;stop-opacity:1.346356e-002"/>
				<stop  offset="1" style="stop-color:#A7A3FF;stop-opacity:0"/>
			</linearGradient>
			<path id="XMLID_12_" class="st45" d="M496,245.3c0.6-3.9,0.2-7.9-1.2-11.5c-1.6-4.1-3.4-8-4.1-12c-1.4-8.4,7.3-19,7.3-25
				C501.6,208.7,499.3,227.2,496,245.3z"/>
		</g>
		<linearGradient id="XMLID_240_" gradientUnits="userSpaceOnUse" x1="380.3836" y1="257.2608" x2="458.8438" y2="461.4969">
			<stop  offset="0" style="stop-color:#80A9FF"/>
			<stop  offset="0.2858" style="stop-color:#7FA6FF"/>
			<stop  offset="0.478" style="stop-color:#7A9DFF"/>
			<stop  offset="0.6427" style="stop-color:#738EFF"/>
			<stop  offset="0.7919" style="stop-color:#6879FF"/>
			<stop  offset="0.9293" style="stop-color:#5B5DFF"/>
			<stop  offset="1" style="stop-color:#524CFF"/>
		</linearGradient>
		<path id="XMLID_347_" class="st46" d="M317.9,471.3c0,0,7.6-70.8,28.2-75.6s34.5,23.4,34.5,23.4s-2.2-70,24-79.3
			c26.2-9.3,31,37.6,31,37.6s10.1-125.4,32.9-129.3c22.8-3.9,24,61,24,61s17.4-61.1,29.9-56.4C534.9,257.4,529.5,442.7,317.9,471.3z
			"/>
		<g id="XMLID_348_">
			<path id="XMLID_349_" class="st20" d="M414.2,404.7l6.4-39.2l-1-0.2l-5.8,35.4c-1.9-20.8-3.9-40.8-4-41.2l-1,0.1
				c0.1,0.5,3.7,36.5,5.7,62.2c-12.8-17.3-19.4-29.8-19.4-30l-0.9,0.5c0.1,0.1,7,13.3,20.4,31.4c0.5,7.1,0.9,13.2,1.1,17.5
				c0.3-0.2,0.7-0.3,1-0.5C416.5,432.8,415.4,418.8,414.2,404.7z"/>
			<path id="XMLID_350_" class="st20" d="M465.5,405.2c4.4-29.5,6-56,6.5-76.3l0.1,0.1l10.5-26.7l-0.9-0.4l-9.7,24.6
				c0.4-23.7-0.7-38.3-0.7-38.6l-1,0.1c0,0.4,2.7,34.1-1.7,82.1c-8.3-19.6-14-47.2-14.1-47.5l-1,0.2c0.1,0.3,6.1,29.7,14.9,49.4
				c-1,10.8-2.4,22.2-4.2,34.2C464.7,405.9,465.1,405.6,465.5,405.2z"/>
		</g>
	</g>
	<g id="XMLID_10_">
		<path id="XMLID_95_" class="st47" d="M279.5,119.2l-0.4,0.1c-0.1-0.2-0.2-0.4-0.4-0.5c-0.1,0-0.1-0.1-0.2,0c0,0-0.1,0-0.1,0.1
			c0,0,0,0.1,0,0.1c0,0.1,0.2,0.2,0.3,0.5c0.2,0.2,0.3,0.4,0.3,0.5c0.1,0.1,0.2,0.3,0.2,0.4c0,0.1,0.1,0.2,0.1,0.3
			c0,0.2-0.1,0.3-0.2,0.3c-0.1,0-0.3,0-0.6-0.2c-0.2-0.1-0.3-0.2-0.5-0.4c-0.1-0.2-0.2-0.4-0.3-0.6l0.4,0c0.1,0.3,0.3,0.5,0.4,0.6
			c0.1,0,0.2,0.1,0.2,0.1c0.1,0,0.1,0,0.1-0.1c0-0.1,0-0.1-0.1-0.2c0-0.1-0.1-0.2-0.3-0.4c-0.3-0.4-0.4-0.6-0.5-0.8
			c-0.1-0.2-0.1-0.3-0.1-0.4c0-0.2,0.1-0.3,0.2-0.3c0.1,0,0.3,0,0.5,0.1c0.1,0.1,0.2,0.2,0.4,0.3C279.2,118.8,279.3,119,279.5,119.2
			z M274.3,115.8l0.4,0.3l1,2.1l0-1.5l0.5,0.3l-0.1,2.3l-0.5-0.3l-1-2.1l0,1.5l-0.5-0.3L274.3,115.8z M271.4,114.4
			c-0.2-0.1-0.4-0.2-0.6-0.1c-0.2,0.1-0.2,0.2-0.2,0.4c0,0.2,0.1,0.5,0.3,0.8c0.1,0.2,0.3,0.4,0.5,0.5c0.2,0.1,0.4,0.2,0.6,0.1
			c0.2-0.1,0.2-0.2,0.2-0.4c0-0.2-0.1-0.4-0.2-0.7C271.8,114.7,271.6,114.5,271.4,114.4z M271.4,114c0.3,0.2,0.6,0.5,0.9,0.9
			c0.2,0.4,0.4,0.7,0.4,1.1c0,0.3-0.1,0.5-0.4,0.6c-0.2,0.1-0.5,0-0.9-0.2c-0.4-0.2-0.7-0.5-0.9-0.9c-0.2-0.4-0.3-0.7-0.3-1
			c0-0.2,0.1-0.4,0.2-0.5c0.1-0.1,0.3-0.2,0.5-0.2C271,113.8,271.2,113.8,271.4,114z M268.1,112l0.5,0.3l-0.1,2.2l-0.5-0.3
			L268.1,112z M265.3,110.4l1.3,0.8l0,0.4l-0.4-0.3l0,1.8l-0.5-0.3l0-1.8l-0.4-0.3L265.3,110.4z M262.2,108.5l0.4,0.3l0,1.4
			c0,0.1,0,0.2,0,0.3c0,0.1,0.1,0.1,0.1,0.2c0.1,0.1,0.1,0.1,0.2,0.2c0.1,0,0.1,0.1,0.2,0.1c0.1,0,0.1,0,0.1-0.1c0,0,0-0.1,0-0.3
			l0-1.4l0.4,0.3l0,1.3c0,0.2,0,0.4,0,0.4c0,0.1-0.1,0.1-0.2,0.2c-0.1,0-0.2,0-0.3,0c-0.1,0-0.2-0.1-0.3-0.1
			c-0.2-0.1-0.3-0.2-0.4-0.4c-0.1-0.1-0.2-0.3-0.3-0.4c-0.1-0.1-0.1-0.3-0.1-0.6L262.2,108.5z M259.7,107l0.4,0.3l0,1.8l0.6,0.4
			l0,0.4l-1.1-0.7L259.7,107z M256.9,105.7c-0.2-0.1-0.4-0.2-0.5-0.1c-0.1,0.1-0.2,0.2-0.2,0.4c0,0.2,0.1,0.5,0.3,0.7
			c0.1,0.2,0.3,0.3,0.5,0.5c0.2,0.1,0.4,0.2,0.5,0.1c0.1-0.1,0.2-0.2,0.2-0.4c0-0.2-0.1-0.4-0.2-0.7
			C257.3,106,257.1,105.8,256.9,105.7z M256.9,105.3c0.3,0.2,0.6,0.5,0.8,0.8c0.2,0.4,0.3,0.7,0.3,1c0,0.3-0.1,0.5-0.4,0.6
			c-0.2,0.1-0.5,0-0.8-0.2c-0.3-0.2-0.6-0.5-0.8-0.8c-0.2-0.4-0.3-0.7-0.3-1c0-0.2,0.1-0.4,0.2-0.5c0.1-0.1,0.3-0.2,0.4-0.2
			C256.5,105.1,256.7,105.2,256.9,105.3z M254.3,104.1l-0.3,0.1c-0.1-0.2-0.2-0.4-0.3-0.4c-0.1,0-0.1,0-0.1,0c0,0-0.1,0-0.1,0.1
			c0,0,0,0.1,0,0.1c0,0.1,0.1,0.2,0.3,0.5c0.2,0.2,0.3,0.4,0.3,0.4c0.1,0.1,0.1,0.3,0.2,0.4c0,0.1,0.1,0.2,0,0.3
			c0,0.2-0.1,0.3-0.2,0.3c-0.1,0-0.3,0-0.5-0.1c-0.2-0.1-0.3-0.2-0.4-0.4c-0.1-0.1-0.2-0.3-0.3-0.5l0.4,0c0.1,0.3,0.2,0.4,0.4,0.5
			c0.1,0,0.1,0.1,0.2,0c0,0,0.1,0,0.1-0.1c0,0,0-0.1-0.1-0.2c0-0.1-0.1-0.2-0.2-0.4c-0.2-0.3-0.4-0.6-0.5-0.7
			c-0.1-0.1-0.1-0.3-0.1-0.4c0-0.1,0.1-0.2,0.2-0.3c0.1,0,0.3,0,0.4,0.1c0.1,0.1,0.2,0.2,0.3,0.3
			C254.1,103.7,254.2,103.9,254.3,104.1z"/>
		<path id="XMLID_76_" class="st47" d="M300.8,121.6l1.9,1.1l-0.4,9.1l-1.9-1.1L300.8,121.6z M295.1,122.2c-0.6-0.3-1.1-0.4-1.4-0.3
			c-0.4,0.1-0.6,0.5-0.6,1c0,0.6,0.2,1.1,0.5,1.7c0.4,0.6,0.8,1,1.4,1.4c0.6,0.3,1.1,0.5,1.5,0.3c0.4-0.1,0.6-0.5,0.6-1
			c0-0.6-0.2-1.1-0.5-1.7C296.2,123,295.7,122.5,295.1,122.2z M297.1,122l1.9,1.1l-0.3,6.5l-1.9-1.1l0-0.7c-0.4,0.1-0.8,0.1-1.1,0
			c-0.4-0.1-0.8-0.3-1.2-0.5c-1-0.6-1.8-1.4-2.4-2.4c-0.7-1-1-2-0.9-3c0-1,0.4-1.6,1.1-1.8c0.7-0.2,1.5-0.1,2.5,0.5
			c0.4,0.3,0.9,0.6,1.2,0.9c0.4,0.4,0.7,0.8,1.1,1.3L297.1,122z M288.2,116.8l1.8,1.1l-0.2,6.4l-1.8-1.1L288.2,116.8z M289.2,114.7
			c0.3,0.2,0.6,0.4,0.8,0.8c0.2,0.3,0.3,0.6,0.3,0.9c0,0.3-0.1,0.5-0.4,0.5c-0.2,0.1-0.5,0-0.8-0.2c-0.3-0.2-0.6-0.4-0.8-0.8
			c-0.2-0.3-0.3-0.6-0.3-0.9c0-0.3,0.1-0.5,0.4-0.5C288.6,114.5,288.9,114.5,289.2,114.7z M276.3,112.2c-0.1-0.4-0.3-0.8-0.6-1.2
			c-0.3-0.4-0.7-0.7-1.1-1c-0.5-0.3-0.9-0.4-1.2-0.4c-0.2,0-0.4,0.2-0.6,0.4L276.3,112.2z M277.9,114.4l-5.4-3.2
			c0.1,0.5,0.3,1,0.6,1.4c0.3,0.5,0.8,0.8,1.3,1.1c0.6,0.4,1.2,0.5,1.6,0.4l1.4,1.5c-0.4,0.3-0.8,0.3-1.3,0.3
			c-0.5-0.1-1.1-0.3-1.8-0.7c-1-0.6-1.9-1.4-2.5-2.4c-0.6-1-0.9-1.9-0.9-2.8c0-0.9,0.4-1.5,1-1.7c0.7-0.2,1.5-0.1,2.5,0.5
			c1.1,0.6,1.9,1.4,2.6,2.4c0.7,1,1,2,0.9,3.1L277.9,114.4z M266.3,105.3c-0.5-0.3-0.9-0.4-1.3-0.2c-0.3,0.1-0.5,0.5-0.5,1
			c0,0.5,0.1,1,0.5,1.6c0.3,0.5,0.7,0.9,1.2,1.2c0.5,0.3,0.9,0.4,1.3,0.3c0.3-0.1,0.5-0.5,0.5-1c0-0.5-0.1-1.1-0.5-1.6
			C267.2,106,266.8,105.6,266.3,105.3z M268.1,102.7l1.6,0.9l-0.2,8.5l-1.6-1l0-0.6c-0.3,0.1-0.6,0.1-1,0c-0.3-0.1-0.7-0.2-1-0.4
			c-0.8-0.5-1.5-1.2-2.1-2.2c-0.6-1-0.9-1.9-0.8-2.8c0-0.9,0.3-1.5,0.9-1.8c0.6-0.3,1.3-0.1,2.1,0.3c0.4,0.2,0.7,0.5,1.1,0.8
			c0.3,0.3,0.6,0.7,0.9,1.2L268.1,102.7z M256.2,98.2l1.5,0.9l0,0.6c0.4-0.1,0.7-0.1,1,0c0.3,0.1,0.6,0.2,0.9,0.3
			c0.6,0.4,1.1,0.9,1.6,1.5c0.4,0.6,0.5,1.2,0.5,1.9l-0.1,3.9l-1.6-0.9l0-2.6c0-0.7,0-1.2-0.1-1.5c-0.1-0.3-0.2-0.5-0.3-0.7
			c-0.2-0.2-0.4-0.4-0.6-0.5c-0.3-0.2-0.6-0.2-0.8-0.2c-0.2,0.1-0.4,0.3-0.5,0.6c0,0.2-0.1,0.5-0.1,1.2l0,2.4l-1.5-0.9L256.2,98.2z
			 M253.3,96.5l1.5,0.9l-0.1,5.9l-1.5-0.9L253.3,96.5z M254.1,94.5c0.3,0.2,0.5,0.4,0.7,0.7c0.2,0.3,0.3,0.6,0.3,0.8
			c0,0.3-0.1,0.4-0.3,0.5c-0.2,0.1-0.4,0-0.7-0.1c-0.3-0.2-0.5-0.4-0.7-0.7c-0.2-0.3-0.3-0.6-0.3-0.9c0-0.3,0.1-0.4,0.3-0.5
			C253.6,94.3,253.9,94.3,254.1,94.5z"/>
		<path id="XMLID_75_" class="st47" d="M280.7,109.9c1.3,0,3,1,4.4,2.5l-2.3,1.7L280.7,109.9z"/>
		<path id="XMLID_72_" class="st47" d="M279.6,116.5c-0.7-1.6-1.1-3-1-3.9c0-1.1,0.4-1.9,0.9-2.3l2.2,4.6L279.6,116.5z"/>
		<path id="XMLID_71_" class="st47" d="M284.7,121.1c-0.7,0.5-1.4,0.9-2.2,1.2c-0.7-1.2-1.4-2.6-2-3.8l2.2-1.6L284.7,121.1z"/>
		<path id="XMLID_50_" class="st47" d="M287.1,117.5c0,1.1-0.5,1.9-1.3,2.7l-2-4.1l2.5-1.9C286.8,115.2,287.1,116.4,287.1,117.5z"/>
	</g>
	<g id="XMLID_31_">
		<path id="XMLID_49_" class="st47" d="M384.3,141.4l-0.3,0.1c-0.1-0.2-0.2-0.4-0.3-0.4c-0.1,0-0.1,0-0.1,0c0,0-0.1,0-0.1,0.1
			c0,0,0,0.1,0,0.1c0,0.1,0.1,0.2,0.3,0.5c0.2,0.2,0.3,0.4,0.3,0.4c0.1,0.1,0.1,0.2,0.2,0.3c0,0.1,0.1,0.2,0,0.3
			c0,0.2-0.1,0.3-0.2,0.3c-0.1,0-0.3,0-0.5-0.1c-0.2-0.1-0.3-0.2-0.4-0.4c-0.1-0.1-0.2-0.3-0.3-0.5l0.4,0c0.1,0.2,0.2,0.4,0.4,0.5
			c0.1,0,0.1,0.1,0.2,0.1c0.1,0,0.1,0,0.1-0.1c0,0,0-0.1-0.1-0.2c0-0.1-0.1-0.2-0.2-0.4c-0.2-0.3-0.4-0.6-0.5-0.7
			c-0.1-0.1-0.1-0.3-0.1-0.4c0-0.1,0.1-0.2,0.2-0.3c0.1,0,0.3,0,0.5,0.1c0.1,0.1,0.2,0.2,0.3,0.3C384.1,141,384.2,141.2,384.3,141.4
			z M379.6,138.3l0.4,0.2l0.9,1.9l0-1.4l0.4,0.3l-0.1,2.1l-0.4-0.2l-0.9-1.9l0,1.3l-0.4-0.3L379.6,138.3z M376.9,137
			c-0.2-0.1-0.4-0.2-0.5-0.1c-0.1,0-0.2,0.2-0.2,0.4c0,0.2,0.1,0.5,0.2,0.7c0.1,0.2,0.3,0.3,0.5,0.4c0.2,0.1,0.4,0.2,0.5,0.1
			c0.1,0,0.2-0.2,0.2-0.4c0-0.2-0.1-0.4-0.2-0.6C377.3,137.3,377.1,137.1,376.9,137z M376.9,136.6c0.3,0.2,0.6,0.5,0.8,0.8
			c0.2,0.3,0.3,0.7,0.3,1c0,0.3-0.1,0.5-0.4,0.6c-0.2,0.1-0.5,0-0.8-0.2c-0.3-0.2-0.6-0.5-0.8-0.8c-0.2-0.3-0.3-0.7-0.3-0.9
			c0-0.2,0.1-0.3,0.2-0.4c0.1-0.1,0.2-0.1,0.4-0.1C376.5,136.4,376.7,136.5,376.9,136.6z M373.9,134.8l0.4,0.2l0,2l-0.4-0.2
			L373.9,134.8z M371.4,133.3l1.2,0.7l0,0.4l-0.4-0.2l0,1.6l-0.4-0.3l0-1.6l-0.4-0.2L371.4,133.3z M368.6,131.6l0.4,0.2l0,1.3
			c0,0.1,0,0.2,0,0.3c0,0.1,0.1,0.1,0.1,0.2c0,0.1,0.1,0.1,0.2,0.1c0.1,0,0.1,0.1,0.2,0.1c0.1,0,0.1,0,0.1-0.1c0,0,0-0.1,0-0.3
			l0-1.2l0.4,0.2l0,1.2c0,0.2,0,0.3,0,0.4c0,0.1-0.1,0.1-0.1,0.1c-0.1,0-0.1,0-0.2,0c-0.1,0-0.2-0.1-0.3-0.1
			c-0.2-0.1-0.3-0.2-0.4-0.3c-0.1-0.1-0.2-0.3-0.2-0.4c0-0.1-0.1-0.3-0.1-0.6L368.6,131.6z M366.3,130.2l0.4,0.2l0,1.6l0.6,0.4
			l0,0.4l-1-0.6L366.3,130.2z M363.8,129.1c-0.2-0.1-0.3-0.1-0.5-0.1c-0.1,0-0.2,0.2-0.2,0.4c0,0.2,0.1,0.4,0.2,0.7
			c0.1,0.2,0.3,0.3,0.4,0.4c0.2,0.1,0.3,0.1,0.5,0.1c0.1-0.1,0.2-0.2,0.2-0.4c0-0.2-0.1-0.4-0.2-0.6
			C364.1,129.3,364,129.2,363.8,129.1z M363.8,128.7c0.3,0.2,0.5,0.4,0.7,0.8c0.2,0.3,0.3,0.6,0.3,0.9c0,0.3-0.1,0.5-0.3,0.5
			c-0.2,0.1-0.5,0-0.8-0.2c-0.3-0.2-0.6-0.4-0.8-0.8c-0.2-0.3-0.3-0.6-0.3-0.9c0-0.2,0.1-0.3,0.2-0.4c0.1-0.1,0.2-0.1,0.4-0.1
			C363.4,128.5,363.6,128.6,363.8,128.7z M361.4,127.6l-0.3,0.1c-0.1-0.2-0.2-0.3-0.3-0.4c-0.1,0-0.1,0-0.1,0c0,0,0,0,0,0.1
			c0,0,0,0.1,0,0.1c0,0.1,0.1,0.2,0.3,0.4c0.1,0.2,0.2,0.3,0.3,0.4c0.1,0.1,0.1,0.2,0.2,0.3c0,0.1,0,0.2,0,0.3
			c0,0.2-0.1,0.3-0.2,0.3c-0.1,0-0.3,0-0.5-0.1c-0.1-0.1-0.3-0.2-0.4-0.3c-0.1-0.1-0.2-0.3-0.3-0.5l0.3,0c0.1,0.2,0.2,0.4,0.3,0.5
			c0.1,0,0.1,0.1,0.2,0c0,0,0.1,0,0.1-0.1c0,0,0-0.1,0-0.2c0-0.1-0.1-0.2-0.2-0.3c-0.2-0.3-0.4-0.5-0.4-0.7
			c-0.1-0.1-0.1-0.2-0.1-0.3c0-0.1,0.1-0.2,0.2-0.3c0.1,0,0.2,0,0.4,0.1c0.1,0.1,0.2,0.1,0.3,0.2
			C361.2,127.3,361.3,127.4,361.4,127.6z"/>
		<path id="XMLID_36_" class="st47" d="M403.7,143.5l1.7,1l-0.4,8.2l-1.7-1L403.7,143.5z M398.5,144.1c-0.5-0.3-1-0.4-1.3-0.3
			c-0.4,0.1-0.5,0.4-0.6,0.9c0,0.5,0.1,1,0.5,1.6c0.3,0.5,0.8,1,1.3,1.3c0.5,0.3,1,0.4,1.3,0.3c0.4-0.1,0.6-0.4,0.6-0.9
			c0-0.5-0.1-1-0.5-1.6C399.5,144.8,399.1,144.4,398.5,144.1z M400.4,143.9l1.7,1l-0.2,5.9l-1.7-1l0-0.6c-0.3,0.1-0.7,0.1-1,0
			c-0.3-0.1-0.7-0.2-1.1-0.5c-0.9-0.5-1.6-1.3-2.2-2.2c-0.6-1-0.9-1.9-0.9-2.7c0-0.9,0.4-1.5,1-1.7c0.6-0.2,1.4-0.1,2.3,0.4
			c0.4,0.2,0.8,0.5,1.1,0.9c0.4,0.3,0.7,0.7,1,1.2L400.4,143.9z M392.3,139.2l1.6,1l-0.2,5.8l-1.6-1L392.3,139.2z M393.2,137.3
			c0.3,0.2,0.5,0.4,0.7,0.7c0.2,0.3,0.3,0.6,0.3,0.9c0,0.3-0.1,0.4-0.3,0.5c-0.2,0.1-0.5,0-0.7-0.2c-0.3-0.2-0.5-0.4-0.7-0.7
			c-0.2-0.3-0.3-0.6-0.3-0.9c0-0.3,0.1-0.4,0.3-0.5C392.6,137.1,392.9,137.1,393.2,137.3z M381.4,135c-0.1-0.4-0.3-0.7-0.6-1.1
			c-0.3-0.4-0.6-0.7-1-0.9c-0.4-0.2-0.8-0.4-1.1-0.3c-0.2,0-0.4,0.1-0.6,0.4L381.4,135z M382.9,137l-4.9-2.9
			c0.1,0.4,0.2,0.9,0.5,1.3c0.3,0.4,0.7,0.8,1.2,1c0.6,0.3,1.1,0.4,1.5,0.3l1.3,1.3c-0.3,0.2-0.7,0.3-1.2,0.2
			c-0.5-0.1-1-0.3-1.6-0.7c-0.9-0.6-1.7-1.3-2.3-2.2c-0.6-0.9-0.9-1.8-0.8-2.6c0-0.8,0.3-1.4,0.9-1.6c0.6-0.2,1.4-0.1,2.3,0.5
			c1,0.6,1.7,1.3,2.3,2.2c0.6,0.9,0.9,1.9,0.8,2.8L382.9,137z M372.3,128.7c-0.5-0.3-0.8-0.3-1.1-0.2c-0.3,0.1-0.5,0.4-0.5,0.9
			c0,0.5,0.1,1,0.4,1.4c0.3,0.5,0.7,0.9,1.1,1.1c0.5,0.3,0.8,0.4,1.2,0.2c0.3-0.1,0.5-0.4,0.5-0.9c0-0.5-0.1-1-0.4-1.4
			C373.1,129.3,372.8,129,372.3,128.7z M373.9,126.3l1.5,0.9l-0.2,7.7l-1.5-0.9l0-0.6c-0.3,0.1-0.6,0.1-0.9,0
			c-0.3-0.1-0.6-0.2-0.9-0.4c-0.8-0.5-1.4-1.1-1.9-2c-0.5-0.9-0.8-1.7-0.8-2.5c0-0.8,0.3-1.4,0.8-1.6c0.5-0.2,1.2-0.1,2,0.3
			c0.4,0.2,0.7,0.5,1,0.8c0.3,0.3,0.6,0.7,0.8,1.1L373.9,126.3z M363.1,122.2l1.4,0.8l0,0.6c0.3-0.1,0.6-0.1,0.9,0
			c0.3,0.1,0.5,0.2,0.8,0.3c0.6,0.3,1,0.8,1.4,1.4c0.3,0.5,0.5,1.1,0.5,1.7l-0.1,3.6l-1.4-0.8l0-2.4c0-0.6,0-1.1-0.1-1.3
			c-0.1-0.2-0.2-0.5-0.3-0.7c-0.1-0.2-0.3-0.4-0.6-0.5c-0.3-0.2-0.5-0.2-0.7-0.2c-0.2,0.1-0.4,0.2-0.4,0.5c0,0.1-0.1,0.5-0.1,1.1
			l0,2.2l-1.4-0.8L363.1,122.2z M360.5,120.7l1.4,0.8l-0.1,5.4l-1.4-0.8L360.5,120.7z M361.2,118.9c0.2,0.1,0.4,0.3,0.6,0.6
			c0.2,0.3,0.3,0.5,0.3,0.8c0,0.2-0.1,0.4-0.3,0.5c-0.2,0.1-0.4,0-0.6-0.1c-0.2-0.1-0.5-0.3-0.6-0.6c-0.2-0.3-0.3-0.5-0.3-0.8
			c0-0.2,0.1-0.4,0.3-0.5C360.8,118.7,361,118.7,361.2,118.9z"/>
		<path id="XMLID_35_" class="st47" d="M385.4,132.9c1.2,0,2.8,0.9,4,2.3l-2.1,1.6L385.4,132.9z"/>
		<path id="XMLID_34_" class="st47" d="M384.4,138.9c-0.6-1.4-1-2.7-0.9-3.6c0-1,0.3-1.7,0.8-2.1l2,4.2L384.4,138.9z"/>
		<path id="XMLID_33_" class="st47" d="M389.1,143c-0.6,0.4-1.3,0.8-2,1.1c-0.6-1.1-1.3-2.3-1.8-3.5l2-1.5L389.1,143z"/>
		<path id="XMLID_32_" class="st47" d="M391.2,139.8c0,1-0.5,1.8-1.2,2.5l-1.8-3.8l2.3-1.7C391,137.7,391.2,138.8,391.2,139.8z"/>
	</g>
	<g id="XMLID_110_">
		<path id="XMLID_147_" class="st47" d="M385.5,240.6l-0.3,0.1c-0.1-0.2-0.2-0.4-0.3-0.4c-0.1,0-0.1,0-0.1,0c0,0-0.1,0-0.1,0.1
			c0,0,0,0.1,0,0.1c0,0.1,0.1,0.2,0.3,0.5c0.2,0.2,0.3,0.4,0.3,0.4c0.1,0.1,0.1,0.2,0.2,0.3c0,0.1,0.1,0.2,0,0.3
			c0,0.2-0.1,0.3-0.2,0.3c-0.1,0-0.3,0-0.5-0.1c-0.2-0.1-0.3-0.2-0.4-0.4c-0.1-0.1-0.2-0.3-0.3-0.5l0.4,0c0.1,0.2,0.2,0.4,0.4,0.5
			c0.1,0,0.1,0.1,0.2,0.1c0.1,0,0.1,0,0.1-0.1c0,0,0-0.1-0.1-0.2c0-0.1-0.1-0.2-0.2-0.4c-0.2-0.3-0.4-0.6-0.5-0.7
			c-0.1-0.1-0.1-0.3-0.1-0.4c0-0.1,0.1-0.2,0.2-0.3c0.1,0,0.3,0,0.5,0.1c0.1,0.1,0.2,0.2,0.3,0.3
			C385.2,240.3,385.3,240.4,385.5,240.6z M380.8,237.5l0.4,0.2l0.9,1.9l0-1.4l0.4,0.3l-0.1,2.1l-0.4-0.2l-0.9-1.9l0,1.3l-0.4-0.3
			L380.8,237.5z M378.1,236.2c-0.2-0.1-0.4-0.2-0.5-0.1c-0.1,0-0.2,0.2-0.2,0.4c0,0.2,0.1,0.5,0.2,0.7c0.1,0.2,0.3,0.3,0.5,0.4
			c0.2,0.1,0.4,0.2,0.5,0.1c0.1,0,0.2-0.2,0.2-0.4c0-0.2-0.1-0.4-0.2-0.6C378.5,236.5,378.3,236.4,378.1,236.2z M378.1,235.9
			c0.3,0.2,0.6,0.5,0.8,0.8c0.2,0.3,0.3,0.7,0.3,1c0,0.3-0.1,0.5-0.4,0.6c-0.2,0.1-0.5,0-0.8-0.2c-0.3-0.2-0.6-0.5-0.8-0.8
			c-0.2-0.3-0.3-0.7-0.3-0.9c0-0.2,0.1-0.3,0.2-0.4c0.1-0.1,0.2-0.1,0.4-0.1C377.7,235.7,377.9,235.7,378.1,235.9z M375.1,234.1
			l0.4,0.2l0,2l-0.4-0.2L375.1,234.1z M372.6,232.6l1.2,0.7l0,0.4l-0.4-0.2l0,1.6l-0.4-0.3l0-1.6l-0.4-0.2L372.6,232.6z
			 M369.8,230.9l0.4,0.2l0,1.3c0,0.1,0,0.2,0,0.3c0,0.1,0.1,0.1,0.1,0.2c0,0.1,0.1,0.1,0.2,0.1c0.1,0,0.1,0.1,0.2,0.1
			c0.1,0,0.1,0,0.1-0.1c0,0,0-0.1,0-0.3l0-1.2l0.4,0.2l0,1.2c0,0.2,0,0.3,0,0.4c0,0.1-0.1,0.1-0.1,0.1c-0.1,0-0.1,0-0.2,0
			c-0.1,0-0.2-0.1-0.3-0.1c-0.2-0.1-0.3-0.2-0.4-0.3c-0.1-0.1-0.2-0.3-0.2-0.4c0-0.1-0.1-0.3-0.1-0.6L369.8,230.9z M367.4,229.5
			l0.4,0.2l0,1.6l0.6,0.4l0,0.4l-1-0.6L367.4,229.5z M364.9,228.3c-0.2-0.1-0.3-0.1-0.5-0.1c-0.1,0-0.2,0.2-0.2,0.4
			c0,0.2,0.1,0.4,0.2,0.7c0.1,0.2,0.3,0.3,0.4,0.4c0.2,0.1,0.3,0.1,0.5,0.1c0.1-0.1,0.2-0.2,0.2-0.4c0-0.2-0.1-0.4-0.2-0.6
			C365.3,228.6,365.1,228.4,364.9,228.3z M365,228c0.3,0.2,0.5,0.4,0.7,0.8c0.2,0.3,0.3,0.6,0.3,0.9c0,0.3-0.1,0.5-0.3,0.5
			c-0.2,0.1-0.5,0-0.8-0.2c-0.3-0.2-0.6-0.4-0.8-0.8c-0.2-0.3-0.3-0.6-0.3-0.9c0-0.2,0.1-0.3,0.2-0.4c0.1-0.1,0.2-0.1,0.4-0.1
			C364.6,227.8,364.8,227.8,365,228z M362.6,226.8l-0.3,0.1c-0.1-0.2-0.2-0.3-0.3-0.4c-0.1,0-0.1,0-0.1,0c0,0,0,0,0,0.1
			c0,0,0,0.1,0,0.1c0,0.1,0.1,0.2,0.3,0.4c0.1,0.2,0.2,0.3,0.3,0.4c0.1,0.1,0.1,0.2,0.2,0.3c0,0.1,0,0.2,0,0.3
			c0,0.2-0.1,0.3-0.2,0.3c-0.1,0-0.3,0-0.5-0.1c-0.1-0.1-0.3-0.2-0.4-0.3c-0.1-0.1-0.2-0.3-0.3-0.5l0.3,0c0.1,0.2,0.2,0.4,0.3,0.5
			c0.1,0,0.1,0.1,0.2,0c0,0,0.1,0,0.1-0.1c0,0,0-0.1,0-0.2c0-0.1-0.1-0.2-0.2-0.3c-0.2-0.3-0.4-0.5-0.4-0.7
			c-0.1-0.1-0.1-0.2-0.1-0.3c0-0.1,0.1-0.2,0.2-0.3c0.1,0,0.2,0,0.4,0.1c0.1,0.1,0.2,0.1,0.3,0.2
			C362.4,226.5,362.5,226.7,362.6,226.8z"/>
		<path id="XMLID_115_" class="st47" d="M404.9,242.8l1.7,1l-0.4,8.2l-1.7-1L404.9,242.8z M399.7,243.3c-0.5-0.3-1-0.4-1.3-0.3
			c-0.4,0.1-0.5,0.4-0.6,0.9c0,0.5,0.1,1,0.5,1.6c0.3,0.5,0.8,1,1.3,1.3c0.5,0.3,1,0.4,1.3,0.3c0.4-0.1,0.6-0.4,0.6-0.9
			c0-0.5-0.1-1-0.5-1.6C400.7,244.1,400.2,243.7,399.7,243.3z M401.5,243.2l1.7,1l-0.2,5.9l-1.7-1l0-0.6c-0.3,0.1-0.7,0.1-1,0
			c-0.3-0.1-0.7-0.2-1.1-0.5c-0.9-0.5-1.6-1.3-2.2-2.2c-0.6-1-0.9-1.9-0.9-2.7c0-0.9,0.4-1.5,1-1.7c0.6-0.2,1.4-0.1,2.3,0.4
			c0.4,0.2,0.8,0.5,1.1,0.9c0.4,0.3,0.7,0.7,1,1.2L401.5,243.2z M393.4,238.4l1.6,1l-0.2,5.8l-1.6-1L393.4,238.4z M394.3,236.5
			c0.3,0.2,0.5,0.4,0.7,0.7c0.2,0.3,0.3,0.6,0.3,0.9c0,0.3-0.1,0.4-0.3,0.5c-0.2,0.1-0.5,0-0.7-0.2c-0.3-0.2-0.5-0.4-0.7-0.7
			c-0.2-0.3-0.3-0.6-0.3-0.9c0-0.3,0.1-0.4,0.3-0.5C393.8,236.3,394,236.4,394.3,236.5z M382.5,234.2c-0.1-0.4-0.3-0.7-0.6-1.1
			c-0.3-0.4-0.6-0.7-1-0.9c-0.4-0.2-0.8-0.4-1.1-0.3c-0.2,0-0.4,0.1-0.6,0.4L382.5,234.2z M384,236.3l-4.9-2.9
			c0.1,0.4,0.2,0.9,0.5,1.3c0.3,0.4,0.7,0.8,1.2,1c0.6,0.3,1.1,0.4,1.5,0.3l1.3,1.3c-0.3,0.2-0.7,0.3-1.2,0.2
			c-0.5-0.1-1-0.3-1.6-0.7c-0.9-0.6-1.7-1.3-2.3-2.2c-0.6-0.9-0.9-1.8-0.8-2.6c0-0.8,0.3-1.4,0.9-1.6c0.6-0.2,1.4-0.1,2.3,0.5
			c1,0.6,1.7,1.3,2.3,2.2c0.6,0.9,0.9,1.9,0.8,2.8L384,236.3z M373.5,227.9c-0.5-0.3-0.8-0.3-1.1-0.2c-0.3,0.1-0.5,0.4-0.5,0.9
			c0,0.5,0.1,1,0.4,1.4c0.3,0.5,0.7,0.9,1.1,1.1c0.5,0.3,0.8,0.4,1.2,0.2c0.3-0.1,0.5-0.4,0.5-0.9c0-0.5-0.1-1-0.4-1.4
			C374.3,228.6,373.9,228.2,373.5,227.9z M375.1,225.6l1.5,0.9l-0.2,7.7l-1.5-0.9l0-0.6c-0.3,0.1-0.6,0.1-0.9,0
			c-0.3-0.1-0.6-0.2-0.9-0.4c-0.8-0.5-1.4-1.1-1.9-2c-0.5-0.9-0.8-1.7-0.8-2.5c0-0.8,0.3-1.4,0.8-1.6c0.5-0.2,1.2-0.1,2,0.3
			c0.4,0.2,0.7,0.5,1,0.8c0.3,0.3,0.6,0.7,0.8,1.1L375.1,225.6z M364.3,221.5l1.4,0.8l0,0.6c0.3-0.1,0.6-0.1,0.9,0
			c0.3,0.1,0.5,0.2,0.8,0.3c0.6,0.3,1,0.8,1.4,1.4c0.3,0.5,0.5,1.1,0.5,1.7l-0.1,3.6l-1.4-0.8l0-2.4c0-0.6,0-1.1-0.1-1.3
			c-0.1-0.2-0.2-0.5-0.3-0.7c-0.1-0.2-0.3-0.4-0.6-0.5c-0.3-0.2-0.5-0.2-0.7-0.2c-0.2,0.1-0.4,0.2-0.4,0.5c0,0.1-0.1,0.5-0.1,1.1
			l0,2.2l-1.4-0.8L364.3,221.5z M361.7,219.9l1.4,0.8l-0.1,5.4l-1.4-0.8L361.7,219.9z M362.4,218.1c0.2,0.1,0.4,0.3,0.6,0.6
			c0.2,0.3,0.3,0.5,0.3,0.8c0,0.2-0.1,0.4-0.3,0.5c-0.2,0.1-0.4,0-0.6-0.1c-0.2-0.1-0.5-0.3-0.6-0.6c-0.2-0.3-0.3-0.5-0.3-0.8
			c0-0.2,0.1-0.4,0.3-0.5C361.9,217.9,362.2,218,362.4,218.1z"/>
		<path id="XMLID_114_" class="st47" d="M386.6,232.1c1.2,0,2.8,0.9,4,2.3l-2.1,1.6L386.6,232.1z"/>
		<path id="XMLID_113_" class="st47" d="M385.6,238.1c-0.6-1.4-1-2.7-0.9-3.6c0-1,0.3-1.7,0.8-2.1l2,4.2L385.6,238.1z"/>
		<path id="XMLID_112_" class="st47" d="M390.2,242.3c-0.6,0.4-1.3,0.8-2,1.1c-0.6-1.1-1.3-2.3-1.8-3.5l2-1.5L390.2,242.3z"/>
		<path id="XMLID_111_" class="st47" d="M392.4,239.1c0,1-0.5,1.8-1.2,2.5l-1.8-3.8l2.3-1.7C392.1,237,392.4,238,392.4,239.1z"/>
	</g>
</g>
</svg>
