<?xml version="1.0" encoding="utf-8"?>
<!-- Generator: Adobe Illustrator 19.0.0, SVG Export Plug-In . SVG Version: 6.00 Build 0)  -->
<svg version="1.1" id="OBJECTS" xmlns="http://www.w3.org/2000/svg" xmlns:xlink="http://www.w3.org/1999/xlink" x="0px" y="0px"
	 viewBox="-43 471.8 1136.6 643.2" style="enable-background:new -43 471.8 1136.6 643.2;" xml:space="preserve">
<style type="text/css">
	.st0{fill:#305EEA;}
	.st1{fill:#29DEBD;}
	.st2{fill:#23376B;}
	.st3{fill:#FFFFFF;}
	.st4{fill:none;stroke:#FED859;stroke-width:4.558;stroke-linecap:round;stroke-linejoin:round;stroke-miterlimit:10;}
	.st5{fill:#FED859;}
	.st6{fill:none;stroke:#FF5C81;stroke-width:6.3399;stroke-miterlimit:10;}
	.st7{fill:#FF5C81;}
	.st8{fill:none;stroke:#FED859;stroke-width:5.8999;stroke-linecap:round;stroke-linejoin:round;stroke-miterlimit:10;}
	.st9{fill:#DEE6FF;}
	.st10{fill:#CFDAFF;}
	.st11{fill:#071E5A;}
	.st12{fill:#04184D;}
	.st13{fill:#142D6E;}
	.st14{fill:#B7C9FF;}
	.st15{fill:#9EB0E6;}
	.st16{fill:#495B8A;}
	.st17{fill:url(#SVGID_1_);}
	.st18{fill:url(#SVGID_2_);}
	.st19{enable-background:new    ;}
	.st20{fill:url(#SVGID_3_);}
	.st21{fill:url(#SVGID_4_);}
	.st22{fill:url(#SVGID_5_);}
	.st23{fill:url(#SVGID_6_);}
	.st24{fill:url(#SVGID_7_);}
	.st25{fill:url(#SVGID_8_);}
	.st26{fill:url(#SVGID_9_);}
	.st27{fill:url(#SVGID_10_);}
	.st28{fill:url(#SVGID_11_);}
	.st29{fill:url(#SVGID_12_);}
	.st30{fill:url(#SVGID_13_);}
	.st31{fill:url(#SVGID_14_);}
	.st32{fill:url(#SVGID_15_);}
	.st33{fill:url(#SVGID_16_);}
	.st34{fill:url(#SVGID_17_);}
	.st35{fill:url(#SVGID_18_);}
	.st36{fill:url(#SVGID_19_);}
	.st37{fill:url(#SVGID_20_);}
	.st38{fill:url(#SVGID_21_);}
	.st39{fill:url(#SVGID_22_);}
	.st40{fill:none;stroke:#FCB28D;stroke-width:8.387;stroke-linecap:round;stroke-linejoin:round;stroke-miterlimit:10;}
	.st41{fill:none;stroke:#F73B66;stroke-width:11.6156;stroke-linecap:round;stroke-linejoin:round;stroke-miterlimit:10;}
	.st42{fill:#EC4071;}
	.st43{fill:none;stroke:#FED859;stroke-width:12.6797;stroke-linecap:round;stroke-linejoin:round;stroke-miterlimit:10;}
	.st44{fill:#FCA579;}
	.st45{fill:#FCB28D;}
	.st46{fill:#2F305E;}
	.st47{fill:#B7425D;}
	.st48{fill:#B9435D;}
	.st49{fill:#CB4967;}
	.st50{fill:#1F2A87;}
	.st51{fill:#1F2B89;}
	.st52{fill:#222F97;}
	.st53{fill:#B69B40;}
	.st54{fill:#B89C40;}
	.st55{fill:#CAAC47;}
	.st56{fill:#BFBFBF;}
	.st57{fill:#D6D6D6;}
	.st58{fill:#9D9D9D;}
	.st59{clip-path:url(#SVGID_24_);}
	.st60{fill:#293687;}
</style>
<g>
	<g>
		<g>
			<g>
				<path class="st0" d="M396.8,955.2L347.9,927c-2-1.2-1.8-3.2,0.6-4.6l0,0c2.3-1.3,5.9-1.5,7.9-0.3l48.9,28.2
					c2,1.2,1.8,3.2-0.6,4.6l0,0C402.4,956.2,398.9,956.3,396.8,955.2z"/>
				<path class="st0" d="M431.6,975.2l-19.1-11c-2-1.2-1.8-3.2,0.6-4.6l0,0c2.3-1.3,5.9-1.5,7.9-0.3l19.1,11c2,1.2,1.8,3.2-0.6,4.6
					l0,0C437.2,976.3,433.6,976.4,431.6,975.2z"/>
				<path class="st0" d="M528.8,1031.3l-72.4-41.8c-2-1.2-1.8-3.2,0.6-4.6l0,0c2.3-1.3,5.9-1.5,7.9-0.3l72.4,41.8
					c2,1.2,1.8,3.2-0.6,4.6l0,0C534.3,1032.3,530.8,1032.5,528.8,1031.3z"/>
				<path class="st0" d="M604.2,1074.8l-49.2-28.3c-2-1.2-1.8-3.2,0.6-4.6l0,0c2.3-1.3,5.9-1.5,7.9-0.3l49.1,28.4
					c2,1.2,1.8,3.2-0.6,4.6l0,0C609.7,1075.9,606.2,1076,604.2,1074.8z"/>
				<path class="st0" d="M394.3,933.4l-21.4-12.3c-2-1.2-1.8-3.2,0.6-4.6l0,0c2.3-1.3,5.9-1.5,7.9-0.3l21.4,12.3
					c2,1.2,1.8,3.2-0.6,4.6l0,0C399.8,934.5,396.3,934.6,394.3,933.4z"/>
				<path class="st0" d="M488.9,988.1L467,975.4c-2-1.2-1.8-3.2,0.6-4.6l0,0c2.3-1.3,5.9-1.5,7.9-0.3l21.9,12.6
					c2,1.2,1.8,3.2-0.6,4.6l0,0C494.4,989.1,490.9,989.2,488.9,988.1z"/>
				<path class="st0" d="M546.3,1021.2l-42.6-24.6c-2-1.2-1.8-3.2,0.6-4.6l0,0c2.3-1.3,5.9-1.5,7.9-0.3l42.6,24.6
					c2,1.2,1.8,3.2-0.6,4.6l0,0C551.8,1022.2,548.3,1022.4,546.3,1021.2z"/>
				<path class="st0" d="M573.2,1036.7l-12.1-7c-2-1.2-1.8-3.2,0.6-4.6l0,0c2.3-1.3,5.9-1.5,7.9-0.3l12.1,7c2,1.2,1.8,3.2-0.6,4.6
					l0,0C578.7,1037.8,575.2,1037.9,573.2,1036.7z"/>
				<path class="st0" d="M449,944.8l-42.6-24.6c-2-1.2-1.8-3.2,0.6-4.6l0,0c2.3-1.3,5.9-1.5,7.9-0.3l42.6,24.6
					c2,1.2,1.8,3.2-0.6,4.6l0,0C454.5,945.8,451,946,449,944.8z"/>
				<path class="st0" d="M563.8,1011.1l-100-57.8c-2-1.2-1.8-3.2,0.6-4.6l0,0c2.3-1.3,5.9-1.5,7.9-0.3l100,57.8
					c2,1.2,1.8,3.2-0.6,4.6l0,0C569.3,1012.1,565.8,1012.3,563.8,1011.1z"/>
				<path class="st0" d="M587,1024.5l-8.5-4.9c-2-1.2-1.8-3.2,0.6-4.6l0,0c2.3-1.3,5.9-1.5,7.9-0.3l8.5,4.9c2,1.2,1.8,3.2-0.6,4.6
					l0,0C592.6,1025.6,589.1,1025.7,587,1024.5z"/>
				<path class="st0" d="M610.5,1038.1l-8.5-4.9c-2-1.2-1.8-3.2,0.6-4.6l0,0c2.3-1.3,5.9-1.5,7.9-0.3l8.5,4.9c2,1.2,1.8,3.2-0.6,4.6
					l0,0C616.1,1039.1,612.5,1039.2,610.5,1038.1z"/>
				<path class="st0" d="M634,1051.6l-8.5-4.9c-2-1.2-1.8-3.2,0.6-4.6l0,0c2.3-1.3,5.9-1.5,7.9-0.3l8.5,4.9c2,1.2,1.8,3.2-0.6,4.6
					l0,0C639.5,1052.7,636,1052.8,634,1051.6z"/>
				<path class="st0" d="M657.5,1065.2l-8.5-4.9c-2-1.2-1.8-3.2,0.6-4.6l0,0c2.3-1.3,5.9-1.5,7.9-0.3l8.5,4.9c2,1.2,1.8,3.2-0.6,4.6
					l0,0C663,1066.2,659.5,1066.4,657.5,1065.2z"/>
				<path class="st0" d="M450.5,925.5l-26.7-15.4c-2-1.2-1.8-3.2,0.6-4.6l0,0c2.3-1.3,5.9-1.5,7.9-0.3l26.7,15.4
					c2,1.2,1.8,3.2-0.6,4.6l0,0C456.1,926.5,452.6,926.7,450.5,925.5z"/>
				<path class="st0" d="M486.9,946.5l-21.2-12.3c-2-1.2-1.8-3.2,0.6-4.6l0,0c2.3-1.3,5.9-1.5,7.9-0.3l21.2,12.3
					c2,1.2,1.8,3.2-0.6,4.6l0,0C492.4,947.5,488.9,947.7,486.9,946.5z"/>
				<path class="st0" d="M528.7,970.6L502,955.2c-2-1.2-1.8-3.2,0.6-4.6l0,0c2.3-1.3,5.9-1.5,7.9-0.3l26.7,15.4
					c2,1.2,1.8,3.2-0.6,4.6l0,0C534.3,971.7,530.7,971.8,528.7,970.6z"/>
				<path class="st0" d="M638.7,1034.1l-85.4-49.3c-2-1.2-1.8-3.2,0.6-4.6l0,0c2.3-1.3,5.9-1.5,7.9-0.3l85.4,49.3
					c2,1.2,1.8,3.2-0.6,4.6l0,0C644.2,1035.2,640.7,1035.3,638.7,1034.1z"/>
			</g>
			<g>
				<g>
					<path class="st1" d="M407.8,1039.1c2.4-1.4,6.2-1.4,8.6,0s2.4,3.6,0,5s-6.2,1.4-8.6,0S405.4,1040.5,407.8,1039.1z"/>
					<path class="st1" d="M418.2,1033.1c2.4-1.4,6.2-1.4,8.6,0s2.4,3.6,0,5s-6.2,1.4-8.6,0C415.8,1036.7,415.8,1034.5,418.2,1033.1z
						"/>
					<path class="st1" d="M428.6,1027.1c2.4-1.4,6.2-1.4,8.6,0s2.4,3.6,0,5s-6.2,1.4-8.6,0S426.2,1028.5,428.6,1027.1z"/>
				</g>
			</g>
			<g>
				<path class="st2" d="M356.9,1045.1c2.4-1.4,6.2-1.4,8.6,0s2.4,3.6,0,5s-6.2,1.4-8.6,0S354.5,1046.5,356.9,1045.1z"/>
				<path class="st2" d="M367.2,1039.1c2.4-1.4,6.2-1.4,8.6,0s2.4,3.6,0,5s-6.2,1.4-8.6,0C364.9,1042.7,364.9,1040.5,367.2,1039.1z"
					/>
				<path class="st2" d="M377.6,1033.1c2.4-1.4,6.2-1.4,8.6,0s2.4,3.6,0,5s-6.2,1.4-8.6,0S375.2,1034.5,377.6,1033.1z"/>
			</g>
			<g>
				<path class="st3" d="M308.1,842.1c2.4-1.4,6.2-1.4,8.6,0s2.4,3.6,0,5s-6.2,1.4-8.6,0S305.7,843.5,308.1,842.1z"/>
				<path class="st3" d="M318.5,836.1c2.4-1.4,6.2-1.4,8.6,0s2.4,3.6,0,5s-6.2,1.4-8.6,0S316.1,837.5,318.5,836.1z"/>
				<path class="st3" d="M328.9,830.2c2.4-1.4,6.2-1.4,8.6,0c2.4,1.4,2.4,3.6,0,5c-2.4,1.4-6.2,1.4-8.6,0
					C326.5,833.8,326.5,831.5,328.9,830.2z"/>
			</g>
			<g>
				<g>
					<path class="st1" d="M870.9,852.8c0-2.7,1.9-3.9,4.3-2.5c2.4,1.4,4.3,4.7,4.3,7.5s-1.9,3.9-4.3,2.5
						C872.9,858.9,870.9,855.6,870.9,852.8z"/>
					<path class="st1" d="M870.9,840.8c0-2.7,1.9-3.9,4.3-2.5c2.4,1.4,4.3,4.7,4.3,7.5s-1.9,3.9-4.3,2.5
						C872.9,846.9,870.9,843.6,870.9,840.8z"/>
					<path class="st1" d="M870.9,828.9c0-2.7,1.9-3.9,4.3-2.5c2.4,1.4,4.3,4.7,4.3,7.5c0,2.8-1.9,3.9-4.3,2.5
						C872.9,835,870.9,831.6,870.9,828.9z"/>
				</g>
			</g>
			<g>
				<g>
					<path class="st1" d="M795.6,546.8c0-2.7,1.9-3.9,4.3-2.5c2.4,1.4,4.3,4.7,4.3,7.5c0,2.7-1.9,3.9-4.3,2.5
						S795.6,549.5,795.6,546.8z"/>
					<path class="st1" d="M795.6,534.8c0-2.7,1.9-3.9,4.3-2.5c2.4,1.4,4.3,4.7,4.3,7.5c0,2.7-1.9,3.9-4.3,2.5
						S795.6,537.5,795.6,534.8z"/>
					<path class="st1" d="M795.6,522.8c0-2.7,1.9-3.9,4.3-2.5c2.4,1.4,4.3,4.7,4.3,7.5s-1.9,3.9-4.3,2.5S795.6,525.6,795.6,522.8z"
						/>
				</g>
			</g>
			<g>
				<g>
					<path class="st1" d="M876.9,675.7c0-2.7,1.9-3.9,4.3-2.5c2.4,1.4,4.3,4.7,4.3,7.5c0,2.7-1.9,3.9-4.3,2.5
						C878.9,681.8,876.9,678.4,876.9,675.7z"/>
					<path class="st1" d="M876.9,663.7c0-2.7,1.9-3.9,4.3-2.5c2.4,1.4,4.3,4.7,4.3,7.5c0,2.7-1.9,3.9-4.3,2.5
						C878.9,669.8,876.9,666.5,876.9,663.7z"/>
					<path class="st1" d="M876.9,651.7c0-2.7,1.9-3.9,4.3-2.5c2.4,1.4,4.3,4.7,4.3,7.5c0,2.8-1.9,3.9-4.3,2.5
						C878.9,657.8,876.9,654.5,876.9,651.7z"/>
				</g>
			</g>
			<g>
				<polyline class="st4" points="859.4,811.8 859.4,683.3 781.8,639.3 781.8,574.9 880.6,633.6 880.6,555.4 				"/>
				<path class="st5" d="M851.4,811.1c0-5,3.5-7,7.8-4.5s7.8,8.5,7.8,13.5s-3.5,7-7.8,4.5S851.4,816.1,851.4,811.1z"/>
				<path class="st5" d="M872.8,550.3c0-5,3.5-7,7.8-4.5s7.8,8.5,7.8,13.5s-3.5,7-7.8,4.5S872.8,555.3,872.8,550.3z"/>
				<path class="st5" d="M774,572.5c0-5,3.5-7,7.8-4.5s7.8,8.5,7.8,13.5s-3.5,7-7.8,4.5C777.4,583.6,774,577.5,774,572.5z"/>
			</g>
			<path class="st5" d="M479.5,1040.6c4.3-2.5,11.3-2.5,15.6,0s4.3,6.5,0,9s-11.3,2.5-15.6,0S475.2,1043.1,479.5,1040.6z"/>
			<path class="st5" d="M866.9,1017c4.3-2.5,11.3-2.5,15.6,0s4.3,6.5,0,9s-11.3,2.5-15.6,0C862.6,1023.5,862.6,1019.5,866.9,1017z"
				/>
			<path class="st5" d="M174.9,962.8c4.3-2.5,11.3-2.5,15.6,0s4.3,6.5,0,9s-11.3,2.5-15.6,0C170.6,969.3,170.6,965.3,174.9,962.8z"
				/>
			<path class="st5" d="M264.4,851.7c4.3-2.5,11.3-2.5,15.6,0c4.3,2.5,4.3,6.5,0,9s-11.3,2.5-15.6,0
				C260.1,858.2,260.1,854.1,264.4,851.7z"/>
			<g>
				<polyline class="st6" points="450.7,999.4 418.7,1017.9 193,887.6 158.2,907.7 337.8,1009.6 261.4,1053.7 				"/>
				<path class="st7" d="M253.4,1049.2c4.3-2.5,11.3-2.5,15.6,0c4.3,2.5,4.3,6.5,0,9s-11.3,2.5-15.6,0
					C249.1,1055.8,249.1,1051.7,253.4,1049.2z"/>
				<path class="st7" d="M439.6,996c4.3-2.5,11.3-2.5,15.6,0c4.3,2.5,4.3,6.5,0,9s-11.3,2.5-15.6,0S435.3,998.5,439.6,996z"/>
				<path class="st7" d="M154.2,902.9c4.3-2.5,11.3-2.5,15.6,0s4.3,6.5,0,9s-11.3,2.5-15.6,0S149.9,905.4,154.2,902.9z"/>
				<path class="st7" d="M185.9,883.6c4.3-2.5,11.3-2.5,15.6,0s4.3,6.5,0,9s-11.3,2.5-15.6,0C181.6,890.1,181.6,886.1,185.9,883.6z"
					/>
				<path class="st7" d="M326,1003.5c4.3-2.5,11.3-2.5,15.6,0c4.3,2.5,4.3,6.5,0,9s-11.3,2.5-15.6,0
					C321.7,1010,321.7,1005.9,326,1003.5z"/>
				<path class="st7" d="M409.5,1010.6c4.3-2.5,11.3-2.5,15.6,0c4.3,2.5,4.3,6.5,0,9s-11.3,2.5-15.6,0S405.2,1013.1,409.5,1010.6z"
					/>
			</g>
			<g>
				<polyline class="st8" points="835.3,1049.6 803.3,1068.1 710.7,1015.1 676,1035.2 708.3,1053.7 642.9,1091.5 				"/>
				<path class="st5" d="M635.1,1089.5c4.3-2.5,11.3-2.5,15.6,0s4.3,6.5,0,9s-11.3,2.5-15.6,0S630.8,1092,635.1,1089.5z"/>
				<path class="st5" d="M828.4,1042.9c4.3-2.5,11.3-2.5,15.6,0s4.3,6.5,0,9s-11.3,2.5-15.6,0S824.1,1045.4,828.4,1042.9z"/>
				<path class="st5" d="M794,1061.5c4.3-2.5,11.3-2.5,15.6,0s4.3,6.5,0,9s-11.3,2.5-15.6,0S789.7,1064,794,1061.5z"/>
			</g>
		</g>
		<g>
			<g>
				<polygon class="st9" points="789.8,1036.1 627.6,942.4 737.4,879 899.6,972.7 				"/>
				<polygon class="st10" points="774.6,951.2 789.8,1036.1 627.6,942.4 				"/>
				<polygon class="st3" points="752.6,963.9 737.4,879 899.6,972.7 				"/>
			</g>
			<g>
				<polygon class="st9" points="417.3,993.7 255,900 364.8,836.6 527.1,930.3 				"/>
				<polygon class="st10" points="402,908.8 417.3,993.7 255,900 				"/>
				<polygon class="st3" points="380.1,921.5 364.8,836.6 527.1,930.3 				"/>
			</g>
			<g>
				<path class="st1" d="M620.8,533.5c0-42.1,29.5-59.1,66-38.1c36.4,21,66,72.2,66,114.3c0,42.1-29.5,59.1-66,38.1
					S620.8,575.6,620.8,533.5z"/>
				<path class="st11" d="M702.6,565.6v-6.1l-7.2-7.4c0-0.2-0.1-0.5-0.1-0.7c0-0.2-0.1-0.4-0.1-0.7l4.8-4.2l-2.6-6.9l-7.4-3
					c-0.3-0.6-0.7-1.3-1.1-1.9l1.1-7.9l-4.6-5.7l-5.6,1.8c-0.6-0.6-1.2-1.2-1.9-1.7l-2.6-9.1L670,509l-2.6,6c-0.5-0.2-1-0.3-1.5-0.4
					l-5.9-8.2l-4.6,0.4l0.6,8.6c-0.1,0.1-0.3,0.2-0.4,0.2c-0.1,0.1-0.3,0.2-0.4,0.2l-7.2-4.9l-2.7,3.8l4.1,9.2c0,0,0,0.1,0,0.2
					c-0.1,0.3-0.2,0.7-0.3,1l-6.5-0.3v6.1l6.5,7.3c0.1,0.4,0.2,0.8,0.2,1.1c0,0.1,0,0.1,0,0.2l-4.2,4.4l2.6,6.9l7.2,3.4
					c0.1,0.2,0.3,0.5,0.4,0.7c0.1,0.2,0.3,0.5,0.4,0.7l-0.6,7.9l4.6,5.7l5.9-1.3l0.1,0.1c0.3,0.3,0.7,0.6,1,0.9l3,9.3l5.3,3.1l3-5.8
					c0.5,0.1,1,0.3,1.5,0.4l5.4,8.1l4.6-0.4l-1-8.7c0.5-0.2,0.9-0.5,1.3-0.8l7,5.3l2.7-3.8l-4.5-9.3c0.1-0.5,0.3-1,0.4-1.6
					L702.6,565.6z M672.6,557.5c-5.9-3.4-10.6-11.6-10.6-18.4s4.8-9.5,10.6-6.1c5.9,3.4,10.6,11.6,10.6,18.4
					C683.2,558.2,678.5,560.9,672.6,557.5z"/>
				<path class="st11" d="M727.8,622.6l0.4-3.7l-4.4-5.4c0-0.1,0-0.3-0.1-0.4c0-0.1,0-0.3,0-0.4l3.6-2l-1.3-4.5l-4.8-2.7
					c-0.2-0.4-0.4-0.9-0.6-1.3l1.3-4.6l-2.7-4l-4,0.4c-0.4-0.4-0.8-0.8-1.2-1.3l-1.1-5.8l-3.4-2.5l-2.2,3.3c-0.3-0.2-0.7-0.3-1-0.4
					l-3.5-5.7l-3.2-0.3l-0.2,5.3c-0.1,0-0.2,0.1-0.3,0.1s-0.2,0.1-0.3,0.1l-4.6-3.8l-2.1,2l2.2,6.1v0.1c-0.1,0.2-0.2,0.4-0.3,0.6
					l-4.5-0.9l-0.4,3.7l4,5.2c0,0.2,0,0.5,0.1,0.7v0.1l-3.2,2.2l1.3,4.5l4.7,2.9c0.1,0.2,0.2,0.3,0.2,0.5c0.1,0.2,0.1,0.3,0.2,0.5
					l-1,4.7l2.7,4l4.2-0.1l0.1,0.1c0.2,0.2,0.4,0.4,0.6,0.7l1.4,6l3.4,2.5l2.5-3.1c0.3,0.1,0.7,0.3,1,0.4l3.1,5.5l3.2,0.3l-0.1-5.4
					c0.3-0.1,0.7-0.2,1-0.3l4.5,4l2.1-2l-2.4-6.2c0.1-0.3,0.3-0.6,0.4-0.9L727.8,622.6z M707.8,614.1c-3.8-2.8-6.5-8.3-6-12.4
					c0.5-4.1,4-5.2,7.8-2.4s6.5,8.3,6,12.4C715,615.8,711.6,616.8,707.8,614.1z"/>
			</g>
		</g>
		<g>
			<g>
				<g>
					<g>
						<path class="st12" d="M836.6,704.5L582.4,557.7c-1.5-0.8-2.8-0.9-3.7-0.4l-3.5,2c1-0.6,2.3-0.5,3.7,0.4l254.2,146.8
							c2.9,1.7,5.2,5.7,5.2,9l-0.5,192.8c0,1.7-0.6,2.8-1.5,3.4l3.5-2c0.9-0.5,1.5-1.7,1.5-3.4l0.5-192.8
							C841.8,710.2,839.5,706.2,836.6,704.5z"/>
						<path class="st13" d="M833.1,706.5c2.9,1.7,5.2,5.7,5.2,9l-0.5,192.8c0,3.3-2.4,4.7-5.3,3L578.3,764.6c-2.9-1.7-5.2-5.7-5.2-9
							l0.5-192.8c0-3.3,2.4-4.7,5.3-3L833.1,706.5z"/>
					</g>
					<g>
						<g>
							<path class="st5" d="M831.5,711c1.2,0.7,2.1,2.3,2.1,3.6l-0.5,189.2c0,1.3-0.9,1.9-2.1,1.2L579.9,760
								c-1.2-0.7-2.1-2.3-2.1-3.6l0.5-189.2c0-1.3,0.9-1.9,2.1-1.2L831.5,711z"/>
						</g>
					</g>
				</g>
				<g>
					<g>
						<path class="st13" d="M834.3,917.4l-168.1,97.7c-2.5,1.4-6.5,1.4-9,0L401.5,867.4c-1.3-0.7-1.9-1.7-1.9-2.6v6.8
							c0,1,0.6,1.9,1.9,2.6l255.7,147.6c2.5,1.4,6.5,1.4,9,0l168.1-97.7c1.2-0.7,1.9-1.7,1.9-2.6v-6.8
							C836.2,915.7,835.6,916.7,834.3,917.4z"/>
						<path class="st14" d="M834.3,912.1c2.5,1.4,2.5,3.8,0,5.2L666.2,1015c-2.5,1.4-6.5,1.4-9,0L401.5,867.4
							c-2.5-1.4-2.5-3.8,0-5.2l168.1-97.7c2.5-1.4,6.5-1.4,9,0L834.3,912.1z"/>
					</g>
					<g>
						<path class="st15" d="M625.7,918c3.5,2,3.5,5.2,0.1,7.2l-45.2,26.3c-3.4,2-9,2-12.5,0l-59.2-34.2c-3.5-2-3.5-5.2,0-7.2
							l45.1-26.3c3.4-2,9-2,12.5,0L625.7,918z"/>
						<path class="st9" d="M805.3,910.2c1.9,1.1,2,2.9,0,4.1l-83.6,48.5c-1.9,1.1-5.1,1.1-7,0L488.8,832.4c-1.9-1.1-1.9-2.9,0-4.1
							l83.6-48.6c1.9-1.1,5.1-1.1,7,0L805.3,910.2z"/>
					</g>
					<g>
						<g>
							<path class="st11" d="M571.1,796.2l19.8,11.4c0.8,0.4,2,0.4,2.7,0l7.3-4.2c0.4-0.2,0.6-0.5,0.6-0.8v-2.7
								c0,0.3-0.2,0.6-0.6,0.8l-7.3,4.2c-0.7,0.4-2,0.4-2.7,0l-19.8-11.4c-0.4-0.2-0.6-0.5-0.6-0.8v2.7
								C570.5,795.7,570.7,796,571.1,796.2z"/>
							<path class="st11" d="M597,808v2.7c0,0.3,0.2,0.6,0.6,0.8l19.8,11.4c0.8,0.4,2,0.4,2.7,0l7.3-4.2c0.4-0.2,0.6-0.5,0.6-0.8
								v-2.7c0,0.3-0.2,0.6-0.6,0.8l-7.3,4.2c-0.7,0.4-2,0.4-2.7,0l-19.8-11.4C597.2,808.6,597,808.3,597,808z"/>
							<path class="st11" d="M623.5,823.3v2.7c0,0.3,0.2,0.6,0.6,0.8l19.8,11.4c0.8,0.4,2,0.4,2.7,0l7.3-4.2
								c0.4-0.2,0.6-0.5,0.6-0.8v-2.7c0,0.3-0.2,0.6-0.6,0.8l-7.3,4.2c-0.7,0.4-2,0.4-2.7,0l-19.8-11.4
								C623.7,823.9,623.5,823.6,623.5,823.3z"/>
							<path class="st11" d="M650,838.6v2.7c0,0.3,0.2,0.6,0.6,0.8l19.8,11.4c0.8,0.4,2,0.4,2.7,0l7.3-4.2c0.4-0.2,0.6-0.5,0.6-0.8
								v-2.7c0,0.3-0.2,0.6-0.6,0.8l-7.3,4.2c-0.7,0.4-2,0.4-2.7,0l-19.8-11.4C650.2,839.2,650,838.9,650,838.6z"/>
							<path class="st11" d="M676.5,853.9v2.7c0,0.3,0.2,0.6,0.6,0.8l19.8,11.4c0.8,0.4,2,0.4,2.7,0l7.3-4.2
								c0.4-0.2,0.6-0.5,0.6-0.8v-2.7c0,0.3-0.2,0.6-0.6,0.8l-7.3,4.2c-0.7,0.4-2,0.4-2.7,0l-19.8-11.4
								C676.7,854.5,676.5,854.2,676.5,853.9z"/>
							<path class="st11" d="M703,869.2v2.7c0,0.3,0.2,0.6,0.6,0.8l19.8,11.4c0.8,0.4,2,0.4,2.7,0l7.3-4.2c0.4-0.2,0.6-0.5,0.6-0.8
								v-2.7c0,0.3-0.2,0.6-0.6,0.8l-7.3,4.2c-0.7,0.4-2,0.4-2.7,0L703.6,870C703.2,869.8,703,869.5,703,869.2z"/>
							<path class="st11" d="M550,809l18.9,10.9c1,0.6,2.6,0.6,3.6,0l14-8.2c0.5-0.3,0.7-0.7,0.7-1V808c0,0.4-0.2,0.8-0.7,1l-14,8.2
								c-1,0.6-2.6,0.6-3.6,0l-18.9-11c-0.5-0.3-0.8-0.7-0.8-1.1v2.7C549.3,808.3,549.5,808.7,550,809z"/>
							<path class="st11" d="M613.1,824.3l-14,8.2c-1,0.6-2.6,0.6-3.6,0l-18.9-10.9c-0.5-0.3-0.8-0.7-0.8-1.1v2.7
								c0,0.4,0.3,0.8,0.8,1.1l18.9,10.9c1,0.6,2.6,0.6,3.6,0l14-8.2c0.5-0.3,0.7-0.7,0.7-1v-2.7C613.8,823.6,613.6,824,613.1,824.3
								z"/>
							<path class="st11" d="M639.6,839.6l-14,8.2c-1,0.6-2.6,0.6-3.6,0l-19-11c-0.5-0.3-0.8-0.7-0.8-1.1v2.7c0,0.4,0.3,0.8,0.8,1.1
								l18.9,10.9c1,0.6,2.6,0.6,3.6,0l14-8.2c0.5-0.3,0.7-0.7,0.7-1v-2.7C640.3,838.9,640.1,839.3,639.6,839.6z"/>
							<path class="st11" d="M666.1,854.9l-14,8.2c-1,0.6-2.6,0.6-3.6,0l-18.9-10.9c-0.5-0.3-0.8-0.7-0.8-1.1v2.7
								c0,0.4,0.3,0.8,0.8,1.1l18.9,10.9c1,0.6,2.6,0.6,3.6,0l14-8.2c0.5-0.3,0.7-0.7,0.7-1v-2.7
								C666.8,854.2,666.6,854.6,666.1,854.9z"/>
							<path class="st11" d="M692.6,870.2l-14,8.2c-1,0.6-2.6,0.6-3.6,0l-19-11c-0.5-0.3-0.8-0.7-0.8-1.1v2.7c0,0.4,0.3,0.8,0.8,1.1
								l18.9,10.9c1,0.6,2.6,0.6,3.6,0l14-8.2c0.5-0.3,0.7-0.7,0.7-1v-2.7C693.3,869.5,693.1,869.9,692.6,870.2z"/>
							<path class="st11" d="M681.8,881.7v2.7c0,0.4,0.3,0.8,0.8,1.1l18.9,10.9c1,0.6,2.6,0.6,3.6,0l14-8.2c0.5-0.3,0.7-0.7,0.7-1
								v-2.7c0,0.4-0.2,0.8-0.7,1l-14,8.2c-1,0.6-2.6,0.6-3.6,0l-18.9-10.9C682,882.4,681.8,882.1,681.8,881.7z"/>
							<path class="st11" d="M528.5,821.4l18.9,10.9c1,0.6,2.6,0.6,3.6,0l14-8.2c0.5-0.3,0.7-0.7,0.7-1v-2.7c0,0.4-0.2,0.8-0.7,1
								l-14,8.2c-1,0.6-2.6,0.6-3.6,0l-18.9-10.9c-0.5-0.3-0.8-0.7-0.8-1.1v2.7C527.8,820.8,528,821.1,528.5,821.4z"/>
							<path class="st11" d="M573.9,844.9L555,834c-0.5-0.3-0.8-0.7-0.8-1.1v2.7c0,0.4,0.3,0.8,0.8,1.1l18.9,10.9
								c1,0.6,2.6,0.6,3.6,0l14-8.2c0.5-0.3,0.7-0.7,0.7-1v-2.7c0,0.4-0.2,0.8-0.7,1l-14,8.2C576.6,845.5,574.9,845.5,573.9,844.9z"
								/>
							<path class="st11" d="M581.5,852l18.9,10.9c1,0.6,2.6,0.6,3.6,0l14-8.2c0.5-0.3,0.7-0.7,0.7-1V851c0,0.4-0.2,0.8-0.7,1
								l-14,8.2c-1,0.6-2.6,0.6-3.6,0l-18.9-10.9c-0.5-0.3-0.8-0.7-0.8-1.1v2.7C580.8,851.4,581,851.7,581.5,852z"/>
							<path class="st11" d="M608,867.3l18.9,10.9c1,0.6,2.6,0.6,3.6,0l14-8.2c0.5-0.3,0.7-0.7,0.7-1v-2.7c0,0.4-0.2,0.8-0.7,1
								l-14,8.2c-1,0.6-2.6,0.6-3.6,0L608,864.6c-0.5-0.3-0.8-0.7-0.8-1.1v2.7C607.3,866.7,607.5,867,608,867.3z"/>
							<path class="st11" d="M634.5,882.6l18.9,10.9c1,0.6,2.6,0.6,3.6,0l14-8.2c0.5-0.3,0.7-0.7,0.7-1v-2.7c0,0.4-0.3,0.8-0.7,1
								l-14,8.2c-1,0.6-2.6,0.6-3.6,0l-18.9-10.9c-0.5-0.3-0.8-0.7-0.8-1.1v2.7C633.8,882,634,882.3,634.5,882.6z"/>
							<path class="st11" d="M661,897.9l18.9,10.9c1,0.6,2.6,0.6,3.6,0l14-8.2c0.5-0.3,0.7-0.7,0.7-1v-2.7c0,0.4-0.2,0.8-0.7,1
								l-14,8.2c-1,0.6-2.6,0.6-3.6,0L661,895.2c-0.5-0.3-0.8-0.7-0.8-1.1v2.7C660.3,897.3,660.5,897.6,661,897.9z"/>
							<path class="st11" d="M729.5,884.5v2.7c0,0.3,0.2,0.6,0.6,0.8l19.8,11.4c0.8,0.4,2,0.4,2.7,0l7.3-4.2
								c0.4-0.2,0.6-0.5,0.6-0.8v-2.7c0,0.3-0.2,0.6-0.6,0.8l-7.3,4.2c-0.7,0.4-2,0.4-2.7,0l-19.8-11.4
								C729.7,885.1,729.5,884.8,729.5,884.5z"/>
							<path class="st11" d="M786.4,907.8l-7.3,4.2c-0.7,0.4-2,0.4-2.7,0l-19.8-11.4c-0.4-0.2-0.6-0.5-0.6-0.8v2.7
								c0,0.3,0.2,0.6,0.6,0.8l19.8,11.4c0.8,0.4,2,0.4,2.7,0l7.3-4.2c0.4-0.2,0.6-0.5,0.6-0.8V907
								C786.9,907.3,786.7,907.6,786.4,907.8z"/>
							<path class="st11" d="M731.5,911.6l14-8.2c0.5-0.3,0.8-0.7,0.8-1v-2.7c0,0.4-0.3,0.8-0.8,1l-14,8.2c-1,0.6-2.6,0.6-3.6,0
								L709,898c-0.5-0.3-0.8-0.7-0.8-1.1v2.7c0,0.4,0.3,0.8,0.8,1.1l18.9,10.9C728.9,912.2,730.5,912.2,731.5,911.6z"/>
							<path class="st11" d="M772.1,916.1l-14,8.2c-1,0.6-2.6,0.6-3.6,0l-18.9-10.9c-0.5-0.3-0.8-0.7-0.8-1.1v2.7
								c0,0.4,0.3,0.8,0.8,1.1l18.9,10.9c1,0.6,2.6,0.6,3.6,0l14-8.2c0.5-0.3,0.7-0.7,0.7-1v-2.7
								C772.8,915.4,772.6,915.8,772.1,916.1z"/>
							<path class="st11" d="M687.5,913.2l18.9,10.9c1,0.6,2.6,0.6,3.6,0l14-8.2c0.5-0.3,0.8-0.7,0.8-1v-2.7c0,0.4-0.3,0.8-0.8,1
								l-14,8.2c-1,0.6-2.6,0.6-3.6,0l-18.9-10.9c-0.5-0.3-0.8-0.7-0.8-1.1v2.7C686.8,912.6,687,912.9,687.5,913.2z"/>
							<path class="st11" d="M750.6,928.6l-14,8.2c-1,0.6-2.6,0.6-3.6,0l-19-11c-0.5-0.3-0.8-0.7-0.8-1.1v2.7c0,0.4,0.3,0.8,0.8,1.1
								l18.9,10.9c1,0.6,2.6,0.6,3.6,0l14-8.2c0.5-0.3,0.7-0.7,0.7-1v-2.7C751.3,927.9,751.1,928.3,750.6,928.6z"/>
							<path class="st11" d="M544.3,835.6v-2.7c0,0.4-0.2,0.8-0.7,1l-14,8.2c-1,0.6-2.6,0.6-3.6,0l-18.9-10.9
								c-0.5-0.3-0.8-0.7-0.8-1.1v2.7c0,0.4,0.3,0.8,0.8,1.1l18.9,10.9c1,0.6,2.6,0.6,3.6,0l14-8.2
								C544.1,836.4,544.3,836,544.3,835.6z"/>
							<path class="st11" d="M570.9,850.9v-2.7c0,0.4-0.2,0.8-0.7,1l-14,8.2c-1,0.6-2.6,0.6-3.6,0l-18.9-10.9
								c-0.5-0.3-0.8-0.7-0.8-1.1v2.7c0,0.4,0.3,0.8,0.8,1.1l18.9,10.9c1,0.6,2.6,0.6,3.6,0l14-8.2
								C570.6,851.7,570.8,851.3,570.9,850.9z"/>
							<path class="st11" d="M676.9,912.1v-2.7c0,0.3-0.2,0.7-0.7,1l-14.3,8.3c-0.9,0.5-2.4,0.5-3.3,0l-98.7-57
								c-0.5-0.3-0.7-0.6-0.7-1v2.7c0,0.4,0.2,0.7,0.7,1l98.7,57c0.9,0.5,2.4,0.5,3.3,0l14.3-8.3
								C676.7,912.8,676.9,912.5,676.9,912.1z"/>
							<path class="st11" d="M703.3,927.4v-2.7c0,0.4-0.3,0.8-0.8,1l-14,8.2c-1,0.6-2.6,0.6-3.6,0L666,923c-0.5-0.3-0.8-0.7-0.8-1.1
								v2.7c0,0.4,0.3,0.8,0.8,1.1l18.9,10.9c1,0.6,2.6,0.6,3.6,0l14-8.2C703.1,928.2,703.3,927.8,703.3,927.4z"/>
							<path class="st11" d="M729.1,941.1l-14,8.2c-1,0.6-2.6,0.6-3.6,0l-18.9-10.9c-0.5-0.3-0.8-0.7-0.8-1.1v2.7
								c0,0.4,0.3,0.8,0.8,1.1l18.9,10.9c1,0.6,2.6,0.6,3.6,0l14-8.2c0.5-0.3,0.7-0.7,0.7-1v-2.7
								C729.8,940.4,729.6,940.8,729.1,941.1z"/>
						</g>
						<g>
							<path class="st16" d="M600.9,799.1c0.8,0.4,0.8,1.1,0,1.6l-7.3,4.2c-0.7,0.4-2,0.4-2.7,0l-19.8-11.4c-0.8-0.4-0.8-1.1,0-1.6
								l7.3-4.2c0.7-0.4,2-0.4,2.7,0L600.9,799.1z"/>
							<path class="st16" d="M627.4,814.4c0.8,0.4,0.8,1.1,0,1.6l-7.3,4.2c-0.7,0.4-2,0.4-2.7,0l-19.8-11.4c-0.8-0.4-0.8-1.1,0-1.6
								l7.3-4.2c0.7-0.4,2-0.4,2.7,0L627.4,814.4z"/>
							<path class="st16" d="M653.9,829.7c0.8,0.4,0.8,1.1,0,1.6l-7.3,4.2c-0.7,0.4-2,0.4-2.7,0l-19.8-11.4c-0.8-0.4-0.8-1.1,0-1.6
								l7.3-4.2c0.7-0.4,2-0.4,2.7,0L653.9,829.7z"/>
							<path class="st16" d="M680.4,845c0.8,0.4,0.8,1.1,0,1.6l-7.3,4.2c-0.7,0.4-2,0.4-2.7,0l-19.8-11.4c-0.8-0.4-0.8-1.1,0-1.6
								l7.3-4.2c0.7-0.4,2-0.4,2.7,0L680.4,845z"/>
							<path class="st16" d="M706.9,860.3c0.8,0.4,0.8,1.1,0,1.6l-7.3,4.2c-0.7,0.4-2,0.4-2.7,0l-19.8-11.4c-0.8-0.4-0.8-1.1,0-1.6
								l7.3-4.2c0.7-0.4,2-0.4,2.7,0L706.9,860.3z"/>
							<path class="st16" d="M733.4,875.6c0.8,0.4,0.8,1.1,0,1.6l-7.3,4.2c-0.7,0.4-2,0.4-2.7,0L703.6,870c-0.8-0.4-0.8-1.1,0-1.6
								l7.3-4.2c0.7-0.4,2-0.4,2.7,0L733.4,875.6z"/>
							<path class="st16" d="M586.6,806.9c1,0.6,1,1.5,0,2.1l-14,8.2c-1,0.6-2.6,0.6-3.6,0l-19-11c-1-0.6-1-1.5,0-2.1l14-8.2
								c1-0.6,2.6-0.6,3.6,0L586.6,806.9z"/>
							<path class="st16" d="M613.1,822.2c1,0.6,1,1.5,0,2.1l-14,8.2c-1,0.6-2.6,0.6-3.6,0l-18.9-10.9c-1-0.6-1-1.5,0-2.1l14-8.2
								c1-0.6,2.6-0.6,3.6,0L613.1,822.2z"/>
							<path class="st16" d="M639.6,837.5c1,0.6,1,1.5,0,2.1l-14,8.2c-1,0.6-2.6,0.6-3.6,0l-19-11c-1-0.6-1-1.5,0-2.1l14-8.2
								c1-0.6,2.6-0.6,3.6,0L639.6,837.5z"/>
							<path class="st16" d="M666.1,852.8c1,0.6,1,1.5,0,2.1l-14,8.2c-1,0.6-2.6,0.6-3.6,0l-18.9-10.9c-1-0.6-1-1.5,0-2.1l14-8.2
								c1-0.6,2.6-0.6,3.6,0L666.1,852.8z"/>
							<path class="st16" d="M692.6,868.1c1,0.6,1,1.5,0,2.1l-14,8.2c-1,0.6-2.6,0.6-3.6,0l-19-11c-1-0.6-1-1.5,0-2.1l14-8.2
								c1-0.6,2.6-0.6,3.6,0L692.6,868.1z"/>
							<path class="st16" d="M719.1,883.4c1,0.6,1,1.5,0,2.1l-14,8.2c-1,0.6-2.6,0.6-3.6,0l-18.9-10.9c-1-0.6-1-1.5,0-2.1l14-8.2
								c1-0.6,2.6-0.6,3.6,0L719.1,883.4z"/>
							<path class="st16" d="M565.1,819.4c1,0.6,1,1.5,0,2.1l-14,8.2c-1,0.6-2.6,0.6-3.6,0l-18.9-10.9c-1-0.6-1-1.5,0-2.1l14-8.2
								c1-0.6,2.6-0.6,3.6,0L565.1,819.4z"/>
							<path class="st16" d="M591.6,834.7c1,0.6,1,1.5,0,2.1l-14,8.2c-1,0.6-2.6,0.6-3.6,0l-19-11c-1-0.6-1-1.5,0-2.1l14-8.2
								c1-0.6,2.6-0.6,3.6,0L591.6,834.7z"/>
							<path class="st16" d="M618.1,850c1,0.6,1,1.5,0,2.1l-14,8.2c-1,0.6-2.6,0.6-3.6,0l-18.9-10.9c-1-0.6-1-1.5,0-2.1l14-8.2
								c1-0.6,2.6-0.6,3.6,0L618.1,850z"/>
							<path class="st16" d="M644.6,865.3c1,0.6,1,1.5,0,2.1l-14,8.2c-1,0.6-2.6,0.6-3.6,0l-19-11c-1-0.6-1-1.5,0-2.1l14-8.2
								c1-0.6,2.6-0.6,3.6,0L644.6,865.3z"/>
							<path class="st16" d="M671.1,880.6c1,0.6,1,1.5,0,2.1l-14,8.2c-1,0.6-2.6,0.6-3.6,0L634.6,880c-1-0.6-1-1.5,0-2.1l14-8.2
								c1-0.6,2.6-0.6,3.6,0L671.1,880.6z"/>
							<path class="st16" d="M697.6,895.9c1,0.6,1,1.5,0,2.1l-14,8.2c-1,0.6-2.6,0.6-3.6,0l-19-11c-1-0.6-1-1.5,0-2.1l14-8.2
								c1-0.6,2.6-0.6,3.6,0L697.6,895.9z"/>
							<path class="st16" d="M759.9,890.9c0.8,0.4,0.8,1.1,0,1.6l-7.3,4.2c-0.7,0.4-2,0.4-2.7,0l-19.8-11.4c-0.8-0.4-0.8-1.1,0-1.6
								l7.3-4.2c0.7-0.4,2-0.4,2.7,0L759.9,890.9z"/>
							<path class="st16" d="M786.3,906.2c0.8,0.4,0.8,1.1,0,1.6L779,912c-0.7,0.4-2,0.4-2.7,0l-19.8-11.4c-0.8-0.4-0.8-1.1,0-1.6
								l7.3-4.2c0.7-0.4,2-0.4,2.7,0L786.3,906.2z"/>
							<path class="st16" d="M745.6,898.7c1,0.6,1,1.5,0,2.1l-14,8.2c-1,0.6-2.6,0.6-3.6,0l-19-11c-1-0.6-1-1.5,0-2.1l14-8.2
								c1-0.6,2.6-0.6,3.6,0L745.6,898.7z"/>
							<path class="st16" d="M772.1,914c1,0.6,1,1.5,0,2.1l-14,8.2c-1,0.6-2.6,0.6-3.6,0l-18.9-10.9c-1-0.6-1-1.5,0-2.1l14-8.2
								c1-0.6,2.6-0.6,3.6,0L772.1,914z"/>
							<path class="st16" d="M724.1,911.2c1,0.6,1,1.5,0,2.1l-14,8.2c-1,0.6-2.6,0.6-3.6,0l-18.9-10.9c-1-0.6-1-1.5,0-2.1l14-8.2
								c1-0.6,2.6-0.6,3.6,0L724.1,911.2z"/>
							<path class="st16" d="M750.6,926.5c1,0.6,1,1.5,0,2.1l-14,8.2c-1,0.6-2.6,0.6-3.6,0l-19-11c-1-0.6-1-1.5,0-2.1l14-8.2
								c1-0.6,2.6-0.6,3.6,0L750.6,926.5z"/>
							<path class="st16" d="M543.6,831.9c1,0.6,1,1.5,0,2.1l-14,8.2c-1,0.6-2.6,0.6-3.6,0l-18.9-10.9c-1-0.6-1-1.5,0-2.1l14-8.2
								c1-0.6,2.6-0.6,3.6,0L543.6,831.9z"/>
							<path class="st16" d="M570.1,847.2c1,0.6,1,1.5,0,2.1l-14,8.2c-1,0.6-2.6,0.6-3.6,0l-18.9-10.9c-1-0.6-1-1.5,0-2.1l14-8.2
								c1-0.6,2.6-0.6,3.6,0L570.1,847.2z"/>
							<path class="st16" d="M676.2,908.4c0.9,0.5,0.9,1.4,0,1.9l-14.3,8.3c-0.9,0.5-2.4,0.5-3.3,0l-98.7-57c-0.9-0.5-0.9-1.4,0-1.9
								l14.3-8.3c0.9-0.5,2.4-0.5,3.3,0L676.2,908.4z"/>
							<path class="st16" d="M702.6,923.7c1,0.6,1,1.5,0,2.1l-14,8.2c-1,0.6-2.6,0.6-3.6,0l-19-11c-1-0.6-1-1.5,0-2.1l14-8.2
								c1-0.6,2.6-0.6,3.6,0L702.6,923.7z"/>
							<path class="st16" d="M729.1,939c1,0.6,1,1.5,0,2.1l-14,8.2c-1,0.6-2.6,0.6-3.6,0l-18.9-10.9c-1-0.6-1-1.5,0-2.1l14-8.2
								c1-0.6,2.6-0.6,3.6,0L729.1,939z"/>
						</g>
					</g>
				</g>
			</g>
			<g>
				<g>
					<g>
						<g>
							
								<linearGradient id="SVGID_1_" gradientUnits="userSpaceOnUse" x1="572.5818" y1="988.2589" x2="842.0405" y2="842.5139" gradientTransform="matrix(1 0 0 -1 0 1589.6)">
								<stop  offset="0" style="stop-color:#FED859"/>
								<stop  offset="1" style="stop-color:#305EEA"/>
							</linearGradient>
							<path class="st17" d="M629.6,629c1.8,1,3.3,3.6,3.3,5.6c0,2.1-1.5,2.9-3.3,1.9L597.5,618c-1.8-1-3.3-3.6-3.3-5.6
								c0-2.1,1.5-2.9,3.3-1.9L629.6,629z"/>
						</g>
						<g>
							
								<linearGradient id="SVGID_2_" gradientUnits="userSpaceOnUse" x1="566.1742" y1="976.4124" x2="835.6336" y2="830.6671" gradientTransform="matrix(1 0 0 -1 0 1589.6)">
								<stop  offset="0" style="stop-color:#FED859"/>
								<stop  offset="1" style="stop-color:#305EEA"/>
							</linearGradient>
							<path class="st18" d="M613.1,635.1c1.8,1,3.3,3.6,3.3,5.6c0,2.1-1.5,2.9-3.3,1.9l-15.6-9c-1.8-1-3.3-3.6-3.3-5.6
								c0-2.1,1.5-2.9,3.3-1.9L613.1,635.1z"/>
						</g>
						<g class="st19">
							<g>
								
									<linearGradient id="SVGID_3_" gradientUnits="userSpaceOnUse" x1="552.9946" y1="952.045" x2="822.4526" y2="806.3005" gradientTransform="matrix(1 0 0 -1 0 1589.6)">
									<stop  offset="0" style="stop-color:#FED859"/>
									<stop  offset="1" style="stop-color:#305EEA"/>
								</linearGradient>
								<path class="st20" d="M629.4,675.7c1.8,1,3.3,3.6,3.3,5.6c0,2.1-1.5,2.9-3.3,1.9l-32.1-18.5c-1.8-1-3.3-3.6-3.3-5.6
									c0-2.1,1.5-2.9,3.3-1.9L629.4,675.7z"/>
							</g>
							<g>
								
									<linearGradient id="SVGID_4_" gradientUnits="userSpaceOnUse" x1="559.4913" y1="964.0563" x2="828.9496" y2="818.3115" gradientTransform="matrix(1 0 0 -1 0 1589.6)">
									<stop  offset="0" style="stop-color:#FED859"/>
									<stop  offset="1" style="stop-color:#305EEA"/>
								</linearGradient>
								<path class="st21" d="M634.3,662.9c1.8,1,3.3,3.6,3.3,5.6c0,2.1-1.5,2.9-3.3,1.9l-37-21.3c-1.8-1-3.3-3.6-3.3-5.6
									c0-2.1,1.5-2.9,3.3-1.9L634.3,662.9z"/>
							</g>
							<g>
								
									<linearGradient id="SVGID_5_" gradientUnits="userSpaceOnUse" x1="565.7191" y1="975.5708" x2="835.1774" y2="829.826" gradientTransform="matrix(1 0 0 -1 0 1589.6)">
									<stop  offset="0" style="stop-color:#FED859"/>
									<stop  offset="1" style="stop-color:#305EEA"/>
								</linearGradient>
								<path class="st22" d="M645.4,653.7c1.8,1,3.3,3.6,3.3,5.6c0,2.1-1.5,2.9-3.3,1.9l-16-9.3c-1.8-1-3.3-3.6-3.3-5.6
									c0-2.1,1.5-2.9,3.3-1.9L645.4,653.7z"/>
							</g>
						</g>
						<g>
							
								<linearGradient id="SVGID_6_" gradientUnits="userSpaceOnUse" x1="558.079" y1="961.445" x2="827.5372" y2="815.7003" gradientTransform="matrix(1 0 0 -1 0 1589.6)">
								<stop  offset="0" style="stop-color:#FED859"/>
								<stop  offset="1" style="stop-color:#305EEA"/>
							</linearGradient>
							<path class="st23" d="M736.3,721.8c1.8,1,3.3,3.6,3.3,5.6c0,2.1-1.5,2.9-3.3,1.9l-55.1-31.8c-1.8-1-3.3-3.6-3.3-5.6
								c0-2.1,1.5-2.9,3.3-1.9L736.3,721.8z"/>
						</g>
						<g class="st19">
							<g>
								
									<linearGradient id="SVGID_7_" gradientUnits="userSpaceOnUse" x1="570.4644" y1="984.3456" x2="839.923" y2="838.6008" gradientTransform="matrix(1 0 0 -1 0 1589.6)">
									<stop  offset="0" style="stop-color:#FED859"/>
									<stop  offset="1" style="stop-color:#305EEA"/>
								</linearGradient>
								<path class="st24" d="M754.4,701.1c1.8,1,3.3,3.6,3.3,5.6c0,2.1-1.5,2.9-3.3,1.9l-5.7-3.3c-1.8-1-3.3-3.6-3.3-5.6
									c0-2.1,1.5-2.9,3.3-1.9L754.4,701.1z"/>
							</g>
							<g>
								
									<linearGradient id="SVGID_8_" gradientUnits="userSpaceOnUse" x1="577.2545" y1="996.8985" x2="846.7128" y2="851.1537" gradientTransform="matrix(1 0 0 -1 0 1589.6)">
									<stop  offset="0" style="stop-color:#FED859"/>
									<stop  offset="1" style="stop-color:#305EEA"/>
								</linearGradient>
								<path class="st25" d="M767.6,693.1c1.8,1,3.3,3.6,3.3,5.6c0,2.1-1.5,2.9-3.3,1.9L702.5,663c-1.8-1-3.3-3.6-3.3-5.6
									c0-2.1,1.5-2.9,3.3-1.9L767.6,693.1z"/>
							</g>
						</g>
						<g>
							
								<linearGradient id="SVGID_9_" gradientUnits="userSpaceOnUse" x1="564.4495" y1="973.2236" x2="833.908" y2="827.4787" gradientTransform="matrix(1 0 0 -1 0 1589.6)">
								<stop  offset="0" style="stop-color:#FED859"/>
								<stop  offset="1" style="stop-color:#305EEA"/>
							</linearGradient>
							<path class="st26" d="M736.4,706.2c1.8,1,3.3,3.6,3.3,5.6c0,2.1-1.5,2.9-3.3,1.9l-32.1-18.5c-1.8-1-3.3-3.6-3.3-5.6
								c0-2.1,1.5-2.9,3.3-1.9L736.4,706.2z"/>
						</g>
						<g>
							
								<linearGradient id="SVGID_10_" gradientUnits="userSpaceOnUse" x1="551.5457" y1="949.3665" x2="821.0038" y2="803.6218" gradientTransform="matrix(1 0 0 -1 0 1589.6)">
								<stop  offset="0" style="stop-color:#FED859"/>
								<stop  offset="1" style="stop-color:#305EEA"/>
							</linearGradient>
							<path class="st27" d="M724.5,730.6c1.8,1,3.3,3.6,3.3,5.6c0,2.1-1.5,2.9-3.3,1.9l-32.1-18.5c-1.8-1-3.3-3.6-3.3-5.6
								c0-2.1,1.5-2.9,3.3-1.9L724.5,730.6z"/>
						</g>
						<g>
							
								<linearGradient id="SVGID_11_" gradientUnits="userSpaceOnUse" x1="550.2194" y1="946.9141" x2="819.6777" y2="801.1693" gradientTransform="matrix(1 0 0 -1 0 1589.6)">
								<stop  offset="0" style="stop-color:#FED859"/>
								<stop  offset="1" style="stop-color:#305EEA"/>
							</linearGradient>
							<path class="st28" d="M813.3,781.8c1.8,1,3.3,3.6,3.3,5.6c0,2.1-1.5,2.9-3.3,1.9l-32.1-18.5c-1.8-1-3.3-3.6-3.3-5.6
								c0-2.1,1.5-2.9,3.3-1.9L813.3,781.8z"/>
						</g>
						<g>
							
								<linearGradient id="SVGID_12_" gradientUnits="userSpaceOnUse" x1="557.0334" y1="959.5118" x2="826.4915" y2="813.7671" gradientTransform="matrix(1 0 0 -1 0 1589.6)">
								<stop  offset="0" style="stop-color:#FED859"/>
								<stop  offset="1" style="stop-color:#305EEA"/>
							</linearGradient>
							<path class="st29" d="M794.6,755.5c1.8,1,3.3,3.6,3.3,5.6c0,2.1-1.5,2.9-3.3,1.9l-37.1-21.4c-1.8-1-3.3-3.6-3.3-5.6
								c0-2.1,1.5-2.9,3.3-1.9L794.6,755.5z"/>
						</g>
						<g>
							
								<linearGradient id="SVGID_13_" gradientUnits="userSpaceOnUse" x1="550.8822" y1="948.1405" x2="820.3409" y2="802.3955" gradientTransform="matrix(1 0 0 -1 0 1589.6)">
								<stop  offset="0" style="stop-color:#FED859"/>
								<stop  offset="1" style="stop-color:#305EEA"/>
							</linearGradient>
							<path class="st30" d="M768.9,756.2c1.8,1,3.3,3.6,3.3,5.6c0,2.1-1.5,2.9-3.3,1.9l-32.1-18.5c-1.8-1-3.3-3.6-3.3-5.6
								c0-2.1,1.5-2.9,3.3-1.9L768.9,756.2z"/>
						</g>
						<g>
							
								<linearGradient id="SVGID_14_" gradientUnits="userSpaceOnUse" x1="558.9249" y1="963.0095" x2="828.3838" y2="817.2644" gradientTransform="matrix(1 0 0 -1 0 1589.6)">
								<stop  offset="0" style="stop-color:#FED859"/>
								<stop  offset="1" style="stop-color:#305EEA"/>
							</linearGradient>
							<path class="st31" d="M661.2,678.4c1.8,1,3.3,3.6,3.3,5.6c0,2.1-1.5,2.9-3.3,1.9l-13.9-8c-1.8-1-3.3-3.6-3.3-5.6
								c0-2.1,1.5-2.9,3.3-1.9L661.2,678.4z"/>
						</g>
						<g>
							
								<linearGradient id="SVGID_15_" gradientUnits="userSpaceOnUse" x1="563.9194" y1="972.243" x2="833.3774" y2="826.4984" gradientTransform="matrix(1 0 0 -1 0 1589.6)">
								<stop  offset="0" style="stop-color:#FED859"/>
								<stop  offset="1" style="stop-color:#305EEA"/>
							</linearGradient>
							<path class="st32" d="M757.2,718.3c1.8,1,3.3,3.6,3.3,5.6c0,2.1-1.5,2.9-3.3,1.9l-8.5-4.9c-1.8-1-3.3-3.6-3.3-5.6
								c0-2.1,1.5-2.9,3.3-1.9L757.2,718.3z"/>
						</g>
						<g>
							
								<linearGradient id="SVGID_16_" gradientUnits="userSpaceOnUse" x1="578.1848" y1="998.6174" x2="847.6428" y2="852.8728" gradientTransform="matrix(1 0 0 -1 0 1589.6)">
								<stop  offset="0" style="stop-color:#FED859"/>
								<stop  offset="1" style="stop-color:#305EEA"/>
							</linearGradient>
							<path class="st33" d="M682.5,644c1.8,1,3.3,3.6,3.3,5.6c0,2.1-1.5,2.9-3.3,1.9l-19.8-11.4c-1.8-1-3.3-3.6-3.3-5.6
								c0-2.1,1.5-2.9,3.3-1.9L682.5,644z"/>
						</g>
						<g>
							
								<linearGradient id="SVGID_17_" gradientUnits="userSpaceOnUse" x1="571.2881" y1="985.8671" x2="840.7465" y2="840.1223" gradientTransform="matrix(1 0 0 -1 0 1589.6)">
								<stop  offset="0" style="stop-color:#FED859"/>
								<stop  offset="1" style="stop-color:#305EEA"/>
							</linearGradient>
							<path class="st34" d="M736.4,690.7c1.8,1,3.3,3.6,3.3,5.6c0,2.1-1.5,2.9-3.3,1.9L659.9,654c-1.8-1-3.3-3.6-3.3-5.6
								c0-2.1,1.5-2.9,3.3-1.9L736.4,690.7z"/>
						</g>
						<g>
							
								<linearGradient id="SVGID_18_" gradientUnits="userSpaceOnUse" x1="570.1904" y1="983.8379" x2="839.6484" y2="838.0933" gradientTransform="matrix(1 0 0 -1 0 1589.6)">
								<stop  offset="0" style="stop-color:#FED859"/>
								<stop  offset="1" style="stop-color:#305EEA"/>
							</linearGradient>
							<path class="st35" d="M772.6,711.6c1.8,1,3.3,3.6,3.3,5.6c0,2.1-1.5,2.9-3.3,1.9l-5.7-3.3c-1.8-1-3.3-3.6-3.3-5.6
								c0-2.1,1.5-2.9,3.3-1.9L772.6,711.6z"/>
						</g>
						<g>
							
								<linearGradient id="SVGID_19_" gradientUnits="userSpaceOnUse" x1="569.9352" y1="983.3658" x2="839.3935" y2="837.6212" gradientTransform="matrix(1 0 0 -1 0 1589.6)">
								<stop  offset="0" style="stop-color:#FED859"/>
								<stop  offset="1" style="stop-color:#305EEA"/>
							</linearGradient>
							<path class="st36" d="M790.7,722c1.8,1,3.3,3.6,3.3,5.6c0,2.1-1.5,2.9-3.3,1.9l-5.7-3.3c-1.8-1-3.3-3.6-3.3-5.6
								c0-2.1,1.5-2.9,3.3-1.9L790.7,722z"/>
						</g>
						<g>
							
								<linearGradient id="SVGID_20_" gradientUnits="userSpaceOnUse" x1="569.6619" y1="982.8577" x2="839.1194" y2="837.1133" gradientTransform="matrix(1 0 0 -1 0 1589.6)">
								<stop  offset="0" style="stop-color:#FED859"/>
								<stop  offset="1" style="stop-color:#305EEA"/>
							</linearGradient>
							<path class="st37" d="M808.9,732.5c1.8,1,3.3,3.6,3.3,5.6c0,2.1-1.5,2.9-3.3,1.9l-5.7-3.3c-1.8-1-3.3-3.6-3.3-5.6
								c0-2.1,1.5-2.9,3.3-1.9L808.9,732.5z"/>
						</g>
						<g>
							
								<linearGradient id="SVGID_21_" gradientUnits="userSpaceOnUse" x1="579.2034" y1="1000.501" x2="848.6616" y2="854.7563" gradientTransform="matrix(1 0 0 -1 0 1589.6)">
								<stop  offset="0" style="stop-color:#FED859"/>
								<stop  offset="1" style="stop-color:#305EEA"/>
							</linearGradient>
							<path class="st38" d="M617.3,606.3c1.8,1,3.3,3.6,3.3,5.6c0,2.1-1.5,2.9-3.3,1.9l-19.8-11.4c-1.8-1-3.3-3.6-3.3-5.6
								c0-2.1,1.5-2.9,3.3-1.9L617.3,606.3z"/>
						</g>
						<g>
							
								<linearGradient id="SVGID_22_" gradientUnits="userSpaceOnUse" x1="578.6836" y1="999.54" x2="848.142" y2="853.7951" gradientTransform="matrix(1 0 0 -1 0 1589.6)">
								<stop  offset="0" style="stop-color:#FED859"/>
								<stop  offset="1" style="stop-color:#305EEA"/>
							</linearGradient>
							<path class="st39" d="M650.2,625.3c1.8,1,3.3,3.6,3.3,5.6c0,2.1-1.5,2.9-3.3,1.9l-15.5-9c-1.8-1-3.3-3.6-3.3-5.6
								c0-2.1,1.5-2.9,3.3-1.9L650.2,625.3z"/>
						</g>
					</g>
				</g>
				<g>
					<path class="st7" d="M755.7,817.9c-0.4-18.9,13-26.2,29.9-16.5c16.9,9.8,31,33,31.4,51.9s-13,26.2-29.9,16.5
						S756.1,836.8,755.7,817.9z"/>
					<g>
						<path class="st3" d="M783.4,846.3c-1-0.6-1.9-1.5-2.6-2.7l-8.9-14.8c-1.5-2.4-1.5-5-0.1-5.8s3.7,0.6,5.2,3l6.3,10.3l12.3-6.7
							c1.4-0.8,3.7,0.6,5.2,3s1.5,5,0.1,5.8l-14.8,8.1C785.3,847,784.4,846.8,783.4,846.3z"/>
					</g>
				</g>
				<g>
					<path class="st11" d="M722.1,776.3c0-14.6,10.3-20.5,22.9-13.2c12.6,7.3,22.9,25.1,22.9,39.7S757.6,823.3,745,816
						C732.3,808.6,722.1,790.9,722.1,776.3z"/>
					<polygon class="st7" points="758.6,797.3 738.3,772 738.3,799.1 					"/>
				</g>
				<g>
					<path class="st3" d="M607.5,715.7l-8-13.9c12.7-7.3,29.6-5.6,47.6,4.7c18,10.4,34.9,28.2,47.6,50.2l-8,4.6
						c-10.5-18.3-24.6-33.1-39.5-41.7C632.1,711,618.1,709.6,607.5,715.7z"/>
					<path class="st3" d="M619,735.6l-8-13.9c9.6-5.6,22.5-4.3,36.1,3.6c13.7,7.9,26.5,21.4,36.1,38.1l-8,4.6
						c-7.5-13-17.5-23.5-28.1-29.6C636.4,732.3,626.5,731.3,619,735.6z"/>
					<path class="st3" d="M630.4,755.4l-8-13.9c13.6-7.8,35.7,4.9,49.3,28.5l-8,4.6C654.5,758.8,639.6,750.1,630.4,755.4z"/>
					<ellipse transform="matrix(0.5 0.866 -0.866 0.5 994.772 -172.8425)" class="st3" cx="647.1" cy="775.1" rx="13.2" ry="7.6"/>
				</g>
			</g>
		</g>
		<g>
			<g>
				<path class="st40" d="M433,747.2c1.1-3.6,2.8-8,4.6-9.8"/>
				<path class="st41" d="M435.4,803.7c-5-14.3-12-26.5-3-53.4"/>
			</g>
			<g>
				<path class="st42" d="M450.5,950.9c0,0-1.7,8,0,10.2c1.7,2.2,3.6,4.9,7.6,3c4.1-1.9,20.4-9.5,21.2-14s-7-7.3-21.5-2.3
					L450.5,950.9z"/>
				<path class="st42" d="M433.4,943.8c0,0-1.7,8,0,10.2s3.6,4.9,7.6,3c4.1-1.9,20.4-9.5,21.2-14c0.8-4.5-7-7.3-21.5-2.3
					L433.4,943.8z"/>
				<path class="st43" d="M435.7,854.7c0,0,9.9,38.6,3.5,88.2"/>
				<path class="st43" d="M452.5,860.9c0,0,9.9,38.6,3.5,88.2"/>
				<path class="st5" d="M438.5,874.8c0,0,9.2,7.6,14,7.8c4.8,0.2,4.4-12.2,0.9-17.8c-3.5-5.6-13.5-11.9-15.9-6.9
					C435.1,863.1,438.5,874.8,438.5,874.8z"/>
			</g>
			<g>
				<path class="st7" d="M462.2,820.2l-0.1,42.6c0.1,9.4-0.7,8.8-3.9,10.6c0,0-5.7,2.2-11.6-1.7l-15.3-8.8c-3.2-1.8-5.2-5.3-5.2-9
					l0.1-34c0-0.6,0.1-1.2,0.2-1.8c0.4-5.8,2.8-14.7,9.2-18.2c10-5.5,19.7,3.3,19.9,3.5C461.4,809,462.2,814.7,462.2,820.2z"/>
				<g>
					<path class="st44" d="M446.3,791.6c-1.5-0.9-4-0.9-5.5-0.1c-1.5,0.8-1.5,2.4,0,3.2c1.5,0.8,4,0.9,5.5,0
						C447.8,793.8,447.8,792.5,446.3,791.6z"/>
					<g>
						<path class="st45" d="M446.3,794.8c-1.5,0.9-4,0.9-5.5,0c-0.8-0.4-1.1-1.1-1.1-1.7l0,0v7.4l0,0c0,0.6,0.4,1.2,1.1,1.6
							c1.5,0.9,4,0.9,5.5,0c0.8-0.4,1.1-1,1.1-1.6l0,0v-7.3C447.4,793.8,447,794.4,446.3,794.8z"/>
						<path class="st45" d="M447.4,793.1L447.4,793.1L447.4,793.1L447.4,793.1z"/>
					</g>
				</g>
			</g>
			<g>
				<path class="st45" d="M457.1,775.8v9.3c0,7.4-6,13.4-13.4,13.4s-13.4-6-13.4-13.4v-9.3c0-1.1,0.1-2.1,0.4-3.1
					c0.1-0.3,0.1-0.5,0.2-0.8c1.7-5.5,6.8-9.5,12.8-9.5c3.7,0,7.1,1.5,9.5,3.9C455.6,768.8,457.1,772.1,457.1,775.8z"/>
			</g>
			<path class="st46" d="M456.1,768.4c0,0-2.2,7.3-4.7,9.4s-1,7-1,7s-1.3,2.1-3,1.4c-1.6-0.7-2.6-0.2-2.1,3c0.5,3.2,3,1.8,3,1.8
				s-0.8,3.4-2.6,5.2c-1.8,1.9-5.5,1-9.1,0.4c-3.5-0.6-5.6-0.1-5.9-3.5c-0.4-3.3-2.3-11-1.3-17.6c1-6.5,3.5-8.8,4.8-10
				c0,0-0.6-4.6,6.9-5C448.8,760.1,458,763.9,456.1,768.4z"/>
			<g>
				<path class="st40" d="M490.2,863.8c3.2,2,7.3,4.3,9.8,4.5"/>
				<path class="st41" d="M455.4,819.4c5.5,14.2,8.1,27.9,32.5,42.5"/>
			</g>
		</g>
	</g>
</g>
<g id="XMLID_511_">
	<g>
		<g class="st19">
			<g>
				<polygon class="st47" points="183.4,618.9 188.8,618.2 225.6,640.2 220.2,640.9 				"/>
			</g>
			<g>
				<polygon class="st48" points="220.2,640.9 225.6,640.2 226.3,743.3 220.9,744 				"/>
			</g>
			<g>
				<polygon class="st49" points="183.4,618.9 220.2,640.9 220.9,744 184.1,721.9 				"/>
			</g>
		</g>
		<g class="st19">
			<g>
				<polygon class="st50" points="125.1,545.7 130.5,545 167.3,566.7 161.9,567.4 				"/>
			</g>
			<g>
				<polygon class="st51" points="161.9,567.4 167.3,566.7 168.3,708.7 162.9,709.4 				"/>
			</g>
			<g>
				<polygon class="st52" points="125.1,545.7 161.9,567.4 162.9,709.4 126.1,687.6 				"/>
			</g>
		</g>
		<g class="st19">
			<g>
				<polygon class="st53" points="240.6,547.9 246,547.2 282.9,569 277.4,569.7 				"/>
			</g>
			<g>
				<polygon class="st54" points="277.4,569.7 282.9,569 284.3,777.6 278.9,778.3 				"/>
			</g>
			<g>
				<polygon class="st55" points="240.6,547.9 277.4,569.7 278.9,778.3 242.1,756.5 				"/>
			</g>
		</g>
	</g>
</g>
<g>
	<g>
		<g class="st19">
			<g>
				<polygon class="st56" points="1033.8,961.5 1052.2,954 1041,1012.2 1022.6,1019.7 				"/>
			</g>
			<g>
				<polygon class="st57" points="871.8,878.9 890.2,871.5 1052.2,954 1033.8,961.5 				"/>
			</g>
			<g>
				<polygon class="st58" points="1033.8,961.5 1022.6,1019.7 860.6,937.2 871.8,878.9 				"/>
				<g class="st19">
					<defs>
						<polygon id="SVGID_23_" class="st19" points="1033.8,961.5 1022.6,1019.7 860.6,937.2 871.8,878.9 						"/>
					</defs>
					<clipPath id="SVGID_24_">
						<use xlink:href="#SVGID_23_"  style="overflow:visible;"/>
					</clipPath>
					<g class="st59">
						<g>
							<g>
								<g>
									<path class="st60" d="M891.5,937.3l-1.5-0.8l-1.4,7.3l3.7,1.9l0.3-1.3l-2.2-1.1L891.5,937.3 M904.1,943.7l-1.5-0.8
										l-0.9,4.6c-0.1,0.5-0.2,0.8-0.3,0.9c-0.1,0.1-0.3,0.2-0.5,0.2c-0.2,0-0.4,0-0.7-0.2c-0.2-0.1-0.4-0.3-0.6-0.5
										c-0.2-0.2-0.3-0.4-0.3-0.6c0-0.2,0-0.5,0.1-0.9l0.9-4.7l-1.5-0.8l-0.8,4.4c-0.2,0.9-0.2,1.5-0.1,2c0.1,0.5,0.4,0.9,0.7,1.4
										c0.4,0.5,0.8,0.8,1.4,1.1c0.4,0.2,0.8,0.4,1.2,0.4c0.4,0,0.7,0,1-0.1c0.3-0.1,0.5-0.3,0.7-0.6c0.1-0.2,0.3-0.7,0.4-1.5
										L904.1,943.7 M913.3,948.4l-4.3-2.2l-0.3,1.4l1.4,0.7l-1.1,5.9l1.5,0.8l1.1-5.9l1.4,0.7L913.3,948.4 M919.7,951.6l-1.5-0.8
										l-1.4,7.3l1.5,0.8L919.7,951.6 M944.8,964.4l-1.5-0.8l-0.9,4.8l-2.5-6.5l-1.4-0.7l-1.4,7.3l1.5,0.8l0.9-4.8l2.4,6.5
										l1.4,0.7L944.8,964.4 M869.1,925.6c-0.6-0.3-1.2-0.4-1.6-0.2c-0.5,0.2-0.8,0.5-0.9,1c-0.1,0.4,0,0.8,0.2,1.2
										c0.2,0.5,0.6,1.3,1.4,2.3c0.4,0.6,0.6,1,0.7,1.2c0.1,0.2,0.1,0.4,0.1,0.6c0,0.2-0.2,0.3-0.4,0.3c-0.2,0.1-0.4,0-0.7-0.1
										c-0.5-0.2-0.9-0.8-1.1-1.6l-1.4,0.1c0.2,0.7,0.5,1.3,0.8,1.7c0.4,0.5,0.8,0.8,1.4,1.1c0.7,0.4,1.3,0.5,1.9,0.3
										c0.5-0.2,0.8-0.5,1-1.1c0.1-0.3,0.1-0.6,0-0.9c-0.1-0.3-0.2-0.7-0.5-1.1c-0.1-0.2-0.4-0.6-0.9-1.4
										c-0.5-0.8-0.8-1.3-0.9-1.5c-0.1-0.2-0.1-0.3-0.1-0.4c0-0.1,0.1-0.2,0.3-0.2c0.1,0,0.3,0,0.5,0.1c0.4,0.2,0.8,0.7,1,1.4
										l1.3-0.3c-0.3-0.7-0.7-1.2-1-1.5C869.9,926.1,869.5,925.8,869.1,925.6 M879.4,937.8c-0.6-0.3-1.1-0.8-1.6-1.4
										c-0.5-0.8-0.7-1.6-0.6-2.4c0.1-0.7,0.5-1.2,1.1-1.4c0.6-0.2,1.2-0.1,2,0.2c0.7,0.4,1.3,0.9,1.7,1.7
										c0.4,0.7,0.5,1.4,0.4,2.1c-0.1,0.7-0.5,1.2-1.1,1.4C880.7,938.3,880.1,938.2,879.4,937.8 M880.6,931.5
										c-0.7-0.4-1.4-0.5-2.2-0.5c-0.7,0-1.3,0.2-1.8,0.6c-0.5,0.4-0.8,1-0.9,1.7c-0.2,1,0,2.1,0.6,3.3c0.6,1.2,1.5,2,2.7,2.6
										c1.1,0.6,2.1,0.7,3.1,0.4c0.9-0.3,1.5-1,1.7-2.1c0.2-1.1,0-2.2-0.7-3.3C882.6,932.9,881.7,932.1,880.6,931.5 M927.9,962.5
										c-0.6-0.3-1.1-0.8-1.6-1.4c-0.5-0.8-0.7-1.6-0.6-2.4c0.1-0.7,0.5-1.2,1.1-1.4c0.6-0.2,1.2-0.1,2,0.2
										c0.7,0.4,1.3,0.9,1.7,1.7c0.4,0.7,0.5,1.4,0.4,2.1c-0.1,0.7-0.5,1.2-1.1,1.4C929.2,963,928.6,962.9,927.9,962.5
										 M929.1,956.2c-0.7-0.4-1.5-0.6-2.1-0.5c-0.7,0-1.3,0.2-1.8,0.6c-0.5,0.4-0.8,1-0.9,1.7c-0.2,1,0,2.1,0.6,3.3
										c0.6,1.2,1.5,2,2.7,2.6c1.1,0.6,2.1,0.7,3.1,0.4c0.9-0.3,1.5-1,1.7-2.1c0.2-1.1,0-2.2-0.7-3.3
										C931.1,957.6,930.2,956.8,929.1,956.2 M952.5,968.1c-0.6-0.3-1.2-0.4-1.6-0.2c-0.5,0.2-0.8,0.5-0.9,1
										c-0.1,0.4,0,0.8,0.2,1.2c0.2,0.5,0.6,1.3,1.4,2.3c0.4,0.6,0.6,1,0.7,1.2c0.1,0.2,0.1,0.4,0.1,0.6c0,0.2-0.2,0.3-0.4,0.3
										c-0.2,0-0.4,0-0.7-0.1c-0.5-0.3-0.9-0.8-1.1-1.6l-1.4,0.1c0.2,0.7,0.5,1.3,0.8,1.7c0.4,0.5,0.8,0.8,1.4,1.1
										c0.7,0.4,1.3,0.5,1.9,0.3c0.5-0.2,0.8-0.5,1-1.1c0.1-0.3,0.1-0.6,0-1c-0.1-0.3-0.2-0.7-0.5-1.1c-0.1-0.2-0.4-0.6-0.9-1.4
										c-0.5-0.8-0.8-1.3-0.9-1.5c-0.1-0.2-0.1-0.3-0.1-0.4c0-0.1,0.1-0.2,0.3-0.2c0.1,0,0.3,0,0.5,0.1c0.4,0.2,0.7,0.7,1,1.4
										l1.3-0.3c-0.3-0.7-0.7-1.2-1-1.5C953.2,968.6,952.8,968.3,952.5,968.1"/>
									<path d="M877.7,902.4l-5.3-2.7l-3.8,19.8l5.3,2.7L877.7,902.4 M990.7,960l-5.3-2.7l-3.8,19.8l5.3,2.7L990.7,960
										 M894.3,910.3c-1-0.5-2.1-0.9-3.1-1c-1.1-0.1-2.3,0-3.7,0.3l0.4-2l-5.3-2.7l-3.8,19.8l5.3,2.7l1.5-7.9
										c0.4-2.1,0.7-3.4,1-3.9c0.5-1,1.2-1.7,2.1-2c0.9-0.3,1.9-0.1,3,0.4c0.8,0.4,1.5,1,2,1.7c0.5,0.7,0.8,1.5,0.8,2.4
										c0.1,0.9-0.1,2.5-0.6,4.9l-1.7,8.7l5.3,2.7l2.5-13.1c0.4-2.3,0.1-4.3-0.9-6.1C898.1,913,896.4,911.4,894.3,910.3
										 M936.1,940.3c0.8-0.9,1.6-1.4,2.4-1.5c1.3-0.2,2.7,0.1,4.1,0.9c1.4,0.7,2.5,1.7,3.4,2.9c0.9,1.2,1.4,2.4,1.6,3.7
										L936.1,940.3 M943.2,935.2c-3.2-1.6-6-1.9-8.4-1c-2.5,0.9-4,2.9-4.6,5.9c-0.6,2.9,0,5.9,1.7,8.9c1.7,3,4.2,5.4,7.6,7.1
										c2.1,1.1,4.1,1.7,5.8,1.8c1.7,0.1,3.2-0.3,4.6-1.2l-4.1-4.3c-1.7,0.6-3.5,0.4-5.5-0.7c-1.7-0.8-2.9-2-3.9-3.3
										c-0.9-1.4-1.4-2.8-1.3-4.4l17.1,8.7l0.2-0.9c0.6-3.3,0.1-6.4-1.6-9.5C949.1,939.3,946.5,937,943.2,935.2 M1002.7,983.4
										c-1.6-0.8-2.9-2.1-3.8-3.8c-0.9-1.7-1.2-3.4-0.9-5.1c0.3-1.7,1.1-2.8,2.5-3.3c1.3-0.5,2.8-0.4,4.4,0.5
										c1.7,0.9,3,2.1,3.9,3.7c0.9,1.6,1.2,3.3,0.9,5c-0.3,1.8-1.2,2.9-2.5,3.4C1005.9,984.4,1004.4,984.3,1002.7,983.4
										 M1004.7,966.6c-2.8-1.4-5.3-1.6-7.6-0.7c-2.3,1-3.8,3-4.4,6c-0.6,2.9,0,5.9,1.6,8.9c1.6,3,3.8,5.2,6.6,6.6
										c1.2,0.6,2.4,1,3.5,1.1c1.1,0.1,2.3,0,3.5-0.4l-0.4,2.1l5.3,2.7l3.8-19.8l-5.3-2.7l-0.4,2.2c-0.8-1.4-1.7-2.6-2.7-3.6
										C1007.1,968.1,1006,967.2,1004.7,966.6 M913.7,938.1c-1.6-0.8-2.9-2.1-3.8-3.7c-0.9-1.7-1.2-3.4-0.9-5.1
										c0.3-1.7,1.1-2.8,2.4-3.3c1.3-0.5,2.8-0.4,4.4,0.5c1.7,0.9,3,2.1,3.9,3.7c0.9,1.6,1.2,3.3,0.9,5c-0.3,1.8-1.2,2.9-2.5,3.4
										C916.9,939.1,915.4,938.9,913.7,938.1 M929.2,920.2l-5.3-2.7l-1.9,9.8c-0.8-1.4-1.7-2.6-2.7-3.6c-1-1-2.2-1.8-3.5-2.5
										c-2.8-1.4-5.3-1.6-7.6-0.7c-2.3,1-3.8,3-4.4,6c-0.6,2.9,0,5.9,1.6,8.9c1.6,3,3.8,5.2,6.6,6.6c1.2,0.6,2.4,1,3.5,1.1
										c1.1,0.1,2.3,0,3.5-0.4l-0.4,2.1l5.3,2.7L929.2,920.2 M1028.3,970.7l-5.3-2.7l-5.3,27.5l5.3,2.7L1028.3,970.7 M876.7,892.9
										c-0.9-0.5-1.8-0.6-2.6-0.3c-0.8,0.3-1.3,0.8-1.4,1.7c-0.2,0.9,0,1.9,0.6,2.8c0.5,1,1.3,1.7,2.2,2.2
										c0.9,0.5,1.8,0.6,2.6,0.3c0.8-0.3,1.3-0.9,1.4-1.7c0.2-0.9,0-1.8-0.6-2.8C878.3,894.2,877.6,893.4,876.7,892.9
										 M989.6,950.5c-0.9-0.5-1.8-0.6-2.6-0.3c-0.8,0.3-1.3,0.8-1.4,1.7c-0.2,0.9,0,1.9,0.6,2.8c0.5,1,1.3,1.7,2.2,2.2
										c0.9,0.5,1.8,0.6,2.6,0.3c0.8-0.3,1.3-0.9,1.4-1.7c0.2-0.9,0-1.8-0.6-2.8C991.3,951.7,990.6,951,989.6,950.5"/>
									<path class="st60" d="M971,939.2c-2.3-1.2-4.8-1.8-7-1.6l4.7,12.8l8.5-6.1C975.5,942.1,973.3,940.3,971,939.2"/>
									<path class="st60" d="M959.6,939.2c-2,1.4-3.5,3.9-4.2,7.5c-0.8,3.1-0.1,7.4,1.4,12.2l8-5.7L959.6,939.2"/>
									<path class="st60" d="M967,959.2l-8.1,5.8c1.5,3.8,3.2,7.7,4.9,11.4c2.6-1.4,5.4-3,7.9-4.7L967,959.2"/>
									<path class="st60" d="M980.4,949.6l-9.4,6.7l4.7,12.4c3-2.6,5.1-5.5,5.6-8.9C981.9,956.2,981.5,952.7,980.4,949.6"/>
								</g>
							</g>
						</g>
					</g>
				</g>
			</g>
		</g>
	</g>
</g>
</svg>
