<?xml version="1.0" encoding="utf-8"?>
<!-- Generator: Adobe Illustrator 19.0.0, SVG Export Plug-In . SVG Version: 6.00 Build 0)  -->
<svg version="1.1" xmlns="http://www.w3.org/2000/svg" xmlns:xlink="http://www.w3.org/1999/xlink" x="0px" y="0px"
	 viewBox="0 0 1139 857" style="enable-background:new 0 0 1139 857;" xml:space="preserve">
<style type="text/css">
	.st0{fill-rule:evenodd;clip-rule:evenodd;fill:url(#SVGID_1_);}
	.st1{fill-rule:evenodd;clip-rule:evenodd;fill:url(#SVGID_2_);}
	.st2{opacity:0.4;}
	.st3{fill:#FFFFFF;}
	.st4{opacity:0.2;fill:#FFFFFF;}
	.st5{fill:#F4767A;}
	.st6{fill:#ED5561;}
	.st7{fill:#BBCEE1;}
	.st8{fill:#D8395A;}
	.st9{fill:#933E31;}
	.st10{fill:#1C75BC;}
	.st11{fill:#9D4D36;}
	.st12{fill:#A7BCCE;}
	.st13{fill:#2A87C6;}
	.st14{fill:#E8EBF5;}
	.st15{fill:#0F4463;}
	.st16{fill:#0B3B56;}
	.st17{fill:#1F5E77;}
	.st18{fill:#07304B;}
	.st19{fill:url(#SVGID_3_);}
	.st20{fill:#FED4BD;}
	.st21{fill:#F4C5A2;}
	.st22{fill:#DE495A;}
	.st23{fill:#EF4136;}
	.st24{fill:#91A6B7;}
	.st25{fill:#79FF68;}
	.st26{fill:#50E85E;}
	.st27{fill:#3CC743;}
	.st28{fill:#9263C1;}
	.st29{fill:#8444B2;}
	.st30{fill:#7231A3;}
	.st31{fill:#DE64C6;}
	.st32{fill:#FFA8E1;}
	.st33{fill:#FF7AD2;}
	.st34{fill:#FCEC32;}
	.st35{fill:#F5D012;}
	.st36{fill:#EAA10C;}
	.st37{fill:#EDF0F8;}
	.st38{fill:#F0CEC9;}
	.st39{fill:#FFFBF0;}
	.st40{fill:#F5DDD8;}
	.st41{fill:#DFBAB8;}
	.st42{opacity:0.5;}
	.st43{fill-rule:evenodd;clip-rule:evenodd;fill:#FFFFFF;}
	.st44{fill-rule:evenodd;clip-rule:evenodd;fill:#568FC7;}
	.st45{fill:#002750;}
	.st46{fill:#FEC900;}
	.st47{fill:#2C1EE0;}
	.st48{fill:#F7971C;}
	.st49{fill:#F7971D;}
	.st50{fill:#303030;}
	.st51{fill:#3E9F60;}
	.st52{fill:#54AD5E;}
	.st53{fill:#41A058;}
	.st54{fill:#3E9F61;}
	.st55{fill:#008633;}
	.st56{fill:#038A3D;}
	.st57{fill:#3EA157;}
	.st58{fill:#33BC4B;}
	.st59{fill:#3D9F60;}
	.st60{fill:#22944A;}
	.st61{fill:#12C03C;}
	.st62{fill:#83AF94;}
	.st63{fill:#1BA94A;}
	.st64{fill:#80BA92;}
	.st65{fill:#A7D2B4;}
	.st66{fill:#92C2A2;}
	.st67{fill:#A2A2A2;}
	.st68{fill:#9C9C9C;}
	.st69{fill:#AFD1BA;}
	.st70{fill:#45B955;}
	.st71{fill:#E3F7E7;}
	.st72{fill:#75AE8B;}
</style>
<g id="Layer_2">
	<linearGradient id="SVGID_1_" gradientUnits="userSpaceOnUse" x1="734.8377" y1="28.3507" x2="284.1235" y2="831.9373">
		<stop  offset="0" style="stop-color:#2C1EE0;stop-opacity:0.82"/>
		<stop  offset="1" style="stop-color:#2C0981"/>
	</linearGradient>
	<path class="st0" d="M974.6,548.1c0.7,7.9,1.1,15.9,1.1,24c0,147.2-118,266.1-265.2,267.1c-37.9,0.3-74-7.4-106.7-21.3
		c-52.7-22.5-112.1-23.8-166.1-4.6c-28,9.9-58.1,15.4-89.5,15.4C200.6,828.7,81,709.1,81,561.5c0-10.3,0.6-20.5,1.7-30.5
		c6.2-54.4-0.3-109.4-18.9-160.9c-10.5-29.1-16.1-60.6-15.8-93.5C49.6,129.8,168.4,12.4,315.2,12.4c48.2,0,93.4,12.8,132.4,35.1
		c63.6,36.4,138.9,46.6,209.5,26.9c23-6.4,47.2-9.9,72.2-9.9c147.5,0,267.1,119.6,267.1,267.1c0,23.4-3,46-8.6,67.6
		C975.2,447.8,970.2,498.1,974.6,548.1z"/>
	<linearGradient id="SVGID_2_" gradientUnits="userSpaceOnUse" x1="693.2317" y1="103.8717" x2="305.4906" y2="795.1823">
		<stop  offset="0" style="stop-color:#2C1EE0"/>
		<stop  offset="0.9253" style="stop-color:#2C0981"/>
	</linearGradient>
	<path class="st1" d="M899.5,551c0.6,6.8,0.9,13.7,0.9,20.7c0,126.6-101.5,228.9-228.2,229.8c-32.6,0.2-63.6-6.3-91.8-18.3
		c-45.4-19.4-96.5-20.5-142.9-4c-24.1,8.6-50,13.2-77,13.2c-126.9,0-229.8-102.9-229.8-229.8c0-8.9,0.5-17.6,1.5-26.2
		c5.3-46.8-0.3-94.1-16.3-138.4c-9-25.1-13.8-52.2-13.6-80.4c1.3-126.3,103.5-227.4,229.8-227.4c41.5,0,80.4,11,113.9,30.2
		c54.7,31.3,119.5,40.1,180.2,23.1c19.8-5.5,40.6-8.5,62.1-8.5c126.9,0,229.8,102.9,229.8,229.8c0,20.1-2.6,39.6-7.4,58.2
		C900,464.7,895.7,508,899.5,551z"/>
</g>
<g id="Layer_4">
	<g>
		<g>
			<g class="st2">
				<g>
					<polygon class="st3" points="505.2,161.8 505.2,165.1 518.8,172.9 518.8,169.7 					"/>
					<polygon class="st3" points="505.2,167.8 505.2,171 518.8,178.9 518.8,175.6 					"/>
					<polygon class="st3" points="505.2,173.7 505.2,176.9 518.8,184.8 518.8,181.5 					"/>
					<polygon class="st3" points="607.9,242.1 607.9,238.9 523.9,190.4 523.9,193.6 					"/>
					<polygon class="st3" points="505.2,179.6 505.2,182.8 518.8,190.7 518.8,187.5 					"/>
					<polygon class="st3" points="505.2,185.5 505.2,188.8 518.8,196.6 518.8,193.4 					"/>
					<polygon class="st3" points="607.9,248 607.9,244.8 523.9,196.3 523.9,199.6 					"/>
					<polygon class="st3" points="505.2,203.3 505.2,206.5 518.8,214.4 518.8,211.1 					"/>
					<polygon class="st3" points="505.2,209.2 505.2,212.4 518.8,220.3 518.8,217.1 					"/>
					<polygon class="st3" points="505.2,232.9 505.2,236.1 518.8,244 518.8,240.7 					"/>
					<polygon class="st3" points="505.2,238.8 505.2,242 518.8,249.9 518.8,246.7 					"/>
					<g>
						<polygon class="st3" points="576.9,280.2 523.9,249.6 523.9,252.8 576.9,283.4 						"/>
						<polygon class="st3" points="579.7,281.8 579.7,285 607.9,301.3 607.9,298.1 						"/>
					</g>
					<g>
						<polygon class="st3" points="550.5,259 523.9,243.7 523.9,246.9 550.5,262.3 						"/>
						<polygon class="st3" points="553.3,260.7 553.3,263.9 607.9,295.4 607.9,292.1 						"/>
					</g>
					<polygon class="st3" points="600.7,270.2 600.7,273.5 607.9,277.6 607.9,274.4 					"/>
					<polygon class="st3" points="561.7,241.8 523.9,220 523.9,223.2 561.7,245 					"/>
					<polygon class="st3" points="546.2,185.5 523.9,172.6 523.9,175.9 546.2,188.7 					"/>
					<g>
						<polygon class="st3" points="582.7,206.6 549,187.1 549,190.3 582.7,209.8 						"/>
					</g>
					<polygon class="st3" points="563,201.1 539.3,187.4 539.3,190.7 563,204.4 					"/>
					<g>
						<polygon class="st3" points="588,215.5 565.8,202.8 565.8,206 588,218.8 						"/>
						<polygon class="st3" points="590.8,217.1 590.8,220.4 607.9,230.3 607.9,227 						"/>
					</g>
					<polygon class="st3" points="528.3,187 528.3,190.3 546.2,200.6 546.2,197.3 					"/>
					<polygon class="st3" points="600.9,228.9 549,198.9 549,202.2 600.9,232.1 					"/>
					<polygon class="st3" points="571.2,229.5 537.2,209.9 537.2,213.2 571.2,232.8 					"/>
					<polygon class="st3" points="600.9,246.7 574,231.1 574,234.4 600.9,249.9 					"/>
					<g>
						<polygon class="st3" points="597.9,262.7 564.4,243.4 564.4,246.6 597.9,266 						"/>
					</g>
					<polygon class="st3" points="579.7,258.1 579.7,261.3 597.9,271.9 597.9,268.6 					"/>
					<polygon class="st3" points="530.5,229.7 523.9,225.9 523.9,229.2 530.5,233 					"/>
					<g>
						<polygon class="st3" points="542.8,236.8 542.8,240.1 576.9,259.7 576.9,256.5 						"/>
						<polygon class="st3" points="540,235.2 533.3,231.3 533.3,234.6 540,238.4 						"/>
					</g>
					<polygon class="st3" points="570.6,258.8 533.3,237.2 533.3,240.5 570.6,262 					"/>
				</g>
			</g>
			<g class="st2">
				<polygon class="st3" points="577.8,108.2 521.3,75.5 521.3,78.4 577.8,111.1 				"/>
				<polygon class="st3" points="521.3,84 607.9,134.1 607.9,131.3 521.3,81.2 				"/>
				<polygon class="st3" points="581.5,110.3 581.5,113.2 607.9,128.5 607.9,125.6 				"/>
				<polygon class="st3" points="577.8,119.2 521.3,86.5 521.3,89.4 577.8,122.1 				"/>
				<polygon class="st3" points="521.3,95 607.9,145.1 607.9,142.3 521.3,92.2 				"/>
				<polygon class="st3" points="581.5,124.2 607.9,139.5 607.9,136.6 581.5,121.4 				"/>
				<polygon class="st3" points="577.8,137.4 521.3,104.7 521.3,107.6 577.8,140.3 				"/>
				<polygon class="st3" points="521.3,113.2 607.9,163.3 607.9,160.4 521.3,110.3 				"/>
				<polygon class="st3" points="581.5,142.4 607.9,157.7 607.9,154.8 581.5,139.5 				"/>
				<polygon class="st3" points="577.8,148.4 521.3,115.7 521.3,118.6 577.8,151.3 				"/>
				<polygon class="st3" points="521.3,124.2 607.9,174.3 607.9,171.4 521.3,121.3 				"/>
				<polygon class="st3" points="581.5,153.4 607.9,168.7 607.9,165.8 581.5,150.5 				"/>
				<polygon class="st3" points="577.8,166.6 521.3,133.9 521.3,136.7 577.8,169.4 				"/>
				<polygon class="st3" points="521.3,142.4 607.9,192.5 607.9,189.6 521.3,139.5 				"/>
				<polygon class="st3" points="581.5,171.6 607.9,186.8 607.9,184 581.5,168.7 				"/>
				<polygon class="st3" points="577.8,177.6 521.3,144.9 521.3,147.7 577.8,180.4 				"/>
				<polygon class="st3" points="521.3,153.4 607.9,203.5 607.9,200.6 521.3,150.5 				"/>
				<polygon class="st3" points="581.5,182.6 607.9,197.8 607.9,195 581.5,179.7 				"/>
			</g>
			<path class="st4" d="M425.5,149.3L383.3,125c-2.1-1.2-4.6,0.3-4.6,2.7v50.5c0,2.5,1.3,4.7,3.4,6l42.2,24.4
				c2.1,1.2,4.7-0.3,4.7-2.7l0-50.3C429,153,427.7,150.6,425.5,149.3z"/>
			<g>
				<g>
					<g>
						<path class="st5" d="M406.7,192l-55.3-31.9c-1.7-1-3.6-0.9-5.5,0.2l0,0l-12.1,7l5.6,7.7l2.1,2.4v54.8c0,3.3,1.7,6.3,4.6,7.9
							l41.4,23.9l0.4,2.3l8.4,11.8l13-7.6c0,0,0,0,0.1,0l0.1-0.1v0c1.2-0.7,2-2,2-3.6l0-66.7C411.5,196.8,409.7,193.7,406.7,192z"/>
						<path class="st6" d="M393.8,199.6l-55.9-32.3c-2.7-1.6-6.1,0.4-6.1,3.5v67c0,3.3,1.7,6.3,4.6,7.9l55.9,32.3
							c2.8,1.6,6.3-0.4,6.3-3.6l0-66.7C398.5,204.4,396.7,201.3,393.8,199.6z"/>
					</g>
				</g>
				<g>
					<path class="st7" d="M396.4,278.1L396.4,278.1L396.4,278.1C396.4,278.1,396.4,278.1,396.4,278.1z"/>
					<path class="st8" d="M398.5,274.4l0-66.7c0-1.1-0.3-2.2-0.6-3.2l13-7.5c0.3,1,0.6,2,0.6,3.1l0,66.7c0,1.6-0.8,2.8-2,3.6v0
						l-0.1,0.1c0,0,0,0-0.1,0l-12.9,7.6C397.7,277.4,398.5,276.1,398.5,274.4z"/>
				</g>
			</g>
			<g>
				<path class="st3" d="M345,199.4l-6.8-3.9l-0.1,24.5l4.5,2.6l0-8.7l1.9,1.1c2.6,1.5,4.7,2,6.1,1.4c1.4-0.6,2.2-2.2,2.2-4.8
					c0-2.5-0.7-4.8-2-6.9C349.6,202.6,347.6,200.9,345,199.4z M347.3,211.3c-0.7,0.2-1.7,0-3.1-0.9l-1.5-0.9l0-7.3l2.1,1.2
					c1.2,0.7,2.1,1.5,2.7,2.4c0.6,0.9,0.9,2,0.9,3.2C348.4,210.3,348,211,347.3,211.3z"/>
				<polygon class="st3" points="368.7,222.6 360.3,217.8 360.3,208.2 355.8,205.6 355.7,230 360.2,232.7 360.3,222.1 368.7,227 
					368.7,237.5 373.2,240.1 373.2,215.6 368.7,213 				"/>
				<path class="st3" d="M390.1,227.3c-1.4-2.1-3.3-3.8-5.9-5.3l-6.8-3.9l-0.1,24.5l4.5,2.6l0-8.7l1.9,1.1c2.6,1.5,4.7,2,6.1,1.4
					c1.4-0.6,2.2-2.2,2.2-4.8C392.1,231.7,391.5,229.4,390.1,227.3z M386.5,233.9c-0.7,0.2-1.7,0-3.1-0.9l-1.5-0.9l0-7.3l2.1,1.2
					c1.2,0.7,2.1,1.5,2.7,2.4c0.6,0.9,0.9,2,0.9,3.2C387.5,233,387.2,233.7,386.5,233.9z"/>
			</g>
			<g class="st2">
				<g>
					<polygon class="st3" points="276.2,194.5 276.2,197.7 289.8,205.6 289.8,202.3 					"/>
					<polygon class="st3" points="276.2,200.4 276.2,203.6 289.8,211.5 289.8,208.3 					"/>
					<polygon class="st3" points="276.2,206.3 276.2,209.6 289.8,217.4 289.8,214.2 					"/>
					<polygon class="st3" points="378.9,274.7 378.9,271.5 294.9,223 294.9,226.3 					"/>
					<polygon class="st3" points="276.2,212.2 276.2,215.5 289.8,223.3 289.8,220.1 					"/>
					<polygon class="st3" points="276.2,218.2 276.2,221.4 289.8,229.3 289.8,226 					"/>
					<polygon class="st3" points="378.9,280.7 378.9,277.4 294.9,229 294.9,232.2 					"/>
					<polygon class="st3" points="276.2,235.9 276.2,239.2 289.8,247 289.8,243.8 					"/>
					<polygon class="st3" points="276.2,241.8 276.2,245.1 289.8,252.9 289.8,249.7 					"/>
					<polygon class="st3" points="276.2,265.5 276.2,268.8 289.8,276.6 289.8,273.4 					"/>
					<polygon class="st3" points="276.2,271.4 276.2,274.7 289.8,282.5 289.8,279.3 					"/>
					<g>
						<polygon class="st3" points="347.9,312.8 294.9,282.2 294.9,285.5 347.9,316.1 						"/>
						<polygon class="st3" points="350.7,314.4 350.7,317.7 378.9,334 378.9,330.7 						"/>
					</g>
					<g>
						<polygon class="st3" points="321.5,291.7 294.9,276.3 294.9,279.6 321.5,294.9 						"/>
						<polygon class="st3" points="324.3,293.3 324.3,296.5 378.9,328 378.9,324.8 						"/>
					</g>
					<polygon class="st3" points="371.7,302.9 371.7,306.1 378.9,310.3 378.9,307 					"/>
					<polygon class="st3" points="332.7,274.4 294.9,252.6 294.9,255.9 332.7,277.7 					"/>
					<polygon class="st3" points="317.2,218.1 294.9,205.3 294.9,208.5 317.2,221.4 					"/>
					<g>
						<polygon class="st3" points="353.7,239.2 320,219.7 320,223 353.7,242.4 						"/>
					</g>
					<polygon class="st3" points="334,233.8 310.3,220.1 310.3,223.3 334,237 					"/>
					<g>
						<polygon class="st3" points="359,248.2 336.8,235.4 336.8,238.6 359,251.4 						"/>
						<polygon class="st3" points="361.8,249.8 361.8,253 378.9,262.9 378.9,259.7 						"/>
					</g>
					<polygon class="st3" points="299.3,219.7 299.3,222.9 317.2,233.2 317.2,230 					"/>
					<polygon class="st3" points="371.9,261.6 320,231.6 320,234.8 371.9,264.8 					"/>
					<polygon class="st3" points="342.2,262.2 308.2,242.6 308.2,245.8 342.2,265.4 					"/>
					<polygon class="st3" points="371.9,279.3 345,263.8 345,267 371.9,282.6 					"/>
					<g>
						<polygon class="st3" points="368.9,295.4 335.4,276 335.4,279.3 368.9,298.6 						"/>
					</g>
					<polygon class="st3" points="350.7,290.8 350.7,294 368.9,304.5 368.9,301.3 					"/>
					<polygon class="st3" points="301.5,262.4 294.9,258.6 294.9,261.8 301.5,265.6 					"/>
					<g>
						<polygon class="st3" points="313.8,269.5 313.8,272.7 347.9,292.4 347.9,289.1 						"/>
						<polygon class="st3" points="311,267.8 304.3,264 304.3,267.2 311,271.1 						"/>
					</g>
					<polygon class="st3" points="341.6,291.4 304.3,269.9 304.3,273.1 341.6,294.7 					"/>
				</g>
			</g>
			<path class="st4" d="M682.1,236.6L640,212.3c-2.1-1.2-4.6,0.3-4.6,2.7v50.5c0,2.5,1.3,4.7,3.4,6l42.2,24.4
				c2.1,1.2,4.7-0.3,4.7-2.7l0-50.3C685.7,240.2,684.3,237.9,682.1,236.6z"/>
			<path class="st4" d="M739.7,139l-42.2-24.3c-2.1-1.2-4.6,0.3-4.6,2.7v50.5c0,2.5,1.3,4.7,3.4,6l42.2,24.4
				c2.1,1.2,4.7-0.3,4.7-2.7l0-50.3C743.3,142.7,741.9,140.3,739.7,139z"/>
			<path class="st4" d="M869.9,403l-42.2-24.3c-2.1-1.2-4.6,0.3-4.6,2.7v50.5c0,2.5,1.3,4.7,3.4,6l42.2,24.4
				c2.1,1.2,4.7-0.3,4.7-2.7l0-50.3C873.5,406.6,872.1,404.3,869.9,403z"/>
			<path class="st4" d="M502.9,278.8l-42.2-24.3c-2.1-1.2-4.6,0.3-4.6,2.7v50.5c0,2.5,1.3,4.7,3.4,6l42.2,24.4
				c2.1,1.2,4.7-0.3,4.7-2.7l0-50.3C506.4,282.4,505.1,280.1,502.9,278.8z"/>
			<path class="st9" d="M344.1,693.6c-11.2,0.1-7.5-8.4-7.5-8.4c-16.6-5.1-24.8-2.2-24.8-2.2c-4.2,14.7-2.5,23.5-2.6,27.1
				c-0.1,1.7,1.2,2.8,2.9,3.4c8.9,3.3,17.1,5.5,33.7,3.9c12.2-1.2,25.2-12.5,22.3-24.2C366.2,685.9,355.5,693.5,344.1,693.6z"/>
			<path class="st10" d="M339.3,588.4c-3.3-4.3-8.9-7.9-18.2-5.4L221,602.2l3.8,25.7c0,0,15.3,20.2,42.2,12.5
				c26.8-7.7,44.3-20.2,44.3-20.2l-3.4,70.9c0,0,15.7,4.9,29.7-3.6c2.3-1.4,4.5-69.8,5.2-87.4C342.9,595.4,342.3,592.2,339.3,588.4z
				"/>
			<path class="st11" d="M392.2,714.1c-11.6,0.1-7.8-8.7-7.8-8.7c-17.2-5.3-25.7-2.3-25.7-2.3c-4.3,15.2-2.6,24.4-2.7,28.1
				c-0.1,1.8,1.3,2.9,3,3.6c9.3,3.5,17.7,5.7,35,4.1c12.7-1.2,26.2-13,23.1-25.1C415.1,706.2,404,714,392.2,714.1z"/>
			<g>
				<polygon class="st7" points="278.4,685.9 192.5,636.3 192.5,648.3 278.4,697.9 				"/>
				<polygon class="st3" points="270.6,591.4 192.5,636.3 278.4,685.9 356.6,641 				"/>
				<polygon class="st12" points="356.6,641 278.4,685.9 278.4,697.9 356.6,652.7 				"/>
			</g>
			<path class="st13" d="M387.2,604.9c-3.4-4.4-9.3-8.2-18.9-5.7l-103.9,20l3.9,26.7c0,0,15.9,21,43.8,13s46-21,46-21l-3.5,73.7
				c0,0,16.3,5.1,30.8-3.7c2.4-1.5,4.7-72.5,5.4-90.7C390.9,612.2,390.3,608.9,387.2,604.9z"/>
			<g>
				<path class="st14" d="M201.5,454.5l177.5-103c7.5-4.4,16.8-4.4,24.3,0l279.6,161.7c7.1,4.1,7.1,14.4,0,18.5L509.3,632.5
					c-8.9,5.2-20,5.2-28.9,0L201.5,471.1C195.1,467.4,195.1,458.2,201.5,454.5z"/>
				<path class="st12" d="M201.5,471.1l278.9,161.4c8.9,5.2,20,5.2,28.9,0l173.5-100.7c3.5-2.1,5.3-5.6,5.3-9.2v13.3
					c0,0,0,0.1,0,0.1v0.2l0,0c-0.1,3.5-1.8,7-5.3,9L509.3,645.8c-8.9,5.2-20,5.2-28.9,0L201.5,484.5c-3.2-1.9-4.8-5.1-4.8-8.4l0,0
					v-13.3C196.7,466.1,198.3,469.3,201.5,471.1z"/>
				<path class="st7" d="M201.5,471.1l278.9,161.4c4.1,2.4,8.6,3.6,13.2,3.8v13.4c-4.6-0.2-9.1-1.4-13.2-3.8L201.5,484.5
					c-3.2-1.9-4.8-5.1-4.8-8.4l0,0v-13.3C196.7,466.1,198.3,469.3,201.5,471.1z"/>
			</g>
			<g>
				<g>
					<g>
						<path class="st15" d="M332.6,491.8l30.1-17.4c1.4-0.8,3.2-0.8,4.6,0l93,53.8c1.3,0.8,1.3,2.7,0,3.5l-29.4,17
							c-1.7,1-3.8,1-5.4,0l-92.9-53.7C331.4,494.2,331.4,492.5,332.6,491.8z"/>
						<path class="st16" d="M332.6,494.9l92.9,53.7c1.7,1,3.8,1,5.4,0l29.4-17c0.7-0.4,1-1.1,1-1.7v3.6c0,0,0,0,0,0v0l0,0
							c0,0.7-0.3,1.3-1,1.7l-29.4,17c-1.7,1-3.8,1-5.4,0l-92.9-53.7c-0.6-0.3-0.9-1-0.9-1.6h0v-3.6C331.7,494,332,494.6,332.6,494.9
							z"/>
					</g>
					<g>
						<polygon class="st17" points="362.4,479.2 366.2,477.1 370.4,479.5 366.7,481.7 						"/>
						<polygon class="st17" points="367.7,482.3 371.5,480.1 375.8,482.6 372,484.8 						"/>
						<polygon class="st17" points="373.1,485.4 376.8,483.2 381.1,485.7 377.4,487.9 						"/>
						<polygon class="st17" points="378.4,488.5 382.2,486.3 386.5,488.8 382.7,490.9 						"/>
						<polygon class="st17" points="383.8,491.6 387.5,489.4 391.8,491.8 388.1,494 						"/>
						<polygon class="st17" points="389.1,494.6 392.9,492.4 397.2,494.9 393.4,497.1 						"/>
						<polygon class="st17" points="394.5,497.7 398.2,495.5 402.5,498 398.8,500.2 						"/>
						<polygon class="st17" points="399.8,500.8 403.6,498.6 407.9,501.1 404.1,503.3 						"/>
						<polygon class="st17" points="405.2,503.9 408.9,501.7 413.2,504.1 409.5,506.3 						"/>
						<polygon class="st17" points="410.5,506.9 414.3,504.8 418.6,507.2 414.8,509.4 						"/>
						<polygon class="st17" points="415.8,510 419.6,507.8 423.9,510.3 420.1,512.5 						"/>
						<polygon class="st17" points="421.2,513.1 425,510.9 429.2,513.4 425.5,515.6 						"/>
						<polygon class="st17" points="430.3,514 434.6,516.5 430.8,518.6 426.5,516.2 						"/>
						<polygon class="st17" points="361.8,484.5 357.5,482.1 361.3,479.9 365.6,482.4 						"/>
						<polygon class="st17" points="370.9,485.4 367.1,487.6 362.9,485.1 366.6,483 						"/>
						<polygon class="st17" points="376.3,488.5 372.5,490.7 368.2,488.2 372,486 						"/>
						<polygon class="st17" points="381.6,491.6 377.8,493.8 373.5,491.3 377.3,489.1 						"/>
						<polygon class="st17" points="386.9,494.7 383.2,496.8 378.9,494.4 382.7,492.2 						"/>
						<polygon class="st17" points="392.3,497.7 388.5,499.9 384.2,497.5 388,495.3 						"/>
						<polygon class="st17" points="397.6,500.8 393.9,503 389.6,500.5 393.4,498.3 						"/>
						<polygon class="st17" points="403,503.9 399.2,506.1 394.9,503.6 398.7,501.4 						"/>
						<polygon class="st17" points="408.3,507 404.6,509.2 400.3,506.7 404,504.5 						"/>
						<polygon class="st17" points="413.7,510.1 409.9,512.2 405.6,509.8 409.4,507.6 						"/>
						<polygon class="st17" points="419,513.1 415.3,515.3 411,512.8 414.7,510.7 						"/>
						<polygon class="st17" points="424.4,516.2 420.6,518.4 416.3,515.9 420.1,513.7 						"/>
						<polygon class="st17" points="425.4,516.8 429.7,519.3 426,521.5 421.7,519 						"/>
						<polygon class="st17" points="356.9,487.4 352.6,484.9 356.4,482.7 360.7,485.2 						"/>
						<polygon class="st17" points="366,488.3 362.3,490.4 358,488 361.7,485.8 						"/>
						<polygon class="st17" points="363.3,491.1 367.1,488.9 371.4,491.3 367.6,493.5 						"/>
						<polygon class="st17" points="376.7,494.4 373,496.6 368.7,494.1 372.4,491.9 						"/>
						<polygon class="st17" points="382.1,497.5 378.3,499.7 374,497.2 377.8,495 						"/>
						<polygon class="st17" points="387.4,500.6 383.7,502.7 379.4,500.3 383.1,498.1 						"/>
						<polygon class="st17" points="392.8,503.6 389,505.8 384.7,503.4 388.5,501.2 						"/>
						<polygon class="st17" points="398.1,506.7 394.3,508.9 390,506.4 393.8,504.3 						"/>
						<polygon class="st17" points="403.5,509.8 399.7,512 395.4,509.5 399.2,507.3 						"/>
						<polygon class="st17" points="408.8,512.9 405,515.1 400.7,512.6 404.5,510.4 						"/>
						<polygon class="st17" points="414.1,516 410.4,518.1 406.1,515.7 409.9,513.5 						"/>
						<polygon class="st17" points="411.4,518.7 415.2,516.6 419.5,519 415.7,521.2 						"/>
						<polygon class="st17" points="420.6,519.6 424.8,522.1 421.1,524.3 416.8,521.8 						"/>
						<polygon class="st17" points="352,490.2 347.7,487.7 351.5,485.5 355.8,488 						"/>
						<polygon class="st17" points="353.1,490.8 356.9,488.6 361.1,491.1 357.4,493.3 						"/>
						<polygon class="st17" points="358.4,493.9 362.2,491.7 366.5,494.2 362.7,496.3 						"/>
						<polygon class="st17" points="363.8,497 367.6,494.8 371.8,497.2 368.1,499.4 						"/>
						<polygon class="st17" points="369.1,500 372.9,497.8 377.2,500.3 373.4,502.5 						"/>
						<polygon class="st17" points="374.5,503.1 378.2,500.9 382.5,503.4 378.8,505.6 						"/>
						<polygon class="st17" points="379.8,506.2 383.6,504 387.9,506.5 384.1,508.7 						"/>
						<polygon class="st17" points="385.2,509.3 388.9,507.1 393.2,509.5 389.5,511.7 						"/>
						<polygon class="st17" points="390.5,512.3 394.3,510.2 398.6,512.6 394.8,514.8 						"/>
						<polygon class="st17" points="395.9,515.4 399.6,513.2 403.9,515.7 400.2,517.9 						"/>
						<polygon class="st17" points="401.2,518.5 405,516.3 409.3,518.8 405.5,521 						"/>
						<polygon class="st17" points="406.6,521.6 410.3,519.4 414.6,521.9 410.9,524 						"/>
						<polygon class="st17" points="415.7,522.5 420,524.9 416.2,527.1 411.9,524.7 						"/>
						<polygon class="st17" points="347.2,493 342.9,490.6 346.6,488.4 350.9,490.8 						"/>
						<polygon class="st17" points="348.2,493.6 352,491.4 356.3,493.9 352.5,496.1 						"/>
						<polygon class="st17" points="353.6,496.7 357.3,494.5 361.6,497 357.9,499.2 						"/>
						<polygon class="st17" points="358.9,499.8 362.7,497.6 367,500.1 363.2,502.2 						"/>
						<polygon class="st17" points="364.3,502.9 368,500.7 372.3,503.1 368.5,505.3 						"/>
						<polygon class="st17" points="369.6,505.9 373.4,503.7 377.7,506.2 373.9,508.4 						"/>
						<polygon class="st17" points="374.9,509 378.7,506.8 383,509.3 379.2,511.5 						"/>
						<polygon class="st17" points="380.3,512.1 384.1,509.9 388.3,512.4 384.6,514.6 						"/>
						<polygon class="st17" points="385.6,515.2 389.4,513 393.7,515.5 389.9,517.6 						"/>
						<polygon class="st17" points="391,518.2 394.8,516.1 399,518.5 395.3,520.7 						"/>
						<polygon class="st17" points="396.3,521.3 400.1,519.1 404.4,521.6 400.6,523.8 						"/>
						<polygon class="st17" points="401.7,524.4 405.4,522.2 409.7,524.7 406,526.9 						"/>
						<polygon class="st17" points="410.8,525.3 415.1,527.8 411.3,529.9 407,527.5 						"/>
						<polygon class="st17" points="341.8,491.2 346,493.7 342.3,495.8 338,493.4 						"/>
						<polygon class="st17" points="351.4,496.7 347.6,498.9 343.3,496.5 347.1,494.3 						"/>
						<polygon class="st17" points="356.7,499.8 353,502 348.7,499.5 352.4,497.3 						"/>
						<polygon class="st17" points="362.1,502.9 358.3,505.1 354,502.6 357.8,500.4 						"/>
						<polygon class="st17" points="367.4,506 363.7,508.2 359.4,505.7 363.1,503.5 						"/>
						<polygon class="st17" points="372.8,509 369,511.2 364.7,508.8 368.5,506.6 						"/>
						<polygon class="st17" points="373.8,509.7 379.2,512.7 379.2,512.7 380.2,513.3 384.5,515.8 384.5,515.8 386.7,517.1 
							389.9,518.9 389.9,518.9 393.2,520.8 399.5,524.4 395.7,526.6 389.2,522.9 386.1,521.1 386.1,521.1 382.9,519.2 380.8,518 
							380.8,518 376.5,515.6 375.4,514.9 375.4,514.9 370.1,511.8 						"/>
						<polygon class="st17" points="404.9,527.5 401.1,529.7 396.8,527.2 400.6,525 						"/>
						<polygon class="st17" points="410.2,530.6 406.4,532.8 402.1,530.3 405.9,528.1 						"/>
					</g>
					<g>
						<polygon class="st17" points="437.2,522.3 441,520.1 445.3,522.6 441.5,524.8 						"/>
						<polygon class="st17" points="442.6,525.4 446.3,523.2 450.6,525.7 446.9,527.9 						"/>
						<polygon class="st17" points="447.9,528.5 451.7,526.3 456,528.8 452.2,530.9 						"/>
						<polygon class="st17" points="440.4,525.4 436.6,527.6 432.4,525.1 436.1,523 						"/>
						<polygon class="st17" points="445.8,528.5 442,530.7 437.7,528.2 441.5,526 						"/>
						<polygon class="st17" points="451.1,531.6 447.3,533.8 443,531.3 446.8,529.1 						"/>
						<polygon class="st17" points="435.5,528.3 431.8,530.4 427.5,528 431.2,525.8 						"/>
						<polygon class="st17" points="440.9,531.3 437.1,533.5 432.8,531.1 436.6,528.9 						"/>
						<polygon class="st17" points="446.2,534.4 442.5,536.6 438.2,534.1 441.9,531.9 						"/>
						<polygon class="st17" points="422.6,530.8 426.4,528.6 430.6,531.1 426.9,533.3 						"/>
						<polygon class="st17" points="427.9,533.9 431.7,531.7 436,534.2 432.2,536.3 						"/>
						<polygon class="st17" points="433.3,537 437.1,534.8 441.3,537.2 437.6,539.4 						"/>
						<polygon class="st17" points="417.7,533.6 421.5,531.4 425.8,533.9 422,536.1 						"/>
						<polygon class="st17" points="423.1,536.7 426.8,534.5 431.1,537 427.4,539.2 						"/>
						<polygon class="st17" points="428.4,539.8 432.2,537.6 436.5,540.1 432.7,542.2 						"/>
						<polygon class="st17" points="420.9,536.7 417.1,538.9 412.8,536.5 416.6,534.3 						"/>
						<polygon class="st17" points="426.2,539.8 422.5,542 418.2,539.5 421.9,537.3 						"/>
					</g>
				</g>
				<g>
					<path class="st17" d="M399.4,462.9l29.6-17.2c1.3-0.7,2.8-0.7,4.1,0l70.3,40.6c1.2,0.7,1.2,2.4,0,3.1l-29,16.8
						c-1.5,0.9-3.3,0.9-4.8,0l-70.2-40.5C398.4,465,398.4,463.5,399.4,462.9z"/>
					<path class="st18" d="M399.4,465.6l70.2,40.5c1.5,0.9,3.3,0.9,4.8,0l29-16.8c0.6-0.3,0.9-0.9,0.9-1.5v3.6c0,0,0,0,0,0v0l0,0
						c0,0.6-0.3,1.2-0.9,1.5l-29,16.8c-1.5,0.9-3.3,0.9-4.8,0l-70.2-40.5c-0.5-0.3-0.8-0.9-0.8-1.4l0,0v-3.6
						C398.6,464.8,398.9,465.3,399.4,465.6z"/>
					<path class="st16" d="M399.4,465.6l70.2,40.5c0.7,0.4,1.4,0.6,2.2,0.6v3.6c-0.8,0-1.5-0.2-2.2-0.6l-70.2-40.5
						c-0.5-0.3-0.8-0.9-0.8-1.4l0,0v-3.6C398.6,464.8,398.9,465.3,399.4,465.6z"/>
				</g>
				<g>
					<polygon class="st15" points="476.3,465.6 421.7,434 421.7,461 476.3,492.6 					"/>
					<polygon class="st18" points="429.3,429.6 421.7,434 476.3,465.6 483.9,461.2 					"/>
					<polygon class="st18" points="483.9,461.2 476.3,465.6 476.3,492.6 483.9,488.2 					"/>
				</g>
				<g>
					<g>
						<linearGradient id="SVGID_3_" gradientUnits="userSpaceOnUse" x1="427.8876" y1="476.4844" x2="480.1494" y2="304.5268">
							<stop  offset="0" style="stop-color:#1C75BC"/>
							<stop  offset="0.2787" style="stop-color:#2077BC"/>
							<stop  offset="0.5411" style="stop-color:#2B7EBC"/>
							<stop  offset="0.7962" style="stop-color:#3E88BC"/>
							<stop  offset="1" style="stop-color:#5394BC"/>
						</linearGradient>
						<polygon class="st19" points="366.4,296.2 532.5,392.5 532.5,514.7 366.4,418 						"/>
						<polygon class="st18" points="532.5,392.5 538,389.2 538,511.4 532.5,514.7 						"/>
						<polygon class="st17" points="366.4,296.2 372.1,292.9 538,389.2 532.5,392.5 						"/>
					</g>
					<path class="st16" d="M366.4,296.2V418l166.1,96.7l0-122.2L366.4,296.2z M528.6,507.9l-158.2-92.1V303l158.2,91.8L528.6,507.9z
						"/>
				</g>
			</g>
			
				<ellipse transform="matrix(0.9952 9.815928e-002 -9.815928e-002 0.9952 44.9864 -25.2694)" class="st20" cx="279.3" cy="444.6" rx="25.8" ry="31.8"/>
			<path class="st21" d="M326.1,487.8c0,0,6.2,1.5,8.3,1.7c2.1,0.2,10.2,1.9,13.5,0.9c3.3-1-2.9-3.2-4.4-4.3c-1.5-1.1-1.5-4,1.9-5
				c3.3-1,10.9-0.5,14.9-1.1c4-0.6-4-12.7-10.5-13.8c-6.5-1.1-12.1-0.4-17.8,2.4c-5.5,2.7-8.6,7.4-11.2,8.2L326.1,487.8z"/>
			<path class="st6" d="M326.8,471.3l-42.1,10.6l-2.1,26.7l49.7-17C333.3,482.1,326.8,471.3,326.8,471.3z"/>
			<path class="st6" d="M223,482.6c0,0-11.6,14.7,0,34.9c0,0,8.1,11.3,30.5,0.2L223,482.6z"/>
			<path class="st22" d="M257.5,465.5c0,0,18.1-1.2,32.4,8.7c0,0,1.1,3,3.9,4.9c2.8,1.9,17,7.6,17,7.6s-6.2,82.9,0.9,123.2
				c0,0-30.7,24-78.6,0c0,0-7-101.7-10.1-127.2C223,482.6,231,472.7,257.5,465.5z"/>
			<g>
				<polygon class="st7" points="249.5,602.3 163.6,552.6 192.5,636.4 278.4,685.9 				"/>
				<polygon class="st3" points="173.1,547.1 163.6,552.6 249.5,602.3 259.1,596.7 				"/>
				<polygon class="st12" points="259.1,596.7 249.5,602.3 278.4,685.9 288.1,680.3 				"/>
			</g>
			<path class="st21" d="M382.7,524.5c0,0,4.7-4.7,6.5-6.1c1.8-1.3,8.1-7.3,11.6-8.1c3.5-0.8-2.5,5.3-3.2,7.3
				c-0.7,1.9,3.6-1.5,6.9-2.8c3.4-1.3,7.2-1.1,11.3,0.4c8.1,2.9,7.7,19.2,1.1,17.2c-10.9-3.2-15.9,5.5-22.4,7.3
				c-4.5,1.3-6.4,1.2-9.2,1.7L382.7,524.5z"/>
			<path class="st6" d="M310.7,486.6l35.5,47.1l36.9-10.9c0,0,7.9,10,5.4,20.6l-49.3,19.2l-40.1-44.1
				C299.2,518.5,285.8,490.6,310.7,486.6z"/>
			<path d="M290.9,398c0,0,2.7,6.6-10.3,8.3c-13,1.8-29.2,8.3-33.5,22.1c-2.7,8.8,0.4,18.3,4.9,26c1.5,2.6,3.2,5.3,5.2,7.6
				c0,0,8.7,2.4,19.3-3.3c0,0,6.5-4.3,10.4-12.6c0,0,7.8,3.2,10.2-3.2c1.8-4.8,7.4-5.9,10.5-8.6C307.5,434.2,325.2,405.4,290.9,398z
				"/>
			<g>
				<polygon class="st7" points="778.6,648.8 721.7,615.7 721.7,637 778.6,670 				"/>
				<polygon class="st3" points="780.5,581.9 721.7,615.7 778.6,648.8 837.5,614.9 				"/>
				<polygon class="st12" points="837.5,614.9 778.6,648.8 778.6,670 837.5,635.9 				"/>
			</g>
			<g>
				<polygon class="st7" points="778.6,613.9 721.7,580.9 721.7,602.2 778.6,635.1 				"/>
				<polygon class="st3" points="780.5,547.1 721.7,580.9 778.6,613.9 837.5,580.1 				"/>
				<polygon class="st12" points="837.5,580.1 778.6,613.9 778.6,635.1 837.5,601 				"/>
			</g>
			<g>
				<polygon class="st7" points="682.3,704.5 625.4,671.5 625.4,692.8 682.3,725.7 				"/>
				<polygon class="st3" points="684.2,637.7 625.4,671.5 682.3,704.5 741.2,670.7 				"/>
				<polygon class="st12" points="741.2,670.7 682.3,704.5 682.3,725.7 741.2,691.6 				"/>
			</g>
			<g>
				<polygon class="st7" points="682.3,669.7 625.4,636.6 625.4,657.9 682.3,690.9 				"/>
				<polygon class="st3" points="684.2,602.8 625.4,636.6 682.3,669.7 741.2,635.8 				"/>
				<polygon class="st12" points="741.2,635.8 682.3,669.7 682.3,690.9 741.2,656.8 				"/>
			</g>
			<g>
				<polygon class="st7" points="586,760.3 529.1,727.2 529.1,748.5 586,781.5 				"/>
				<polygon class="st3" points="588,693.4 529.1,727.2 586,760.3 645,726.4 				"/>
				<polygon class="st12" points="645,726.4 586,760.3 586,781.5 645,747.4 				"/>
			</g>
			<g>
				<polygon class="st7" points="586,725.4 529.1,692.4 529.1,713.7 586,746.6 				"/>
				<polygon class="st3" points="588,658.6 529.1,692.4 586,725.4 645,691.6 				"/>
				<polygon class="st12" points="645,691.6 586,725.4 586,746.6 645,712.5 				"/>
			</g>
			<g>
				<path class="st10" d="M603.8,704.6l-3.6-2.1c-2.6,1-5.4,1.7-8.4,2l0,2.9l-8.7,0l0-2.9c-2.9-0.3-5.8-1-8.4-2l-3.6,2.1l-6.2-3.6
					l3.6-2.1c-1.8-1.5-2.9-3.1-3.5-4.8l-5,0l0-5l5,0c0.6-1.7,1.7-3.4,3.4-4.9l-3.6-2.1l6.1-3.6l3.6,2.1c2.6-1,5.4-1.7,8.4-2l0-2.9
					h8.7l0,2.9c3,0.3,5.8,1,8.4,2l3.6-2.1l6.2,3.6l-3.6,2.1c1.8,1.5,2.9,3.1,3.5,4.9l5,0l0,5l-5,0c-0.6,1.7-1.7,3.4-3.4,4.9l3.6,2.1
					L603.8,704.6z M579.4,696.2c4.5,2.6,11.7,2.6,16.1,0c4.4-2.6,4.4-6.8-0.1-9.3c-4.5-2.6-11.7-2.6-16.1,0
					C574.9,689.5,575,693.6,579.4,696.2"/>
			</g>
			<polygon class="st23" points="688.6,621.2 694.1,633 699.7,644.8 679.2,641.7 658.8,638.5 673.7,629.9 			"/>
			<g>
				<path class="st24" d="M758.2,577.5c-3.1-1.8-1.7-4.4,4.2-7.8c2.8-1.6,5.4-2.7,7.8-3.2c2.4-0.5,4.2-0.3,5.6,0.5
					c0.7,0.4,1.2,0.9,1.5,1.4c0.3,0.5,0.5,1,0.7,1.5l5.4-1.3c-0.3-0.9-0.8-1.7-1.4-2.4c-0.6-0.6-1.4-1.2-2.3-1.8
					c-2.8-1.6-6.2-2.2-10-1.8c-3.9,0.4-7.9,1.8-12,4.2c-4.1,2.4-6.5,4.7-7.2,6.9c-0.7,2.2,0.3,4.1,3.2,5.8c1.9,1.1,3.9,1.8,6,2
					l4.2-2.4C761.4,578.9,759.6,578.3,758.2,577.5z"/>
				<path class="st24" d="M783.8,584c0.5-1.1,0.5-2.4-0.1-4c-0.4-1.2-0.6-2.1-0.4-2.7c0.1-0.7,0.6-1.2,1.5-1.7
					c0.9-0.5,1.7-0.8,2.7-0.8c0.9-0.1,1.8,0.1,2.5,0.6c0.7,0.4,1.2,0.9,1.6,1.4c0.4,0.5,0.7,1,0.9,1.5l5.3-1.3
					c-0.7-1.7-2.1-3.1-4-4.2c-2-1.2-4.3-1.8-6.8-1.7c-2.5,0-4.8,0.7-7,1.9c-1.1,0.7-2,1.3-2.5,2c-0.5,0.7-0.9,1.4-1,2.1
					c-0.1,0.7,0,1.6,0.3,2.7c0.4,1.2,0.5,2.2,0.4,2.9c-0.1,0.7-0.6,1.3-1.5,1.8c-0.8,0.5-1.7,0.7-2.7,0.8c-1,0-1.9-0.2-2.8-0.7
					c-1.6-0.9-2.7-2.3-3.4-4.1l-4.7,2.7c0.7,1.4,2.1,2.7,4.4,4c2.3,1.3,4.6,1.9,7.1,1.9c2.5,0,4.9-0.7,7.2-2.1
					C782.3,586,783.3,585.1,783.8,584z"/>
				<path class="st24" d="M808.5,581.2c-2-1.2-4.3-1.8-6.8-1.7c-2.5,0-4.8,0.7-7,1.9c-1.1,0.7-2,1.3-2.5,2c-0.5,0.7-0.9,1.4-1,2.1
					c-0.1,0.7,0,1.6,0.3,2.7c0.4,1.2,0.5,2.2,0.4,2.9c-0.2,0.7-0.7,1.3-1.5,1.8c-0.8,0.5-1.7,0.7-2.7,0.8c-1,0-1.9-0.2-2.8-0.7
					c-1.6-0.9-2.7-2.3-3.4-4.1l-4.7,2.7c0.7,1.4,2.1,2.7,4.4,4c2.3,1.3,4.6,1.9,7.1,1.9c2.5,0,4.9-0.7,7.2-2.1
					c1.5-0.9,2.5-1.8,3-2.9c0.5-1.1,0.5-2.4-0.1-4c-0.4-1.2-0.6-2.1-0.4-2.7c0.1-0.7,0.6-1.2,1.5-1.7c0.9-0.5,1.7-0.8,2.7-0.8
					c0.9-0.1,1.8,0.1,2.5,0.6c0.7,0.4,1.2,0.9,1.6,1.4c0.4,0.5,0.7,1,0.9,1.5l5.3-1.3C811.8,583.8,810.4,582.4,808.5,581.2z"/>
			</g>
			<g>
				<g>
					<g>
						<path class="st25" d="M777.3,391.1L722,359.2c-1.7-1-3.6-0.9-5.5,0.2l0,0l-12.1,7l5.6,7.7l2.1,2.4v54.8c0,3.3,1.7,6.3,4.6,7.9
							l41.4,23.9l0.4,2.3l8.4,11.8l13-7.6c0,0,0,0,0.1,0l0.1,0v0c1.2-0.7,2-2,2-3.6l0-66.7C782,395.9,780.3,392.8,777.3,391.1z"/>
						<path class="st26" d="M764.4,398.7l-55.9-32.3c-2.7-1.6-6.1,0.4-6.1,3.5v67c0,3.3,1.7,6.3,4.6,7.9l55.9,32.3
							c2.8,1.6,6.3-0.4,6.3-3.6l0-66.7C769.1,403.5,767.3,400.4,764.4,398.7z"/>
					</g>
				</g>
				<g>
					<path class="st7" d="M767,477.2L767,477.2L767,477.2C766.9,477.2,767,477.2,767,477.2z"/>
					<path class="st27" d="M769.1,473.5l0-66.7c0-1.1-0.3-2.2-0.6-3.2l13-7.5c0.3,1,0.6,2,0.6,3.1l0,66.7c0,1.6-0.8,2.8-2,3.6v0
						l-0.1,0.1c0,0,0,0-0.1,0l-12.9,7.6C768.3,476.4,769.1,475.1,769.1,473.5z"/>
				</g>
			</g>
			<g>
				<g>
					<g>
						<path class="st28" d="M840.6,257.9L785.3,226c-1.7-1-3.6-0.9-5.5,0.2l0,0l-12.1,7l5.6,7.7l2.1,2.4V298c0,3.3,1.7,6.3,4.6,7.9
							l41.4,23.9l0.4,2.3l8.4,11.8l13-7.6c0,0,0,0,0.1,0l0.1-0.1v0c1.2-0.7,2-2,2-3.6l0-66.7C845.3,262.7,843.5,259.6,840.6,257.9z"
							/>
						<path class="st29" d="M827.7,265.5l-55.9-32.3c-2.7-1.6-6.1,0.4-6.1,3.5v67c0,3.3,1.7,6.3,4.6,7.9l55.9,32.3
							c2.8,1.6,6.3-0.4,6.3-3.6l0-66.7C832.4,270.3,830.6,267.2,827.7,265.5z"/>
					</g>
				</g>
				<g>
					<path class="st7" d="M830.3,344L830.3,344L830.3,344C830.2,344,830.3,344,830.3,344z"/>
					<path class="st30" d="M832.4,340.3l0-66.7c0-1.1-0.3-2.2-0.6-3.2l13-7.5c0.3,1,0.6,2,0.6,3.1l0,66.7c0,1.6-0.8,2.8-2,3.6v0
						l-0.1,0.1c0,0,0,0-0.1,0l-12.9,7.6C831.5,343.2,832.4,341.9,832.4,340.3z"/>
				</g>
			</g>
			<g>
				<g>
					<path class="st7" d="M645.4,344.9L645.4,344.9L645.4,344.9C645.3,345,645.4,345,645.4,344.9z"/>
					<path class="st31" d="M647.5,341.3l0-66.7c0-1.1-0.3-2.2-0.6-3.2l13-7.5c0.3,1,0.6,2,0.6,3.1l0,66.7c0,1.6-0.8,2.8-2,3.6v0
						l-0.1,0.1c0,0,0,0-0.1,0l-12.9,7.6C646.6,344.2,647.5,342.9,647.5,341.3z"/>
				</g>
				<g>
					<g>
						<path class="st32" d="M655.7,259.9l-55.3-31.9c-1.7-1-3.6-0.9-5.5,0.2l0,0l-12.1,7l5.6,7.7l2.1,2.4V300c0,3.3,1.7,6.3,4.6,7.9
							l41.4,23.9l0.4,2.3l8.4,11.8l13-7.6c0,0,0,0,0.1,0l0.1,0v0c1.2-0.7,2-2,2-3.6l0-66.7C660.4,264.6,658.6,261.5,655.7,259.9z"/>
						<path class="st33" d="M642.8,266.4l-55.9-32.3c-2.7-1.6-6.1,0.4-6.1,3.5v67c0,3.3,1.7,6.3,4.6,7.9l55.9,32.3
							c2.8,1.6,6.3-0.4,6.3-3.6l0-66.7C647.5,271.2,645.7,268.1,642.8,266.4z"/>
					</g>
				</g>
			</g>
			<g>
				<g>
					<g>
						<path class="st34" d="M534.6,129.7l-55.3-31.9c-1.7-1-3.6-0.9-5.5,0.2l0,0l-12.1,7l5.6,7.7l2.1,2.4v54.8
							c0,3.3,1.7,6.3,4.6,7.9l41.4,23.9l0.4,2.3l8.4,11.8l13-7.6c0,0,0,0,0.1,0l0.1-0.1v0c1.2-0.7,2-2,2-3.6l0-66.7
							C539.3,134.5,537.5,131.4,534.6,129.7z"/>
						<path class="st35" d="M521.7,137.3L465.8,105c-2.7-1.6-6.1,0.4-6.1,3.5v67c0,3.3,1.7,6.3,4.6,7.9l55.9,32.3
							c2.8,1.6,6.3-0.4,6.3-3.6l0-66.7C526.4,142.1,524.6,139,521.7,137.3z"/>
					</g>
				</g>
				<g>
					<path class="st7" d="M524.3,215.8L524.3,215.8L524.3,215.8C524.2,215.8,524.3,215.8,524.3,215.8z"/>
					<path class="st36" d="M526.4,212.1l0-66.7c0-1.1-0.3-2.2-0.6-3.2l13-7.5c0.3,1,0.6,2,0.6,3.1l0,66.7c0,1.6-0.8,2.8-2,3.6v0
						l-0.1,0.1c0,0,0,0-0.1,0l-12.9,7.6C525.6,215.1,526.4,213.8,526.4,212.1z"/>
				</g>
			</g>
			<g>
				<path class="st29" d="M477.2,143.1c0.8,0.5,1.7,1.1,2.5,2c0.9,0.8,1.7,1.7,2.6,2.7l1.6-3.6c-2.2-2.5-4.4-4.4-6.6-5.7
					c-2.2-1.3-4-1.8-5.7-1.6c-1.6,0.2-2.8,1-3.7,2.6c-0.9,1.5-1.3,3.7-1.3,6.4c0,4.3,0.9,8.1,2.6,11.4c1.7,3.3,4.3,5.9,7.6,7.8
					c2.3,1.3,4.4,2.1,6.2,2.3l0-4.6c-2.3-0.4-4.2-1-5.8-2c-3.8-2.2-5.7-6.2-5.7-12c0-2.8,0.5-4.7,1.5-5.7
					C474,142,475.4,142,477.2,143.1z"/>
				<polygon class="st29" points="495.8,153.8 492.4,151.9 492.3,158.8 486.3,155.3 486.3,159.2 492.3,162.7 492.3,169.6 
					495.7,171.5 495.7,164.7 501.7,168.1 501.7,164.2 495.7,160.8 				"/>
				<polygon class="st29" points="513.9,171.2 513.9,164.3 510.5,162.3 510.5,169.3 504.5,165.8 504.5,169.7 510.5,173.2 510.4,180 
					513.8,182 513.9,175.1 519.9,178.6 519.9,174.7 				"/>
			</g>
			<g>
				<path class="st3" d="M783.9,261.2c-0.6,0.6-0.9,1.9-0.9,3.7l0,8l0,0.2c0,1.5-0.5,2.3-1.5,2.4c-1,0.1-2.4-0.4-4.2-1.4l0,5.6
					c1.8,1,3.2,2.2,4.2,3.4c1,1.2,1.4,2.7,1.4,4.3l0,7.9c0,1.8,0.3,3.4,0.9,4.7c0.6,1.3,1.5,2.6,2.9,3.8c1.3,1.2,3.1,2.5,5.4,3.8
					l0-5.3c-1.5-0.9-2.5-1.8-3-2.7c-0.5-0.9-0.8-1.9-0.8-3.1l0-7.6l0-0.3c0-3-1.7-5.8-5-8.3l0-0.3c3.3,1.4,5,0.4,5-2.8l0-7.6
					c0-1.2,0.3-2,0.8-2.2c0.5-0.3,1.5,0,3,0.8l0-5.3c-2.3-1.3-4.1-2.1-5.4-2.4C785.5,260.4,784.5,260.6,783.9,261.2z"/>
				<path class="st3" d="M815.2,295c-0.9-1.2-1.4-2.6-1.4-4.1l0-0.2l0-8c0-2.6-0.7-4.8-2.1-6.7c-1.4-1.9-3.7-3.7-7.1-5.7l0,5.3
					c1.5,0.9,2.5,1.8,3,2.7c0.5,0.9,0.8,1.9,0.8,3.1l0,7.6c0.1,3.3,1.7,6.1,5.1,8.6l0,0.3c-1.6-0.7-2.9-0.8-3.8-0.4
					c-0.9,0.4-1.3,1.4-1.3,2.9l0,0.2l0,7.6c0,1.2-0.3,2-0.8,2.3c-0.5,0.2-1.6,0-3-0.8l0,5.3c3.4,2,5.8,2.8,7.1,2.5
					c1.4-0.3,2.1-1.7,2.1-4.3l0-7.9c0-1.7,0.5-2.5,1.4-2.7c1-0.1,2.3,0.3,4.2,1.4l0-5.6C817.5,297.3,816.1,296.2,815.2,295z"/>
			</g>
			<g>
				<polygon class="st17" points="709.4,409.6 726.8,428.4 726.8,423.6 714.8,411 726.8,411.6 726.8,406.7 709.4,406.7 				"/>
				<polygon class="st17" points="728.5,433.5 733.4,436.3 743,412.4 738.1,409.6 				"/>
				<polygon class="st17" points="744.7,417 744.7,421.9 756.6,435.1 744.6,433.9 744.6,438.7 762,439.9 762,437 				"/>
			</g>
			<g>
				<g>
					<polygon class="st35" points="387.1,321.6 387.1,324.8 400.7,332.7 400.7,329.4 					"/>
					<polygon class="st37" points="387.1,327.5 387.1,330.8 400.7,338.6 400.7,335.4 					"/>
					<polygon class="st37" points="387.1,333.4 387.1,336.7 400.7,344.5 400.7,341.3 					"/>
					<polygon class="st37" points="489.8,401.9 489.8,398.6 405.8,350.1 405.8,353.4 					"/>
					<polygon class="st37" points="387.1,339.4 387.1,342.6 400.7,350.4 400.7,347.2 					"/>
					<polygon class="st37" points="387.1,345.3 387.1,348.5 400.7,356.4 400.7,353.1 					"/>
					<polygon class="st26" points="489.8,407.8 489.8,404.5 405.8,356.1 405.8,359.3 					"/>
					<polygon class="st37" points="387.1,363 387.1,366.3 400.7,374.1 400.7,370.9 					"/>
					<polygon class="st35" points="387.1,369 387.1,372.2 400.7,380 400.7,376.8 					"/>
					<polygon class="st37" points="387.1,392.6 387.1,395.9 400.7,403.7 400.7,400.5 					"/>
					<polygon class="st37" points="387.1,398.6 387.1,401.8 400.7,409.6 400.7,406.4 					"/>
					<g>
						<polygon class="st26" points="458.8,439.9 405.8,409.4 405.8,412.6 458.8,443.2 						"/>
						<polygon class="st37" points="461.6,441.5 461.6,444.8 489.8,461.1 489.8,457.8 						"/>
					</g>
					<g>
						<polygon class="st37" points="432.5,418.8 405.8,403.4 405.8,406.7 432.5,422 						"/>
						<polygon class="st37" points="435.2,420.4 435.2,423.6 489.8,455.1 489.8,451.9 						"/>
					</g>
					<polygon class="st37" points="482.7,430 482.7,433.2 489.8,437.4 489.8,434.1 					"/>
					<polygon class="st6" points="443.6,401.5 405.8,379.8 405.8,383 443.6,404.8 					"/>
					<polygon class="st37" points="428.1,345.2 405.8,332.4 405.8,335.6 428.1,348.5 					"/>
					<g>
						<polygon class="st37" points="464.6,366.3 430.9,346.9 430.9,350.1 464.6,369.6 						"/>
					</g>
					<polygon class="st37" points="445,360.9 421.2,347.2 421.2,350.4 445,364.1 					"/>
					<g>
						<polygon class="st6" points="469.9,375.3 447.8,362.5 447.8,365.7 469.9,378.5 						"/>
						<polygon class="st37" points="472.7,376.9 472.7,380.1 489.8,390 489.8,386.8 						"/>
					</g>
					<polygon class="st6" points="410.2,346.8 410.2,350 428.1,360.3 428.1,357.1 					"/>
					<polygon class="st37" points="482.8,388.7 430.9,358.7 430.9,361.9 482.8,391.9 					"/>
					<polygon class="st37" points="453.1,389.3 419.2,369.7 419.2,372.9 453.1,392.5 					"/>
					<polygon class="st37" points="482.8,406.4 455.9,390.9 455.9,394.1 482.8,409.7 					"/>
					<g>
						<polygon class="st37" points="479.9,422.5 446.4,403.1 446.4,406.4 479.9,425.7 						"/>
					</g>
					<polygon class="st26" points="461.6,417.9 461.6,421.1 479.9,431.6 479.9,428.4 					"/>
					<polygon class="st37" points="412.4,389.5 405.8,385.7 405.8,388.9 412.4,392.7 					"/>
					<g>
						<polygon class="st37" points="424.7,396.6 424.7,399.8 458.8,419.5 458.8,416.2 						"/>
						<polygon class="st37" points="421.9,394.9 415.2,391.1 415.2,394.3 421.9,398.2 						"/>
					</g>
					<polygon class="st37" points="452.5,418.5 415.2,397 415.2,400.2 452.5,421.8 					"/>
				</g>
				<g>
					<polygon class="st37" points="495.7,384.3 495.7,385.2 499.5,387.4 499.5,386.5 					"/>
					<polygon class="st37" points="495.7,385.9 495.7,386.8 499.5,389 499.5,388.1 					"/>
					<polygon class="st37" points="495.7,387.6 495.7,388.5 499.5,390.6 499.5,389.7 					"/>
					<polygon class="st37" points="524.1,406.4 524.1,405.5 500.9,392.2 500.9,393.1 					"/>
					<polygon class="st37" points="495.7,389.2 495.7,390.1 499.5,392.3 499.5,391.4 					"/>
					<polygon class="st37" points="495.7,390.8 495.7,391.7 499.5,393.9 499.5,393 					"/>
					<polygon class="st37" points="524.1,408 524.1,407.2 500.9,393.8 500.9,394.7 					"/>
					<polygon class="st37" points="495.7,395.7 495.7,396.6 499.5,398.8 499.5,397.9 					"/>
					<polygon class="st37" points="495.7,397.3 495.7,398.2 499.5,400.4 499.5,399.5 					"/>
					<polygon class="st37" points="495.7,403.9 495.7,404.8 499.5,406.9 499.5,406 					"/>
					<polygon class="st37" points="495.7,405.5 495.7,406.4 499.5,408.6 499.5,407.7 					"/>
					<g>
						<polygon class="st37" points="515.5,416.9 500.9,408.5 500.9,409.4 515.5,417.8 						"/>
						<polygon class="st37" points="516.3,417.3 516.3,418.2 524.1,422.7 524.1,421.8 						"/>
					</g>
					<g>
						<polygon class="st37" points="508.2,411.1 500.9,406.9 500.9,407.7 508.2,412 						"/>
						<polygon class="st37" points="509,411.5 509,412.4 524.1,421.1 524.1,420.2 						"/>
					</g>
					<polygon class="st37" points="522.1,414.2 522.1,415.1 524.1,416.2 524.1,415.3 					"/>
					<polygon class="st37" points="511.3,406.3 500.9,400.3 500.9,401.2 511.3,407.2 					"/>
					<polygon class="st37" points="507,390.8 500.9,387.3 500.9,388.2 507,391.7 					"/>
					<g>
						<polygon class="st37" points="517.1,396.6 507.8,391.3 507.8,392.2 517.1,397.5 						"/>
					</g>
					<polygon class="st37" points="511.7,395.1 505.2,391.4 505.2,392.2 511.7,396 					"/>
					<g>
						<polygon class="st37" points="518.6,399.1 512.5,395.6 512.5,396.5 518.6,400 						"/>
						<polygon class="st37" points="519.3,399.5 519.3,400.4 524.1,403.2 524.1,402.3 						"/>
					</g>
					<polygon class="st37" points="502.1,391.2 502.1,392.1 507,395 507,394.1 					"/>
					<polygon class="st37" points="522.1,402.8 507.8,394.5 507.8,395.4 522.1,403.7 					"/>
					<polygon class="st37" points="513.9,402.9 504.6,397.6 504.6,398.4 513.9,403.8 					"/>
					<polygon class="st37" points="522.1,407.7 514.7,403.4 514.7,404.3 522.1,408.6 					"/>
					<g>
						<polygon class="st37" points="521.3,412.1 512.1,406.8 512.1,407.7 521.3,413 						"/>
					</g>
					<polygon class="st37" points="516.3,410.8 516.3,411.7 521.3,414.6 521.3,413.7 					"/>
					<polygon class="st37" points="502.7,403 500.9,402 500.9,402.8 502.7,403.9 					"/>
					<g>
						<polygon class="st37" points="506.1,405 506.1,405.8 515.5,411.3 515.5,410.4 						"/>
						<polygon class="st37" points="505.3,404.5 503.5,403.4 503.5,404.3 505.3,405.4 						"/>
					</g>
					<polygon class="st37" points="513.8,411 503.5,405.1 503.5,406 513.8,411.9 					"/>
				</g>
				<g>
					<polygon class="st37" points="495.7,411.9 495.7,412.8 499.5,415 499.5,414.1 					"/>
					<polygon class="st37" points="495.7,413.5 495.7,414.4 499.5,416.6 499.5,415.7 					"/>
					<polygon class="st37" points="495.7,415.2 495.7,416.1 499.5,418.2 499.5,417.3 					"/>
					<polygon class="st37" points="524.1,434 524.1,433.1 500.9,419.8 500.9,420.7 					"/>
					<polygon class="st37" points="495.7,416.8 495.7,417.7 499.5,419.9 499.5,419 					"/>
					<polygon class="st37" points="495.7,418.4 495.7,419.3 499.5,421.5 499.5,420.6 					"/>
					<polygon class="st37" points="524.1,435.6 524.1,434.8 500.9,421.4 500.9,422.3 					"/>
					<polygon class="st37" points="495.7,423.3 495.7,424.2 499.5,426.4 499.5,425.5 					"/>
					<polygon class="st37" points="495.7,425 495.7,425.8 499.5,428 499.5,427.1 					"/>
					<polygon class="st37" points="495.7,431.5 495.7,432.4 499.5,434.5 499.5,433.6 					"/>
					<polygon class="st37" points="495.7,433.1 495.7,434 499.5,436.2 499.5,435.3 					"/>
					<g>
						<polygon class="st37" points="515.5,444.5 500.9,436.1 500.9,437 515.5,445.4 						"/>
						<polygon class="st37" points="516.3,445 516.3,445.8 524.1,450.3 524.1,449.4 						"/>
					</g>
					<g>
						<polygon class="st37" points="508.2,438.7 500.9,434.5 500.9,435.3 508.2,439.6 						"/>
						<polygon class="st37" points="509,439.1 509,440 524.1,448.7 524.1,447.8 						"/>
					</g>
					<polygon class="st37" points="522.1,441.8 522.1,442.7 524.1,443.8 524.1,442.9 					"/>
					<polygon class="st37" points="511.3,433.9 500.9,427.9 500.9,428.8 511.3,434.8 					"/>
					<polygon class="st37" points="507,418.4 500.9,414.9 500.9,415.8 507,419.3 					"/>
					<g>
						<polygon class="st37" points="517.1,424.2 507.8,418.9 507.8,419.8 517.1,425.1 						"/>
					</g>
					<polygon class="st37" points="511.7,422.7 505.2,419 505.2,419.8 511.7,423.6 					"/>
					<g>
						<polygon class="st37" points="518.6,426.7 512.5,423.2 512.5,424.1 518.6,427.6 						"/>
						<polygon class="st37" points="519.3,427.1 519.3,428 524.1,430.8 524.1,429.9 						"/>
					</g>
					<polygon class="st37" points="502.1,418.8 502.1,419.7 507,422.6 507,421.7 					"/>
					<polygon class="st37" points="522.1,430.4 507.8,422.1 507.8,423 522.1,431.3 					"/>
					<polygon class="st37" points="513.9,430.5 504.6,425.2 504.6,426 513.9,431.4 					"/>
					<polygon class="st37" points="522.1,435.3 514.7,431 514.7,431.9 522.1,436.2 					"/>
					<g>
						<polygon class="st37" points="521.3,439.7 512.1,434.4 512.1,435.3 521.3,440.6 						"/>
					</g>
					<polygon class="st37" points="516.3,438.4 516.3,439.3 521.3,442.2 521.3,441.3 					"/>
					<polygon class="st37" points="502.7,430.6 500.9,429.6 500.9,430.5 502.7,431.5 					"/>
					<g>
						<polygon class="st37" points="506.1,432.6 506.1,433.5 515.5,438.9 515.5,438 						"/>
						<polygon class="st37" points="505.3,432.1 503.5,431 503.5,431.9 505.3,433 						"/>
					</g>
					<polygon class="st37" points="513.8,438.6 503.5,432.7 503.5,433.6 513.8,439.5 					"/>
				</g>
				<g>
					<polygon class="st37" points="495.7,439.5 495.7,440.4 499.5,442.6 499.5,441.7 					"/>
					<polygon class="st37" points="495.7,441.1 495.7,442 499.5,444.2 499.5,443.3 					"/>
					<polygon class="st37" points="495.7,442.8 495.7,443.7 499.5,445.8 499.5,444.9 					"/>
					<polygon class="st37" points="524.1,461.6 524.1,460.7 500.9,447.4 500.9,448.3 					"/>
					<polygon class="st37" points="495.7,444.4 495.7,445.3 499.5,447.5 499.5,446.6 					"/>
					<polygon class="st37" points="495.7,446 495.7,446.9 499.5,449.1 499.5,448.2 					"/>
					<polygon class="st37" points="524.1,463.3 524.1,462.4 500.9,449 500.9,449.9 					"/>
					<polygon class="st37" points="495.7,450.9 495.7,451.8 499.5,454 499.5,453.1 					"/>
					<polygon class="st37" points="495.7,452.6 495.7,453.4 499.5,455.6 499.5,454.7 					"/>
					<polygon class="st37" points="495.7,459.1 495.7,460 499.5,462.1 499.5,461.2 					"/>
					<polygon class="st37" points="495.7,460.7 495.7,461.6 499.5,463.8 499.5,462.9 					"/>
					<g>
						<polygon class="st37" points="515.5,472.1 500.9,463.7 500.9,464.6 515.5,473 						"/>
						<polygon class="st37" points="516.3,472.6 516.3,473.4 524.1,477.9 524.1,477 						"/>
					</g>
					<g>
						<polygon class="st37" points="508.2,466.3 500.9,462.1 500.9,462.9 508.2,467.2 						"/>
						<polygon class="st37" points="509,466.7 509,467.6 524.1,476.3 524.1,475.4 						"/>
					</g>
					<polygon class="st37" points="522.1,469.4 522.1,470.3 524.1,471.4 524.1,470.5 					"/>
					<polygon class="st37" points="511.3,461.5 500.9,455.5 500.9,456.4 511.3,462.4 					"/>
					<polygon class="st37" points="507,446 500.9,442.5 500.9,443.4 507,446.9 					"/>
					<g>
						<polygon class="st37" points="517.1,451.8 507.8,446.5 507.8,447.4 517.1,452.7 						"/>
					</g>
					<polygon class="st37" points="511.7,450.3 505.2,446.6 505.2,447.5 511.7,451.2 					"/>
					<g>
						<polygon class="st37" points="518.6,454.3 512.5,450.8 512.5,451.7 518.6,455.2 						"/>
						<polygon class="st37" points="519.3,454.7 519.3,455.6 524.1,458.4 524.1,457.5 						"/>
					</g>
					<polygon class="st37" points="502.1,446.4 502.1,447.3 507,450.2 507,449.3 					"/>
					<polygon class="st37" points="522.1,458 507.8,449.7 507.8,450.6 522.1,458.9 					"/>
					<polygon class="st37" points="513.9,458.1 504.6,452.8 504.6,453.6 513.9,459 					"/>
					<polygon class="st37" points="522.1,462.9 514.7,458.6 514.7,459.5 522.1,463.8 					"/>
					<g>
						<polygon class="st37" points="521.3,467.3 512.1,462 512.1,462.9 521.3,468.2 						"/>
					</g>
					<polygon class="st37" points="516.3,466 516.3,466.9 521.3,469.8 521.3,468.9 					"/>
					<polygon class="st37" points="502.7,458.2 500.9,457.2 500.9,458.1 502.7,459.1 					"/>
					<g>
						<polygon class="st37" points="506.1,460.2 506.1,461.1 515.5,466.5 515.5,465.6 						"/>
						<polygon class="st37" points="505.3,459.7 503.5,458.6 503.5,459.5 505.3,460.6 						"/>
					</g>
					<polygon class="st37" points="513.8,466.2 503.5,460.3 503.5,461.2 513.8,467.1 					"/>
				</g>
				<g>
					<polygon class="st37" points="495.7,467.1 495.7,468 499.5,470.2 499.5,469.3 					"/>
					<polygon class="st37" points="495.7,468.7 495.7,469.6 499.5,471.8 499.5,470.9 					"/>
					<polygon class="st37" points="495.7,470.4 495.7,471.3 499.5,473.4 499.5,472.5 					"/>
					<polygon class="st37" points="524.1,489.2 524.1,488.3 500.9,475 500.9,475.9 					"/>
					<polygon class="st37" points="495.7,472 495.7,472.9 499.5,475.1 499.5,474.2 					"/>
					<polygon class="st37" points="495.7,473.6 495.7,474.5 499.5,476.7 499.5,475.8 					"/>
					<polygon class="st37" points="524.1,490.9 524.1,490 500.9,476.6 500.9,477.5 					"/>
					<polygon class="st37" points="495.7,478.5 495.7,479.4 499.5,481.6 499.5,480.7 					"/>
					<polygon class="st37" points="495.7,480.2 495.7,481 499.5,483.2 499.5,482.3 					"/>
					<polygon class="st37" points="522.1,497 522.1,497.9 524.1,499 524.1,498.1 					"/>
					<polygon class="st37" points="511.3,489.1 500.9,483.1 500.9,484 511.3,490 					"/>
					<polygon class="st37" points="507,473.6 500.9,470.1 500.9,471 507,474.5 					"/>
					<g>
						<polygon class="st37" points="517.1,479.4 507.8,474.1 507.8,475 517.1,480.3 						"/>
					</g>
					<polygon class="st37" points="511.7,477.9 505.2,474.2 505.2,475.1 511.7,478.8 					"/>
					<g>
						<polygon class="st37" points="518.6,481.9 512.5,478.4 512.5,479.3 518.6,482.8 						"/>
						<polygon class="st37" points="519.3,482.3 519.3,483.2 524.1,486 524.1,485.1 						"/>
					</g>
					<polygon class="st37" points="502.1,474 502.1,474.9 507,477.8 507,476.9 					"/>
					<polygon class="st37" points="522.1,485.6 507.8,477.3 507.8,478.2 522.1,486.5 					"/>
					<polygon class="st37" points="513.9,485.8 504.6,480.4 504.6,481.2 513.9,486.6 					"/>
					<polygon class="st37" points="522.1,490.5 514.7,486.2 514.7,487.1 522.1,491.4 					"/>
					<g>
						<polygon class="st37" points="521.3,494.9 512.1,489.6 512.1,490.5 521.3,495.8 						"/>
					</g>
					<polygon class="st37" points="516.3,493.6 516.3,494.5 521.3,497.4 521.3,496.5 					"/>
					<polygon class="st37" points="502.7,485.8 500.9,484.8 500.9,485.7 502.7,486.7 					"/>
					<g>
						<polygon class="st37" points="506.1,487.8 506.1,488.7 515.5,494.1 515.5,493.2 						"/>
						<polygon class="st37" points="505.3,487.3 503.5,486.2 503.5,487.1 505.3,488.2 						"/>
					</g>
					<polygon class="st37" points="513.8,493.8 503.5,487.9 503.5,488.8 513.8,494.7 					"/>
				</g>
				<g>
					<path class="st26" d="M378.4,316.6l-4.5-2.6c-0.2-0.1-0.5,0-0.5,0.3v5.4c0,0.3,0.1,0.5,0.4,0.6l4.5,2.6c0.2,0.1,0.5,0,0.5-0.3
						v-5.3C378.8,316.9,378.6,316.7,378.4,316.6z"/>
					<path class="st26" d="M378.4,324.6l-4.5-2.6c-0.2-0.1-0.5,0-0.5,0.3v5.4c0,0.3,0.1,0.5,0.4,0.6l4.5,2.6c0.2,0.1,0.5,0,0.5-0.3
						v-5.3C378.8,325,378.6,324.7,378.4,324.6z"/>
					<path class="st26" d="M378.4,332.6l-4.5-2.6c-0.2-0.1-0.5,0-0.5,0.3v5.4c0,0.3,0.1,0.5,0.4,0.6l4.5,2.6c0.2,0.1,0.5,0,0.5-0.3
						v-5.3C378.8,333,378.6,332.8,378.4,332.6z"/>
					<path class="st26" d="M378.4,340.7l-4.5-2.6c-0.2-0.1-0.5,0-0.5,0.3v5.4c0,0.3,0.1,0.5,0.4,0.6l4.5,2.6c0.2,0.1,0.5,0,0.5-0.3
						v-5.3C378.8,341,378.6,340.8,378.4,340.7z"/>
					<path class="st26" d="M378.4,348.7l-4.5-2.6c-0.2-0.1-0.5,0-0.5,0.3v5.4c0,0.3,0.1,0.5,0.4,0.6l4.5,2.6c0.2,0.1,0.5,0,0.5-0.3
						v-5.3C378.8,349.1,378.6,348.8,378.4,348.7z"/>
					<path class="st26" d="M378.4,356.7l-4.5-2.6c-0.2-0.1-0.5,0-0.5,0.3v5.4c0,0.3,0.1,0.5,0.4,0.6l4.5,2.6c0.2,0.1,0.5,0,0.5-0.3
						v-5.3C378.8,357.1,378.6,356.9,378.4,356.7z"/>
					<path class="st26" d="M378.4,364.8l-4.5-2.6c-0.2-0.1-0.5,0-0.5,0.3v5.4c0,0.3,0.1,0.5,0.4,0.6l4.5,2.6c0.2,0.1,0.5,0,0.5-0.3
						v-5.3C378.8,365.1,378.6,364.9,378.4,364.8z"/>
					<path class="st26" d="M378.4,372.8l-4.5-2.6c-0.2-0.1-0.5,0-0.5,0.3v5.4c0,0.3,0.1,0.5,0.4,0.6l4.5,2.6c0.2,0.1,0.5,0,0.5-0.3
						v-5.3C378.8,373.2,378.6,372.9,378.4,372.8z"/>
					<path class="st26" d="M378.4,380.8l-4.5-2.6c-0.2-0.1-0.5,0-0.5,0.3v5.4c0,0.3,0.1,0.5,0.4,0.6l4.5,2.6c0.2,0.1,0.5,0,0.5-0.3
						v-5.3C378.8,381.2,378.6,381,378.4,380.8z"/>
					<path class="st26" d="M378.4,388.8l-4.5-2.6c-0.2-0.1-0.5,0-0.5,0.3v5.4c0,0.3,0.1,0.5,0.4,0.6l4.5,2.6c0.2,0.1,0.5,0,0.5-0.3
						v-5.3C378.8,389.2,378.6,389,378.4,388.8z"/>
					<path class="st26" d="M378.4,396.9l-4.5-2.6c-0.2-0.1-0.5,0-0.5,0.3v5.4c0,0.3,0.1,0.5,0.4,0.6l4.5,2.6c0.2,0.1,0.5,0,0.5-0.3
						v-5.3C378.8,397.3,378.6,397,378.4,396.9z"/>
					<path class="st26" d="M378.4,404.9l-4.5-2.6c-0.2-0.1-0.5,0-0.5,0.3v5.4c0,0.3,0.1,0.5,0.4,0.6l4.5,2.6c0.2,0.1,0.5,0,0.5-0.3
						v-5.3C378.8,405.3,378.6,405,378.4,404.9z"/>
				</g>
			</g>
			<g class="st2">
				<g>
					<polygon class="st3" points="589.1,345 589.1,348.3 602.7,356.1 602.7,352.9 					"/>
					<polygon class="st3" points="589.1,350.9 589.1,354.2 602.7,362 602.7,358.8 					"/>
					<polygon class="st3" points="589.1,356.9 589.1,360.1 602.7,368 602.7,364.7 					"/>
					<polygon class="st3" points="691.8,425.3 691.8,422 607.8,373.6 607.8,376.8 					"/>
					<polygon class="st3" points="589.1,362.8 589.1,366 602.7,373.9 602.7,370.6 					"/>
					<polygon class="st3" points="589.1,368.7 589.1,371.9 602.7,379.8 602.7,376.6 					"/>
					<polygon class="st3" points="691.8,431.2 691.8,428 607.8,379.5 607.8,382.7 					"/>
					<polygon class="st3" points="589.1,386.5 589.1,389.7 602.7,397.6 602.7,394.3 					"/>
					<polygon class="st3" points="589.1,392.4 589.1,395.6 602.7,403.5 602.7,400.2 					"/>
					<polygon class="st3" points="589.1,416.1 589.1,419.3 602.7,427.2 602.7,423.9 					"/>
					<polygon class="st3" points="589.1,422 589.1,425.2 602.7,433.1 602.7,429.8 					"/>
					<g>
						<polygon class="st3" points="660.8,463.4 607.8,432.8 607.8,436 660.8,466.6 						"/>
						<polygon class="st3" points="663.6,465 663.6,468.2 691.8,484.5 691.8,481.2 						"/>
					</g>
					<g>
						<polygon class="st3" points="634.4,442.2 607.8,426.9 607.8,430.1 634.4,445.5 						"/>
						<polygon class="st3" points="637.2,443.8 637.2,447.1 691.8,478.6 691.8,475.3 						"/>
					</g>
					<polygon class="st3" points="684.6,453.4 684.6,456.7 691.8,460.8 691.8,457.6 					"/>
					<polygon class="st3" points="645.6,425 607.8,403.2 607.8,406.4 645.6,428.2 					"/>
					<polygon class="st3" points="630.1,368.7 607.8,355.8 607.8,359.1 630.1,371.9 					"/>
					<g>
						<polygon class="st3" points="666.6,389.7 632.9,370.3 632.9,373.5 666.6,393 						"/>
					</g>
					<polygon class="st3" points="646.9,384.3 623.2,370.6 623.2,373.9 646.9,387.6 					"/>
					<g>
						<polygon class="st3" points="671.9,398.7 649.7,385.9 649.7,389.2 671.9,401.9 						"/>
						<polygon class="st3" points="674.7,400.3 674.7,403.5 691.8,413.4 691.8,410.2 						"/>
					</g>
					<polygon class="st3" points="612.2,370.2 612.2,373.4 630.1,383.8 630.1,380.5 					"/>
					<polygon class="st3" points="684.8,412.1 632.9,382.1 632.9,385.4 684.8,415.3 					"/>
					<polygon class="st3" points="655.1,412.7 621.1,393.1 621.1,396.4 655.1,415.9 					"/>
					<polygon class="st3" points="684.8,429.8 657.9,414.3 657.9,417.5 684.8,433.1 					"/>
					<g>
						<polygon class="st3" points="681.8,445.9 648.3,426.6 648.3,429.8 681.8,449.1 						"/>
					</g>
					<polygon class="st3" points="663.6,441.3 663.6,444.5 681.8,455.1 681.8,451.8 					"/>
					<polygon class="st3" points="614.4,412.9 607.8,409.1 607.8,412.3 614.4,416.1 					"/>
					<g>
						<polygon class="st3" points="626.7,420 626.7,423.2 660.8,442.9 660.8,439.7 						"/>
						<polygon class="st3" points="623.9,418.4 617.2,414.5 617.2,417.7 623.9,421.6 						"/>
					</g>
					<polygon class="st3" points="654.5,442 617.2,420.4 617.2,423.7 654.5,445.2 					"/>
				</g>
			</g>
			<g class="st2">
				<g>
					<polygon class="st3" points="714.2,142.1 714.2,145.4 727.8,153.2 727.8,150 					"/>
					<polygon class="st3" points="714.2,148.1 714.2,151.3 727.8,159.1 727.8,155.9 					"/>
					<polygon class="st3" points="714.2,154 714.2,157.2 727.8,165.1 727.8,161.8 					"/>
					<polygon class="st3" points="817,222.4 817,219.2 732.9,170.7 732.9,173.9 					"/>
					<polygon class="st3" points="714.2,159.9 714.2,163.1 727.8,171 727.8,167.7 					"/>
					<polygon class="st3" points="714.2,165.8 714.2,169.1 727.8,176.9 727.8,173.7 					"/>
					<polygon class="st3" points="817,228.3 817,225.1 732.9,176.6 732.9,179.9 					"/>
					<polygon class="st3" points="714.2,183.6 714.2,186.8 727.8,194.7 727.8,191.4 					"/>
					<polygon class="st3" points="714.2,189.5 714.2,192.7 727.8,200.6 727.8,197.3 					"/>
					<polygon class="st3" points="714.2,213.2 714.2,216.4 727.8,224.3 727.8,221 					"/>
					<polygon class="st3" points="714.2,219.1 714.2,222.3 727.8,230.2 727.8,226.9 					"/>
					<g>
						<polygon class="st3" points="786,260.5 732.9,229.9 732.9,233.1 786,263.7 						"/>
						<polygon class="st3" points="788.7,262.1 788.7,265.3 817,281.6 817,278.4 						"/>
					</g>
					<g>
						<polygon class="st3" points="759.6,239.3 732.9,224 732.9,227.2 759.6,242.6 						"/>
						<polygon class="st3" points="762.4,240.9 762.4,244.2 817,275.7 817,272.4 						"/>
					</g>
					<polygon class="st3" points="809.8,250.5 809.8,253.8 817,257.9 817,254.7 					"/>
					<polygon class="st3" points="770.7,222.1 732.9,200.3 732.9,203.5 770.7,225.3 					"/>
					<polygon class="st3" points="755.2,165.8 732.9,152.9 732.9,156.2 755.2,169 					"/>
					<g>
						<polygon class="st3" points="791.8,186.9 758,167.4 758,170.6 791.8,190.1 						"/>
					</g>
					<polygon class="st3" points="772.1,181.4 748.3,167.7 748.3,171 772.1,184.7 					"/>
					<g>
						<polygon class="st3" points="797,195.8 774.9,183 774.9,186.3 797,199 						"/>
						<polygon class="st3" points="799.8,197.4 799.8,200.7 817,210.6 817,207.3 						"/>
					</g>
					<polygon class="st3" points="737.3,167.3 737.3,170.5 755.2,180.9 755.2,177.6 					"/>
					<polygon class="st3" points="810,209.2 758,179.2 758,182.5 810,212.4 					"/>
					<polygon class="st3" points="780.2,209.8 746.3,190.2 746.3,193.5 780.2,213 					"/>
					<polygon class="st3" points="810,227 783,211.4 783,214.7 810,230.2 					"/>
					<g>
						<polygon class="st3" points="807,243 773.5,223.7 773.5,226.9 807,246.2 						"/>
					</g>
					<polygon class="st3" points="788.7,238.4 788.7,241.6 807,252.2 807,248.9 					"/>
					<polygon class="st3" points="739.5,210 732.9,206.2 732.9,209.5 739.5,213.2 					"/>
					<g>
						<polygon class="st3" points="751.8,217.1 751.8,220.3 786,240 786,236.8 						"/>
						<polygon class="st3" points="749,215.5 742.3,211.6 742.3,214.9 749,218.7 						"/>
					</g>
					<polygon class="st3" points="779.6,239.1 742.3,217.5 742.3,220.8 779.6,242.3 					"/>
				</g>
			</g>
			<path class="st15" d="M468.1,558.1c0,0-7.7-3.4-16.7,2.5c-9,6-15.1,14.3-11.4,17.4c3.7,3.1,10.8,6.4,15.4,4.7
				C460.1,581.2,482.9,567.7,468.1,558.1z"/>
			<g>
				<polygon class="st6" points="658.6,522.8 587.2,563.2 541.8,536.9 613.1,496.5 				"/>
				<g>
					<polygon class="st38" points="601.2,562.2 601.2,563.8 672.5,523 672.5,521.8 					"/>
					<polygon class="st39" points="672.5,521.8 601.2,562.2 555.7,535.9 627.1,495.6 					"/>
					<polygon class="st40" points="601.2,562.2 601.2,563.8 555.7,537.5 555.7,535.9 					"/>
				</g>
				<polygon class="st41" points="626.6,499.9 654,515.7 652.8,516.4 625.4,500.5 				"/>
				<polygon class="st41" points="623.7,501.5 651.2,517.3 650,518 622.5,502.2 				"/>
				<polygon class="st41" points="617.1,505.2 654.9,527.1 653.7,527.8 615.9,505.9 				"/>
				<polygon class="st41" points="614.5,506.7 652.3,528.6 651.1,529.2 613.3,507.4 				"/>
				<polygon class="st41" points="611.9,508.2 649.7,530 648.5,530.7 610.6,508.9 				"/>
				<polygon class="st41" points="609.2,509.7 647,531.5 645.8,532.2 608,510.4 				"/>
				<polygon class="st41" points="606.6,511.2 644.4,533 643.2,533.7 605.4,511.9 				"/>
				<polygon class="st41" points="604,512.7 641.8,534.5 640.6,535.2 602.8,513.4 				"/>
				<polygon class="st41" points="601.4,514.2 639.2,536 638,536.7 600.2,514.8 				"/>
				<polygon class="st41" points="598.8,515.6 636.6,537.5 635.4,538.2 597.6,516.3 				"/>
				<polygon class="st41" points="596.1,517.1 634,539 632.8,539.6 594.9,517.8 				"/>
				<polygon class="st41" points="593.5,518.6 631.3,540.4 630.1,541.1 592.3,519.3 				"/>
				<polygon class="st41" points="590.9,520.1 628.7,541.9 627.5,542.6 589.7,520.8 				"/>
				<polygon class="st41" points="588.3,521.6 626.1,543.4 624.9,544.1 587.1,522.3 				"/>
				<polygon class="st41" points="585.7,523.1 623.5,544.9 622.3,545.6 584.5,523.8 				"/>
				<polygon class="st41" points="583.1,524.6 620.9,546.4 619.7,547.1 581.9,525.2 				"/>
				<polygon class="st41" points="580.4,526 618.3,547.9 617.1,548.6 579.2,526.7 				"/>
			</g>
			<g>
				<path class="st12" d="M549.6,546.3H543v7.2h6.7c2.5,0,4.5,2,4.5,4.5v11.7c0,2.5-2,4.5-4.5,4.5h-9.8v7.2h9.8
					c6.4,0,11.7-5.2,11.7-11.7V558C561.3,551.6,556.1,546.3,549.6,546.3z"/>
				<path class="st7" d="M547.1,542.4v40.5c0,6.3-9.4,11.4-20.9,11.4c-11.5,0-20.9-5.1-20.9-11.4v-40.5H547.1z"/>
				<ellipse class="st3" cx="526.2" cy="542.4" rx="20.9" ry="11.4"/>
				<ellipse class="st12" cx="526.2" cy="542.2" rx="16.7" ry="8.9"/>
				<path class="st11" d="M526.2,539.1c-7.3,0-13.5,2.5-15.8,6c2.3,3.5,8.5,6,15.8,6s13.5-2.5,15.8-6
					C539.7,541.6,533.5,539.1,526.2,539.1z"/>
				<path class="st12" d="M534.1,552.9v40.5c4.1-0.9,7.5-2.5,9.9-4.5v-40.5C541.7,550.4,538.2,552,534.1,552.9z"/>
			</g>
		</g>
		<g class="st42">
			<path class="st43" d="M477.7,276.5c4.9,0.1,10.4,3.1,14.2,7.6l-8.6,5.8L477.7,276.5z"/>
			<path class="st43" d="M469,299.2c-1.9-5.5-2.7-10.4-1.7-13.8c0.9-3.9,2.8-6.4,5.2-7.7l6.2,15L469,299.2z"/>
			<path class="st43" d="M487.2,312.6c-2.8,2.2-5.9,4.4-9.1,6.5c-2.2-4.2-4.4-8.7-6.3-13l9.7-7L487.2,312.6z"/>
			<path class="st43" d="M496.5,299.4c-0.3,3.4-2.3,6.5-5.2,9.6l-5.4-12.9l9.3-6.7C496.4,292.3,497,295.7,496.5,299.4z"/>
		</g>
		<g class="st42">
			<path class="st43" d="M399.7,150c4.9,0.1,10.4,3.1,14.2,7.6l-8.6,5.8L399.7,150z"/>
			<path class="st43" d="M391.1,172.7c-1.9-5.5-2.7-10.4-1.7-13.8c0.9-3.9,2.8-6.4,5.2-7.7l6.2,15L391.1,172.7z"/>
			<path class="st43" d="M409.2,186.2c-2.8,2.2-5.9,4.4-9.1,6.5c-2.2-4.2-4.4-8.7-6.3-13l9.7-7L409.2,186.2z"/>
			<path class="st43" d="M418.5,172.9c-0.3,3.4-2.3,6.5-5.2,9.6l-5.4-12.9l9.3-6.7C418.4,165.9,419,169.3,418.5,172.9z"/>
		</g>
		<g class="st42">
			<path class="st43" d="M844.2,401.2c4.9,0.1,10.4,3.1,14.2,7.6l-8.6,5.8L844.2,401.2z"/>
			<path class="st43" d="M835.6,423.9c-1.9-5.5-2.7-10.4-1.7-13.8c0.9-3.9,2.8-6.4,5.2-7.7l6.2,15L835.6,423.9z"/>
			<path class="st43" d="M853.7,437.4c-2.8,2.2-5.9,4.4-9.1,6.5c-2.2-4.2-4.4-8.7-6.3-13l9.7-7L853.7,437.4z"/>
			<path class="st43" d="M863,424.2c-0.3,3.4-2.3,6.5-5.2,9.6l-5.4-12.9l9.3-6.7C862.9,417.1,863.5,420.5,863,424.2z"/>
		</g>
		<g>
			<path class="st44" d="M207.3,597c5.5-3.5,13.2-3.2,19.7,0.9l-7.6,15.2L207.3,597z"/>
			<path class="st44" d="M207.6,636.6c-4.3-7-7.3-13.6-7.6-19.3c-0.7-6.3,0.3-11.2,2.3-14.8l13.4,18.2L207.6,636.6z"/>
			<path class="st44" d="M234.5,646.1c-2.3,5.2-5.2,10.5-8,15.7c-4.4-5.3-8.9-10.8-13-16.3l8-16.8L234.5,646.1z"/>
			<path class="st44" d="M239.9,618.8c1.2,5.6,0.2,12.1-2.1,18.9L225.3,621l8.2-17.2C236.4,607.5,238.8,612.5,239.9,618.8z"/>
		</g>
		<g>
			<path class="st45" d="M627.3,281.4c0.2-1.8-0.3-3.7-1.4-5.7c-1.2-2.2-2.6-3.9-4.1-5.5c-3-3.1-6.1-5.5-9.3-7.4
				c-1.5-0.9-2.9-1.6-4.3-1.7c-1.5-0.1-2.4,0.5-2.5,2.6c0,1.7-0.2,3.3-0.3,4.9c0,0.4,0.1,0.6,0.4,0.9c3.1,2.4,6.2,4.8,9.3,7.3
				c1.1,0.8,1,0.8,1,2.1c0,0.5-0.2,0.5-0.6,0.2c-2.5-2-5-4-7.5-5.9c0,0,0,0,0,0c-2.4-1.9-4.9-3.8-7.3-5.8c-0.4-0.3-0.7-0.5-1.1-0.7
				c-2.5-1.3-4.1-0.6-5.2,1.4c-1.1,2.1-1.4,5-1.5,8c0,2.4,0.1,5,0.9,7.8c0.8,2.9,2.1,5.6,4.3,7.5c1.1,1,2.3,1.9,3.5,2.8
				c0.3,0.3,0.4,0.2,0.4-0.2c0.1-1.8,0.3-3.6,0.4-5.4c0.4-4.6,2.9-5.5,6.9-2.3c3.4,2.7,6.8,5.4,10.2,8.1c0.5,0.4,1,0.7,1.4,1
				c1.9,1.1,3.5,1.3,4.6,0c0.5-0.7,0.7-1.7,0.8-2.9C626.7,288.8,627,285.1,627.3,281.4z M610.2,269.6c-1.1-0.8-1.9-2.6-1.8-3.8
				c0.1-1.2,1.1-1.5,2.1-0.7c1.1,0.8,1.9,2.5,1.8,3.8C612.2,270.2,611.2,270.5,610.2,269.6z"/>
			<path class="st46" d="M637.6,306.7c0.2-2.3-0.1-4.9-1-7.7c-0.8-2.7-2.1-5.2-4.1-7c-1.3-1.2-2.6-2.1-4-3.2c-0.3-0.3-0.3,0-0.3,0.2
				c-0.2,1.9-0.3,3.7-0.5,5.6c0,0.5-0.1,1-0.2,1.5c-0.5,1.9-1.5,3-3.3,2.7c-1.1-0.2-2.3-0.9-3.4-1.8c-3.5-2.7-6.9-5.5-10.4-8.2
				c-0.5-0.4-1-0.8-1.6-1.1c-2.1-1.1-3.8-1.3-4.7,0.6c-0.3,0.6-0.4,1.4-0.5,2.3c-0.3,3.6-0.5,7.2-0.8,10.7c-0.2,2.3,0.6,4.6,2.1,7
				c0.7,1.1,1.4,2.1,2.3,3c3.8,4.2,7.7,7.3,11.6,9.5c1.4,0.8,2.8,1.3,3.9,1c0.8-0.2,1.3-0.8,1.4-2c0.1-1.7,0.2-3.4,0.4-5.1
				c0-0.4,0-0.6-0.4-0.9c-3.1-2.5-6.2-4.9-9.3-7.4c-1.1-0.8-1-0.8-1-2c0-0.5,0.2-0.5,0.6-0.1c2.5,2,5.1,4.1,7.6,6.1l0,0
				c2.3,1.9,4.7,3.7,7,5.6c1.7,1.4,3.2,2,4.5,1.6c2-0.5,2.9-2.5,3.3-5.2C637.4,310.6,637.4,308.6,637.6,306.7z M619.7,313.4
				c1.1,0.9,1.9,2.5,1.8,3.8c-0.1,1.2-1,1.5-2.1,0.7c-1.1-0.9-1.9-2.5-1.8-3.8C617.7,312.9,618.7,312.6,619.7,313.4z"/>
		</g>
		<g>
			<g>
				<g>
					<path class="st28" d="M292,257.6l-55.3-31.9c-1.7-1-3.6-0.9-5.5,0.2l0,0l-12.1,7l5.6,7.7l2.1,2.4v54.8c0,3.3,1.7,6.3,4.6,7.9
						l41.4,23.9l0.4,2.3l8.4,11.8l13-7.6c0,0,0,0,0.1,0l0.1-0.1v0c1.2-0.7,2-2,2-3.6l0-66.7C296.7,262.4,294.9,259.3,292,257.6z"/>
					<path class="st29" d="M279,265.2l-55.9-32.3c-2.7-1.6-6.1,0.4-6.1,3.5v67c0,3.3,1.7,6.3,4.6,7.9l55.9,32.3
						c2.8,1.6,6.3-0.4,6.3-3.6l0-66.7C283.7,270,282,266.9,279,265.2z"/>
				</g>
			</g>
			<g>
				<path class="st47" d="M243.5,312.4c0-2.1,0-4.1,0-6.2c0-1.9-0.8-3.6-2.3-4.7c-1.2-1-2.3-1.5-3.4-1.9c-0.5-0.1-0.5,0.2-0.4,0.8
					c0.1,0.7,0.5,0.7,0.8,0.8c0.8,0.3,1.6,0.7,2.4,1.4c0.9,0.7,1.2,1.7,1.2,2.9c-0.1,1.1-0.8,0-1.2-0.2c-0.9-0.5-1.8-1-2.5-1
					c-0.9,0-1.4,1.1-1.1,2.6c0.3,1.4,1,2.6,2.3,3.6c1,0.8,1.9,1,2.9,0.8c-0.1,1.1,0.4,1.5,1,2C243.8,313.7,243.5,312.8,243.5,312.4z
					 M241.7,308.5c0,1.6-1.2,1.7-2.4,0.4c-0.5-0.6-0.7-1.2-0.8-1.9c-0.1-0.7,0.1-1.2,0.6-1.2c0.7,0,1.5,0.6,2.2,1.2
					C242.1,307.7,241.5,308.1,241.7,308.5z"/>
				<path class="st47" d="M262.4,326.3c0-2.4,0-4.9-0.1-7.4c0-1.7-0.8-3.2-2.3-4.7c-1.7-1.6-3.3-2.4-4.8-2.9
					c-0.5-0.2-0.9-0.3-0.6,0.6c0.2,1.1,0.6,0.9,1.1,1.1c0.9,0.4,1.9,0.9,2.8,1.7c1.1,0.9,1.7,2,1.7,3.4c0,1.5-1,0.1-1.6-0.2
					c-1.1-0.7-2.1-1.3-3.1-1.4c-1.4-0.1-1.9,1.1-1.4,3.1c0.3,1.5,1.4,2.9,2.9,4.1c1.3,1,2.3,1.3,3.6,1.2c-0.2,1.3,0.6,1.9,1.4,2.3
					C262.8,327.9,262.4,326.8,262.4,326.3z M260.2,321.9c0,1.8-1.5,1.9-3,0.3c-0.7-0.7-1-1.5-1.1-2.2c-0.1-0.9,0.1-1.4,0.8-1.3
					c0.9,0.1,1.9,0.9,2.8,1.7C260.6,321,259.9,321.4,260.2,321.9z"/>
				<path class="st48" d="M246.1,276.9c-1.3-2-2.5-3.9-3.5-5.9c-1.7-3.5-1.6-5.3,0.5-6.9c1.3-1,2.8-1.6,4.2-2.4
					c0.8-0.5,1.6-1.1,2.3-1.8c1.1-1.3,1.4-3.1,1.2-5.2c1,1.6,1,3.2,0.7,4.6c-0.4,1.8-1.5,2.9-2.7,3.9c-1,0.9-2.3,1.3-3.4,2.1
					c-2.5,1.8-2.7,3.8-0.7,8.1c0.4,0.8,0.8,1.6,1.1,2.4C245.9,276.1,246.2,276.5,246.1,276.9z"/>
				<path class="st47" d="M248.9,315c0.9-1.8,1.4-3.9,1.8-6.3c0.2-1.3,1.2,0.2,1.7,0.5c0.8,0.5,0.4,0.9,0.3,1.2
					c-0.5,2.8-1.4,5.2-2.5,7.4c-0.5,1-1.4-0.4-2.1-0.8c-0.6-0.3-0.8-0.9-0.9-1.6c-0.8-3.6-1.6-7.1-2.4-10.7c-0.2-0.8,0-0.7,0.5-0.5
					c1,0.5,1.5,1.2,1.8,2.6C247.5,309.5,248.4,312.3,248.9,315z"/>
				<path class="st47" d="M260.4,299.8c0.9,1.2,0.6,1.6,0,1.7c-1.1,0.2-2.4-0.2-3.7-0.7c-5.1-1.8-9.9-4.4-14.4-7.5
					c-2.7-1.8-5.2-3.6-7.7-5.6c-0.6-0.5-1.4-1-1.5-1.9c-0.1-0.8,0.6-0.7,1.1-0.7c1.2,0,2.5,0.3,4.2,1.4c-0.9-0.2-1.5-0.4-2.2-0.5
					c-0.4-0.1-1.1-0.3-1.1,0.3c0,0.6,0.7,1,1.1,1.4c1.4,1.3,2.8,2.4,4.3,3.4c5,3.3,10.4,6.5,16.2,8.9c0.9,0.3,1.7,0.6,2.5,0.8
					C260,300.9,260.5,300.8,260.4,299.8z"/>
				<path class="st47" d="M235.7,301.3c-0.1,1.8,0.2,4.3-0.2,6.4c-0.2,1.4-1,1.7-2.1,1.6c-0.6-0.1-0.7-0.9-0.9-1.4
					c-0.3-0.6,0.1-0.4,0.3-0.4c1-0.1,1.2-1.2,1.2-2.5c0-3.6,0-7.1,0-10.7c0-0.9,0.3-0.8,0.9-0.4c0.6,0.4,0.9,0.6,0.9,1.5
					C235.6,297.1,235.7,299,235.7,301.3z"/>
				<path class="st49" d="M255,265.5c-1.5,0.6-3,1-4.3,1.7c-0.5,0.3-1,0.6-1.4,1.1c-0.7,0.8-0.7,1.9-0.2,3.2
					c0.3,0.8,0.8,1.7,1.2,2.5c1.2,2.4,1.1,3.9-0.3,4.9c-0.5,0.4-1,0.6-1.7,0.6c1.3-1.3,0.7-3.1-0.5-5.3c-2.2-4-1.8-6.7,0.9-8
					C250.6,265.5,252.7,265.3,255,265.5z"/>
				<path class="st47" d="M253.2,293.8c-2.1-0.1-4.1-0.9-6-1.8c-2-1-3.9-2.3-5.7-4c-0.3-0.3-0.7-0.7-1-1.1c-0.4-0.5-0.9-1-0.7-1.6
					c0.1-0.6,0.6-0.4,1.1-0.4c0.1,0,0.2,0.1,0.2,0.1c0.4,1.8,1.6,1.9,2.4,2.5c2.1,1.5,4.2,2.6,6.3,3.3
					C251,291.2,251.8,292.6,253.2,293.8z"/>
				<path class="st47" d="M241.8,275.3c-1.2-0.1-2.1-0.1-3-0.1c-0.2,0-0.6,0-0.5,0.3c0,0.4,0.4,0.7,0.7,0.9c1.4,1.1,2.9,1.7,4.3,2.5
					c3.4,1.7,6.9,3.2,10.5,4.3c0.3,0.1,0.6,0.2,1,0.4c-0.9,0.6-1.9,0.2-2.9-0.1c-5.2-1.7-10-3.9-14.5-7c-0.4-0.3-0.7-0.6-1.1-0.9
					c-0.2-0.2-0.5-0.5-0.5-0.8c0-0.4,0.2-0.4,0.5-0.4c1.2-0.1,2.6,0,4,0.4C240.7,274.9,241.1,275.1,241.8,275.3z"/>
				<path class="st47" d="M253.6,288.9c-4.6-1-8.8-2.9-12.9-6c-0.5-0.4-0.9-0.8-1.4-1.2c-0.3-0.4-0.7-0.8-0.7-1.3
					c0-0.5,0.3-0.5,0.6-0.6c0.3,0,0.6,0,1.1,0c-0.5,0.7-0.2,1.3,0.5,1.8c2.5,1.8,5.2,3.2,7.9,4.3c0.9,0.4,1.9,0.7,2.8,1
					C252.5,287,252.8,288.3,253.6,288.9z"/>
				<path class="st47" d="M237.9,291.8c7.7,5.4,16.1,11.2,25.1,12.6c-0.2,0.7-1,0.8-1.8,0.7c-2.5-0.2-5.1-1.5-7.7-2.8
					c-4.4-2.3-8.5-4.8-12.4-7.8C240,293.8,239,293,237.9,291.8z"/>
				<path class="st47" d="M255.9,291.1c1-0.3,2-0.3,3-0.7c0.8-0.3,1.4-0.7,1.8-1.5c0.8-1.7-0.5-4.5-2.7-5.6c-0.3-0.2-0.7-0.3-1-0.5
					c1.5-0.3,3.8,1.1,5.2,3.2c1.3,2,1.2,3.9-0.1,4.8C260.3,292,258.1,291.7,255.9,291.1z"/>
			</g>
		</g>
		<g>
			<g>
				<g>
					<path class="st5" d="M970.7,343.6l-55.3-31.9c-1.7-1-3.6-0.9-5.5,0.2l0,0l-12.1,7l5.6,7.7l2.1,2.4v54.8c0,3.3,1.7,6.3,4.6,7.9
						l41.4,23.9l0.4,2.3l8.4,11.8l13-7.6c0,0,0,0,0.1,0l0.1-0.1v0c1.2-0.7,2-2,2-3.6l0-66.7C975.4,348.4,973.6,345.3,970.7,343.6z"
						/>
					<path class="st6" d="M957.8,351.2l-55.9-32.3c-2.7-1.6-6.1,0.4-6.1,3.5v67c0,3.3,1.7,6.3,4.6,7.9l55.9,32.3
						c2.8,1.6,6.3-0.4,6.3-3.6l0-66.7C962.5,356,960.7,352.9,957.8,351.2z"/>
				</g>
			</g>
			<path class="st8" d="M962.5,426l0-66.7c0-1.1-0.3-2.2-0.6-3.2l13-7.5c0.3,1,0.6,2,0.6,3.1l0,66.7c0,1.6-0.8,2.8-2,3.6v0l-0.1,0.1
				c0,0,0,0-0.1,0l-12.9,7.6C961.6,429,962.5,427.7,962.5,426z"/>
			<g>
				<path class="st50" d="M943.9,365.8c0-0.5-0.1-0.9-0.5-1.3c-0.5-0.6-1-1.1-1.6-1.7c-0.2-0.3-0.5-0.6-0.7-0.8
					c-0.3-0.3-0.5-0.5-0.8-0.8c-0.4-0.5-0.7-0.4-0.7,0.2c-0.1,1.4-0.1,2.8-0.2,4.1c-0.1,2-0.2,4-0.2,6c-0.2,0.1-0.3,0-0.5-0.2
					c-0.4-0.4-0.8-0.9-1.2-1.3c-0.3-0.3-0.5-0.4-0.8-0.3c-1.9,0.4-3.8,0.9-5.8,1.3c-0.3,0.1-0.5,0.4-0.5,0.8
					c-0.1,2.4-0.1,4.7-0.2,7.1c0,0.4,0.1,0.8,0.5,1.2c1.8,2,3.6,3.9,5.3,5.9c0.3,0.4,0.6,0.5,1,0.4c1.8-0.4,3.7-0.8,5.6-1.2
					c0.4-0.1,0.5-0.3,0.5-0.8C943.4,378.3,943.6,372.1,943.9,365.8z M937.8,380.7c-0.8,0.2-1.4-0.1-2.2-0.9c-0.8-0.9-1.2-1.6-1-2.6
					c0,0,0-0.1,0-0.1c-0.1-1.1,0.2-1.7,1.1-1.6c0,0,0.1,0,0.1,0c0.9-0.7,1.6,0.6,2.4,1.3c0.9,0.8,0.7,1.5,0.7,2.4
					C939.3,380.3,938.6,380.5,937.8,380.7z"/>
				<path class="st50" d="M912.1,368.6c0,1.6,0,3.1-0.1,4.7c0,0.7-0.2,0.8-0.8,0.2c-1-1.1-2-2.2-3-3.3c-0.3-0.3-0.4-0.7-0.4-1.1
					c0-1.3,0-2.6,0-3.9c0-0.8-0.3-1.4-0.8-1.9c0,0-0.1,0-0.1-0.1c-1.3-1.7-1-1.2-2.5-1c-0.6,0.1-0.8,0.4-0.8,1.2
					c0.1,1.3,0,2.6,0,3.9c0,0.4-0.1,0.7-0.5,0.8c-1,0.2-2,0.5-2.9,0.7c-0.5,0.1-0.7-0.1-0.7-0.8c0-2.8,0-5.7,0-8.6
					c0-2,0-1.5,1.2-1.9c1.3-0.4,2.7-0.7,4-1c0.2-0.1,0.4-0.2,0.7-0.2c0.2,0,0.5,0.1,0.7,0.3c1.8,2,3.6,3.9,5.4,5.9
					c0.4,0.4,0.5,0.8,0.5,1.3C912.2,365.5,912.2,367,912.1,368.6C912.1,368.6,912.1,368.6,912.1,368.6z"/>
				<path class="st50" d="M946.2,382c0.1-1.2,0.1-2.4,0.2-3.7c0-0.4,0.1-0.6,0.4-0.7c2-0.4,4.1-0.9,6.2-1.3c0.2,0,0.3,0,0.5,0.2
					c1.5,1.6,2.9,3.2,4.4,4.8c0.4,0.5,0.8,0.9,1.2,1.4c0.4,0.4,0.6,0.8,0.5,1.3c-0.1,0.4-0.1,0.9-0.1,1.3c0,0.4-0.2,0.7-0.5,0.7
					c-1.2,0.3-2.4,0.5-3.6,0.8c-0.3,0.1-0.6-0.3-0.6-0.7c0-0.4,0-0.8,0.1-1.2c0.1-0.6-0.1-1-0.5-1.4c-0.4-0.4-0.8-0.9-1.2-1.4
					c-0.2-0.2-0.4-0.3-0.6-0.3c-0.5,0.1-1.1,0.2-1.6,0.3c-0.2,0.1-0.4,0.2-0.4,0.5c0,0.7,0,1.3-0.1,1.9c0,0.3,0.1,0.6,0.3,0.9
					c1.8,1.9,3.5,3.9,5.3,5.8c0.2,0.2,0.4,0.4,0.4,0.7c0,0.3-0.3,0.3-0.5,0.3c-1.1,0.2-2.1,0.4-3.1,0.6c-0.4,0.1-0.7-0.1-1.1-0.5
					c-1.8-2-3.6-3.9-5.3-5.8c-0.3-0.3-0.5-0.7-0.4-1.1C946.1,384.4,946.2,383.2,946.2,382z"/>
				<path class="st51" d="M930.8,385.2c-0.7-0.8-1.4-1.5-2.1-2.3c-0.2-0.2-0.4-0.3-0.6-0.3c-1.7,0.4-3.3,0.7-5,1.1
					c-0.2,0-0.3,0.2-0.3,0.5c0,2.1-0.1,4.2-0.1,6.3c0,0.3,0.1,0.5,0.3,0.7c0.4,0.5,0.9,1,1.3,1.5c0.2,0.3,0.4,0.3,0.7,0.3
					c0.3-0.1,0.4-0.3,0.5-0.7c0-2.1,0.1-4.1,0.1-6.2c0-0.4,0.1-0.6,0.5-0.4c0.4,0.2,0.5,0.4,0.5,0.8c-0.1,2.1-0.1,4.3-0.2,6.4
					c0,0.5-0.1,0.9-0.4,1.2c-0.5,0.5-1.4,0.1-2.1-0.5c-0.6-0.6-1.2-1.3-1.8-2c-0.4-0.5-0.5-1.1-0.5-1.6c0.1-2.1,0.1-4.2,0.2-6.4
					c0-0.5,0.2-0.9,0.7-1c1.7-0.4,3.4-0.8,5.2-1.2c0.6-0.2,1.2,0.4,1.7,1c1.5,1.7,3.1,3.4,4.6,5.1c0.5,0.5,0.7,1.1,0.7,1.7
					c-0.1,2.2-0.2,4.4-0.2,6.5c0,0.6-0.3,1-0.8,1.1c-1.5,0.3-3.1,0.6-4.6,0.9c-0.3,0.1-0.5,0.1-0.8,0.1c-0.2,0-0.5-0.1-0.7-0.3
					c-0.7-0.6-1.3-1.4-1.9-2.1c-0.2-0.2-0.1-0.3,0-0.3c0.2,0,0.4,0,0.6-0.1c0.1,0,0.2,0.1,0.3,0.2c0.3,0.4,0.7,0.7,1,1.1
					c0.2,0.3,0.4,0.4,0.7,0.3c1.6-0.3,3.2-0.7,4.9-1c0.2,0,0.3-0.2,0.4-0.5c0.1-2.1,0.1-4.2,0.2-6.3c0-0.3-0.1-0.5-0.3-0.8
					c-0.7-0.7-1.4-1.5-2.1-2.2C931.3,385.7,931,385.5,930.8,385.2z"/>
				<path class="st52" d="M924.2,378.9c-0.6,0.3-1.4,0.3-2,0.5c-0.3,0.1-0.5,0.1-0.8,0.2c-0.2,0-0.3,0.1-0.5-0.2
					c0.1-0.2,0-0.4-0.1-0.6c-0.4-1.1-0.9-2.2-1.3-3.3c-0.1-0.2-0.2-0.4-0.1-0.7c0.1-0.2,0.1-0.3,0.1-0.5c-0.2-0.9-0.1-1.6-0.1-2.4
					c0-2,0.1-4,0.1-6c0-0.5,0.1-1,0.1-1.4c0-0.4,0-0.5-0.3-0.4c-0.3,0-0.6-0.1-0.9-0.2c0,0,0-0.1-0.1-0.1c0.7-0.3,1.4-0.3,2.1-0.6
					c0.2-0.1,0.5-0.2,0.8-0.2c0.3,0,0.6,0.2,0.8,0.6c-0.1,0.1-0.1,0.2,0,0.4c0.4,0.8,0.6,1.6,0.9,2.3c0.1,0.4,0.2,0.7,0.2,1
					c-0.1,1.4,0.2,3-0.1,4.3c0,0.1,0,0.2,0,0.2c0.3,1.9-0.1,3.5,0,5.3c0,0.3,0,0.6,0,0.9c0,0.2-0.1,0.4,0.1,0.6
					c0.2,0.2,0.3,0.1,0.5,0.1C923.7,378.7,923.9,378.5,924.2,378.9z"/>
				<path class="st53" d="M924.2,378.9c-0.4-0.2-0.6,0.1-0.9,0.1c-0.1,0-0.3,0.1-0.4-0.1c-0.1-0.2-0.2-0.5-0.2-0.7
					c0.2-0.6,0.1-1.3,0.1-2c-0.1-0.9,0.1-1.8,0.1-2.7c0-0.5,0-1-0.1-1.5c-0.1-0.5,0.1-0.8,0.1-1.2c0.2-1.2,0-2.6,0-3.8
					c0-0.4-0.2-0.7-0.3-1.1c-0.3-0.8-0.6-1.6-0.9-2.3c0.1,0,0.2,0,0.3,0c0,0,0,0,0,0c1,1.2,2,2.2,3,3.5c0.1,0.2,0.3,0.3,0.3,0.5
					c0,0.6,0.3,1.1,0.6,1.6c0.5,0.7,0.7,1.4,0.6,2.1c0,0.1,0,0.2,0,0.4c-0.1,0.4-0.4,0.8-0.6,1.1c-0.2,0.3-0.3,0.2-0.6-0.3
					c-0.1-0.5-0.3-0.9-0.6-1.3c-0.2,0.1-0.1,0.3-0.1,0.5c0,1.2-0.1,2.4-0.1,3.6c0,1-0.1,2,0,3.1c0,0.2,0.1,0.4,0.2,0.6
					C924.5,379,924.3,378.9,924.2,378.9z"/>
				<path class="st54" d="M927.5,392.1c-0.4-0.5-0.4-1-0.5-1.5c0-0.2,0.1-0.2,0.1-0.2c0.3-0.1,0.8,0.3,0.9,0.8
					c0.1,0.5,0.4,0.9,0.8,1.2c0.6,0.4,1.2,0.6,1.8,0.8c0.2,0.1,0.4,0,0.6-0.1c0.4-0.2,0.3-0.8-0.2-1.2c-0.4-0.4-0.9-0.7-1.4-0.9
					c-0.6-0.3-1.2-0.7-1.7-1.2c-1-1-0.9-2.7,0.1-2.9c1-0.2,2.7,0.6,3.6,1.7c0.4,0.5,0.6,1,0.6,1.5c0,0.2,0.1,0.5-0.2,0.4
					c-0.3-0.1-0.6-0.1-0.8-0.5c-0.2-0.6-0.4-1-0.9-1.4c-0.6-0.4-1.2-0.7-1.8-0.7c-0.2,0-0.4,0.2-0.4,0.5c0,0.3,0.2,0.5,0.5,0.7
					c0.6,0.4,1.2,0.8,1.9,1.2c0.4,0.2,0.8,0.6,1.1,0.9c1,0.9,0.8,2.5,0.2,2.8c-0.5,0.3-1.1,0.2-1.7,0c-0.8-0.3-1.6-0.7-2.3-1.4
					C927.8,392.5,927.7,392.3,927.5,392.1z"/>
				<path class="st55" d="M919.4,375c0.3,1,0.7,2,1.1,3.1c0.1,0.4,0.3,0.7,0.4,1.1c0.1,0.3,0,0.3-0.2,0.2c0,0,0,0,0,0
					c-0.2-0.3-0.5-0.5-0.7-0.8c-1-1.1-1.9-2.1-2.9-3.2c-0.7-0.8-1.5-1.5-2.1-2.4c-0.2-0.3-0.1-0.5,0-0.7c0.2-0.3,0.4-0.5,0.6-0.8
					c0.4-0.7,0.9-1.2,1.2-1.9c0.1-0.1,0.1-0.2,0.3-0.1c0.2,0.1,0.3,0.4,0.4,0.6c0.6,1.5,1.1,3,1.7,4.4
					C919.4,374.6,919.3,374.8,919.4,375z"/>
				<path class="st56" d="M925.3,372.4c0.1,0.2,0.2,0.3,0.3,0.1c0.3-0.3,0.5-0.8,0.7-1.1c-0.1-0.2,0-0.3,0.1-0.4
					c0.2-0.4,0.5-0.9,0.8-1.2c0.1-0.1,0.2-0.3,0.4-0.1c0.2,0.2,0.2,0.4,0.1,0.6c-0.1,2.5-0.1,4.9-0.2,7.3c0,0.3-0.1,0.5-0.3,0.5
					c-0.6,0.2-1.2,0.3-1.8,0.4c-0.5-0.1-0.7-0.3-0.6-1c0-1.3,0-2.7,0.1-4c0-0.4-0.1-0.7,0-1.1C924.9,372.3,925,372.1,925.3,372.4z"
					/>
				<path class="st57" d="M917.2,369.5c-0.3,0.3-0.5,0.7-0.7,1.1c-0.2,0.3-0.5,0.6-0.7,1c-0.1,0.1-0.2-0.1-0.3-0.2
					c-0.3-0.4-0.4-0.2-0.4,0c-0.1,0.3,0,0.6-0.1,0.9c0,0.2,0,0.3-0.1,0.4c-0.2-0.2-0.1-0.4-0.1-0.6c0-2.3,0.1-4.6,0.1-6.9
					c0-0.7,0.2-0.9,0.8-0.9c0.1,0.1,0,0.2,0,0.2c-0.3,0.1-0.3,0.3-0.1,0.7c0.3,0.8,0.7,1.5,1,2.2c0,0.2,0.1,0.3,0.2,0.5
					c0,0.3,0.3,0.6,0.4,1C917.2,369.1,917.3,369.3,917.2,369.5z"/>
				<path class="st58" d="M917.2,369.5c-0.1-0.6-0.5-1.1-0.6-1.6c0.4,0.2,0.5,0.1,0.3-0.4c-0.1-0.3-0.2-0.5-0.2-0.8
					c-0.1-0.3,0-0.5,0.1-0.7c0.2-0.2,0.2-0.7,0.2-1c0-0.4-0.1-0.5-0.5-0.5c-0.2,0-0.4,0-0.6-0.3c0.4-0.2,0.8-0.3,1.2-0.3
					c0.4,0,0.6-0.2,1-0.1c0.2,0.1,0.2,0.3,0.2,0.4c-0.1,1.8-0.1,3.6-0.1,5.4c0,0.1,0,0.2,0,0.3c0,0.2,0,0.5-0.3,0.5
					c-0.2,0-0.3-0.3-0.4-0.5C917.3,369.9,917.4,369.6,917.2,369.5z"/>
				<path class="st59" d="M951.5,384.2c0.1-0.2-0.1-0.7,0.2-0.8c0.4-0.1,0.8-0.4,1.2-0.2c0.4,0.2,0.8,0.7,1.1,1.2
					c0.2,0.4,0,0.8,0,1.2c0,0.2,0,0.4-0.1,0.5c-0.4,0.1-0.8,0.3-1.2,0.1c-0.4-0.2-0.8-0.7-1.1-1.2
					C951.4,384.8,951.6,384.5,951.5,384.2z"/>
				<path class="st60" d="M925.3,372.4c-0.5-0.2-0.3,0.4-0.3,0.6c0.1,1.1,0,2.2,0,3.3c0,0.5,0,1,0,1.4c-0.1,0.4,0.1,0.8,0.5,0.9
					c-0.3,0.1-0.6,0.2-0.9,0.2c-0.3-0.2-0.4-0.5-0.3-0.8c0.1-0.2-0.1-0.4,0-0.6c0.1-2.1,0.1-4.3,0.1-6.4c0-0.1,0-0.3,0.1-0.2
					c0.1,0,0.2,0.1,0.2,0.2C924.9,371.4,925.3,371.9,925.3,372.4z"/>
				<path class="st52" d="M927.5,369.8c-0.2-0.1-0.2,0.1-0.3,0.2c-0.3,0.5-0.7,1-0.9,1.5c-0.1-0.1-0.1-0.2-0.1-0.3
					c0.1-0.6,0-1.3-0.5-2c-0.4-0.5-0.7-1.1-0.7-1.7c0-0.3-0.4-0.6-0.6-0.9c-0.8-0.9-1.5-1.8-2.3-2.7c-0.1-0.1-0.2-0.2-0.2-0.4
					c0.5,0.3,0.8,0.9,1.3,1.3c1.4,1.5,2.7,3,4.1,4.6C927.4,369.5,927.5,369.6,927.5,369.8z"/>
				<path class="st61" d="M916,364.2c0.3,0.1,0.5,0.3,0.7,0.1c0.2-0.2,0.3,0,0.4,0.3c0.2,0.6,0.1,1.2-0.2,1.5
					c-0.3,0.3,0,0.8,0.1,1.2c0,0.1,0.1,0.2,0.1,0.4c0.1,0.3,0.1,0.5-0.1,0.6c-0.2,0.1-0.2-0.3-0.4-0.4c-0.3-0.7-0.5-1.4-0.9-2
					c-0.2-0.4-0.2-0.8-0.5-1.2c-0.1-0.1,0-0.2,0.1-0.2c0.1,0,0.3,0,0.4-0.2C915.8,364.2,915.9,364.2,916,364.2z"/>
				<path class="st62" d="M936.7,388.3c0.5,0.3,1.1,1.1,1.1,1.7c0,0.6-0.6,1-1.2,0.7c-0.5-0.3-1-1-1-1.7
					C935.7,388.4,936.2,388.1,936.7,388.3z"/>
				<path class="st63" d="M915,372.7c0-0.4,0-0.7,0-1.1c0-0.2,0-0.4,0.1-0.6c0.1-0.2,0.3-0.2,0.4,0.1c0.1,0.2,0.1,0.3,0.3,0.4
					c-0.2,0.3-0.4,0.6-0.6,0.8c-0.1,0.2-0.2,0.4-0.1,0.7C915,372.9,915,372.8,915,372.7z"/>
				<path class="st52" d="M918.2,363.9c-0.3,0.1-0.6,0.2-1,0.1c0.3-0.2,0.7-0.3,1-0.3c0,0,0,0,0,0
					C918.3,363.8,918.2,363.8,918.2,363.9z"/>
				<path class="st64" d="M925,393.1c-0.2,0.2-0.5,0.1-0.7-0.3C924.6,392.8,924.8,392.9,925,393.1z"/>
				<path class="st52" d="M920.1,378.6c0.3,0.2,0.5,0.4,0.7,0.8C920.6,379.1,920.3,378.9,920.1,378.6z"/>
				<path class="st65" d="M930.8,385.2c0.3,0.2,0.5,0.4,0.7,0.8C931.2,385.8,931,385.6,930.8,385.2z"/>
				<path class="st66" d="M927.7,397.7c0.2,0.1,0.5,0.2,0.7,0.3C928.2,398.1,927.9,398,927.7,397.7z"/>
				<path class="st67" d="M941.8,362.8c-0.3-0.2-0.5-0.4-0.7-0.8C941.4,362.2,941.6,362.5,941.8,362.8z"/>
				<path class="st68" d="M939.2,371.5c-0.2,0.3-0.3,0.1-0.5-0.2C938.9,371.4,939.1,371.5,939.2,371.5z"/>
				<path class="st69" d="M927.5,392.1c0.2,0.1,0.3,0.3,0.4,0.6C927.7,392.6,927.6,392.4,927.5,392.1z"/>
				<path class="st70" d="M918.2,363.9c0,0,0.1-0.1,0.1-0.1c0.2,0,0.4-0.1,0.7,0.2c0.2,0.1,0.3-0.1,0.4-0.1c0.2-0.1,0.4,0,0.4,0.4
					c0,0.5-0.1,0.9-0.1,1.4c0,2.4-0.1,4.8-0.1,7.1c0,0.6,0,1.1,0.1,1.7c0.1,0.3-0.1,0.4-0.2,0.6c-0.3-0.6-0.5-1.2-0.8-1.8
					c-0.4-1-0.8-2.1-1.1-3.1c0,0,0.1,0,0.1,0c0.1,0.1,0.1,0.5,0.4,0.4c0.2-0.1,0.1-0.3,0.2-0.6c0-1.4,0-2.9,0.1-4.3
					c0-0.5-0.1-1,0.1-1.4C918.4,364,918.3,363.9,918.2,363.9z"/>
				<path class="st71" d="M936.7,388.7c0.4,0.2,0.8,0.8,0.8,1.2c0,0.5-0.5,0.9-0.9,0.6c-0.4-0.2-0.8-0.9-0.8-1.3
					C935.8,388.7,936.2,388.4,936.7,388.7z"/>
				<path class="st72" d="M936.7,389.7c-0.2,0-0.1,0.4-0.3,0.2c-0.2-0.1-0.1-0.3-0.1-0.5c0-0.1,0-0.3,0-0.4c0-0.4,0.2-0.4,0.5-0.2
					c0.3,0.2,0.4,0.4,0.3,0.7c0,0.1,0,0.1,0,0.2c0,0.2,0.1,0.4,0,0.4C936.8,390.3,936.8,389.9,936.7,389.7z"/>
			</g>
		</g>
	</g>
</g>
</svg>
